<svg xmlns="http://www.w3.org/2000/svg" width="183.605" height="190.931" viewBox="0 0 183.605 190.931">
  <g id="_14-day-icon" data-name="14-day-icon" transform="translate(-654.721 -67.161)">
    <g id="Group_76" data-name="Group 76" transform="translate(654.721 67.161)">
      <path id="Path_140" data-name="Path 140" d="M786.5,242.373l-2.666-.832A18.5,18.5,0,0,0,763.4,248.27l-1.65,2.254a18.5,18.5,0,0,1-29.761.118l-1.669-2.24a18.5,18.5,0,0,0-20.485-6.566l-2.659.853a18.5,18.5,0,0,1-24.147-17.4L683,222.5a18.5,18.5,0,0,0-12.714-17.353l-2.653-.873a18.5,18.5,0,0,1-9.309-28.267l1.615-2.279a18.5,18.5,0,0,0-.086-21.512l-1.633-2.266a18.5,18.5,0,0,1,9.084-28.34l2.646-.894a18.5,18.5,0,0,0,12.575-17.454l.011-2.793a18.5,18.5,0,0,1,24.007-17.589l2.666.832a18.5,18.5,0,0,0,20.432-6.729l1.65-2.253a18.5,18.5,0,0,1,29.761-.119l1.668,2.24a18.5,18.5,0,0,0,20.486,6.566l2.659-.853a18.5,18.5,0,0,1,24.147,17.4l.033,2.793a18.5,18.5,0,0,0,12.713,17.353l2.653.873a18.5,18.5,0,0,1,9.309,28.267l-1.615,2.279a18.5,18.5,0,0,0,.086,21.511l1.633,2.266a18.5,18.5,0,0,1-9.084,28.341l-2.646.894a18.5,18.5,0,0,0-12.575,17.454l-.011,2.793A18.5,18.5,0,0,1,786.5,242.373Z" transform="translate(-654.721 -67.161)" fill="#38c073"/>
      <path id="Path_141" data-name="Path 141" d="M876.582,196.459l-1.633-2.266a18.5,18.5,0,0,1-.086-21.511l1.615-2.279a18.5,18.5,0,0,0-9.309-28.268l-2.653-.873A18.5,18.5,0,0,1,851.8,123.909l-.033-2.793a18.367,18.367,0,0,0-7.107-14.35L732.892,261.523a18.368,18.368,0,0,0,16.045,2.323l2.659-.853a18.5,18.5,0,0,1,20.485,6.566l1.669,2.24a18.5,18.5,0,0,0,29.761-.118l1.65-2.254a18.5,18.5,0,0,1,20.432-6.729l2.666.832a18.5,18.5,0,0,0,24.007-17.589l.011-2.793a18.5,18.5,0,0,1,12.575-17.454l2.646-.894A18.5,18.5,0,0,0,876.582,196.459Z" transform="translate(-696.478 -88.317)" fill="#22aa5d"/>
    </g>
    <g id="Group_82" data-name="Group 82" transform="translate(683.541 96.155)">
      <g id="Group_80" data-name="Group 80" transform="translate(0)">
        <g id="Group_77" data-name="Group 77">
          <path id="Path_142" data-name="Path 142" d="M723.836,193.572l12.991,6.238-1.3,2.71-8.686-4.171,6.523,7.723-1.07,2.227-10.106-.262,8.686,4.171-1.292,2.691-12.991-6.239,1.666-3.471,11.009.285-7.1-8.414Z" transform="translate(-716.59 -163.68)" fill="#fff"/>
          <path id="Path_143" data-name="Path 143" d="M748.389,179.073a7.433,7.433,0,1,1,10.526-.052A7.245,7.245,0,0,1,748.389,179.073Zm8.246-8.352a4.31,4.31,0,1,0,.215,6.259A4.265,4.265,0,0,0,756.635,170.721Z" transform="translate(-732.344 -149.088)" fill="#fff"/>
          <path id="Path_144" data-name="Path 144" d="M783.716,140.1l6.854,12.683-2.718,1.469-10.235-5.119,4.456,8.243-2.664,1.44-6.855-12.683,2.718-1.469,10.2,5.093-4.436-8.206Z" transform="translate(-746.485 -135.116)" fill="#fff"/>
          <path id="Path_145" data-name="Path 145" d="M812.413,135.138l.637,2.663,6.068-1.45.651,2.723-6.068,1.45.752,3.145,7.049-1.686.656,2.744-9.993,2.389L808.814,133.1l9.992-2.389.656,2.743Z" transform="translate(-765.854 -130.101)" fill="#fff"/>
          <path id="Path_146" data-name="Path 146" d="M852.065,129.5l-5.213,8.71-.043,5.662-3.068-.023.043-5.662L838.7,129.4l3.418.026,3.23,5.686,3.3-5.636Z" transform="translate(-781.82 -129.403)" fill="#fff"/>
          <path id="Path_147" data-name="Path 147" d="M889.741,147c-.88,2.506-3.265,3.393-6.567,2.233l-6.022-2.116,4.777-13.6,5.458,1.918c3.069,1.078,4.328,3.026,3.5,5.377a3.028,3.028,0,0,1-2.281,2.145A3.377,3.377,0,0,1,889.741,147Zm-2.917-1.2c.368-1.049-.117-2.027-1.633-2.559l-3.108-1.092-1.242,3.536,3.109,1.091C885.465,147.307,886.448,146.867,886.824,145.8Zm-2.912-8.857-1,2.855,2.719.955c1.2.423,2.017.1,2.331-.8.321-.913-.124-1.636-1.328-2.059Z" transform="translate(-802.358 -131.6)" fill="#fff"/>
          <path id="Path_148" data-name="Path 148" d="M911.528,164.077l-4.779-3.263-2.653,1.879-2.671-1.823,12.651-8.819,2.943,2.009-3.6,14.994-2.671-1.823Zm.692-2.694,1.373-5.446-4.588,3.251Z" transform="translate(-815.324 -141.502)" fill="#fff"/>
          <path id="Path_149" data-name="Path 149" d="M935.435,176.274a7.486,7.486,0,0,1,11.875,8.241l-2.923-1.034a4.129,4.129,0,0,0-.649-4.466,4.557,4.557,0,0,0-6.95,5.876,4.152,4.152,0,0,0,4.31,1.4l.549,3.041a7.492,7.492,0,0,1-6.212-13.056Z" transform="translate(-832.034 -153.448)" fill="#fff"/>
          <path id="Path_150" data-name="Path 150" d="M954.477,208.982l-2.511-.852-3.432,1.556-1.25-2.757,13.129-5.95,1.249,2.758-5.964,2.7,8.523,2.942,1.564,3.451-8.416-2.855-4.611,9.031-1.581-3.489Z" transform="translate(-839.821 -167.637)" fill="#fff"/>
        </g>
        <g id="Group_78" data-name="Group 78" transform="translate(5.533 88.689)">
          <path id="Path_151" data-name="Path 151" d="M740.728,336.374l-5.74,3.662a9.938,9.938,0,0,1-5.155-4.119c-2.45-3.839-1.527-8.218,2.171-10.578a7.63,7.63,0,0,1,11.287,8.953l-2.842-1.308a4.139,4.139,0,0,0-.451-3.776,4.619,4.619,0,0,0-7.626,5.212,6.734,6.734,0,0,0,2.439,2.309l2.113-1.349-1.685-2.641,2.254-1.438Z" transform="translate(-728.468 -322.074)" fill="#fff"/>
          <path id="Path_152" data-name="Path 152" d="M753.022,352.174l5.774-6.5,2.295,2.04-5.566,6.261c-1.61,1.811-1.5,3.417-.033,4.722s3.075,1.225,4.686-.586l5.566-6.261,2.311,2.054L762.28,360.4c-2.665,3-5.873,3.053-8.745.5S750.357,355.171,753.022,352.174Z" transform="translate(-740.606 -333.621)" fill="#fff"/>
          <path id="Path_153" data-name="Path 153" d="M783.37,381.325l-5.228-2.666-2.428,2.232-2.921-1.49,11.592-10.5,3.219,1.641L785.91,386.09l-2.921-1.49Zm.349-2.8.681-5.656-4.2,3.862Z" transform="translate(-752.145 -346.025)" fill="#fff"/>
          <path id="Path_154" data-name="Path 154" d="M815.247,388l-1.592-.349-1.1,5.02-3-.657,3.129-14.283,6.121,1.341c3.1.679,4.683,2.929,4.066,5.745A4.428,4.428,0,0,1,818.6,388.5l2.81,6.111-3.633-.8Zm-.975-3.164,2.877.63c1.469.322,2.372-.186,2.622-1.329s-.362-1.961-1.831-2.283l-2.877-.63Z" transform="translate(-771.784 -350.741)" fill="#fff"/>
          <path id="Path_155" data-name="Path 155" d="M852.209,394.07l-5.865.249-1.017,3.138-3.277.138,4.932-14.845,3.611-.153,6.171,14.374-3.276.139Zm-1.072-2.61-2.188-5.26-1.756,5.427Z" transform="translate(-789.141 -353.341)" fill="#fff"/>
          <path id="Path_156" data-name="Path 156" d="M885.318,373.2l4.486,13.919-2.983.961-9.259-7,2.916,9.047-2.923.942-4.486-13.918,2.983-.961,9.226,6.97-2.9-9.008Z" transform="translate(-805.711 -348.319)" fill="#fff"/>
          <path id="Path_157" data-name="Path 157" d="M912.432,361.223l-3.748,2.36,6.235,9.9-2.617,1.648-6.235-9.9-3.748,2.36-1.558-2.475,10.111-6.368Z" transform="translate(-820.503 -340.602)" fill="#fff"/>
          <path id="Path_158" data-name="Path 158" d="M927.97,348.747l1.972,1.956,4.457-4.494,2.017,2-4.457,4.493,2.328,2.31,5.178-5.22,2.031,2.016-7.34,7.4-10.38-10.3,7.34-7.4,2.031,2.015Z" transform="translate(-832.796 -331.395)" fill="#fff"/>
          <path id="Path_159" data-name="Path 159" d="M945.514,327.554l2.365,1.457,3.321-5.387,2.418,1.49L950.3,330.5l2.791,1.72,3.858-6.258,2.436,1.5-5.469,8.872-12.445-7.672,5.469-8.872,2.435,1.5Z" transform="translate(-842.247 -319.793)" fill="#fff"/>
        </g>
        <g id="Group_79" data-name="Group 79" transform="translate(2.595 56.495)">
          <path id="Path_160" data-name="Path 160" d="M975.379,250.683l-1.312.3a59.063,59.063,0,0,1-1.958,26.355l1.311.3a60.395,60.395,0,0,0,1.958-26.959Z" transform="translate(-855.677 -250.683)" fill="#fff"/>
          <path id="Path_161" data-name="Path 161" d="M723.5,259.912a59.073,59.073,0,0,1,.676-8.927l-1.312-.3a60.395,60.395,0,0,0,1.958,26.959l1.311-.3A58.677,58.677,0,0,1,723.5,259.912Z" transform="translate(-722.161 -250.683)" fill="#fff"/>
        </g>
      </g>
      <g id="Group_81" data-name="Group 81" transform="translate(36.779 36.239)">
        <path id="Path_162" data-name="Path 162" d="M816.736,207.2v32.61h-8.385V216.283l-7.314,3.541v-8.293l8.525-4.332Z" transform="translate(-798.479 -207.199)" fill="#fff"/>
        <path id="Path_163" data-name="Path 163" d="M871.31,233.8h-3.447v6.009h-7.92V233.8H844.337v-6.709L858.405,207.2h9.457v19.892h3.447Zm-11.367-6.709V216.33l-7.594,10.761Z" transform="translate(-821.608 -207.199)" fill="#fff"/>
        <path id="Path_164" data-name="Path 164" d="M812.653,302.032c0,6.251-4.178,9.946-10.287,9.946h-6.821V292.086h6.821C808.5,292.086,812.653,295.752,812.653,302.032Zm-5.286,0c0-3.268-1.79-5.059-5-5.059H800.66V307.09h1.705C805.577,307.09,807.367,305.3,807.367,302.032Z" transform="translate(-795.545 -252.543)" fill="#fff"/>
        <path id="Path_165" data-name="Path 165" d="M847.3,308.369h-7.218l-1.25,3.609h-5.456l7.246-19.892h6.138L854,311.978h-5.456Zm-1.535-4.376-2.074-5.967-2.075,5.967Z" transform="translate(-815.751 -252.543)" fill="#fff"/>
        <path id="Path_166" data-name="Path 166" d="M890.627,292.086l-6.763,12.077v7.815h-5.172v-7.815l-6.763-12.077h5.711l3.638,6.763,3.638-6.763Z" transform="translate(-836.347 -252.543)" fill="#fff"/>
      </g>
    </g>
  </g>
</svg>
