<svg xmlns="http://www.w3.org/2000/svg" xmlns:xlink="http://www.w3.org/1999/xlink" width="660" height="582" viewBox="0 0 660 582">
  <defs>
    <filter id="Rectangle_436" x="218" y="0" width="442" height="216" filterUnits="userSpaceOnUse">
      <feOffset dy="5" input="SourceAlpha"/>
      <feGaussianBlur stdDeviation="10" result="blur"/>
      <feFlood flood-color="#3c50e0" flood-opacity="0.149"/>
      <feComposite operator="in" in2="blur"/>
      <feComposite in="SourceGraphic"/>
    </filter>
    <filter id="Rectangle_436-2" x="0" y="169" width="425" height="207" filterUnits="userSpaceOnUse">
      <feOffset dy="5" input="SourceAlpha"/>
      <feGaussianBlur stdDeviation="10" result="blur-2"/>
      <feFlood flood-color="#3c50e0" flood-opacity="0.149"/>
      <feComposite operator="in" in2="blur-2"/>
      <feComposite in="SourceGraphic"/>
    </filter>
    <filter id="Rectangle_693" x="261" y="264" width="218" height="81" filterUnits="userSpaceOnUse">
      <feOffset dy="5" input="SourceAlpha"/>
      <feGaussianBlur stdDeviation="5" result="blur-3"/>
      <feFlood flood-color="#07003b" flood-opacity="0.149"/>
      <feComposite operator="in" in2="blur-3"/>
      <feComposite in="SourceGraphic"/>
    </filter>
    <filter id="Rectangle_436-3" x="243" y="330" width="346" height="252" filterUnits="userSpaceOnUse">
      <feOffset dy="5" input="SourceAlpha"/>
      <feGaussianBlur stdDeviation="10" result="blur-4"/>
      <feFlood flood-color="#3c50e0" flood-opacity="0.149"/>
      <feComposite operator="in" in2="blur-4"/>
      <feComposite in="SourceGraphic"/>
    </filter>
  </defs>
  <g id="addon-03" transform="translate(-420 -2791)">
    <g id="setting_1" data-name="setting 1" transform="translate(334 1146)">
      <g transform="matrix(1, 0, 0, 1, 86, 1645)" filter="url(#Rectangle_436)">
        <rect id="Rectangle_436-4" data-name="Rectangle 436" width="382" height="156" rx="10" transform="translate(248 25)" fill="#fff"/>
      </g>
      <g id="Aside" transform="translate(359 1700)">
        <g id="Disable" transform="translate(5)">
          <g id="Rectangle_693-2" data-name="Rectangle 693" fill="rgba(177,185,243,0.1)" stroke="#b1b9f3" stroke-width="2">
            <rect width="156" height="43" rx="5" stroke="none"/>
            <rect x="1" y="1" width="154" height="41" rx="4" fill="none"/>
          </g>
          <rect id="Rectangle_694" data-name="Rectangle 694" width="85" height="12" rx="2" transform="translate(13 16)" fill="#515e81" opacity="0.3"/>
        </g>
        <g id="Disable-2" data-name="Disable" transform="translate(5 53)">
          <g id="Rectangle_693-3" data-name="Rectangle 693" fill="rgba(177,185,243,0.1)" stroke="#b1b9f3" stroke-width="2">
            <rect width="156" height="43" rx="5" stroke="none"/>
            <rect x="1" y="1" width="154" height="41" rx="4" fill="none"/>
          </g>
          <rect id="Rectangle_696" data-name="Rectangle 696" width="85" height="12" rx="2" transform="translate(13 16)" fill="#515e81" opacity="0.3"/>
        </g>
        <g id="Disable-3" data-name="Disable" transform="translate(171)">
          <g id="Rectangle_693-4" data-name="Rectangle 693" fill="rgba(177,185,243,0.1)" stroke="#b1b9f3" stroke-width="2">
            <rect width="156" height="43" rx="5" stroke="none"/>
            <rect x="1" y="1" width="154" height="41" rx="4" fill="none"/>
          </g>
          <rect id="Rectangle_695" data-name="Rectangle 695" width="85" height="12" rx="2" transform="translate(13 16)" fill="#515e81" opacity="0.3"/>
        </g>
        <g id="Disable-4" data-name="Disable" transform="translate(171 53)">
          <g id="Rectangle_693-5" data-name="Rectangle 693" fill="rgba(177,185,243,0.1)" stroke="#b1b9f3" stroke-width="2">
            <rect width="156" height="43" rx="5" stroke="none"/>
            <rect x="1" y="1" width="154" height="41" rx="4" fill="none"/>
          </g>
          <path id="Path_747" data-name="Path 747" d="M2.94-1.652V-9.8H1.176V0H7.644V-1.652ZM12.53.168a3.668,3.668,0,0,0,3.794-3.752A3.66,3.66,0,0,0,12.53-7.336,3.672,3.672,0,0,0,8.722-3.584,3.68,3.68,0,0,0,12.53.168Zm0-1.54a2.075,2.075,0,0,1-2.1-2.212,2.064,2.064,0,0,1,2.1-2.2,2.061,2.061,0,0,1,2.086,2.2A2.072,2.072,0,0,1,12.53-1.372Zm10.57-5.8v.56a3.143,3.143,0,0,0-2.072-.728,3.566,3.566,0,0,0-3.556,3.654A3.538,3.538,0,0,0,21.028-.07,3.132,3.132,0,0,0,23.1-.784v.6A1.793,1.793,0,0,1,21.07,1.68,3.74,3.74,0,0,1,18.62.658L17.612,1.89A4.938,4.938,0,0,0,21.1,3.22c2.268,0,3.682-1.274,3.682-3.4V-7.168ZM21.266-1.582a2.026,2.026,0,0,1-2.086-2.1A2.03,2.03,0,0,1,21.266-5.8a2.406,2.406,0,0,1,1.834.84v2.534A2.406,2.406,0,0,1,21.266-1.582ZM27.65-8.12A1.067,1.067,0,0,0,28.714-9.2a1.073,1.073,0,0,0-1.064-1.064A1.088,1.088,0,0,0,26.558-9.2,1.082,1.082,0,0,0,27.65-8.12ZM26.8,0h1.68V-7.168H26.8Zm7.56-7.336a3.431,3.431,0,0,0-2.184.77v-.6h-1.68V0h1.68V-4.942a2.3,2.3,0,0,1,1.764-.84c.938,0,1.526.616,1.526,1.848V0h1.68V-4.3A2.713,2.713,0,0,0,34.356-7.336ZM54.1-9.8,51.968-2.758,49.616-9.8h-1.61L45.654-2.758,43.526-9.8H41.692L44.66,0h1.764l2.394-7.252L51.2,0h1.764l2.982-9.8ZM58.17-8.12A1.067,1.067,0,0,0,59.234-9.2a1.073,1.073,0,0,0-1.064-1.064A1.088,1.088,0,0,0,57.078-9.2,1.082,1.082,0,0,0,58.17-8.12ZM57.316,0H59V-7.168h-1.68Zm8.89-10.332v3.71a3.2,3.2,0,0,0-2.058-.714,3.6,3.6,0,0,0-3.57,3.752A3.6,3.6,0,0,0,64.148.168a3.2,3.2,0,0,0,2.058-.714V0h1.68V-10.332ZM64.4-1.372a2.078,2.078,0,0,1-2.114-2.212,2.067,2.067,0,0,1,2.114-2.2,2.315,2.315,0,0,1,1.806.826v2.744A2.329,2.329,0,0,1,64.4-1.372Zm10.71-5.8v.56a3.143,3.143,0,0,0-2.072-.728,3.566,3.566,0,0,0-3.556,3.654A3.538,3.538,0,0,0,73.038-.07,3.132,3.132,0,0,0,75.11-.784v.6A1.793,1.793,0,0,1,73.08,1.68,3.74,3.74,0,0,1,70.63.658L69.622,1.89a4.938,4.938,0,0,0,3.486,1.33c2.268,0,3.682-1.274,3.682-3.4V-7.168ZM73.276-1.582a2.026,2.026,0,0,1-2.086-2.1A2.03,2.03,0,0,1,73.276-5.8a2.406,2.406,0,0,1,1.834.84v2.534A2.406,2.406,0,0,1,73.276-1.582ZM85.764-3.794a3.354,3.354,0,0,0-3.556-3.542,3.684,3.684,0,0,0-3.836,3.808,3.577,3.577,0,0,0,3.85,3.7A3.966,3.966,0,0,0,85.54-1.4l-1.176-.9A2.6,2.6,0,0,1,82.25-1.274a2.019,2.019,0,0,1-2.2-1.89h5.67A4.608,4.608,0,0,0,85.764-3.794Zm-3.57-2.128a1.719,1.719,0,0,1,1.876,1.5H80.136A1.971,1.971,0,0,1,82.194-5.922ZM91.938-1.6a3.76,3.76,0,0,1-1.092.2c-.826,0-1.218-.434-1.218-1.442V-5.7H91.91v-1.47H89.628V-8.876h-1.68v1.708h-1.47V-5.7h1.47v3.052c0,1.918.882,2.786,2.59,2.786a3.934,3.934,0,0,0,1.638-.322Z" transform="translate(13 25)" fill="#07003b"/>
          <path id="Path_748" data-name="Path 748" d="M-4.525-9a.7.7,0,0,0-.5,1.2L-.5-3.277a.7.7,0,0,0,.995,0L5.017-7.8a.7.7,0,0,0-.5-1.2Z" transform="translate(137 28)" fill="#07003b"/>
        </g>
      </g>
    </g>
    <g id="setting_1-2" data-name="setting 1" transform="translate(116 1315)">
      <g transform="matrix(1, 0, 0, 1, 304, 1476)" filter="url(#Rectangle_436-2)">
        <rect id="Rectangle_436-5" data-name="Rectangle 436" width="365" height="147" rx="10" transform="translate(30 194)" fill="#fff"/>
      </g>
      <g id="logo_Image" data-name="logo Image" transform="translate(359 1700)">
        <g id="Upload_box" data-name="Upload box" transform="translate(0)">
          <g id="Rectangle_550" data-name="Rectangle 550" fill="rgba(60,80,224,0.1)" stroke="#8495c2" stroke-width="2" stroke-dasharray="4 4">
            <rect width="315" height="87" rx="10" stroke="none"/>
            <rect x="1" y="1" width="313" height="85" rx="9" fill="none"/>
          </g>
          <path id="Path_749" data-name="Path 749" d="M-29.638-9.8H-32.8V0h3.164A4.689,4.689,0,0,0-24.6-4.9,4.689,4.689,0,0,0-29.638-9.8Zm-.084,8.148h-1.316v-6.5h1.316a2.991,2.991,0,0,1,3.3,3.248A2.991,2.991,0,0,1-29.722-1.652Zm10.444-5.684a2.51,2.51,0,0,0-1.988.938v-.77h-1.68V0h1.68V-4.662a2.238,2.238,0,0,1,1.974-1.092,3.907,3.907,0,0,1,.658.07l.1-1.554A2.927,2.927,0,0,0-19.278-7.336Zm7.014.168v.546a3.2,3.2,0,0,0-2.058-.714,3.6,3.6,0,0,0-3.57,3.752A3.6,3.6,0,0,0-14.322.168a3.2,3.2,0,0,0,2.058-.714V0h1.68V-7.168Zm-1.806,5.8a2.078,2.078,0,0,1-2.114-2.212,2.067,2.067,0,0,1,2.114-2.2,2.315,2.315,0,0,1,1.806.826v2.744A2.329,2.329,0,0,1-14.07-1.372Zm10.71-5.8v.56a3.143,3.143,0,0,0-2.072-.728A3.566,3.566,0,0,0-8.988-3.682,3.538,3.538,0,0,0-5.432-.07,3.132,3.132,0,0,0-3.36-.784v.6A1.793,1.793,0,0,1-5.39,1.68,3.74,3.74,0,0,1-7.84.658L-8.848,1.89A4.938,4.938,0,0,0-5.362,3.22c2.268,0,3.682-1.274,3.682-3.4V-7.168ZM-5.194-1.582a2.026,2.026,0,0,1-2.086-2.1A2.03,2.03,0,0,1-5.194-5.8a2.406,2.406,0,0,1,1.834.84v2.534A2.406,2.406,0,0,1-5.194-1.582ZM7.63-7.336a3.431,3.431,0,0,0-2.184.77v-3.766H3.766V0h1.68V-4.942a2.3,2.3,0,0,1,1.764-.84c.938,0,1.526.616,1.526,1.848V0h1.68V-4.3A2.713,2.713,0,0,0,7.63-7.336ZM19.32-3.794a3.354,3.354,0,0,0-3.556-3.542,3.684,3.684,0,0,0-3.836,3.808,3.577,3.577,0,0,0,3.85,3.7A3.966,3.966,0,0,0,19.1-1.4L17.92-2.3a2.6,2.6,0,0,1-2.114,1.022,2.019,2.019,0,0,1-2.2-1.89h5.67A4.608,4.608,0,0,0,19.32-3.794ZM15.75-5.922a1.719,1.719,0,0,1,1.876,1.5H13.692A1.971,1.971,0,0,1,15.75-5.922ZM24.6-7.336A2.51,2.51,0,0,0,22.61-6.4v-.77H20.93V0h1.68V-4.662a2.238,2.238,0,0,1,1.974-1.092,3.907,3.907,0,0,1,.658.07l.1-1.554A2.927,2.927,0,0,0,24.6-7.336Zm8.778,3.542A3.354,3.354,0,0,0,29.82-7.336a3.684,3.684,0,0,0-3.836,3.808,3.577,3.577,0,0,0,3.85,3.7A3.966,3.966,0,0,0,33.152-1.4l-1.176-.9a2.6,2.6,0,0,1-2.114,1.022,2.019,2.019,0,0,1-2.2-1.89h5.67A4.608,4.608,0,0,0,33.376-3.794Zm-3.57-2.128a1.719,1.719,0,0,1,1.876,1.5H27.748A1.971,1.971,0,0,1,29.806-5.922Z" transform="translate(158 48)" fill="#07003b" opacity="0.4"/>
        </g>
      </g>
      <g id="Aside-2" data-name="Aside" transform="translate(336 1708)">
        <g id="Disable-5" data-name="Disable" transform="translate(244 46)">
          <g transform="matrix(1, 0, 0, 1, -276, -278)" filter="url(#Rectangle_693)">
            <g id="Rectangle_693-6" data-name="Rectangle 693" transform="translate(276 274)" fill="#fff" stroke="#b1b9f3" stroke-width="2">
              <rect width="188" height="51" rx="5" stroke="none"/>
              <rect x="1" y="1" width="186" height="49" rx="4" fill="none"/>
            </g>
          </g>
          <path id="Path_750" data-name="Path 750" d="M2.94-1.652V-9.8H1.176V0H7.644V-1.652ZM12.53.168a3.668,3.668,0,0,0,3.794-3.752A3.66,3.66,0,0,0,12.53-7.336,3.672,3.672,0,0,0,8.722-3.584,3.68,3.68,0,0,0,12.53.168Zm0-1.54a2.075,2.075,0,0,1-2.1-2.212,2.064,2.064,0,0,1,2.1-2.2,2.061,2.061,0,0,1,2.086,2.2A2.072,2.072,0,0,1,12.53-1.372Zm10.57-5.8v.56a3.143,3.143,0,0,0-2.072-.728,3.566,3.566,0,0,0-3.556,3.654A3.538,3.538,0,0,0,21.028-.07,3.132,3.132,0,0,0,23.1-.784v.6A1.793,1.793,0,0,1,21.07,1.68,3.74,3.74,0,0,1,18.62.658L17.612,1.89A4.938,4.938,0,0,0,21.1,3.22c2.268,0,3.682-1.274,3.682-3.4V-7.168ZM21.266-1.582a2.026,2.026,0,0,1-2.086-2.1A2.03,2.03,0,0,1,21.266-5.8a2.406,2.406,0,0,1,1.834.84v2.534A2.406,2.406,0,0,1,21.266-1.582ZM27.65-8.12A1.067,1.067,0,0,0,28.714-9.2a1.073,1.073,0,0,0-1.064-1.064A1.088,1.088,0,0,0,26.558-9.2,1.082,1.082,0,0,0,27.65-8.12ZM26.8,0h1.68V-7.168H26.8Zm7.56-7.336a3.431,3.431,0,0,0-2.184.77v-.6h-1.68V0h1.68V-4.942a2.3,2.3,0,0,1,1.764-.84c.938,0,1.526.616,1.526,1.848V0h1.68V-4.3A2.713,2.713,0,0,0,34.356-7.336ZM54.1-9.8,51.968-2.758,49.616-9.8h-1.61L45.654-2.758,43.526-9.8H41.692L44.66,0h1.764l2.394-7.252L51.2,0h1.764l2.982-9.8ZM58.17-8.12A1.067,1.067,0,0,0,59.234-9.2a1.073,1.073,0,0,0-1.064-1.064A1.088,1.088,0,0,0,57.078-9.2,1.082,1.082,0,0,0,58.17-8.12ZM57.316,0H59V-7.168h-1.68Zm8.89-10.332v3.71a3.2,3.2,0,0,0-2.058-.714,3.6,3.6,0,0,0-3.57,3.752A3.6,3.6,0,0,0,64.148.168a3.2,3.2,0,0,0,2.058-.714V0h1.68V-10.332ZM64.4-1.372a2.078,2.078,0,0,1-2.114-2.212,2.067,2.067,0,0,1,2.114-2.2,2.315,2.315,0,0,1,1.806.826v2.744A2.329,2.329,0,0,1,64.4-1.372Zm10.71-5.8v.56a3.143,3.143,0,0,0-2.072-.728,3.566,3.566,0,0,0-3.556,3.654A3.538,3.538,0,0,0,73.038-.07,3.132,3.132,0,0,0,75.11-.784v.6A1.793,1.793,0,0,1,73.08,1.68,3.74,3.74,0,0,1,70.63.658L69.622,1.89a4.938,4.938,0,0,0,3.486,1.33c2.268,0,3.682-1.274,3.682-3.4V-7.168ZM73.276-1.582a2.026,2.026,0,0,1-2.086-2.1A2.03,2.03,0,0,1,73.276-5.8a2.406,2.406,0,0,1,1.834.84v2.534A2.406,2.406,0,0,1,73.276-1.582ZM85.764-3.794a3.354,3.354,0,0,0-3.556-3.542,3.684,3.684,0,0,0-3.836,3.808,3.577,3.577,0,0,0,3.85,3.7A3.966,3.966,0,0,0,85.54-1.4l-1.176-.9A2.6,2.6,0,0,1,82.25-1.274a2.019,2.019,0,0,1-2.2-1.89h5.67A4.608,4.608,0,0,0,85.764-3.794Zm-3.57-2.128a1.719,1.719,0,0,1,1.876,1.5H80.136A1.971,1.971,0,0,1,82.194-5.922ZM91.938-1.6a3.76,3.76,0,0,1-1.092.2c-.826,0-1.218-.434-1.218-1.442V-5.7H91.91v-1.47H89.628V-8.876h-1.68v1.708h-1.47V-5.7h1.47v3.052c0,1.918.882,2.786,2.59,2.786a3.934,3.934,0,0,0,1.638-.322Z" transform="translate(13 25)" fill="#07003b"/>
          <path id="Path_751" data-name="Path 751" d="M-4.525-9a.7.7,0,0,0-.5,1.2L-.5-3.277a.7.7,0,0,0,.995,0L5.017-7.8a.7.7,0,0,0-.5-1.2Z" transform="translate(169 28)" fill="#07003b"/>
        </g>
      </g>
    </g>
    <g id="Google_fonts_customize_screen" data-name="Google fonts customize screen" transform="translate(359 1495)">
      <g transform="matrix(1, 0, 0, 1, 61, 1296)" filter="url(#Rectangle_436-3)">
        <rect id="Rectangle_436-6" data-name="Rectangle 436" width="286" height="192" rx="10" transform="translate(273 355)" fill="#fff"/>
      </g>
      <path id="Rectangle_725" data-name="Rectangle 725" d="M10,0H62A10,10,0,0,1,72,10V192a0,0,0,0,1,0,0H10A10,10,0,0,1,0,182V10A10,10,0,0,1,10,0Z" transform="translate(334 1651)" fill="#f0f0f0" opacity="0.6"/>
      <path id="Rectangle_703" data-name="Rectangle 703" d="M10,0H276a10,10,0,0,1,10,10v5a0,0,0,0,1,0,0H0a0,0,0,0,1,0,0V10A10,10,0,0,1,10,0Z" transform="translate(334 1651)" fill="#eee"/>
      <rect id="Rectangle_704" data-name="Rectangle 704" width="4" height="4" rx="2" transform="translate(344 1657)" fill="#ff5670"/>
      <rect id="Rectangle_705" data-name="Rectangle 705" width="4" height="4" rx="2" transform="translate(351 1657)" fill="#fdb400"/>
      <rect id="Rectangle_706" data-name="Rectangle 706" width="4" height="4" rx="2" transform="translate(358 1657)" fill="#38c073"/>
      <g id="Group_92" data-name="Group 92" transform="translate(341.001 1692.999)">
        <g id="Group_91" data-name="Group 91" transform="translate(-0.001 0)">
          <g id="Rectangle_439" data-name="Rectangle 439" transform="translate(3 3.999)" fill="#e7eafc" stroke="rgba(123,134,163,0.3)" stroke-width="1">
            <rect width="52" height="12" rx="1" stroke="none"/>
            <rect x="0.5" y="0.5" width="51" height="11" rx="0.5" fill="none"/>
          </g>
          <g id="Rectangle_440" data-name="Rectangle 440" transform="translate(3 20.999)" fill="#e7eafc" stroke="rgba(123,134,163,0.3)" stroke-width="1">
            <rect width="52" height="12" rx="1" stroke="none"/>
            <rect x="0.5" y="0.5" width="51" height="11" rx="0.5" fill="none"/>
          </g>
          <rect id="Rectangle_441" data-name="Rectangle 441" width="31" height="10" rx="1" transform="translate(3 37.999)" fill="#ff5670"/>
        </g>
      </g>
      <rect id="Rectangle_697" data-name="Rectangle 697" width="85" height="12" rx="2" transform="translate(421 1681)" fill="#515e81" opacity="0.4"/>
      <rect id="Rectangle_726" data-name="Rectangle 726" width="85" height="12" rx="2" transform="translate(421 1760)" fill="#515e81" opacity="0.4"/>
      <rect id="Rectangle_698" data-name="Rectangle 698" width="173" height="6" rx="2" transform="translate(421 1703)" fill="#515e81" opacity="0.2"/>
      <rect id="Rectangle_727" data-name="Rectangle 727" width="175" height="6" rx="2" transform="translate(421 1782)" fill="#515e81" opacity="0.2"/>
      <rect id="Rectangle_699" data-name="Rectangle 699" width="184" height="6" rx="2" transform="translate(421 1715)" fill="#515e81" opacity="0.2"/>
      <rect id="Rectangle_728" data-name="Rectangle 728" width="160" height="6" rx="2" transform="translate(421 1794)" fill="#515e81" opacity="0.2"/>
      <rect id="Rectangle_700" data-name="Rectangle 700" width="153" height="6" rx="2" transform="translate(421 1727)" fill="#515e81" opacity="0.2"/>
      <rect id="Rectangle_702" data-name="Rectangle 702" width="54" height="6" rx="2" transform="translate(421 1739)" fill="#515e81" opacity="0.2"/>
      <rect id="Rectangle_730" data-name="Rectangle 730" width="54" height="6" rx="2" transform="translate(421 1806)" fill="#515e81" opacity="0.2"/>
      <path id="Path_752" data-name="Path 752" d="M1.68-.944V-5.6H.672V0h3.7V-.944ZM7.16.1A2.1,2.1,0,0,0,9.328-2.048,2.091,2.091,0,0,0,7.16-4.192,2.1,2.1,0,0,0,4.984-2.048,2.1,2.1,0,0,0,7.16.1Zm0-.88a1.186,1.186,0,0,1-1.2-1.264A1.179,1.179,0,0,1,7.16-3.3,1.177,1.177,0,0,1,8.352-2.048,1.184,1.184,0,0,1,7.16-.784ZM13.2-4.1v.32a1.8,1.8,0,0,0-1.184-.416A2.038,2.038,0,0,0,9.984-2.1,2.022,2.022,0,0,0,12.016-.04,1.79,1.79,0,0,0,13.2-.448V-.1A1.025,1.025,0,0,1,12.04.96a2.137,2.137,0,0,1-1.4-.584l-.576.7a2.822,2.822,0,0,0,1.992.76A1.874,1.874,0,0,0,14.16-.1V-4.1ZM12.152-.9A1.158,1.158,0,0,1,10.96-2.1a1.16,1.16,0,0,1,1.192-1.208,1.375,1.375,0,0,1,1.048.48v1.448A1.375,1.375,0,0,1,12.152-.9ZM15.8-4.64a.609.609,0,0,0,.608-.616.613.613,0,0,0-.608-.608.622.622,0,0,0-.624.608A.618.618,0,0,0,15.8-4.64ZM15.312,0h.96V-4.1h-.96Zm4.32-4.192a1.961,1.961,0,0,0-1.248.44V-4.1h-.96V0h.96V-2.824a1.314,1.314,0,0,1,1.008-.48c.536,0,.872.352.872,1.056V0h.96V-2.456A1.55,1.55,0,0,0,19.632-4.192Zm8.688-.472V-5.6H24.392V0H25.4V-2.256h2.68v-.936H25.4V-4.664ZM31.16.1a2.1,2.1,0,0,0,2.168-2.144A2.091,2.091,0,0,0,31.16-4.192a2.1,2.1,0,0,0-2.176,2.144A2.1,2.1,0,0,0,31.16.1Zm0-.88a1.186,1.186,0,0,1-1.2-1.264A1.179,1.179,0,0,1,31.16-3.3a1.177,1.177,0,0,1,1.192,1.256A1.184,1.184,0,0,1,31.16-.784Zm5.168-3.408a1.434,1.434,0,0,0-1.136.536V-4.1h-.96V0h.96V-2.664a1.279,1.279,0,0,1,1.128-.624,2.233,2.233,0,0,1,.376.04l.056-.888A1.672,1.672,0,0,0,36.328-4.192Zm6,0a2.043,2.043,0,0,0-1.464.656,1.365,1.365,0,0,0-1.224-.656,1.885,1.885,0,0,0-1.208.448V-4.1h-.96V0h.96V-2.816a1.322,1.322,0,0,1,.96-.488c.456,0,.768.328.768,1.016V0h.96V-2.5c0-.1-.008-.2-.016-.3A1.292,1.292,0,0,1,42.08-3.3c.456,0,.768.328.768,1.016V0h.96V-2.5C43.808-3.576,43.2-4.192,42.328-4.192Z" transform="translate(344 1687)" fill="#07003b"/>
    </g>
  </g>
</svg>
