<svg xmlns="http://www.w3.org/2000/svg" xmlns:xlink="http://www.w3.org/1999/xlink" width="666" height="613" viewBox="0 0 666 613">
  <defs>
    <filter id="Rectangle_711" x="110" y="0" width="346" height="96" filterUnits="userSpaceOnUse">
      <feOffset dy="5" input="SourceAlpha"/>
      <feGaussianBlur stdDeviation="10" result="blur"/>
      <feFlood flood-color="#3c50e0" flood-opacity="0.149"/>
      <feComposite operator="in" in2="blur"/>
      <feComposite in="SourceGraphic"/>
    </filter>
    <filter id="Rectangle_436" x="110" y="42" width="346" height="252" filterUnits="userSpaceOnUse">
      <feOffset dy="5" input="SourceAlpha"/>
      <feGaussianBlur stdDeviation="10" result="blur-2"/>
      <feFlood flood-color="#3c50e0" flood-opacity="0.149"/>
      <feComposite operator="in" in2="blur-2"/>
      <feComposite in="SourceGraphic"/>
    </filter>
    <filter id="Rectangle_436-2" x="0" y="188" width="566" height="220" filterUnits="userSpaceOnUse">
      <feOffset dy="5" input="SourceAlpha"/>
      <feGaussianBlur stdDeviation="10" result="blur-3"/>
      <feFlood flood-color="#3c50e0" flood-opacity="0.149"/>
      <feComposite operator="in" in2="blur-3"/>
      <feComposite in="SourceGraphic"/>
    </filter>
    <filter id="Rectangle_711-2" x="320" y="319" width="346" height="96" filterUnits="userSpaceOnUse">
      <feOffset dy="5" input="SourceAlpha"/>
      <feGaussianBlur stdDeviation="10" result="blur-4"/>
      <feFlood flood-color="#3c50e0" flood-opacity="0.149"/>
      <feComposite operator="in" in2="blur-4"/>
      <feComposite in="SourceGraphic"/>
    </filter>
    <filter id="Rectangle_436-3" x="320" y="361" width="346" height="252" filterUnits="userSpaceOnUse">
      <feOffset dy="5" input="SourceAlpha"/>
      <feGaussianBlur stdDeviation="10" result="blur-5"/>
      <feFlood flood-color="#3c50e0" flood-opacity="0.149"/>
      <feComposite operator="in" in2="blur-5"/>
      <feComposite in="SourceGraphic"/>
    </filter>
  </defs>
  <g id="addon-05" transform="translate(-420 -2740)">
    <g id="Google_fonts_customize_screen" data-name="Google fonts customize screen" transform="translate(226 1152)">
      <g id="Search">
        <g transform="matrix(1, 0, 0, 1, 194, 1588)" filter="url(#Rectangle_711)">
          <rect id="Rectangle_711-3" data-name="Rectangle 711" width="286" height="36" rx="10" transform="translate(140 25)" fill="#ededf0"/>
        </g>
        <rect id="Rectangle_709" data-name="Rectangle 709" width="262" height="24" rx="5" transform="translate(346 1619)" fill="#fff"/>
        <path id="Path_773" data-name="Path 773" d="M4.176-6.288a2.941,2.941,0,0,0-1.872.66V-8.856H.864V0H2.3V-4.236a1.971,1.971,0,0,1,1.512-.72c.8,0,1.308.528,1.308,1.584V0h1.44V-3.684A2.326,2.326,0,0,0,4.176-6.288Zm7.968,4.92a3.223,3.223,0,0,1-.936.168c-.708,0-1.044-.372-1.044-1.236V-4.884H12.12v-1.26H10.164V-7.608H8.724v1.464H7.464v1.26h1.26v2.616C8.724-.624,9.48.12,10.944.12a3.372,3.372,0,0,0,1.4-.276Zm5.292,0A3.223,3.223,0,0,1,16.5-1.2c-.708,0-1.044-.372-1.044-1.236V-4.884h1.956v-1.26H15.456V-7.608h-1.44v1.464h-1.26v1.26h1.26v2.616c0,1.644.756,2.388,2.22,2.388a3.372,3.372,0,0,0,1.4-.276Zm4.572-4.92a2.671,2.671,0,0,0-1.776.624v-.48h-1.44v8.76h1.44V-.48a2.671,2.671,0,0,0,1.776.624,3.086,3.086,0,0,0,3.048-3.216A3.086,3.086,0,0,0,22.008-6.288Zm-.216,5.112a2,2,0,0,1-1.56-.72V-4.248a1.991,1.991,0,0,1,1.56-.708,1.762,1.762,0,0,1,1.8,1.884A1.772,1.772,0,0,1,21.792-1.176Zm6.96,1.32c1.608,0,2.532-.792,2.532-1.992,0-.876-.5-1.44-1.752-1.728l-1.068-.252c-.66-.156-.852-.324-.852-.6,0-.372.336-.624.984-.624a2.928,2.928,0,0,1,1.824.684l.78-1.02a3.772,3.772,0,0,0-2.544-.9c-1.524,0-2.46.792-2.46,1.956,0,.852.5,1.392,1.74,1.68L29-2.4c.636.144.852.36.852.648,0,.384-.384.66-1.056.66a3.388,3.388,0,0,1-2.028-.744l-.744,1.08A4.317,4.317,0,0,0,28.752.144Zm4.572-3.972a.959.959,0,0,0,.984-.984.952.952,0,0,0-.984-.984.952.952,0,0,0-.984.984A.959.959,0,0,0,33.324-3.828Zm0,3.936a.952.952,0,0,0,.984-.984.959.959,0,0,0-.984-.984.959.959,0,0,0-.984.984A.952.952,0,0,0,33.324.108Zm1.584,1h1.44L40.788-8.9h-1.44Zm4.944,0h1.44L45.732-8.9h-1.44ZM46.728,0h1.44V-8.856h-1.44Zm6.06.144A3.144,3.144,0,0,0,56.04-3.072a3.137,3.137,0,0,0-3.252-3.216,3.147,3.147,0,0,0-3.264,3.216A3.154,3.154,0,0,0,52.788.144Zm0-1.32a1.779,1.779,0,0,1-1.8-1.9,1.769,1.769,0,0,1,1.8-1.884,1.766,1.766,0,0,1,1.788,1.884A1.776,1.776,0,0,1,52.788-1.176Zm9.06-4.968v.48a2.694,2.694,0,0,0-1.776-.624,3.056,3.056,0,0,0-3.048,3.132,3.033,3.033,0,0,0,3.048,3.1,2.685,2.685,0,0,0,1.776-.612v.516a1.537,1.537,0,0,1-1.74,1.6,3.205,3.205,0,0,1-2.1-.876L57.144,1.62a4.232,4.232,0,0,0,2.988,1.14c1.944,0,3.156-1.092,3.156-2.916V-6.144ZM60.276-1.356a1.737,1.737,0,0,1-1.788-1.8,1.74,1.74,0,0,1,1.788-1.812,2.062,2.062,0,0,1,1.572.72v2.172A2.062,2.062,0,0,1,60.276-1.356Zm5.472-5.6a.914.914,0,0,0,.912-.924.919.919,0,0,0-.912-.912.932.932,0,0,0-.936.912A.927.927,0,0,0,65.748-6.96ZM65.016,0h1.44V-6.144h-1.44ZM71.5-6.288a2.941,2.941,0,0,0-1.872.66v-.516h-1.44V0h1.44V-4.236a1.971,1.971,0,0,1,1.512-.72c.8,0,1.308.528,1.308,1.584V0h1.44V-3.684A2.326,2.326,0,0,0,71.5-6.288Zm7.272,0a2.671,2.671,0,0,0-1.776.624v-.48h-1.44v8.76h1.44V-.48a2.671,2.671,0,0,0,1.776.624,3.086,3.086,0,0,0,3.048-3.216A3.086,3.086,0,0,0,78.768-6.288Zm-.216,5.112a2,2,0,0,1-1.56-.72V-4.248a1.991,1.991,0,0,1,1.56-.708,1.762,1.762,0,0,1,1.8,1.884A1.772,1.772,0,0,1,78.552-1.176Zm7.776-5.112a2.151,2.151,0,0,0-1.7.8v-.66h-1.44V0h1.44V-4a1.919,1.919,0,0,1,1.692-.936,3.349,3.349,0,0,1,.564.06L86.964-6.2A2.509,2.509,0,0,0,86.328-6.288Zm7.524,3.036A2.875,2.875,0,0,0,90.8-6.288a3.158,3.158,0,0,0-3.288,3.264,3.066,3.066,0,0,0,3.3,3.168A3.4,3.4,0,0,0,93.66-1.2l-1.008-.768a2.229,2.229,0,0,1-1.812.876,1.731,1.731,0,0,1-1.884-1.62h4.86A3.949,3.949,0,0,0,93.852-3.252Zm-3.06-1.824A1.473,1.473,0,0,1,92.4-3.792H89.028A1.689,1.689,0,0,1,90.792-5.076ZM97.56.144c1.608,0,2.532-.792,2.532-1.992,0-.876-.5-1.44-1.752-1.728l-1.068-.252c-.66-.156-.852-.324-.852-.6,0-.372.336-.624.984-.624a2.928,2.928,0,0,1,1.824.684l.78-1.02a3.772,3.772,0,0,0-2.544-.9C95.94-6.288,95-5.5,95-4.332c0,.852.5,1.392,1.74,1.68l1.068.252c.636.144.852.36.852.648,0,.384-.384.66-1.056.66a3.388,3.388,0,0,1-2.028-.744l-.744,1.08A4.317,4.317,0,0,0,97.56.144Zm6.12,0c1.608,0,2.532-.792,2.532-1.992,0-.876-.5-1.44-1.752-1.728l-1.068-.252c-.66-.156-.852-.324-.852-.6,0-.372.336-.624.984-.624a2.928,2.928,0,0,1,1.824.684l.78-1.02a3.772,3.772,0,0,0-2.544-.9c-1.524,0-2.46.792-2.46,1.956,0,.852.5,1.392,1.74,1.68l1.068.252c.636.144.852.36.852.648,0,.384-.384.66-1.056.66a3.388,3.388,0,0,1-2.028-.744l-.744,1.08A4.317,4.317,0,0,0,103.68.144Zm4.6-.048a.952.952,0,0,0,.984-.984.959.959,0,0,0-.984-.984.959.959,0,0,0-.984.984A.952.952,0,0,0,108.276.1Zm5.532-6.384a2.671,2.671,0,0,0-1.776.624v-.48h-1.44v8.76h1.44V-.48a2.671,2.671,0,0,0,1.776.624,3.086,3.086,0,0,0,3.048-3.216A3.086,3.086,0,0,0,113.808-6.288Zm-.216,5.112a2,2,0,0,1-1.56-.72V-4.248a1.991,1.991,0,0,1,1.56-.708,1.762,1.762,0,0,1,1.8,1.884A1.772,1.772,0,0,1,113.592-1.176Zm7.776-5.112a2.151,2.151,0,0,0-1.7.8v-.66h-1.44V0h1.44V-4a1.919,1.919,0,0,1,1.692-.936,3.349,3.349,0,0,1,.564.06L122-6.2A2.509,2.509,0,0,0,121.368-6.288ZM125.82.144a3.144,3.144,0,0,0,3.252-3.216,3.137,3.137,0,0,0-3.252-3.216,3.147,3.147,0,0,0-3.264,3.216A3.154,3.154,0,0,0,125.82.144Zm0-1.32a1.779,1.779,0,0,1-1.8-1.9,1.769,1.769,0,0,1,1.8-1.884,1.766,1.766,0,0,1,1.788,1.884A1.776,1.776,0,0,1,125.82-1.176Zm3.828,2.28h1.44L135.528-8.9h-1.44Zm14.628-7.248-1.368,4.2-1.524-4.2h-1.356L138.5-1.92l-1.368-4.224h-1.524L137.676,0h1.488l1.548-4.3L142.26,0h1.476l2.076-6.144Zm5.808-.144a2.671,2.671,0,0,0-1.776.624v-.48h-1.44v8.76h1.44V-.48a2.671,2.671,0,0,0,1.776.624,3.086,3.086,0,0,0,3.048-3.216A3.086,3.086,0,0,0,150.084-6.288Zm-.216,5.112a2,2,0,0,1-1.56-.72V-4.248a1.991,1.991,0,0,1,1.56-.708,1.762,1.762,0,0,1,1.8,1.884A1.772,1.772,0,0,1,149.868-1.176Zm4.248-1.884h3.768V-4.332h-3.768Zm9.564-3.084v.468a2.74,2.74,0,0,0-1.764-.612,3.088,3.088,0,0,0-3.06,3.216,3.088,3.088,0,0,0,3.06,3.216,2.74,2.74,0,0,0,1.764-.612V0h1.44V-6.144Zm-1.548,4.968a1.781,1.781,0,0,1-1.812-1.9,1.771,1.771,0,0,1,1.812-1.884,1.984,1.984,0,0,1,1.548.708V-1.9A2,2,0,0,1,162.132-1.176Zm9.18-7.68v3.18a2.74,2.74,0,0,0-1.764-.612,3.088,3.088,0,0,0-3.06,3.216,3.088,3.088,0,0,0,3.06,3.216,2.74,2.74,0,0,0,1.764-.612V0h1.44V-8.856Zm-1.548,7.68a1.781,1.781,0,0,1-1.812-1.9,1.771,1.771,0,0,1,1.812-1.884,1.984,1.984,0,0,1,1.548.708V-1.9A2,2,0,0,1,169.764-1.176Zm12.012-5.112a3.065,3.065,0,0,0-2.2.984,2.047,2.047,0,0,0-1.836-.984,2.827,2.827,0,0,0-1.812.672v-.528h-1.44V0h1.44V-4.224a1.984,1.984,0,0,1,1.44-.732c.684,0,1.152.492,1.152,1.524V0h1.44V-3.744c0-.156-.012-.3-.024-.444a1.937,1.937,0,0,1,1.464-.768c.684,0,1.152.492,1.152,1.524V0H184V-3.744C184-5.364,183.084-6.288,181.776-6.288Zm4.62-.672a.914.914,0,0,0,.912-.924A.919.919,0,0,0,186.4-8.8a.932.932,0,0,0-.936.912A.927.927,0,0,0,186.4-6.96ZM185.664,0h1.44V-6.144h-1.44Zm6.48-6.288a2.941,2.941,0,0,0-1.872.66v-.516h-1.44V0h1.44V-4.236a1.971,1.971,0,0,1,1.512-.72c.8,0,1.308.528,1.308,1.584V0h1.44V-3.684A2.326,2.326,0,0,0,192.144-6.288Z" transform="translate(356 1635)" fill="#07003b"/>
      </g>
      <g id="Group_352" data-name="Group 352" transform="translate(0 4)">
        <g transform="matrix(1, 0, 0, 1, 194, 1584)" filter="url(#Rectangle_436)">
          <rect id="Rectangle_436-4" data-name="Rectangle 436" width="286" height="192" rx="10" transform="translate(140 67)" fill="#fff"/>
        </g>
        <path id="Rectangle_703" data-name="Rectangle 703" d="M10,0H276a10,10,0,0,1,10,10v5a0,0,0,0,1,0,0H0a0,0,0,0,1,0,0V10A10,10,0,0,1,10,0Z" transform="translate(334 1651)" fill="#f0f0f0"/>
        <rect id="Rectangle_710" data-name="Rectangle 710" width="152" height="7" rx="2" transform="translate(401 1655)" fill="#fff"/>
        <rect id="Rectangle_704" data-name="Rectangle 704" width="4" height="4" rx="2" transform="translate(344 1657)" fill="#ff5670"/>
        <rect id="Rectangle_705" data-name="Rectangle 705" width="4" height="4" rx="2" transform="translate(351 1657)" fill="#fdb400"/>
        <rect id="Rectangle_706" data-name="Rectangle 706" width="4" height="4" rx="2" transform="translate(358 1657)" fill="#38c073"/>
        <g id="Group_351" data-name="Group 351" transform="translate(448 1750.678)">
          <rect id="Rectangle_437" data-name="Rectangle 437" width="67" height="85" rx="2" transform="translate(-4 -45.678)" fill="#3c50e0" opacity="0.2"/>
          <g id="Group_91" data-name="Group 91" transform="translate(4.222 -35.446)">
            <rect id="Rectangle_439" data-name="Rectangle 439" width="49" height="10" rx="1" transform="translate(0.779 24.768)" fill="#fff" opacity="0.9"/>
            <rect id="Rectangle_440" data-name="Rectangle 440" width="49" height="10" rx="1" transform="translate(0.779 39.768)" fill="#fff" opacity="0.9"/>
            <rect id="Rectangle_441" data-name="Rectangle 441" width="31" height="10" rx="1" transform="translate(9.779 54.768)" fill="#ff5670"/>
            <rect id="Rectangle_438" data-name="Rectangle 438" width="17" height="17" rx="8.5" transform="translate(16.779 -0.231)" fill="#ff5670"/>
          </g>
        </g>
        <path id="Path_774" data-name="Path 774" d="M.7-1.048a.49.49,0,0,0-.312.11v-.538H.144V0h.24V-.706a.328.328,0,0,1,.252-.12c.134,0,.218.088.218.264V0h.24V-.614A.388.388,0,0,0,.7-1.048Zm1.328.82A.537.537,0,0,1,1.868-.2c-.118,0-.174-.062-.174-.206V-.814H2.02v-.21H1.694v-.244h-.24v.244h-.21v.21h.21v.436c0,.274.126.4.37.4a.562.562,0,0,0,.234-.046Zm.882,0A.537.537,0,0,1,2.75-.2c-.118,0-.174-.062-.174-.206V-.814H2.9v-.21H2.576v-.244h-.24v.244h-.21v.21h.21v.436c0,.274.126.4.37.4A.562.562,0,0,0,2.94-.026Zm.762-.82a.445.445,0,0,0-.3.1v-.08h-.24V.436h.24V-.08a.445.445,0,0,0,.3.1.514.514,0,0,0,.508-.536A.514.514,0,0,0,3.668-1.048ZM3.632-.2a.334.334,0,0,1-.26-.12V-.708a.332.332,0,0,1,.26-.118.294.294,0,0,1,.3.314A.3.3,0,0,1,3.632-.2Zm1.16.22c.268,0,.422-.132.422-.332,0-.146-.084-.24-.292-.288L4.744-.638c-.11-.026-.142-.054-.142-.1,0-.062.056-.1.164-.1a.488.488,0,0,1,.3.114L5.2-.9a.629.629,0,0,0-.424-.15c-.254,0-.41.132-.41.326,0,.142.084.232.29.28L4.834-.4c.106.024.142.06.142.108,0,.064-.064.11-.176.11a.565.565,0,0,1-.338-.124l-.124.18A.719.719,0,0,0,4.792.024Zm.762-.662A.16.16,0,0,0,5.718-.8a.159.159,0,0,0-.164-.164A.159.159,0,0,0,5.39-.8.16.16,0,0,0,5.554-.638Zm0,.656a.159.159,0,0,0,.164-.164A.16.16,0,0,0,5.554-.31a.16.16,0,0,0-.164.164A.159.159,0,0,0,5.554.018Zm.264.166h.24L6.8-1.484h-.24Zm.824,0h.24l.74-1.668h-.24ZM7.788,0h.24V-1.476h-.24ZM8.8.024A.524.524,0,0,0,9.34-.512.523.523,0,0,0,8.8-1.048a.525.525,0,0,0-.544.536A.526.526,0,0,0,8.8.024Zm0-.22a.3.3,0,0,1-.3-.316.3.3,0,0,1,.3-.314.294.294,0,0,1,.3.314A.3.3,0,0,1,8.8-.2Zm1.51-.828v.08a.449.449,0,0,0-.3-.1A.509.509,0,0,0,9.5-.526a.505.505,0,0,0,.508.516.447.447,0,0,0,.3-.1v.086a.256.256,0,0,1-.29.266.534.534,0,0,1-.35-.146L9.524.27a.705.705,0,0,0,.5.19.469.469,0,0,0,.526-.486v-1Zm-.262.8a.289.289,0,0,1-.3-.3.29.29,0,0,1,.3-.3.344.344,0,0,1,.262.12v.362A.344.344,0,0,1,10.046-.226Zm.912-.934a.152.152,0,0,0,.152-.154.153.153,0,0,0-.152-.152.155.155,0,0,0-.156.152A.155.155,0,0,0,10.958-1.16ZM10.836,0h.24V-1.024h-.24Zm1.08-1.048a.49.49,0,0,0-.312.11v-.086h-.24V0h.24V-.706a.328.328,0,0,1,.252-.12c.134,0,.218.088.218.264V0h.24V-.614A.388.388,0,0,0,11.916-1.048Zm1.212,0a.445.445,0,0,0-.3.1v-.08h-.24V.436h.24V-.08a.445.445,0,0,0,.3.1.514.514,0,0,0,.508-.536A.514.514,0,0,0,13.128-1.048ZM13.092-.2a.334.334,0,0,1-.26-.12V-.708a.332.332,0,0,1,.26-.118.294.294,0,0,1,.3.314A.3.3,0,0,1,13.092-.2Zm1.3-.852a.359.359,0,0,0-.284.134v-.11h-.24V0h.24V-.666a.32.32,0,0,1,.282-.156.558.558,0,0,1,.094.01l.014-.222A.418.418,0,0,0,14.388-1.048Zm1.254.506a.479.479,0,0,0-.508-.506.526.526,0,0,0-.548.544.511.511,0,0,0,.55.528A.567.567,0,0,0,15.61-.2l-.168-.128a.371.371,0,0,1-.3.146.288.288,0,0,1-.314-.27h.81A.658.658,0,0,0,15.642-.542Zm-.51-.3a.246.246,0,0,1,.268.214h-.562A.282.282,0,0,1,15.132-.846Zm1.128.87c.268,0,.422-.132.422-.332,0-.146-.084-.24-.292-.288l-.178-.042c-.11-.026-.142-.054-.142-.1,0-.062.056-.1.164-.1a.488.488,0,0,1,.3.114l.13-.17a.629.629,0,0,0-.424-.15c-.254,0-.41.132-.41.326,0,.142.084.232.29.28L16.3-.4c.106.024.142.06.142.108,0,.064-.064.11-.176.11a.565.565,0,0,1-.338-.124l-.124.18A.719.719,0,0,0,16.26.024Zm1.02,0c.268,0,.422-.132.422-.332,0-.146-.084-.24-.292-.288l-.178-.042c-.11-.026-.142-.054-.142-.1,0-.062.056-.1.164-.1a.488.488,0,0,1,.3.114l.13-.17a.629.629,0,0,0-.424-.15c-.254,0-.41.132-.41.326,0,.142.084.232.29.28l.178.042c.106.024.142.06.142.108,0,.064-.064.11-.176.11a.565.565,0,0,1-.338-.124l-.124.18A.719.719,0,0,0,17.28.024Zm.766-.008a.159.159,0,0,0,.164-.164.16.16,0,0,0-.164-.164.16.16,0,0,0-.164.164A.159.159,0,0,0,18.046.016Zm.922-1.064a.445.445,0,0,0-.3.1v-.08h-.24V.436h.24V-.08a.445.445,0,0,0,.3.1.514.514,0,0,0,.508-.536A.514.514,0,0,0,18.968-1.048ZM18.932-.2a.334.334,0,0,1-.26-.12V-.708a.332.332,0,0,1,.26-.118.294.294,0,0,1,.3.314A.3.3,0,0,1,18.932-.2Zm1.3-.852a.359.359,0,0,0-.284.134v-.11H19.7V0h.24V-.666a.32.32,0,0,1,.282-.156.558.558,0,0,1,.094.01l.014-.222A.418.418,0,0,0,20.228-1.048ZM20.97.024a.524.524,0,0,0,.542-.536.523.523,0,0,0-.542-.536.525.525,0,0,0-.544.536A.526.526,0,0,0,20.97.024Zm0-.22a.3.3,0,0,1-.3-.316.3.3,0,0,1,.3-.314.294.294,0,0,1,.3.314A.3.3,0,0,1,20.97-.2Zm.638.38h.24l.74-1.668h-.24Zm2.438-1.208-.228.7-.254-.7h-.226l-.254.7-.228-.7H22.6L22.946,0h.248l.258-.716L23.71,0h.246L24.3-1.024Zm.968-.024a.445.445,0,0,0-.3.1v-.08h-.24V.436h.24V-.08a.445.445,0,0,0,.3.1.514.514,0,0,0,.508-.536A.514.514,0,0,0,25.014-1.048ZM24.978-.2a.334.334,0,0,1-.26-.12V-.708a.332.332,0,0,1,.26-.118.294.294,0,0,1,.3.314A.3.3,0,0,1,24.978-.2Zm.708-.314h.628V-.722h-.628Zm1.594-.514v.078a.457.457,0,0,0-.294-.1.515.515,0,0,0-.51.536.515.515,0,0,0,.51.536.457.457,0,0,0,.294-.1V0h.24V-1.024ZM27.022-.2a.3.3,0,0,1-.3-.316.3.3,0,0,1,.3-.314.331.331,0,0,1,.258.118v.392A.333.333,0,0,1,27.022-.2Zm1.53-1.28v.53a.457.457,0,0,0-.294-.1.515.515,0,0,0-.51.536.515.515,0,0,0,.51.536.457.457,0,0,0,.294-.1V0h.24V-1.476ZM28.294-.2a.3.3,0,0,1-.3-.316.3.3,0,0,1,.3-.314.331.331,0,0,1,.258.118v.392A.333.333,0,0,1,28.294-.2Zm2-.852a.511.511,0,0,0-.366.164.341.341,0,0,0-.306-.164.471.471,0,0,0-.3.112v-.088h-.24V0h.24V-.7a.331.331,0,0,1,.24-.122c.114,0,.192.082.192.254V0h.24V-.624c0-.026,0-.05,0-.074a.323.323,0,0,1,.244-.128c.114,0,.192.082.192.254V0h.24V-.624C30.666-.894,30.514-1.048,30.3-1.048Zm.77-.112a.152.152,0,0,0,.152-.154.153.153,0,0,0-.152-.152.155.155,0,0,0-.156.152A.155.155,0,0,0,31.066-1.16ZM30.944,0h.24V-1.024h-.24Zm1.08-1.048a.49.49,0,0,0-.312.11v-.086h-.24V0h.24V-.706a.328.328,0,0,1,.252-.12c.134,0,.218.088.218.264V0h.24V-.614A.388.388,0,0,0,32.024-1.048Z" transform="translate(405 1659)" fill="#07003b"/>
      </g>
    </g>
    <g id="Image" transform="translate(139 178)">
      <g id="Icon" transform="translate(311 2775)">
        <g id="Login_Screen" data-name="Login Screen">
          <g transform="matrix(1, 0, 0, 1, -30, -213)" filter="url(#Rectangle_436-2)">
            <rect id="Rectangle_436-5" data-name="Rectangle 436" width="506" height="160" rx="10" transform="translate(30 213)" fill="#fff"/>
          </g>
          <g id="Height" transform="translate(25 30)">
            <g id="radio" transform="translate(398.685)">
              <g id="Rectangle_535" data-name="Rectangle 535" transform="translate(-246.685)" fill="rgba(60,80,224,0.03)" stroke="rgba(60,80,224,0.4)" stroke-width="2">
                <rect width="304" height="40" rx="5" stroke="none"/>
                <rect x="1" y="1" width="302" height="38" rx="4" fill="none"/>
              </g>
              <path id="Path_776" data-name="Path 776" d="M4.872-7.336a3.431,3.431,0,0,0-2.184.77v-3.766H1.008V0h1.68V-4.942a2.3,2.3,0,0,1,1.764-.84c.938,0,1.526.616,1.526,1.848V0h1.68V-4.3A2.713,2.713,0,0,0,4.872-7.336Zm9.3,5.74a3.76,3.76,0,0,1-1.092.2c-.826,0-1.218-.434-1.218-1.442V-5.7H14.14v-1.47H11.858V-8.876h-1.68v1.708H8.708V-5.7h1.47v3.052c0,1.918.882,2.786,2.59,2.786a3.934,3.934,0,0,0,1.638-.322Zm6.174,0a3.76,3.76,0,0,1-1.092.2c-.826,0-1.218-.434-1.218-1.442V-5.7h2.282v-1.47H18.032V-8.876h-1.68v1.708h-1.47V-5.7h1.47v3.052c0,1.918.882,2.786,2.59,2.786A3.934,3.934,0,0,0,20.58-.182Zm5.334-5.74a3.116,3.116,0,0,0-2.072.728v-.56h-1.68V3.052H23.6V-.56a3.116,3.116,0,0,0,2.072.728,3.6,3.6,0,0,0,3.556-3.752A3.6,3.6,0,0,0,25.676-7.336Zm-.252,5.964a2.336,2.336,0,0,1-1.82-.84V-4.956a2.323,2.323,0,0,1,1.82-.826,2.056,2.056,0,0,1,2.1,2.2A2.068,2.068,0,0,1,25.424-1.372Zm8.12,1.54C35.42.168,36.5-.756,36.5-2.156c0-1.022-.588-1.68-2.044-2.016l-1.246-.294c-.77-.182-.994-.378-.994-.7,0-.434.392-.728,1.148-.728a3.416,3.416,0,0,1,2.128.8l.91-1.19a4.4,4.4,0,0,0-2.968-1.05c-1.778,0-2.87.924-2.87,2.282,0,.994.588,1.624,2.03,1.96l1.246.294c.742.168.994.42.994.756,0,.448-.448.77-1.232.77a3.953,3.953,0,0,1-2.366-.868l-.868,1.26A5.036,5.036,0,0,0,33.544.168Zm5.334-4.634a1.119,1.119,0,0,0,1.148-1.148,1.111,1.111,0,0,0-1.148-1.148A1.111,1.111,0,0,0,37.73-5.614,1.119,1.119,0,0,0,38.878-4.466Zm0,4.592a1.111,1.111,0,0,0,1.148-1.148A1.119,1.119,0,0,0,38.878-2.17,1.119,1.119,0,0,0,37.73-1.022,1.111,1.111,0,0,0,38.878.126Zm1.848,1.162h1.68l5.18-11.676h-1.68Zm5.768,0h1.68l5.18-11.676h-1.68ZM54.516,0H56.2V-10.332h-1.68Zm7.07.168A3.668,3.668,0,0,0,65.38-3.584a3.66,3.66,0,0,0-3.794-3.752,3.672,3.672,0,0,0-3.808,3.752A3.68,3.68,0,0,0,61.586.168Zm0-1.54a2.075,2.075,0,0,1-2.1-2.212,2.064,2.064,0,0,1,2.1-2.2,2.061,2.061,0,0,1,2.086,2.2A2.072,2.072,0,0,1,61.586-1.372Zm10.57-5.8v.56a3.143,3.143,0,0,0-2.072-.728,3.566,3.566,0,0,0-3.556,3.654A3.538,3.538,0,0,0,70.084-.07a3.132,3.132,0,0,0,2.072-.714v.6a1.793,1.793,0,0,1-2.03,1.862A3.74,3.74,0,0,1,67.676.658L66.668,1.89a4.938,4.938,0,0,0,3.486,1.33c2.268,0,3.682-1.274,3.682-3.4V-7.168ZM70.322-1.582a2.026,2.026,0,0,1-2.086-2.1A2.03,2.03,0,0,1,70.322-5.8a2.406,2.406,0,0,1,1.834.84v2.534A2.406,2.406,0,0,1,70.322-1.582ZM76.706-8.12A1.067,1.067,0,0,0,77.77-9.2a1.073,1.073,0,0,0-1.064-1.064A1.088,1.088,0,0,0,75.614-9.2,1.082,1.082,0,0,0,76.706-8.12ZM75.852,0h1.68V-7.168h-1.68Zm7.56-7.336a3.431,3.431,0,0,0-2.184.77v-.6h-1.68V0h1.68V-4.942a2.3,2.3,0,0,1,1.764-.84c.938,0,1.526.616,1.526,1.848V0H86.2V-4.3A2.713,2.713,0,0,0,83.412-7.336Zm8.484,0a3.116,3.116,0,0,0-2.072.728v-.56h-1.68V3.052h1.68V-.56A3.116,3.116,0,0,0,91.9.168a3.6,3.6,0,0,0,3.556-3.752A3.6,3.6,0,0,0,91.9-7.336Zm-.252,5.964a2.336,2.336,0,0,1-1.82-.84V-4.956a2.323,2.323,0,0,1,1.82-.826,2.056,2.056,0,0,1,2.1,2.2A2.068,2.068,0,0,1,91.644-1.372Zm9.072-5.964a2.51,2.51,0,0,0-1.988.938v-.77h-1.68V0h1.68V-4.662A2.238,2.238,0,0,1,100.7-5.754a3.907,3.907,0,0,1,.658.07l.1-1.554A2.927,2.927,0,0,0,100.716-7.336Zm8.778,3.542a3.354,3.354,0,0,0-3.556-3.542A3.684,3.684,0,0,0,102.1-3.528a3.577,3.577,0,0,0,3.85,3.7A3.966,3.966,0,0,0,109.27-1.4l-1.176-.9a2.6,2.6,0,0,1-2.114,1.022,2.019,2.019,0,0,1-2.2-1.89h5.67A4.608,4.608,0,0,0,109.494-3.794Zm-3.57-2.128a1.719,1.719,0,0,1,1.876,1.5h-3.934A1.971,1.971,0,0,1,105.924-5.922Zm7.9,6.09c1.876,0,2.954-.924,2.954-2.324,0-1.022-.588-1.68-2.044-2.016l-1.246-.294c-.77-.182-.994-.378-.994-.7,0-.434.392-.728,1.148-.728a3.416,3.416,0,0,1,2.128.8l.91-1.19a4.4,4.4,0,0,0-2.968-1.05c-1.778,0-2.87.924-2.87,2.282,0,.994.588,1.624,2.03,1.96l1.246.294c.742.168.994.42.994.756,0,.448-.448.77-1.232.77a3.953,3.953,0,0,1-2.366-.868l-.868,1.26A5.036,5.036,0,0,0,113.82.168Zm7.14,0c1.876,0,2.954-.924,2.954-2.324,0-1.022-.588-1.68-2.044-2.016l-1.246-.294c-.77-.182-.994-.378-.994-.7,0-.434.392-.728,1.148-.728a3.416,3.416,0,0,1,2.128.8l.91-1.19a4.4,4.4,0,0,0-2.968-1.05c-1.778,0-2.87.924-2.87,2.282,0,.994.588,1.624,2.03,1.96l1.246.294c.742.168.994.42.994.756,0,.448-.448.77-1.232.77a3.953,3.953,0,0,1-2.366-.868l-.868,1.26A5.036,5.036,0,0,0,120.96.168Zm5.362-.056a1.111,1.111,0,0,0,1.148-1.148,1.119,1.119,0,0,0-1.148-1.148,1.119,1.119,0,0,0-1.148,1.148A1.111,1.111,0,0,0,126.322.112Zm6.454-7.448a3.116,3.116,0,0,0-2.072.728v-.56h-1.68V3.052h1.68V-.56a3.116,3.116,0,0,0,2.072.728,3.6,3.6,0,0,0,3.556-3.752A3.6,3.6,0,0,0,132.776-7.336Zm-.252,5.964a2.336,2.336,0,0,1-1.82-.84V-4.956a2.323,2.323,0,0,1,1.82-.826,2.056,2.056,0,0,1,2.1,2.2A2.068,2.068,0,0,1,132.524-1.372ZM141.6-7.336a2.51,2.51,0,0,0-1.988.938v-.77h-1.68V0h1.68V-4.662a2.238,2.238,0,0,1,1.974-1.092,3.907,3.907,0,0,1,.658.07l.1-1.554A2.927,2.927,0,0,0,141.6-7.336Zm5.194,7.5a3.668,3.668,0,0,0,3.794-3.752,3.66,3.66,0,0,0-3.794-3.752,3.672,3.672,0,0,0-3.808,3.752A3.68,3.68,0,0,0,146.79.168Zm0-1.54a2.075,2.075,0,0,1-2.1-2.212,2.064,2.064,0,0,1,2.1-2.2,2.061,2.061,0,0,1,2.086,2.2A2.072,2.072,0,0,1,146.79-1.372Zm4.466,2.66h1.68l5.18-11.676h-1.68Z" transform="translate(-231.686 25)" fill="#07003b" opacity="0.3"/>
              <path id="Path_777" data-name="Path 777" d="M9.506-7.336A3.576,3.576,0,0,0,6.944-6.188,2.388,2.388,0,0,0,4.8-7.336a3.3,3.3,0,0,0-2.114.784v-.616H1.008V0h1.68V-4.928a2.314,2.314,0,0,1,1.68-.854c.8,0,1.344.574,1.344,1.778V0h1.68V-4.368c0-.182-.014-.35-.028-.518a2.26,2.26,0,0,1,1.708-.9c.8,0,1.344.574,1.344,1.778V0H12.1V-4.368C12.1-6.258,11.032-7.336,9.506-7.336Zm9.52.168L17.01-2.254l-2.1-4.914H12.992L16.142-.14,14.826,3.052h1.806l4.214-10.22Zm2.492,3.6h4.4V-5.054h-4.4ZM27.426,0h1.68V-10.332h-1.68ZM34.5.168A3.668,3.668,0,0,0,38.29-3.584,3.66,3.66,0,0,0,34.5-7.336a3.672,3.672,0,0,0-3.808,3.752A3.68,3.68,0,0,0,34.5.168Zm0-1.54a2.075,2.075,0,0,1-2.1-2.212,2.064,2.064,0,0,1,2.1-2.2,2.061,2.061,0,0,1,2.086,2.2A2.072,2.072,0,0,1,34.5-1.372Zm10.57-5.8v.56a3.143,3.143,0,0,0-2.072-.728,3.566,3.566,0,0,0-3.556,3.654A3.538,3.538,0,0,0,42.994-.07a3.132,3.132,0,0,0,2.072-.714v.6a1.793,1.793,0,0,1-2.03,1.862A3.74,3.74,0,0,1,40.586.658L39.578,1.89a4.938,4.938,0,0,0,3.486,1.33c2.268,0,3.682-1.274,3.682-3.4V-7.168ZM43.232-1.582a2.026,2.026,0,0,1-2.086-2.1A2.03,2.03,0,0,1,43.232-5.8a2.406,2.406,0,0,1,1.834.84v2.534A2.406,2.406,0,0,1,43.232-1.582ZM49.616-8.12A1.067,1.067,0,0,0,50.68-9.2a1.073,1.073,0,0,0-1.064-1.064A1.088,1.088,0,0,0,48.524-9.2,1.082,1.082,0,0,0,49.616-8.12ZM48.762,0h1.68V-7.168h-1.68Zm7.56-7.336a3.431,3.431,0,0,0-2.184.77v-.6h-1.68V0h1.68V-4.942a2.3,2.3,0,0,1,1.764-.84c.938,0,1.526.616,1.526,1.848V0h1.68V-4.3A2.713,2.713,0,0,0,56.322-7.336Z" transform="translate(-72.684 25)" fill="#07003b"/>
            </g>
            <path id="Path_775" data-name="Path 775" d="M6.986,0H9.128L6.3-3.738A2.872,2.872,0,0,0,8.694-6.706c0-1.9-1.33-3.094-3.444-3.094H1.176V0H2.94V-3.626H4.312ZM2.94-8.148H5.082c1.218,0,1.792.5,1.792,1.442S6.3-5.264,5.082-5.264H2.94ZM17.416-3.794A3.354,3.354,0,0,0,13.86-7.336a3.684,3.684,0,0,0-3.836,3.808,3.577,3.577,0,0,0,3.85,3.7A3.966,3.966,0,0,0,17.192-1.4l-1.176-.9A2.6,2.6,0,0,1,13.9-1.274a2.019,2.019,0,0,1-2.2-1.89h5.67A4.608,4.608,0,0,0,17.416-3.794Zm-3.57-2.128a1.719,1.719,0,0,1,1.876,1.5H11.788A1.971,1.971,0,0,1,13.846-5.922ZM22.89-7.336a3.431,3.431,0,0,0-2.184.77v-.6h-1.68V0h1.68V-4.942a2.3,2.3,0,0,1,1.764-.84c.938,0,1.526.616,1.526,1.848V0h1.68V-4.3A2.713,2.713,0,0,0,22.89-7.336Zm9.926.168v.546a3.2,3.2,0,0,0-2.058-.714,3.6,3.6,0,0,0-3.57,3.752A3.6,3.6,0,0,0,30.758.168a3.2,3.2,0,0,0,2.058-.714V0H34.5V-7.168Zm-1.806,5.8A2.078,2.078,0,0,1,28.9-3.584a2.067,2.067,0,0,1,2.114-2.2,2.315,2.315,0,0,1,1.806.826v2.744A2.329,2.329,0,0,1,31.01-1.372ZM45.024-7.336a3.576,3.576,0,0,0-2.562,1.148A2.388,2.388,0,0,0,40.32-7.336a3.3,3.3,0,0,0-2.114.784v-.616h-1.68V0h1.68V-4.928a2.314,2.314,0,0,1,1.68-.854c.8,0,1.344.574,1.344,1.778V0h1.68V-4.368c0-.182-.014-.35-.028-.518a2.26,2.26,0,0,1,1.708-.9c.8,0,1.344.574,1.344,1.778V0h1.68V-4.368C47.614-6.258,46.55-7.336,45.024-7.336ZM56.518-3.794a3.354,3.354,0,0,0-3.556-3.542,3.684,3.684,0,0,0-3.836,3.808,3.577,3.577,0,0,0,3.85,3.7A3.966,3.966,0,0,0,56.294-1.4l-1.176-.9A2.6,2.6,0,0,1,53-1.274a2.019,2.019,0,0,1-2.2-1.89h5.67A4.608,4.608,0,0,0,56.518-3.794Zm-3.57-2.128a1.719,1.719,0,0,1,1.876,1.5H50.89A1.971,1.971,0,0,1,52.948-5.922ZM63.49-1.652V-9.8H61.726V0h6.468V-1.652ZM73.08.168a3.668,3.668,0,0,0,3.794-3.752A3.66,3.66,0,0,0,73.08-7.336a3.672,3.672,0,0,0-3.808,3.752A3.68,3.68,0,0,0,73.08.168Zm0-1.54a2.075,2.075,0,0,1-2.1-2.212,2.064,2.064,0,0,1,2.1-2.2,2.061,2.061,0,0,1,2.086,2.2A2.072,2.072,0,0,1,73.08-1.372Zm10.57-5.8v.56a3.143,3.143,0,0,0-2.072-.728,3.566,3.566,0,0,0-3.556,3.654A3.538,3.538,0,0,0,81.578-.07,3.132,3.132,0,0,0,83.65-.784v.6A1.793,1.793,0,0,1,81.62,1.68,3.74,3.74,0,0,1,79.17.658L78.162,1.89a4.938,4.938,0,0,0,3.486,1.33c2.268,0,3.682-1.274,3.682-3.4V-7.168ZM81.816-1.582a2.026,2.026,0,0,1-2.086-2.1A2.03,2.03,0,0,1,81.816-5.8a2.406,2.406,0,0,1,1.834.84v2.534A2.406,2.406,0,0,1,81.816-1.582ZM88.2-8.12A1.067,1.067,0,0,0,89.264-9.2,1.073,1.073,0,0,0,88.2-10.262,1.088,1.088,0,0,0,87.108-9.2,1.082,1.082,0,0,0,88.2-8.12ZM87.346,0h1.68V-7.168h-1.68Zm7.56-7.336a3.431,3.431,0,0,0-2.184.77v-.6h-1.68V0h1.68V-4.942a2.3,2.3,0,0,1,1.764-.84c.938,0,1.526.616,1.526,1.848V0h1.68V-4.3A2.713,2.713,0,0,0,94.906-7.336Zm11.452,7.5c2.324,0,3.71-1.232,3.71-3.066,0-1.372-.8-2.24-2.394-2.632l-1.722-.406c-1.12-.266-1.5-.644-1.5-1.2,0-.7.63-1.232,1.792-1.232a3.545,3.545,0,0,1,2.464,1.008L109.858-8.6a5.134,5.134,0,0,0-3.584-1.372c-2.184,0-3.6,1.232-3.6,2.94,0,1.3.854,2.2,2.408,2.576l1.722.406c1.064.252,1.47.672,1.47,1.274,0,.77-.672,1.33-1.862,1.33a4.847,4.847,0,0,1-2.9-1.078l-1.022,1.386A6.158,6.158,0,0,0,106.358.168ZM111.524,0h1.68V-10.332h-1.68Zm8.554-7.168V-2.24a2.268,2.268,0,0,1-1.764.868c-.952,0-1.484-.6-1.484-1.792v-4h-1.68V-2.8A2.637,2.637,0,0,0,117.88.168a3.364,3.364,0,0,0,2.2-.77V0h1.68V-7.168Zm8.89,0v.56a3.143,3.143,0,0,0-2.072-.728,3.566,3.566,0,0,0-3.556,3.654A3.538,3.538,0,0,0,126.9-.07a3.132,3.132,0,0,0,2.072-.714v.6a1.793,1.793,0,0,1-2.03,1.862,3.74,3.74,0,0,1-2.45-1.022L123.48,1.89a4.938,4.938,0,0,0,3.486,1.33c2.268,0,3.682-1.274,3.682-3.4V-7.168Zm-1.834,5.586a2.026,2.026,0,0,1-2.086-2.1A2.03,2.03,0,0,1,127.134-5.8a2.406,2.406,0,0,1,1.834.84v2.534A2.406,2.406,0,0,1,127.134-1.582Z" transform="translate(0 24)" fill="#07003b"/>
          </g>
          <g id="Height-2" data-name="Height" transform="translate(-67 54)">
            <g id="radio-2" data-name="radio" transform="translate(236.001 29)">
              <g id="Group_354" data-name="Group 354" transform="translate(8)">
                <rect id="Rectangle_535-2" data-name="Rectangle 535" width="148" height="36" rx="5" transform="translate(-0.002)" fill="#3c50e0"/>
                <path id="Path_778" data-name="Path 778" d="M-43.141-5.586v1.3h2.506v2.31a4.835,4.835,0,0,1-2.674.784,3.48,3.48,0,0,1-3.724-3.682A3.483,3.483,0,0,1-43.477-8.61a3.453,3.453,0,0,1,2.8,1.316l1.19-.812a4.96,4.96,0,0,0-3.962-1.862,4.955,4.955,0,0,0-5.082,5.124A4.879,4.879,0,0,0-43.365.168a6.692,6.692,0,0,0,4.13-1.428V-5.586Zm12.964,1.778a3.318,3.318,0,0,0-3.5-3.486,3.651,3.651,0,0,0-3.794,3.78A3.55,3.55,0,0,0-33.677.168,3.848,3.848,0,0,0-30.4-1.442l-.994-.756A2.682,2.682,0,0,1-33.649-1.05a2.239,2.239,0,0,1-2.408-2.184h5.838A3.559,3.559,0,0,0-30.177-3.808Zm-3.5-2.3a1.936,1.936,0,0,1,2.086,1.736h-4.382A2.2,2.2,0,0,1-33.677-6.1Zm8.89-1.19a3.4,3.4,0,0,0-2.268.826v-.658h-1.4V0h1.4V-5.082a2.568,2.568,0,0,1,1.96-.938c1.05,0,1.708.7,1.708,2.058V0h1.4V-4.256A2.716,2.716,0,0,0-24.787-7.294Zm11.718,3.486a3.318,3.318,0,0,0-3.5-3.486,3.651,3.651,0,0,0-3.794,3.78A3.55,3.55,0,0,0-16.569.168a3.848,3.848,0,0,0,3.276-1.61l-.994-.756A2.682,2.682,0,0,1-16.541-1.05a2.239,2.239,0,0,1-2.408-2.184h5.838A3.559,3.559,0,0,0-13.069-3.808Zm-3.5-2.3a1.936,1.936,0,0,1,2.086,1.736h-4.382A2.2,2.2,0,0,1-16.569-6.1Zm8.68-1.19A2.527,2.527,0,0,0-9.947-6.286v-.84h-1.4V0h1.4V-4.788a2.245,2.245,0,0,1,2.03-1.2,2.94,2.94,0,0,1,.672.084l.1-1.288A2.927,2.927,0,0,0-7.889-7.294Zm7.2.168v.6a3.294,3.294,0,0,0-2.184-.77A3.606,3.606,0,0,0-6.461-3.57,3.61,3.61,0,0,0-2.877.168,3.233,3.233,0,0,0-.693-.616V0h1.4V-7.126Zm-2,6.02A2.315,2.315,0,0,1-5.033-3.57,2.311,2.311,0,0,1-2.695-6.02a2.575,2.575,0,0,1,2,.938v3.038A2.575,2.575,0,0,1-2.695-1.106ZM7.357-1.358a3.264,3.264,0,0,1-1.148.224c-.882,0-1.3-.476-1.3-1.568v-3.22H7.329v-1.2H4.907v-1.75h-1.4v1.75H1.953v1.2H3.507v3.374C3.507-.7,4.375.14,6,.14a3.894,3.894,0,0,0,1.61-.322Zm8.372-2.45a3.318,3.318,0,0,0-3.5-3.486,3.651,3.651,0,0,0-3.794,3.78A3.55,3.55,0,0,0,12.229.168a3.848,3.848,0,0,0,3.276-1.61L14.511-2.2A2.682,2.682,0,0,1,12.257-1.05,2.239,2.239,0,0,1,9.849-3.234h5.838A3.559,3.559,0,0,0,15.729-3.808Zm-3.5-2.3a1.936,1.936,0,0,1,2.086,1.736H9.933A2.2,2.2,0,0,1,12.229-6.1ZM24.157.168c2.254,0,3.64-1.19,3.64-2.968a2.568,2.568,0,0,0-2.3-2.576l-1.918-.462c-1.12-.266-1.568-.714-1.568-1.358,0-.826.728-1.442,2.016-1.442a3.521,3.521,0,0,1,2.562,1.05l.98-1.022a5.076,5.076,0,0,0-3.514-1.358c-2.114,0-3.514,1.218-3.514,2.856a2.617,2.617,0,0,0,2.324,2.534l1.918.462c1.05.252,1.526.728,1.526,1.414,0,.9-.8,1.54-2.114,1.54a4.761,4.761,0,0,1-2.954-1.12L20.377-1.12A5.967,5.967,0,0,0,24.157.168ZM29.379,0h1.4V-10.332h-1.4Zm8.512-7.126v5.068a2.612,2.612,0,0,1-1.974.952c-1.064,0-1.652-.672-1.652-1.988V-7.126h-1.4v4.34A2.635,2.635,0,0,0,35.609.168a3.433,3.433,0,0,0,2.282-.826V0h1.4V-7.126Zm8.862,0v.616a3.222,3.222,0,0,0-2.17-.784,3.583,3.583,0,0,0-3.6,3.654A3.58,3.58,0,0,0,44.569.014,3.233,3.233,0,0,0,46.753-.77v.644a1.957,1.957,0,0,1-2.2,2.072A3.781,3.781,0,0,1,42.021.882L41.167,1.9a4.723,4.723,0,0,0,3.4,1.316c2.212,0,3.584-1.26,3.584-3.346v-7ZM44.737-1.26a2.289,2.289,0,0,1-2.324-2.38,2.289,2.289,0,0,1,2.324-2.38,2.6,2.6,0,0,1,2.016.938V-2.2A2.645,2.645,0,0,1,44.737-1.26Z" transform="translate(74 23)" fill="#fff"/>
              </g>
              <g id="Group_353" data-name="Group 353" transform="translate(169 -46)">
                <rect id="Rectangle_708" data-name="Rectangle 708" width="84" height="36" rx="5" transform="translate(-0.002 46)" fill="#3c50e0"/>
                <path id="Path_779" data-name="Path 779" d="M-12.677,0h1.806l-2.94-3.878A2.82,2.82,0,0,0-11.291-6.8c0-1.876-1.3-3-3.416-3h-3.934V0h1.47V-3.808h1.666Zm-4.494-8.442h2.324c1.4,0,2.058.56,2.058,1.638s-.658,1.638-2.058,1.638h-2.324Zm14.63,4.634a3.318,3.318,0,0,0-3.5-3.486,3.651,3.651,0,0,0-3.794,3.78A3.55,3.55,0,0,0-6.041.168a3.848,3.848,0,0,0,3.276-1.61L-3.759-2.2A2.682,2.682,0,0,1-6.013-1.05,2.239,2.239,0,0,1-8.421-3.234h5.838A3.559,3.559,0,0,0-2.541-3.808Zm-3.5-2.3A1.936,1.936,0,0,1-3.955-4.368H-8.337A2.2,2.2,0,0,1-6.041-6.1ZM1.841.168c1.792,0,2.828-.91,2.828-2.254,0-1.008-.56-1.666-2.016-1.988l-1.232-.28c-.91-.21-1.162-.462-1.162-.84,0-.518.462-.882,1.33-.882a3.126,3.126,0,0,1,2.142.854l.854-.98A4.065,4.065,0,0,0,1.673-7.294c-1.708,0-2.786.9-2.786,2.2,0,.98.6,1.61,2.03,1.932l1.246.28c.854.2,1.134.5,1.134.9,0,.532-.532.924-1.414.924A3.673,3.673,0,0,1-.5-1.988l-.812,1.05A4.7,4.7,0,0,0,1.841.168ZM13.167-3.808a3.318,3.318,0,0,0-3.5-3.486,3.651,3.651,0,0,0-3.794,3.78A3.55,3.55,0,0,0,9.667.168a3.848,3.848,0,0,0,3.276-1.61L11.949-2.2A2.682,2.682,0,0,1,9.695-1.05,2.239,2.239,0,0,1,7.287-3.234h5.838A3.559,3.559,0,0,0,13.167-3.808Zm-3.5-2.3a1.936,1.936,0,0,1,2.086,1.736H7.371A2.2,2.2,0,0,1,9.667-6.1Zm9.646,4.746a3.264,3.264,0,0,1-1.148.224c-.882,0-1.3-.476-1.3-1.568v-3.22h2.422v-1.2H16.863v-1.75h-1.4v1.75H13.909v1.2h1.554v3.374C15.463-.7,16.331.14,17.955.14a3.894,3.894,0,0,0,1.61-.322Z" transform="translate(42 69)" fill="#fff"/>
              </g>
            </g>
          </g>
        </g>
      </g>
    </g>
    <g id="Google_fonts_customize_screen-2" data-name="Google fonts customize screen" transform="translate(436 1471)">
      <g id="Search-2" data-name="Search">
        <g transform="matrix(1, 0, 0, 1, -16, 1269)" filter="url(#Rectangle_711-2)">
          <rect id="Rectangle_711-4" data-name="Rectangle 711" width="286" height="36" rx="10" transform="translate(350 344)" fill="#ededf0"/>
        </g>
        <rect id="Rectangle_709-2" data-name="Rectangle 709" width="262" height="24" rx="5" transform="translate(346 1619)" fill="#fff"/>
        <path id="Path_780" data-name="Path 780" d="M4.176-6.288a2.941,2.941,0,0,0-1.872.66V-8.856H.864V0H2.3V-4.236a1.971,1.971,0,0,1,1.512-.72c.8,0,1.308.528,1.308,1.584V0h1.44V-3.684A2.326,2.326,0,0,0,4.176-6.288Zm7.968,4.92a3.223,3.223,0,0,1-.936.168c-.708,0-1.044-.372-1.044-1.236V-4.884H12.12v-1.26H10.164V-7.608H8.724v1.464H7.464v1.26h1.26v2.616C8.724-.624,9.48.12,10.944.12a3.372,3.372,0,0,0,1.4-.276Zm5.292,0A3.223,3.223,0,0,1,16.5-1.2c-.708,0-1.044-.372-1.044-1.236V-4.884h1.956v-1.26H15.456V-7.608h-1.44v1.464h-1.26v1.26h1.26v2.616c0,1.644.756,2.388,2.22,2.388a3.372,3.372,0,0,0,1.4-.276Zm4.572-4.92a2.671,2.671,0,0,0-1.776.624v-.48h-1.44v8.76h1.44V-.48a2.671,2.671,0,0,0,1.776.624,3.086,3.086,0,0,0,3.048-3.216A3.086,3.086,0,0,0,22.008-6.288Zm-.216,5.112a2,2,0,0,1-1.56-.72V-4.248a1.991,1.991,0,0,1,1.56-.708,1.762,1.762,0,0,1,1.8,1.884A1.772,1.772,0,0,1,21.792-1.176Zm6.96,1.32c1.608,0,2.532-.792,2.532-1.992,0-.876-.5-1.44-1.752-1.728l-1.068-.252c-.66-.156-.852-.324-.852-.6,0-.372.336-.624.984-.624a2.928,2.928,0,0,1,1.824.684l.78-1.02a3.772,3.772,0,0,0-2.544-.9c-1.524,0-2.46.792-2.46,1.956,0,.852.5,1.392,1.74,1.68L29-2.4c.636.144.852.36.852.648,0,.384-.384.66-1.056.66a3.388,3.388,0,0,1-2.028-.744l-.744,1.08A4.317,4.317,0,0,0,28.752.144Zm4.572-3.972a.959.959,0,0,0,.984-.984.952.952,0,0,0-.984-.984.952.952,0,0,0-.984.984A.959.959,0,0,0,33.324-3.828Zm0,3.936a.952.952,0,0,0,.984-.984.959.959,0,0,0-.984-.984.959.959,0,0,0-.984.984A.952.952,0,0,0,33.324.108Zm1.584,1h1.44L40.788-8.9h-1.44Zm4.944,0h1.44L45.732-8.9h-1.44ZM46.728,0h1.44V-8.856h-1.44Zm6.06.144A3.144,3.144,0,0,0,56.04-3.072a3.137,3.137,0,0,0-3.252-3.216,3.147,3.147,0,0,0-3.264,3.216A3.154,3.154,0,0,0,52.788.144Zm0-1.32a1.779,1.779,0,0,1-1.8-1.9,1.769,1.769,0,0,1,1.8-1.884,1.766,1.766,0,0,1,1.788,1.884A1.776,1.776,0,0,1,52.788-1.176Zm9.06-4.968v.48a2.694,2.694,0,0,0-1.776-.624,3.056,3.056,0,0,0-3.048,3.132,3.033,3.033,0,0,0,3.048,3.1,2.685,2.685,0,0,0,1.776-.612v.516a1.537,1.537,0,0,1-1.74,1.6,3.205,3.205,0,0,1-2.1-.876L57.144,1.62a4.232,4.232,0,0,0,2.988,1.14c1.944,0,3.156-1.092,3.156-2.916V-6.144ZM60.276-1.356a1.737,1.737,0,0,1-1.788-1.8,1.74,1.74,0,0,1,1.788-1.812,2.062,2.062,0,0,1,1.572.72v2.172A2.062,2.062,0,0,1,60.276-1.356Zm5.472-5.6a.914.914,0,0,0,.912-.924.919.919,0,0,0-.912-.912.932.932,0,0,0-.936.912A.927.927,0,0,0,65.748-6.96ZM65.016,0h1.44V-6.144h-1.44ZM71.5-6.288a2.941,2.941,0,0,0-1.872.66v-.516h-1.44V0h1.44V-4.236a1.971,1.971,0,0,1,1.512-.72c.8,0,1.308.528,1.308,1.584V0h1.44V-3.684A2.326,2.326,0,0,0,71.5-6.288Zm7.272,0a2.671,2.671,0,0,0-1.776.624v-.48h-1.44v8.76h1.44V-.48a2.671,2.671,0,0,0,1.776.624,3.086,3.086,0,0,0,3.048-3.216A3.086,3.086,0,0,0,78.768-6.288Zm-.216,5.112a2,2,0,0,1-1.56-.72V-4.248a1.991,1.991,0,0,1,1.56-.708,1.762,1.762,0,0,1,1.8,1.884A1.772,1.772,0,0,1,78.552-1.176Zm7.776-5.112a2.151,2.151,0,0,0-1.7.8v-.66h-1.44V0h1.44V-4a1.919,1.919,0,0,1,1.692-.936,3.349,3.349,0,0,1,.564.06L86.964-6.2A2.509,2.509,0,0,0,86.328-6.288Zm7.524,3.036A2.875,2.875,0,0,0,90.8-6.288a3.158,3.158,0,0,0-3.288,3.264,3.066,3.066,0,0,0,3.3,3.168A3.4,3.4,0,0,0,93.66-1.2l-1.008-.768a2.229,2.229,0,0,1-1.812.876,1.731,1.731,0,0,1-1.884-1.62h4.86A3.949,3.949,0,0,0,93.852-3.252Zm-3.06-1.824A1.473,1.473,0,0,1,92.4-3.792H89.028A1.689,1.689,0,0,1,90.792-5.076ZM97.56.144c1.608,0,2.532-.792,2.532-1.992,0-.876-.5-1.44-1.752-1.728l-1.068-.252c-.66-.156-.852-.324-.852-.6,0-.372.336-.624.984-.624a2.928,2.928,0,0,1,1.824.684l.78-1.02a3.772,3.772,0,0,0-2.544-.9C95.94-6.288,95-5.5,95-4.332c0,.852.5,1.392,1.74,1.68l1.068.252c.636.144.852.36.852.648,0,.384-.384.66-1.056.66a3.388,3.388,0,0,1-2.028-.744l-.744,1.08A4.317,4.317,0,0,0,97.56.144Zm6.12,0c1.608,0,2.532-.792,2.532-1.992,0-.876-.5-1.44-1.752-1.728l-1.068-.252c-.66-.156-.852-.324-.852-.6,0-.372.336-.624.984-.624a2.928,2.928,0,0,1,1.824.684l.78-1.02a3.772,3.772,0,0,0-2.544-.9c-1.524,0-2.46.792-2.46,1.956,0,.852.5,1.392,1.74,1.68l1.068.252c.636.144.852.36.852.648,0,.384-.384.66-1.056.66a3.388,3.388,0,0,1-2.028-.744l-.744,1.08A4.317,4.317,0,0,0,103.68.144Zm4.6-.048a.952.952,0,0,0,.984-.984.959.959,0,0,0-.984-.984.959.959,0,0,0-.984.984A.952.952,0,0,0,108.276.1Zm5.532-6.384a2.671,2.671,0,0,0-1.776.624v-.48h-1.44v8.76h1.44V-.48a2.671,2.671,0,0,0,1.776.624,3.086,3.086,0,0,0,3.048-3.216A3.086,3.086,0,0,0,113.808-6.288Zm-.216,5.112a2,2,0,0,1-1.56-.72V-4.248a1.991,1.991,0,0,1,1.56-.708,1.762,1.762,0,0,1,1.8,1.884A1.772,1.772,0,0,1,113.592-1.176Zm7.776-5.112a2.151,2.151,0,0,0-1.7.8v-.66h-1.44V0h1.44V-4a1.919,1.919,0,0,1,1.692-.936,3.349,3.349,0,0,1,.564.06L122-6.2A2.509,2.509,0,0,0,121.368-6.288ZM125.82.144a3.144,3.144,0,0,0,3.252-3.216,3.137,3.137,0,0,0-3.252-3.216,3.147,3.147,0,0,0-3.264,3.216A3.154,3.154,0,0,0,125.82.144Zm0-1.32a1.779,1.779,0,0,1-1.8-1.9,1.769,1.769,0,0,1,1.8-1.884,1.766,1.766,0,0,1,1.788,1.884A1.776,1.776,0,0,1,125.82-1.176Zm3.828,2.28h1.44L135.528-8.9h-1.44ZM143.52-6.288a3.065,3.065,0,0,0-2.2.984,2.047,2.047,0,0,0-1.836-.984,2.827,2.827,0,0,0-1.812.672v-.528h-1.44V0h1.44V-4.224a1.984,1.984,0,0,1,1.44-.732c.684,0,1.152.492,1.152,1.524V0h1.44V-3.744c0-.156-.012-.3-.024-.444a1.937,1.937,0,0,1,1.464-.768c.684,0,1.152.492,1.152,1.524V0h1.44V-3.744C145.74-5.364,144.828-6.288,143.52-6.288Zm8.16.144-1.728,4.212-1.8-4.212h-1.644l2.7,6.024L148.08,2.616h1.548l3.612-8.76Zm2.136,3.084h3.768V-4.332h-3.768ZM158.88,0h1.44V-8.856h-1.44Zm6.06.144a3.144,3.144,0,0,0,3.252-3.216,3.137,3.137,0,0,0-3.252-3.216,3.147,3.147,0,0,0-3.264,3.216A3.154,3.154,0,0,0,164.94.144Zm0-1.32a1.779,1.779,0,0,1-1.8-1.9,1.769,1.769,0,0,1,1.8-1.884,1.766,1.766,0,0,1,1.788,1.884A1.776,1.776,0,0,1,164.94-1.176ZM174-6.144v.48a2.694,2.694,0,0,0-1.776-.624,3.056,3.056,0,0,0-3.048,3.132,3.033,3.033,0,0,0,3.048,3.1A2.684,2.684,0,0,0,174-.672v.516a1.537,1.537,0,0,1-1.74,1.6,3.205,3.205,0,0,1-2.1-.876L169.3,1.62a4.232,4.232,0,0,0,2.988,1.14c1.944,0,3.156-1.092,3.156-2.916V-6.144Zm-1.572,4.788a1.737,1.737,0,0,1-1.788-1.8,1.74,1.74,0,0,1,1.788-1.812,2.062,2.062,0,0,1,1.572.72v2.172A2.062,2.062,0,0,1,172.428-1.356Zm5.472-5.6a.914.914,0,0,0,.912-.924A.919.919,0,0,0,177.9-8.8a.932.932,0,0,0-.936.912A.927.927,0,0,0,177.9-6.96ZM177.168,0h1.44V-6.144h-1.44Zm6.48-6.288a2.941,2.941,0,0,0-1.872.66v-.516h-1.44V0h1.44V-4.236a1.971,1.971,0,0,1,1.512-.72c.8,0,1.308.528,1.308,1.584V0h1.44V-3.684A2.326,2.326,0,0,0,183.648-6.288Z" transform="translate(356 1635)" fill="#07003b"/>
      </g>
      <g id="Group_352-2" data-name="Group 352" transform="translate(0 4)">
        <g transform="matrix(1, 0, 0, 1, -16, 1265)" filter="url(#Rectangle_436-3)">
          <rect id="Rectangle_436-6" data-name="Rectangle 436" width="286" height="192" rx="10" transform="translate(350 386)" fill="#fff"/>
        </g>
        <path id="Rectangle_703-2" data-name="Rectangle 703" d="M10,0H276a10,10,0,0,1,10,10v5a0,0,0,0,1,0,0H0a0,0,0,0,1,0,0V10A10,10,0,0,1,10,0Z" transform="translate(334 1651)" fill="#f0f0f0"/>
        <rect id="Rectangle_710-2" data-name="Rectangle 710" width="152" height="7" rx="2" transform="translate(401 1655)" fill="#fff"/>
        <rect id="Rectangle_704-2" data-name="Rectangle 704" width="4" height="4" rx="2" transform="translate(344 1657)" fill="#ff5670"/>
        <rect id="Rectangle_705-2" data-name="Rectangle 705" width="4" height="4" rx="2" transform="translate(351 1657)" fill="#fdb400"/>
        <rect id="Rectangle_706-2" data-name="Rectangle 706" width="4" height="4" rx="2" transform="translate(358 1657)" fill="#38c073"/>
        <g id="Group_351-2" data-name="Group 351" transform="translate(448 1750.678)">
          <rect id="Rectangle_437-2" data-name="Rectangle 437" width="67" height="85" rx="2" transform="translate(-4 -45.678)" fill="#3c50e0" opacity="0.2"/>
          <g id="Group_91-2" data-name="Group 91" transform="translate(4.222 -35.446)">
            <rect id="Rectangle_439-2" data-name="Rectangle 439" width="49" height="10" rx="1" transform="translate(0.779 24.768)" fill="#fff" opacity="0.9"/>
            <rect id="Rectangle_440-2" data-name="Rectangle 440" width="49" height="10" rx="1" transform="translate(0.779 39.768)" fill="#fff" opacity="0.9"/>
            <rect id="Rectangle_441-2" data-name="Rectangle 441" width="31" height="10" rx="1" transform="translate(9.779 54.768)" fill="#ff5670"/>
            <rect id="Rectangle_438-2" data-name="Rectangle 438" width="17" height="17" rx="8.5" transform="translate(16.779 -0.231)" fill="#ff5670"/>
          </g>
        </g>
        <path id="Path_781" data-name="Path 781" d="M.7-1.048a.49.49,0,0,0-.312.11v-.538H.144V0h.24V-.706a.328.328,0,0,1,.252-.12c.134,0,.218.088.218.264V0h.24V-.614A.388.388,0,0,0,.7-1.048Zm1.328.82A.537.537,0,0,1,1.868-.2c-.118,0-.174-.062-.174-.206V-.814H2.02v-.21H1.694v-.244h-.24v.244h-.21v.21h.21v.436c0,.274.126.4.37.4a.562.562,0,0,0,.234-.046Zm.882,0A.537.537,0,0,1,2.75-.2c-.118,0-.174-.062-.174-.206V-.814H2.9v-.21H2.576v-.244h-.24v.244h-.21v.21h.21v.436c0,.274.126.4.37.4A.562.562,0,0,0,2.94-.026Zm.762-.82a.445.445,0,0,0-.3.1v-.08h-.24V.436h.24V-.08a.445.445,0,0,0,.3.1.514.514,0,0,0,.508-.536A.514.514,0,0,0,3.668-1.048ZM3.632-.2a.334.334,0,0,1-.26-.12V-.708a.332.332,0,0,1,.26-.118.294.294,0,0,1,.3.314A.3.3,0,0,1,3.632-.2Zm1.16.22c.268,0,.422-.132.422-.332,0-.146-.084-.24-.292-.288L4.744-.638c-.11-.026-.142-.054-.142-.1,0-.062.056-.1.164-.1a.488.488,0,0,1,.3.114L5.2-.9a.629.629,0,0,0-.424-.15c-.254,0-.41.132-.41.326,0,.142.084.232.29.28L4.834-.4c.106.024.142.06.142.108,0,.064-.064.11-.176.11a.565.565,0,0,1-.338-.124l-.124.18A.719.719,0,0,0,4.792.024Zm.762-.662A.16.16,0,0,0,5.718-.8a.159.159,0,0,0-.164-.164A.159.159,0,0,0,5.39-.8.16.16,0,0,0,5.554-.638Zm0,.656a.159.159,0,0,0,.164-.164A.16.16,0,0,0,5.554-.31a.16.16,0,0,0-.164.164A.159.159,0,0,0,5.554.018Zm.264.166h.24L6.8-1.484h-.24Zm.824,0h.24l.74-1.668h-.24ZM7.788,0h.24V-1.476h-.24ZM8.8.024A.524.524,0,0,0,9.34-.512.523.523,0,0,0,8.8-1.048a.525.525,0,0,0-.544.536A.526.526,0,0,0,8.8.024Zm0-.22a.3.3,0,0,1-.3-.316.3.3,0,0,1,.3-.314.294.294,0,0,1,.3.314A.3.3,0,0,1,8.8-.2Zm1.51-.828v.08a.449.449,0,0,0-.3-.1A.509.509,0,0,0,9.5-.526a.505.505,0,0,0,.508.516.447.447,0,0,0,.3-.1v.086a.256.256,0,0,1-.29.266.534.534,0,0,1-.35-.146L9.524.27a.705.705,0,0,0,.5.19.469.469,0,0,0,.526-.486v-1Zm-.262.8a.289.289,0,0,1-.3-.3.29.29,0,0,1,.3-.3.344.344,0,0,1,.262.12v.362A.344.344,0,0,1,10.046-.226Zm.912-.934a.152.152,0,0,0,.152-.154.153.153,0,0,0-.152-.152.155.155,0,0,0-.156.152A.155.155,0,0,0,10.958-1.16ZM10.836,0h.24V-1.024h-.24Zm1.08-1.048a.49.49,0,0,0-.312.11v-.086h-.24V0h.24V-.706a.328.328,0,0,1,.252-.12c.134,0,.218.088.218.264V0h.24V-.614A.388.388,0,0,0,11.916-1.048Zm1.212,0a.445.445,0,0,0-.3.1v-.08h-.24V.436h.24V-.08a.445.445,0,0,0,.3.1.514.514,0,0,0,.508-.536A.514.514,0,0,0,13.128-1.048ZM13.092-.2a.334.334,0,0,1-.26-.12V-.708a.332.332,0,0,1,.26-.118.294.294,0,0,1,.3.314A.3.3,0,0,1,13.092-.2Zm1.3-.852a.359.359,0,0,0-.284.134v-.11h-.24V0h.24V-.666a.32.32,0,0,1,.282-.156.558.558,0,0,1,.094.01l.014-.222A.418.418,0,0,0,14.388-1.048Zm1.254.506a.479.479,0,0,0-.508-.506.526.526,0,0,0-.548.544.511.511,0,0,0,.55.528A.567.567,0,0,0,15.61-.2l-.168-.128a.371.371,0,0,1-.3.146.288.288,0,0,1-.314-.27h.81A.658.658,0,0,0,15.642-.542Zm-.51-.3a.246.246,0,0,1,.268.214h-.562A.282.282,0,0,1,15.132-.846Zm1.128.87c.268,0,.422-.132.422-.332,0-.146-.084-.24-.292-.288l-.178-.042c-.11-.026-.142-.054-.142-.1,0-.062.056-.1.164-.1a.488.488,0,0,1,.3.114l.13-.17a.629.629,0,0,0-.424-.15c-.254,0-.41.132-.41.326,0,.142.084.232.29.28L16.3-.4c.106.024.142.06.142.108,0,.064-.064.11-.176.11a.565.565,0,0,1-.338-.124l-.124.18A.719.719,0,0,0,16.26.024Zm1.02,0c.268,0,.422-.132.422-.332,0-.146-.084-.24-.292-.288l-.178-.042c-.11-.026-.142-.054-.142-.1,0-.062.056-.1.164-.1a.488.488,0,0,1,.3.114l.13-.17a.629.629,0,0,0-.424-.15c-.254,0-.41.132-.41.326,0,.142.084.232.29.28l.178.042c.106.024.142.06.142.108,0,.064-.064.11-.176.11a.565.565,0,0,1-.338-.124l-.124.18A.719.719,0,0,0,17.28.024Zm.766-.008a.159.159,0,0,0,.164-.164.16.16,0,0,0-.164-.164.16.16,0,0,0-.164.164A.159.159,0,0,0,18.046.016Zm.922-1.064a.445.445,0,0,0-.3.1v-.08h-.24V.436h.24V-.08a.445.445,0,0,0,.3.1.514.514,0,0,0,.508-.536A.514.514,0,0,0,18.968-1.048ZM18.932-.2a.334.334,0,0,1-.26-.12V-.708a.332.332,0,0,1,.26-.118.294.294,0,0,1,.3.314A.3.3,0,0,1,18.932-.2Zm1.3-.852a.359.359,0,0,0-.284.134v-.11H19.7V0h.24V-.666a.32.32,0,0,1,.282-.156.558.558,0,0,1,.094.01l.014-.222A.418.418,0,0,0,20.228-1.048ZM20.97.024a.524.524,0,0,0,.542-.536.523.523,0,0,0-.542-.536.525.525,0,0,0-.544.536A.526.526,0,0,0,20.97.024Zm0-.22a.3.3,0,0,1-.3-.316.3.3,0,0,1,.3-.314.294.294,0,0,1,.3.314A.3.3,0,0,1,20.97-.2Zm.638.38h.24l.74-1.668h-.24ZM23.92-1.048a.511.511,0,0,0-.366.164.341.341,0,0,0-.306-.164.471.471,0,0,0-.3.112v-.088h-.24V0h.24V-.7a.331.331,0,0,1,.24-.122c.114,0,.192.082.192.254V0h.24V-.624c0-.026,0-.05,0-.074a.323.323,0,0,1,.244-.128c.114,0,.192.082.192.254V0h.24V-.624C24.29-.894,24.138-1.048,23.92-1.048Zm1.36.024-.288.7-.3-.7h-.274l.45,1L24.68.436h.258l.6-1.46Zm.356.514h.628V-.722h-.628ZM26.48,0h.24V-1.476h-.24Zm1.01.024a.524.524,0,0,0,.542-.536.523.523,0,0,0-.542-.536.525.525,0,0,0-.544.536A.526.526,0,0,0,27.49.024Zm0-.22a.3.3,0,0,1-.3-.316.3.3,0,0,1,.3-.314.294.294,0,0,1,.3.314A.3.3,0,0,1,27.49-.2ZM29-1.024v.08a.449.449,0,0,0-.3-.1.509.509,0,0,0-.508.522A.505.505,0,0,0,28.7-.01a.447.447,0,0,0,.3-.1v.086a.256.256,0,0,1-.29.266.534.534,0,0,1-.35-.146L28.216.27a.705.705,0,0,0,.5.19.469.469,0,0,0,.526-.486v-1Zm-.262.8a.289.289,0,0,1-.3-.3.29.29,0,0,1,.3-.3A.344.344,0,0,1,29-.708v.362A.344.344,0,0,1,28.738-.226Zm.912-.934a.152.152,0,0,0,.152-.154.153.153,0,0,0-.152-.152.155.155,0,0,0-.156.152A.155.155,0,0,0,29.65-1.16ZM29.528,0h.24V-1.024h-.24Zm1.08-1.048a.49.49,0,0,0-.312.11v-.086h-.24V0h.24V-.706a.328.328,0,0,1,.252-.12c.134,0,.218.088.218.264V0h.24V-.614A.388.388,0,0,0,30.608-1.048Z" transform="translate(405 1659)" fill="#07003b"/>
      </g>
    </g>
  </g>
</svg>
