<svg xmlns="http://www.w3.org/2000/svg" xmlns:xlink="http://www.w3.org/1999/xlink" width="660" height="611" viewBox="0 0 660 611">
  <defs>
    <filter id="Rectangle_436" x="0" y="96" width="621" height="293" filterUnits="userSpaceOnUse">
      <feOffset dy="5" input="SourceAlpha"/>
      <feGaussianBlur stdDeviation="10" result="blur"/>
      <feFlood flood-color="#3c50e0" flood-opacity="0.149"/>
      <feComposite operator="in" in2="blur"/>
      <feComposite in="SourceGraphic"/>
    </filter>
    <filter id="Rectangle_436-2" x="314" y="0" width="346" height="189" filterUnits="userSpaceOnUse">
      <feOffset dy="5" input="SourceAlpha"/>
      <feGaussianBlur stdDeviation="10" result="blur-2"/>
      <feFlood flood-color="#3c50e0" flood-opacity="0.149"/>
      <feComposite operator="in" in2="blur-2"/>
      <feComposite in="SourceGraphic"/>
    </filter>
    <filter id="Rectangle_436-3" x="138" y="339" width="299" height="203" filterUnits="userSpaceOnUse">
      <feOffset dy="5" input="SourceAlpha"/>
      <feGaussianBlur stdDeviation="10" result="blur-3"/>
      <feFlood flood-color="#3c50e0" flood-opacity="0.149"/>
      <feComposite operator="in" in2="blur-3"/>
      <feComposite in="SourceGraphic"/>
    </filter>
    <filter id="Rectangle_682" x="109" y="377" width="231" height="234" filterUnits="userSpaceOnUse">
      <feOffset dy="5" input="SourceAlpha"/>
      <feGaussianBlur stdDeviation="10" result="blur-4"/>
      <feFlood flood-color="#3c50e0" flood-opacity="0.149"/>
      <feComposite operator="in" in2="blur-4"/>
      <feComposite in="SourceGraphic"/>
    </filter>
  </defs>
  <g id="addon-01" transform="translate(-420 -2791)">
    <g id="Image" transform="translate(45 137)">
      <g id="Icon" transform="translate(405 2775)">
        <g id="Login_Screen" data-name="Login Screen">
          <g transform="matrix(1, 0, 0, 1, -30, -121)" filter="url(#Rectangle_436)">
            <rect id="Rectangle_436-4" data-name="Rectangle 436" width="561" height="233" rx="10" transform="translate(30 121)" fill="#fff"/>
          </g>
          <g id="Height" transform="translate(24.999 20)">
            <g id="radio" transform="translate(0 29)">
              <g id="Rectangle_535" data-name="Rectangle 535" transform="translate(0.001)" fill="rgba(60,80,224,0.05)" stroke="#aeb6f3" stroke-width="2">
                <rect width="73" height="40" stroke="none"/>
                <rect x="1" y="1" width="71" height="38" fill="none"/>
              </g>
              <g id="Rectangle_672" data-name="Rectangle 672" transform="translate(0.001 38)" fill="#fff" stroke="#aeb6f3" stroke-width="2">
                <rect width="73" height="40" stroke="none"/>
                <rect x="1" y="1" width="71" height="38" fill="none"/>
              </g>
              <g id="Rectangle_675" data-name="Rectangle 675" transform="translate(0.001 76)" fill="#fff" stroke="#aeb6f3" stroke-width="2">
                <rect width="73" height="40" stroke="none"/>
                <rect x="1" y="1" width="71" height="38" fill="none"/>
              </g>
              <g id="Rectangle_680" data-name="Rectangle 680" transform="translate(0.001 114)" fill="#fff" stroke="#aeb6f3" stroke-width="2">
                <rect width="73" height="40" stroke="none"/>
                <rect x="1" y="1" width="71" height="38" fill="none"/>
              </g>
              <g id="Rectangle_671" data-name="Rectangle 671" transform="translate(277.001)" fill="rgba(60,80,224,0.05)" stroke="#aeb6f3" stroke-width="2">
                <rect width="118" height="40" stroke="none"/>
                <rect x="1" y="1" width="116" height="38" fill="none"/>
              </g>
              <g id="Rectangle_684" data-name="Rectangle 684" transform="translate(393.001)" fill="rgba(60,80,224,0.05)" stroke="#aeb6f3" stroke-width="2">
                <rect width="118" height="40" stroke="none"/>
                <rect x="1" y="1" width="116" height="38" fill="none"/>
              </g>
              <g id="Rectangle_674" data-name="Rectangle 674" transform="translate(277.001 38)" fill="#fff" stroke="#aeb6f3" stroke-width="2">
                <rect width="118" height="40" stroke="none"/>
                <rect x="1" y="1" width="116" height="38" fill="none"/>
              </g>
              <g id="Rectangle_685" data-name="Rectangle 685" transform="translate(393.001 38)" fill="#fff" stroke="#aeb6f3" stroke-width="2">
                <rect width="118" height="40" stroke="none"/>
                <rect x="1" y="1" width="116" height="38" fill="none"/>
              </g>
              <g id="Rectangle_677" data-name="Rectangle 677" transform="translate(277.001 76)" fill="#fff" stroke="#aeb6f3" stroke-width="2">
                <rect width="118" height="40" stroke="none"/>
                <rect x="1" y="1" width="116" height="38" fill="none"/>
              </g>
              <g id="Rectangle_686" data-name="Rectangle 686" transform="translate(393.001 76)" fill="#fff" stroke="#aeb6f3" stroke-width="2">
                <rect width="118" height="40" stroke="none"/>
                <rect x="1" y="1" width="116" height="38" fill="none"/>
              </g>
              <g id="Rectangle_678" data-name="Rectangle 678" transform="translate(277.001 114)" fill="#fff" stroke="#aeb6f3" stroke-width="2">
                <rect width="118" height="40" stroke="none"/>
                <rect x="1" y="1" width="116" height="38" fill="none"/>
              </g>
              <g id="Rectangle_687" data-name="Rectangle 687" transform="translate(393.001 114)" fill="#fff" stroke="#aeb6f3" stroke-width="2">
                <rect width="118" height="40" stroke="none"/>
                <rect x="1" y="1" width="116" height="38" fill="none"/>
              </g>
              <g id="Rectangle_670" data-name="Rectangle 670" transform="translate(71.001)" fill="rgba(60,80,224,0.05)" stroke="#aeb6f3" stroke-width="2">
                <rect width="208" height="40" stroke="none"/>
                <rect x="1" y="1" width="206" height="38" fill="none"/>
              </g>
              <g id="Rectangle_673" data-name="Rectangle 673" transform="translate(71.001 38)" fill="#fff" stroke="#aeb6f3" stroke-width="2">
                <rect width="208" height="40" stroke="none"/>
                <rect x="1" y="1" width="206" height="38" fill="none"/>
              </g>
              <g id="Rectangle_676" data-name="Rectangle 676" transform="translate(71.001 76)" fill="#fff" stroke="#aeb6f3" stroke-width="2">
                <rect width="208" height="40" stroke="none"/>
                <rect x="1" y="1" width="206" height="38" fill="none"/>
              </g>
              <g id="Rectangle_679" data-name="Rectangle 679" transform="translate(71.001 114)" fill="#fff" stroke="#aeb6f3" stroke-width="2">
                <rect width="208" height="40" stroke="none"/>
                <rect x="1" y="1" width="206" height="38" fill="none"/>
              </g>
              <path id="Path_718" data-name="Path 718" d="M-10.78.168a3.745,3.745,0,0,0,4.1-4.088V-9.8H-8.456v5.7c0,1.764-.854,2.6-2.324,2.6s-2.338-.84-2.338-2.6V-9.8h-1.764v5.88A3.739,3.739,0,0,0-10.78.168Zm9,0C.1.168,1.176-.756,1.176-2.156c0-1.022-.588-1.68-2.044-2.016l-1.246-.294c-.77-.182-.994-.378-.994-.7,0-.434.392-.728,1.148-.728a3.416,3.416,0,0,1,2.128.8l.91-1.19A4.4,4.4,0,0,0-1.89-7.336c-1.778,0-2.87.924-2.87,2.282,0,.994.588,1.624,2.03,1.96l1.246.294c.742.168.994.42.994.756,0,.448-.448.77-1.232.77a3.953,3.953,0,0,1-2.366-.868l-.868,1.26A5.036,5.036,0,0,0-1.778.168ZM9.674-3.794A3.354,3.354,0,0,0,6.118-7.336,3.684,3.684,0,0,0,2.282-3.528a3.577,3.577,0,0,0,3.85,3.7A3.966,3.966,0,0,0,9.45-1.4L8.274-2.3A2.6,2.6,0,0,1,6.16-1.274a2.019,2.019,0,0,1-2.2-1.89h5.67A4.608,4.608,0,0,0,9.674-3.794ZM6.1-5.922a1.719,1.719,0,0,1,1.876,1.5H4.046A1.971,1.971,0,0,1,6.1-5.922Zm8.848-1.414a2.51,2.51,0,0,0-1.988.938v-.77h-1.68V0h1.68V-4.662a2.238,2.238,0,0,1,1.974-1.092,3.907,3.907,0,0,1,.658.07l.1-1.554A2.927,2.927,0,0,0,14.952-7.336Z" transform="translate(37 24)" fill="#07003b"/>
              <path id="Path_719" data-name="Path 719" d="M.266-9.8-2.45-8.414V-6.65L-.014-7.868V0h1.75V-9.8Z" transform="translate(37 64)" fill="#515e81"/>
              <path id="Path_720" data-name="Path 720" d="M-.973-1.6,1.6-4C2.905-5.222,3.3-6.146,3.3-7.112A2.874,2.874,0,0,0,.119-9.968,4.136,4.136,0,0,0-3.647-7.644l1.358.924A2.8,2.8,0,0,1,.077-8.372a1.313,1.313,0,0,1,1.47,1.33c0,.63-.35,1.274-1.582,2.436l-3.458,3.22V0H3.451V-1.6Z" transform="translate(37 102)" fill="#515e81"/>
              <path id="Path_721" data-name="Path 721" d="M1.645-5.012A2.19,2.19,0,0,0,3.227-7.238c0-1.624-1.232-2.73-3.29-2.73A4.188,4.188,0,0,0-3.549-8.3l1.134,1.078A2.907,2.907,0,0,1-.147-8.4c1.078,0,1.638.56,1.638,1.288,0,.784-.63,1.344-1.848,1.344H-1.435v1.554h.882c1.484,0,2.184.546,2.184,1.386S.959-1.4-.2-1.4A3.439,3.439,0,0,1-2.625-2.45L-3.661-1.232a4.669,4.669,0,0,0,3.5,1.4c2.2,0,3.528-1.19,3.528-2.828A2.339,2.339,0,0,0,1.645-5.012Z" transform="translate(37 140)" fill="#515e81"/>
              <path id="Path_726" data-name="Path 726" d="M-18.473.168c2.324,0,3.71-1.232,3.71-3.066,0-1.372-.8-2.24-2.394-2.632l-1.722-.406c-1.12-.266-1.5-.644-1.5-1.2,0-.7.63-1.232,1.792-1.232a3.545,3.545,0,0,1,2.464,1.008L-14.973-8.6a5.134,5.134,0,0,0-3.584-1.372c-2.184,0-3.6,1.232-3.6,2.94,0,1.3.854,2.2,2.408,2.576l1.722.406c1.064.252,1.47.672,1.47,1.274,0,.77-.672,1.33-1.862,1.33a4.847,4.847,0,0,1-2.9-1.078l-1.022,1.386A6.158,6.158,0,0,0-18.473.168ZM-8.5-1.6A3.76,3.76,0,0,1-9.6-1.4c-.826,0-1.218-.434-1.218-1.442V-5.7h2.282v-1.47h-2.282V-8.876h-1.68v1.708h-1.47V-5.7h1.47v3.052c0,1.918.882,2.786,2.59,2.786A3.934,3.934,0,0,0-8.267-.182Zm6.65-5.572v.546a3.2,3.2,0,0,0-2.058-.714,3.6,3.6,0,0,0-3.57,3.752A3.6,3.6,0,0,0-3.913.168,3.2,3.2,0,0,0-1.855-.546V0h1.68V-7.168Zm-1.806,5.8A2.078,2.078,0,0,1-5.775-3.584a2.067,2.067,0,0,1,2.114-2.2,2.315,2.315,0,0,1,1.806.826v2.744A2.329,2.329,0,0,1-3.661-1.372ZM6.475-1.6a3.76,3.76,0,0,1-1.092.2c-.826,0-1.218-.434-1.218-1.442V-5.7H6.447v-1.47H4.165V-8.876H2.485v1.708H1.015V-5.7h1.47v3.052C2.485-.728,3.367.14,5.075.14A3.934,3.934,0,0,0,6.713-.182Zm6.44-5.572V-2.24a2.268,2.268,0,0,1-1.764.868c-.952,0-1.484-.6-1.484-1.792v-4H7.987V-2.8A2.637,2.637,0,0,0,10.717.168a3.364,3.364,0,0,0,2.2-.77V0H14.6V-7.168ZM19.3.168c1.876,0,2.954-.924,2.954-2.324,0-1.022-.588-1.68-2.044-2.016l-1.246-.294c-.77-.182-.994-.378-.994-.7,0-.434.392-.728,1.148-.728a3.416,3.416,0,0,1,2.128.8l.91-1.19a4.4,4.4,0,0,0-2.968-1.05c-1.778,0-2.87.924-2.87,2.282,0,.994.588,1.624,2.03,1.96l1.246.294c.742.168.994.42.994.756,0,.448-.448.77-1.232.77a3.953,3.953,0,0,1-2.366-.868l-.868,1.26A5.036,5.036,0,0,0,19.3.168Z" transform="translate(337 24)" fill="#07003b"/>
              <path id="Path_730" data-name="Path 730" d="M-14.672,0H-12.8l-3.822-9.8h-2.03L-22.47,0h1.862l.868-2.268h4.2Zm-4.494-3.794,1.526-3.99,1.526,3.99ZM-8.358.168A3.806,3.806,0,0,0-5.11-1.512L-6.356-2.45A2.446,2.446,0,0,1-8.33-1.372a2.08,2.08,0,0,1-2.086-2.212,2.066,2.066,0,0,1,2.072-2.2A2.206,2.206,0,0,1-6.51-4.76L-5.194-5.8A3.785,3.785,0,0,0-8.33-7.336a3.706,3.706,0,0,0-3.808,3.794A3.623,3.623,0,0,0-8.358.168ZM1.008-1.6a3.76,3.76,0,0,1-1.092.2C-.91-1.4-1.3-1.834-1.3-2.842V-5.7H.98v-1.47H-1.3V-8.876h-1.68v1.708h-1.47V-5.7h1.47v3.052C-2.982-.728-2.1.14-.392.14A3.934,3.934,0,0,0,1.246-.182ZM3.444-8.12A1.067,1.067,0,0,0,4.508-9.2a1.073,1.073,0,0,0-1.064-1.064A1.088,1.088,0,0,0,2.352-9.2,1.082,1.082,0,0,0,3.444-8.12ZM2.59,0H4.27V-7.168H2.59ZM9.66.168a3.668,3.668,0,0,0,3.794-3.752A3.66,3.66,0,0,0,9.66-7.336,3.672,3.672,0,0,0,5.852-3.584,3.68,3.68,0,0,0,9.66.168Zm0-1.54a2.075,2.075,0,0,1-2.1-2.212,2.064,2.064,0,0,1,2.1-2.2,2.061,2.061,0,0,1,2.086,2.2A2.072,2.072,0,0,1,9.66-1.372ZM18.9-7.336a3.431,3.431,0,0,0-2.184.77v-.6h-1.68V0h1.68V-4.942a2.3,2.3,0,0,1,1.764-.84c.938,0,1.526.616,1.526,1.848V0h1.68V-4.3A2.713,2.713,0,0,0,18.9-7.336Z" transform="translate(453 24)" fill="#07003b"/>
              <path id="Path_727" data-name="Path 727" d="M-34.8-9.8l-2.716,1.386V-6.65l2.436-1.218V0h1.75V-9.8Zm10.514,0h-3.164V0h3.164a4.689,4.689,0,0,0,5.04-4.9A4.689,4.689,0,0,0-24.283-9.8Zm-.084,8.148h-1.316v-6.5h1.316a2.991,2.991,0,0,1,3.3,3.248A2.991,2.991,0,0,1-24.367-1.652Zm12.124-5.516v.546A3.2,3.2,0,0,0-14.3-7.336a3.6,3.6,0,0,0-3.57,3.752A3.6,3.6,0,0,0-14.3.168a3.2,3.2,0,0,0,2.058-.714V0h1.68V-7.168Zm-1.806,5.8a2.078,2.078,0,0,1-2.114-2.212,2.067,2.067,0,0,1,2.114-2.2,2.315,2.315,0,0,1,1.806.826v2.744A2.329,2.329,0,0,1-14.049-1.372Zm10.668-5.8L-5.4-2.254-7.5-7.168H-9.415L-6.265-.14-7.581,3.052h1.806l4.214-10.22ZM2.191.168c1.876,0,2.954-.924,2.954-2.324,0-1.022-.588-1.68-2.044-2.016L1.855-4.466c-.77-.182-.994-.378-.994-.7,0-.434.392-.728,1.148-.728a3.416,3.416,0,0,1,2.128.8l.91-1.19a4.4,4.4,0,0,0-2.968-1.05c-1.778,0-2.87.924-2.87,2.282,0,.994.588,1.624,2.03,1.96L2.485-2.8c.742.168.994.42.994.756,0,.448-.448.77-1.232.77A3.953,3.953,0,0,1-.119-2.142L-.987-.882A5.036,5.036,0,0,0,2.191.168Zm9.842-1.82V-9.8H10.269V0h6.468V-1.652ZM25.207-3.794a3.354,3.354,0,0,0-3.556-3.542,3.684,3.684,0,0,0-3.836,3.808,3.577,3.577,0,0,0,3.85,3.7A3.966,3.966,0,0,0,24.983-1.4l-1.176-.9a2.6,2.6,0,0,1-2.114,1.022,2.019,2.019,0,0,1-2.2-1.89h5.67A4.608,4.608,0,0,0,25.207-3.794Zm-3.57-2.128a1.719,1.719,0,0,1,1.876,1.5H19.579A1.971,1.971,0,0,1,21.637-5.922ZM29.071-7.5c0-1.008.476-1.456,1.372-1.456a2.688,2.688,0,0,1,.924.168l.266-1.442a4.243,4.243,0,0,0-1.47-.266c-1.722,0-2.772,1.022-2.772,2.968v.364h-1.47V-5.7h1.47V0h1.68V-5.7h2.394v-1.47H29.071ZM37.5-1.6a3.76,3.76,0,0,1-1.092.2c-.826,0-1.218-.434-1.218-1.442V-5.7h2.282v-1.47H35.189V-8.876h-1.68v1.708h-1.47V-5.7h1.47v3.052c0,1.918.882,2.786,2.59,2.786a3.934,3.934,0,0,0,1.638-.322Z" transform="translate(337 64)" fill="#ff5670"/>
              <path id="Path_728" data-name="Path 728" d="M-33.418-5.012a2.19,2.19,0,0,0,1.582-2.226c0-1.624-1.232-2.73-3.29-2.73A4.188,4.188,0,0,0-38.612-8.3l1.134,1.078A2.907,2.907,0,0,1-35.21-8.4c1.078,0,1.638.56,1.638,1.288,0,.784-.63,1.344-1.848,1.344H-36.5v1.554h.882c1.484,0,2.184.546,2.184,1.386S-34.1-1.4-35.266-1.4a3.439,3.439,0,0,1-2.422-1.05l-1.036,1.218a4.669,4.669,0,0,0,3.5,1.4c2.2,0,3.528-1.19,3.528-2.828A2.339,2.339,0,0,0-33.418-5.012ZM-23.338-9.8H-26.5V0h3.164A4.689,4.689,0,0,0-18.3-4.9,4.689,4.689,0,0,0-23.338-9.8Zm-.084,8.148h-1.316v-6.5h1.316a2.991,2.991,0,0,1,3.3,3.248A2.991,2.991,0,0,1-23.422-1.652ZM-11.3-7.168v.546a3.2,3.2,0,0,0-2.058-.714,3.6,3.6,0,0,0-3.57,3.752A3.6,3.6,0,0,0-13.356.168,3.2,3.2,0,0,0-11.3-.546V0h1.68V-7.168Zm-1.806,5.8a2.078,2.078,0,0,1-2.114-2.212,2.067,2.067,0,0,1,2.114-2.2,2.315,2.315,0,0,1,1.806.826v2.744A2.329,2.329,0,0,1-13.1-1.372Zm10.668-5.8L-4.452-2.254l-2.1-4.914H-8.47L-5.32-.14-6.636,3.052H-4.83L-.616-7.168ZM3.136.168C5.012.168,6.09-.756,6.09-2.156c0-1.022-.588-1.68-2.044-2.016L2.8-4.466c-.77-.182-.994-.378-.994-.7,0-.434.392-.728,1.148-.728a3.416,3.416,0,0,1,2.128.8l.91-1.19a4.4,4.4,0,0,0-2.968-1.05c-1.778,0-2.87.924-2.87,2.282,0,.994.588,1.624,2.03,1.96L3.43-2.8c.742.168.994.42.994.756,0,.448-.448.77-1.232.77A3.953,3.953,0,0,1,.826-2.142L-.042-.882A5.036,5.036,0,0,0,3.136.168Zm9.842-1.82V-9.8H11.214V0h6.468V-1.652ZM26.152-3.794A3.354,3.354,0,0,0,22.6-7.336,3.684,3.684,0,0,0,18.76-3.528a3.577,3.577,0,0,0,3.85,3.7A3.966,3.966,0,0,0,25.928-1.4l-1.176-.9a2.6,2.6,0,0,1-2.114,1.022,2.019,2.019,0,0,1-2.2-1.89h5.67A4.608,4.608,0,0,0,26.152-3.794Zm-3.57-2.128a1.719,1.719,0,0,1,1.876,1.5H20.524A1.971,1.971,0,0,1,22.582-5.922ZM30.016-7.5c0-1.008.476-1.456,1.372-1.456a2.688,2.688,0,0,1,.924.168l.266-1.442a4.243,4.243,0,0,0-1.47-.266c-1.722,0-2.772,1.022-2.772,2.968v.364h-1.47V-5.7h1.47V0h1.68V-5.7H32.41v-1.47H30.016ZM38.444-1.6a3.76,3.76,0,0,1-1.092.2c-.826,0-1.218-.434-1.218-1.442V-5.7h2.282v-1.47H36.134V-8.876h-1.68v1.708h-1.47V-5.7h1.47v3.052c0,1.918.882,2.786,2.59,2.786a3.934,3.934,0,0,0,1.638-.322Z" transform="translate(337 102)" fill="#fdb400"/>
              <path id="Path_729" data-name="Path 729" d="M-38.458-9.8v1.6h4.844L-37.562,0h1.918l3.976-8.4V-9.8Zm14.91,0h-3.164V0h3.164a4.689,4.689,0,0,0,5.04-4.9A4.689,4.689,0,0,0-23.548-9.8Zm-.084,8.148h-1.316v-6.5h1.316a2.991,2.991,0,0,1,3.3,3.248A2.991,2.991,0,0,1-23.632-1.652Zm12.124-5.516v.546a3.2,3.2,0,0,0-2.058-.714,3.6,3.6,0,0,0-3.57,3.752A3.6,3.6,0,0,0-13.566.168a3.2,3.2,0,0,0,2.058-.714V0h1.68V-7.168Zm-1.806,5.8a2.078,2.078,0,0,1-2.114-2.212,2.067,2.067,0,0,1,2.114-2.2,2.315,2.315,0,0,1,1.806.826v2.744A2.329,2.329,0,0,1-13.314-1.372Zm10.668-5.8L-4.662-2.254l-2.1-4.914H-8.68L-5.53-.14-6.846,3.052H-5.04L-.826-7.168ZM2.926.168C4.8.168,5.88-.756,5.88-2.156c0-1.022-.588-1.68-2.044-2.016L2.59-4.466c-.77-.182-.994-.378-.994-.7,0-.434.392-.728,1.148-.728a3.416,3.416,0,0,1,2.128.8l.91-1.19a4.4,4.4,0,0,0-2.968-1.05c-1.778,0-2.87.924-2.87,2.282,0,.994.588,1.624,2.03,1.96L3.22-2.8c.742.168.994.42.994.756,0,.448-.448.77-1.232.77A3.953,3.953,0,0,1,.616-2.142L-.252-.882A5.036,5.036,0,0,0,2.926.168Zm9.842-1.82V-9.8H11V0h6.468V-1.652ZM25.942-3.794a3.354,3.354,0,0,0-3.556-3.542A3.684,3.684,0,0,0,18.55-3.528,3.577,3.577,0,0,0,22.4.168,3.966,3.966,0,0,0,25.718-1.4l-1.176-.9a2.6,2.6,0,0,1-2.114,1.022,2.019,2.019,0,0,1-2.2-1.89H25.9A4.608,4.608,0,0,0,25.942-3.794Zm-3.57-2.128a1.719,1.719,0,0,1,1.876,1.5H20.314A1.971,1.971,0,0,1,22.372-5.922ZM29.806-7.5c0-1.008.476-1.456,1.372-1.456a2.688,2.688,0,0,1,.924.168l.266-1.442A4.243,4.243,0,0,0,30.9-10.5c-1.722,0-2.772,1.022-2.772,2.968v.364h-1.47V-5.7h1.47V0h1.68V-5.7H32.2v-1.47H29.806ZM38.234-1.6a3.76,3.76,0,0,1-1.092.2c-.826,0-1.218-.434-1.218-1.442V-5.7h2.282v-1.47H35.924V-8.876h-1.68v1.708h-1.47V-5.7h1.47v3.052c0,1.918.882,2.786,2.59,2.786a3.934,3.934,0,0,0,1.638-.322Z" transform="translate(337 140)" fill="#38c073"/>
              <path id="Path_722" data-name="Path 722" d="M8.05-8.162V-9.8H1.176V0H8.05V-1.638H2.94V-4.27H7.392V-5.894H2.94V-8.162Zm10.332.826A3.576,3.576,0,0,0,15.82-6.188a2.388,2.388,0,0,0-2.142-1.148,3.3,3.3,0,0,0-2.114.784v-.616H9.884V0h1.68V-4.928a2.314,2.314,0,0,1,1.68-.854c.8,0,1.344.574,1.344,1.778V0h1.68V-4.368c0-.182-.014-.35-.028-.518a2.26,2.26,0,0,1,1.708-.9c.8,0,1.344.574,1.344,1.778V0h1.68V-4.368C20.972-6.258,19.908-7.336,18.382-7.336Zm9.73.168v.546a3.2,3.2,0,0,0-2.058-.714,3.6,3.6,0,0,0-3.57,3.752A3.6,3.6,0,0,0,26.054.168a3.2,3.2,0,0,0,2.058-.714V0h1.68V-7.168Zm-1.806,5.8a2.078,2.078,0,0,1-2.114-2.212,2.067,2.067,0,0,1,2.114-2.2,2.315,2.315,0,0,1,1.806.826v2.744A2.329,2.329,0,0,1,26.306-1.372Zm6.37-6.748A1.067,1.067,0,0,0,33.74-9.2a1.073,1.073,0,0,0-1.064-1.064A1.088,1.088,0,0,0,31.584-9.2,1.082,1.082,0,0,0,32.676-8.12ZM31.822,0H33.5V-7.168h-1.68Zm3.7,0H37.2V-10.332h-1.68Z" transform="translate(92 24)" fill="#07003b"/>
              <path id="Path_723" data-name="Path 723" d="M7.966-3.794A3.354,3.354,0,0,0,4.41-7.336,3.684,3.684,0,0,0,.574-3.528a3.577,3.577,0,0,0,3.85,3.7A3.966,3.966,0,0,0,7.742-1.4L6.566-2.3A2.6,2.6,0,0,1,4.452-1.274a2.019,2.019,0,0,1-2.2-1.89h5.67A4.608,4.608,0,0,0,7.966-3.794ZM4.4-5.922a1.719,1.719,0,0,1,1.876,1.5H2.338A1.971,1.971,0,0,1,4.4-5.922ZM18.074-7.336a3.576,3.576,0,0,0-2.562,1.148A2.388,2.388,0,0,0,13.37-7.336a3.3,3.3,0,0,0-2.114.784v-.616H9.576V0h1.68V-4.928a2.314,2.314,0,0,1,1.68-.854c.8,0,1.344.574,1.344,1.778V0h1.68V-4.368c0-.182-.014-.35-.028-.518a2.26,2.26,0,0,1,1.708-.9c.8,0,1.344.574,1.344,1.778V0h1.68V-4.368C20.664-6.258,19.6-7.336,18.074-7.336Zm9.73.168v.546a3.2,3.2,0,0,0-2.058-.714,3.6,3.6,0,0,0-3.57,3.752A3.6,3.6,0,0,0,25.746.168,3.2,3.2,0,0,0,27.8-.546V0h1.68V-7.168ZM26-1.372a2.078,2.078,0,0,1-2.114-2.212A2.067,2.067,0,0,1,26-5.782a2.315,2.315,0,0,1,1.806.826v2.744A2.329,2.329,0,0,1,26-1.372Zm6.37-6.748A1.067,1.067,0,0,0,33.432-9.2a1.073,1.073,0,0,0-1.064-1.064A1.088,1.088,0,0,0,31.276-9.2,1.082,1.082,0,0,0,32.368-8.12ZM31.514,0h1.68V-7.168h-1.68Zm3.7,0h1.68V-10.332H35.21Zm5.964-9.8L38.458-8.414V-6.65l2.436-1.218V0h1.75V-9.8Zm10.71,3.71v.364a2.353,2.353,0,0,0-1.47-.49A2.73,2.73,0,0,0,47.726-3.36,2.735,2.735,0,0,0,50.414-.518a2.672,2.672,0,0,0,1.848-.714,2.123,2.123,0,0,0,1.764.826c1.638,0,2.716-1.4,2.716-3.556A5.607,5.607,0,0,0,50.82-9.478a6.063,6.063,0,0,0-6.244,6.146c0,3.542,2.632,6.006,6.314,6.006a6.6,6.6,0,0,0,3.262-.784L53.564.7a5.474,5.474,0,0,1-2.646.616A4.506,4.506,0,0,1,46.074-3.36a4.554,4.554,0,0,1,4.76-4.746,4.163,4.163,0,0,1,4.48,4.3c0,1.428-.518,2.17-1.218,2.17-.462,0-.742-.308-.742-.91V-6.09ZM50.638-1.862a1.394,1.394,0,0,1-1.428-1.5,1.4,1.4,0,0,1,1.428-1.512,1.616,1.616,0,0,1,1.246.56v1.89A1.606,1.606,0,0,1,50.638-1.862ZM65.352-3.794A3.354,3.354,0,0,0,61.8-7.336,3.684,3.684,0,0,0,57.96-3.528a3.577,3.577,0,0,0,3.85,3.7A3.966,3.966,0,0,0,65.128-1.4l-1.176-.9a2.6,2.6,0,0,1-2.114,1.022,2.019,2.019,0,0,1-2.2-1.89h5.67A4.608,4.608,0,0,0,65.352-3.794Zm-3.57-2.128a1.719,1.719,0,0,1,1.876,1.5H59.724A1.971,1.971,0,0,1,61.782-5.922ZM73.206,0l-2.66-3.7,2.548-3.472H71.2l-1.68,2.31-1.666-2.31h-1.89L68.516-3.7,65.842,0H67.76l1.764-2.45L71.288,0ZM79.3-7.168v.546a3.2,3.2,0,0,0-2.058-.714,3.6,3.6,0,0,0-3.57,3.752A3.6,3.6,0,0,0,77.238.168,3.2,3.2,0,0,0,79.3-.546V0h1.68V-7.168Zm-1.806,5.8a2.078,2.078,0,0,1-2.114-2.212,2.067,2.067,0,0,1,2.114-2.2,2.315,2.315,0,0,1,1.806.826v2.744A2.329,2.329,0,0,1,77.49-1.372ZM91.5-7.336a3.576,3.576,0,0,0-2.562,1.148A2.388,2.388,0,0,0,86.8-7.336a3.3,3.3,0,0,0-2.114.784v-.616h-1.68V0h1.68V-4.928a2.314,2.314,0,0,1,1.68-.854c.8,0,1.344.574,1.344,1.778V0h1.68V-4.368c0-.182-.014-.35-.028-.518a2.26,2.26,0,0,1,1.708-.9c.8,0,1.344.574,1.344,1.778V0h1.68V-4.368C94.094-6.258,93.03-7.336,91.5-7.336Zm8.288,0a3.116,3.116,0,0,0-2.072.728v-.56H96.04V3.052h1.68V-.56a3.116,3.116,0,0,0,2.072.728,3.6,3.6,0,0,0,3.556-3.752A3.6,3.6,0,0,0,99.792-7.336ZM99.54-1.372a2.336,2.336,0,0,1-1.82-.84V-4.956a2.323,2.323,0,0,1,1.82-.826,2.056,2.056,0,0,1,2.1,2.2A2.068,2.068,0,0,1,99.54-1.372ZM104.944,0h1.68V-10.332h-1.68ZM115.6-3.794a3.354,3.354,0,0,0-3.556-3.542,3.684,3.684,0,0,0-3.836,3.808,3.577,3.577,0,0,0,3.85,3.7A3.966,3.966,0,0,0,115.374-1.4L114.2-2.3a2.6,2.6,0,0,1-2.114,1.022,2.019,2.019,0,0,1-2.2-1.89h5.67A4.608,4.608,0,0,0,115.6-3.794Zm-3.57-2.128a1.719,1.719,0,0,1,1.876,1.5H109.97A1.971,1.971,0,0,1,112.028-5.922ZM117.782.112a1.111,1.111,0,0,0,1.148-1.148,1.119,1.119,0,0,0-1.148-1.148,1.119,1.119,0,0,0-1.148,1.148A1.111,1.111,0,0,0,117.782.112Zm5.936.056a3.806,3.806,0,0,0,3.248-1.68L125.72-2.45a2.446,2.446,0,0,1-1.974,1.078,2.08,2.08,0,0,1-2.086-2.212,2.066,2.066,0,0,1,2.072-2.2,2.206,2.206,0,0,1,1.834,1.022L126.882-5.8a3.785,3.785,0,0,0-3.136-1.54,3.706,3.706,0,0,0-3.808,3.794A3.623,3.623,0,0,0,123.718.168Zm7.952,0a3.668,3.668,0,0,0,3.794-3.752,3.66,3.66,0,0,0-3.794-3.752,3.672,3.672,0,0,0-3.808,3.752A3.68,3.68,0,0,0,131.67.168Zm0-1.54a2.075,2.075,0,0,1-2.1-2.212,2.064,2.064,0,0,1,2.1-2.2,2.061,2.061,0,0,1,2.086,2.2A2.072,2.072,0,0,1,131.67-1.372Zm13.874-5.964a3.576,3.576,0,0,0-2.562,1.148,2.388,2.388,0,0,0-2.142-1.148,3.3,3.3,0,0,0-2.114.784v-.616h-1.68V0h1.68V-4.928a2.314,2.314,0,0,1,1.68-.854c.8,0,1.344.574,1.344,1.778V0h1.68V-4.368c0-.182-.014-.35-.028-.518a2.26,2.26,0,0,1,1.708-.9c.8,0,1.344.574,1.344,1.778V0h1.68V-4.368C148.134-6.258,147.07-7.336,145.544-7.336Z" transform="translate(92 64)" fill="#515e81"/>
              <path id="Path_724" data-name="Path 724" d="M7.966-3.794A3.354,3.354,0,0,0,4.41-7.336,3.684,3.684,0,0,0,.574-3.528a3.577,3.577,0,0,0,3.85,3.7A3.966,3.966,0,0,0,7.742-1.4L6.566-2.3A2.6,2.6,0,0,1,4.452-1.274a2.019,2.019,0,0,1-2.2-1.89h5.67A4.608,4.608,0,0,0,7.966-3.794ZM4.4-5.922a1.719,1.719,0,0,1,1.876,1.5H2.338A1.971,1.971,0,0,1,4.4-5.922ZM18.074-7.336a3.576,3.576,0,0,0-2.562,1.148A2.388,2.388,0,0,0,13.37-7.336a3.3,3.3,0,0,0-2.114.784v-.616H9.576V0h1.68V-4.928a2.314,2.314,0,0,1,1.68-.854c.8,0,1.344.574,1.344,1.778V0h1.68V-4.368c0-.182-.014-.35-.028-.518a2.26,2.26,0,0,1,1.708-.9c.8,0,1.344.574,1.344,1.778V0h1.68V-4.368C20.664-6.258,19.6-7.336,18.074-7.336Zm9.73.168v.546a3.2,3.2,0,0,0-2.058-.714,3.6,3.6,0,0,0-3.57,3.752A3.6,3.6,0,0,0,25.746.168,3.2,3.2,0,0,0,27.8-.546V0h1.68V-7.168ZM26-1.372a2.078,2.078,0,0,1-2.114-2.212A2.067,2.067,0,0,1,26-5.782a2.315,2.315,0,0,1,1.806.826v2.744A2.329,2.329,0,0,1,26-1.372Zm6.37-6.748A1.067,1.067,0,0,0,33.432-9.2a1.073,1.073,0,0,0-1.064-1.064A1.088,1.088,0,0,0,31.276-9.2,1.082,1.082,0,0,0,32.368-8.12ZM31.514,0h1.68V-7.168h-1.68Zm3.7,0h1.68V-10.332H35.21Zm5.768-1.6L43.554-4c1.3-1.218,1.694-2.142,1.694-3.108A2.874,2.874,0,0,0,42.07-9.968,4.136,4.136,0,0,0,38.3-7.644l1.358.924a2.8,2.8,0,0,1,2.366-1.652,1.313,1.313,0,0,1,1.47,1.33c0,.63-.35,1.274-1.582,2.436l-3.458,3.22V0H45.4V-1.6ZM53.97-6.09v.364a2.353,2.353,0,0,0-1.47-.49A2.73,2.73,0,0,0,49.812-3.36,2.735,2.735,0,0,0,52.5-.518a2.672,2.672,0,0,0,1.848-.714,2.123,2.123,0,0,0,1.764.826c1.638,0,2.716-1.4,2.716-3.556a5.607,5.607,0,0,0-5.922-5.516,6.063,6.063,0,0,0-6.244,6.146c0,3.542,2.632,6.006,6.314,6.006a6.6,6.6,0,0,0,3.262-.784L55.65.7A5.474,5.474,0,0,1,53,1.316,4.506,4.506,0,0,1,48.16-3.36a4.554,4.554,0,0,1,4.76-4.746,4.163,4.163,0,0,1,4.48,4.3c0,1.428-.518,2.17-1.218,2.17-.462,0-.742-.308-.742-.91V-6.09ZM52.724-1.862A1.394,1.394,0,0,1,51.3-3.36a1.4,1.4,0,0,1,1.428-1.512,1.616,1.616,0,0,1,1.246.56v1.89A1.606,1.606,0,0,1,52.724-1.862ZM67.438-3.794a3.354,3.354,0,0,0-3.556-3.542,3.684,3.684,0,0,0-3.836,3.808A3.577,3.577,0,0,0,63.9.168,3.966,3.966,0,0,0,67.214-1.4l-1.176-.9a2.6,2.6,0,0,1-2.114,1.022,2.019,2.019,0,0,1-2.2-1.89H67.4A4.608,4.608,0,0,0,67.438-3.794Zm-3.57-2.128a1.719,1.719,0,0,1,1.876,1.5H61.81A1.971,1.971,0,0,1,63.868-5.922ZM75.292,0l-2.66-3.7L75.18-7.168H73.29l-1.68,2.31-1.666-2.31h-1.89L70.6-3.7,67.928,0h1.918L71.61-2.45,73.374,0Zm6.09-7.168v.546a3.2,3.2,0,0,0-2.058-.714,3.6,3.6,0,0,0-3.57,3.752A3.6,3.6,0,0,0,79.324.168a3.2,3.2,0,0,0,2.058-.714V0h1.68V-7.168Zm-1.806,5.8a2.078,2.078,0,0,1-2.114-2.212,2.067,2.067,0,0,1,2.114-2.2,2.315,2.315,0,0,1,1.806.826v2.744A2.329,2.329,0,0,1,79.576-1.372ZM93.59-7.336a3.576,3.576,0,0,0-2.562,1.148,2.388,2.388,0,0,0-2.142-1.148,3.3,3.3,0,0,0-2.114.784v-.616h-1.68V0h1.68V-4.928a2.314,2.314,0,0,1,1.68-.854c.8,0,1.344.574,1.344,1.778V0h1.68V-4.368c0-.182-.014-.35-.028-.518a2.26,2.26,0,0,1,1.708-.9c.8,0,1.344.574,1.344,1.778V0h1.68V-4.368C96.18-6.258,95.116-7.336,93.59-7.336Zm8.288,0a3.116,3.116,0,0,0-2.072.728v-.56h-1.68V3.052h1.68V-.56a3.116,3.116,0,0,0,2.072.728,3.6,3.6,0,0,0,3.556-3.752A3.6,3.6,0,0,0,101.878-7.336Zm-.252,5.964a2.336,2.336,0,0,1-1.82-.84V-4.956a2.323,2.323,0,0,1,1.82-.826,2.056,2.056,0,0,1,2.1,2.2A2.068,2.068,0,0,1,101.626-1.372ZM107.03,0h1.68V-10.332h-1.68Zm10.654-3.794a3.354,3.354,0,0,0-3.556-3.542,3.684,3.684,0,0,0-3.836,3.808,3.577,3.577,0,0,0,3.85,3.7A3.966,3.966,0,0,0,117.46-1.4l-1.176-.9a2.6,2.6,0,0,1-2.114,1.022,2.019,2.019,0,0,1-2.2-1.89h5.67A4.608,4.608,0,0,0,117.684-3.794Zm-3.57-2.128a1.719,1.719,0,0,1,1.876,1.5h-3.934A1.971,1.971,0,0,1,114.114-5.922ZM119.868.112a1.111,1.111,0,0,0,1.148-1.148,1.119,1.119,0,0,0-1.148-1.148,1.119,1.119,0,0,0-1.148,1.148A1.111,1.111,0,0,0,119.868.112ZM125.8.168a3.806,3.806,0,0,0,3.248-1.68l-1.246-.938a2.446,2.446,0,0,1-1.974,1.078,2.08,2.08,0,0,1-2.086-2.212,2.066,2.066,0,0,1,2.072-2.2,2.206,2.206,0,0,1,1.834,1.022L128.968-5.8a3.785,3.785,0,0,0-3.136-1.54,3.706,3.706,0,0,0-3.808,3.794A3.623,3.623,0,0,0,125.8.168Zm7.952,0a3.668,3.668,0,0,0,3.794-3.752,3.66,3.66,0,0,0-3.794-3.752,3.672,3.672,0,0,0-3.808,3.752A3.68,3.68,0,0,0,133.756.168Zm0-1.54a2.075,2.075,0,0,1-2.1-2.212,2.064,2.064,0,0,1,2.1-2.2,2.061,2.061,0,0,1,2.086,2.2A2.072,2.072,0,0,1,133.756-1.372ZM147.63-7.336a3.576,3.576,0,0,0-2.562,1.148,2.388,2.388,0,0,0-2.142-1.148,3.3,3.3,0,0,0-2.114.784v-.616h-1.68V0h1.68V-4.928a2.314,2.314,0,0,1,1.68-.854c.8,0,1.344.574,1.344,1.778V0h1.68V-4.368c0-.182-.014-.35-.028-.518a2.26,2.26,0,0,1,1.708-.9c.8,0,1.344.574,1.344,1.778V0h1.68V-4.368C150.22-6.258,149.156-7.336,147.63-7.336Z" transform="translate(92 102)" fill="#515e81"/>
              <path id="Path_725" data-name="Path 725" d="M7.966-3.794A3.354,3.354,0,0,0,4.41-7.336,3.684,3.684,0,0,0,.574-3.528a3.577,3.577,0,0,0,3.85,3.7A3.966,3.966,0,0,0,7.742-1.4L6.566-2.3A2.6,2.6,0,0,1,4.452-1.274a2.019,2.019,0,0,1-2.2-1.89h5.67A4.608,4.608,0,0,0,7.966-3.794ZM4.4-5.922a1.719,1.719,0,0,1,1.876,1.5H2.338A1.971,1.971,0,0,1,4.4-5.922ZM18.074-7.336a3.576,3.576,0,0,0-2.562,1.148A2.388,2.388,0,0,0,13.37-7.336a3.3,3.3,0,0,0-2.114.784v-.616H9.576V0h1.68V-4.928a2.314,2.314,0,0,1,1.68-.854c.8,0,1.344.574,1.344,1.778V0h1.68V-4.368c0-.182-.014-.35-.028-.518a2.26,2.26,0,0,1,1.708-.9c.8,0,1.344.574,1.344,1.778V0h1.68V-4.368C20.664-6.258,19.6-7.336,18.074-7.336Zm9.73.168v.546a3.2,3.2,0,0,0-2.058-.714,3.6,3.6,0,0,0-3.57,3.752A3.6,3.6,0,0,0,25.746.168,3.2,3.2,0,0,0,27.8-.546V0h1.68V-7.168ZM26-1.372a2.078,2.078,0,0,1-2.114-2.212A2.067,2.067,0,0,1,26-5.782a2.315,2.315,0,0,1,1.806.826v2.744A2.329,2.329,0,0,1,26-1.372Zm6.37-6.748A1.067,1.067,0,0,0,33.432-9.2a1.073,1.073,0,0,0-1.064-1.064A1.088,1.088,0,0,0,31.276-9.2,1.082,1.082,0,0,0,32.368-8.12ZM31.514,0h1.68V-7.168h-1.68Zm3.7,0h1.68V-10.332H35.21ZM43.5-5.012A2.19,2.19,0,0,0,45.08-7.238c0-1.624-1.232-2.73-3.29-2.73A4.188,4.188,0,0,0,38.3-8.3l1.134,1.078A2.907,2.907,0,0,1,41.706-8.4c1.078,0,1.638.56,1.638,1.288,0,.784-.63,1.344-1.848,1.344H40.418v1.554H41.3c1.484,0,2.184.546,2.184,1.386S42.812-1.4,41.65-1.4a3.439,3.439,0,0,1-2.422-1.05L38.192-1.232a4.669,4.669,0,0,0,3.5,1.4c2.2,0,3.528-1.19,3.528-2.828A2.339,2.339,0,0,0,43.5-5.012ZM53.774-6.09v.364a2.353,2.353,0,0,0-1.47-.49A2.73,2.73,0,0,0,49.616-3.36,2.735,2.735,0,0,0,52.3-.518a2.672,2.672,0,0,0,1.848-.714,2.123,2.123,0,0,0,1.764.826c1.638,0,2.716-1.4,2.716-3.556A5.607,5.607,0,0,0,52.71-9.478a6.063,6.063,0,0,0-6.244,6.146c0,3.542,2.632,6.006,6.314,6.006a6.6,6.6,0,0,0,3.262-.784L55.454.7a5.474,5.474,0,0,1-2.646.616A4.506,4.506,0,0,1,47.964-3.36a4.554,4.554,0,0,1,4.76-4.746,4.163,4.163,0,0,1,4.48,4.3c0,1.428-.518,2.17-1.218,2.17-.462,0-.742-.308-.742-.91V-6.09ZM52.528-1.862A1.394,1.394,0,0,1,51.1-3.36a1.4,1.4,0,0,1,1.428-1.512,1.616,1.616,0,0,1,1.246.56v1.89A1.606,1.606,0,0,1,52.528-1.862ZM67.242-3.794a3.354,3.354,0,0,0-3.556-3.542A3.684,3.684,0,0,0,59.85-3.528,3.577,3.577,0,0,0,63.7.168,3.966,3.966,0,0,0,67.018-1.4l-1.176-.9a2.6,2.6,0,0,1-2.114,1.022,2.019,2.019,0,0,1-2.2-1.89H67.2A4.608,4.608,0,0,0,67.242-3.794Zm-3.57-2.128a1.719,1.719,0,0,1,1.876,1.5H61.614A1.971,1.971,0,0,1,63.672-5.922ZM75.1,0l-2.66-3.7,2.548-3.472h-1.89l-1.68,2.31-1.666-2.31h-1.89L70.406-3.7,67.732,0H69.65l1.764-2.45L73.178,0Zm6.09-7.168v.546a3.2,3.2,0,0,0-2.058-.714,3.6,3.6,0,0,0-3.57,3.752A3.6,3.6,0,0,0,79.128.168a3.2,3.2,0,0,0,2.058-.714V0h1.68V-7.168Zm-1.806,5.8a2.078,2.078,0,0,1-2.114-2.212,2.067,2.067,0,0,1,2.114-2.2,2.315,2.315,0,0,1,1.806.826v2.744A2.329,2.329,0,0,1,79.38-1.372ZM93.394-7.336a3.576,3.576,0,0,0-2.562,1.148A2.388,2.388,0,0,0,88.69-7.336a3.3,3.3,0,0,0-2.114.784v-.616H84.9V0h1.68V-4.928a2.314,2.314,0,0,1,1.68-.854c.8,0,1.344.574,1.344,1.778V0h1.68V-4.368c0-.182-.014-.35-.028-.518a2.26,2.26,0,0,1,1.708-.9c.8,0,1.344.574,1.344,1.778V0h1.68V-4.368C95.984-6.258,94.92-7.336,93.394-7.336Zm8.288,0a3.116,3.116,0,0,0-2.072.728v-.56H97.93V3.052h1.68V-.56a3.116,3.116,0,0,0,2.072.728,3.6,3.6,0,0,0,3.556-3.752A3.6,3.6,0,0,0,101.682-7.336Zm-.252,5.964a2.336,2.336,0,0,1-1.82-.84V-4.956a2.323,2.323,0,0,1,1.82-.826,2.056,2.056,0,0,1,2.1,2.2A2.068,2.068,0,0,1,101.43-1.372ZM106.834,0h1.68V-10.332h-1.68Zm10.654-3.794a3.354,3.354,0,0,0-3.556-3.542A3.684,3.684,0,0,0,110.1-3.528a3.577,3.577,0,0,0,3.85,3.7A3.966,3.966,0,0,0,117.264-1.4l-1.176-.9a2.6,2.6,0,0,1-2.114,1.022,2.019,2.019,0,0,1-2.2-1.89h5.67A4.608,4.608,0,0,0,117.488-3.794Zm-3.57-2.128a1.719,1.719,0,0,1,1.876,1.5H111.86A1.971,1.971,0,0,1,113.918-5.922ZM119.672.112a1.111,1.111,0,0,0,1.148-1.148,1.119,1.119,0,0,0-1.148-1.148,1.119,1.119,0,0,0-1.148,1.148A1.111,1.111,0,0,0,119.672.112Zm5.936.056a3.806,3.806,0,0,0,3.248-1.68L127.61-2.45a2.446,2.446,0,0,1-1.974,1.078,2.08,2.08,0,0,1-2.086-2.212,2.066,2.066,0,0,1,2.072-2.2,2.206,2.206,0,0,1,1.834,1.022L128.772-5.8a3.785,3.785,0,0,0-3.136-1.54,3.706,3.706,0,0,0-3.808,3.794A3.623,3.623,0,0,0,125.608.168Zm7.952,0a3.668,3.668,0,0,0,3.794-3.752,3.66,3.66,0,0,0-3.794-3.752,3.672,3.672,0,0,0-3.808,3.752A3.68,3.68,0,0,0,133.56.168Zm0-1.54a2.075,2.075,0,0,1-2.1-2.212,2.064,2.064,0,0,1,2.1-2.2,2.061,2.061,0,0,1,2.086,2.2A2.072,2.072,0,0,1,133.56-1.372Zm13.874-5.964a3.576,3.576,0,0,0-2.562,1.148,2.388,2.388,0,0,0-2.142-1.148,3.3,3.3,0,0,0-2.114.784v-.616h-1.68V0h1.68V-4.928a2.314,2.314,0,0,1,1.68-.854c.8,0,1.344.574,1.344,1.778V0h1.68V-4.368c0-.182-.014-.35-.028-.518a2.26,2.26,0,0,1,1.708-.9c.8,0,1.344.574,1.344,1.778V0h1.68V-4.368C150.024-6.258,148.96-7.336,147.434-7.336Z" transform="translate(92 140)" fill="#515e81"/>
              <g id="Burger" transform="translate(222 -2)">
                <line id="Line_70" data-name="Line 70" x2="22" transform="translate(234 69)" fill="none" stroke="#515e81" stroke-linecap="round" stroke-width="4"/>
                <line id="Line_75" data-name="Line 75" x2="22" transform="translate(234 107)" fill="none" stroke="#515e81" stroke-linecap="round" stroke-width="4"/>
                <line id="Line_78" data-name="Line 78" x2="22" transform="translate(234 145)" fill="none" stroke="#515e81" stroke-linecap="round" stroke-width="4"/>
                <line id="Line_71" data-name="Line 71" x2="22" transform="translate(234 61)" fill="none" stroke="#515e81" stroke-linecap="round" stroke-width="4"/>
                <line id="Line_73" data-name="Line 73" x2="22" transform="translate(234 99)" fill="none" stroke="#515e81" stroke-linecap="round" stroke-width="4"/>
                <line id="Line_76" data-name="Line 76" x2="22" transform="translate(234 137)" fill="none" stroke="#515e81" stroke-linecap="round" stroke-width="4"/>
                <line id="Line_72" data-name="Line 72" x2="22" transform="translate(234 53)" fill="none" stroke="#515e81" stroke-linecap="round" stroke-width="4"/>
                <line id="Line_74" data-name="Line 74" x2="22" transform="translate(234 91)" fill="none" stroke="#515e81" stroke-linecap="round" stroke-width="4"/>
                <line id="Line_77" data-name="Line 77" x2="22" transform="translate(234 129)" fill="none" stroke="#515e81" stroke-linecap="round" stroke-width="4"/>
              </g>
              <path id="Path_732" data-name="Path 732" d="M1.25.625A1.876,1.876,0,0,0,3.125,2.5h11.25A1.876,1.876,0,0,0,16.25.625V-12.5h-15Zm10.625-10A.625.625,0,0,1,12.5-10a.625.625,0,0,1,.625.625v8.75A.625.625,0,0,1,12.5,0a.625.625,0,0,1-.625-.625Zm-3.75,0A.625.625,0,0,1,8.75-10a.625.625,0,0,1,.625.625v8.75A.625.625,0,0,1,8.75,0a.625.625,0,0,1-.625-.625Zm-3.75,0A.625.625,0,0,1,5-10a.625.625,0,0,1,.625.625v8.75A.625.625,0,0,1,5,0a.625.625,0,0,1-.625-.625Zm12.5-6.875H12.188l-.367-.73a.938.938,0,0,0-.84-.52s0,0,0,0H6.512a.925.925,0,0,0-.832.52l-.367.73H.625A.625.625,0,0,0,0-15.625v1.25a.625.625,0,0,0,.625.625h16.25a.625.625,0,0,0,.625-.625v-1.25A.625.625,0,0,0,16.875-16.25Z" transform="translate(426 66)" fill="#515e81"/>
              <path id="Path_733" data-name="Path 733" d="M1.25.625A1.876,1.876,0,0,0,3.125,2.5h11.25A1.876,1.876,0,0,0,16.25.625V-12.5h-15Zm10.625-10A.625.625,0,0,1,12.5-10a.625.625,0,0,1,.625.625v8.75A.625.625,0,0,1,12.5,0a.625.625,0,0,1-.625-.625Zm-3.75,0A.625.625,0,0,1,8.75-10a.625.625,0,0,1,.625.625v8.75A.625.625,0,0,1,8.75,0a.625.625,0,0,1-.625-.625Zm-3.75,0A.625.625,0,0,1,5-10a.625.625,0,0,1,.625.625v8.75A.625.625,0,0,1,5,0a.625.625,0,0,1-.625-.625Zm12.5-6.875H12.188l-.367-.73a.938.938,0,0,0-.84-.52s0,0,0,0H6.512a.925.925,0,0,0-.832.52l-.367.73H.625A.625.625,0,0,0,0-15.625v1.25a.625.625,0,0,0,.625.625h16.25a.625.625,0,0,0,.625-.625v-1.25A.625.625,0,0,0,16.875-16.25Z" transform="translate(426 104)" fill="#515e81"/>
              <path id="Path_734" data-name="Path 734" d="M1.25.625A1.876,1.876,0,0,0,3.125,2.5h11.25A1.876,1.876,0,0,0,16.25.625V-12.5h-15Zm10.625-10A.625.625,0,0,1,12.5-10a.625.625,0,0,1,.625.625v8.75A.625.625,0,0,1,12.5,0a.625.625,0,0,1-.625-.625Zm-3.75,0A.625.625,0,0,1,8.75-10a.625.625,0,0,1,.625.625v8.75A.625.625,0,0,1,8.75,0a.625.625,0,0,1-.625-.625Zm-3.75,0A.625.625,0,0,1,5-10a.625.625,0,0,1,.625.625v8.75A.625.625,0,0,1,5,0a.625.625,0,0,1-.625-.625Zm12.5-6.875H12.188l-.367-.73a.938.938,0,0,0-.84-.52s0,0,0,0H6.512a.925.925,0,0,0-.832.52l-.367.73H.625A.625.625,0,0,0,0-15.625v1.25a.625.625,0,0,0,.625.625h16.25a.625.625,0,0,0,.625-.625v-1.25A.625.625,0,0,0,16.875-16.25Z" transform="translate(426 142)" fill="#515e81"/>
            </g>
          </g>
        </g>
      </g>
    </g>
    <g id="Image-2" data-name="Image" transform="translate(359 41)">
      <g id="Icon-2" data-name="Icon" transform="translate(13 1228)">
        <g id="Login_Screen-2" data-name="Login Screen" transform="translate(58 -123)">
          <g transform="matrix(1, 0, 0, 1, -10, 1645)" filter="url(#Rectangle_436-2)">
            <rect id="Rectangle_436-5" data-name="Rectangle 436" width="286" height="129" rx="10" transform="translate(344 25)" fill="#fff"/>
          </g>
          <g id="Height-2" data-name="Height" transform="translate(0 -1)">
            <g id="radio-2" data-name="radio" transform="translate(-174.558 40)">
              <g id="Rectangle_535-2" data-name="Rectangle 535" transform="translate(533.558 1690)" fill="rgba(60,80,224,0.03)" stroke="rgba(60,80,224,0.4)" stroke-width="2">
                <rect width="236" height="40" rx="5" stroke="none"/>
                <rect x="1" y="1" width="234" height="38" rx="4" fill="none"/>
              </g>
              <path id="Path_717" data-name="Path 717" d="M5.628-1.6a3.76,3.76,0,0,1-1.092.2c-.826,0-1.218-.434-1.218-1.442V-5.7H5.6v-1.47H3.318V-8.876H1.638v1.708H.168V-5.7h1.47v3.052C1.638-.728,2.52.14,4.228.14A3.934,3.934,0,0,0,5.866-.182Zm6.916-5.572L10.528-2.254l-2.1-4.914H6.51L9.66-.14,8.344,3.052H10.15l4.214-10.22Zm6.706-.168a3.116,3.116,0,0,0-2.072.728v-.56H15.5V3.052h1.68V-.56A3.116,3.116,0,0,0,19.25.168a3.6,3.6,0,0,0,3.556-3.752A3.6,3.6,0,0,0,19.25-7.336ZM19-1.372a2.336,2.336,0,0,1-1.82-.84V-4.956A2.323,2.323,0,0,1,19-5.782a2.056,2.056,0,0,1,2.1,2.2A2.068,2.068,0,0,1,19-1.372ZM25.256-8.12A1.067,1.067,0,0,0,26.32-9.2a1.073,1.073,0,0,0-1.064-1.064A1.088,1.088,0,0,0,24.164-9.2,1.082,1.082,0,0,0,25.256-8.12ZM24.4,0h1.68V-7.168H24.4Zm7.56-7.336a3.431,3.431,0,0,0-2.184.77v-.6H28.1V0h1.68V-4.942a2.3,2.3,0,0,1,1.764-.84c.938,0,1.526.616,1.526,1.848V0h1.68V-4.3A2.713,2.713,0,0,0,31.962-7.336Zm9.926.168v.56a3.143,3.143,0,0,0-2.072-.728A3.566,3.566,0,0,0,36.26-3.682,3.538,3.538,0,0,0,39.816-.07a3.132,3.132,0,0,0,2.072-.714v.6a1.793,1.793,0,0,1-2.03,1.862A3.74,3.74,0,0,1,37.408.658L36.4,1.89a4.938,4.938,0,0,0,3.486,1.33c2.268,0,3.682-1.274,3.682-3.4V-7.168ZM40.054-1.582a2.026,2.026,0,0,1-2.086-2.1A2.03,2.03,0,0,1,40.054-5.8a2.406,2.406,0,0,1,1.834.84v2.534A2.406,2.406,0,0,1,40.054-1.582ZM53.872-7.168V-2.24a2.268,2.268,0,0,1-1.764.868c-.952,0-1.484-.6-1.484-1.792v-4h-1.68V-2.8A2.637,2.637,0,0,0,51.674.168a3.364,3.364,0,0,0,2.2-.77V0h1.68V-7.168ZM60.256.168c1.876,0,2.954-.924,2.954-2.324,0-1.022-.588-1.68-2.044-2.016L59.92-4.466c-.77-.182-.994-.378-.994-.7,0-.434.392-.728,1.148-.728a3.416,3.416,0,0,1,2.128.8l.91-1.19a4.4,4.4,0,0,0-2.968-1.05c-1.778,0-2.87.924-2.87,2.282,0,.994.588,1.624,2.03,1.96L60.55-2.8c.742.168.994.42.994.756,0,.448-.448.77-1.232.77a3.953,3.953,0,0,1-2.366-.868l-.868,1.26A5.036,5.036,0,0,0,60.256.168ZM71.708-3.794a3.354,3.354,0,0,0-3.556-3.542,3.684,3.684,0,0,0-3.836,3.808,3.577,3.577,0,0,0,3.85,3.7A3.966,3.966,0,0,0,71.484-1.4l-1.176-.9a2.6,2.6,0,0,1-2.114,1.022A2.019,2.019,0,0,1,66-3.164h5.67A4.608,4.608,0,0,0,71.708-3.794Zm-3.57-2.128a1.719,1.719,0,0,1,1.876,1.5H66.08A1.971,1.971,0,0,1,68.138-5.922Zm8.848-1.414A2.51,2.51,0,0,0,75-6.4v-.77h-1.68V0H75V-4.662a2.238,2.238,0,0,1,1.974-1.092,3.907,3.907,0,0,1,.658.07l.1-1.554A2.927,2.927,0,0,0,76.986-7.336Zm5.866,0a3.431,3.431,0,0,0-2.184.77v-.6h-1.68V0h1.68V-4.942a2.3,2.3,0,0,1,1.764-.84c.938,0,1.526.616,1.526,1.848V0h1.68V-4.3A2.713,2.713,0,0,0,82.852-7.336Zm9.926.168v.546a3.2,3.2,0,0,0-2.058-.714,3.6,3.6,0,0,0-3.57,3.752A3.6,3.6,0,0,0,90.72.168a3.2,3.2,0,0,0,2.058-.714V0h1.68V-7.168Zm-1.806,5.8a2.078,2.078,0,0,1-2.114-2.212,2.067,2.067,0,0,1,2.114-2.2,2.315,2.315,0,0,1,1.806.826v2.744A2.329,2.329,0,0,1,90.972-1.372Zm14.014-5.964a3.576,3.576,0,0,0-2.562,1.148,2.388,2.388,0,0,0-2.142-1.148,3.3,3.3,0,0,0-2.114.784v-.616h-1.68V0h1.68V-4.928a2.314,2.314,0,0,1,1.68-.854c.8,0,1.344.574,1.344,1.778V0h1.68V-4.368c0-.182-.014-.35-.028-.518a2.26,2.26,0,0,1,1.708-.9c.8,0,1.344.574,1.344,1.778V0h1.68V-4.368C107.576-6.258,106.512-7.336,104.986-7.336ZM116.48-3.794a3.354,3.354,0,0,0-3.556-3.542,3.684,3.684,0,0,0-3.836,3.808,3.577,3.577,0,0,0,3.85,3.7A3.966,3.966,0,0,0,116.256-1.4l-1.176-.9a2.6,2.6,0,0,1-2.114,1.022,2.019,2.019,0,0,1-2.2-1.89h5.67A4.608,4.608,0,0,0,116.48-3.794Zm-3.57-2.128a1.719,1.719,0,0,1,1.876,1.5h-3.934A1.971,1.971,0,0,1,112.91-5.922ZM118.664.112a1.111,1.111,0,0,0,1.148-1.148,1.119,1.119,0,0,0-1.148-1.148,1.119,1.119,0,0,0-1.148,1.148A1.111,1.111,0,0,0,118.664.112Zm3.388,0A1.111,1.111,0,0,0,123.2-1.036a1.119,1.119,0,0,0-1.148-1.148A1.119,1.119,0,0,0,120.9-1.036,1.111,1.111,0,0,0,122.052.112Zm3.388,0a1.111,1.111,0,0,0,1.148-1.148,1.119,1.119,0,0,0-1.148-1.148,1.119,1.119,0,0,0-1.148,1.148A1.111,1.111,0,0,0,125.44.112Z" transform="translate(548.559 1714)" fill="#07003b" opacity="0.3"/>
            </g>
            <path id="Path_716" data-name="Path 716" d="M4.3.168c2.324,0,3.71-1.232,3.71-3.066,0-1.372-.8-2.24-2.394-2.632L3.892-5.936c-1.12-.266-1.5-.644-1.5-1.2,0-.7.63-1.232,1.792-1.232A3.545,3.545,0,0,1,6.65-7.364L7.8-8.6A5.134,5.134,0,0,0,4.214-9.968c-2.184,0-3.6,1.232-3.6,2.94,0,1.3.854,2.2,2.408,2.576l1.722.406c1.064.252,1.47.672,1.47,1.274,0,.77-.672,1.33-1.862,1.33a4.847,4.847,0,0,1-2.9-1.078L.434-1.134A6.158,6.158,0,0,0,4.3.168ZM16.674-3.794a3.354,3.354,0,0,0-3.556-3.542A3.684,3.684,0,0,0,9.282-3.528a3.577,3.577,0,0,0,3.85,3.7A3.966,3.966,0,0,0,16.45-1.4l-1.176-.9A2.6,2.6,0,0,1,13.16-1.274a2.019,2.019,0,0,1-2.2-1.89h5.67A4.608,4.608,0,0,0,16.674-3.794ZM13.1-5.922a1.719,1.719,0,0,1,1.876,1.5H11.046A1.971,1.971,0,0,1,13.1-5.922ZM23.478-7.168v.546a3.2,3.2,0,0,0-2.058-.714,3.6,3.6,0,0,0-3.57,3.752A3.6,3.6,0,0,0,21.42.168a3.2,3.2,0,0,0,2.058-.714V0h1.68V-7.168Zm-1.806,5.8a2.078,2.078,0,0,1-2.114-2.212,2.067,2.067,0,0,1,2.114-2.2,2.315,2.315,0,0,1,1.806.826v2.744A2.329,2.329,0,0,1,21.672-1.372Zm9.184-5.964a2.51,2.51,0,0,0-1.988.938v-.77h-1.68V0h1.68V-4.662a2.238,2.238,0,0,1,1.974-1.092,3.907,3.907,0,0,1,.658.07l.1-1.554A2.927,2.927,0,0,0,30.856-7.336Zm5.166,7.5a3.806,3.806,0,0,0,3.248-1.68L38.024-2.45A2.446,2.446,0,0,1,36.05-1.372a2.08,2.08,0,0,1-2.086-2.212,2.066,2.066,0,0,1,2.072-2.2A2.206,2.206,0,0,1,37.87-4.76L39.186-5.8a3.785,3.785,0,0,0-3.136-1.54,3.706,3.706,0,0,0-3.808,3.794A3.623,3.623,0,0,0,36.022.168Zm8.414-7.5a3.431,3.431,0,0,0-2.184.77v-3.766h-1.68V0h1.68V-4.942a2.3,2.3,0,0,1,1.764-.84c.938,0,1.526.616,1.526,1.848V0h1.68V-4.3A2.713,2.713,0,0,0,44.436-7.336Zm12.32,7.5a3.745,3.745,0,0,0,4.1-4.088V-9.8H59.08v5.7c0,1.764-.854,2.6-2.324,2.6s-2.338-.84-2.338-2.6V-9.8H52.654v5.88A3.739,3.739,0,0,0,56.756.168Zm9,0c1.876,0,2.954-.924,2.954-2.324,0-1.022-.588-1.68-2.044-2.016l-1.246-.294c-.77-.182-.994-.378-.994-.7,0-.434.392-.728,1.148-.728a3.416,3.416,0,0,1,2.128.8l.91-1.19a4.4,4.4,0,0,0-2.968-1.05c-1.778,0-2.87.924-2.87,2.282,0,.994.588,1.624,2.03,1.96l1.246.294c.742.168.994.42.994.756,0,.448-.448.77-1.232.77a3.953,3.953,0,0,1-2.366-.868L62.58-.882A5.036,5.036,0,0,0,65.758.168ZM77.21-3.794a3.354,3.354,0,0,0-3.556-3.542,3.684,3.684,0,0,0-3.836,3.808,3.577,3.577,0,0,0,3.85,3.7A3.966,3.966,0,0,0,76.986-1.4L75.81-2.3A2.6,2.6,0,0,1,73.7-1.274a2.019,2.019,0,0,1-2.2-1.89h5.67A4.608,4.608,0,0,0,77.21-3.794ZM73.64-5.922a1.719,1.719,0,0,1,1.876,1.5H71.582A1.971,1.971,0,0,1,73.64-5.922Zm8.848-1.414A2.51,2.51,0,0,0,80.5-6.4v-.77H78.82V0H80.5V-4.662a2.238,2.238,0,0,1,1.974-1.092,3.907,3.907,0,0,1,.658.07l.1-1.554A2.927,2.927,0,0,0,82.488-7.336Zm5.866,0a3.431,3.431,0,0,0-2.184.77v-.6H84.49V0h1.68V-4.942a2.3,2.3,0,0,1,1.764-.84c.938,0,1.526.616,1.526,1.848V0h1.68V-4.3A2.713,2.713,0,0,0,88.354-7.336Zm9.926.168v.546a3.2,3.2,0,0,0-2.058-.714,3.6,3.6,0,0,0-3.57,3.752A3.6,3.6,0,0,0,96.222.168,3.2,3.2,0,0,0,98.28-.546V0h1.68V-7.168Zm-1.806,5.8A2.078,2.078,0,0,1,94.36-3.584a2.067,2.067,0,0,1,2.114-2.2,2.315,2.315,0,0,1,1.806.826v2.744A2.329,2.329,0,0,1,96.474-1.372Zm14.014-5.964a3.576,3.576,0,0,0-2.562,1.148,2.388,2.388,0,0,0-2.142-1.148,3.3,3.3,0,0,0-2.114.784v-.616h-1.68V0h1.68V-4.928a2.314,2.314,0,0,1,1.68-.854c.8,0,1.344.574,1.344,1.778V0h1.68V-4.368c0-.182-.014-.35-.028-.518a2.26,2.26,0,0,1,1.708-.9c.8,0,1.344.574,1.344,1.778V0h1.68V-4.368C113.078-6.258,112.014-7.336,110.488-7.336Zm11.494,3.542a3.354,3.354,0,0,0-3.556-3.542,3.684,3.684,0,0,0-3.836,3.808,3.577,3.577,0,0,0,3.85,3.7A3.966,3.966,0,0,0,121.758-1.4l-1.176-.9a2.6,2.6,0,0,1-2.114,1.022,2.019,2.019,0,0,1-2.2-1.89h5.67A4.608,4.608,0,0,0,121.982-3.794Zm-3.57-2.128a1.719,1.719,0,0,1,1.876,1.5h-3.934A1.971,1.971,0,0,1,118.412-5.922Z" transform="translate(359 1712)" fill="#07003b"/>
          </g>
        </g>
      </g>
    </g>
    <g id="Image-3" data-name="Image" transform="translate(136 380)">
      <g id="Icon-3" data-name="Icon" transform="translate(13 1228)">
        <g id="Login_Screen-3" data-name="Login Screen" transform="translate(392 1547)">
          <g transform="matrix(1, 0, 0, 1, -121, -364)" filter="url(#Rectangle_436-3)">
            <rect id="Rectangle_436-6" data-name="Rectangle 436" width="239" height="143" rx="10" transform="translate(168 364)" fill="#fff"/>
          </g>
          <g id="Rectangle_681" data-name="Rectangle 681" transform="translate(71 30)" fill="rgba(60,80,224,0.05)" stroke="#aeb6f3" stroke-width="2">
            <rect width="190" height="63" stroke="none"/>
            <rect x="1" y="1" width="188" height="61" fill="none"/>
          </g>
          <g id="Burger-2" data-name="Burger" transform="translate(-24 2)">
            <line id="Line_70-2" data-name="Line 70" x2="28" transform="translate(232 70)" fill="none" stroke="#515e81" stroke-linecap="round" stroke-width="4"/>
            <line id="Line_71-2" data-name="Line 71" x2="28" transform="translate(232 60)" fill="none" stroke="#515e81" stroke-linecap="round" stroke-width="4"/>
            <line id="Line_72-2" data-name="Line 72" x2="28" transform="translate(232 50)" fill="none" stroke="#515e81" stroke-linecap="round" stroke-width="4"/>
          </g>
          <g transform="matrix(1, 0, 0, 1, -121, -364)" filter="url(#Rectangle_682)">
            <rect id="Rectangle_682-2" data-name="Rectangle 682" width="171" height="174" rx="10" transform="translate(139 402)" fill="#fff"/>
          </g>
          <rect id="Rectangle_683" data-name="Rectangle 683" width="14" height="14" rx="2" transform="translate(187.586 52.242) rotate(45)" fill="#fff"/>
          <path id="Path_731" data-name="Path 731" d="M7.868-9.8v6.9L2.982-9.8H1.176V0H2.94V-6.916L7.826,0H9.632V-9.8ZM18.774-3.794a3.354,3.354,0,0,0-3.556-3.542,3.684,3.684,0,0,0-3.836,3.808,3.577,3.577,0,0,0,3.85,3.7A3.966,3.966,0,0,0,18.55-1.4l-1.176-.9A2.6,2.6,0,0,1,15.26-1.274a2.019,2.019,0,0,1-2.2-1.89h5.67A4.608,4.608,0,0,0,18.774-3.794ZM15.2-5.922a1.719,1.719,0,0,1,1.876,1.5H13.146A1.971,1.971,0,0,1,15.2-5.922ZM29.54-7.168l-1.6,4.9-1.778-4.9H24.584L22.806-2.24l-1.6-4.928H19.432L21.84,0h1.736l1.806-5.012L27.188,0H28.91l2.422-7.168ZM2.94,28.348V20.2H1.176V30H7.644V28.348ZM10,21.88a1.071,1.071,0,0,0,0-2.142,1.071,1.071,0,1,0,0,2.142ZM9.142,30h1.68V22.832H9.142Zm7.56-7.336a3.431,3.431,0,0,0-2.184.77v-.6h-1.68V30h1.68V25.058a2.3,2.3,0,0,1,1.764-.84c.938,0,1.526.616,1.526,1.848V30h1.68V25.7A2.713,2.713,0,0,0,16.7,22.664ZM26.642,30h2.114L25.4,25.926l3.164-3.094H26.418L23.114,26V19.668h-1.68V30h1.68V28.138l1.106-1.064Zm9.982-9.8H33.46V30h3.164a4.689,4.689,0,0,0,5.04-4.9A4.689,4.689,0,0,0,36.624,20.2Zm-.084,8.148H35.224v-6.5H36.54a2.991,2.991,0,0,1,3.3,3.248A2.991,2.991,0,0,1,36.54,28.348Zm11.634-5.516V27.76a2.268,2.268,0,0,1-1.764.868c-.952,0-1.484-.6-1.484-1.792v-4h-1.68V27.2a2.637,2.637,0,0,0,2.73,2.968,3.364,3.364,0,0,0,2.2-.77V30h1.68V22.832Zm7.364-.168a2.51,2.51,0,0,0-1.988.938v-.77H51.87V30h1.68V25.338a2.238,2.238,0,0,1,1.974-1.092,3.907,3.907,0,0,1,.658.07l.1-1.554A2.927,2.927,0,0,0,55.538,22.664Zm7.014.168v.546a3.2,3.2,0,0,0-2.058-.714,3.6,3.6,0,0,0-3.57,3.752,3.6,3.6,0,0,0,3.57,3.752,3.2,3.2,0,0,0,2.058-.714V30h1.68V22.832Zm-1.806,5.8a2.078,2.078,0,0,1-2.114-2.212,2.067,2.067,0,0,1,2.114-2.2,2.315,2.315,0,0,1,1.806.826v2.744A2.329,2.329,0,0,1,60.746,28.628ZM70.882,28.4a3.76,3.76,0,0,1-1.092.2c-.826,0-1.218-.434-1.218-1.442V24.3h2.282v-1.47H68.572V21.124h-1.68v1.708h-1.47V24.3h1.47v3.052c0,1.918.882,2.786,2.59,2.786a3.934,3.934,0,0,0,1.638-.322Zm2.436-6.524a1.071,1.071,0,0,0,0-2.142,1.071,1.071,0,1,0,0,2.142ZM72.464,30h1.68V22.832h-1.68Zm7.07.168a3.752,3.752,0,1,0-3.808-3.752A3.668,3.668,0,0,0,79.534,30.168Zm0-1.54a2.075,2.075,0,0,1-2.1-2.212,2.1,2.1,0,1,1,4.186,0A2.072,2.072,0,0,1,79.534,28.628Zm9.24-5.964a3.431,3.431,0,0,0-2.184.77v-.6H84.91V30h1.68V25.058a2.3,2.3,0,0,1,1.764-.84c.938,0,1.526.616,1.526,1.848V30h1.68V25.7A2.713,2.713,0,0,0,88.774,22.664ZM4.34,50.2H1.176V60H4.34a4.9,4.9,0,1,0,0-9.8Zm-.084,8.148H2.94v-6.5H4.256a3.248,3.248,0,1,1,0,6.5Zm7.63-6.468a1.071,1.071,0,0,0,0-2.142,1.071,1.071,0,1,0,0,2.142ZM11.032,60h1.68V52.832h-1.68Zm6.384.168c1.876,0,2.954-.924,2.954-2.324,0-1.022-.588-1.68-2.044-2.016l-1.246-.294c-.77-.182-.994-.378-.994-.7,0-.434.392-.728,1.148-.728a3.416,3.416,0,0,1,2.128.8l.91-1.19a4.4,4.4,0,0,0-2.968-1.05c-1.778,0-2.87.924-2.87,2.282,0,.994.588,1.624,2.03,1.96l1.246.294c.742.168.994.42.994.756,0,.448-.448.77-1.232.77a3.953,3.953,0,0,1-2.366-.868l-.868,1.26A5.036,5.036,0,0,0,17.416,60.168ZM27.1,52.832v.546a3.2,3.2,0,0,0-2.058-.714,3.757,3.757,0,0,0,0,7.5,3.2,3.2,0,0,0,2.058-.714V60h1.68V52.832Zm-1.806,5.8a2.207,2.207,0,0,1,0-4.41,2.315,2.315,0,0,1,1.806.826v2.744A2.329,2.329,0,0,1,25.3,58.628Zm9.268-5.964a3.2,3.2,0,0,0-2.058.714v-3.71h-1.68V60h1.68v-.546a3.2,3.2,0,0,0,2.058.714,3.757,3.757,0,0,0,0-7.5Zm-.252,5.964a2.329,2.329,0,0,1-1.806-.84V55.044a2.315,2.315,0,0,1,1.806-.826,2.207,2.207,0,0,1,0,4.41ZM39.718,60H41.4V49.668h-1.68Zm10.654-3.794a3.354,3.354,0,0,0-3.556-3.542,3.684,3.684,0,0,0-3.836,3.808,3.577,3.577,0,0,0,3.85,3.7A3.966,3.966,0,0,0,50.148,58.6l-1.176-.9a2.6,2.6,0,0,1-2.114,1.022,2.019,2.019,0,0,1-2.2-1.89h5.67A4.608,4.608,0,0,0,50.372,56.206ZM46.8,54.078a1.719,1.719,0,0,1,1.876,1.5H44.744A1.971,1.971,0,0,1,46.8,54.078ZM10.15,80.2,6.762,87.452,3.36,80.2H1.176V90H2.912V83.028L6.048,89.72H7.462l3.122-6.664V90h1.75V80.2Zm9.226,2.632V87.76a2.268,2.268,0,0,1-1.764.868c-.952,0-1.484-.6-1.484-1.792v-4h-1.68V87.2a2.637,2.637,0,0,0,2.73,2.968,3.364,3.364,0,0,0,2.2-.77V90h1.68V82.832ZM23.072,90h1.68V79.668h-1.68Zm8.316-1.6a3.76,3.76,0,0,1-1.092.2c-.826,0-1.218-.434-1.218-1.442V84.3H31.36v-1.47H29.078V81.124H27.4v1.708h-1.47V84.3H27.4v3.052c0,1.918.882,2.786,2.59,2.786a3.934,3.934,0,0,0,1.638-.322Zm2.436-6.524a1.071,1.071,0,0,0,0-2.142,1.071,1.071,0,1,0,0,2.142ZM32.97,90h1.68V82.832H32.97Zm7.448-7.336a3.116,3.116,0,0,0-2.072.728v-.56h-1.68v10.22h1.68V89.44a3.116,3.116,0,0,0,2.072.728,3.757,3.757,0,0,0,0-7.5Zm-.252,5.964a2.336,2.336,0,0,1-1.82-.84V85.044a2.323,2.323,0,0,1,1.82-.826,2.208,2.208,0,0,1,0,4.41ZM45.57,90h1.68V79.668H45.57Zm10.654-3.794a3.354,3.354,0,0,0-3.556-3.542,3.684,3.684,0,0,0-3.836,3.808,3.577,3.577,0,0,0,3.85,3.7A3.966,3.966,0,0,0,56,88.6l-1.176-.9a2.6,2.6,0,0,1-2.114,1.022,2.019,2.019,0,0,1-2.2-1.89h5.67A4.608,4.608,0,0,0,56.224,86.206Zm-3.57-2.128a1.719,1.719,0,0,1,1.876,1.5H50.6A1.971,1.971,0,0,1,52.654,84.078Zm12.768,6.09a3.745,3.745,0,0,0,4.1-4.088V80.2H67.746v5.7c0,1.764-.854,2.6-2.324,2.6s-2.338-.84-2.338-2.6V80.2H61.32v5.88A3.739,3.739,0,0,0,65.422,90.168Zm9,0c1.876,0,2.954-.924,2.954-2.324,0-1.022-.588-1.68-2.044-2.016l-1.246-.294c-.77-.182-.994-.378-.994-.7,0-.434.392-.728,1.148-.728a3.416,3.416,0,0,1,2.128.8l.91-1.19a4.4,4.4,0,0,0-2.968-1.05c-1.778,0-2.87.924-2.87,2.282,0,.994.588,1.624,2.03,1.96l1.246.294c.742.168.994.42.994.756,0,.448-.448.77-1.232.77a3.953,3.953,0,0,1-2.366-.868l-.868,1.26A5.036,5.036,0,0,0,74.424,90.168Zm11.452-3.962a3.354,3.354,0,0,0-3.556-3.542,3.684,3.684,0,0,0-3.836,3.808,3.577,3.577,0,0,0,3.85,3.7A3.966,3.966,0,0,0,85.652,88.6l-1.176-.9a2.6,2.6,0,0,1-2.114,1.022,2.019,2.019,0,0,1-2.2-1.89h5.67A4.608,4.608,0,0,0,85.876,86.206Zm-3.57-2.128a1.719,1.719,0,0,1,1.876,1.5H80.248A1.971,1.971,0,0,1,82.306,84.078Zm8.848-1.414a2.51,2.51,0,0,0-1.988.938v-.77h-1.68V90h1.68V85.338a2.238,2.238,0,0,1,1.974-1.092,3.907,3.907,0,0,1,.658.07l.1-1.554A2.927,2.927,0,0,0,91.154,82.664Zm4.746,7.5c1.876,0,2.954-.924,2.954-2.324,0-1.022-.588-1.68-2.044-2.016l-1.246-.294c-.77-.182-.994-.378-.994-.7,0-.434.392-.728,1.148-.728a3.416,3.416,0,0,1,2.128.8l.91-1.19a4.4,4.4,0,0,0-2.968-1.05c-1.778,0-2.87.924-2.87,2.282,0,.994.588,1.624,2.03,1.96l1.246.294c.742.168.994.42.994.756,0,.448-.448.77-1.232.77a3.953,3.953,0,0,1-2.366-.868l-.868,1.26A5.036,5.036,0,0,0,95.9,90.168ZM8.05,111.838V110.2H1.176V120H8.05v-1.638H2.94V115.73H7.392v-1.624H2.94v-2.268Zm10.332.826a3.576,3.576,0,0,0-2.562,1.148,2.388,2.388,0,0,0-2.142-1.148,3.3,3.3,0,0,0-2.114.784v-.616H9.884V120h1.68v-4.928a2.314,2.314,0,0,1,1.68-.854c.8,0,1.344.574,1.344,1.778v4h1.68v-4.368c0-.182-.014-.35-.028-.518a2.26,2.26,0,0,1,1.708-.9c.8,0,1.344.574,1.344,1.778v4h1.68v-4.368C20.972,113.742,19.908,112.664,18.382,112.664Zm9.73.168v.546a3.2,3.2,0,0,0-2.058-.714,3.757,3.757,0,0,0,0,7.5,3.2,3.2,0,0,0,2.058-.714V120h1.68v-7.168Zm-1.806,5.8a2.207,2.207,0,0,1,0-4.41,2.315,2.315,0,0,1,1.806.826v2.744A2.329,2.329,0,0,1,26.306,118.628Zm6.37-6.748a1.071,1.071,0,0,0,0-2.142,1.071,1.071,0,1,0,0,2.142ZM31.822,120H33.5v-7.168h-1.68Zm3.7,0H37.2V109.668h-1.68Zm11.284.168a3.745,3.745,0,0,0,4.1-4.088V110.2H49.126v5.7c0,1.764-.854,2.6-2.324,2.6s-2.338-.84-2.338-2.6v-5.7H42.7v5.88A3.739,3.739,0,0,0,46.8,120.168Zm9,0c1.876,0,2.954-.924,2.954-2.324,0-1.022-.588-1.68-2.044-2.016l-1.246-.294c-.77-.182-.994-.378-.994-.7,0-.434.392-.728,1.148-.728a3.416,3.416,0,0,1,2.128.8l.91-1.19a4.4,4.4,0,0,0-2.968-1.05c-1.778,0-2.87.924-2.87,2.282,0,.994.588,1.624,2.03,1.96l1.246.294c.742.168.994.42.994.756,0,.448-.448.77-1.232.77a3.953,3.953,0,0,1-2.366-.868l-.868,1.26A5.036,5.036,0,0,0,55.8,120.168Zm11.452-3.962a3.354,3.354,0,0,0-3.556-3.542,3.684,3.684,0,0,0-3.836,3.808,3.577,3.577,0,0,0,3.85,3.7,3.966,3.966,0,0,0,3.318-1.568l-1.176-.9a2.6,2.6,0,0,1-2.114,1.022,2.019,2.019,0,0,1-2.2-1.89h5.67A4.608,4.608,0,0,0,67.256,116.206Zm-3.57-2.128a1.719,1.719,0,0,1,1.876,1.5H61.628A1.971,1.971,0,0,1,63.686,114.078Zm8.848-1.414a2.51,2.51,0,0,0-1.988.938v-.77h-1.68V120h1.68v-4.662a2.238,2.238,0,0,1,1.974-1.092,3.907,3.907,0,0,1,.658.07l.1-1.554A2.927,2.927,0,0,0,72.534,112.664Z" transform="translate(38 69)" fill="#3c50e0"/>
        </g>
      </g>
    </g>
  </g>
</svg>
