<svg xmlns="http://www.w3.org/2000/svg" xmlns:xlink="http://www.w3.org/1999/xlink" width="660" height="596" viewBox="0 0 660 596">
  <defs>
    <filter id="Rectangle_436" x="439" y="328" width="221" height="268" filterUnits="userSpaceOnUse">
      <feOffset dy="5" input="SourceAlpha"/>
      <feGaussianBlur stdDeviation="10" result="blur"/>
      <feFlood flood-color="#3c50e0" flood-opacity="0.149"/>
      <feComposite operator="in" in2="blur"/>
      <feComposite in="SourceGraphic"/>
    </filter>
    <filter id="Rectangle_436-2" x="0" y="130" width="572" height="268" filterUnits="userSpaceOnUse">
      <feOffset dy="5" input="SourceAlpha"/>
      <feGaussianBlur stdDeviation="10" result="blur-2"/>
      <feFlood flood-color="#3c50e0" flood-opacity="0.149"/>
      <feComposite operator="in" in2="blur-2"/>
      <feComposite in="SourceGraphic"/>
    </filter>
    <filter id="Rectangle_436-3" x="50" y="0" width="346" height="220" filterUnits="userSpaceOnUse">
      <feOffset dy="5" input="SourceAlpha"/>
      <feGaussianBlur stdDeviation="10" result="blur-3"/>
      <feFlood flood-color="#3c50e0" flood-opacity="0.149"/>
      <feComposite operator="in" in2="blur-3"/>
      <feComposite in="SourceGraphic"/>
    </filter>
    <filter id="Rectangle_436-4" x="238" y="368" width="231" height="228" filterUnits="userSpaceOnUse">
      <feOffset dy="5" input="SourceAlpha"/>
      <feGaussianBlur stdDeviation="10" result="blur-4"/>
      <feFlood flood-color="#3c50e0" flood-opacity="0.149"/>
      <feComposite operator="in" in2="blur-4"/>
      <feComposite in="SourceGraphic"/>
    </filter>
  </defs>
  <g id="addon-04" transform="translate(-420 -2784)">
    <g id="Google_fonts_customize_screen" data-name="Google fonts customize screen" transform="translate(555 1505)">
      <g transform="matrix(1, 0, 0, 1, -135, 1279)" filter="url(#Rectangle_436)">
        <rect id="Rectangle_436-5" data-name="Rectangle 436" width="161" height="208" rx="10" transform="translate(469 353)" fill="#fff"/>
      </g>
      <g id="Group_92" data-name="Group 92" transform="translate(361.999 1790.678)">
        <g id="Group_91" data-name="Group 91" transform="translate(1.222 -35.446)">
          <g id="Rectangle_439" data-name="Rectangle 439" transform="translate(-14.221 -23.232)" fill="rgba(177,185,243,0.3)" stroke="rgba(123,134,163,0.3)" stroke-width="1">
            <rect width="131" height="23" rx="1" stroke="none"/>
            <rect x="0.5" y="0.5" width="130" height="22" rx="0.5" fill="none"/>
          </g>
          <g id="Rectangle_440" data-name="Rectangle 440" transform="translate(-14.221 11.768)" fill="rgba(177,185,243,0.3)" stroke="rgba(123,134,163,0.3)" stroke-width="1">
            <rect width="131" height="23" rx="1" stroke="none"/>
            <rect x="0.5" y="0.5" width="130" height="22" rx="0.5" fill="none"/>
          </g>
          <rect id="Rectangle_441" data-name="Rectangle 441" width="59" height="23" rx="1" transform="translate(21.779 46.768)" fill="#ff5670"/>
        </g>
      </g>
      <rect id="Rectangle_707" data-name="Rectangle 707" width="40" height="40" rx="20" transform="translate(394 1647)" fill="#ff5670"/>
      <g id="Group_350" data-name="Group 350" transform="translate(-10 91)">
        <g id="Rectangle_558" data-name="Rectangle 558" transform="translate(361 1606)" fill="rgba(60,80,224,0.03)" stroke="rgba(60,80,224,0.4)" stroke-width="1">
          <rect width="129" height="23" rx="3" stroke="none"/>
          <rect x="0.5" y="0.5" width="128" height="22" rx="2.5" fill="none"/>
        </g>
        <path id="Rectangle_559" data-name="Rectangle 559" d="M3,0H8A0,0,0,0,1,8,0V23a0,0,0,0,1,0,0H3a3,3,0,0,1-3-3V3A3,3,0,0,1,3,0Z" transform="translate(361 1606)" fill="#3c50e0"/>
        <path id="Path_772" data-name="Path 772" d="M3.94-3.57A1.572,1.572,0,0,0,5.07-5.18c0-1.14-.85-1.94-2.3-1.94A2.915,2.915,0,0,0,.35-5.94l.7.64a2.086,2.086,0,0,1,1.68-.89c.87,0,1.32.46,1.32,1.07,0,.63-.48,1.1-1.45,1.1H1.81v.92h.61c1.19,0,1.72.43,1.72,1.12S3.62-.81,2.7-.81A2.478,2.478,0,0,1,.91-1.6L.26-.89A3.194,3.194,0,0,0,2.71.12c1.53,0,2.46-.84,2.46-2.01A1.655,1.655,0,0,0,3.94-3.57Zm8.77-1.52v.43a2.353,2.353,0,0,0-1.56-.55A2.576,2.576,0,0,0,8.59-2.55,2.578,2.578,0,0,0,11.15.12a2.309,2.309,0,0,0,1.56-.56V0h1V-5.09ZM11.28-.79A1.653,1.653,0,0,1,9.61-2.55,1.65,1.65,0,0,1,11.28-4.3a1.84,1.84,0,0,1,1.43.67v2.17A1.84,1.84,0,0,1,11.28-.79Zm7.18-.18a2.332,2.332,0,0,1-.82.16c-.63,0-.93-.34-.93-1.12v-2.3h1.73v-.86H16.71V-6.34h-1v1.25H14.6v.86h1.11v2.41C15.71-.5,16.33.1,17.49.1a2.781,2.781,0,0,0,1.15-.23Zm4.39,0a2.332,2.332,0,0,1-.82.16c-.63,0-.93-.34-.93-1.12v-2.3h1.73v-.86H21.1V-6.34h-1v1.25H18.99v.86H20.1v2.41C20.1-.5,20.72.1,21.88.1a2.781,2.781,0,0,0,1.15-.23Zm5.98-1.75a2.37,2.37,0,0,0-2.5-2.49,2.608,2.608,0,0,0-2.71,2.7A2.536,2.536,0,0,0,26.33.12a2.749,2.749,0,0,0,2.34-1.15l-.71-.54a1.916,1.916,0,0,1-1.61.82,1.6,1.6,0,0,1-1.72-1.56H28.8A2.542,2.542,0,0,0,28.83-2.72Zm-2.5-1.64a1.383,1.383,0,0,1,1.49,1.24H24.69A1.57,1.57,0,0,1,26.33-4.36Zm9.73-.85a2.506,2.506,0,0,0-1.87.86,1.717,1.717,0,0,0-1.56-.86,2.389,2.389,0,0,0-1.57.6v-.48h-1V0h1V-3.61A1.772,1.772,0,0,1,32.4-4.3c.64,0,1.08.47,1.08,1.41V0h1V-3.1a3.483,3.483,0,0,0-.03-.47,1.8,1.8,0,0,1,1.37-.73c.64,0,1.08.47,1.08,1.41V0h1V-3.1C37.9-4.45,37.14-5.21,36.06-5.21Zm5.9,0a2.291,2.291,0,0,0-1.56.56v-.44h-1V2.18h1V-.45a2.25,2.25,0,0,0,1.56.57,2.572,2.572,0,0,0,2.56-2.67A2.57,2.57,0,0,0,41.96-5.21ZM41.83-.79a1.854,1.854,0,0,1-1.43-.67V-3.63a1.854,1.854,0,0,1,1.43-.67A1.65,1.65,0,0,1,43.5-2.55,1.653,1.653,0,0,1,41.83-.79Zm7.06-.18a2.332,2.332,0,0,1-.82.16c-.63,0-.93-.34-.93-1.12v-2.3h1.73v-.86H47.14V-6.34h-1v1.25H45.03v.86h1.11v2.41C46.14-.5,46.76.1,47.92.1a2.781,2.781,0,0,0,1.15-.23ZM52.01.12c1.28,0,2.02-.65,2.02-1.61,0-.72-.4-1.19-1.44-1.42l-.88-.2c-.65-.15-.83-.33-.83-.6,0-.37.33-.63.95-.63a2.233,2.233,0,0,1,1.53.61l.61-.7a2.9,2.9,0,0,0-2.08-.78c-1.22,0-1.99.64-1.99,1.57,0,.7.43,1.15,1.45,1.38l.89.2c.61.14.81.36.81.64,0,.38-.38.66-1.01.66a2.623,2.623,0,0,1-1.7-.66l-.58.75A3.359,3.359,0,0,0,52.01.12Zm9.51-5.21v.43a2.353,2.353,0,0,0-1.56-.55A2.576,2.576,0,0,0,57.4-2.55,2.578,2.578,0,0,0,59.96.12a2.309,2.309,0,0,0,1.56-.56V0h1V-5.09ZM60.09-.79a1.653,1.653,0,0,1-1.67-1.76A1.65,1.65,0,0,1,60.09-4.3a1.84,1.84,0,0,1,1.43.67v2.17A1.84,1.84,0,0,1,60.09-.79Zm6.44-4.42a1.805,1.805,0,0,0-1.47.72v-.6h-1V0h1V-3.42a1.6,1.6,0,0,1,1.45-.86,2.1,2.1,0,0,1,.48.06l.07-.92A2.09,2.09,0,0,0,66.53-5.21Zm6.23,2.49a2.37,2.37,0,0,0-2.5-2.49,2.608,2.608,0,0,0-2.71,2.7A2.536,2.536,0,0,0,70.26.12,2.749,2.749,0,0,0,72.6-1.03l-.71-.54a1.916,1.916,0,0,1-1.61.82,1.6,1.6,0,0,1-1.72-1.56h4.17A2.543,2.543,0,0,0,72.76-2.72Zm-2.5-1.64a1.383,1.383,0,0,1,1.49,1.24H68.62A1.57,1.57,0,0,1,70.26-4.36ZM76.5,0h1V-7.38h-1Zm7.42-2.72a2.37,2.37,0,0,0-2.5-2.49,2.608,2.608,0,0,0-2.71,2.7A2.536,2.536,0,0,0,81.42.12a2.749,2.749,0,0,0,2.34-1.15l-.71-.54a1.916,1.916,0,0,1-1.61.82,1.6,1.6,0,0,1-1.72-1.56h4.17A2.543,2.543,0,0,0,83.92-2.72Zm-2.5-1.64a1.383,1.383,0,0,1,1.49,1.24H79.78A1.57,1.57,0,0,1,81.42-4.36ZM86.57-5.4c0-.84.37-1.19,1.05-1.19a1.823,1.823,0,0,1,.68.13l.15-.86a2.512,2.512,0,0,0-.96-.18,1.813,1.813,0,0,0-1.92,2.07v.34H84.46v.86h1.11V0h1V-4.23h1.8v-.86h-1.8ZM92.63-.97a2.332,2.332,0,0,1-.82.16c-.63,0-.93-.34-.93-1.12v-2.3h1.73v-.86H90.88V-6.34h-1v1.25H88.77v.86h1.11v2.41C89.88-.5,90.5.1,91.66.1a2.781,2.781,0,0,0,1.15-.23Z" transform="translate(379 1621)" fill="#07003b"/>
      </g>
    </g>
    <g id="Image" transform="translate(45 198)">
      <g id="Icon" transform="translate(405 2749)">
        <g id="Login_Screen" data-name="Login Screen">
          <g transform="matrix(1, 0, 0, 1, -30, -163)" filter="url(#Rectangle_436-2)">
            <rect id="Rectangle_436-6" data-name="Rectangle 436" width="512" height="208" rx="10" transform="translate(30 155)" fill="#fff"/>
          </g>
          <g id="Height" transform="translate(24.999 20)">
            <g id="radio" transform="translate(0 29)">
              <g id="Rectangle_535" data-name="Rectangle 535" transform="translate(0.001)" fill="rgba(60,80,224,0.05)" stroke="#aeb6f3" stroke-width="2">
                <rect width="115" height="40" stroke="none"/>
                <rect x="1" y="1" width="113" height="38" fill="none"/>
              </g>
              <g id="Rectangle_672" data-name="Rectangle 672" transform="translate(0.001 38)" fill="#fff" stroke="#aeb6f3" stroke-width="2">
                <rect width="117" height="40" stroke="none"/>
                <rect x="1" y="1" width="115" height="38" fill="none"/>
              </g>
              <g id="Rectangle_675" data-name="Rectangle 675" transform="translate(0.001 76)" fill="#fff" stroke="#aeb6f3" stroke-width="2">
                <rect width="117" height="40" stroke="none"/>
                <rect x="1" y="1" width="115" height="38" fill="none"/>
              </g>
              <g id="Rectangle_671" data-name="Rectangle 671" transform="translate(285.001)" fill="rgba(60,80,224,0.05)" stroke="#aeb6f3" stroke-width="2">
                <rect width="77" height="40" stroke="none"/>
                <rect x="1" y="1" width="75" height="38" fill="none"/>
              </g>
              <g id="Rectangle_684" data-name="Rectangle 684" transform="translate(360.001)" fill="rgba(60,80,224,0.05)" stroke="#aeb6f3" stroke-width="2">
                <rect width="102" height="40" stroke="none"/>
                <rect x="1" y="1" width="100" height="38" fill="none"/>
              </g>
              <g id="Rectangle_674" data-name="Rectangle 674" transform="translate(285.001 38)" fill="#fff" stroke="#aeb6f3" stroke-width="2">
                <rect width="77" height="40" stroke="none"/>
                <rect x="1" y="1" width="75" height="38" fill="none"/>
              </g>
              <g id="Rectangle_685" data-name="Rectangle 685" transform="translate(360.001 38)" fill="#fff" stroke="#aeb6f3" stroke-width="2">
                <rect width="102" height="40" stroke="none"/>
                <rect x="1" y="1" width="100" height="38" fill="none"/>
              </g>
              <g id="Rectangle_677" data-name="Rectangle 677" transform="translate(285.001 76)" fill="#fff" stroke="#aeb6f3" stroke-width="2">
                <rect width="77" height="40" stroke="none"/>
                <rect x="1" y="1" width="75" height="38" fill="none"/>
              </g>
              <g id="Rectangle_686" data-name="Rectangle 686" transform="translate(360.001 76)" fill="#fff" stroke="#aeb6f3" stroke-width="2">
                <rect width="102" height="40" stroke="none"/>
                <rect x="1" y="1" width="100" height="38" fill="none"/>
              </g>
              <g id="Rectangle_670" data-name="Rectangle 670" transform="translate(113.001)" fill="rgba(60,80,224,0.05)" stroke="#aeb6f3" stroke-width="2">
                <rect width="174" height="40" stroke="none"/>
                <rect x="1" y="1" width="172" height="38" fill="none"/>
              </g>
              <g id="Rectangle_673" data-name="Rectangle 673" transform="translate(113.001 38)" fill="#fff" stroke="#aeb6f3" stroke-width="2">
                <rect width="174" height="40" stroke="none"/>
                <rect x="1" y="1" width="172" height="38" fill="none"/>
              </g>
              <g id="Rectangle_676" data-name="Rectangle 676" transform="translate(113.001 76)" fill="#fff" stroke="#aeb6f3" stroke-width="2">
                <rect width="174" height="40" stroke="none"/>
                <rect x="1" y="1" width="172" height="38" fill="none"/>
              </g>
              <path id="Path_757" data-name="Path 757" d="M-5.481,0h1.764V-9.8H-5.481ZM2.541-9.8H-1.365V0H.4V-3.542H2.541c2.184,0,3.514-1.176,3.514-3.136S4.725-9.8,2.541-9.8ZM2.4-5.194H.4V-8.148h2c1.26,0,1.848.518,1.848,1.47S3.661-5.194,2.4-5.194Z" transform="translate(60 24)" fill="#07003b"/>
              <path id="Path_761" data-name="Path 761" d="M-26.747-5.012a2.19,2.19,0,0,0,1.582-2.226c0-1.624-1.232-2.73-3.29-2.73A4.188,4.188,0,0,0-31.941-8.3l1.134,1.078A2.907,2.907,0,0,1-28.539-8.4c1.078,0,1.638.56,1.638,1.288,0,.784-.63,1.344-1.848,1.344h-1.078v1.554h.882c1.484,0,2.184.546,2.184,1.386S-27.433-1.4-28.6-1.4a3.439,3.439,0,0,1-2.422-1.05l-1.036,1.218a4.669,4.669,0,0,0,3.5,1.4c2.2,0,3.528-1.19,3.528-2.828A2.339,2.339,0,0,0-26.747-5.012Zm5.4,3.416L-18.767-4c1.3-1.218,1.694-2.142,1.694-3.108a2.874,2.874,0,0,0-3.178-2.856,4.136,4.136,0,0,0-3.766,2.324l1.358.924a2.8,2.8,0,0,1,2.366-1.652,1.313,1.313,0,0,1,1.47,1.33c0,.63-.35,1.274-1.582,2.436l-3.458,3.22V0h6.944V-1.6Zm7,1.708A1.111,1.111,0,0,0-13.2-1.036a1.119,1.119,0,0,0-1.148-1.148,1.119,1.119,0,0,0-1.148,1.148A1.111,1.111,0,0,0-14.343.112Zm3.85-9.912-2.716,1.386V-6.65l2.436-1.218V0h1.75V-9.8ZM-6.055.112A1.111,1.111,0,0,0-4.907-1.036,1.119,1.119,0,0,0-6.055-2.184,1.119,1.119,0,0,0-7.2-1.036,1.111,1.111,0,0,0-6.055.112ZM-1.141-1.6,1.435-4c1.3-1.218,1.694-2.142,1.694-3.108A2.874,2.874,0,0,0-.049-9.968,4.136,4.136,0,0,0-3.815-7.644l1.358.924A2.8,2.8,0,0,1-.091-8.372a1.313,1.313,0,0,1,1.47,1.33c0,.63-.35,1.274-1.582,2.436l-3.458,3.22V0H3.283V-1.6ZM8.295-6.258a3.758,3.758,0,0,0-1.722.378L6.643-8.2h4.34V-9.8H5.089L4.907-4.844l1.274.7a3.043,3.043,0,0,1,1.848-.6A1.608,1.608,0,0,1,9.835-3.108c0,1.022-.756,1.694-2.03,1.694A3.438,3.438,0,0,1,5.383-2.422L4.361-1.19A4.8,4.8,0,0,0,7.833.168c2.268,0,3.738-1.26,3.738-3.276A3,3,0,0,0,8.295-6.258ZM13.8.112a1.111,1.111,0,0,0,1.148-1.148A1.119,1.119,0,0,0,13.8-2.184a1.119,1.119,0,0,0-1.148,1.148A1.111,1.111,0,0,0,13.8.112Zm6.314-6.818a4.318,4.318,0,0,0-.952.112L21.665-9.8H19.579L17.591-7.168a6.154,6.154,0,0,0-1.5,3.766A3.462,3.462,0,0,0,19.8.168a3.5,3.5,0,0,0,3.752-3.486A3.318,3.318,0,0,0,20.111-6.706Zm-.28,5.334a1.879,1.879,0,0,1-2-2.044,3.963,3.963,0,0,1,.2-1.162,2.919,2.919,0,0,1,1.806-.63,1.846,1.846,0,0,1,2,1.918A1.846,1.846,0,0,1,19.831-1.372Zm8.2-8.6a3.5,3.5,0,0,0-3.752,3.486,3.31,3.31,0,0,0,3.444,3.388,4.318,4.318,0,0,0,.952-.112L26.173,0h2.086l1.988-2.632a6.154,6.154,0,0,0,1.5-3.766A3.462,3.462,0,0,0,28.035-9.968ZM26.005-6.51a1.846,1.846,0,0,1,2-1.918,1.879,1.879,0,0,1,2,2.044,3.963,3.963,0,0,1-.2,1.162,2.919,2.919,0,0,1-1.806.63A1.846,1.846,0,0,1,26.005-6.51Z" transform="translate(60 64)" fill="#515e81"/>
              <path id="Path_764" data-name="Path 764" d="M-28.063-5.012a2.19,2.19,0,0,0,1.582-2.226c0-1.624-1.232-2.73-3.29-2.73A4.188,4.188,0,0,0-33.257-8.3l1.134,1.078A2.907,2.907,0,0,1-29.855-8.4c1.078,0,1.638.56,1.638,1.288,0,.784-.63,1.344-1.848,1.344h-1.078v1.554h.882c1.484,0,2.184.546,2.184,1.386S-28.749-1.4-29.911-1.4a3.439,3.439,0,0,1-2.422-1.05l-1.036,1.218a4.669,4.669,0,0,0,3.5,1.4c2.2,0,3.528-1.19,3.528-2.828A2.339,2.339,0,0,0-28.063-5.012Zm7.07,5.18c2.478,0,4.032-1.848,4.032-5.068s-1.554-5.068-4.032-5.068S-25.025-8.12-25.025-4.9-23.471.168-20.993.168Zm0-1.6c-1.428,0-2.254-1.078-2.254-3.472s.826-3.472,2.254-3.472,2.268,1.078,2.268,3.472S-19.565-1.428-20.993-1.428Zm6.23,1.54a1.111,1.111,0,0,0,1.148-1.148,1.119,1.119,0,0,0-1.148-1.148,1.119,1.119,0,0,0-1.148,1.148A1.111,1.111,0,0,0-14.763.112Zm4.97-10.08a3.5,3.5,0,0,0-3.752,3.486A3.31,3.31,0,0,0-10.1-3.094a4.318,4.318,0,0,0,.952-.112L-11.655,0h2.086l1.988-2.632A6.154,6.154,0,0,0-6.083-6.4,3.462,3.462,0,0,0-9.793-9.968Zm-2.03,3.458a1.846,1.846,0,0,1,2-1.918,1.879,1.879,0,0,1,2,2.044,3.963,3.963,0,0,1-.2,1.162,2.919,2.919,0,0,1-1.806.63A1.846,1.846,0,0,1-11.823-6.51ZM-4.893.112A1.111,1.111,0,0,0-3.745-1.036,1.119,1.119,0,0,0-4.893-2.184,1.119,1.119,0,0,0-6.041-1.036,1.111,1.111,0,0,0-4.893.112ZM.021-1.6,2.6-4C3.9-5.222,4.291-6.146,4.291-7.112A2.874,2.874,0,0,0,1.113-9.968,4.136,4.136,0,0,0-2.653-7.644l1.358.924A2.8,2.8,0,0,1,1.071-8.372a1.313,1.313,0,0,1,1.47,1.33c0,.63-.35,1.274-1.582,2.436L-2.5-1.386V0H4.445V-1.6Zm8.134,0L10.731-4c1.3-1.218,1.694-2.142,1.694-3.108A2.874,2.874,0,0,0,9.247-9.968,4.136,4.136,0,0,0,5.481-7.644l1.358.924A2.8,2.8,0,0,1,9.205-8.372a1.313,1.313,0,0,1,1.47,1.33c0,.63-.35,1.274-1.582,2.436L5.635-1.386V0h6.944V-1.6Zm7,1.708A1.111,1.111,0,0,0,16.3-1.036a1.119,1.119,0,0,0-1.148-1.148,1.119,1.119,0,0,0-1.148,1.148A1.111,1.111,0,0,0,15.155.112ZM20.069-1.6,22.645-4c1.3-1.218,1.694-2.142,1.694-3.108a2.874,2.874,0,0,0-3.178-2.856A4.136,4.136,0,0,0,17.4-7.644l1.358.924a2.8,2.8,0,0,1,2.366-1.652,1.313,1.313,0,0,1,1.47,1.33c0,.63-.35,1.274-1.582,2.436l-3.458,3.22V0h6.944V-1.6Zm9.282-8.372A3.5,3.5,0,0,0,25.6-6.482a3.31,3.31,0,0,0,3.444,3.388A4.318,4.318,0,0,0,30-3.206L27.489,0h2.086l1.988-2.632a6.154,6.154,0,0,0,1.5-3.766A3.462,3.462,0,0,0,29.351-9.968ZM27.321-6.51a1.846,1.846,0,0,1,2-1.918,1.879,1.879,0,0,1,2,2.044,3.963,3.963,0,0,1-.2,1.162,2.919,2.919,0,0,1-1.806.63A1.846,1.846,0,0,1,27.321-6.51Z" transform="translate(60 102)" fill="#515e81"/>
              <path id="Path_759" data-name="Path 759" d="M-10.78.168a3.745,3.745,0,0,0,4.1-4.088V-9.8H-8.456v5.7c0,1.764-.854,2.6-2.324,2.6s-2.338-.84-2.338-2.6V-9.8h-1.764v5.88A3.739,3.739,0,0,0-10.78.168Zm9,0C.1.168,1.176-.756,1.176-2.156c0-1.022-.588-1.68-2.044-2.016l-1.246-.294c-.77-.182-.994-.378-.994-.7,0-.434.392-.728,1.148-.728a3.416,3.416,0,0,1,2.128.8l.91-1.19A4.4,4.4,0,0,0-1.89-7.336c-1.778,0-2.87.924-2.87,2.282,0,.994.588,1.624,2.03,1.96l1.246.294c.742.168.994.42.994.756,0,.448-.448.77-1.232.77a3.953,3.953,0,0,1-2.366-.868l-.868,1.26A5.036,5.036,0,0,0-1.778.168ZM9.674-3.794A3.354,3.354,0,0,0,6.118-7.336,3.684,3.684,0,0,0,2.282-3.528a3.577,3.577,0,0,0,3.85,3.7A3.966,3.966,0,0,0,9.45-1.4L8.274-2.3A2.6,2.6,0,0,1,6.16-1.274a2.019,2.019,0,0,1-2.2-1.89h5.67A4.608,4.608,0,0,0,9.674-3.794ZM6.1-5.922a1.719,1.719,0,0,1,1.876,1.5H4.046A1.971,1.971,0,0,1,6.1-5.922Zm8.848-1.414a2.51,2.51,0,0,0-1.988.938v-.77h-1.68V0h1.68V-4.662a2.238,2.238,0,0,1,1.974-1.092,3.907,3.907,0,0,1,.658.07l.1-1.554A2.927,2.927,0,0,0,14.952-7.336Z" transform="translate(324 24)" fill="#07003b"/>
              <path id="Path_760" data-name="Path 760" d="M-28.728-9.8h-3.906V0h1.764V-3.542h2.142c2.184,0,3.514-1.176,3.514-3.136S-26.544-9.8-28.728-9.8Zm-.14,4.606h-2V-8.148h2c1.26,0,1.848.518,1.848,1.47S-27.608-5.194-28.868-5.194Zm10.374-1.974v.546a3.2,3.2,0,0,0-2.058-.714,3.6,3.6,0,0,0-3.57,3.752A3.6,3.6,0,0,0-20.552.168a3.2,3.2,0,0,0,2.058-.714V0h1.68V-7.168Zm-1.806,5.8a2.078,2.078,0,0,1-2.114-2.212,2.067,2.067,0,0,1,2.114-2.2,2.315,2.315,0,0,1,1.806.826v2.744A2.329,2.329,0,0,1-20.3-1.372Zm8.2,1.54c1.876,0,2.954-.924,2.954-2.324,0-1.022-.588-1.68-2.044-2.016l-1.246-.294c-.77-.182-.994-.378-.994-.7,0-.434.392-.728,1.148-.728a3.416,3.416,0,0,1,2.128.8l.91-1.19a4.4,4.4,0,0,0-2.968-1.05c-1.778,0-2.87.924-2.87,2.282,0,.994.588,1.624,2.03,1.96L-11.8-2.8c.742.168.994.42.994.756,0,.448-.448.77-1.232.77a3.953,3.953,0,0,1-2.366-.868l-.868,1.26A5.036,5.036,0,0,0-12.1.168Zm7.14,0C-3.08.168-2-.756-2-2.156c0-1.022-.588-1.68-2.044-2.016l-1.246-.294c-.77-.182-.994-.378-.994-.7,0-.434.392-.728,1.148-.728a3.416,3.416,0,0,1,2.128.8l.91-1.19a4.4,4.4,0,0,0-2.968-1.05c-1.778,0-2.87.924-2.87,2.282,0,.994.588,1.624,2.03,1.96l1.246.294c.742.168.994.42.994.756,0,.448-.448.77-1.232.77a3.953,3.953,0,0,1-2.366-.868l-.868,1.26A5.036,5.036,0,0,0-4.956.168ZM8.82-7.168l-1.6,4.9-1.778-4.9H3.864L2.086-2.24.49-7.168H-1.288L1.12,0H2.856L4.662-5.012,6.468,0H8.19l2.422-7.168ZM15.05.168a3.668,3.668,0,0,0,3.794-3.752A3.66,3.66,0,0,0,15.05-7.336a3.672,3.672,0,0,0-3.808,3.752A3.68,3.68,0,0,0,15.05.168Zm0-1.54a2.075,2.075,0,0,1-2.1-2.212,2.064,2.064,0,0,1,2.1-2.2,2.061,2.061,0,0,1,2.086,2.2A2.072,2.072,0,0,1,15.05-1.372Zm9.044-5.964a2.51,2.51,0,0,0-1.988.938v-.77h-1.68V0h1.68V-4.662A2.238,2.238,0,0,1,24.08-5.754a3.907,3.907,0,0,1,.658.07l.1-1.554A2.927,2.927,0,0,0,24.094-7.336Zm7.014-3v3.71a3.2,3.2,0,0,0-2.058-.714,3.6,3.6,0,0,0-3.57,3.752A3.6,3.6,0,0,0,29.05.168a3.2,3.2,0,0,0,2.058-.714V0h1.68V-10.332ZM29.3-1.372a2.078,2.078,0,0,1-2.114-2.212,2.067,2.067,0,0,1,2.114-2.2,2.315,2.315,0,0,1,1.806.826v2.744A2.329,2.329,0,0,1,29.3-1.372Z" transform="translate(412 24)" fill="#07003b"/>
              <path id="Path_763" data-name="Path 763" d="M-15.365-7.168v.546a3.2,3.2,0,0,0-2.058-.714,3.6,3.6,0,0,0-3.57,3.752A3.6,3.6,0,0,0-17.423.168a3.2,3.2,0,0,0,2.058-.714V0h1.68V-7.168Zm-1.806,5.8a2.078,2.078,0,0,1-2.114-2.212,2.067,2.067,0,0,1,2.114-2.2,2.315,2.315,0,0,1,1.806.826v2.744A2.329,2.329,0,0,1-17.171-1.372Zm10.71-8.96v3.71a3.2,3.2,0,0,0-2.058-.714,3.6,3.6,0,0,0-3.57,3.752A3.6,3.6,0,0,0-8.519.168,3.2,3.2,0,0,0-6.461-.546V0h1.68V-10.332Zm-1.806,8.96a2.078,2.078,0,0,1-2.114-2.212,2.067,2.067,0,0,1,2.114-2.2,2.315,2.315,0,0,1,1.806.826v2.744A2.329,2.329,0,0,1-8.267-1.372ZM5.747-7.336A3.576,3.576,0,0,0,3.185-6.188,2.388,2.388,0,0,0,1.043-7.336a3.3,3.3,0,0,0-2.114.784v-.616h-1.68V0h1.68V-4.928a2.314,2.314,0,0,1,1.68-.854c.8,0,1.344.574,1.344,1.778V0h1.68V-4.368c0-.182-.014-.35-.028-.518a2.26,2.26,0,0,1,1.708-.9c.8,0,1.344.574,1.344,1.778V0h1.68V-4.368C8.337-6.258,7.273-7.336,5.747-7.336Zm5.39-.784A1.067,1.067,0,0,0,12.2-9.2a1.073,1.073,0,0,0-1.064-1.064A1.088,1.088,0,0,0,10.045-9.2,1.082,1.082,0,0,0,11.137-8.12ZM10.283,0h1.68V-7.168h-1.68Zm7.56-7.336a3.431,3.431,0,0,0-2.184.77v-.6h-1.68V0h1.68V-4.942a2.3,2.3,0,0,1,1.764-.84c.938,0,1.526.616,1.526,1.848V0h1.68V-4.3A2.713,2.713,0,0,0,17.843-7.336Z" transform="translate(324 64)" fill="#515e81"/>
              <path id="Path_767" data-name="Path 767" d="M-21.637-2.632A2.2,2.2,0,0,0-19.4-4.858a2.191,2.191,0,0,0-2.24-2.226,2.188,2.188,0,0,0-2.226,2.226A2.2,2.2,0,0,0-21.637-2.632Zm7.21,0a2.2,2.2,0,0,0,2.24-2.226,2.191,2.191,0,0,0-2.24-2.226,2.188,2.188,0,0,0-2.226,2.226A2.2,2.2,0,0,0-14.427-2.632Zm7.21,0a2.2,2.2,0,0,0,2.24-2.226,2.191,2.191,0,0,0-2.24-2.226A2.188,2.188,0,0,0-9.443-4.858,2.2,2.2,0,0,0-7.217-2.632Zm7.21,0a2.2,2.2,0,0,0,2.24-2.226A2.191,2.191,0,0,0-.007-7.084,2.188,2.188,0,0,0-2.233-4.858,2.2,2.2,0,0,0-.007-2.632Zm7.21,0a2.2,2.2,0,0,0,2.24-2.226A2.191,2.191,0,0,0,7.2-7.084,2.188,2.188,0,0,0,4.977-4.858,2.2,2.2,0,0,0,7.2-2.632Zm7.21,0a2.2,2.2,0,0,0,2.24-2.226,2.191,2.191,0,0,0-2.24-2.226,2.188,2.188,0,0,0-2.226,2.226A2.2,2.2,0,0,0,14.413-2.632Zm7.21,0a2.2,2.2,0,0,0,2.24-2.226,2.191,2.191,0,0,0-2.24-2.226A2.188,2.188,0,0,0,19.4-4.858,2.2,2.2,0,0,0,21.623-2.632Z" transform="translate(412 64)" fill="#515e81"/>
              <path id="Path_766" data-name="Path 766" d="M-9.891-7.336a2.51,2.51,0,0,0-1.988.938v-.77h-1.68V0h1.68V-4.662A2.238,2.238,0,0,1-9.905-5.754a3.907,3.907,0,0,1,.658.07l.1-1.554A2.927,2.927,0,0,0-9.891-7.336ZM-4.7.168A3.668,3.668,0,0,0-.9-3.584,3.66,3.66,0,0,0-4.7-7.336,3.672,3.672,0,0,0-8.505-3.584,3.68,3.68,0,0,0-4.7.168Zm0-1.54A2.075,2.075,0,0,1-6.8-3.584a2.064,2.064,0,0,1,2.1-2.2,2.061,2.061,0,0,1,2.086,2.2A2.072,2.072,0,0,1-4.7-1.372ZM4.053.168A3.668,3.668,0,0,0,7.847-3.584,3.66,3.66,0,0,0,4.053-7.336,3.672,3.672,0,0,0,.245-3.584,3.68,3.68,0,0,0,4.053.168Zm0-1.54a2.075,2.075,0,0,1-2.1-2.212,2.064,2.064,0,0,1,2.1-2.2,2.061,2.061,0,0,1,2.086,2.2A2.072,2.072,0,0,1,4.053-1.372Zm9.94-.224a3.76,3.76,0,0,1-1.092.2c-.826,0-1.218-.434-1.218-1.442V-5.7h2.282v-1.47H11.683V-8.876H10v1.708H8.533V-5.7H10v3.052C10-.728,10.885.14,12.593.14a3.934,3.934,0,0,0,1.638-.322Z" transform="translate(324 102)" fill="#515e81"/>
              <path id="Path_768" data-name="Path 768" d="M-14.427-2.632a2.2,2.2,0,0,0,2.24-2.226,2.191,2.191,0,0,0-2.24-2.226,2.188,2.188,0,0,0-2.226,2.226A2.2,2.2,0,0,0-14.427-2.632Zm7.21,0a2.2,2.2,0,0,0,2.24-2.226,2.191,2.191,0,0,0-2.24-2.226A2.188,2.188,0,0,0-9.443-4.858,2.2,2.2,0,0,0-7.217-2.632Zm7.21,0a2.2,2.2,0,0,0,2.24-2.226A2.191,2.191,0,0,0-.007-7.084,2.188,2.188,0,0,0-2.233-4.858,2.2,2.2,0,0,0-.007-2.632Zm7.21,0a2.2,2.2,0,0,0,2.24-2.226A2.191,2.191,0,0,0,7.2-7.084,2.188,2.188,0,0,0,4.977-4.858,2.2,2.2,0,0,0,7.2-2.632Zm7.21,0a2.2,2.2,0,0,0,2.24-2.226,2.191,2.191,0,0,0-2.24-2.226,2.188,2.188,0,0,0-2.226,2.226A2.2,2.2,0,0,0,14.413-2.632Z" transform="translate(412 102)" fill="#515e81"/>
              <path id="Path_758" data-name="Path 758" d="M4.34-9.8H1.176V0H4.34A4.689,4.689,0,0,0,9.38-4.9,4.689,4.689,0,0,0,4.34-9.8ZM4.256-1.652H2.94v-6.5H4.256A2.991,2.991,0,0,1,7.56-4.9,2.991,2.991,0,0,1,4.256-1.652ZM16.38-7.168v.546a3.2,3.2,0,0,0-2.058-.714,3.6,3.6,0,0,0-3.57,3.752A3.6,3.6,0,0,0,14.322.168,3.2,3.2,0,0,0,16.38-.546V0h1.68V-7.168Zm-1.806,5.8A2.078,2.078,0,0,1,12.46-3.584a2.067,2.067,0,0,1,2.114-2.2,2.315,2.315,0,0,1,1.806.826v2.744A2.329,2.329,0,0,1,14.574-1.372ZM24.71-1.6a3.76,3.76,0,0,1-1.092.2c-.826,0-1.218-.434-1.218-1.442V-5.7h2.282v-1.47H22.4V-8.876H20.72v1.708H19.25V-5.7h1.47v3.052C20.72-.728,21.6.14,23.31.14a3.934,3.934,0,0,0,1.638-.322Zm8.414-2.2a3.354,3.354,0,0,0-3.556-3.542,3.684,3.684,0,0,0-3.836,3.808,3.577,3.577,0,0,0,3.85,3.7A3.966,3.966,0,0,0,32.9-1.4l-1.176-.9A2.6,2.6,0,0,1,29.61-1.274a2.019,2.019,0,0,1-2.2-1.89h5.67A4.608,4.608,0,0,0,33.124-3.794Zm-3.57-2.128a1.719,1.719,0,0,1,1.876,1.5H27.5A1.971,1.971,0,0,1,29.554-5.922Z" transform="translate(130 24)" fill="#07003b"/>
              <path id="Path_762" data-name="Path 762" d="M4.76.168C7.238.168,8.792-1.68,8.792-4.9S7.238-9.968,4.76-9.968.728-8.12.728-4.9,2.282.168,4.76.168Zm0-1.6c-1.428,0-2.254-1.078-2.254-3.472S3.332-8.372,4.76-8.372,7.028-7.294,7.028-4.9,6.188-1.428,4.76-1.428Zm9.156-4.83a3.758,3.758,0,0,0-1.722.378l.07-2.324H16.6V-9.8H10.71l-.182,4.956,1.274.7a3.043,3.043,0,0,1,1.848-.6,1.608,1.608,0,0,1,1.806,1.638c0,1.022-.756,1.694-2.03,1.694A3.438,3.438,0,0,1,11-2.422L9.982-1.19A4.8,4.8,0,0,0,13.454.168c2.268,0,3.738-1.26,3.738-3.276A3,3,0,0,0,13.916-6.258Zm3.752,7.546h1.68l5.18-11.676h-1.68ZM27.482-1.6,30.058-4c1.3-1.218,1.694-2.142,1.694-3.108a2.874,2.874,0,0,0-3.178-2.856,4.136,4.136,0,0,0-3.766,2.324l1.358.924a2.8,2.8,0,0,1,2.366-1.652A1.313,1.313,0,0,1,30-7.042c0,.63-.35,1.274-1.582,2.436l-3.458,3.22V0h6.944V-1.6Zm5.292-8.2v1.6h4.844L33.67,0h1.918l3.976-8.4V-9.8ZM38.668,1.288h1.68l5.18-11.676h-1.68ZM48.482-1.6,51.058-4c1.3-1.218,1.694-2.142,1.694-3.108a2.874,2.874,0,0,0-3.178-2.856,4.136,4.136,0,0,0-3.766,2.324l1.358.924a2.8,2.8,0,0,1,2.366-1.652A1.313,1.313,0,0,1,51-7.042c0,.63-.35,1.274-1.582,2.436l-3.458,3.22V0h6.944V-1.6ZM58.268.168C60.746.168,62.3-1.68,62.3-4.9s-1.554-5.068-4.032-5.068S54.236-8.12,54.236-4.9,55.79.168,58.268.168Zm0-1.6c-1.428,0-2.254-1.078-2.254-3.472s.826-3.472,2.254-3.472S60.536-7.294,60.536-4.9,59.7-1.428,58.268-1.428Zm7.84-.168L68.684-4c1.3-1.218,1.694-2.142,1.694-3.108A2.874,2.874,0,0,0,67.2-9.968a4.136,4.136,0,0,0-3.766,2.324l1.358.924a2.8,2.8,0,0,1,2.366-1.652,1.313,1.313,0,0,1,1.47,1.33c0,.63-.35,1.274-1.582,2.436l-3.458,3.22V0h6.944V-1.6Zm8.176-8.2L71.568-8.414V-6.65L74-7.868V0h1.75V-9.8Zm9.45,0L81.018-8.414V-6.65l2.436-1.218V0H85.2V-9.8Zm7.5,9.968C93.716.168,95.27-1.68,95.27-4.9s-1.554-5.068-4.032-5.068S87.206-8.12,87.206-4.9,88.76.168,91.238.168Zm0-1.6c-1.428,0-2.254-1.078-2.254-3.472s.826-3.472,2.254-3.472S93.506-7.294,93.506-4.9,92.666-1.428,91.238-1.428Zm6.468-3.038a1.119,1.119,0,0,0,1.148-1.148,1.111,1.111,0,0,0-1.148-1.148,1.111,1.111,0,0,0-1.148,1.148A1.119,1.119,0,0,0,97.706-4.466Zm0,4.592a1.111,1.111,0,0,0,1.148-1.148A1.119,1.119,0,0,0,97.706-2.17a1.119,1.119,0,0,0-1.148,1.148A1.111,1.111,0,0,0,97.706.126ZM102.69-9.8,99.974-8.414V-6.65l2.436-1.218V0h1.75V-9.8Zm3.094,0v1.6h4.844L106.68,0H108.6l3.976-8.4V-9.8Zm8.47,5.334A1.119,1.119,0,0,0,115.4-5.614a1.111,1.111,0,0,0-1.148-1.148,1.111,1.111,0,0,0-1.148,1.148A1.119,1.119,0,0,0,114.254-4.466Zm0,4.592A1.111,1.111,0,0,0,115.4-1.022a1.119,1.119,0,0,0-1.148-1.148,1.119,1.119,0,0,0-1.148,1.148A1.111,1.111,0,0,0,114.254.126Zm6.468.042c2.478,0,4.032-1.848,4.032-5.068s-1.554-5.068-4.032-5.068S116.69-8.12,116.69-4.9,118.244.168,120.722.168Zm0-1.6c-1.428,0-2.254-1.078-2.254-3.472s.826-3.472,2.254-3.472S122.99-7.294,122.99-4.9,122.15-1.428,120.722-1.428ZM125.636-9.8v1.6h4.844L126.532,0h1.918l3.976-8.4V-9.8Z" transform="translate(130 64)" fill="#515e81"/>
              <path id="Path_765" data-name="Path 765" d="M4.76.168C7.238.168,8.792-1.68,8.792-4.9S7.238-9.968,4.76-9.968.728-8.12.728-4.9,2.282.168,4.76.168Zm0-1.6c-1.428,0-2.254-1.078-2.254-3.472S3.332-8.372,4.76-8.372,7.028-7.294,7.028-4.9,6.188-1.428,4.76-1.428Zm9.156-4.83a3.758,3.758,0,0,0-1.722.378l.07-2.324H16.6V-9.8H10.71l-.182,4.956,1.274.7a3.043,3.043,0,0,1,1.848-.6,1.608,1.608,0,0,1,1.806,1.638c0,1.022-.756,1.694-2.03,1.694A3.438,3.438,0,0,1,11-2.422L9.982-1.19A4.8,4.8,0,0,0,13.454.168c2.268,0,3.738-1.26,3.738-3.276A3,3,0,0,0,13.916-6.258Zm3.752,7.546h1.68l5.18-11.676h-1.68ZM27.482-1.6,30.058-4c1.3-1.218,1.694-2.142,1.694-3.108a2.874,2.874,0,0,0-3.178-2.856,4.136,4.136,0,0,0-3.766,2.324l1.358.924a2.8,2.8,0,0,1,2.366-1.652A1.313,1.313,0,0,1,30-7.042c0,.63-.35,1.274-1.582,2.436l-3.458,3.22V0h6.944V-1.6ZM37.268.168C39.746.168,41.3-1.68,41.3-4.9s-1.554-5.068-4.032-5.068S33.236-8.12,33.236-4.9,34.79.168,37.268.168Zm0-1.6c-1.428,0-2.254-1.078-2.254-3.472s.826-3.472,2.254-3.472S39.536-7.294,39.536-4.9,38.7-1.428,37.268-1.428Zm4.48,2.716h1.68l5.18-11.676h-1.68ZM51.562-1.6,54.138-4c1.3-1.218,1.694-2.142,1.694-3.108a2.874,2.874,0,0,0-3.178-2.856,4.136,4.136,0,0,0-3.766,2.324l1.358.924a2.8,2.8,0,0,1,2.366-1.652,1.313,1.313,0,0,1,1.47,1.33c0,.63-.35,1.274-1.582,2.436l-3.458,3.22V0h6.944V-1.6ZM61.348.168C63.826.168,65.38-1.68,65.38-4.9s-1.554-5.068-4.032-5.068S57.316-8.12,57.316-4.9,58.87.168,61.348.168Zm0-1.6c-1.428,0-2.254-1.078-2.254-3.472s.826-3.472,2.254-3.472S63.616-7.294,63.616-4.9,62.776-1.428,61.348-1.428Zm7.84-.168L71.764-4c1.3-1.218,1.694-2.142,1.694-3.108A2.874,2.874,0,0,0,70.28-9.968a4.136,4.136,0,0,0-3.766,2.324l1.358.924a2.8,2.8,0,0,1,2.366-1.652,1.313,1.313,0,0,1,1.47,1.33c0,.63-.35,1.274-1.582,2.436l-3.458,3.22V0h6.944V-1.6Zm8.176-8.2L74.648-8.414V-6.65l2.436-1.218V0h1.75V-9.8Zm9.45,0L84.1-8.414V-6.65l2.436-1.218V0h1.75V-9.8Zm6.02,0L90.118-8.414V-6.65l2.436-1.218V0H94.3V-9.8Zm4.438,5.334A1.119,1.119,0,0,0,98.42-5.614a1.111,1.111,0,0,0-1.148-1.148,1.111,1.111,0,0,0-1.148,1.148A1.119,1.119,0,0,0,97.272-4.466Zm0,4.592A1.111,1.111,0,0,0,98.42-1.022,1.119,1.119,0,0,0,97.272-2.17a1.119,1.119,0,0,0-1.148,1.148A1.111,1.111,0,0,0,97.272.126ZM102.158-1.6,104.734-4c1.3-1.218,1.694-2.142,1.694-3.108a2.874,2.874,0,0,0-3.178-2.856,4.136,4.136,0,0,0-3.766,2.324l1.358.924a2.8,2.8,0,0,1,2.366-1.652,1.313,1.313,0,0,1,1.47,1.33c0,.63-.35,1.274-1.582,2.436l-3.458,3.22V0h6.944V-1.6ZM111.944.168c2.478,0,4.032-1.848,4.032-5.068s-1.554-5.068-4.032-5.068S107.912-8.12,107.912-4.9,109.466.168,111.944.168Zm0-1.6c-1.428,0-2.254-1.078-2.254-3.472s.826-3.472,2.254-3.472,2.268,1.078,2.268,3.472S113.372-1.428,111.944-1.428Zm6.468-3.038a1.119,1.119,0,0,0,1.148-1.148,1.111,1.111,0,0,0-1.148-1.148,1.111,1.111,0,0,0-1.148,1.148A1.119,1.119,0,0,0,118.412-4.466Zm0,4.592a1.111,1.111,0,0,0,1.148-1.148,1.119,1.119,0,0,0-1.148-1.148,1.119,1.119,0,0,0-1.148,1.148A1.111,1.111,0,0,0,118.412.126Zm7.336-5.138a2.19,2.19,0,0,0,1.582-2.226c0-1.624-1.232-2.73-3.29-2.73A4.188,4.188,0,0,0,120.554-8.3l1.134,1.078A2.907,2.907,0,0,1,123.956-8.4c1.078,0,1.638.56,1.638,1.288,0,.784-.63,1.344-1.848,1.344h-1.078v1.554h.882c1.484,0,2.184.546,2.184,1.386S125.062-1.4,123.9-1.4a3.439,3.439,0,0,1-2.422-1.05l-1.036,1.218a4.669,4.669,0,0,0,3.5,1.4c2.2,0,3.528-1.19,3.528-2.828A2.339,2.339,0,0,0,125.748-5.012ZM136.5-3.444h-1.288V-9.8h-2.044l-4.62,6.37v1.442h5.026V0h1.638V-1.988H136.5Zm-6.174,0L133.574-7.9v4.452Z" transform="translate(130 102)" fill="#515e81"/>
            </g>
          </g>
        </g>
      </g>
    </g>
    <g id="Image-2" data-name="Image" transform="translate(95 34)">
      <g id="Icon-2" data-name="Icon" transform="translate(13 1228)">
        <g id="Login_Screen-2" data-name="Login Screen" transform="translate(58 -123)">
          <g transform="matrix(1, 0, 0, 1, 254, 1645)" filter="url(#Rectangle_436-3)">
            <rect id="Rectangle_436-7" data-name="Rectangle 436" width="286" height="160" rx="10" transform="translate(80 25)" fill="#fff"/>
          </g>
          <g id="Height-2" data-name="Height" transform="translate(0 -1)">
            <g id="radio-2" data-name="radio" transform="translate(4.442 11)">
              <g id="Rectangle_535-2" data-name="Rectangle 535" transform="translate(533.558 1690)" fill="rgba(60,80,224,0.03)" stroke="rgba(60,80,224,0.4)" stroke-width="2">
                <rect width="57" height="40" rx="5" stroke="none"/>
                <rect x="1" y="1" width="55" height="38" rx="4" fill="none"/>
              </g>
              <path id="Path_754" data-name="Path 754" d="M4.1-3.444H2.814V-9.8H.77L-3.85-3.43v1.442H1.176V0H2.814V-1.988H4.1Zm-6.174,0L1.176-7.9v4.452Z" transform="translate(562.559 1714)" fill="#07003b"/>
            </g>
            <path id="Path_753" data-name="Path 753" d="M7.952,0H9.828L6.006-9.8H3.976L.154,0H2.016l.868-2.268h4.2ZM3.458-3.794l1.526-3.99L6.51-3.794ZM15.344-1.6a3.76,3.76,0,0,1-1.092.2c-.826,0-1.218-.434-1.218-1.442V-5.7h2.282v-1.47H13.034V-8.876h-1.68v1.708H9.884V-5.7h1.47v3.052c0,1.918.882,2.786,2.59,2.786a3.934,3.934,0,0,0,1.638-.322Zm6.174,0a3.76,3.76,0,0,1-1.092.2c-.826,0-1.218-.434-1.218-1.442V-5.7H21.49v-1.47H19.208V-8.876h-1.68v1.708h-1.47V-5.7h1.47v3.052c0,1.918.882,2.786,2.59,2.786a3.934,3.934,0,0,0,1.638-.322Zm8.414-2.2a3.354,3.354,0,0,0-3.556-3.542A3.684,3.684,0,0,0,22.54-3.528a3.577,3.577,0,0,0,3.85,3.7A3.966,3.966,0,0,0,29.708-1.4l-1.176-.9a2.6,2.6,0,0,1-2.114,1.022,2.019,2.019,0,0,1-2.2-1.89h5.67A4.608,4.608,0,0,0,29.932-3.794Zm-3.57-2.128a1.719,1.719,0,0,1,1.876,1.5H24.3A1.971,1.971,0,0,1,26.362-5.922ZM40.04-7.336a3.576,3.576,0,0,0-2.562,1.148,2.388,2.388,0,0,0-2.142-1.148,3.3,3.3,0,0,0-2.114.784v-.616h-1.68V0h1.68V-4.928a2.314,2.314,0,0,1,1.68-.854c.8,0,1.344.574,1.344,1.778V0h1.68V-4.368c0-.182-.014-.35-.028-.518a2.26,2.26,0,0,1,1.708-.9c.8,0,1.344.574,1.344,1.778V0h1.68V-4.368C42.63-6.258,41.566-7.336,40.04-7.336Zm8.288,0a3.116,3.116,0,0,0-2.072.728v-.56h-1.68V3.052h1.68V-.56a3.116,3.116,0,0,0,2.072.728,3.6,3.6,0,0,0,3.556-3.752A3.6,3.6,0,0,0,48.328-7.336Zm-.252,5.964a2.336,2.336,0,0,1-1.82-.84V-4.956a2.323,2.323,0,0,1,1.82-.826,2.056,2.056,0,0,1,2.1,2.2A2.068,2.068,0,0,1,48.076-1.372ZM58.044-1.6a3.76,3.76,0,0,1-1.092.2c-.826,0-1.218-.434-1.218-1.442V-5.7h2.282v-1.47H55.734V-8.876h-1.68v1.708h-1.47V-5.7h1.47v3.052c0,1.918.882,2.786,2.59,2.786a3.934,3.934,0,0,0,1.638-.322ZM62.37.168c1.876,0,2.954-.924,2.954-2.324,0-1.022-.588-1.68-2.044-2.016l-1.246-.294c-.77-.182-.994-.378-.994-.7,0-.434.392-.728,1.148-.728a3.416,3.416,0,0,1,2.128.8l.91-1.19a4.4,4.4,0,0,0-2.968-1.05c-1.778,0-2.87.924-2.87,2.282,0,.994.588,1.624,2.03,1.96l1.246.294c.742.168.994.42.994.756,0,.448-.448.77-1.232.77a3.953,3.953,0,0,1-2.366-.868l-.868,1.26A5.036,5.036,0,0,0,62.37.168ZM77.224,0H79.1L75.278-9.8h-2.03L69.426,0h1.862l.868-2.268h4.2ZM72.73-3.794l1.526-3.99,1.526,3.99ZM80.262,0h1.68V-10.332h-1.68Zm3.7,0h1.68V-10.332h-1.68Zm7.07.168a3.668,3.668,0,0,0,3.794-3.752,3.66,3.66,0,0,0-3.794-3.752A3.672,3.672,0,0,0,87.22-3.584,3.68,3.68,0,0,0,91.028.168Zm0-1.54a2.075,2.075,0,0,1-2.1-2.212,2.064,2.064,0,0,1,2.1-2.2,2.061,2.061,0,0,1,2.086,2.2A2.072,2.072,0,0,1,91.028-1.372Zm14.532-5.8-1.6,4.9-1.778-4.9H100.6L98.826-2.24l-1.6-4.928H95.452L97.86,0H99.6L101.4-5.012,103.208,0h1.722l2.422-7.168Zm9.814,3.374a3.354,3.354,0,0,0-3.556-3.542,3.684,3.684,0,0,0-3.836,3.808,3.577,3.577,0,0,0,3.85,3.7A3.966,3.966,0,0,0,115.15-1.4l-1.176-.9a2.6,2.6,0,0,1-2.114,1.022,2.019,2.019,0,0,1-2.2-1.89h5.67A4.608,4.608,0,0,0,115.374-3.794ZM111.8-5.922a1.719,1.719,0,0,1,1.876,1.5h-3.934A1.971,1.971,0,0,1,111.8-5.922Zm10.374-4.41v3.71a3.2,3.2,0,0,0-2.058-.714,3.6,3.6,0,0,0-3.57,3.752A3.6,3.6,0,0,0,120.12.168a3.2,3.2,0,0,0,2.058-.714V0h1.68V-10.332Zm-1.806,8.96a2.078,2.078,0,0,1-2.114-2.212,2.067,2.067,0,0,1,2.114-2.2,2.315,2.315,0,0,1,1.806.826v2.744A2.329,2.329,0,0,1,120.372-1.372Z" transform="translate(359 1725)" fill="#07003b"/>
          </g>
          <g id="Height-3" data-name="Height" transform="translate(0 59)">
            <g id="radio-3" data-name="radio" transform="translate(4.442 11)">
              <g id="Rectangle_535-3" data-name="Rectangle 535" transform="translate(533.558 1690)" fill="rgba(60,80,224,0.03)" stroke="rgba(60,80,224,0.4)" stroke-width="2">
                <rect width="57" height="40" rx="5" stroke="none"/>
                <rect x="1" y="1" width="55" height="38" rx="4" fill="none"/>
              </g>
              <path id="Path_756" data-name="Path 756" d="M.266-9.8-2.45-8.414V-6.65L-.014-7.868V0h1.75V-9.8Z" transform="translate(562.559 1714)" fill="#07003b"/>
            </g>
            <path id="Path_755" data-name="Path 755" d="M10.15-9.8,6.762-2.548,3.36-9.8H1.176V0H2.912V-6.972L6.048-.28H7.462l3.122-6.664V0h1.75V-9.8Zm5.222,1.68A1.067,1.067,0,0,0,16.436-9.2a1.073,1.073,0,0,0-1.064-1.064A1.088,1.088,0,0,0,14.28-9.2,1.082,1.082,0,0,0,15.372-8.12ZM14.518,0H16.2V-7.168h-1.68Zm7.56-7.336a3.431,3.431,0,0,0-2.184.77v-.6h-1.68V0h1.68V-4.942a2.3,2.3,0,0,1,1.764-.84c.938,0,1.526.616,1.526,1.848V0h1.68V-4.3A2.713,2.713,0,0,0,22.078-7.336Zm9.59.168V-2.24a2.268,2.268,0,0,1-1.764.868c-.952,0-1.484-.6-1.484-1.792v-4H26.74V-2.8A2.637,2.637,0,0,0,29.47.168a3.364,3.364,0,0,0,2.2-.77V0h1.68V-7.168ZM39.984-1.6a3.76,3.76,0,0,1-1.092.2c-.826,0-1.218-.434-1.218-1.442V-5.7h2.282v-1.47H37.674V-8.876h-1.68v1.708h-1.47V-5.7h1.47v3.052c0,1.918.882,2.786,2.59,2.786a3.934,3.934,0,0,0,1.638-.322Zm8.414-2.2a3.354,3.354,0,0,0-3.556-3.542,3.684,3.684,0,0,0-3.836,3.808,3.577,3.577,0,0,0,3.85,3.7A3.966,3.966,0,0,0,48.174-1.4L47-2.3a2.6,2.6,0,0,1-2.114,1.022,2.019,2.019,0,0,1-2.2-1.89h5.67A4.608,4.608,0,0,0,48.4-3.794Zm-3.57-2.128a1.719,1.719,0,0,1,1.876,1.5H42.77A1.971,1.971,0,0,1,44.828-5.922Zm7.9,6.09c1.876,0,2.954-.924,2.954-2.324,0-1.022-.588-1.68-2.044-2.016l-1.246-.294c-.77-.182-.994-.378-.994-.7,0-.434.392-.728,1.148-.728a3.416,3.416,0,0,1,2.128.8l.91-1.19a4.4,4.4,0,0,0-2.968-1.05c-1.778,0-2.87.924-2.87,2.282,0,.994.588,1.624,2.03,1.96l1.246.294c.742.168.994.42.994.756,0,.448-.448.77-1.232.77a3.953,3.953,0,0,1-2.366-.868l-.868,1.26A5.036,5.036,0,0,0,52.724.168Zm9.842-1.82V-9.8H60.8V0H67.27V-1.652Zm9.59,1.82A3.668,3.668,0,0,0,75.95-3.584a3.66,3.66,0,0,0-3.794-3.752,3.672,3.672,0,0,0-3.808,3.752A3.68,3.68,0,0,0,72.156.168Zm0-1.54a2.075,2.075,0,0,1-2.1-2.212,2.064,2.064,0,0,1,2.1-2.2,2.061,2.061,0,0,1,2.086,2.2A2.072,2.072,0,0,1,72.156-1.372ZM80.878.168a3.806,3.806,0,0,0,3.248-1.68L82.88-2.45a2.446,2.446,0,0,1-1.974,1.078A2.08,2.08,0,0,1,78.82-3.584a2.066,2.066,0,0,1,2.072-2.2A2.206,2.206,0,0,1,82.726-4.76L84.042-5.8a3.785,3.785,0,0,0-3.136-1.54A3.706,3.706,0,0,0,77.1-3.542,3.623,3.623,0,0,0,80.878.168ZM90.636,0H92.75L89.39-4.074l3.164-3.094H90.412L87.108-4v-6.328h-1.68V0h1.68V-1.862l1.106-1.064ZM96.8.168a3.668,3.668,0,0,0,3.794-3.752A3.66,3.66,0,0,0,96.8-7.336a3.672,3.672,0,0,0-3.808,3.752A3.68,3.68,0,0,0,96.8.168Zm0-1.54a2.075,2.075,0,0,1-2.1-2.212,2.064,2.064,0,0,1,2.1-2.2,2.061,2.061,0,0,1,2.086,2.2A2.072,2.072,0,0,1,96.8-1.372Zm10.234-5.8V-2.24a2.268,2.268,0,0,1-1.764.868c-.952,0-1.484-.6-1.484-1.792v-4H102.1V-2.8a2.637,2.637,0,0,0,2.73,2.968,3.364,3.364,0,0,0,2.2-.77V0h1.68V-7.168ZM115.346-1.6a3.76,3.76,0,0,1-1.092.2c-.826,0-1.218-.434-1.218-1.442V-5.7h2.282v-1.47h-2.282V-8.876h-1.68v1.708h-1.47V-5.7h1.47v3.052c0,1.918.882,2.786,2.59,2.786a3.934,3.934,0,0,0,1.638-.322Z" transform="translate(359 1725)" fill="#07003b"/>
          </g>
        </g>
      </g>
    </g>
    <g id="Image-3" data-name="Image" transform="translate(45 399)">
      <g id="Icon-3" data-name="Icon" transform="translate(405 2749)">
        <g id="Login_Screen-3" data-name="Login Screen">
          <g transform="matrix(1, 0, 0, 1, -30, -364)" filter="url(#Rectangle_436-4)">
            <rect id="Rectangle_436-8" data-name="Rectangle 436" width="171" height="168" rx="10" transform="translate(268 393)" fill="#fff"/>
          </g>
          <g id="Height-4" data-name="Height" transform="translate(26.999 20)">
            <g id="radio-4" data-name="radio" transform="translate(236.001 29)">
              <g id="Rectangle_535-4" data-name="Rectangle 535" transform="translate(0.001)" fill="rgba(255,255,255,0.05)" stroke="#aeb6f3" stroke-width="2">
                <rect width="121" height="36" rx="5" stroke="none"/>
                <rect x="1" y="1" width="119" height="34" rx="4" fill="none"/>
              </g>
              <rect id="Rectangle_708" data-name="Rectangle 708" width="121" height="36" rx="5" transform="translate(0.001 46)" fill="#07003b"/>
              <rect id="Rectangle_724" data-name="Rectangle 724" width="121" height="36" rx="5" transform="translate(0.001 92)" fill="#3c50e0"/>
              <path id="Path_769" data-name="Path 769" d="M-22.533-9.8l-2.128,7.042L-27.013-9.8h-1.61l-2.352,7.042L-33.1-9.8h-1.834L-31.969,0h1.764l2.394-7.252L-25.431,0h1.764l2.982-9.8Zm7.028,2.464a3.431,3.431,0,0,0-2.184.77v-3.766h-1.68V0h1.68V-4.942a2.3,2.3,0,0,1,1.764-.84c.938,0,1.526.616,1.526,1.848V0h1.68V-4.3A2.713,2.713,0,0,0-15.505-7.336Zm5.586-.784A1.067,1.067,0,0,0-8.855-9.2a1.073,1.073,0,0,0-1.064-1.064A1.088,1.088,0,0,0-11.011-9.2,1.082,1.082,0,0,0-9.919-8.12ZM-10.773,0h1.68V-7.168h-1.68Zm8.316-1.6a3.76,3.76,0,0,1-1.092.2c-.826,0-1.218-.434-1.218-1.442V-5.7h2.282v-1.47H-4.767V-8.876h-1.68v1.708h-1.47V-5.7h1.47v3.052c0,1.918.882,2.786,2.59,2.786A3.934,3.934,0,0,0-2.219-.182Zm8.414-2.2A3.354,3.354,0,0,0,2.4-7.336,3.684,3.684,0,0,0-1.435-3.528a3.577,3.577,0,0,0,3.85,3.7A3.966,3.966,0,0,0,5.733-1.4L4.557-2.3A2.6,2.6,0,0,1,2.443-1.274a2.019,2.019,0,0,1-2.2-1.89h5.67A4.608,4.608,0,0,0,5.957-3.794ZM2.387-5.922a1.719,1.719,0,0,1,1.876,1.5H.329A1.971,1.971,0,0,1,2.387-5.922Zm10.542,4.27V-9.8H11.165V0h6.468V-1.652ZM19.985-8.12A1.067,1.067,0,0,0,21.049-9.2a1.073,1.073,0,0,0-1.064-1.064A1.088,1.088,0,0,0,18.893-9.2,1.082,1.082,0,0,0,19.985-8.12ZM19.131,0h1.68V-7.168h-1.68Zm6.384.168c1.876,0,2.954-.924,2.954-2.324,0-1.022-.588-1.68-2.044-2.016l-1.246-.294c-.77-.182-.994-.378-.994-.7,0-.434.392-.728,1.148-.728a3.416,3.416,0,0,1,2.128.8l.91-1.19A4.4,4.4,0,0,0,25.4-7.336c-1.778,0-2.87.924-2.87,2.282,0,.994.588,1.624,2.03,1.96l1.246.294c.742.168.994.42.994.756,0,.448-.448.77-1.232.77A3.953,3.953,0,0,1,23.2-2.142l-.868,1.26A5.036,5.036,0,0,0,25.515.168ZM34.685-1.6a3.76,3.76,0,0,1-1.092.2c-.826,0-1.218-.434-1.218-1.442V-5.7h2.282v-1.47H32.375V-8.876h-1.68v1.708h-1.47V-5.7h1.47v3.052c0,1.918.882,2.786,2.59,2.786a3.934,3.934,0,0,0,1.638-.322Z" transform="translate(61 23)" fill="#07003b"/>
              <path id="Path_770" data-name="Path 770" d="M-26.32-5.278a2.005,2.005,0,0,0,1.036-1.9c0-1.652-1.218-2.618-3.29-2.618h-3.92V0h4.256C-25.9,0-24.6-1.12-24.6-2.9A2.358,2.358,0,0,0-26.32-5.278Zm-2.212-3c.966,0,1.47.42,1.47,1.162s-.5,1.2-1.47,1.2h-2.212V-8.274Zm.252,6.748h-2.464v-2.9h2.464c1.232,0,1.862.588,1.862,1.456S-27.048-1.526-28.28-1.526ZM-22.946,0h1.68V-10.332h-1.68Zm8.89-7.168v.546a3.2,3.2,0,0,0-2.058-.714,3.6,3.6,0,0,0-3.57,3.752A3.6,3.6,0,0,0-16.114.168a3.2,3.2,0,0,0,2.058-.714V0h1.68V-7.168Zm-1.806,5.8a2.078,2.078,0,0,1-2.114-2.212,2.067,2.067,0,0,1,2.114-2.2,2.315,2.315,0,0,1,1.806.826v2.744A2.329,2.329,0,0,1-15.862-1.372ZM-7,.168a3.806,3.806,0,0,0,3.248-1.68L-5-2.45A2.446,2.446,0,0,1-6.972-1.372,2.08,2.08,0,0,1-9.058-3.584a2.066,2.066,0,0,1,2.072-2.2A2.206,2.206,0,0,1-5.152-4.76L-3.836-5.8a3.785,3.785,0,0,0-3.136-1.54A3.706,3.706,0,0,0-10.78-3.542,3.623,3.623,0,0,0-7,.168ZM2.758,0H4.872L1.512-4.074,4.676-7.168H2.534L-.77-4v-6.328H-2.45V0H-.77V-1.862L.336-2.926ZM11.34-1.652V-9.8H9.576V0h6.468V-1.652ZM18.4-8.12A1.067,1.067,0,0,0,19.46-9.2,1.073,1.073,0,0,0,18.4-10.262,1.088,1.088,0,0,0,17.3-9.2,1.082,1.082,0,0,0,18.4-8.12ZM17.542,0h1.68V-7.168h-1.68Zm6.384.168c1.876,0,2.954-.924,2.954-2.324,0-1.022-.588-1.68-2.044-2.016L23.59-4.466c-.77-.182-.994-.378-.994-.7,0-.434.392-.728,1.148-.728a3.416,3.416,0,0,1,2.128.8l.91-1.19a4.4,4.4,0,0,0-2.968-1.05c-1.778,0-2.87.924-2.87,2.282,0,.994.588,1.624,2.03,1.96L24.22-2.8c.742.168.994.42.994.756,0,.448-.448.77-1.232.77a3.953,3.953,0,0,1-2.366-.868l-.868,1.26A5.036,5.036,0,0,0,23.926.168ZM33.1-1.6A3.76,3.76,0,0,1,32-1.4c-.826,0-1.218-.434-1.218-1.442V-5.7h2.282v-1.47H30.786V-8.876h-1.68v1.708h-1.47V-5.7h1.47v3.052c0,1.918.882,2.786,2.59,2.786a3.934,3.934,0,0,0,1.638-.322Z" transform="translate(61 69)" fill="#fff"/>
              <path id="Path_771" data-name="Path 771" d="M-12.985,0h2.142l-2.828-3.738a2.872,2.872,0,0,0,2.394-2.968c0-1.9-1.33-3.094-3.444-3.094H-18.8V0h1.764V-3.626h1.372Zm-4.046-8.148h2.142c1.218,0,1.792.5,1.792,1.442s-.574,1.442-1.792,1.442h-2.142ZM-2.555-3.794A3.354,3.354,0,0,0-6.111-7.336,3.684,3.684,0,0,0-9.947-3.528,3.577,3.577,0,0,0-6.1.168,3.966,3.966,0,0,0-2.779-1.4l-1.176-.9A2.6,2.6,0,0,1-6.069-1.274a2.019,2.019,0,0,1-2.2-1.89H-2.6A4.608,4.608,0,0,0-2.555-3.794Zm-3.57-2.128a1.719,1.719,0,0,1,1.876,1.5H-8.183A1.971,1.971,0,0,1-6.125-5.922Zm7.9,6.09c1.876,0,2.954-.924,2.954-2.324,0-1.022-.588-1.68-2.044-2.016L1.435-4.466c-.77-.182-.994-.378-.994-.7,0-.434.392-.728,1.148-.728a3.416,3.416,0,0,1,2.128.8l.91-1.19a4.4,4.4,0,0,0-2.968-1.05c-1.778,0-2.87.924-2.87,2.282,0,.994.588,1.624,2.03,1.96L2.065-2.8c.742.168.994.42.994.756,0,.448-.448.77-1.232.77A3.953,3.953,0,0,1-.539-2.142l-.868,1.26A5.036,5.036,0,0,0,1.771.168ZM13.223-3.794A3.354,3.354,0,0,0,9.667-7.336,3.684,3.684,0,0,0,5.831-3.528a3.577,3.577,0,0,0,3.85,3.7A3.966,3.966,0,0,0,13-1.4l-1.176-.9A2.6,2.6,0,0,1,9.709-1.274a2.019,2.019,0,0,1-2.2-1.89h5.67A4.608,4.608,0,0,0,13.223-3.794ZM9.653-5.922a1.719,1.719,0,0,1,1.876,1.5H7.6A1.971,1.971,0,0,1,9.653-5.922ZM19.4-1.6a3.76,3.76,0,0,1-1.092.2c-.826,0-1.218-.434-1.218-1.442V-5.7h2.282v-1.47H17.087V-8.876h-1.68v1.708h-1.47V-5.7h1.47v3.052C15.407-.728,16.289.14,18,.14a3.934,3.934,0,0,0,1.638-.322Z" transform="translate(61 114)" fill="#fff"/>
            </g>
          </g>
        </g>
      </g>
    </g>
  </g>
</svg>
