<svg xmlns="http://www.w3.org/2000/svg" xmlns:xlink="http://www.w3.org/1999/xlink" width="660" height="588" viewBox="0 0 660 588">
  <defs>
    <filter id="Rectangle_436" x="38" y="0" width="346" height="260" filterUnits="userSpaceOnUse">
      <feOffset dy="5" input="SourceAlpha"/>
      <feGaussianBlur stdDeviation="10" result="blur"/>
      <feFlood flood-color="#3c50e0" flood-opacity="0.149"/>
      <feComposite operator="in" in2="blur"/>
      <feComposite in="SourceGraphic"/>
    </filter>
    <filter id="Rectangle_436-2" x="354" y="22" width="196" height="196" filterUnits="userSpaceOnUse">
      <feOffset dy="5" input="SourceAlpha"/>
      <feGaussianBlur stdDeviation="10" result="blur-2"/>
      <feFlood flood-color="#3c50e0" flood-opacity="0.149"/>
      <feComposite operator="in" in2="blur-2"/>
      <feComposite in="SourceGraphic"/>
    </filter>
    <filter id="Rectangle_436-3" x="0" y="188" width="523" height="264" filterUnits="userSpaceOnUse">
      <feOffset dy="5" input="SourceAlpha"/>
      <feGaussianBlur stdDeviation="10" result="blur-3"/>
      <feFlood flood-color="#3c50e0" flood-opacity="0.149"/>
      <feComposite operator="in" in2="blur-3"/>
      <feComposite in="SourceGraphic"/>
    </filter>
    <filter id="Rectangle_436-4" x="314" y="342" width="346" height="246" filterUnits="userSpaceOnUse">
      <feOffset dy="5" input="SourceAlpha"/>
      <feGaussianBlur stdDeviation="10" result="blur-4"/>
      <feFlood flood-color="#3c50e0" flood-opacity="0.149"/>
      <feComposite operator="in" in2="blur-4"/>
      <feComposite in="SourceGraphic"/>
    </filter>
  </defs>
  <g id="addon-02" transform="translate(-420 -2791)">
    <g id="setting_1" data-name="setting 1" transform="translate(154 1146)">
      <g transform="matrix(1, 0, 0, 1, 266, 1645)" filter="url(#Rectangle_436)">
        <rect id="Rectangle_436-5" data-name="Rectangle 436" width="286" height="200" rx="10" transform="translate(68 25)" fill="#fff"/>
      </g>
      <g id="Aside" transform="translate(0 10)">
        <g id="Disable" transform="translate(8)">
          <path id="Path_735" data-name="Path 735" d="M6.02-5.7v1.54h2.3v2A4.6,4.6,0,0,1,5.88-1.5,3.179,3.179,0,0,1,2.464-4.872,3.189,3.189,0,0,1,5.712-8.3,3.074,3.074,0,0,1,8.246-7.084l1.484-.98a4.977,4.977,0,0,0-4-1.9A4.96,4.96,0,0,0,.644-4.858,4.893,4.893,0,0,0,5.824.168,6.65,6.65,0,0,0,9.982-1.26V-5.7ZM15.442.168a3.668,3.668,0,0,0,3.794-3.752,3.66,3.66,0,0,0-3.794-3.752,3.672,3.672,0,0,0-3.808,3.752A3.68,3.68,0,0,0,15.442.168Zm0-1.54a2.075,2.075,0,0,1-2.1-2.212,2.064,2.064,0,0,1,2.1-2.2,2.061,2.061,0,0,1,2.086,2.2A2.072,2.072,0,0,1,15.442-1.372Zm8.75,1.54a3.668,3.668,0,0,0,3.794-3.752,3.66,3.66,0,0,0-3.794-3.752,3.672,3.672,0,0,0-3.808,3.752A3.68,3.68,0,0,0,24.192.168Zm0-1.54a2.075,2.075,0,0,1-2.1-2.212,2.064,2.064,0,0,1,2.1-2.2,2.061,2.061,0,0,1,2.086,2.2A2.072,2.072,0,0,1,24.192-1.372Zm10.57-5.8v.56a3.143,3.143,0,0,0-2.072-.728,3.566,3.566,0,0,0-3.556,3.654A3.538,3.538,0,0,0,32.69-.07a3.132,3.132,0,0,0,2.072-.714v.6a1.793,1.793,0,0,1-2.03,1.862A3.74,3.74,0,0,1,30.282.658L29.274,1.89A4.938,4.938,0,0,0,32.76,3.22c2.268,0,3.682-1.274,3.682-3.4V-7.168ZM32.928-1.582a2.026,2.026,0,0,1-2.086-2.1A2.03,2.03,0,0,1,32.928-5.8a2.406,2.406,0,0,1,1.834.84v2.534A2.406,2.406,0,0,1,32.928-1.582ZM38.458,0h1.68V-10.332h-1.68ZM49.112-3.794a3.354,3.354,0,0,0-3.556-3.542A3.684,3.684,0,0,0,41.72-3.528a3.577,3.577,0,0,0,3.85,3.7A3.966,3.966,0,0,0,48.888-1.4l-1.176-.9A2.6,2.6,0,0,1,45.6-1.274a2.019,2.019,0,0,1-2.2-1.89h5.67A4.608,4.608,0,0,0,49.112-3.794Zm-3.57-2.128a1.719,1.719,0,0,1,1.876,1.5H43.484A1.971,1.971,0,0,1,45.542-5.922Z" transform="translate(351 1704)" fill="#07003b"/>
          <g id="radio" transform="translate(-18)">
            <g id="Rectangle_535" data-name="Rectangle 535" transform="translate(562 1690)" fill="#3c50e0" stroke="rgba(60,80,224,0.4)" stroke-width="2">
              <rect width="43" height="20" rx="10" stroke="none"/>
              <rect x="1" y="1" width="41" height="18" rx="9" fill="none"/>
            </g>
            <rect id="Rectangle_551" data-name="Rectangle 551" width="12" height="12" rx="6" transform="translate(589 1694)" fill="#ff5670"/>
          </g>
        </g>
        <g id="Disable-2" data-name="Disable" transform="translate(8 40)">
          <g id="radio-2" data-name="radio" transform="translate(-18)">
            <g id="Rectangle_535-2" data-name="Rectangle 535" transform="translate(562 1690)" fill="#fff" stroke="rgba(60,80,224,0.4)" stroke-width="2">
              <rect width="43" height="20" rx="10" stroke="none"/>
              <rect x="1" y="1" width="41" height="18" rx="9" fill="none"/>
            </g>
            <rect id="Rectangle_551-2" data-name="Rectangle 551" width="12" height="12" rx="6" transform="translate(566 1694)" fill="#ff5670"/>
          </g>
          <path id="Path_736" data-name="Path 736" d="M8.05-8.162V-9.8H1.176V0H2.94V-3.948H7.63V-5.586H2.94V-8.162Zm6.79.994v.546a3.2,3.2,0,0,0-2.058-.714,3.6,3.6,0,0,0-3.57,3.752A3.6,3.6,0,0,0,12.782.168,3.2,3.2,0,0,0,14.84-.546V0h1.68V-7.168Zm-1.806,5.8A2.078,2.078,0,0,1,10.92-3.584a2.067,2.067,0,0,1,2.114-2.2,2.315,2.315,0,0,1,1.806.826v2.744A2.329,2.329,0,0,1,13.034-1.372ZM21.9.168a3.806,3.806,0,0,0,3.248-1.68L23.9-2.45a2.446,2.446,0,0,1-1.974,1.078,2.08,2.08,0,0,1-2.086-2.212,2.066,2.066,0,0,1,2.072-2.2A2.206,2.206,0,0,1,23.744-4.76L25.06-5.8a3.785,3.785,0,0,0-3.136-1.54,3.706,3.706,0,0,0-3.808,3.794A3.623,3.623,0,0,0,21.9.168ZM33.432-3.794a3.354,3.354,0,0,0-3.556-3.542A3.684,3.684,0,0,0,26.04-3.528a3.577,3.577,0,0,0,3.85,3.7A3.966,3.966,0,0,0,33.208-1.4l-1.176-.9a2.6,2.6,0,0,1-2.114,1.022,2.019,2.019,0,0,1-2.2-1.89h5.67A4.608,4.608,0,0,0,33.432-3.794Zm-3.57-2.128a1.719,1.719,0,0,1,1.876,1.5H27.8A1.971,1.971,0,0,1,29.862-5.922Zm8.932-1.414a3.2,3.2,0,0,0-2.058.714v-3.71h-1.68V0h1.68V-.546a3.2,3.2,0,0,0,2.058.714,3.6,3.6,0,0,0,3.57-3.752A3.6,3.6,0,0,0,38.794-7.336Zm-.252,5.964a2.329,2.329,0,0,1-1.806-.84V-4.956a2.315,2.315,0,0,1,1.806-.826,2.067,2.067,0,0,1,2.114,2.2A2.078,2.078,0,0,1,38.542-1.372ZM47.32.168a3.668,3.668,0,0,0,3.794-3.752A3.66,3.66,0,0,0,47.32-7.336a3.672,3.672,0,0,0-3.808,3.752A3.68,3.68,0,0,0,47.32.168Zm0-1.54a2.075,2.075,0,0,1-2.1-2.212,2.064,2.064,0,0,1,2.1-2.2,2.061,2.061,0,0,1,2.086,2.2A2.072,2.072,0,0,1,47.32-1.372ZM56.07.168a3.668,3.668,0,0,0,3.794-3.752A3.66,3.66,0,0,0,56.07-7.336a3.672,3.672,0,0,0-3.808,3.752A3.68,3.68,0,0,0,56.07.168Zm0-1.54a2.075,2.075,0,0,1-2.1-2.212,2.064,2.064,0,0,1,2.1-2.2,2.061,2.061,0,0,1,2.086,2.2A2.072,2.072,0,0,1,56.07-1.372ZM66.654,0h2.114l-3.36-4.074,3.164-3.094H66.43L63.126-4v-6.328h-1.68V0h1.68V-1.862l1.106-1.064Z" transform="translate(351 1704)" fill="#07003b"/>
        </g>
        <g id="Disable-3" data-name="Disable" transform="translate(8 80)">
          <g id="radio-3" data-name="radio" transform="translate(-18)">
            <g id="Rectangle_535-3" data-name="Rectangle 535" transform="translate(562 1690)" fill="#fff" stroke="rgba(60,80,224,0.4)" stroke-width="2">
              <rect width="43" height="20" rx="10" stroke="none"/>
              <rect x="1" y="1" width="41" height="18" rx="9" fill="none"/>
            </g>
            <rect id="Rectangle_551-3" data-name="Rectangle 551" width="12" height="12" rx="6" transform="translate(566 1694)" fill="#ff5670"/>
          </g>
          <path id="Path_737" data-name="Path 737" d="M8.3-9.8H.308v1.652H3.416V0H5.194V-8.148H8.3Zm10.43,2.632-1.6,4.9-1.778-4.9H13.776L12-2.24,10.4-7.168H8.624L11.032,0h1.736l1.806-5.012L16.38,0H18.1l2.422-7.168ZM22.61-8.12A1.067,1.067,0,0,0,23.674-9.2a1.073,1.073,0,0,0-1.064-1.064A1.088,1.088,0,0,0,21.518-9.2,1.082,1.082,0,0,0,22.61-8.12ZM21.756,0h1.68V-7.168h-1.68Zm8.316-1.6a3.76,3.76,0,0,1-1.092.2c-.826,0-1.218-.434-1.218-1.442V-5.7h2.282v-1.47H27.762V-8.876h-1.68v1.708h-1.47V-5.7h1.47v3.052c0,1.918.882,2.786,2.59,2.786A3.934,3.934,0,0,0,30.31-.182Zm6.174,0a3.76,3.76,0,0,1-1.092.2c-.826,0-1.218-.434-1.218-1.442V-5.7h2.282v-1.47H33.936V-8.876h-1.68v1.708h-1.47V-5.7h1.47v3.052c0,1.918.882,2.786,2.59,2.786a3.934,3.934,0,0,0,1.638-.322Zm8.414-2.2A3.354,3.354,0,0,0,41.1-7.336a3.684,3.684,0,0,0-3.836,3.808,3.577,3.577,0,0,0,3.85,3.7A3.966,3.966,0,0,0,44.436-1.4L43.26-2.3a2.6,2.6,0,0,1-2.114,1.022,2.019,2.019,0,0,1-2.2-1.89h5.67A4.608,4.608,0,0,0,44.66-3.794ZM41.09-5.922a1.719,1.719,0,0,1,1.876,1.5H39.032A1.971,1.971,0,0,1,41.09-5.922Zm8.848-1.414A2.51,2.51,0,0,0,47.95-6.4v-.77H46.27V0h1.68V-4.662a2.238,2.238,0,0,1,1.974-1.092,3.907,3.907,0,0,1,.658.07l.1-1.554A2.927,2.927,0,0,0,49.938-7.336Z" transform="translate(351 1704)" fill="#07003b"/>
        </g>
        <g id="Disable-4" data-name="Disable" transform="translate(8 120)">
          <g id="radio-4" data-name="radio" transform="translate(-18)">
            <g id="Rectangle_535-4" data-name="Rectangle 535" transform="translate(562 1690)" fill="#fff" stroke="rgba(60,80,224,0.4)" stroke-width="2">
              <rect width="43" height="20" rx="10" stroke="none"/>
              <rect x="1" y="1" width="41" height="18" rx="9" fill="none"/>
            </g>
            <rect id="Rectangle_551-4" data-name="Rectangle 551" width="12" height="12" rx="6" transform="translate(566 1694)" fill="#ff5670"/>
          </g>
          <path id="Path_738" data-name="Path 738" d="M2.94-1.652V-9.8H1.176V0H7.644V-1.652ZM10-8.12A1.067,1.067,0,0,0,11.06-9.2,1.073,1.073,0,0,0,10-10.262,1.088,1.088,0,0,0,8.9-9.2,1.082,1.082,0,0,0,10-8.12ZM9.142,0h1.68V-7.168H9.142ZM16.7-7.336a3.431,3.431,0,0,0-2.184.77v-.6h-1.68V0h1.68V-4.942a2.3,2.3,0,0,1,1.764-.84c.938,0,1.526.616,1.526,1.848V0h1.68V-4.3A2.713,2.713,0,0,0,16.7-7.336ZM26.642,0h2.114L25.4-4.074,28.56-7.168H26.418L23.114-4v-6.328h-1.68V0h1.68V-1.862L24.22-2.926Zm9.744-3.794A3.354,3.354,0,0,0,32.83-7.336a3.684,3.684,0,0,0-3.836,3.808,3.577,3.577,0,0,0,3.85,3.7A3.966,3.966,0,0,0,36.162-1.4l-1.176-.9a2.6,2.6,0,0,1-2.114,1.022,2.019,2.019,0,0,1-2.2-1.89h5.67A4.608,4.608,0,0,0,36.386-3.794Zm-3.57-2.128a1.719,1.719,0,0,1,1.876,1.5H30.758A1.971,1.971,0,0,1,32.816-5.922Zm10.374-4.41v3.71a3.2,3.2,0,0,0-2.058-.714,3.6,3.6,0,0,0-3.57,3.752A3.6,3.6,0,0,0,41.132.168,3.2,3.2,0,0,0,43.19-.546V0h1.68V-10.332Zm-1.806,8.96A2.078,2.078,0,0,1,39.27-3.584a2.067,2.067,0,0,1,2.114-2.2,2.315,2.315,0,0,1,1.806.826v2.744A2.329,2.329,0,0,1,41.384-1.372Zm6.37-6.748A1.067,1.067,0,0,0,48.818-9.2a1.073,1.073,0,0,0-1.064-1.064A1.088,1.088,0,0,0,46.662-9.2,1.082,1.082,0,0,0,47.754-8.12ZM46.9,0h1.68V-7.168H46.9Zm7.56-7.336a3.431,3.431,0,0,0-2.184.77v-.6H50.6V0h1.68V-4.942a2.3,2.3,0,0,1,1.764-.84c.938,0,1.526.616,1.526,1.848V0h1.68V-4.3A2.713,2.713,0,0,0,54.46-7.336Z" transform="translate(351 1704)" fill="#07003b"/>
        </g>
      </g>
    </g>
    <g id="setting_1-2" data-name="setting 1" transform="translate(477 1153)">
      <g transform="matrix(1, 0, 0, 1, -57, 1638)" filter="url(#Rectangle_436-2)">
        <rect id="Rectangle_436-6" data-name="Rectangle 436" width="136" height="136" rx="10" transform="translate(384 47)" fill="#fff"/>
      </g>
      <g id="Facebook" transform="translate(176.898 -2524)">
        <rect id="Retângulo_Arredondado_5_copiar_4" data-name="Retângulo Arredondado 5 copiar 4" width="44" height="44" rx="5" transform="translate(222.102 4229)" fill="#1773ea"/>
        <rect id="Retângulo_Arredondado_5_copiar_4-2" data-name="Retângulo Arredondado 5 copiar 4" width="36" height="36" rx="3" transform="translate(226.102 4233)" fill="#fff"/>
        <path id="Path_739" data-name="Path 739" d="M5.817-7.812l.694-4.524H2.17v-2.936a2.262,2.262,0,0,1,2.551-2.444H6.695v-3.852a24.069,24.069,0,0,0-3.5-.306c-3.575,0-5.912,2.167-5.912,6.09v3.448H-6.695v4.524h3.974V3.125H2.17V-7.812Z" transform="translate(244.102 4261)" fill="#1773ea"/>
      </g>
      <g id="Facebook-2" data-name="Facebook" transform="translate(124.898 -2472)">
        <rect id="Retângulo_Arredondado_5_copiar_4-3" data-name="Retângulo Arredondado 5 copiar 4" width="44" height="44" rx="5" transform="translate(222.102 4229)" fill="#299fe9"/>
        <rect id="Retângulo_Arredondado_5_copiar_4-4" data-name="Retângulo Arredondado 5 copiar 4" width="36" height="36" rx="3" transform="translate(226.102 4233)" fill="#fff"/>
        <path id="Path_740" data-name="Path 740" d="M22.43-14.467A11.014,11.014,0,0,0,25-17.116a10.272,10.272,0,0,1-2.95.793A5.11,5.11,0,0,0,24.3-19.147a10.087,10.087,0,0,1-3.252,1.237,5.112,5.112,0,0,0-3.744-1.618A5.121,5.121,0,0,0,12.183-14.4a5.784,5.784,0,0,0,.127,1.174A14.564,14.564,0,0,1,1.745-18.591a5.085,5.085,0,0,0-.7,2.586,5.12,5.12,0,0,0,2.284,4.267,5.16,5.16,0,0,1-2.316-.65v.063A5.124,5.124,0,0,0,5.124-7.3a5.418,5.418,0,0,1-1.348.174A6.458,6.458,0,0,1,2.808-7.2,5.133,5.133,0,0,0,7.6-3.648,10.262,10.262,0,0,1,1.237-1.459,10.6,10.6,0,0,1,0-1.523,14.479,14.479,0,0,0,7.868.777,14.478,14.478,0,0,0,22.446-13.8C22.446-14.023,22.446-14.245,22.43-14.467Z" transform="translate(232.102 4261)" fill="#299fe9"/>
      </g>
      <g id="Facebook-3" data-name="Facebook" transform="translate(176.898 -2472)">
        <rect id="Retângulo_Arredondado_5_copiar_4-5" data-name="Retângulo Arredondado 5 copiar 4" width="44" height="44" rx="5" transform="translate(222.102 4229)" fill="#2867b2"/>
        <rect id="Retângulo_Arredondado_5_copiar_4-6" data-name="Retângulo Arredondado 5 copiar 4" width="36" height="36" rx="3" transform="translate(226.102 4233)" fill="#fff"/>
        <path id="Path_741" data-name="Path 741" d="M4.9,0V-14.6H.361V0ZM2.626-16.6a2.649,2.649,0,0,0,2.626-2.651,2.628,2.628,0,0,0-2.626-2.626A2.628,2.628,0,0,0,0-19.248,2.648,2.648,0,0,0,2.626-16.6ZM21.87,0h0V-8.022c0-3.926-.844-6.948-5.434-6.948a4.765,4.765,0,0,0-4.291,2.358h-.063V-14.6H7.737V0h4.53V-7.231c0-1.9.361-3.745,2.719-3.745,2.324,0,2.358,2.173,2.358,3.867V0Z" transform="translate(233.102 4261)" fill="#2867b2"/>
      </g>
      <g id="Facebook-4" data-name="Facebook" transform="translate(124.898 -2524)">
        <rect id="Retângulo_Arredondado_5_copiar_4-7" data-name="Retângulo Arredondado 5 copiar 4" width="44" height="44" rx="5" transform="translate(222.102 4229)" fill="#4285f4"/>
        <rect id="Retângulo_Arredondado_5_copiar_4-8" data-name="Retângulo Arredondado 5 copiar 4" width="36" height="36" rx="3" transform="translate(226.102 4233)" fill="#fff"/>
        <g id="google-icon" transform="translate(232.599 4239.264)">
          <path id="Path_182" data-name="Path 182" d="M141.817,109.16a10.057,10.057,0,0,0-.248-2.4H130.55v4.355h6.468a5.735,5.735,0,0,1-2.4,3.808l-.022.146,3.484,2.7.241.024a11.475,11.475,0,0,0,3.495-8.633" transform="translate(-118.814 -97.163)" fill="#4285f4"/>
          <path id="Path_183" data-name="Path 183" d="M24.41,165.785a11.186,11.186,0,0,0,7.772-2.843l-3.7-2.869a6.946,6.946,0,0,1-4.069,1.174,7.065,7.065,0,0,1-6.677-4.877l-.138.012-3.623,2.8-.047.132a11.728,11.728,0,0,0,10.485,6.468" transform="translate(-12.673 -142.312)" fill="#34a853"/>
          <path id="Path_184" data-name="Path 184" d="M5.06,78.959a7.225,7.225,0,0,1-.391-2.321,7.593,7.593,0,0,1,.378-2.321l-.007-.156L1.372,71.312l-.12.057a11.712,11.712,0,0,0,0,10.537L5.06,78.959" transform="translate(0 -64.901)" fill="#fbbc05"/>
          <path id="Path_185" data-name="Path 185" d="M24.41,4.538a6.5,6.5,0,0,1,4.538,1.747L32.26,3.051A11.276,11.276,0,0,0,24.41,0,11.728,11.728,0,0,0,13.925,6.468L17.72,9.415a7.094,7.094,0,0,1,6.69-4.877" transform="translate(-12.673)" fill="#eb4335"/>
        </g>
      </g>
    </g>
    <g id="Image" transform="translate(45 229)">
      <g id="Icon" transform="translate(405 2775)">
        <g id="Login_Screen" data-name="Login Screen">
          <g transform="matrix(1, 0, 0, 1, -30, -213)" filter="url(#Rectangle_436-3)">
            <rect id="Rectangle_436-7" data-name="Rectangle 436" width="463" height="204" rx="10" transform="translate(30 213)" fill="#fff"/>
          </g>
          <g id="Height" transform="translate(24.999 20)">
            <g id="radio-5" data-name="radio" transform="translate(0 30)">
              <path id="Path_742" data-name="Path 742" d="M4.912.192c2.656,0,4.24-1.408,4.24-3.5,0-1.568-.912-2.56-2.736-3.008L4.448-6.784c-1.28-.3-1.712-.736-1.712-1.376,0-.8.72-1.408,2.048-1.408A4.052,4.052,0,0,1,7.6-8.416L8.912-9.824a5.867,5.867,0,0,0-4.1-1.568C2.32-11.392.7-9.984.7-8.032c0,1.488.976,2.512,2.752,2.944l1.968.464c1.216.288,1.68.768,1.68,1.456,0,.88-.768,1.52-2.128,1.52A5.539,5.539,0,0,1,1.664-2.88L.5-1.3A7.038,7.038,0,0,0,4.912.192ZM16.3-1.824a4.3,4.3,0,0,1-1.248.224c-.944,0-1.392-.5-1.392-1.648V-6.512h2.608v-1.68H13.664v-1.952h-1.92v1.952h-1.68v1.68h1.68v3.488C11.744-.832,12.752.16,14.7.16a4.5,4.5,0,0,0,1.872-.368ZM25.92-4.336a3.833,3.833,0,0,0-4.064-4.048,4.21,4.21,0,0,0-4.384,4.352,4.088,4.088,0,0,0,4.4,4.224A4.532,4.532,0,0,0,25.664-1.6L24.32-2.624A2.972,2.972,0,0,1,21.9-1.456a2.308,2.308,0,0,1-2.512-2.16h6.48A5.266,5.266,0,0,0,25.92-4.336ZM21.84-6.768a1.964,1.964,0,0,1,2.144,1.712h-4.5A2.252,2.252,0,0,1,21.84-6.768ZM32.048-8.384a3.561,3.561,0,0,0-2.368.832v-.64H27.76V3.488h1.92V-.64a3.561,3.561,0,0,0,2.368.832A4.114,4.114,0,0,0,36.112-4.1,4.114,4.114,0,0,0,32.048-8.384ZM31.76-1.568a2.67,2.67,0,0,1-2.08-.96V-5.664a2.655,2.655,0,0,1,2.08-.944A2.35,2.35,0,0,1,34.16-4.1,2.363,2.363,0,0,1,31.76-1.568ZM41.04.192c2.144,0,3.376-1.056,3.376-2.656,0-1.168-.672-1.92-2.336-2.3L40.656-5.1c-.88-.208-1.136-.432-1.136-.8,0-.5.448-.832,1.312-.832a3.9,3.9,0,0,1,2.432.912l1.04-1.36a5.03,5.03,0,0,0-3.392-1.2c-2.032,0-3.28,1.056-3.28,2.608,0,1.136.672,1.856,2.32,2.24l1.424.336c.848.192,1.136.48,1.136.864,0,.512-.512.88-1.408.88a4.518,4.518,0,0,1-2.7-.992l-.992,1.44A5.756,5.756,0,0,0,41.04.192ZM55.2-1.824a4.3,4.3,0,0,1-1.248.224c-.944,0-1.392-.5-1.392-1.648V-6.512h2.608v-1.68H52.56v-1.952H50.64v1.952H48.96v1.68h1.68v3.488C50.64-.832,51.648.16,53.6.16a4.5,4.5,0,0,0,1.872-.368ZM60.72.192A4.192,4.192,0,0,0,65.056-4.1,4.183,4.183,0,0,0,60.72-8.384,4.2,4.2,0,0,0,56.368-4.1,4.205,4.205,0,0,0,60.72.192Zm0-1.76A2.372,2.372,0,0,1,58.32-4.1a2.358,2.358,0,0,1,2.4-2.512A2.355,2.355,0,0,1,63.1-4.1,2.368,2.368,0,0,1,60.72-1.568ZM71.76-9.28a1.219,1.219,0,0,0,1.216-1.232,1.226,1.226,0,0,0-1.216-1.216,1.243,1.243,0,0,0-1.248,1.216A1.236,1.236,0,0,0,71.76-9.28ZM70.784,0H72.7V-8.192h-1.92Zm8.64-8.384a3.921,3.921,0,0,0-2.5.88v-.688h-1.92V0h1.92V-5.648a2.628,2.628,0,0,1,2.016-.96c1.072,0,1.744.7,1.744,2.112V0h1.92V-4.912C82.608-7.12,81.312-8.384,79.424-8.384Zm10.624,6.56A4.3,4.3,0,0,1,88.8-1.6c-.944,0-1.392-.5-1.392-1.648V-6.512h2.608v-1.68H87.408v-1.952h-1.92v1.952h-1.68v1.68h1.68v3.488C85.488-.832,86.5.16,88.448.16A4.5,4.5,0,0,0,90.32-.208Zm9.616-2.512A3.833,3.833,0,0,0,95.6-8.384a4.21,4.21,0,0,0-4.384,4.352,4.088,4.088,0,0,0,4.4,4.224A4.532,4.532,0,0,0,99.408-1.6L98.064-2.624a2.972,2.972,0,0,1-2.416,1.168,2.308,2.308,0,0,1-2.512-2.16h6.48A5.266,5.266,0,0,0,99.664-4.336Zm-4.08-2.432a1.964,1.964,0,0,1,2.144,1.712h-4.5A2.252,2.252,0,0,1,95.584-6.768ZM107.44-8.192v.64a3.591,3.591,0,0,0-2.368-.832,4.075,4.075,0,0,0-4.064,4.176A4.044,4.044,0,0,0,105.072-.08,3.579,3.579,0,0,0,107.44-.9v.688a2.049,2.049,0,0,1-2.32,2.128,4.274,4.274,0,0,1-2.8-1.168L101.168,2.16a5.643,5.643,0,0,0,3.984,1.52c2.592,0,4.208-1.456,4.208-3.888V-8.192Zm-2.1,6.384a2.316,2.316,0,0,1-2.384-2.4,2.32,2.32,0,0,1,2.384-2.416,2.75,2.75,0,0,1,2.1.96v2.9A2.75,2.75,0,0,1,105.344-1.808Zm10.512-6.576a2.868,2.868,0,0,0-2.272,1.072v-.88h-1.92V0h1.92V-5.328a2.558,2.558,0,0,1,2.256-1.248,4.465,4.465,0,0,1,.752.08l.112-1.776A3.345,3.345,0,0,0,115.856-8.384Zm8.016.192v.624a3.653,3.653,0,0,0-2.352-.816A4.117,4.117,0,0,0,117.44-4.1,4.117,4.117,0,0,0,121.52.192a3.653,3.653,0,0,0,2.352-.816V0h1.92V-8.192Zm-2.064,6.624A2.375,2.375,0,0,1,119.392-4.1a2.362,2.362,0,0,1,2.416-2.512,2.646,2.646,0,0,1,2.064.944v3.136A2.661,2.661,0,0,1,121.808-1.568Zm11.584-.256a4.3,4.3,0,0,1-1.248.224c-.944,0-1.392-.5-1.392-1.648V-6.512h2.608v-1.68h-2.608v-1.952h-1.92v1.952h-1.68v1.68h1.68v3.488c0,2.192,1.008,3.184,2.96,3.184a4.5,4.5,0,0,0,1.872-.368Zm9.616-2.512a3.833,3.833,0,0,0-4.064-4.048,4.21,4.21,0,0,0-4.384,4.352,4.088,4.088,0,0,0,4.4,4.224A4.532,4.532,0,0,0,142.752-1.6l-1.344-1.024a2.972,2.972,0,0,1-2.416,1.168,2.308,2.308,0,0,1-2.512-2.16h6.48A5.266,5.266,0,0,0,143.008-4.336Zm-4.08-2.432a1.964,1.964,0,0,1,2.144,1.712h-4.5A2.252,2.252,0,0,1,138.928-6.768Zm14.96,4.944a4.3,4.3,0,0,1-1.248.224c-.944,0-1.392-.5-1.392-1.648V-6.512h2.608v-1.68h-2.608v-1.952h-1.92v1.952h-1.68v1.68h1.68v3.488c0,2.192,1.008,3.184,2.96,3.184a4.5,4.5,0,0,0,1.872-.368Zm6.224-6.56a3.921,3.921,0,0,0-2.5.88v-4.3H155.7V0h1.92V-5.648a2.628,2.628,0,0,1,2.016-.96c1.072,0,1.744.7,1.744,2.112V0h1.92V-4.912C163.3-7.12,162-8.384,160.112-8.384Zm13.36,4.048a3.833,3.833,0,0,0-4.064-4.048,4.21,4.21,0,0,0-4.384,4.352,4.088,4.088,0,0,0,4.4,4.224A4.532,4.532,0,0,0,173.216-1.6l-1.344-1.024a2.972,2.972,0,0,1-2.416,1.168,2.308,2.308,0,0,1-2.512-2.16h6.48A5.266,5.266,0,0,0,173.472-4.336Zm-4.08-2.432a1.964,1.964,0,0,1,2.144,1.712h-4.5A2.252,2.252,0,0,1,169.392-6.768ZM182.3.192c2.144,0,3.376-1.056,3.376-2.656,0-1.168-.672-1.92-2.336-2.3L181.92-5.1c-.88-.208-1.136-.432-1.136-.8,0-.5.448-.832,1.312-.832a3.9,3.9,0,0,1,2.432.912l1.04-1.36a5.03,5.03,0,0,0-3.392-1.2c-2.032,0-3.28,1.056-3.28,2.608,0,1.136.672,1.856,2.32,2.24l1.424.336c.848.192,1.136.48,1.136.864,0,.512-.512.88-1.408.88a4.518,4.518,0,0,1-2.7-.992l-.992,1.44A5.756,5.756,0,0,0,182.3.192Zm8.992,0A4.192,4.192,0,0,0,195.632-4.1,4.183,4.183,0,0,0,191.3-8.384,4.2,4.2,0,0,0,186.944-4.1,4.205,4.205,0,0,0,191.3.192Zm0-1.76A2.372,2.372,0,0,1,188.9-4.1a2.358,2.358,0,0,1,2.4-2.512A2.355,2.355,0,0,1,193.68-4.1,2.368,2.368,0,0,1,191.3-1.568Zm9.968,1.76a4.35,4.35,0,0,0,3.712-1.92L203.552-2.8A2.8,2.8,0,0,1,201.3-1.568,2.378,2.378,0,0,1,198.912-4.1a2.361,2.361,0,0,1,2.368-2.512,2.521,2.521,0,0,1,2.1,1.168l1.5-1.184a4.326,4.326,0,0,0-3.584-1.76,4.235,4.235,0,0,0-4.352,4.336A4.14,4.14,0,0,0,201.264.192ZM207.44-9.28a1.219,1.219,0,0,0,1.216-1.232,1.226,1.226,0,0,0-1.216-1.216,1.243,1.243,0,0,0-1.248,1.216A1.236,1.236,0,0,0,207.44-9.28ZM206.464,0h1.92V-8.192h-1.92Zm10.16-8.192v.624a3.653,3.653,0,0,0-2.352-.816,4.117,4.117,0,0,0-4.08,4.288,4.117,4.117,0,0,0,4.08,4.288,3.653,3.653,0,0,0,2.352-.816V0h1.92V-8.192ZM214.56-1.568A2.375,2.375,0,0,1,212.144-4.1a2.362,2.362,0,0,1,2.416-2.512,2.646,2.646,0,0,1,2.064.944v3.136A2.661,2.661,0,0,1,214.56-1.568ZM220.864,0h1.92V-11.808h-1.92Zm8.144,0h1.92V-11.808h-1.92Zm8.08.192A4.192,4.192,0,0,0,241.424-4.1a4.183,4.183,0,0,0-4.336-4.288A4.2,4.2,0,0,0,232.736-4.1,4.205,4.205,0,0,0,237.088.192Zm0-1.76a2.372,2.372,0,0,1-2.4-2.528,2.358,2.358,0,0,1,2.4-2.512A2.355,2.355,0,0,1,239.472-4.1,2.368,2.368,0,0,1,237.088-1.568Zm12.08-6.624v.64a3.591,3.591,0,0,0-2.368-.832,4.075,4.075,0,0,0-4.064,4.176A4.044,4.044,0,0,0,246.8-.08,3.579,3.579,0,0,0,249.168-.9v.688a2.049,2.049,0,0,1-2.32,2.128,4.274,4.274,0,0,1-2.8-1.168L242.9,2.16a5.643,5.643,0,0,0,3.984,1.52c2.592,0,4.208-1.456,4.208-3.888V-8.192Zm-2.1,6.384a2.316,2.316,0,0,1-2.384-2.4,2.32,2.32,0,0,1,2.384-2.416,2.75,2.75,0,0,1,2.1.96v2.9A2.75,2.75,0,0,1,247.072-1.808Zm7.3-7.472a1.219,1.219,0,0,0,1.216-1.232,1.226,1.226,0,0,0-1.216-1.216,1.243,1.243,0,0,0-1.248,1.216A1.236,1.236,0,0,0,254.368-9.28ZM253.392,0h1.92V-8.192h-1.92Zm8.64-8.384a3.921,3.921,0,0,0-2.5.88v-.688h-1.92V0h1.92V-5.648a2.628,2.628,0,0,1,2.016-.96c1.072,0,1.744.7,1.744,2.112V0h1.92V-4.912C265.216-7.12,263.92-8.384,262.032-8.384Z" transform="translate(0 -8)" fill="#07003b"/>
              <g id="Group_345" data-name="Group 345">
                <path id="Path_743" data-name="Path 743" d="M4.3.168c2.324,0,3.71-1.232,3.71-3.066,0-1.372-.8-2.24-2.394-2.632L3.892-5.936c-1.12-.266-1.5-.644-1.5-1.2,0-.7.63-1.232,1.792-1.232A3.545,3.545,0,0,1,6.65-7.364L7.8-8.6A5.134,5.134,0,0,0,4.214-9.968c-2.184,0-3.6,1.232-3.6,2.94,0,1.3.854,2.2,2.408,2.576l1.722.406c1.064.252,1.47.672,1.47,1.274,0,.77-.672,1.33-1.862,1.33a4.847,4.847,0,0,1-2.9-1.078L.434-1.134A6.158,6.158,0,0,0,4.3.168ZM14.266-1.6a3.76,3.76,0,0,1-1.092.2c-.826,0-1.218-.434-1.218-1.442V-5.7h2.282v-1.47H11.956V-8.876h-1.68v1.708H8.806V-5.7h1.47v3.052c0,1.918.882,2.786,2.59,2.786A3.934,3.934,0,0,0,14.5-.182Zm8.414-2.2a3.354,3.354,0,0,0-3.556-3.542,3.684,3.684,0,0,0-3.836,3.808,3.577,3.577,0,0,0,3.85,3.7A3.966,3.966,0,0,0,22.456-1.4L21.28-2.3a2.6,2.6,0,0,1-2.114,1.022,2.019,2.019,0,0,1-2.2-1.89h5.67A4.608,4.608,0,0,0,22.68-3.794ZM19.11-5.922a1.719,1.719,0,0,1,1.876,1.5H17.052A1.971,1.971,0,0,1,19.11-5.922Zm8.932-1.414a3.116,3.116,0,0,0-2.072.728v-.56H24.29V3.052h1.68V-.56a3.116,3.116,0,0,0,2.072.728A3.6,3.6,0,0,0,31.6-3.584,3.6,3.6,0,0,0,28.042-7.336ZM27.79-1.372a2.336,2.336,0,0,1-1.82-.84V-4.956a2.323,2.323,0,0,1,1.82-.826,2.056,2.056,0,0,1,2.1,2.2A2.068,2.068,0,0,1,27.79-1.372ZM38.892-9.8,36.176-8.414V-6.65l2.436-1.218V0h1.75V-9.8ZM43.33-4.466a1.119,1.119,0,0,0,1.148-1.148A1.111,1.111,0,0,0,43.33-6.762a1.111,1.111,0,0,0-1.148,1.148A1.119,1.119,0,0,0,43.33-4.466Zm0,4.592a1.111,1.111,0,0,0,1.148-1.148A1.119,1.119,0,0,0,43.33-2.17a1.119,1.119,0,0,0-1.148,1.148A1.111,1.111,0,0,0,43.33.126Z" transform="translate(0 32)" fill="#515e81"/>
                <rect id="Rectangle_688" data-name="Rectangle 688" width="248" height="10" rx="2" transform="translate(57 22)" fill="#515e81" opacity="0.3"/>
              </g>
              <g id="Group_346" data-name="Group 346">
                <path id="Path_744" data-name="Path 744" d="M4.3.168c2.324,0,3.71-1.232,3.71-3.066,0-1.372-.8-2.24-2.394-2.632L3.892-5.936c-1.12-.266-1.5-.644-1.5-1.2,0-.7.63-1.232,1.792-1.232A3.545,3.545,0,0,1,6.65-7.364L7.8-8.6A5.134,5.134,0,0,0,4.214-9.968c-2.184,0-3.6,1.232-3.6,2.94,0,1.3.854,2.2,2.408,2.576l1.722.406c1.064.252,1.47.672,1.47,1.274,0,.77-.672,1.33-1.862,1.33a4.847,4.847,0,0,1-2.9-1.078L.434-1.134A6.158,6.158,0,0,0,4.3.168ZM14.266-1.6a3.76,3.76,0,0,1-1.092.2c-.826,0-1.218-.434-1.218-1.442V-5.7h2.282v-1.47H11.956V-8.876h-1.68v1.708H8.806V-5.7h1.47v3.052c0,1.918.882,2.786,2.59,2.786A3.934,3.934,0,0,0,14.5-.182Zm8.414-2.2a3.354,3.354,0,0,0-3.556-3.542,3.684,3.684,0,0,0-3.836,3.808,3.577,3.577,0,0,0,3.85,3.7A3.966,3.966,0,0,0,22.456-1.4L21.28-2.3a2.6,2.6,0,0,1-2.114,1.022,2.019,2.019,0,0,1-2.2-1.89h5.67A4.608,4.608,0,0,0,22.68-3.794ZM19.11-5.922a1.719,1.719,0,0,1,1.876,1.5H17.052A1.971,1.971,0,0,1,19.11-5.922Zm8.932-1.414a3.116,3.116,0,0,0-2.072.728v-.56H24.29V3.052h1.68V-.56a3.116,3.116,0,0,0,2.072.728A3.6,3.6,0,0,0,31.6-3.584,3.6,3.6,0,0,0,28.042-7.336ZM27.79-1.372a2.336,2.336,0,0,1-1.82-.84V-4.956a2.323,2.323,0,0,1,1.82-.826,2.056,2.056,0,0,1,2.1,2.2A2.068,2.068,0,0,1,27.79-1.372ZM38.7-1.6,41.272-4c1.3-1.218,1.694-2.142,1.694-3.108a2.874,2.874,0,0,0-3.178-2.856,4.136,4.136,0,0,0-3.766,2.324l1.358.924a2.8,2.8,0,0,1,2.366-1.652,1.313,1.313,0,0,1,1.47,1.33c0,.63-.35,1.274-1.582,2.436l-3.458,3.22V0H43.12V-1.6Zm6.8-2.87a1.119,1.119,0,0,0,1.148-1.148A1.111,1.111,0,0,0,45.5-6.762a1.111,1.111,0,0,0-1.148,1.148A1.119,1.119,0,0,0,45.5-4.466Zm0,4.592a1.111,1.111,0,0,0,1.148-1.148A1.119,1.119,0,0,0,45.5-2.17a1.119,1.119,0,0,0-1.148,1.148A1.111,1.111,0,0,0,45.5.126Z" transform="translate(0 62)" fill="#515e81"/>
                <rect id="Rectangle_689" data-name="Rectangle 689" width="301" height="10" rx="2" transform="translate(57 52)" fill="#515e81" opacity="0.3"/>
              </g>
              <g id="Group_347" data-name="Group 347">
                <path id="Path_745" data-name="Path 745" d="M4.3.168c2.324,0,3.71-1.232,3.71-3.066,0-1.372-.8-2.24-2.394-2.632L3.892-5.936c-1.12-.266-1.5-.644-1.5-1.2,0-.7.63-1.232,1.792-1.232A3.545,3.545,0,0,1,6.65-7.364L7.8-8.6A5.134,5.134,0,0,0,4.214-9.968c-2.184,0-3.6,1.232-3.6,2.94,0,1.3.854,2.2,2.408,2.576l1.722.406c1.064.252,1.47.672,1.47,1.274,0,.77-.672,1.33-1.862,1.33a4.847,4.847,0,0,1-2.9-1.078L.434-1.134A6.158,6.158,0,0,0,4.3.168ZM14.266-1.6a3.76,3.76,0,0,1-1.092.2c-.826,0-1.218-.434-1.218-1.442V-5.7h2.282v-1.47H11.956V-8.876h-1.68v1.708H8.806V-5.7h1.47v3.052c0,1.918.882,2.786,2.59,2.786A3.934,3.934,0,0,0,14.5-.182Zm8.414-2.2a3.354,3.354,0,0,0-3.556-3.542,3.684,3.684,0,0,0-3.836,3.808,3.577,3.577,0,0,0,3.85,3.7A3.966,3.966,0,0,0,22.456-1.4L21.28-2.3a2.6,2.6,0,0,1-2.114,1.022,2.019,2.019,0,0,1-2.2-1.89h5.67A4.608,4.608,0,0,0,22.68-3.794ZM19.11-5.922a1.719,1.719,0,0,1,1.876,1.5H17.052A1.971,1.971,0,0,1,19.11-5.922Zm8.932-1.414a3.116,3.116,0,0,0-2.072.728v-.56H24.29V3.052h1.68V-.56a3.116,3.116,0,0,0,2.072.728A3.6,3.6,0,0,0,31.6-3.584,3.6,3.6,0,0,0,28.042-7.336ZM27.79-1.372a2.336,2.336,0,0,1-1.82-.84V-4.956a2.323,2.323,0,0,1,1.82-.826,2.056,2.056,0,0,1,2.1,2.2A2.068,2.068,0,0,1,27.79-1.372Zm13.426-3.64A2.19,2.19,0,0,0,42.8-7.238c0-1.624-1.232-2.73-3.29-2.73A4.188,4.188,0,0,0,36.022-8.3l1.134,1.078A2.907,2.907,0,0,1,39.424-8.4c1.078,0,1.638.56,1.638,1.288,0,.784-.63,1.344-1.848,1.344H38.136v1.554h.882c1.484,0,2.184.546,2.184,1.386S40.53-1.4,39.368-1.4a3.439,3.439,0,0,1-2.422-1.05L35.91-1.232a4.669,4.669,0,0,0,3.5,1.4c2.2,0,3.528-1.19,3.528-2.828A2.339,2.339,0,0,0,41.216-5.012Zm4.032.546A1.119,1.119,0,0,0,46.4-5.614a1.111,1.111,0,0,0-1.148-1.148A1.111,1.111,0,0,0,44.1-5.614,1.119,1.119,0,0,0,45.248-4.466Zm0,4.592A1.111,1.111,0,0,0,46.4-1.022,1.119,1.119,0,0,0,45.248-2.17,1.119,1.119,0,0,0,44.1-1.022,1.111,1.111,0,0,0,45.248.126Z" transform="translate(0 92)" fill="#515e81"/>
                <rect id="Rectangle_690" data-name="Rectangle 690" width="199" height="10" rx="2" transform="translate(57 82)" fill="#515e81" opacity="0.3"/>
              </g>
              <g id="Group_348" data-name="Group 348">
                <path id="Path_746" data-name="Path 746" d="M4.3.168c2.324,0,3.71-1.232,3.71-3.066,0-1.372-.8-2.24-2.394-2.632L3.892-5.936c-1.12-.266-1.5-.644-1.5-1.2,0-.7.63-1.232,1.792-1.232A3.545,3.545,0,0,1,6.65-7.364L7.8-8.6A5.134,5.134,0,0,0,4.214-9.968c-2.184,0-3.6,1.232-3.6,2.94,0,1.3.854,2.2,2.408,2.576l1.722.406c1.064.252,1.47.672,1.47,1.274,0,.77-.672,1.33-1.862,1.33a4.847,4.847,0,0,1-2.9-1.078L.434-1.134A6.158,6.158,0,0,0,4.3.168ZM14.266-1.6a3.76,3.76,0,0,1-1.092.2c-.826,0-1.218-.434-1.218-1.442V-5.7h2.282v-1.47H11.956V-8.876h-1.68v1.708H8.806V-5.7h1.47v3.052c0,1.918.882,2.786,2.59,2.786A3.934,3.934,0,0,0,14.5-.182Zm8.414-2.2a3.354,3.354,0,0,0-3.556-3.542,3.684,3.684,0,0,0-3.836,3.808,3.577,3.577,0,0,0,3.85,3.7A3.966,3.966,0,0,0,22.456-1.4L21.28-2.3a2.6,2.6,0,0,1-2.114,1.022,2.019,2.019,0,0,1-2.2-1.89h5.67A4.608,4.608,0,0,0,22.68-3.794ZM19.11-5.922a1.719,1.719,0,0,1,1.876,1.5H17.052A1.971,1.971,0,0,1,19.11-5.922Zm8.932-1.414a3.116,3.116,0,0,0-2.072.728v-.56H24.29V3.052h1.68V-.56a3.116,3.116,0,0,0,2.072.728A3.6,3.6,0,0,0,31.6-3.584,3.6,3.6,0,0,0,28.042-7.336ZM27.79-1.372a2.336,2.336,0,0,1-1.82-.84V-4.956a2.323,2.323,0,0,1,1.82-.826,2.056,2.056,0,0,1,2.1,2.2A2.068,2.068,0,0,1,27.79-1.372ZM44.058-3.444H42.77V-9.8H40.726l-4.62,6.37v1.442h5.026V0H42.77V-1.988h1.288Zm-6.174,0L41.132-7.9v4.452Zm8.274-1.022a1.119,1.119,0,0,0,1.148-1.148,1.111,1.111,0,0,0-1.148-1.148A1.111,1.111,0,0,0,45.01-5.614,1.119,1.119,0,0,0,46.158-4.466Zm0,4.592a1.111,1.111,0,0,0,1.148-1.148A1.119,1.119,0,0,0,46.158-2.17,1.119,1.119,0,0,0,45.01-1.022,1.111,1.111,0,0,0,46.158.126Z" transform="translate(0 122)" fill="#515e81"/>
                <rect id="Rectangle_691" data-name="Rectangle 691" width="150" height="10" rx="2" transform="translate(57 112)" fill="#515e81" opacity="0.3"/>
              </g>
            </g>
          </g>
        </g>
      </g>
    </g>
    <g id="Google_fonts_customize_screen" data-name="Google fonts customize screen" transform="translate(430 1501)">
      <g transform="matrix(1, 0, 0, 1, -10, 1290)" filter="url(#Rectangle_436-4)">
        <rect id="Rectangle_436-8" data-name="Rectangle 436" width="286" height="186" rx="10" transform="translate(344 367)" fill="#fff"/>
      </g>
      <g id="Group_92" data-name="Group 92" transform="translate(447.999 1727.678)">
        <rect id="Rectangle_437" data-name="Rectangle 437" width="67" height="136" rx="2" transform="translate(-4 -45.678)" fill="#3c50e0" opacity="0.2"/>
        <g id="Group_91" data-name="Group 91" transform="translate(4.222 -35.446)">
          <rect id="Rectangle_439" data-name="Rectangle 439" width="49" height="10" rx="1" transform="translate(0.779 24.768)" fill="#fff" opacity="0.9"/>
          <rect id="Rectangle_440" data-name="Rectangle 440" width="49" height="10" rx="1" transform="translate(0.779 39.768)" fill="#fff" opacity="0.9"/>
          <rect id="Rectangle_441" data-name="Rectangle 441" width="31" height="10" rx="1" transform="translate(9.779 54.768)" fill="#ff5670"/>
          <rect id="Rectangle_438" data-name="Rectangle 438" width="17" height="17" rx="8.5" transform="translate(16.779 -0.231)" fill="#ff5670"/>
        </g>
        <g id="Socia_icons" data-name="Socia icons" transform="translate(583 -599.678) rotate(90)">
          <rect id="Rectangle_406" data-name="Rectangle 406" width="11" height="49" rx="1" transform="translate(641 529)" fill="#3c50e0"/>
          <rect id="Rectangle_407" data-name="Rectangle 407" width="11" height="49" rx="1" transform="translate(669 529)" fill="#ff5670"/>
          <rect id="Rectangle_408" data-name="Rectangle 408" width="11" height="49" rx="1" transform="translate(655 529)" fill="#29c3ff"/>
        </g>
        <line id="Line_29" data-name="Line 29" x2="49" transform="translate(5 35.822)" fill="none" stroke="#8495c2" stroke-width="1" stroke-dasharray="2 2"/>
      </g>
    </g>
  </g>
</svg>
