<svg xmlns="http://www.w3.org/2000/svg" xmlns:xlink="http://www.w3.org/1999/xlink" width="660" height="578" viewBox="0 0 660 578">
  <defs>
    <filter id="Rectangle_436" x="0" y="0" width="446" height="160" filterUnits="userSpaceOnUse">
      <feOffset dy="5" input="SourceAlpha"/>
      <feGaussianBlur stdDeviation="10" result="blur"/>
      <feFlood flood-color="#3c50e0" flood-opacity="0.149"/>
      <feComposite operator="in" in2="blur"/>
      <feComposite in="SourceGraphic"/>
    </filter>
    <filter id="Rectangle_436-2" x="75" y="115" width="585" height="236" filterUnits="userSpaceOnUse">
      <feOffset dy="5" input="SourceAlpha"/>
      <feGaussianBlur stdDeviation="10" result="blur-2"/>
      <feFlood flood-color="#3c50e0" flood-opacity="0.149"/>
      <feComposite operator="in" in2="blur-2"/>
      <feComposite in="SourceGraphic"/>
    </filter>
    <filter id="Rectangle_436-3" x="24" y="306" width="593" height="272" filterUnits="userSpaceOnUse">
      <feOffset dy="5" input="SourceAlpha"/>
      <feGaussianBlur stdDeviation="10" result="blur-3"/>
      <feFlood flood-color="#3c50e0" flood-opacity="0.149"/>
      <feComposite operator="in" in2="blur-3"/>
      <feComposite in="SourceGraphic"/>
    </filter>
  </defs>
  <g id="addon-06" transform="translate(-420 -2747)">
    <g id="Image" transform="translate(139 -3)">
      <g id="Icon" transform="translate(311 2775)">
        <g id="Login_Screen" data-name="Login Screen">
          <g transform="matrix(1, 0, 0, 1, -30, -25)" filter="url(#Rectangle_436)">
            <rect id="Rectangle_436-4" data-name="Rectangle 436" width="386" height="100" rx="10" transform="translate(30 25)" fill="#fff"/>
          </g>
          <g id="Height" transform="translate(25 30)">
            <g id="radio" transform="translate(398.685)">
              <g id="Rectangle_535" data-name="Rectangle 535" transform="translate(-246.685)" fill="rgba(60,80,224,0.03)" stroke="rgba(60,80,224,0.4)" stroke-width="2">
                <rect width="184" height="40" rx="5" stroke="none"/>
                <rect x="1" y="1" width="182" height="38" rx="4" fill="none"/>
              </g>
              <path id="Path_783" data-name="Path 783" d="M7.952,0H9.828L6.006-9.8H3.976L.154,0H2.016l.868-2.268h4.2ZM3.458-3.794l1.526-3.99L6.51-3.794Zm12.656-6.538v3.71a3.2,3.2,0,0,0-2.058-.714,3.6,3.6,0,0,0-3.57,3.752A3.6,3.6,0,0,0,14.056.168a3.2,3.2,0,0,0,2.058-.714V0h1.68V-10.332Zm-1.806,8.96a2.078,2.078,0,0,1-2.114-2.212,2.067,2.067,0,0,1,2.114-2.2,2.315,2.315,0,0,1,1.806.826v2.744A2.329,2.329,0,0,1,14.308-1.372ZM28.322-7.336A3.576,3.576,0,0,0,25.76-6.188a2.388,2.388,0,0,0-2.142-1.148,3.3,3.3,0,0,0-2.114.784v-.616h-1.68V0H21.5V-4.928a2.314,2.314,0,0,1,1.68-.854c.8,0,1.344.574,1.344,1.778V0h1.68V-4.368c0-.182-.014-.35-.028-.518a2.26,2.26,0,0,1,1.708-.9c.8,0,1.344.574,1.344,1.778V0h1.68V-4.368C30.912-6.258,29.848-7.336,28.322-7.336Zm5.39-.784A1.067,1.067,0,0,0,34.776-9.2a1.073,1.073,0,0,0-1.064-1.064A1.088,1.088,0,0,0,32.62-9.2,1.082,1.082,0,0,0,33.712-8.12ZM32.858,0h1.68V-7.168h-1.68Zm7.56-7.336a3.431,3.431,0,0,0-2.184.77v-.6h-1.68V0h1.68V-4.942A2.3,2.3,0,0,1,40-5.782c.938,0,1.526.616,1.526,1.848V0H43.2V-4.3A2.713,2.713,0,0,0,40.418-7.336Z" transform="translate(-231.686 25)" fill="#07003b"/>
            </g>
            <path id="Path_782" data-name="Path 782" d="M4.3.168c2.324,0,3.71-1.232,3.71-3.066,0-1.372-.8-2.24-2.394-2.632L3.892-5.936c-1.12-.266-1.5-.644-1.5-1.2,0-.7.63-1.232,1.792-1.232A3.545,3.545,0,0,1,6.65-7.364L7.8-8.6A5.134,5.134,0,0,0,4.214-9.968c-2.184,0-3.6,1.232-3.6,2.94,0,1.3.854,2.2,2.408,2.576l1.722.406c1.064.252,1.47.672,1.47,1.274,0,.77-.672,1.33-1.862,1.33a4.847,4.847,0,0,1-2.9-1.078L.434-1.134A6.158,6.158,0,0,0,4.3.168ZM16.674-3.794a3.354,3.354,0,0,0-3.556-3.542A3.684,3.684,0,0,0,9.282-3.528a3.577,3.577,0,0,0,3.85,3.7A3.966,3.966,0,0,0,16.45-1.4l-1.176-.9A2.6,2.6,0,0,1,13.16-1.274a2.019,2.019,0,0,1-2.2-1.89h5.67A4.608,4.608,0,0,0,16.674-3.794ZM13.1-5.922a1.719,1.719,0,0,1,1.876,1.5H11.046A1.971,1.971,0,0,1,13.1-5.922ZM23.478-7.168v.546a3.2,3.2,0,0,0-2.058-.714,3.6,3.6,0,0,0-3.57,3.752A3.6,3.6,0,0,0,21.42.168a3.2,3.2,0,0,0,2.058-.714V0h1.68V-7.168Zm-1.806,5.8a2.078,2.078,0,0,1-2.114-2.212,2.067,2.067,0,0,1,2.114-2.2,2.315,2.315,0,0,1,1.806.826v2.744A2.329,2.329,0,0,1,21.672-1.372Zm9.184-5.964a2.51,2.51,0,0,0-1.988.938v-.77h-1.68V0h1.68V-4.662a2.238,2.238,0,0,1,1.974-1.092,3.907,3.907,0,0,1,.658.07l.1-1.554A2.927,2.927,0,0,0,30.856-7.336Zm5.166,7.5a3.806,3.806,0,0,0,3.248-1.68L38.024-2.45A2.446,2.446,0,0,1,36.05-1.372a2.08,2.08,0,0,1-2.086-2.212,2.066,2.066,0,0,1,2.072-2.2A2.206,2.206,0,0,1,37.87-4.76L39.186-5.8a3.785,3.785,0,0,0-3.136-1.54,3.706,3.706,0,0,0-3.808,3.794A3.623,3.623,0,0,0,36.022.168Zm8.414-7.5a3.431,3.431,0,0,0-2.184.77v-3.766h-1.68V0h1.68V-4.942a2.3,2.3,0,0,1,1.764-.84c.938,0,1.526.616,1.526,1.848V0h1.68V-4.3A2.713,2.713,0,0,0,44.436-7.336Zm12.32,7.5a3.745,3.745,0,0,0,4.1-4.088V-9.8H59.08v5.7c0,1.764-.854,2.6-2.324,2.6s-2.338-.84-2.338-2.6V-9.8H52.654v5.88A3.739,3.739,0,0,0,56.756.168Zm9,0c1.876,0,2.954-.924,2.954-2.324,0-1.022-.588-1.68-2.044-2.016l-1.246-.294c-.77-.182-.994-.378-.994-.7,0-.434.392-.728,1.148-.728a3.416,3.416,0,0,1,2.128.8l.91-1.19a4.4,4.4,0,0,0-2.968-1.05c-1.778,0-2.87.924-2.87,2.282,0,.994.588,1.624,2.03,1.96l1.246.294c.742.168.994.42.994.756,0,.448-.448.77-1.232.77a3.953,3.953,0,0,1-2.366-.868L62.58-.882A5.036,5.036,0,0,0,65.758.168ZM77.21-3.794a3.354,3.354,0,0,0-3.556-3.542,3.684,3.684,0,0,0-3.836,3.808,3.577,3.577,0,0,0,3.85,3.7A3.966,3.966,0,0,0,76.986-1.4L75.81-2.3A2.6,2.6,0,0,1,73.7-1.274a2.019,2.019,0,0,1-2.2-1.89h5.67A4.608,4.608,0,0,0,77.21-3.794ZM73.64-5.922a1.719,1.719,0,0,1,1.876,1.5H71.582A1.971,1.971,0,0,1,73.64-5.922Zm8.848-1.414A2.51,2.51,0,0,0,80.5-6.4v-.77H78.82V0H80.5V-4.662a2.238,2.238,0,0,1,1.974-1.092,3.907,3.907,0,0,1,.658.07l.1-1.554A2.927,2.927,0,0,0,82.488-7.336Z" transform="translate(0 24)" fill="#07003b"/>
          </g>
        </g>
      </g>
    </g>
    <g id="Image-2" data-name="Image" transform="translate(154 146)">
      <g id="Icon-2" data-name="Icon" transform="translate(405 2749)">
        <g id="Login_Screen-2" data-name="Login Screen">
          <g transform="matrix(1, 0, 0, 1, -139, -148)" filter="url(#Rectangle_436-2)">
            <rect id="Rectangle_436-5" data-name="Rectangle 436" width="525" height="176" rx="10" transform="translate(105 140)" fill="#fff"/>
          </g>
          <g id="Height-2" data-name="Height" transform="translate(24.999 -7)">
            <g id="radio-2" data-name="radio" transform="translate(0 29)">
              <g id="Rectangle_535-2" data-name="Rectangle 535" transform="translate(-33.999)" fill="rgba(60,80,224,0.05)" stroke="#aeb6f3" stroke-width="2">
                <rect width="53" height="40" stroke="none"/>
                <rect x="1" y="1" width="51" height="38" fill="none"/>
              </g>
              <g id="Rectangle_672" data-name="Rectangle 672" transform="translate(-33.999 38)" fill="#fff" stroke="#aeb6f3" stroke-width="2">
                <rect width="53" height="40" stroke="none"/>
                <rect x="1" y="1" width="51" height="38" fill="none"/>
              </g>
              <g id="Rectangle_675" data-name="Rectangle 675" transform="translate(-33.999 76)" fill="#fff" stroke="#aeb6f3" stroke-width="2">
                <rect width="53" height="40" stroke="none"/>
                <rect x="1" y="1" width="51" height="38" fill="none"/>
              </g>
              <g id="Rectangle_671" data-name="Rectangle 671" transform="translate(111.001)" fill="rgba(60,80,224,0.05)" stroke="#aeb6f3" stroke-width="2">
                <rect width="128" height="40" stroke="none"/>
                <rect x="1" y="1" width="126" height="38" fill="none"/>
              </g>
              <g id="Rectangle_718" data-name="Rectangle 718" transform="translate(237.001)" fill="rgba(60,80,224,0.05)" stroke="#aeb6f3" stroke-width="2">
                <rect width="129" height="40" stroke="none"/>
                <rect x="1" y="1" width="127" height="38" fill="none"/>
              </g>
              <g id="Rectangle_719" data-name="Rectangle 719" transform="translate(364.001)" fill="rgba(60,80,224,0.05)" stroke="#aeb6f3" stroke-width="2">
                <rect width="77" height="40" stroke="none"/>
                <rect x="1" y="1" width="75" height="38" fill="none"/>
              </g>
              <g id="Rectangle_674" data-name="Rectangle 674" transform="translate(111.001 38)" fill="#fff" stroke="#aeb6f3" stroke-width="2">
                <rect width="128" height="40" stroke="none"/>
                <rect x="1" y="1" width="126" height="38" fill="none"/>
              </g>
              <g id="Rectangle_716" data-name="Rectangle 716" transform="translate(237.001 38)" fill="#fff" stroke="#aeb6f3" stroke-width="2">
                <rect width="129" height="40" stroke="none"/>
                <rect x="1" y="1" width="127" height="38" fill="none"/>
              </g>
              <g id="Rectangle_721" data-name="Rectangle 721" transform="translate(364.001 38)" fill="#fff" stroke="#aeb6f3" stroke-width="2">
                <rect width="77" height="40" stroke="none"/>
                <rect x="1" y="1" width="75" height="38" fill="none"/>
              </g>
              <g id="Rectangle_677" data-name="Rectangle 677" transform="translate(111.001 76)" fill="#fff" stroke="#aeb6f3" stroke-width="2">
                <rect width="128" height="40" stroke="none"/>
                <rect x="1" y="1" width="126" height="38" fill="none"/>
              </g>
              <g id="Rectangle_715" data-name="Rectangle 715" transform="translate(237.001 76)" fill="#fff" stroke="#aeb6f3" stroke-width="2">
                <rect width="129" height="40" stroke="none"/>
                <rect x="1" y="1" width="127" height="38" fill="none"/>
              </g>
              <g id="Rectangle_723" data-name="Rectangle 723" transform="translate(364.001 76)" fill="#fff" stroke="#aeb6f3" stroke-width="2">
                <rect width="77" height="40" stroke="none"/>
                <rect x="1" y="1" width="75" height="38" fill="none"/>
              </g>
              <g id="Path_785" data-name="Path 785" transform="translate(17.001)" fill="rgba(60,80,224,0.05)">
                <path d="M 95 39 L 1 39 L 1 1 L 95 1 L 95 39 Z" stroke="none"/>
                <path d="M 2 2 L 2 38 L 94 38 L 94 2 L 2 2 M 0 0 L 96 0 L 96 40 L 0 40 L 0 0 Z" stroke="none" fill="#aeb6f3"/>
              </g>
              <g id="Rectangle_673" data-name="Rectangle 673" transform="translate(17.001 38)" fill="#fff" stroke="#aeb6f3" stroke-width="2">
                <rect width="96" height="40" stroke="none"/>
                <rect x="1" y="1" width="94" height="38" fill="none"/>
              </g>
              <g id="Rectangle_676" data-name="Rectangle 676" transform="translate(17.001 76)" fill="#fff" stroke="#aeb6f3" stroke-width="2">
                <rect width="96" height="40" stroke="none"/>
                <rect x="1" y="1" width="94" height="38" fill="none"/>
              </g>
              <path id="Path_784" data-name="Path 784" d="M-5.894,0H-4.13V-9.8H-5.894Zm7.28-9.8H-1.778V0H1.386a4.689,4.689,0,0,0,5.04-4.9A4.689,4.689,0,0,0,1.386-9.8ZM1.3-1.652H-.014v-6.5H1.3A2.991,2.991,0,0,1,4.606-4.9,2.991,2.991,0,0,1,1.3-1.652Z" transform="translate(-7 24)" fill="#07003b"/>
              <path id="Path_790" data-name="Path 790" d="M.266-9.8-2.45-8.414V-6.65L-.014-7.868V0h1.75V-9.8Z" transform="translate(-7 64)" fill="#515e81"/>
              <path id="Path_792" data-name="Path 792" d="M-.973-1.6,1.6-4C2.905-5.222,3.3-6.146,3.3-7.112A2.874,2.874,0,0,0,.119-9.968,4.136,4.136,0,0,0-3.647-7.644l1.358.924A2.8,2.8,0,0,1,.077-8.372a1.313,1.313,0,0,1,1.47,1.33c0,.63-.35,1.274-1.582,2.436l-3.458,3.22V0H3.451V-1.6Z" transform="translate(-7 102)" fill="#515e81"/>
              <path id="Path_787" data-name="Path 787" d="M2.94-1.652V-9.8H1.176V0H7.644V-1.652ZM12.53.168a3.668,3.668,0,0,0,3.794-3.752A3.66,3.66,0,0,0,12.53-7.336,3.672,3.672,0,0,0,8.722-3.584,3.68,3.68,0,0,0,12.53.168Zm0-1.54a2.075,2.075,0,0,1-2.1-2.212,2.064,2.064,0,0,1,2.1-2.2,2.061,2.061,0,0,1,2.086,2.2A2.072,2.072,0,0,1,12.53-1.372Zm10.57-5.8v.56a3.143,3.143,0,0,0-2.072-.728,3.566,3.566,0,0,0-3.556,3.654A3.538,3.538,0,0,0,21.028-.07,3.132,3.132,0,0,0,23.1-.784v.6A1.793,1.793,0,0,1,21.07,1.68,3.74,3.74,0,0,1,18.62.658L17.612,1.89A4.938,4.938,0,0,0,21.1,3.22c2.268,0,3.682-1.274,3.682-3.4V-7.168ZM21.266-1.582a2.026,2.026,0,0,1-2.086-2.1A2.03,2.03,0,0,1,21.266-5.8a2.406,2.406,0,0,1,1.834.84v2.534A2.406,2.406,0,0,1,21.266-1.582ZM27.65-8.12A1.067,1.067,0,0,0,28.714-9.2a1.073,1.073,0,0,0-1.064-1.064A1.088,1.088,0,0,0,26.558-9.2,1.082,1.082,0,0,0,27.65-8.12ZM26.8,0h1.68V-7.168H26.8Zm7.56-7.336a3.431,3.431,0,0,0-2.184.77v-.6h-1.68V0h1.68V-4.942a2.3,2.3,0,0,1,1.764-.84c.938,0,1.526.616,1.526,1.848V0h1.68V-4.3A2.713,2.713,0,0,0,34.356-7.336Zm12.32,7.5a3.745,3.745,0,0,0,4.1-4.088V-9.8H49v5.7c0,1.764-.854,2.6-2.324,2.6s-2.338-.84-2.338-2.6V-9.8H42.574v5.88A3.739,3.739,0,0,0,46.676.168ZM58.814,0h2.142L58.128-3.738a2.872,2.872,0,0,0,2.394-2.968c0-1.9-1.33-3.094-3.444-3.094H53V0h1.764V-3.626H56.14ZM54.768-8.148H56.91c1.218,0,1.792.5,1.792,1.442s-.574,1.442-1.792,1.442H54.768Zm9.674,6.5V-9.8H62.678V0h6.468V-1.652Z" transform="translate(127 24)" fill="#07003b"/>
              <path id="Path_788" data-name="Path 788" d="M2.94-1.652V-9.8H1.176V0H7.644V-1.652ZM12.53.168a3.668,3.668,0,0,0,3.794-3.752A3.66,3.66,0,0,0,12.53-7.336,3.672,3.672,0,0,0,8.722-3.584,3.68,3.68,0,0,0,12.53.168Zm0-1.54a2.075,2.075,0,0,1-2.1-2.212,2.064,2.064,0,0,1,2.1-2.2,2.061,2.061,0,0,1,2.086,2.2A2.072,2.072,0,0,1,12.53-1.372Zm10.57-5.8v.56a3.143,3.143,0,0,0-2.072-.728,3.566,3.566,0,0,0-3.556,3.654A3.538,3.538,0,0,0,21.028-.07,3.132,3.132,0,0,0,23.1-.784v.6A1.793,1.793,0,0,1,21.07,1.68,3.74,3.74,0,0,1,18.62.658L17.612,1.89A4.938,4.938,0,0,0,21.1,3.22c2.268,0,3.682-1.274,3.682-3.4V-7.168ZM21.266-1.582a2.026,2.026,0,0,1-2.086-2.1A2.03,2.03,0,0,1,21.266-5.8a2.406,2.406,0,0,1,1.834.84v2.534A2.406,2.406,0,0,1,21.266-1.582Zm8.9,1.75a3.668,3.668,0,0,0,3.794-3.752A3.66,3.66,0,0,0,30.17-7.336a3.672,3.672,0,0,0-3.808,3.752A3.68,3.68,0,0,0,30.17.168Zm0-1.54a2.075,2.075,0,0,1-2.1-2.212,2.064,2.064,0,0,1,2.1-2.2,2.061,2.061,0,0,1,2.086,2.2A2.072,2.072,0,0,1,30.17-1.372ZM40.4-7.168V-2.24a2.268,2.268,0,0,1-1.764.868c-.952,0-1.484-.6-1.484-1.792v-4h-1.68V-2.8A2.637,2.637,0,0,0,38.206.168,3.364,3.364,0,0,0,40.4-.6V0h1.68V-7.168ZM48.72-1.6a3.76,3.76,0,0,1-1.092.2c-.826,0-1.218-.434-1.218-1.442V-5.7h2.282v-1.47H46.41V-8.876H44.73v1.708H43.26V-5.7h1.47v3.052c0,1.918.882,2.786,2.59,2.786a3.934,3.934,0,0,0,1.638-.322ZM57.89.168a3.745,3.745,0,0,0,4.1-4.088V-9.8H60.214v5.7c0,1.764-.854,2.6-2.324,2.6s-2.338-.84-2.338-2.6V-9.8H53.788v5.88A3.739,3.739,0,0,0,57.89.168ZM70.028,0H72.17L69.342-3.738a2.872,2.872,0,0,0,2.394-2.968c0-1.9-1.33-3.094-3.444-3.094H64.218V0h1.764V-3.626h1.372ZM65.982-8.148h2.142c1.218,0,1.792.5,1.792,1.442s-.574,1.442-1.792,1.442H65.982Zm9.674,6.5V-9.8H73.892V0H80.36V-1.652Z" transform="translate(253 24)" fill="#07003b"/>
              <path id="Path_789" data-name="Path 789" d="M7.952,0H9.828L6.006-9.8H3.976L.154,0H2.016l.868-2.268h4.2ZM3.458-3.794l1.526-3.99L6.51-3.794ZM14.266.168a3.806,3.806,0,0,0,3.248-1.68L16.268-2.45a2.446,2.446,0,0,1-1.974,1.078,2.08,2.08,0,0,1-2.086-2.212,2.066,2.066,0,0,1,2.072-2.2A2.206,2.206,0,0,1,16.114-4.76L17.43-5.8a3.785,3.785,0,0,0-3.136-1.54,3.706,3.706,0,0,0-3.808,3.794A3.623,3.623,0,0,0,14.266.168ZM23.632-1.6a3.76,3.76,0,0,1-1.092.2c-.826,0-1.218-.434-1.218-1.442V-5.7H23.6v-1.47H21.322V-8.876h-1.68v1.708h-1.47V-5.7h1.47v3.052c0,1.918.882,2.786,2.59,2.786A3.934,3.934,0,0,0,23.87-.182ZM26.068-8.12A1.067,1.067,0,0,0,27.132-9.2a1.073,1.073,0,0,0-1.064-1.064A1.088,1.088,0,0,0,24.976-9.2,1.082,1.082,0,0,0,26.068-8.12ZM25.214,0h1.68V-7.168h-1.68Zm7.07.168a3.668,3.668,0,0,0,3.794-3.752,3.66,3.66,0,0,0-3.794-3.752,3.672,3.672,0,0,0-3.808,3.752A3.68,3.68,0,0,0,32.284.168Zm0-1.54a2.075,2.075,0,0,1-2.1-2.212,2.064,2.064,0,0,1,2.1-2.2,2.061,2.061,0,0,1,2.086,2.2A2.072,2.072,0,0,1,32.284-1.372Zm9.24-5.964a3.431,3.431,0,0,0-2.184.77v-.6H37.66V0h1.68V-4.942a2.3,2.3,0,0,1,1.764-.84c.938,0,1.526.616,1.526,1.848V0h1.68V-4.3A2.713,2.713,0,0,0,41.524-7.336Z" transform="translate(380 24)" fill="#07003b"/>
              <path id="Path_786" data-name="Path 786" d="M7.868-9.8v6.9L2.982-9.8H1.176V0H2.94V-6.916L7.826,0H9.632V-9.8ZM17.01-7.168v.546a3.2,3.2,0,0,0-2.058-.714,3.6,3.6,0,0,0-3.57,3.752A3.6,3.6,0,0,0,14.952.168,3.2,3.2,0,0,0,17.01-.546V0h1.68V-7.168ZM15.2-1.372A2.078,2.078,0,0,1,13.09-3.584a2.067,2.067,0,0,1,2.114-2.2,2.315,2.315,0,0,1,1.806.826v2.744A2.329,2.329,0,0,1,15.2-1.372ZM29.218-7.336a3.576,3.576,0,0,0-2.562,1.148,2.388,2.388,0,0,0-2.142-1.148,3.3,3.3,0,0,0-2.114.784v-.616H20.72V0H22.4V-4.928a2.314,2.314,0,0,1,1.68-.854c.8,0,1.344.574,1.344,1.778V0H27.1V-4.368c0-.182-.014-.35-.028-.518a2.26,2.26,0,0,1,1.708-.9c.8,0,1.344.574,1.344,1.778V0h1.68V-4.368C31.808-6.258,30.744-7.336,29.218-7.336ZM40.712-3.794a3.354,3.354,0,0,0-3.556-3.542A3.684,3.684,0,0,0,33.32-3.528a3.577,3.577,0,0,0,3.85,3.7A3.966,3.966,0,0,0,40.488-1.4l-1.176-.9A2.6,2.6,0,0,1,37.2-1.274,2.019,2.019,0,0,1,35-3.164h5.67A4.608,4.608,0,0,0,40.712-3.794Zm-3.57-2.128a1.719,1.719,0,0,1,1.876,1.5H35.084A1.971,1.971,0,0,1,37.142-5.922Z" transform="translate(33 24)" fill="#07003b"/>
              <path id="Path_791" data-name="Path 791" d="M6.2-7.168v.546a3.2,3.2,0,0,0-2.058-.714A3.6,3.6,0,0,0,.574-3.584,3.6,3.6,0,0,0,4.144.168,3.2,3.2,0,0,0,6.2-.546V0h1.68V-7.168ZM4.4-1.372A2.078,2.078,0,0,1,2.282-3.584,2.067,2.067,0,0,1,4.4-5.782,2.315,2.315,0,0,1,6.2-4.956v2.744A2.329,2.329,0,0,1,4.4-1.372Zm10.71-8.96v3.71a3.2,3.2,0,0,0-2.058-.714,3.6,3.6,0,0,0-3.57,3.752A3.6,3.6,0,0,0,13.048.168a3.2,3.2,0,0,0,2.058-.714V0h1.68V-10.332ZM13.3-1.372a2.078,2.078,0,0,1-2.114-2.212,2.067,2.067,0,0,1,2.114-2.2,2.315,2.315,0,0,1,1.806.826v2.744A2.329,2.329,0,0,1,13.3-1.372ZM27.314-7.336a3.576,3.576,0,0,0-2.562,1.148A2.388,2.388,0,0,0,22.61-7.336a3.3,3.3,0,0,0-2.114.784v-.616h-1.68V0H20.5V-4.928a2.314,2.314,0,0,1,1.68-.854c.8,0,1.344.574,1.344,1.778V0H25.2V-4.368c0-.182-.014-.35-.028-.518a2.26,2.26,0,0,1,1.708-.9c.8,0,1.344.574,1.344,1.778V0H29.9V-4.368C29.9-6.258,28.84-7.336,27.314-7.336ZM32.7-8.12A1.067,1.067,0,0,0,33.768-9.2,1.073,1.073,0,0,0,32.7-10.262,1.088,1.088,0,0,0,31.612-9.2,1.082,1.082,0,0,0,32.7-8.12ZM31.85,0h1.68V-7.168H31.85Zm7.56-7.336a3.431,3.431,0,0,0-2.184.77v-.6h-1.68V0h1.68V-4.942a2.3,2.3,0,0,1,1.764-.84c.938,0,1.526.616,1.526,1.848V0H42.2V-4.3A2.713,2.713,0,0,0,39.41-7.336Z" transform="translate(33 64)" fill="#515e81"/>
              <path id="Path_793" data-name="Path 793" d="M6.2-7.168v.546a3.2,3.2,0,0,0-2.058-.714A3.6,3.6,0,0,0,.574-3.584,3.6,3.6,0,0,0,4.144.168,3.2,3.2,0,0,0,6.2-.546V0h1.68V-7.168ZM4.4-1.372A2.078,2.078,0,0,1,2.282-3.584,2.067,2.067,0,0,1,4.4-5.782,2.315,2.315,0,0,1,6.2-4.956v2.744A2.329,2.329,0,0,1,4.4-1.372Zm10.71-8.96v3.71a3.2,3.2,0,0,0-2.058-.714,3.6,3.6,0,0,0-3.57,3.752A3.6,3.6,0,0,0,13.048.168a3.2,3.2,0,0,0,2.058-.714V0h1.68V-10.332ZM13.3-1.372a2.078,2.078,0,0,1-2.114-2.212,2.067,2.067,0,0,1,2.114-2.2,2.315,2.315,0,0,1,1.806.826v2.744A2.329,2.329,0,0,1,13.3-1.372ZM27.314-7.336a3.576,3.576,0,0,0-2.562,1.148A2.388,2.388,0,0,0,22.61-7.336a3.3,3.3,0,0,0-2.114.784v-.616h-1.68V0H20.5V-4.928a2.314,2.314,0,0,1,1.68-.854c.8,0,1.344.574,1.344,1.778V0H25.2V-4.368c0-.182-.014-.35-.028-.518a2.26,2.26,0,0,1,1.708-.9c.8,0,1.344.574,1.344,1.778V0H29.9V-4.368C29.9-6.258,28.84-7.336,27.314-7.336ZM32.7-8.12A1.067,1.067,0,0,0,33.768-9.2,1.073,1.073,0,0,0,32.7-10.262,1.088,1.088,0,0,0,31.612-9.2,1.082,1.082,0,0,0,32.7-8.12ZM31.85,0h1.68V-7.168H31.85Zm7.56-7.336a3.431,3.431,0,0,0-2.184.77v-.6h-1.68V0h1.68V-4.942a2.3,2.3,0,0,1,1.764-.84c.938,0,1.526.616,1.526,1.848V0H42.2V-4.3A2.713,2.713,0,0,0,39.41-7.336ZM49.644-1.6,52.22-4c1.3-1.218,1.694-2.142,1.694-3.108a2.874,2.874,0,0,0-3.178-2.856A4.136,4.136,0,0,0,46.97-7.644l1.358.924a2.8,2.8,0,0,1,2.366-1.652,1.313,1.313,0,0,1,1.47,1.33c0,.63-.35,1.274-1.582,2.436l-3.458,3.22V0h6.944V-1.6Z" transform="translate(33 102)" fill="#515e81"/>
              <g id="Rectangle_712" data-name="Rectangle 712" transform="translate(127 47)" fill="#f5f6fe" stroke="#aeb6f3" stroke-width="2">
                <rect width="96" height="22" rx="4" stroke="none"/>
                <rect x="1" y="1" width="94" height="20" rx="3" fill="none"/>
              </g>
              <g id="Rectangle_717" data-name="Rectangle 717" transform="translate(253 47)" fill="#f5f6fe" stroke="#aeb6f3" stroke-width="2">
                <rect width="97" height="22" rx="4" stroke="none"/>
                <rect x="1" y="1" width="95" height="20" rx="3" fill="none"/>
              </g>
              <rect id="Rectangle_720" data-name="Rectangle 720" width="45" height="22" rx="4" transform="translate(380 47)" fill="#3c50e0"/>
              <g id="Rectangle_713" data-name="Rectangle 713" transform="translate(127 85)" fill="#f5f6fe" stroke="#aeb6f3" stroke-width="2">
                <rect width="96" height="22" rx="4" stroke="none"/>
                <rect x="1" y="1" width="94" height="20" rx="3" fill="none"/>
              </g>
              <g id="Rectangle_714" data-name="Rectangle 714" transform="translate(253 85)" fill="#f5f6fe" stroke="#aeb6f3" stroke-width="2">
                <rect width="97" height="22" rx="4" stroke="none"/>
                <rect x="1" y="1" width="95" height="20" rx="3" fill="none"/>
              </g>
              <rect id="Rectangle_722" data-name="Rectangle 722" width="45" height="22" rx="4" transform="translate(380 85)" fill="#3c50e0"/>
            </g>
          </g>
        </g>
      </g>
    </g>
    <g id="Image-3" data-name="Image" transform="translate(103 363)">
      <g id="Icon-3" data-name="Icon" transform="translate(405 2749)">
        <g id="Login_Screen-3" data-name="Login Screen" transform="translate(0 10)">
          <g transform="matrix(1, 0, 0, 1, -88, -375)" filter="url(#Rectangle_436-3)">
            <rect id="Rectangle_436-6" data-name="Rectangle 436" width="533" height="212" rx="10" transform="translate(54 331)" fill="#fff"/>
          </g>
          <g id="Height-3" data-name="Height" transform="translate(24.999 -7)">
            <g id="radio-3" data-name="radio" transform="translate(0 29)">
              <g id="Rectangle_535-3" data-name="Rectangle 535" transform="translate(-33.999)" fill="rgba(60,80,224,0.05)" stroke="#aeb6f3" stroke-width="2">
                <rect width="53" height="40" stroke="none"/>
                <rect x="1" y="1" width="51" height="38" fill="none"/>
              </g>
              <g id="Rectangle_672-2" data-name="Rectangle 672" transform="translate(-33.999 38)" fill="#fff" stroke="#aeb6f3" stroke-width="2">
                <rect width="53" height="40" stroke="none"/>
                <rect x="1" y="1" width="51" height="38" fill="none"/>
              </g>
              <g id="Rectangle_675-2" data-name="Rectangle 675" transform="translate(-33.999 76)" fill="#fff" stroke="#aeb6f3" stroke-width="2">
                <rect width="53" height="40" stroke="none"/>
                <rect x="1" y="1" width="51" height="38" fill="none"/>
              </g>
              <g id="Rectangle_671-2" data-name="Rectangle 671" transform="translate(137.001)" fill="rgba(60,80,224,0.05)" stroke="#aeb6f3" stroke-width="2">
                <rect width="120" height="40" stroke="none"/>
                <rect x="1" y="1" width="118" height="38" fill="none"/>
              </g>
              <g id="Rectangle_718-2" data-name="Rectangle 718" transform="translate(255.001)" fill="rgba(60,80,224,0.05)" stroke="#aeb6f3" stroke-width="2">
                <rect width="119" height="40" stroke="none"/>
                <rect x="1" y="1" width="117" height="38" fill="none"/>
              </g>
              <g id="Rectangle_719-2" data-name="Rectangle 719" transform="translate(372.001)" fill="rgba(60,80,224,0.05)" stroke="#aeb6f3" stroke-width="2">
                <rect width="77" height="40" stroke="none"/>
                <rect x="1" y="1" width="75" height="38" fill="none"/>
              </g>
              <g id="Rectangle_674-2" data-name="Rectangle 674" transform="translate(137.001 38)" fill="#fff" stroke="#aeb6f3" stroke-width="2">
                <rect width="120" height="40" stroke="none"/>
                <rect x="1" y="1" width="118" height="38" fill="none"/>
              </g>
              <g id="Rectangle_716-2" data-name="Rectangle 716" transform="translate(255.001 38)" fill="#fff" stroke="#aeb6f3" stroke-width="2">
                <rect width="119" height="40" stroke="none"/>
                <rect x="1" y="1" width="117" height="38" fill="none"/>
              </g>
              <g id="Rectangle_721-2" data-name="Rectangle 721" transform="translate(372.001 38)" fill="#fff" stroke="#aeb6f3" stroke-width="2">
                <rect width="77" height="40" stroke="none"/>
                <rect x="1" y="1" width="75" height="38" fill="none"/>
              </g>
              <g id="Rectangle_677-2" data-name="Rectangle 677" transform="translate(137.001 76)" fill="#fff" stroke="#aeb6f3" stroke-width="2">
                <rect width="120" height="40" stroke="none"/>
                <rect x="1" y="1" width="118" height="38" fill="none"/>
              </g>
              <g id="Rectangle_715-2" data-name="Rectangle 715" transform="translate(255.001 76)" fill="#fff" stroke="#aeb6f3" stroke-width="2">
                <rect width="119" height="40" stroke="none"/>
                <rect x="1" y="1" width="117" height="38" fill="none"/>
              </g>
              <g id="Rectangle_723-2" data-name="Rectangle 723" transform="translate(372.001 76)" fill="#fff" stroke="#aeb6f3" stroke-width="2">
                <rect width="77" height="40" stroke="none"/>
                <rect x="1" y="1" width="75" height="38" fill="none"/>
              </g>
              <g id="Rectangle_670" data-name="Rectangle 670" transform="translate(17.001)" fill="rgba(60,80,224,0.05)" stroke="#aeb6f3" stroke-width="2">
                <rect width="122" height="40" stroke="none"/>
                <rect x="1" y="1" width="120" height="38" fill="none"/>
              </g>
              <g id="Rectangle_673-2" data-name="Rectangle 673" transform="translate(17.001 38)" fill="#fff" stroke="#aeb6f3" stroke-width="2">
                <rect width="122" height="40" stroke="none"/>
                <rect x="1" y="1" width="120" height="38" fill="none"/>
              </g>
              <g id="Rectangle_676-2" data-name="Rectangle 676" transform="translate(17.001 76)" fill="#fff" stroke="#aeb6f3" stroke-width="2">
                <rect width="122" height="40" stroke="none"/>
                <rect x="1" y="1" width="120" height="38" fill="none"/>
              </g>
              <path id="Path_795" data-name="Path 795" d="M-1.911-9.8v6.9L-6.8-9.8H-8.6V0h1.764V-6.916L-1.953,0H-.147V-9.8ZM5.411.168A3.668,3.668,0,0,0,9.205-3.584,3.66,3.66,0,0,0,5.411-7.336,3.672,3.672,0,0,0,1.6-3.584,3.68,3.68,0,0,0,5.411.168Zm0-1.54a2.075,2.075,0,0,1-2.1-2.212,2.064,2.064,0,0,1,2.1-2.2A2.061,2.061,0,0,1,7.5-3.584,2.072,2.072,0,0,1,5.411-1.372Z" transform="translate(-7 24)" fill="#07003b"/>
              <path id="Path_794" data-name="Path 794" d="M4.912.192c2.656,0,4.24-1.408,4.24-3.5,0-1.568-.912-2.56-2.736-3.008L4.448-6.784c-1.28-.3-1.712-.736-1.712-1.376,0-.8.72-1.408,2.048-1.408A4.052,4.052,0,0,1,7.6-8.416L8.912-9.824a5.867,5.867,0,0,0-4.1-1.568C2.32-11.392.7-9.984.7-8.032c0,1.488.976,2.512,2.752,2.944l1.968.464c1.216.288,1.68.768,1.68,1.456,0,.88-.768,1.52-2.128,1.52A5.539,5.539,0,0,1,1.664-2.88L.5-1.3A7.038,7.038,0,0,0,4.912.192ZM15.1-8.384a3.561,3.561,0,0,0-2.368.832v-.64h-1.92V3.488h1.92V-.64A3.561,3.561,0,0,0,15.1.192,4.114,4.114,0,0,0,19.168-4.1,4.114,4.114,0,0,0,15.1-8.384Zm-.288,6.816a2.67,2.67,0,0,1-2.08-.96V-5.664a2.655,2.655,0,0,1,2.08-.944,2.35,2.35,0,0,1,2.4,2.512A2.363,2.363,0,0,1,14.816-1.568ZM28.944-4.336A3.833,3.833,0,0,0,24.88-8.384,4.21,4.21,0,0,0,20.5-4.032,4.088,4.088,0,0,0,24.9.192,4.532,4.532,0,0,0,28.688-1.6L27.344-2.624a2.972,2.972,0,0,1-2.416,1.168,2.308,2.308,0,0,1-2.512-2.16H28.9A5.266,5.266,0,0,0,28.944-4.336Zm-4.08-2.432a1.964,1.964,0,0,1,2.144,1.712h-4.5A2.252,2.252,0,0,1,24.864-6.768ZM34.608.192a4.35,4.35,0,0,0,3.712-1.92L36.9-2.8A2.8,2.8,0,0,1,34.64-1.568,2.378,2.378,0,0,1,32.256-4.1a2.361,2.361,0,0,1,2.368-2.512,2.521,2.521,0,0,1,2.1,1.168l1.5-1.184a4.326,4.326,0,0,0-3.584-1.76,4.235,4.235,0,0,0-4.352,4.336A4.14,4.14,0,0,0,34.608.192ZM40.784-9.28A1.219,1.219,0,0,0,42-10.512a1.226,1.226,0,0,0-1.216-1.216,1.243,1.243,0,0,0-1.248,1.216A1.236,1.236,0,0,0,40.784-9.28ZM39.808,0h1.92V-8.192h-1.92Zm6.864-8.576c0-1.152.544-1.664,1.568-1.664a3.072,3.072,0,0,1,1.056.192l.3-1.648a4.849,4.849,0,0,0-1.68-.3c-1.968,0-3.168,1.168-3.168,3.392v.416h-1.68v1.68h1.68V0h1.92V-6.512h2.736v-1.68H46.672Zm5.152-.7a1.219,1.219,0,0,0,1.216-1.232,1.226,1.226,0,0,0-1.216-1.216,1.243,1.243,0,0,0-1.248,1.216A1.236,1.236,0,0,0,51.824-9.28ZM50.848,0h1.92V-8.192h-1.92ZM58.9.192a4.35,4.35,0,0,0,3.712-1.92L61.184-2.8a2.8,2.8,0,0,1-2.256,1.232A2.378,2.378,0,0,1,56.544-4.1a2.361,2.361,0,0,1,2.368-2.512,2.521,2.521,0,0,1,2.1,1.168l1.5-1.184a4.326,4.326,0,0,0-3.584-1.76,4.235,4.235,0,0,0-4.352,4.336A4.14,4.14,0,0,0,58.9.192ZM74.848,0H77.3L74.064-4.272A3.283,3.283,0,0,0,76.8-7.664c0-2.176-1.52-3.536-3.936-3.536H68.208V0h2.016V-4.144h1.568ZM70.224-9.312h2.448c1.392,0,2.048.576,2.048,1.648,0,1.056-.656,1.648-2.048,1.648H70.224ZM82.672.192A4.192,4.192,0,0,0,87.008-4.1a4.183,4.183,0,0,0-4.336-4.288A4.2,4.2,0,0,0,78.32-4.1,4.205,4.205,0,0,0,82.672.192Zm0-1.76a2.372,2.372,0,0,1-2.4-2.528,2.358,2.358,0,0,1,2.4-2.512A2.355,2.355,0,0,1,85.056-4.1,2.368,2.368,0,0,1,82.672-1.568ZM88.816,0h1.92V-11.808h-1.92Zm12.176-4.336a3.833,3.833,0,0,0-4.064-4.048,4.21,4.21,0,0,0-4.384,4.352,4.088,4.088,0,0,0,4.4,4.224A4.532,4.532,0,0,0,100.736-1.6L99.392-2.624a2.972,2.972,0,0,1-2.416,1.168,2.308,2.308,0,0,1-2.512-2.16h6.48A5.266,5.266,0,0,0,100.992-4.336Zm-4.08-2.432a1.964,1.964,0,0,1,2.144,1.712h-4.5A2.252,2.252,0,0,1,96.912-6.768Zm9.024,6.96c2.144,0,3.376-1.056,3.376-2.656,0-1.168-.672-1.92-2.336-2.3L105.552-5.1c-.88-.208-1.136-.432-1.136-.8,0-.5.448-.832,1.312-.832a3.9,3.9,0,0,1,2.432.912l1.04-1.36a5.03,5.03,0,0,0-3.392-1.2c-2.032,0-3.28,1.056-3.28,2.608,0,1.136.672,1.856,2.32,2.24l1.424.336c.848.192,1.136.48,1.136.864,0,.512-.512.88-1.408.88a4.518,4.518,0,0,1-2.7-.992l-.992,1.44A5.756,5.756,0,0,0,105.936.192Z" transform="translate(-34 -24)" fill="#07003b"/>
              <path id="Path_800" data-name="Path 800" d="M.266-9.8-2.45-8.414V-6.65L-.014-7.868V0h1.75V-9.8Z" transform="translate(-7 64)" fill="#515e81"/>
              <path id="Path_802" data-name="Path 802" d="M-.973-1.6,1.6-4C2.905-5.222,3.3-6.146,3.3-7.112A2.874,2.874,0,0,0,.119-9.968,4.136,4.136,0,0,0-3.647-7.644l1.358.924A2.8,2.8,0,0,1,.077-8.372a1.313,1.313,0,0,1,1.47,1.33c0,.63-.35,1.274-1.582,2.436l-3.458,3.22V0H3.451V-1.6Z" transform="translate(-7 102)" fill="#515e81"/>
              <path id="Path_797" data-name="Path 797" d="M2.94-1.652V-9.8H1.176V0H7.644V-1.652ZM12.53.168a3.668,3.668,0,0,0,3.794-3.752A3.66,3.66,0,0,0,12.53-7.336,3.672,3.672,0,0,0,8.722-3.584,3.68,3.68,0,0,0,12.53.168Zm0-1.54a2.075,2.075,0,0,1-2.1-2.212,2.064,2.064,0,0,1,2.1-2.2,2.061,2.061,0,0,1,2.086,2.2A2.072,2.072,0,0,1,12.53-1.372Zm10.57-5.8v.56a3.143,3.143,0,0,0-2.072-.728,3.566,3.566,0,0,0-3.556,3.654A3.538,3.538,0,0,0,21.028-.07,3.132,3.132,0,0,0,23.1-.784v.6A1.793,1.793,0,0,1,21.07,1.68,3.74,3.74,0,0,1,18.62.658L17.612,1.89A4.938,4.938,0,0,0,21.1,3.22c2.268,0,3.682-1.274,3.682-3.4V-7.168ZM21.266-1.582a2.026,2.026,0,0,1-2.086-2.1A2.03,2.03,0,0,1,21.266-5.8a2.406,2.406,0,0,1,1.834.84v2.534A2.406,2.406,0,0,1,21.266-1.582ZM27.65-8.12A1.067,1.067,0,0,0,28.714-9.2a1.073,1.073,0,0,0-1.064-1.064A1.088,1.088,0,0,0,26.558-9.2,1.082,1.082,0,0,0,27.65-8.12ZM26.8,0h1.68V-7.168H26.8Zm7.56-7.336a3.431,3.431,0,0,0-2.184.77v-.6h-1.68V0h1.68V-4.942a2.3,2.3,0,0,1,1.764-.84c.938,0,1.526.616,1.526,1.848V0h1.68V-4.3A2.713,2.713,0,0,0,34.356-7.336Zm12.32,7.5a3.745,3.745,0,0,0,4.1-4.088V-9.8H49v5.7c0,1.764-.854,2.6-2.324,2.6s-2.338-.84-2.338-2.6V-9.8H42.574v5.88A3.739,3.739,0,0,0,46.676.168ZM58.814,0h2.142L58.128-3.738a2.872,2.872,0,0,0,2.394-2.968c0-1.9-1.33-3.094-3.444-3.094H53V0h1.764V-3.626H56.14ZM54.768-8.148H56.91c1.218,0,1.792.5,1.792,1.442s-.574,1.442-1.792,1.442H54.768Zm9.674,6.5V-9.8H62.678V0h6.468V-1.652Z" transform="translate(153 24)" fill="#07003b"/>
              <path id="Path_798" data-name="Path 798" d="M2.94-1.652V-9.8H1.176V0H7.644V-1.652ZM12.53.168a3.668,3.668,0,0,0,3.794-3.752A3.66,3.66,0,0,0,12.53-7.336,3.672,3.672,0,0,0,8.722-3.584,3.68,3.68,0,0,0,12.53.168Zm0-1.54a2.075,2.075,0,0,1-2.1-2.212,2.064,2.064,0,0,1,2.1-2.2,2.061,2.061,0,0,1,2.086,2.2A2.072,2.072,0,0,1,12.53-1.372Zm10.57-5.8v.56a3.143,3.143,0,0,0-2.072-.728,3.566,3.566,0,0,0-3.556,3.654A3.538,3.538,0,0,0,21.028-.07,3.132,3.132,0,0,0,23.1-.784v.6A1.793,1.793,0,0,1,21.07,1.68,3.74,3.74,0,0,1,18.62.658L17.612,1.89A4.938,4.938,0,0,0,21.1,3.22c2.268,0,3.682-1.274,3.682-3.4V-7.168ZM21.266-1.582a2.026,2.026,0,0,1-2.086-2.1A2.03,2.03,0,0,1,21.266-5.8a2.406,2.406,0,0,1,1.834.84v2.534A2.406,2.406,0,0,1,21.266-1.582Zm8.9,1.75a3.668,3.668,0,0,0,3.794-3.752A3.66,3.66,0,0,0,30.17-7.336a3.672,3.672,0,0,0-3.808,3.752A3.68,3.68,0,0,0,30.17.168Zm0-1.54a2.075,2.075,0,0,1-2.1-2.212,2.064,2.064,0,0,1,2.1-2.2,2.061,2.061,0,0,1,2.086,2.2A2.072,2.072,0,0,1,30.17-1.372ZM40.4-7.168V-2.24a2.268,2.268,0,0,1-1.764.868c-.952,0-1.484-.6-1.484-1.792v-4h-1.68V-2.8A2.637,2.637,0,0,0,38.206.168,3.364,3.364,0,0,0,40.4-.6V0h1.68V-7.168ZM48.72-1.6a3.76,3.76,0,0,1-1.092.2c-.826,0-1.218-.434-1.218-1.442V-5.7h2.282v-1.47H46.41V-8.876H44.73v1.708H43.26V-5.7h1.47v3.052c0,1.918.882,2.786,2.59,2.786a3.934,3.934,0,0,0,1.638-.322ZM57.89.168a3.745,3.745,0,0,0,4.1-4.088V-9.8H60.214v5.7c0,1.764-.854,2.6-2.324,2.6s-2.338-.84-2.338-2.6V-9.8H53.788v5.88A3.739,3.739,0,0,0,57.89.168ZM70.028,0H72.17L69.342-3.738a2.872,2.872,0,0,0,2.394-2.968c0-1.9-1.33-3.094-3.444-3.094H64.218V0h1.764V-3.626h1.372ZM65.982-8.148h2.142c1.218,0,1.792.5,1.792,1.442s-.574,1.442-1.792,1.442H65.982Zm9.674,6.5V-9.8H73.892V0H80.36V-1.652Z" transform="translate(271 24)" fill="#07003b"/>
              <path id="Path_799" data-name="Path 799" d="M7.952,0H9.828L6.006-9.8H3.976L.154,0H2.016l.868-2.268h4.2ZM3.458-3.794l1.526-3.99L6.51-3.794ZM14.266.168a3.806,3.806,0,0,0,3.248-1.68L16.268-2.45a2.446,2.446,0,0,1-1.974,1.078,2.08,2.08,0,0,1-2.086-2.212,2.066,2.066,0,0,1,2.072-2.2A2.206,2.206,0,0,1,16.114-4.76L17.43-5.8a3.785,3.785,0,0,0-3.136-1.54,3.706,3.706,0,0,0-3.808,3.794A3.623,3.623,0,0,0,14.266.168ZM23.632-1.6a3.76,3.76,0,0,1-1.092.2c-.826,0-1.218-.434-1.218-1.442V-5.7H23.6v-1.47H21.322V-8.876h-1.68v1.708h-1.47V-5.7h1.47v3.052c0,1.918.882,2.786,2.59,2.786A3.934,3.934,0,0,0,23.87-.182ZM26.068-8.12A1.067,1.067,0,0,0,27.132-9.2a1.073,1.073,0,0,0-1.064-1.064A1.088,1.088,0,0,0,24.976-9.2,1.082,1.082,0,0,0,26.068-8.12ZM25.214,0h1.68V-7.168h-1.68Zm7.07.168a3.668,3.668,0,0,0,3.794-3.752,3.66,3.66,0,0,0-3.794-3.752,3.672,3.672,0,0,0-3.808,3.752A3.68,3.68,0,0,0,32.284.168Zm0-1.54a2.075,2.075,0,0,1-2.1-2.212,2.064,2.064,0,0,1,2.1-2.2,2.061,2.061,0,0,1,2.086,2.2A2.072,2.072,0,0,1,32.284-1.372Zm9.24-5.964a3.431,3.431,0,0,0-2.184.77v-.6H37.66V0h1.68V-4.942a2.3,2.3,0,0,1,1.764-.84c.938,0,1.526.616,1.526,1.848V0h1.68V-4.3A2.713,2.713,0,0,0,41.524-7.336Z" transform="translate(388 24)" fill="#07003b"/>
              <path id="Path_796" data-name="Path 796" d="M7.868-9.8v6.9L2.982-9.8H1.176V0H2.94V-6.916L7.826,0H9.632V-9.8ZM17.01-7.168v.546a3.2,3.2,0,0,0-2.058-.714,3.6,3.6,0,0,0-3.57,3.752A3.6,3.6,0,0,0,14.952.168,3.2,3.2,0,0,0,17.01-.546V0h1.68V-7.168ZM15.2-1.372A2.078,2.078,0,0,1,13.09-3.584a2.067,2.067,0,0,1,2.114-2.2,2.315,2.315,0,0,1,1.806.826v2.744A2.329,2.329,0,0,1,15.2-1.372ZM29.218-7.336a3.576,3.576,0,0,0-2.562,1.148,2.388,2.388,0,0,0-2.142-1.148,3.3,3.3,0,0,0-2.114.784v-.616H20.72V0H22.4V-4.928a2.314,2.314,0,0,1,1.68-.854c.8,0,1.344.574,1.344,1.778V0H27.1V-4.368c0-.182-.014-.35-.028-.518a2.26,2.26,0,0,1,1.708-.9c.8,0,1.344.574,1.344,1.778V0h1.68V-4.368C31.808-6.258,30.744-7.336,29.218-7.336ZM40.712-3.794a3.354,3.354,0,0,0-3.556-3.542A3.684,3.684,0,0,0,33.32-3.528a3.577,3.577,0,0,0,3.85,3.7A3.966,3.966,0,0,0,40.488-1.4l-1.176-.9A2.6,2.6,0,0,1,37.2-1.274,2.019,2.019,0,0,1,35-3.164h5.67A4.608,4.608,0,0,0,40.712-3.794Zm-3.57-2.128a1.719,1.719,0,0,1,1.876,1.5H35.084A1.971,1.971,0,0,1,37.142-5.922Z" transform="translate(33 24)" fill="#07003b"/>
              <path id="Path_801" data-name="Path 801" d="M4.3.168c2.324,0,3.71-1.232,3.71-3.066,0-1.372-.8-2.24-2.394-2.632L3.892-5.936c-1.12-.266-1.5-.644-1.5-1.2,0-.7.63-1.232,1.792-1.232A3.545,3.545,0,0,1,6.65-7.364L7.8-8.6A5.134,5.134,0,0,0,4.214-9.968c-2.184,0-3.6,1.232-3.6,2.94,0,1.3.854,2.2,2.408,2.576l1.722.406c1.064.252,1.47.672,1.47,1.274,0,.77-.672,1.33-1.862,1.33a4.847,4.847,0,0,1-2.9-1.078L.434-1.134A6.158,6.158,0,0,0,4.3.168ZM14.322-7.168V-2.24a2.268,2.268,0,0,1-1.764.868c-.952,0-1.484-.6-1.484-1.792v-4H9.394V-2.8A2.637,2.637,0,0,0,12.124.168a3.364,3.364,0,0,0,2.2-.77V0H16V-7.168Zm7.448-.168a3.2,3.2,0,0,0-2.058.714v-3.71h-1.68V0h1.68V-.546A3.2,3.2,0,0,0,21.77.168a3.6,3.6,0,0,0,3.57-3.752A3.6,3.6,0,0,0,21.77-7.336Zm-.252,5.964a2.329,2.329,0,0,1-1.806-.84V-4.956a2.315,2.315,0,0,1,1.806-.826,2.067,2.067,0,0,1,2.114,2.2A2.078,2.078,0,0,1,21.518-1.372Zm8.12,1.54c1.876,0,2.954-.924,2.954-2.324,0-1.022-.588-1.68-2.044-2.016L29.3-4.466c-.77-.182-.994-.378-.994-.7,0-.434.392-.728,1.148-.728a3.416,3.416,0,0,1,2.128.8l.91-1.19a4.4,4.4,0,0,0-2.968-1.05c-1.778,0-2.87.924-2.87,2.282,0,.994.588,1.624,2.03,1.96l1.246.294c.742.168.994.42.994.756,0,.448-.448.77-1.232.77a3.953,3.953,0,0,1-2.366-.868L26.46-.882A5.036,5.036,0,0,0,29.638.168Zm7.84,0a3.806,3.806,0,0,0,3.248-1.68L39.48-2.45a2.446,2.446,0,0,1-1.974,1.078A2.08,2.08,0,0,1,35.42-3.584a2.066,2.066,0,0,1,2.072-2.2A2.206,2.206,0,0,1,39.326-4.76L40.642-5.8a3.785,3.785,0,0,0-3.136-1.54A3.706,3.706,0,0,0,33.7-3.542,3.623,3.623,0,0,0,37.478.168Zm8.218-7.5a2.51,2.51,0,0,0-1.988.938v-.77h-1.68V0h1.68V-4.662a2.238,2.238,0,0,1,1.974-1.092,3.907,3.907,0,0,1,.658.07l.1-1.554A2.927,2.927,0,0,0,45.7-7.336Zm2.856-.784A1.067,1.067,0,0,0,49.616-9.2a1.073,1.073,0,0,0-1.064-1.064A1.088,1.088,0,0,0,47.46-9.2,1.082,1.082,0,0,0,48.552-8.12ZM47.7,0h1.68V-7.168H47.7Zm7.448-7.336a3.2,3.2,0,0,0-2.058.714v-3.71h-1.68V0h1.68V-.546a3.2,3.2,0,0,0,2.058.714,3.6,3.6,0,0,0,3.57-3.752A3.6,3.6,0,0,0,55.146-7.336Zm-.252,5.964a2.329,2.329,0,0,1-1.806-.84V-4.956a2.315,2.315,0,0,1,1.806-.826,2.067,2.067,0,0,1,2.114,2.2A2.078,2.078,0,0,1,54.894-1.372ZM67.256-3.794A3.354,3.354,0,0,0,63.7-7.336a3.684,3.684,0,0,0-3.836,3.808,3.577,3.577,0,0,0,3.85,3.7A3.966,3.966,0,0,0,67.032-1.4l-1.176-.9a2.6,2.6,0,0,1-2.114,1.022,2.019,2.019,0,0,1-2.2-1.89h5.67A4.608,4.608,0,0,0,67.256-3.794Zm-3.57-2.128a1.719,1.719,0,0,1,1.876,1.5H61.628A1.971,1.971,0,0,1,63.686-5.922Zm8.848-1.414a2.51,2.51,0,0,0-1.988.938v-.77h-1.68V0h1.68V-4.662A2.238,2.238,0,0,1,72.52-5.754a3.907,3.907,0,0,1,.658.07l.1-1.554A2.927,2.927,0,0,0,72.534-7.336Z" transform="translate(33 64)" fill="#515e81"/>
              <path id="Path_803" data-name="Path 803" d="M7.952,0H9.828L6.006-9.8H3.976L.154,0H2.016l.868-2.268h4.2ZM3.458-3.794l1.526-3.99L6.51-3.794ZM15.736-7.168V-2.24a2.268,2.268,0,0,1-1.764.868c-.952,0-1.484-.6-1.484-1.792v-4h-1.68V-2.8A2.637,2.637,0,0,0,13.538.168a3.364,3.364,0,0,0,2.2-.77V0h1.68V-7.168ZM24.052-1.6a3.76,3.76,0,0,1-1.092.2c-.826,0-1.218-.434-1.218-1.442V-5.7h2.282v-1.47H21.742V-8.876h-1.68v1.708h-1.47V-5.7h1.47v3.052c0,1.918.882,2.786,2.59,2.786A3.934,3.934,0,0,0,24.29-.182ZM29.5-7.336a3.431,3.431,0,0,0-2.184.77v-3.766h-1.68V0h1.68V-4.942a2.3,2.3,0,0,1,1.764-.84c.938,0,1.526.616,1.526,1.848V0h1.68V-4.3A2.713,2.713,0,0,0,29.5-7.336ZM37.6.168A3.668,3.668,0,0,0,41.4-3.584,3.66,3.66,0,0,0,37.6-7.336,3.672,3.672,0,0,0,33.8-3.584,3.68,3.68,0,0,0,37.6.168Zm0-1.54a2.075,2.075,0,0,1-2.1-2.212,2.064,2.064,0,0,1,2.1-2.2,2.061,2.061,0,0,1,2.086,2.2A2.072,2.072,0,0,1,37.6-1.372Zm9.044-5.964A2.51,2.51,0,0,0,44.66-6.4v-.77H42.98V0h1.68V-4.662a2.238,2.238,0,0,1,1.974-1.092,3.907,3.907,0,0,1,.658.07l.1-1.554A2.927,2.927,0,0,0,46.648-7.336Z" transform="translate(33 102)" fill="#515e81"/>
              <g id="Rectangle_712-2" data-name="Rectangle 712" transform="translate(153 47)" fill="#f5f6fe" stroke="#aeb6f3" stroke-width="2">
                <rect width="88" height="22" rx="4" stroke="none"/>
                <rect x="1" y="1" width="86" height="20" rx="3" fill="none"/>
              </g>
              <g id="Rectangle_717-2" data-name="Rectangle 717" transform="translate(271 47)" fill="#f5f6fe" stroke="#aeb6f3" stroke-width="2">
                <rect width="87" height="22" rx="4" stroke="none"/>
                <rect x="1" y="1" width="85" height="20" rx="3" fill="none"/>
              </g>
              <rect id="Rectangle_720-2" data-name="Rectangle 720" width="45" height="22" rx="4" transform="translate(388 47)" fill="#3c50e0"/>
              <g id="Rectangle_713-2" data-name="Rectangle 713" transform="translate(153 85)" fill="#f5f6fe" stroke="#aeb6f3" stroke-width="2">
                <rect width="88" height="22" rx="4" stroke="none"/>
                <rect x="1" y="1" width="86" height="20" rx="3" fill="none"/>
              </g>
              <g id="Rectangle_714-2" data-name="Rectangle 714" transform="translate(271 85)" fill="#f5f6fe" stroke="#aeb6f3" stroke-width="2">
                <rect width="87" height="22" rx="4" stroke="none"/>
                <rect x="1" y="1" width="85" height="20" rx="3" fill="none"/>
              </g>
              <rect id="Rectangle_722-2" data-name="Rectangle 722" width="45" height="22" rx="4" transform="translate(388 85)" fill="#3c50e0"/>
            </g>
          </g>
        </g>
      </g>
    </g>
  </g>
</svg>
