<svg xmlns="http://www.w3.org/2000/svg" width="50" height="33.001" viewBox="0 0 50 33.001">
  <g id="Capterra_Rating" data-name="Capterra Rating" transform="translate(-635.998 -509.998)">
    <g id="Subtraction_1" data-name="Subtraction 1" transform="translate(-16637 -10455)" fill="none" stroke-linecap="round" stroke-linejoin="round">
      <path d="M17321,10998h-46a2,2,0,0,1-2-2v-7h2a2,2,0,0,0,2-2v-11a2,2,0,0,0-2-2h-2v-7a2,2,0,0,1,2-2h46a2,2,0,0,1,2,2v7h-2a2,2,0,0,0-2,2v11a2,2,0,0,0,2,2h2v7A2,2,0,0,1,17321,10998Z" stroke="none"/>
      <path d="M 17320.99609375 10995.9990234375 C 17320.99609375 10995.998046875 17320.998046875 10995.998046875 17320.998046875 10995.998046875 C 17320.998046875 10995.998046875 17320.998046875 10995.998046875 17320.998046875 10995.998046875 L 17320.998046875 10990.99609375 C 17318.794921875 10990.99609375 17317.001953125 10989.203125 17317.001953125 10987 L 17317.001953125 10975.9970703125 C 17317.001953125 10973.791015625 17318.794921875 10971.99609375 17320.998046875 10971.99609375 L 17320.998046875 10971.99609375 L 17321 10967.001953125 C 17320.998046875 10967.0009765625 17320.998046875 10966.9990234375 17320.99609375 10966.998046875 L 17275 10966.998046875 C 17275 10966.9990234375 17274.998046875 10966.9990234375 17274.998046875 10966.9990234375 C 17274.998046875 10966.9990234375 17274.998046875 10966.9990234375 17274.998046875 10966.9990234375 L 17274.998046875 10971.99609375 C 17277.203125 10971.99609375 17278.998046875 10973.791015625 17278.998046875 10975.9970703125 L 17278.998046875 10987 C 17278.998046875 10989.203125 17277.203125 10990.99609375 17274.998046875 10990.99609375 L 17274.998046875 10990.99609375 L 17274.99609375 10995.9951171875 C 17274.998046875 10995.99609375 17274.998046875 10995.998046875 17275 10995.9990234375 L 17320.99609375 10995.9990234375 M 17320.998046875 10997.9990234375 L 17274.998046875 10997.9990234375 C 17273.896484375 10997.9990234375 17272.998046875 10997.1015625 17272.998046875 10995.998046875 L 17272.998046875 10988.99609375 L 17274.998046875 10988.99609375 C 17276.1015625 10988.99609375 17276.998046875 10988.1005859375 17276.998046875 10987 L 17276.998046875 10975.9970703125 C 17276.998046875 10974.8935546875 17276.1015625 10973.99609375 17274.998046875 10973.99609375 L 17272.998046875 10973.99609375 L 17272.998046875 10966.9990234375 C 17272.998046875 10965.8955078125 17273.896484375 10964.998046875 17274.998046875 10964.998046875 L 17320.998046875 10964.998046875 C 17322.099609375 10964.998046875 17322.998046875 10965.8955078125 17322.998046875 10966.9990234375 L 17322.998046875 10973.99609375 L 17320.998046875 10973.99609375 C 17319.896484375 10973.99609375 17319.001953125 10974.8935546875 17319.001953125 10975.9970703125 L 17319.001953125 10987 C 17319.001953125 10988.1005859375 17319.896484375 10988.99609375 17320.998046875 10988.99609375 L 17322.998046875 10988.99609375 L 17322.998046875 10995.998046875 C 17322.998046875 10997.1015625 17322.099609375 10997.9990234375 17320.998046875 10997.9990234375 Z" stroke="none" fill="#3c50e0"/>
    </g>
    <path id="Path_179" data-name="Path 179" d="M639.754,514.565s5.7.769,7.6,11.748c-.008.04,5.187-18.271,10.027.191,0,.076,1.454-5.072,4.861-5.716" transform="translate(6.033 6.26)" fill="none" stroke="#ff5670" stroke-linecap="round" stroke-width="2"/>
    <rect id="Rectangle_517" data-name="Rectangle 517" width="7" height="7" rx="3.5" transform="translate(670 523)" fill="#ff5670"/>
    <line id="Line_24" data-name="Line 24" x2="43" transform="translate(639.498 515)" fill="none" stroke="#3c50e0" stroke-width="2" stroke-dasharray="3 2"/>
    <line id="Line_25" data-name="Line 25" x2="43" transform="translate(639.498 538)" fill="none" stroke="#3c50e0" stroke-width="2" stroke-dasharray="3 2"/>
  </g>
</svg>
