<svg xmlns="http://www.w3.org/2000/svg" width="232" height="696" viewBox="0 0 232 696"><g transform="translate(-1120 -2878)"><path d="M0,0H232a0,0,0,0,1,0,0V0A232,232,0,0,1,0,232H0a0,0,0,0,1,0,0V0A0,0,0,0,1,0,0Z" transform="translate(1120 3110)" fill="#fdb400"/><g transform="translate(1390 428) rotate(90)"><path d="M0,0,232,232H0Z" transform="translate(2914 38)" fill="#ff5670"/></g><g transform="translate(1390 544) rotate(90)" opacity="0.3"><path d="M0,0,116,116H0Z" transform="translate(2914 38)" fill="#ff5670"/></g><rect width="232" height="232" rx="116" transform="translate(1120 2878)" fill="#3c50e0"/></g></svg>