<svg xmlns="http://www.w3.org/2000/svg" width="100" height="100" viewBox="0 0 100 100">
  <path id="Path_611" data-name="Path 611" d="M-7.812-87.5A4.676,4.676,0,0,0-12.5-82.812V-50H-29.648A3.9,3.9,0,0,0-32.4-43.34L-2.656-13.613a3.784,3.784,0,0,0,5.332,0L32.383-43.34A3.9,3.9,0,0,0,29.629-50H12.5V-82.812A4.676,4.676,0,0,0,7.813-87.5ZM50-14.062a4.676,4.676,0,0,0-4.687-4.687H16.66L7.09-9.18a10.008,10.008,0,0,1-14.18,0l-9.57-9.57H-45.312A4.676,4.676,0,0,0-50-14.062V7.813A4.676,4.676,0,0,0-45.312,12.5H45.313A4.676,4.676,0,0,0,50,7.813ZM25.781,3.125A3.906,3.906,0,1,1,21.875-.781,3.918,3.918,0,0,1,25.781,3.125Zm12.5,0A3.906,3.906,0,1,1,34.375-.781,3.918,3.918,0,0,1,38.281,3.125Z" transform="translate(50 87.5)" fill="#ff5670"/>
</svg>
