<svg xmlns="http://www.w3.org/2000/svg" xmlns:xlink="http://www.w3.org/1999/xlink" width="645" height="556" viewBox="0 0 645 556">
  <defs>
    <filter id="Rectangle_436" x="103" y="67" width="542" height="489" filterUnits="userSpaceOnUse">
      <feOffset dy="5" input="SourceAlpha"/>
      <feGaussianBlur stdDeviation="10" result="blur"/>
      <feFlood flood-color="#3c50e0" flood-opacity="0.149"/>
      <feComposite operator="in" in2="blur"/>
      <feComposite in="SourceGraphic"/>
    </filter>
    <filter id="Rectangle_473" x="0" y="0" width="300" height="190" filterUnits="userSpaceOnUse">
      <feOffset dy="5" input="SourceAlpha"/>
      <feGaussianBlur stdDeviation="10" result="blur-2"/>
      <feFlood flood-color="#3c50e0" flood-opacity="0.149"/>
      <feComposite operator="in" in2="blur-2"/>
      <feComposite in="SourceGraphic"/>
    </filter>
  </defs>
  <g id="feature-11" transform="translate(-63 -1576)">
    <g id="setting_1" data-name="setting 1" transform="translate(-137.877 92)">
      <g transform="matrix(1, 0, 0, 1, 200.88, 1484)" filter="url(#Rectangle_436)">
        <rect id="Rectangle_436-2" data-name="Rectangle 436" width="482" height="429" rx="10" transform="translate(133 92)" fill="#fff"/>
      </g>
      <g id="Height" transform="translate(358.877 1880)">
        <path id="Path_696" data-name="Path 696" d="M8.05-8.162V-9.8H1.176V0H8.05V-1.638H2.94V-4.27H7.392V-5.894H2.94V-8.162ZM16.562,0,13.9-3.7,16.45-7.168H14.56l-1.68,2.31-1.666-2.31H9.324L11.872-3.7,9.2,0h1.918L12.88-2.45,14.644,0ZM21.5-7.336a3.116,3.116,0,0,0-2.072.728v-.56h-1.68V3.052h1.68V-.56A3.116,3.116,0,0,0,21.5.168,3.6,3.6,0,0,0,25.06-3.584,3.6,3.6,0,0,0,21.5-7.336Zm-.252,5.964a2.336,2.336,0,0,1-1.82-.84V-4.956a2.323,2.323,0,0,1,1.82-.826,2.056,2.056,0,0,1,2.1,2.2A2.068,2.068,0,0,1,21.252-1.372ZM30.03.168a3.668,3.668,0,0,0,3.794-3.752A3.66,3.66,0,0,0,30.03-7.336a3.672,3.672,0,0,0-3.808,3.752A3.68,3.68,0,0,0,30.03.168Zm0-1.54a2.075,2.075,0,0,1-2.1-2.212,2.064,2.064,0,0,1,2.1-2.2,2.061,2.061,0,0,1,2.086,2.2A2.072,2.072,0,0,1,30.03-1.372Zm9.044-5.964a2.51,2.51,0,0,0-1.988.938v-.77h-1.68V0h1.68V-4.662A2.238,2.238,0,0,1,39.06-5.754a3.907,3.907,0,0,1,.658.07l.1-1.554A2.927,2.927,0,0,0,39.074-7.336ZM45.99-1.6a3.76,3.76,0,0,1-1.092.2c-.826,0-1.218-.434-1.218-1.442V-5.7h2.282v-1.47H43.68V-8.876H42v1.708H40.53V-5.7H42v3.052C42-.728,42.882.14,44.59.14a3.934,3.934,0,0,0,1.638-.322ZM58.044-8.162V-9.8H51.17V0h1.764V-3.948h4.69V-5.586h-4.69V-8.162Zm2.6.042A1.067,1.067,0,0,0,61.712-9.2a1.073,1.073,0,0,0-1.064-1.064A1.088,1.088,0,0,0,59.556-9.2,1.082,1.082,0,0,0,60.648-8.12ZM59.794,0h1.68V-7.168h-1.68Zm3.7,0h1.68V-10.332H63.49ZM74.144-3.794a3.354,3.354,0,0,0-3.556-3.542,3.684,3.684,0,0,0-3.836,3.808A3.577,3.577,0,0,0,70.6.168,3.966,3.966,0,0,0,73.92-1.4l-1.176-.9A2.6,2.6,0,0,1,70.63-1.274a2.019,2.019,0,0,1-2.2-1.89H74.1A4.608,4.608,0,0,0,74.144-3.794Zm-3.57-2.128a1.719,1.719,0,0,1,1.876,1.5H68.516A1.971,1.971,0,0,1,70.574-5.922Z" transform="translate(0 11)" fill="#07003b"/>
        <g id="Login" transform="translate(0 29)">
          <rect id="Retângulo_Arredondado_5_copiar_4" data-name="Retângulo Arredondado 5 copiar 4" width="226" height="56" rx="5" fill="#3c50e0"/>
          <path id="Path_697" data-name="Path 697" d="M-48.922-9.06V-10.5h-7.26V0h7.26V-1.44h-5.685V-4.755h5V-6.2h-5V-9.06ZM-39.937,0l-2.91-3.945,2.745-3.69h-1.71L-43.778-4.98l-1.965-2.655h-1.695l2.745,3.69L-47.6,0h1.74l2.1-2.85L-41.677,0Zm5.22-7.815a3.436,3.436,0,0,0-2.34.84v-.66h-1.5V3.27h1.5V-.675a3.375,3.375,0,0,0,2.34.855,3.859,3.859,0,0,0,3.84-4.005A3.855,3.855,0,0,0-34.717-7.815Zm-.195,6.63A2.782,2.782,0,0,1-37.057-2.19V-5.445A2.782,2.782,0,0,1-34.912-6.45a2.476,2.476,0,0,1,2.505,2.625A2.48,2.48,0,0,1-34.912-1.185ZM-25.522.18A3.907,3.907,0,0,0-21.5-3.825a3.9,3.9,0,0,0-4.02-3.99,3.907,3.907,0,0,0-4.035,3.99A3.91,3.91,0,0,0-25.522.18Zm0-1.365a2.488,2.488,0,0,1-2.5-2.64,2.484,2.484,0,0,1,2.5-2.625,2.472,2.472,0,0,1,2.49,2.625A2.477,2.477,0,0,1-25.522-1.185Zm9.555-6.63a2.708,2.708,0,0,0-2.2,1.08v-.9h-1.5V0h1.5V-5.13A2.406,2.406,0,0,1-16-6.42a3.15,3.15,0,0,1,.72.09l.105-1.38A3.136,3.136,0,0,0-15.967-7.815Zm7.41,6.36a3.5,3.5,0,0,1-1.23.24c-.945,0-1.395-.51-1.395-1.68v-3.45h2.6v-1.29h-2.6V-9.51h-1.5v1.875h-1.665v1.29h1.665V-2.73c0,1.98.93,2.88,2.67,2.88A4.172,4.172,0,0,0-8.288-.2ZM.427.18C2.842.18,4.327-1.1,4.327-3c0-1.44-.855-2.37-2.46-2.76l-2.055-.5c-1.2-.285-1.68-.765-1.68-1.455,0-.885.78-1.545,2.16-1.545A3.772,3.772,0,0,1,3.037-8.13l1.05-1.095A5.439,5.439,0,0,0,.322-10.68c-2.265,0-3.765,1.305-3.765,3.06,0,1.365.9,2.325,2.49,2.715l2.055.5c1.125.27,1.635.78,1.635,1.515,0,.96-.855,1.65-2.265,1.65a5.1,5.1,0,0,1-3.165-1.2L-3.623-1.2A6.393,6.393,0,0,0,.427.18Zm13.2-4.26a3.555,3.555,0,0,0-3.75-3.735,3.911,3.911,0,0,0-4.065,4.05A3.8,3.8,0,0,0,9.877.18a4.123,4.123,0,0,0,3.51-1.725l-1.065-.81a2.874,2.874,0,0,1-2.415,1.23,2.4,2.4,0,0,1-2.58-2.34h6.255A3.813,3.813,0,0,0,13.627-4.08ZM9.877-6.54a2.074,2.074,0,0,1,2.235,1.86H7.417A2.355,2.355,0,0,1,9.877-6.54ZM20.212-1.455a3.5,3.5,0,0,1-1.23.24c-.945,0-1.4-.51-1.4-1.68v-3.45h2.6v-1.29h-2.6V-9.51h-1.5v1.875H14.422v1.29h1.665V-2.73c0,1.98.93,2.88,2.67,2.88A4.172,4.172,0,0,0,20.482-.2Zm6.585,0a3.5,3.5,0,0,1-1.23.24c-.945,0-1.4-.51-1.4-1.68v-3.45h2.6v-1.29h-2.6V-9.51h-1.5v1.875H21.007v1.29h1.665V-2.73c0,1.98.93,2.88,2.67,2.88A4.172,4.172,0,0,0,27.067-.2Zm2.55-7.32a1.018,1.018,0,0,0,1.02-1,1.031,1.031,0,0,0-1.02-1.02,1.031,1.031,0,0,0-1.02,1.02A1.018,1.018,0,0,0,29.347-8.775ZM28.6,0h1.5V-7.635H28.6Zm7.74-7.815a3.639,3.639,0,0,0-2.43.885v-.7h-1.5V0h1.5V-5.445a2.752,2.752,0,0,1,2.1-1.005c1.125,0,1.83.75,1.83,2.2V0h1.5V-4.56C39.337-6.645,38.107-7.815,36.337-7.815Zm10.92.18v.66a3.452,3.452,0,0,0-2.325-.84A3.839,3.839,0,0,0,41.077-3.9,3.836,3.836,0,0,0,44.917.015a3.464,3.464,0,0,0,2.34-.84v.69A2.1,2.1,0,0,1,44.9,2.085,4.052,4.052,0,0,1,42.187.945l-.915,1.1a5.061,5.061,0,0,0,3.645,1.41c2.37,0,3.84-1.35,3.84-3.585v-7.5ZM45.1-1.35a2.452,2.452,0,0,1-2.49-2.55A2.452,2.452,0,0,1,45.1-6.45a2.785,2.785,0,0,1,2.16,1.005v3.09A2.834,2.834,0,0,1,45.1-1.35ZM53.887.18c1.92,0,3.03-.975,3.03-2.415,0-1.08-.6-1.785-2.16-2.13l-1.32-.3c-.975-.225-1.245-.495-1.245-.9,0-.555.5-.945,1.425-.945a3.35,3.35,0,0,1,2.295.915l.915-1.05a4.356,4.356,0,0,0-3.12-1.17c-1.83,0-2.985.96-2.985,2.355,0,1.05.645,1.725,2.175,2.07l1.335.3c.915.21,1.215.54,1.215.96,0,.57-.57.99-1.515.99a3.935,3.935,0,0,1-2.55-.99L50.512-1A5.038,5.038,0,0,0,53.887.18Z" transform="translate(113 33)" fill="#fff"/>
        </g>
      </g>
      <g id="Disable" transform="translate(358.877 1685)">
        <path id="Path_693" data-name="Path 693" d="M1.344,0H3.36V-11.2H1.344ZM15.568-8.384A4.087,4.087,0,0,0,12.64-7.072a2.729,2.729,0,0,0-2.448-1.312,3.77,3.77,0,0,0-2.416.9v-.7H5.856V0h1.92V-5.632A2.645,2.645,0,0,1,9.7-6.608c.912,0,1.536.656,1.536,2.032V0h1.92V-4.992c0-.208-.016-.4-.032-.592a2.583,2.583,0,0,1,1.952-1.024c.912,0,1.536.656,1.536,2.032V0h1.92V-4.992C18.528-7.152,17.312-8.384,15.568-8.384Zm9.472,0a3.561,3.561,0,0,0-2.368.832v-.64h-1.92V3.488h1.92V-.64A3.561,3.561,0,0,0,25.04.192,4.114,4.114,0,0,0,29.1-4.1,4.114,4.114,0,0,0,25.04-8.384Zm-.288,6.816a2.67,2.67,0,0,1-2.08-.96V-5.664a2.655,2.655,0,0,1,2.08-.944,2.35,2.35,0,0,1,2.4,2.512A2.363,2.363,0,0,1,24.752-1.568ZM34.784.192A4.192,4.192,0,0,0,39.12-4.1a4.183,4.183,0,0,0-4.336-4.288A4.2,4.2,0,0,0,30.432-4.1,4.205,4.205,0,0,0,34.784.192Zm0-1.76a2.372,2.372,0,0,1-2.4-2.528,2.358,2.358,0,0,1,2.4-2.512A2.355,2.355,0,0,1,37.168-4.1,2.368,2.368,0,0,1,34.784-1.568ZM45.12-8.384a2.868,2.868,0,0,0-2.272,1.072v-.88h-1.92V0h1.92V-5.328A2.558,2.558,0,0,1,45.1-6.576a4.465,4.465,0,0,1,.752.08l.112-1.776A3.345,3.345,0,0,0,45.12-8.384Zm7.9,6.56a4.3,4.3,0,0,1-1.248.224c-.944,0-1.392-.5-1.392-1.648V-6.512h2.608v-1.68H50.384v-1.952h-1.92v1.952h-1.68v1.68h1.68v3.488c0,2.192,1.008,3.184,2.96,3.184A4.5,4.5,0,0,0,53.3-.208Zm4.752,3.3H59.7l5.92-13.344H63.7Zm21.136-10.8V-11.2H71.056V0h7.856V-1.872h-5.84V-4.88H78.16V-6.736H73.072V-9.328ZM88.64,0,85.6-4.224l2.912-3.968h-2.16l-1.92,2.64-1.9-2.64h-2.16L83.28-4.224,80.224,0h2.192l2.016-2.8L86.448,0Zm5.648-8.384a3.561,3.561,0,0,0-2.368.832v-.64H90V3.488h1.92V-.64a3.561,3.561,0,0,0,2.368.832A4.114,4.114,0,0,0,98.352-4.1,4.114,4.114,0,0,0,94.288-8.384ZM94-1.568a2.67,2.67,0,0,1-2.08-.96V-5.664A2.655,2.655,0,0,1,94-6.608,2.35,2.35,0,0,1,96.4-4.1,2.363,2.363,0,0,1,94-1.568ZM104.032.192A4.192,4.192,0,0,0,108.368-4.1a4.183,4.183,0,0,0-4.336-4.288A4.2,4.2,0,0,0,99.68-4.1,4.205,4.205,0,0,0,104.032.192Zm0-1.76a2.372,2.372,0,0,1-2.4-2.528,2.358,2.358,0,0,1,2.4-2.512A2.355,2.355,0,0,1,106.416-4.1,2.368,2.368,0,0,1,104.032-1.568Zm10.336-6.816A2.868,2.868,0,0,0,112.1-7.312v-.88h-1.92V0h1.92V-5.328a2.558,2.558,0,0,1,2.256-1.248,4.465,4.465,0,0,1,.752.08l.112-1.776A3.345,3.345,0,0,0,114.368-8.384Zm7.9,6.56a4.3,4.3,0,0,1-1.248.224c-.944,0-1.392-.5-1.392-1.648V-6.512h2.608v-1.68h-2.608v-1.952h-1.92v1.952h-1.68v1.68h1.68v3.488c0,2.192,1.008,3.184,2.96,3.184a4.5,4.5,0,0,0,1.872-.368Zm7.936-.064V-11.2h-2.016V0h7.392V-1.888Zm10.96,2.08A4.192,4.192,0,0,0,145.5-4.1a4.183,4.183,0,0,0-4.336-4.288A4.2,4.2,0,0,0,136.816-4.1,4.205,4.205,0,0,0,141.168.192Zm0-1.76a2.372,2.372,0,0,1-2.4-2.528,2.358,2.358,0,0,1,2.4-2.512A2.355,2.355,0,0,1,143.552-4.1,2.368,2.368,0,0,1,141.168-1.568Zm12.08-6.624v.64a3.591,3.591,0,0,0-2.368-.832,4.075,4.075,0,0,0-4.064,4.176A4.044,4.044,0,0,0,150.88-.08,3.579,3.579,0,0,0,153.248-.9v.688a2.049,2.049,0,0,1-2.32,2.128,4.274,4.274,0,0,1-2.8-1.168L146.976,2.16a5.643,5.643,0,0,0,3.984,1.52c2.592,0,4.208-1.456,4.208-3.888V-8.192Zm-2.1,6.384a2.316,2.316,0,0,1-2.384-2.4,2.32,2.32,0,0,1,2.384-2.416,2.75,2.75,0,0,1,2.1.96v2.9A2.75,2.75,0,0,1,151.152-1.808Zm7.3-7.472a1.219,1.219,0,0,0,1.216-1.232,1.226,1.226,0,0,0-1.216-1.216,1.243,1.243,0,0,0-1.248,1.216A1.236,1.236,0,0,0,158.448-9.28ZM157.472,0h1.92V-8.192h-1.92Zm8.64-8.384a3.921,3.921,0,0,0-2.5.88v-.688H161.7V0h1.92V-5.648a2.628,2.628,0,0,1,2.016-.96c1.072,0,1.744.7,1.744,2.112V0h1.92V-4.912C169.3-7.12,168-8.384,166.112-8.384ZM176.176-11.2h-4.464V0h2.016V-4.048h2.448c2.5,0,4.016-1.344,4.016-3.584C180.192-9.856,178.672-11.2,176.176-11.2Zm-.16,5.264h-2.288V-9.312h2.288c1.44,0,2.112.592,2.112,1.68C178.128-6.528,177.456-5.936,176.016-5.936Zm10.208-2.448a2.868,2.868,0,0,0-2.272,1.072v-.88h-1.92V0h1.92V-5.328a2.558,2.558,0,0,1,2.256-1.248,4.465,4.465,0,0,1,.752.08l.112-1.776A3.345,3.345,0,0,0,186.224-8.384Zm10.032,4.048a3.833,3.833,0,0,0-4.064-4.048,4.21,4.21,0,0,0-4.384,4.352,4.088,4.088,0,0,0,4.4,4.224A4.532,4.532,0,0,0,196-1.6l-1.344-1.024a2.972,2.972,0,0,1-2.416,1.168,2.308,2.308,0,0,1-2.512-2.16h6.48A5.266,5.266,0,0,0,196.256-4.336Zm-4.08-2.432a1.964,1.964,0,0,1,2.144,1.712h-4.5A2.252,2.252,0,0,1,192.176-6.768ZM201.2.192c2.144,0,3.376-1.056,3.376-2.656,0-1.168-.672-1.92-2.336-2.3L200.816-5.1c-.88-.208-1.136-.432-1.136-.8,0-.5.448-.832,1.312-.832a3.9,3.9,0,0,1,2.432.912l1.04-1.36a5.03,5.03,0,0,0-3.392-1.2c-2.032,0-3.28,1.056-3.28,2.608,0,1.136.672,1.856,2.32,2.24l1.424.336c.848.192,1.136.48,1.136.864,0,.512-.512.88-1.408.88a4.518,4.518,0,0,1-2.7-.992l-.992,1.44A5.756,5.756,0,0,0,201.2.192Zm8.16,0c2.144,0,3.376-1.056,3.376-2.656,0-1.168-.672-1.92-2.336-2.3L208.976-5.1c-.88-.208-1.136-.432-1.136-.8,0-.5.448-.832,1.312-.832a3.9,3.9,0,0,1,2.432.912l1.04-1.36a5.03,5.03,0,0,0-3.392-1.2c-2.032,0-3.28,1.056-3.28,2.608,0,1.136.672,1.856,2.32,2.24L209.7-3.2c.848.192,1.136.48,1.136.864,0,.512-.512.88-1.408.88a4.518,4.518,0,0,1-2.7-.992l-.992,1.44A5.756,5.756,0,0,0,209.36.192Zm12.8,0c2.656,0,4.24-1.408,4.24-3.5,0-1.568-.912-2.56-2.736-3.008L221.7-6.784c-1.28-.3-1.712-.736-1.712-1.376,0-.8.72-1.408,2.048-1.408a4.052,4.052,0,0,1,2.816,1.152l1.312-1.408a5.867,5.867,0,0,0-4.1-1.568c-2.5,0-4.112,1.408-4.112,3.36,0,1.488.976,2.512,2.752,2.944l1.968.464c1.216.288,1.68.768,1.68,1.456,0,.88-.768,1.52-2.128,1.52a5.539,5.539,0,0,1-3.312-1.232L217.744-1.3A7.038,7.038,0,0,0,222.16.192ZM236.3-4.336a3.833,3.833,0,0,0-4.064-4.048,4.21,4.21,0,0,0-4.384,4.352,4.088,4.088,0,0,0,4.4,4.224A4.532,4.532,0,0,0,236.048-1.6L234.7-2.624a2.972,2.972,0,0,1-2.416,1.168,2.308,2.308,0,0,1-2.512-2.16h6.48A5.266,5.266,0,0,0,236.3-4.336Zm-4.08-2.432a1.964,1.964,0,0,1,2.144,1.712h-4.5A2.252,2.252,0,0,1,232.224-6.768ZM243.36-1.824a4.3,4.3,0,0,1-1.248.224c-.944,0-1.392-.5-1.392-1.648V-6.512h2.608v-1.68H240.72v-1.952H238.8v1.952h-1.68v1.68h1.68v3.488c0,2.192,1.008,3.184,2.96,3.184a4.5,4.5,0,0,0,1.872-.368Zm7.056,0a4.3,4.3,0,0,1-1.248.224c-.944,0-1.392-.5-1.392-1.648V-6.512h2.608v-1.68h-2.608v-1.952h-1.92v1.952h-1.68v1.68h1.68v3.488c0,2.192,1.008,3.184,2.96,3.184a4.5,4.5,0,0,0,1.872-.368ZM253.2-9.28a1.219,1.219,0,0,0,1.216-1.232,1.226,1.226,0,0,0-1.216-1.216,1.243,1.243,0,0,0-1.248,1.216A1.236,1.236,0,0,0,253.2-9.28ZM252.224,0h1.92V-8.192h-1.92Zm8.64-8.384a3.921,3.921,0,0,0-2.5.88v-.688h-1.92V0h1.92V-5.648a2.628,2.628,0,0,1,2.016-.96c1.072,0,1.744.7,1.744,2.112V0h1.92V-4.912C264.048-7.12,262.752-8.384,260.864-8.384Zm11.344.192v.64a3.592,3.592,0,0,0-2.368-.832,4.075,4.075,0,0,0-4.064,4.176A4.044,4.044,0,0,0,269.84-.08,3.579,3.579,0,0,0,272.208-.9v.688a2.049,2.049,0,0,1-2.32,2.128,4.274,4.274,0,0,1-2.8-1.168L265.936,2.16a5.643,5.643,0,0,0,3.984,1.52c2.592,0,4.208-1.456,4.208-3.888V-8.192Zm-2.1,6.384a2.316,2.316,0,0,1-2.384-2.4,2.32,2.32,0,0,1,2.384-2.416,2.75,2.75,0,0,1,2.1.96v2.9A2.75,2.75,0,0,1,270.112-1.808Zm9.392,2c2.144,0,3.376-1.056,3.376-2.656,0-1.168-.672-1.92-2.336-2.3L279.12-5.1c-.88-.208-1.136-.432-1.136-.8,0-.5.448-.832,1.312-.832a3.9,3.9,0,0,1,2.432.912l1.04-1.36a5.03,5.03,0,0,0-3.392-1.2c-2.032,0-3.28,1.056-3.28,2.608,0,1.136.672,1.856,2.32,2.24l1.424.336c.848.192,1.136.48,1.136.864,0,.512-.512.88-1.408.88a4.518,4.518,0,0,1-2.7-.992l-.992,1.44A5.755,5.755,0,0,0,279.5.192Z" transform="translate(0 10)" fill="#07003b"/>
      </g>
      <g id="logo_Image" data-name="logo Image" transform="translate(358.877 1763)">
        <g id="Upload_box" data-name="Upload box" transform="translate(0)">
          <g id="Rectangle_550" data-name="Rectangle 550" fill="rgba(60,80,224,0.1)" stroke="#8495c2" stroke-width="2" stroke-dasharray="4 4">
            <rect width="432" height="87" rx="10" stroke="none"/>
            <rect x="1" y="1" width="430" height="85" rx="9" fill="none"/>
          </g>
          <path id="Path_695" data-name="Path 695" d="M-63.5,0h1.764V-9.8H-63.5Zm12.446-7.336A3.576,3.576,0,0,0-53.62-6.188a2.388,2.388,0,0,0-2.142-1.148,3.3,3.3,0,0,0-2.114.784v-.616h-1.68V0h1.68V-4.928a2.314,2.314,0,0,1,1.68-.854c.8,0,1.344.574,1.344,1.778V0h1.68V-4.368c0-.182-.014-.35-.028-.518a2.26,2.26,0,0,1,1.708-.9c.8,0,1.344.574,1.344,1.778V0h1.68V-4.368C-48.468-6.258-49.532-7.336-51.058-7.336Zm8.288,0a3.116,3.116,0,0,0-2.072.728v-.56h-1.68V3.052h1.68V-.56A3.116,3.116,0,0,0-42.77.168a3.6,3.6,0,0,0,3.556-3.752A3.6,3.6,0,0,0-42.77-7.336Zm-.252,5.964a2.336,2.336,0,0,1-1.82-.84V-4.956a2.323,2.323,0,0,1,1.82-.826,2.056,2.056,0,0,1,2.1,2.2A2.068,2.068,0,0,1-43.022-1.372Zm8.778,1.54A3.668,3.668,0,0,0-30.45-3.584a3.66,3.66,0,0,0-3.794-3.752,3.672,3.672,0,0,0-3.808,3.752A3.68,3.68,0,0,0-34.244.168Zm0-1.54a2.075,2.075,0,0,1-2.1-2.212,2.064,2.064,0,0,1,2.1-2.2,2.061,2.061,0,0,1,2.086,2.2A2.072,2.072,0,0,1-34.244-1.372ZM-25.2-7.336a2.51,2.51,0,0,0-1.988.938v-.77h-1.68V0h1.68V-4.662a2.238,2.238,0,0,1,1.974-1.092,3.907,3.907,0,0,1,.658.07l.1-1.554A2.927,2.927,0,0,0-25.2-7.336Zm6.916,5.74a3.76,3.76,0,0,1-1.092.2c-.826,0-1.218-.434-1.218-1.442V-5.7h2.282v-1.47h-2.282V-8.876h-1.68v1.708h-1.47V-5.7h1.47v3.052c0,1.918.882,2.786,2.59,2.786a3.934,3.934,0,0,0,1.638-.322Zm8.3,1.764c2.324,0,3.71-1.232,3.71-3.066,0-1.372-.8-2.24-2.394-2.632l-1.722-.406c-1.12-.266-1.5-.644-1.5-1.2,0-.7.63-1.232,1.792-1.232A3.545,3.545,0,0,1-7.63-7.364L-6.482-8.6a5.134,5.134,0,0,0-3.584-1.372c-2.184,0-3.6,1.232-3.6,2.94,0,1.3.854,2.2,2.408,2.576l1.722.406c1.064.252,1.47.672,1.47,1.274,0,.77-.672,1.33-1.862,1.33a4.847,4.847,0,0,1-2.9-1.078l-1.022,1.386A6.158,6.158,0,0,0-9.982.168ZM2.394-3.794A3.354,3.354,0,0,0-1.162-7.336,3.684,3.684,0,0,0-5-3.528a3.577,3.577,0,0,0,3.85,3.7A3.966,3.966,0,0,0,2.17-1.4L.994-2.3A2.6,2.6,0,0,1-1.12-1.274a2.019,2.019,0,0,1-2.2-1.89h5.67A4.608,4.608,0,0,0,2.394-3.794Zm-3.57-2.128A1.719,1.719,0,0,1,.7-4.424H-3.234A1.971,1.971,0,0,1-1.176-5.922ZM8.568-1.6a3.76,3.76,0,0,1-1.092.2c-.826,0-1.218-.434-1.218-1.442V-5.7H8.54v-1.47H6.258V-8.876H4.578v1.708H3.108V-5.7h1.47v3.052C4.578-.728,5.46.14,7.168.14A3.934,3.934,0,0,0,8.806-.182Zm6.174,0a3.76,3.76,0,0,1-1.092.2c-.826,0-1.218-.434-1.218-1.442V-5.7h2.282v-1.47H12.432V-8.876h-1.68v1.708H9.282V-5.7h1.47v3.052c0,1.918.882,2.786,2.59,2.786A3.934,3.934,0,0,0,14.98-.182ZM17.178-8.12A1.067,1.067,0,0,0,18.242-9.2a1.073,1.073,0,0,0-1.064-1.064A1.088,1.088,0,0,0,16.086-9.2,1.082,1.082,0,0,0,17.178-8.12ZM16.324,0H18V-7.168h-1.68Zm7.56-7.336a3.431,3.431,0,0,0-2.184.77v-.6H20.02V0H21.7V-4.942a2.3,2.3,0,0,1,1.764-.84c.938,0,1.526.616,1.526,1.848V0h1.68V-4.3A2.713,2.713,0,0,0,23.884-7.336Zm9.926.168v.56a3.143,3.143,0,0,0-2.072-.728,3.566,3.566,0,0,0-3.556,3.654A3.538,3.538,0,0,0,31.738-.07,3.132,3.132,0,0,0,33.81-.784v.6A1.793,1.793,0,0,1,31.78,1.68,3.74,3.74,0,0,1,29.33.658L28.322,1.89a4.938,4.938,0,0,0,3.486,1.33c2.268,0,3.682-1.274,3.682-3.4V-7.168ZM31.976-1.582a2.026,2.026,0,0,1-2.086-2.1A2.03,2.03,0,0,1,31.976-5.8a2.406,2.406,0,0,1,1.834.84v2.534A2.406,2.406,0,0,1,31.976-1.582Zm16-6.58V-9.8H41.1V0h1.764V-3.948h4.69V-5.586h-4.69V-8.162Zm2.6.042A1.067,1.067,0,0,0,51.646-9.2a1.073,1.073,0,0,0-1.064-1.064A1.088,1.088,0,0,0,49.49-9.2,1.082,1.082,0,0,0,50.582-8.12ZM49.728,0h1.68V-7.168h-1.68Zm3.7,0H55.1V-10.332h-1.68ZM64.078-3.794a3.354,3.354,0,0,0-3.556-3.542,3.684,3.684,0,0,0-3.836,3.808,3.577,3.577,0,0,0,3.85,3.7A3.966,3.966,0,0,0,63.854-1.4l-1.176-.9a2.6,2.6,0,0,1-2.114,1.022,2.019,2.019,0,0,1-2.2-1.89h5.67A4.608,4.608,0,0,0,64.078-3.794Zm-3.57-2.128a1.719,1.719,0,0,1,1.876,1.5H58.45A1.971,1.971,0,0,1,60.508-5.922Z" transform="translate(217 48)" fill="#07003b" opacity="0.4"/>
        </g>
        <path id="Path_694" data-name="Path 694" d="M2.94-1.652V-9.8H1.176V0H7.644V-1.652ZM12.53.168a3.668,3.668,0,0,0,3.794-3.752A3.66,3.66,0,0,0,12.53-7.336,3.672,3.672,0,0,0,8.722-3.584,3.68,3.68,0,0,0,12.53.168Zm0-1.54a2.075,2.075,0,0,1-2.1-2.212,2.064,2.064,0,0,1,2.1-2.2,2.061,2.061,0,0,1,2.086,2.2A2.072,2.072,0,0,1,12.53-1.372Zm10.57-5.8v.56a3.143,3.143,0,0,0-2.072-.728,3.566,3.566,0,0,0-3.556,3.654A3.538,3.538,0,0,0,21.028-.07,3.132,3.132,0,0,0,23.1-.784v.6A1.793,1.793,0,0,1,21.07,1.68,3.74,3.74,0,0,1,18.62.658L17.612,1.89A4.938,4.938,0,0,0,21.1,3.22c2.268,0,3.682-1.274,3.682-3.4V-7.168ZM21.266-1.582a2.026,2.026,0,0,1-2.086-2.1A2.03,2.03,0,0,1,21.266-5.8a2.406,2.406,0,0,1,1.834.84v2.534A2.406,2.406,0,0,1,21.266-1.582Zm8.9,1.75a3.668,3.668,0,0,0,3.794-3.752A3.66,3.66,0,0,0,30.17-7.336a3.672,3.672,0,0,0-3.808,3.752A3.68,3.68,0,0,0,30.17.168Zm0-1.54a2.075,2.075,0,0,1-2.1-2.212,2.064,2.064,0,0,1,2.1-2.2,2.061,2.061,0,0,1,2.086,2.2A2.072,2.072,0,0,1,30.17-1.372ZM39.144,0h1.764V-9.8H39.144ZM51.59-7.336a3.576,3.576,0,0,0-2.562,1.148,2.388,2.388,0,0,0-2.142-1.148,3.3,3.3,0,0,0-2.114.784v-.616h-1.68V0h1.68V-4.928a2.314,2.314,0,0,1,1.68-.854c.8,0,1.344.574,1.344,1.778V0h1.68V-4.368c0-.182-.014-.35-.028-.518a2.26,2.26,0,0,1,1.708-.9c.8,0,1.344.574,1.344,1.778V0h1.68V-4.368C54.18-6.258,53.116-7.336,51.59-7.336Zm9.73.168v.546a3.2,3.2,0,0,0-2.058-.714,3.6,3.6,0,0,0-3.57,3.752A3.6,3.6,0,0,0,59.262.168,3.2,3.2,0,0,0,61.32-.546V0H63V-7.168Zm-1.806,5.8A2.078,2.078,0,0,1,57.4-3.584a2.067,2.067,0,0,1,2.114-2.2,2.315,2.315,0,0,1,1.806.826v2.744A2.329,2.329,0,0,1,59.514-1.372Zm10.71-5.8v.56a3.143,3.143,0,0,0-2.072-.728A3.566,3.566,0,0,0,64.6-3.682,3.538,3.538,0,0,0,68.152-.07a3.132,3.132,0,0,0,2.072-.714v.6a1.793,1.793,0,0,1-2.03,1.862A3.74,3.74,0,0,1,65.744.658L64.736,1.89a4.938,4.938,0,0,0,3.486,1.33c2.268,0,3.682-1.274,3.682-3.4V-7.168ZM68.39-1.582a2.026,2.026,0,0,1-2.086-2.1A2.03,2.03,0,0,1,68.39-5.8a2.406,2.406,0,0,1,1.834.84v2.534A2.406,2.406,0,0,1,68.39-1.582ZM80.878-3.794a3.354,3.354,0,0,0-3.556-3.542,3.684,3.684,0,0,0-3.836,3.808,3.577,3.577,0,0,0,3.85,3.7A3.966,3.966,0,0,0,80.654-1.4l-1.176-.9a2.6,2.6,0,0,1-2.114,1.022,2.019,2.019,0,0,1-2.2-1.89h5.67A4.608,4.608,0,0,0,80.878-3.794Zm-3.57-2.128a1.719,1.719,0,0,1,1.876,1.5H75.25A1.971,1.971,0,0,1,77.308-5.922Z" transform="translate(0 -23)" fill="#07003b"/>
      </g>
    </g>
    <g id="big_captcha" data-name="big captcha" transform="translate(105.352 1616.946)">
      <g transform="matrix(1, 0, 0, 1, -42.35, -40.95)" filter="url(#Rectangle_473)">
        <rect id="Rectangle_473-2" data-name="Rectangle 473" width="240" height="130" rx="5" transform="translate(30 25)" fill="#fff"/>
      </g>
      <rect id="Rectangle_560" data-name="Rectangle 560" width="90" height="90" rx="5" transform="translate(7.649 4.054)" fill="rgba(60,80,224,0.15)"/>
      <rect id="Rectangle_561" data-name="Rectangle 561" width="90" height="90" rx="5" transform="translate(117.649 4.054)" fill="rgba(255,86,112,0.15)"/>
      <path id="Path_691" data-name="Path 691" d="M-25.781-17.187A1.724,1.724,0,0,0-27.5-15.469v3.438a1.724,1.724,0,0,0,1.719,1.719H-13.75v-6.875ZM26.748-36.846,16.231-47.373a2.576,2.576,0,0,0-1.826-.752H13.75v13.75H27.5v-.655A2.57,2.57,0,0,0,26.748-36.846Zm-16.436,3.33V-48.125H-11.172a2.572,2.572,0,0,0-2.578,2.578v28.359H0v-7a1.723,1.723,0,0,1,2.943-1.214L13.213-15.039a1.828,1.828,0,0,1,0,2.578L2.933-2.105A1.723,1.723,0,0,1-.011-3.319v-6.993H-13.75V4.3a2.572,2.572,0,0,0,2.578,2.578H24.922A2.572,2.572,0,0,0,27.5,4.3V-30.937H12.891A2.586,2.586,0,0,1,10.313-33.516Z" transform="translate(52.648 70.054)" fill="#3c50e0"/>
      <path id="Path_692" data-name="Path 692" d="M10.313-35.03a2.57,2.57,0,0,0-.752-1.815L-.956-47.373a2.576,2.576,0,0,0-1.826-.752h-.655v13.75h13.75ZM30.4-15.039,20.12-25.395a1.723,1.723,0,0,0-2.943,1.214v6.993H10.3v6.875h6.875v7A1.723,1.723,0,0,0,20.12-2.095L30.4-12.461A1.828,1.828,0,0,0,30.4-15.039Zm-40.713,3.008v-3.437a1.724,1.724,0,0,1,1.719-1.719H10.313v-13.75H-4.3a2.586,2.586,0,0,1-2.578-2.578V-48.125H-28.359a2.572,2.572,0,0,0-2.578,2.578V4.3a2.572,2.572,0,0,0,2.578,2.578H7.734A2.572,2.572,0,0,0,10.313,4.3V-10.312H-8.594A1.724,1.724,0,0,1-10.312-12.031Z" transform="translate(162.648 70.054)" fill="#ff5670"/>
    </g>
  </g>
</svg>
