<svg xmlns="http://www.w3.org/2000/svg" xmlns:xlink="http://www.w3.org/1999/xlink" width="652" height="556" viewBox="0 0 652 556">
  <defs>
    <filter id="Rectangle_436" x="306" y="15" width="346" height="526" filterUnits="userSpaceOnUse">
      <feOffset dy="5" input="SourceAlpha"/>
      <feGaussianBlur stdDeviation="10" result="blur"/>
      <feFlood flood-color="#3c50e0" flood-opacity="0.149"/>
      <feComposite operator="in" in2="blur"/>
      <feComposite in="SourceGraphic"/>
    </filter>
    <filter id="Rectangle_436-2" x="0" y="288" width="346" height="268" filterUnits="userSpaceOnUse">
      <feOffset dy="5" input="SourceAlpha"/>
      <feGaussianBlur stdDeviation="10" result="blur-2"/>
      <feFlood flood-color="#3c50e0" flood-opacity="0.149"/>
      <feComposite operator="in" in2="blur-2"/>
      <feComposite in="SourceGraphic"/>
    </filter>
    <filter id="Rectangle_436-3" x="0" y="0" width="346" height="318" filterUnits="userSpaceOnUse">
      <feOffset dy="5" input="SourceAlpha"/>
      <feGaussianBlur stdDeviation="10" result="blur-3"/>
      <feFlood flood-color="#3c50e0" flood-opacity="0.149"/>
      <feComposite operator="in" in2="blur-3"/>
      <feComposite in="SourceGraphic"/>
    </filter>
  </defs>
  <g id="feature-06" transform="translate(-56 -1506)">
    <g id="logo_size" data-name="logo size" transform="translate(58 104)">
      <g transform="matrix(1, 0, 0, 1, -2, 1402)" filter="url(#Rectangle_436)">
        <rect id="Rectangle_436-4" data-name="Rectangle 436" width="286" height="466" rx="10" transform="translate(336 40)" fill="#fff"/>
      </g>
      <rect id="Rectangle_554" data-name="Rectangle 554" width="100" height="100" rx="20" transform="translate(427 1497)" fill="#fdb400"/>
      <rect id="Rectangle_555" data-name="Rectangle 555" width="236" height="52" rx="5" transform="translate(359 1637)" fill="#3a4fe0" opacity="0.1"/>
      <rect id="Rectangle_556" data-name="Rectangle 556" width="236" height="52" rx="5" transform="translate(359 1719)" fill="#3a4fe0" opacity="0.1"/>
      <rect id="Rectangle_557" data-name="Rectangle 557" width="146" height="52" rx="5" transform="translate(404 1801)" fill="#ff5670"/>
      <path id="Path_670" data-name="Path 670" d="M10.5-7.54a2.865,2.865,0,0,0,1.48-2.72c0-2.36-1.74-3.74-4.7-3.74H1.68V0H7.76c3.34,0,5.2-1.6,5.2-4.14A3.369,3.369,0,0,0,10.5-7.54ZM7.34-11.82c1.38,0,2.1.6,2.1,1.66s-.72,1.72-2.1,1.72H4.18v-3.38ZM7.7-2.18H4.18V-6.32H7.7c1.76,0,2.66.84,2.66,2.08S9.46-2.18,7.7-2.18Zm14.56-8.06V-3.2a3.239,3.239,0,0,1-2.52,1.24c-1.36,0-2.12-.86-2.12-2.56v-5.72h-2.4V-4c0,2.7,1.54,4.24,3.9,4.24a4.806,4.806,0,0,0,3.14-1.1V0h2.4V-10.24ZM34.14-2.28A5.371,5.371,0,0,1,32.58-2c-1.18,0-1.74-.62-1.74-2.06V-8.14H34.1v-2.1H30.84v-2.44h-2.4v2.44h-2.1v2.1h2.1v4.36C28.44-1.04,29.7.2,32.14.2a5.62,5.62,0,0,0,2.34-.46Zm8.82,0A5.371,5.371,0,0,1,41.4-2c-1.18,0-1.74-.62-1.74-2.06V-8.14h3.26v-2.1H39.66v-2.44h-2.4v2.44h-2.1v2.1h2.1v4.36c0,2.74,1.26,3.98,3.7,3.98A5.62,5.62,0,0,0,43.3-.26ZM49.86.24a5.24,5.24,0,0,0,5.42-5.36,5.229,5.229,0,0,0-5.42-5.36,5.245,5.245,0,0,0-5.44,5.36A5.257,5.257,0,0,0,49.86.24Zm0-2.2a2.965,2.965,0,0,1-3-3.16,2.948,2.948,0,0,1,3-3.14,2.944,2.944,0,0,1,2.98,3.14A2.961,2.961,0,0,1,49.86-1.96Zm13.2-8.52a4.9,4.9,0,0,0-3.12,1.1v-.86h-2.4V0h2.4V-7.06a3.285,3.285,0,0,1,2.52-1.2c1.34,0,2.18.88,2.18,2.64V0h2.4V-6.14C67.04-8.9,65.42-10.48,63.06-10.48Z" transform="translate(443 1833)" fill="#fff"/>
    </g>
    <g id="setting_1" data-name="setting 1" transform="translate(-248 190)">
      <g transform="matrix(1, 0, 0, 1, 304, 1316)" filter="url(#Rectangle_436-2)">
        <rect id="Rectangle_436-5" data-name="Rectangle 436" width="286" height="208" rx="10" transform="translate(30 313)" fill="#fff"/>
      </g>
      <g id="Height" transform="translate(0 41)">
        <g id="radio" transform="translate(-174.558 40)">
          <g id="Rectangle_535" data-name="Rectangle 535" transform="translate(533.558 1690)" fill="rgba(60,80,224,0.03)" stroke="rgba(60,80,224,0.4)" stroke-width="2">
            <rect width="50" height="36" rx="5" stroke="none"/>
            <rect x="1" y="1" width="48" height="34" rx="4" fill="none"/>
          </g>
          <path id="Path_666" data-name="Path 666" d="M-4.494-9.8-7.21-8.414V-6.65l2.436-1.218V0h1.75V-9.8ZM3.01.168C5.488.168,7.042-1.68,7.042-4.9S5.488-9.968,3.01-9.968-1.022-8.12-1.022-4.9.532.168,3.01.168Zm0-1.6C1.582-1.428.756-2.506.756-4.9S1.582-8.372,3.01-8.372,5.278-7.294,5.278-4.9,4.438-1.428,3.01-1.428Z" transform="translate(558.559 1714)" fill="#07003b"/>
        </g>
        <g id="radio-2" data-name="radio" transform="translate(-112.558 40)">
          <g id="Rectangle_535-2" data-name="Rectangle 535" transform="translate(533.558 1690)" fill="rgba(60,80,224,0.03)" stroke="rgba(60,80,224,0.4)" stroke-width="2">
            <rect width="50" height="36" rx="5" stroke="none"/>
            <rect x="1" y="1" width="48" height="34" rx="4" fill="none"/>
          </g>
          <path id="Path_667" data-name="Path 667" d="M-5.733-1.6-3.157-4c1.3-1.218,1.694-2.142,1.694-3.108A2.874,2.874,0,0,0-4.641-9.968,4.136,4.136,0,0,0-8.407-7.644l1.358.924A2.8,2.8,0,0,1-4.683-8.372a1.313,1.313,0,0,1,1.47,1.33c0,.63-.35,1.274-1.582,2.436l-3.458,3.22V0h6.944V-1.6ZM4.053.168C6.531.168,8.085-1.68,8.085-4.9S6.531-9.968,4.053-9.968.021-8.12.021-4.9,1.575.168,4.053.168Zm0-1.6C2.625-1.428,1.8-2.506,1.8-4.9s.826-3.472,2.254-3.472S6.321-7.294,6.321-4.9,5.481-1.428,4.053-1.428Z" transform="translate(559.559 1714)" fill="#07003b"/>
        </g>
        <g id="radio-3" data-name="radio" transform="translate(-50.558 40)">
          <g id="Rectangle_535-3" data-name="Rectangle 535" transform="translate(533.558 1690)" fill="rgba(60,80,224,0.03)" stroke="rgba(60,80,224,0.4)" stroke-width="2">
            <rect width="50" height="36" rx="5" stroke="none"/>
            <rect x="1" y="1" width="48" height="34" rx="4" fill="none"/>
          </g>
          <path id="Path_668" data-name="Path 668" d="M-4.494-9.8-7.21-8.414V-6.65l2.436-1.218V0h1.75V-9.8ZM3.01.168C5.488.168,7.042-1.68,7.042-4.9S5.488-9.968,3.01-9.968-1.022-8.12-1.022-4.9.532.168,3.01.168Zm0-1.6C1.582-1.428.756-2.506.756-4.9S1.582-8.372,3.01-8.372,5.278-7.294,5.278-4.9,4.438-1.428,3.01-1.428Z" transform="translate(558.559 1714)" fill="#07003b"/>
        </g>
        <g id="radio-4" data-name="radio" transform="translate(11.442 40)">
          <g id="Rectangle_535-4" data-name="Rectangle 535" transform="translate(533.558 1690)" fill="rgba(60,80,224,0.03)" stroke="rgba(60,80,224,0.4)" stroke-width="2">
            <rect width="50" height="36" rx="5" stroke="none"/>
            <rect x="1" y="1" width="48" height="34" rx="4" fill="none"/>
          </g>
          <path id="Path_669" data-name="Path 669" d="M-5.733-1.6-3.157-4c1.3-1.218,1.694-2.142,1.694-3.108A2.874,2.874,0,0,0-4.641-9.968,4.136,4.136,0,0,0-8.407-7.644l1.358.924A2.8,2.8,0,0,1-4.683-8.372a1.313,1.313,0,0,1,1.47,1.33c0,.63-.35,1.274-1.582,2.436l-3.458,3.22V0h6.944V-1.6ZM4.053.168C6.531.168,8.085-1.68,8.085-4.9S6.531-9.968,4.053-9.968.021-8.12.021-4.9,1.575.168,4.053.168Zm0-1.6C2.625-1.428,1.8-2.506,1.8-4.9s.826-3.472,2.254-3.472S6.321-7.294,6.321-4.9,5.481-1.428,4.053-1.428Z" transform="translate(559.559 1714)" fill="#07003b"/>
        </g>
        <path id="Path_665" data-name="Path 665" d="M5.082-9.8H1.176V0H2.94V-3.542H5.082C7.266-3.542,8.6-4.718,8.6-6.678S7.266-9.8,5.082-9.8Zm-.14,4.606h-2V-8.148h2c1.26,0,1.848.518,1.848,1.47S6.2-5.194,4.942-5.194ZM15.316-7.168v.546a3.2,3.2,0,0,0-2.058-.714,3.6,3.6,0,0,0-3.57,3.752A3.6,3.6,0,0,0,13.258.168a3.2,3.2,0,0,0,2.058-.714V0H17V-7.168Zm-1.806,5.8A2.078,2.078,0,0,1,11.4-3.584a2.067,2.067,0,0,1,2.114-2.2,2.315,2.315,0,0,1,1.806.826v2.744A2.329,2.329,0,0,1,13.51-1.372Zm10.71-8.96v3.71a3.2,3.2,0,0,0-2.058-.714,3.6,3.6,0,0,0-3.57,3.752A3.6,3.6,0,0,0,22.162.168,3.2,3.2,0,0,0,24.22-.546V0H25.9V-10.332Zm-1.806,8.96A2.078,2.078,0,0,1,20.3-3.584a2.067,2.067,0,0,1,2.114-2.2,2.315,2.315,0,0,1,1.806.826v2.744A2.329,2.329,0,0,1,22.414-1.372Zm10.71-8.96v3.71a3.2,3.2,0,0,0-2.058-.714A3.6,3.6,0,0,0,27.5-3.584,3.6,3.6,0,0,0,31.066.168a3.2,3.2,0,0,0,2.058-.714V0H34.8V-10.332Zm-1.806,8.96A2.078,2.078,0,0,1,29.2-3.584a2.067,2.067,0,0,1,2.114-2.2,2.315,2.315,0,0,1,1.806.826v2.744A2.329,2.329,0,0,1,31.318-1.372Zm6.37-6.748A1.067,1.067,0,0,0,38.752-9.2a1.073,1.073,0,0,0-1.064-1.064A1.088,1.088,0,0,0,36.6-9.2,1.082,1.082,0,0,0,37.688-8.12ZM36.834,0h1.68V-7.168h-1.68Zm7.56-7.336a3.431,3.431,0,0,0-2.184.77v-.6H40.53V0h1.68V-4.942a2.3,2.3,0,0,1,1.764-.84c.938,0,1.526.616,1.526,1.848V0h1.68V-4.3A2.713,2.713,0,0,0,44.394-7.336Zm9.926.168v.56a3.143,3.143,0,0,0-2.072-.728,3.566,3.566,0,0,0-3.556,3.654A3.538,3.538,0,0,0,52.248-.07,3.132,3.132,0,0,0,54.32-.784v.6A1.793,1.793,0,0,1,52.29,1.68,3.74,3.74,0,0,1,49.84.658L48.832,1.89a4.938,4.938,0,0,0,3.486,1.33C54.586,3.22,56,1.946,56-.182V-7.168ZM52.486-1.582a2.026,2.026,0,0,1-2.086-2.1A2.03,2.03,0,0,1,52.486-5.8a2.406,2.406,0,0,1,1.834.84v2.534A2.406,2.406,0,0,1,52.486-1.582Z" transform="translate(359 1712)" fill="#07003b"/>
      </g>
      <g id="Width" transform="translate(0 -31)">
        <g id="radio-5" data-name="radio" transform="translate(-7.558)">
          <g id="Rectangle_535-5" data-name="Rectangle 535" transform="translate(533.558 1690)" fill="rgba(60,80,224,0.03)" stroke="rgba(60,80,224,0.4)" stroke-width="2">
            <rect width="69" height="36" rx="5" stroke="none"/>
            <rect x="1" y="1" width="67" height="34" rx="4" fill="none"/>
          </g>
          <path id="Path_664" data-name="Path 664" d="M-13.72-9.8v1.6h4.844L-12.824,0h1.918L-6.93-8.4V-9.8ZM-2.212-6.258a3.758,3.758,0,0,0-1.722.378l.07-2.324H.476V-9.8H-5.418L-5.6-4.844l1.274.7a3.043,3.043,0,0,1,1.848-.6A1.608,1.608,0,0,1-.672-3.108c0,1.022-.756,1.694-2.03,1.694A3.438,3.438,0,0,1-5.124-2.422L-6.146-1.19A4.8,4.8,0,0,0-2.674.168c2.268,0,3.738-1.26,3.738-3.276A3,3,0,0,0-2.212-6.258Zm6.79,1.386A2.508,2.508,0,0,0,7.14-7.42,2.508,2.508,0,0,0,4.578-9.968,2.508,2.508,0,0,0,2.016-7.42,2.508,2.508,0,0,0,4.578-4.872ZM3.878,0h1.61l6.244-9.8h-1.61Zm.7-6.118A1.2,1.2,0,0,1,3.36-7.42a1.192,1.192,0,0,1,1.218-1.3A1.192,1.192,0,0,1,5.8-7.42,1.2,1.2,0,0,1,4.578-6.118ZM11.032.168A2.508,2.508,0,0,0,13.594-2.38a2.508,2.508,0,0,0-2.562-2.548A2.508,2.508,0,0,0,8.47-2.38,2.508,2.508,0,0,0,11.032.168Zm0-1.246a1.192,1.192,0,0,1-1.218-1.3,1.192,1.192,0,0,1,1.218-1.3,1.2,1.2,0,0,1,1.218,1.3A1.2,1.2,0,0,1,11.032-1.078Z" transform="translate(568.559 1714)" fill="#07003b"/>
        </g>
        <g id="Range" transform="translate(0 30)">
          <g id="Rectangle_535-6" data-name="Rectangle 535" transform="translate(359 1715)" fill="#3c50e0" stroke="#3c50e0" stroke-width="2" opacity="0.7">
            <rect width="236" height="4" rx="2" stroke="none"/>
            <rect x="1" y="1" width="234" height="2" rx="1" fill="none"/>
          </g>
          <rect id="Rectangle_551" data-name="Rectangle 551" width="12" height="12" rx="6" transform="translate(455 1711)" fill="#ff5670"/>
        </g>
        <path id="Path_663" data-name="Path 663" d="M12.726-9.8,10.6-2.758,8.246-9.8H6.636L4.284-2.758,2.156-9.8H.322L3.29,0H5.054L7.448-7.252,9.828,0h1.764l2.982-9.8ZM16.8-8.12A1.067,1.067,0,0,0,17.864-9.2,1.073,1.073,0,0,0,16.8-10.262,1.088,1.088,0,0,0,15.708-9.2,1.082,1.082,0,0,0,16.8-8.12ZM15.946,0h1.68V-7.168h-1.68Zm8.89-10.332v3.71a3.2,3.2,0,0,0-2.058-.714,3.6,3.6,0,0,0-3.57,3.752A3.6,3.6,0,0,0,22.778.168a3.2,3.2,0,0,0,2.058-.714V0h1.68V-10.332ZM23.03-1.372a2.078,2.078,0,0,1-2.114-2.212,2.067,2.067,0,0,1,2.114-2.2,2.315,2.315,0,0,1,1.806.826v2.744A2.329,2.329,0,0,1,23.03-1.372ZM33.166-1.6a3.76,3.76,0,0,1-1.092.2c-.826,0-1.218-.434-1.218-1.442V-5.7h2.282v-1.47H30.856V-8.876h-1.68v1.708h-1.47V-5.7h1.47v3.052c0,1.918.882,2.786,2.59,2.786A3.934,3.934,0,0,0,33.4-.182Zm5.446-5.74a3.431,3.431,0,0,0-2.184.77v-3.766h-1.68V0h1.68V-4.942a2.3,2.3,0,0,1,1.764-.84c.938,0,1.526.616,1.526,1.848V0H41.4V-4.3A2.713,2.713,0,0,0,38.612-7.336Z" transform="translate(359 1712)" fill="#07003b"/>
      </g>
    </g>
    <g id="setting_1-2" data-name="setting 1" transform="translate(-248 -98)">
      <g transform="matrix(1, 0, 0, 1, 304, 1604)" filter="url(#Rectangle_436-3)">
        <rect id="Rectangle_436-6" data-name="Rectangle 436" width="286" height="258" rx="10" transform="translate(30 25)" fill="#fff"/>
      </g>
      <g id="Width-2" data-name="Width" transform="translate(0 -34)">
        <g id="radio-6" data-name="radio" transform="translate(-7.558)">
          <g id="Rectangle_535-7" data-name="Rectangle 535" transform="translate(572.558 1693)" fill="rgba(132,149,194,0.3)" stroke="#8495c2" stroke-width="1">
            <rect width="30" height="30" rx="5" stroke="none"/>
            <rect x="0.5" y="0.5" width="29" height="29" rx="4.5" fill="none"/>
          </g>
          <rect id="Rectangle_553" data-name="Rectangle 553" width="24" height="24" rx="3" transform="translate(575.558 1696)" fill="#ff5670"/>
        </g>
        <path id="Path_659" data-name="Path 659" d="M7.35-5.278a2.005,2.005,0,0,0,1.036-1.9C8.386-8.834,7.168-9.8,5.1-9.8H1.176V0H5.432c2.338,0,3.64-1.12,3.64-2.9A2.358,2.358,0,0,0,7.35-5.278Zm-2.212-3c.966,0,1.47.42,1.47,1.162s-.5,1.2-1.47,1.2H2.926V-8.274ZM5.39-1.526H2.926v-2.9H5.39c1.232,0,1.862.588,1.862,1.456S6.622-1.526,5.39-1.526ZM16.044-7.168v.546a3.2,3.2,0,0,0-2.058-.714,3.6,3.6,0,0,0-3.57,3.752A3.6,3.6,0,0,0,13.986.168a3.2,3.2,0,0,0,2.058-.714V0h1.68V-7.168Zm-1.806,5.8a2.078,2.078,0,0,1-2.114-2.212,2.067,2.067,0,0,1,2.114-2.2,2.315,2.315,0,0,1,1.806.826v2.744A2.329,2.329,0,0,1,14.238-1.372ZM23.1.168a3.806,3.806,0,0,0,3.248-1.68L25.1-2.45a2.446,2.446,0,0,1-1.974,1.078,2.08,2.08,0,0,1-2.086-2.212,2.066,2.066,0,0,1,2.072-2.2A2.206,2.206,0,0,1,24.948-4.76L26.264-5.8a3.785,3.785,0,0,0-3.136-1.54A3.706,3.706,0,0,0,19.32-3.542,3.623,3.623,0,0,0,23.1.168ZM32.858,0h2.114l-3.36-4.074,3.164-3.094H32.634L29.33-4v-6.328H27.65V0h1.68V-1.862l1.106-1.064Zm7.98-7.168v.56a3.143,3.143,0,0,0-2.072-.728A3.566,3.566,0,0,0,35.21-3.682,3.538,3.538,0,0,0,38.766-.07a3.132,3.132,0,0,0,2.072-.714v.6a1.793,1.793,0,0,1-2.03,1.862A3.74,3.74,0,0,1,36.358.658L35.35,1.89a4.938,4.938,0,0,0,3.486,1.33c2.268,0,3.682-1.274,3.682-3.4V-7.168ZM39-1.582a2.026,2.026,0,0,1-2.086-2.1A2.03,2.03,0,0,1,39-5.8a2.406,2.406,0,0,1,1.834.84v2.534A2.406,2.406,0,0,1,39-1.582Zm9.2-5.754a2.51,2.51,0,0,0-1.988.938v-.77h-1.68V0h1.68V-4.662a2.238,2.238,0,0,1,1.974-1.092,3.907,3.907,0,0,1,.658.07l.1-1.554A2.927,2.927,0,0,0,48.2-7.336ZM53.4.168A3.668,3.668,0,0,0,57.19-3.584,3.66,3.66,0,0,0,53.4-7.336a3.672,3.672,0,0,0-3.808,3.752A3.68,3.68,0,0,0,53.4.168Zm0-1.54a2.075,2.075,0,0,1-2.1-2.212,2.064,2.064,0,0,1,2.1-2.2,2.061,2.061,0,0,1,2.086,2.2A2.072,2.072,0,0,1,53.4-1.372Zm10.234-5.8V-2.24a2.268,2.268,0,0,1-1.764.868c-.952,0-1.484-.6-1.484-1.792v-4H58.7V-2.8A2.637,2.637,0,0,0,61.432.168a3.364,3.364,0,0,0,2.2-.77V0h1.68V-7.168Zm7.56-.168a3.431,3.431,0,0,0-2.184.77v-.6h-1.68V0h1.68V-4.942a2.3,2.3,0,0,1,1.764-.84c.938,0,1.526.616,1.526,1.848V0h1.68V-4.3A2.713,2.713,0,0,0,71.19-7.336Zm9.926-3v3.71a3.2,3.2,0,0,0-2.058-.714,3.6,3.6,0,0,0-3.57,3.752A3.6,3.6,0,0,0,79.058.168a3.2,3.2,0,0,0,2.058-.714V0H82.8V-10.332ZM79.31-1.372A2.078,2.078,0,0,1,77.2-3.584a2.067,2.067,0,0,1,2.114-2.2,2.315,2.315,0,0,1,1.806.826v2.744A2.329,2.329,0,0,1,79.31-1.372ZM91.6.168a3.806,3.806,0,0,0,3.248-1.68L93.6-2.45A2.446,2.446,0,0,1,91.63-1.372a2.08,2.08,0,0,1-2.086-2.212,2.066,2.066,0,0,1,2.072-2.2A2.206,2.206,0,0,1,93.45-4.76L94.766-5.8a3.785,3.785,0,0,0-3.136-1.54,3.706,3.706,0,0,0-3.808,3.794A3.623,3.623,0,0,0,91.6.168Zm7.952,0a3.668,3.668,0,0,0,3.794-3.752,3.66,3.66,0,0,0-3.794-3.752,3.672,3.672,0,0,0-3.808,3.752A3.68,3.68,0,0,0,99.554.168Zm0-1.54a2.075,2.075,0,0,1-2.1-2.212,2.064,2.064,0,0,1,2.1-2.2,2.061,2.061,0,0,1,2.086,2.2A2.072,2.072,0,0,1,99.554-1.372ZM104.93,0h1.68V-10.332h-1.68ZM112,.168a3.668,3.668,0,0,0,3.794-3.752A3.66,3.66,0,0,0,112-7.336a3.672,3.672,0,0,0-3.808,3.752A3.68,3.68,0,0,0,112,.168Zm0-1.54a2.075,2.075,0,0,1-2.1-2.212,2.064,2.064,0,0,1,2.1-2.2,2.061,2.061,0,0,1,2.086,2.2A2.072,2.072,0,0,1,112-1.372Zm9.044-5.964a2.51,2.51,0,0,0-1.988.938v-.77h-1.68V0h1.68V-4.662a2.238,2.238,0,0,1,1.974-1.092,3.907,3.907,0,0,1,.658.07l.1-1.554A2.927,2.927,0,0,0,121.044-7.336Z" transform="translate(359 1712)" fill="#07003b"/>
      </g>
      <g id="Width-3" data-name="Width" transform="translate(0 22)">
        <g id="radio-7" data-name="radio" transform="translate(-7.558)">
          <g id="Rectangle_535-8" data-name="Rectangle 535" transform="translate(572.558 1693)" fill="rgba(132,149,194,0.3)" stroke="#8495c2" stroke-width="1">
            <rect width="30" height="30" rx="5" stroke="none"/>
            <rect x="0.5" y="0.5" width="29" height="29" rx="4.5" fill="none"/>
          </g>
          <rect id="Rectangle_553-2" data-name="Rectangle 553" width="24" height="24" rx="3" transform="translate(575.558 1696)" fill="#d62742"/>
        </g>
        <path id="Path_660" data-name="Path 660" d="M7.35-5.278a2.005,2.005,0,0,0,1.036-1.9C8.386-8.834,7.168-9.8,5.1-9.8H1.176V0H5.432c2.338,0,3.64-1.12,3.64-2.9A2.358,2.358,0,0,0,7.35-5.278Zm-2.212-3c.966,0,1.47.42,1.47,1.162s-.5,1.2-1.47,1.2H2.926V-8.274ZM5.39-1.526H2.926v-2.9H5.39c1.232,0,1.862.588,1.862,1.456S6.622-1.526,5.39-1.526ZM16.044-7.168v.546a3.2,3.2,0,0,0-2.058-.714,3.6,3.6,0,0,0-3.57,3.752A3.6,3.6,0,0,0,13.986.168a3.2,3.2,0,0,0,2.058-.714V0h1.68V-7.168Zm-1.806,5.8a2.078,2.078,0,0,1-2.114-2.212,2.067,2.067,0,0,1,2.114-2.2,2.315,2.315,0,0,1,1.806.826v2.744A2.329,2.329,0,0,1,14.238-1.372ZM23.1.168a3.806,3.806,0,0,0,3.248-1.68L25.1-2.45a2.446,2.446,0,0,1-1.974,1.078,2.08,2.08,0,0,1-2.086-2.212,2.066,2.066,0,0,1,2.072-2.2A2.206,2.206,0,0,1,24.948-4.76L26.264-5.8a3.785,3.785,0,0,0-3.136-1.54A3.706,3.706,0,0,0,19.32-3.542,3.623,3.623,0,0,0,23.1.168ZM32.858,0h2.114l-3.36-4.074,3.164-3.094H32.634L29.33-4v-6.328H27.65V0h1.68V-1.862l1.106-1.064Zm7.98-7.168v.56a3.143,3.143,0,0,0-2.072-.728A3.566,3.566,0,0,0,35.21-3.682,3.538,3.538,0,0,0,38.766-.07a3.132,3.132,0,0,0,2.072-.714v.6a1.793,1.793,0,0,1-2.03,1.862A3.74,3.74,0,0,1,36.358.658L35.35,1.89a4.938,4.938,0,0,0,3.486,1.33c2.268,0,3.682-1.274,3.682-3.4V-7.168ZM39-1.582a2.026,2.026,0,0,1-2.086-2.1A2.03,2.03,0,0,1,39-5.8a2.406,2.406,0,0,1,1.834.84v2.534A2.406,2.406,0,0,1,39-1.582Zm9.2-5.754a2.51,2.51,0,0,0-1.988.938v-.77h-1.68V0h1.68V-4.662a2.238,2.238,0,0,1,1.974-1.092,3.907,3.907,0,0,1,.658.07l.1-1.554A2.927,2.927,0,0,0,48.2-7.336ZM53.4.168A3.668,3.668,0,0,0,57.19-3.584,3.66,3.66,0,0,0,53.4-7.336a3.672,3.672,0,0,0-3.808,3.752A3.68,3.68,0,0,0,53.4.168Zm0-1.54a2.075,2.075,0,0,1-2.1-2.212,2.064,2.064,0,0,1,2.1-2.2,2.061,2.061,0,0,1,2.086,2.2A2.072,2.072,0,0,1,53.4-1.372Zm10.234-5.8V-2.24a2.268,2.268,0,0,1-1.764.868c-.952,0-1.484-.6-1.484-1.792v-4H58.7V-2.8A2.637,2.637,0,0,0,61.432.168a3.364,3.364,0,0,0,2.2-.77V0h1.68V-7.168Zm7.56-.168a3.431,3.431,0,0,0-2.184.77v-.6h-1.68V0h1.68V-4.942a2.3,2.3,0,0,1,1.764-.84c.938,0,1.526.616,1.526,1.848V0h1.68V-4.3A2.713,2.713,0,0,0,71.19-7.336Zm9.926-3v3.71a3.2,3.2,0,0,0-2.058-.714,3.6,3.6,0,0,0-3.57,3.752A3.6,3.6,0,0,0,79.058.168a3.2,3.2,0,0,0,2.058-.714V0H82.8V-10.332ZM79.31-1.372A2.078,2.078,0,0,1,77.2-3.584a2.067,2.067,0,0,1,2.114-2.2,2.315,2.315,0,0,1,1.806.826v2.744A2.329,2.329,0,0,1,79.31-1.372ZM94.962-9.8v3.92H90.188V-9.8H88.424V0h1.764V-4.228h4.774V0h1.764V-9.8ZM102.284.168a3.668,3.668,0,0,0,3.794-3.752,3.66,3.66,0,0,0-3.794-3.752,3.672,3.672,0,0,0-3.808,3.752A3.68,3.68,0,0,0,102.284.168Zm0-1.54a2.075,2.075,0,0,1-2.1-2.212,2.064,2.064,0,0,1,2.1-2.2,2.061,2.061,0,0,1,2.086,2.2A2.072,2.072,0,0,1,102.284-1.372Zm10.192-5.8-2,5.11-2-5.11H106.61L109.578,0h1.792l2.954-7.168Zm9.786,3.374a3.354,3.354,0,0,0-3.556-3.542,3.684,3.684,0,0,0-3.836,3.808,3.577,3.577,0,0,0,3.85,3.7A3.966,3.966,0,0,0,122.038-1.4l-1.176-.9a2.6,2.6,0,0,1-2.114,1.022,2.019,2.019,0,0,1-2.2-1.89h5.67A4.608,4.608,0,0,0,122.262-3.794Zm-3.57-2.128a1.719,1.719,0,0,1,1.876,1.5h-3.934A1.971,1.971,0,0,1,118.692-5.922Zm8.848-1.414a2.51,2.51,0,0,0-1.988.938v-.77h-1.68V0h1.68V-4.662a2.238,2.238,0,0,1,1.974-1.092,3.907,3.907,0,0,1,.658.07l.1-1.554A2.927,2.927,0,0,0,127.54-7.336Zm10.122,7.5a4.957,4.957,0,0,0,4.4-2.464l-1.526-.9A3.158,3.158,0,0,1,137.676-1.5a3.186,3.186,0,0,1-3.234-3.4,3.186,3.186,0,0,1,3.234-3.4,3.121,3.121,0,0,1,2.842,1.694l1.526-.91a4.939,4.939,0,0,0-4.368-2.45,4.95,4.95,0,0,0-5.068,5.082A4.9,4.9,0,0,0,137.662.168Zm9.324,0a3.668,3.668,0,0,0,3.794-3.752,3.66,3.66,0,0,0-3.794-3.752,3.672,3.672,0,0,0-3.808,3.752A3.68,3.68,0,0,0,146.986.168Zm0-1.54a2.075,2.075,0,0,1-2.1-2.212,2.064,2.064,0,0,1,2.1-2.2,2.061,2.061,0,0,1,2.086,2.2A2.072,2.072,0,0,1,146.986-1.372ZM152.362,0h1.68V-10.332h-1.68Zm7.07.168a3.668,3.668,0,0,0,3.794-3.752,3.66,3.66,0,0,0-3.794-3.752,3.672,3.672,0,0,0-3.808,3.752A3.68,3.68,0,0,0,159.432.168Zm0-1.54a2.075,2.075,0,0,1-2.1-2.212,2.064,2.064,0,0,1,2.1-2.2,2.061,2.061,0,0,1,2.086,2.2A2.072,2.072,0,0,1,159.432-1.372Zm9.044-5.964a2.51,2.51,0,0,0-1.988.938v-.77h-1.68V0h1.68V-4.662a2.238,2.238,0,0,1,1.974-1.092,3.907,3.907,0,0,1,.658.07l.1-1.554A2.927,2.927,0,0,0,168.476-7.336Z" transform="translate(359 1712)" fill="#07003b"/>
      </g>
      <g id="Width-4" data-name="Width" transform="translate(0 78)">
        <g id="radio-8" data-name="radio" transform="translate(-7.558)">
          <g id="Rectangle_535-9" data-name="Rectangle 535" transform="translate(572.558 1693)" fill="rgba(132,149,194,0.3)" stroke="#8495c2" stroke-width="1">
            <rect width="30" height="30" rx="5" stroke="none"/>
            <rect x="0.5" y="0.5" width="29" height="29" rx="4.5" fill="none"/>
          </g>
          <rect id="Rectangle_553-3" data-name="Rectangle 553" width="24" height="24" rx="3" transform="translate(575.558 1696)" fill="#fff"/>
        </g>
        <path id="Path_661" data-name="Path 661" d="M8.3-9.8H.308v1.652H3.416V0H5.194V-8.148H8.3Zm7.434,6.006A3.354,3.354,0,0,0,12.18-7.336,3.684,3.684,0,0,0,8.344-3.528a3.577,3.577,0,0,0,3.85,3.7A3.966,3.966,0,0,0,15.512-1.4l-1.176-.9a2.6,2.6,0,0,1-2.114,1.022,2.019,2.019,0,0,1-2.2-1.89h5.67A4.608,4.608,0,0,0,15.736-3.794Zm-3.57-2.128a1.719,1.719,0,0,1,1.876,1.5H10.108A1.971,1.971,0,0,1,12.166-5.922ZM23.59,0,20.93-3.7l2.548-3.472h-1.89l-1.68,2.31-1.666-2.31h-1.89L18.9-3.7,16.226,0h1.918l1.764-2.45L21.672,0Zm6.062-1.6a3.76,3.76,0,0,1-1.092.2c-.826,0-1.218-.434-1.218-1.442V-5.7h2.282v-1.47H27.342V-8.876h-1.68v1.708h-1.47V-5.7h1.47v3.052c0,1.918.882,2.786,2.59,2.786A3.934,3.934,0,0,0,29.89-.182Zm9.7,1.764A4.957,4.957,0,0,0,43.75-2.3l-1.526-.9A3.157,3.157,0,0,1,39.368-1.5a3.186,3.186,0,0,1-3.234-3.4,3.186,3.186,0,0,1,3.234-3.4A3.121,3.121,0,0,1,42.21-6.608l1.526-.91a4.939,4.939,0,0,0-4.368-2.45A4.95,4.95,0,0,0,34.3-4.886,4.9,4.9,0,0,0,39.354.168Zm9.324,0a3.668,3.668,0,0,0,3.794-3.752,3.66,3.66,0,0,0-3.794-3.752A3.672,3.672,0,0,0,44.87-3.584,3.68,3.68,0,0,0,48.678.168Zm0-1.54a2.075,2.075,0,0,1-2.1-2.212,2.064,2.064,0,0,1,2.1-2.2,2.061,2.061,0,0,1,2.086,2.2A2.072,2.072,0,0,1,48.678-1.372ZM54.054,0h1.68V-10.332h-1.68Zm7.07.168a3.668,3.668,0,0,0,3.794-3.752,3.66,3.66,0,0,0-3.794-3.752,3.672,3.672,0,0,0-3.808,3.752A3.68,3.68,0,0,0,61.124.168Zm0-1.54a2.075,2.075,0,0,1-2.1-2.212,2.064,2.064,0,0,1,2.1-2.2,2.061,2.061,0,0,1,2.086,2.2A2.072,2.072,0,0,1,61.124-1.372Zm9.044-5.964A2.51,2.51,0,0,0,68.18-6.4v-.77H66.5V0h1.68V-4.662a2.238,2.238,0,0,1,1.974-1.092,3.907,3.907,0,0,1,.658.07l.1-1.554A2.927,2.927,0,0,0,70.168-7.336Z" transform="translate(359 1712)" fill="#07003b"/>
      </g>
      <g id="Width-5" data-name="Width" transform="translate(0 134)">
        <g id="radio-9" data-name="radio" transform="translate(-7.558)">
          <g id="Rectangle_535-10" data-name="Rectangle 535" transform="translate(572.558 1693)" fill="rgba(132,149,194,0.3)" stroke="#8495c2" stroke-width="1">
            <rect width="30" height="30" rx="5" stroke="none"/>
            <rect x="0.5" y="0.5" width="29" height="29" rx="4.5" fill="none"/>
          </g>
          <rect id="Rectangle_553-4" data-name="Rectangle 553" width="24" height="24" rx="3" transform="translate(575.558 1696)" fill="#fff"/>
        </g>
        <path id="Path_662" data-name="Path 662" d="M8.3-9.8H.308v1.652H3.416V0H5.194V-8.148H8.3Zm7.434,6.006A3.354,3.354,0,0,0,12.18-7.336,3.684,3.684,0,0,0,8.344-3.528a3.577,3.577,0,0,0,3.85,3.7A3.966,3.966,0,0,0,15.512-1.4l-1.176-.9a2.6,2.6,0,0,1-2.114,1.022,2.019,2.019,0,0,1-2.2-1.89h5.67A4.608,4.608,0,0,0,15.736-3.794Zm-3.57-2.128a1.719,1.719,0,0,1,1.876,1.5H10.108A1.971,1.971,0,0,1,12.166-5.922ZM23.59,0,20.93-3.7l2.548-3.472h-1.89l-1.68,2.31-1.666-2.31h-1.89L18.9-3.7,16.226,0h1.918l1.764-2.45L21.672,0Zm6.062-1.6a3.76,3.76,0,0,1-1.092.2c-.826,0-1.218-.434-1.218-1.442V-5.7h2.282v-1.47H27.342V-8.876h-1.68v1.708h-1.47V-5.7h1.47v3.052c0,1.918.882,2.786,2.59,2.786A3.934,3.934,0,0,0,29.89-.182ZM41.37-9.8v3.92H36.6V-9.8H34.832V0H36.6V-4.228H41.37V0h1.764V-9.8ZM48.692.168a3.668,3.668,0,0,0,3.794-3.752,3.66,3.66,0,0,0-3.794-3.752,3.672,3.672,0,0,0-3.808,3.752A3.68,3.68,0,0,0,48.692.168Zm0-1.54a2.075,2.075,0,0,1-2.1-2.212,2.064,2.064,0,0,1,2.1-2.2,2.061,2.061,0,0,1,2.086,2.2A2.072,2.072,0,0,1,48.692-1.372Zm10.192-5.8-2,5.11-2-5.11H53.018L55.986,0h1.792l2.954-7.168ZM68.67-3.794a3.354,3.354,0,0,0-3.556-3.542,3.684,3.684,0,0,0-3.836,3.808,3.577,3.577,0,0,0,3.85,3.7A3.966,3.966,0,0,0,68.446-1.4L67.27-2.3a2.6,2.6,0,0,1-2.114,1.022,2.019,2.019,0,0,1-2.2-1.89h5.67A4.608,4.608,0,0,0,68.67-3.794ZM65.1-5.922a1.719,1.719,0,0,1,1.876,1.5H63.042A1.971,1.971,0,0,1,65.1-5.922Zm8.848-1.414A2.51,2.51,0,0,0,71.96-6.4v-.77H70.28V0h1.68V-4.662a2.238,2.238,0,0,1,1.974-1.092,3.907,3.907,0,0,1,.658.07l.1-1.554A2.927,2.927,0,0,0,73.948-7.336ZM84.07.168a4.957,4.957,0,0,0,4.4-2.464l-1.526-.9A3.157,3.157,0,0,1,84.084-1.5,3.186,3.186,0,0,1,80.85-4.9a3.186,3.186,0,0,1,3.234-3.4,3.121,3.121,0,0,1,2.842,1.694l1.526-.91a4.939,4.939,0,0,0-4.368-2.45,4.95,4.95,0,0,0-5.068,5.082A4.9,4.9,0,0,0,84.07.168Zm9.324,0a3.668,3.668,0,0,0,3.794-3.752,3.66,3.66,0,0,0-3.794-3.752,3.672,3.672,0,0,0-3.808,3.752A3.68,3.68,0,0,0,93.394.168Zm0-1.54a2.075,2.075,0,0,1-2.1-2.212,2.064,2.064,0,0,1,2.1-2.2,2.061,2.061,0,0,1,2.086,2.2A2.072,2.072,0,0,1,93.394-1.372ZM98.77,0h1.68V-10.332H98.77Zm7.07.168a3.668,3.668,0,0,0,3.794-3.752,3.66,3.66,0,0,0-3.794-3.752,3.672,3.672,0,0,0-3.808,3.752A3.68,3.68,0,0,0,105.84.168Zm0-1.54a2.075,2.075,0,0,1-2.1-2.212,2.064,2.064,0,0,1,2.1-2.2,2.061,2.061,0,0,1,2.086,2.2A2.072,2.072,0,0,1,105.84-1.372Zm9.044-5.964A2.51,2.51,0,0,0,112.9-6.4v-.77h-1.68V0h1.68V-4.662a2.238,2.238,0,0,1,1.974-1.092,3.907,3.907,0,0,1,.658.07l.1-1.554A2.927,2.927,0,0,0,114.884-7.336Z" transform="translate(359 1712)" fill="#07003b"/>
      </g>
    </g>
  </g>
</svg>
