<svg xmlns="http://www.w3.org/2000/svg" xmlns:xlink="http://www.w3.org/1999/xlink" width="652" height="488" viewBox="0 0 652 488">
  <defs>
    <filter id="Rectangle_436" x="306" y="0" width="346" height="488" filterUnits="userSpaceOnUse">
      <feOffset dy="5" input="SourceAlpha"/>
      <feGaussianBlur stdDeviation="10" result="blur"/>
      <feFlood flood-color="#3c50e0" flood-opacity="0.149"/>
      <feComposite operator="in" in2="blur"/>
      <feComposite in="SourceGraphic"/>
    </filter>
    <filter id="Rectangle_436-2" x="0" y="40" width="346" height="336" filterUnits="userSpaceOnUse">
      <feOffset dy="5" input="SourceAlpha"/>
      <feGaussianBlur stdDeviation="10" result="blur-2"/>
      <feFlood flood-color="#3c50e0" flood-opacity="0.149"/>
      <feComposite operator="in" in2="blur-2"/>
      <feComposite in="SourceGraphic"/>
    </filter>
  </defs>
  <g id="feature-09" transform="translate(-56 -1551)">
    <g id="logo_size" data-name="logo size" transform="translate(58 134)">
      <g transform="matrix(1, 0, 0, 1, -2, 1417)" filter="url(#Rectangle_436)">
        <rect id="Rectangle_436-3" data-name="Rectangle 436" width="286" height="428" rx="10" transform="translate(336 25)" fill="#fff"/>
      </g>
      <rect id="Rectangle_554" data-name="Rectangle 554" width="100" height="100" rx="20" transform="translate(427 1470)" fill="#fdb400"/>
      <rect id="Rectangle_555" data-name="Rectangle 555" width="236" height="52" rx="5" transform="translate(359 1600)" fill="#3a4fe0" opacity="0.1"/>
      <rect id="Rectangle_556" data-name="Rectangle 556" width="236" height="52" rx="5" transform="translate(359 1672)" fill="#3a4fe0" opacity="0.1"/>
      <rect id="Rectangle_557" data-name="Rectangle 557" width="146" height="52" rx="5" transform="translate(404 1744)" fill="#ff5670"/>
      <path id="Path_686" data-name="Path 686" d="M4.526-.051a.419.419,0,0,0-.007-.6L2.4-2.672H7.453a.421.421,0,0,0,.422-.422v-.562a.421.421,0,0,0-.422-.422H2.4L4.519-6.1a.422.422,0,0,0,.007-.6l-.39-.39a.42.42,0,0,0-.6,0L.123-3.672a.42.42,0,0,0,0,.6L3.54.339a.42.42,0,0,0,.6,0Z" transform="translate(359 1836)" fill="#07003b"/>
      <path id="Path_685" data-name="Path 685" d="M7.21-5.278A2.086,2.086,0,0,0,8.316-7.224c0-1.6-1.2-2.576-3.136-2.576H1.274V0H5.446C7.728,0,9-1.134,9-2.884A2.347,2.347,0,0,0,7.21-5.278ZM5.194-8.512c1.064,0,1.638.476,1.638,1.316S6.258-5.824,5.194-5.824H2.73V-8.512Zm.238,7.224H2.73V-4.564h2.7c1.358,0,2.072.686,2.072,1.652S6.79-1.288,5.432-1.288ZM16.254-7.126v.6a3.294,3.294,0,0,0-2.184-.77A3.606,3.606,0,0,0,10.486-3.57,3.61,3.61,0,0,0,14.07.168a3.233,3.233,0,0,0,2.184-.784V0h1.4V-7.126Zm-2,6.02A2.315,2.315,0,0,1,11.914-3.57a2.311,2.311,0,0,1,2.338-2.45,2.575,2.575,0,0,1,2,.938v3.038A2.575,2.575,0,0,1,14.252-1.106ZM23.086.168a3.71,3.71,0,0,0,3.178-1.652l-1.05-.77A2.6,2.6,0,0,1,23.1-1.106,2.325,2.325,0,0,1,20.79-3.57a2.31,2.31,0,0,1,2.3-2.45,2.435,2.435,0,0,1,1.988,1.092l1.106-.854A3.712,3.712,0,0,0,23.1-7.294a3.686,3.686,0,0,0-3.752,3.766A3.6,3.6,0,0,0,23.086.168ZM32.984,0h1.778L31.276-4.046l3.234-3.08H32.732L29.092-3.7v-6.636h-1.4V0h1.4V-1.946L30.31-3.108Z" transform="translate(371 1837)" fill="#07003b"/>
      <path id="Path_687" data-name="Path 687" d="M-115.64-8.456V-9.8h-6.776V0h1.47V-4.144h4.886V-5.488h-4.886V-8.456Zm5,8.624A3.646,3.646,0,0,0-106.89-3.57a3.643,3.643,0,0,0-3.752-3.724,3.647,3.647,0,0,0-3.766,3.724A3.65,3.65,0,0,0-110.642.168Zm0-1.274A2.323,2.323,0,0,1-112.98-3.57a2.319,2.319,0,0,1,2.338-2.45,2.308,2.308,0,0,1,2.324,2.45A2.312,2.312,0,0,1-110.642-1.106Zm8.918-6.188a2.527,2.527,0,0,0-2.058,1.008v-.84h-1.4V0h1.4V-4.788a2.245,2.245,0,0,1,2.03-1.2,2.94,2.94,0,0,1,.672.084l.1-1.288A2.927,2.927,0,0,0-101.724-7.294Zm7.2.168v.616a3.222,3.222,0,0,0-2.17-.784,3.583,3.583,0,0,0-3.6,3.654A3.58,3.58,0,0,0-96.712.014,3.233,3.233,0,0,0-94.528-.77v.644a1.957,1.957,0,0,1-2.2,2.072A3.781,3.781,0,0,1-99.26.882l-.854,1.022a4.723,4.723,0,0,0,3.4,1.316c2.212,0,3.584-1.26,3.584-3.346v-7ZM-96.544-1.26a2.289,2.289,0,0,1-2.324-2.38,2.289,2.289,0,0,1,2.324-2.38,2.6,2.6,0,0,1,2.016.938V-2.2A2.645,2.645,0,0,1-96.544-1.26Zm12.4-2.548a3.318,3.318,0,0,0-3.5-3.486,3.651,3.651,0,0,0-3.794,3.78A3.55,3.55,0,0,0-87.64.168a3.848,3.848,0,0,0,3.276-1.61l-.994-.756A2.682,2.682,0,0,1-87.612-1.05,2.239,2.239,0,0,1-90.02-3.234h5.838A3.56,3.56,0,0,0-84.14-3.808Zm-3.5-2.3a1.936,1.936,0,0,1,2.086,1.736h-4.382A2.2,2.2,0,0,1-87.64-6.1Zm9.646,4.746a3.264,3.264,0,0,1-1.148.224c-.882,0-1.3-.476-1.3-1.568v-3.22h2.422v-1.2h-2.422v-1.75h-1.4v1.75H-83.4v1.2h1.554v3.374c0,1.848.868,2.688,2.492,2.688a3.894,3.894,0,0,0,1.61-.322ZM-68.782-9.8H-72.6V0h1.47V-3.752h2.352c2.142,0,3.444-1.12,3.444-3.024S-66.64-9.8-68.782-9.8Zm-.14,4.7h-2.212V-8.442h2.212c1.428,0,2.072.574,2.072,1.666S-67.494-5.1-68.922-5.1Zm10.514-2.03v.6a3.294,3.294,0,0,0-2.184-.77A3.606,3.606,0,0,0-64.176-3.57,3.61,3.61,0,0,0-60.592.168a3.233,3.233,0,0,0,2.184-.784V0h1.4V-7.126Zm-2,6.02A2.315,2.315,0,0,1-62.748-3.57,2.311,2.311,0,0,1-60.41-6.02a2.575,2.575,0,0,1,2,.938v3.038A2.575,2.575,0,0,1-60.41-1.106ZM-52.22.168c1.792,0,2.828-.91,2.828-2.254,0-1.008-.56-1.666-2.016-1.988l-1.232-.28c-.91-.21-1.162-.462-1.162-.84,0-.518.462-.882,1.33-.882a3.126,3.126,0,0,1,2.142.854l.854-.98a4.065,4.065,0,0,0-2.912-1.092c-1.708,0-2.786.9-2.786,2.2,0,.98.6,1.61,2.03,1.932l1.246.28c.854.2,1.134.5,1.134.9,0,.532-.532.924-1.414.924a3.673,3.673,0,0,1-2.38-.924l-.812,1.05A4.7,4.7,0,0,0-52.22.168Zm7.1,0c1.792,0,2.828-.91,2.828-2.254,0-1.008-.56-1.666-2.016-1.988l-1.232-.28c-.91-.21-1.162-.462-1.162-.84,0-.518.462-.882,1.33-.882a3.126,3.126,0,0,1,2.142.854l.854-.98A4.065,4.065,0,0,0-45.29-7.294c-1.708,0-2.786.9-2.786,2.2,0,.98.6,1.61,2.03,1.932l1.246.28c.854.2,1.134.5,1.134.9,0,.532-.532.924-1.414.924a3.673,3.673,0,0,1-2.38-.924l-.812,1.05A4.7,4.7,0,0,0-45.122.168Zm13.9-7.294L-33-1.876l-1.96-5.25h-1.288l-1.974,5.25L-40-7.126h-1.47L-39,0h1.414L-35.6-5.32-33.628,0H-32.2l2.464-7.126ZM-25.242.168A3.646,3.646,0,0,0-21.49-3.57a3.643,3.643,0,0,0-3.752-3.724A3.647,3.647,0,0,0-29.008-3.57,3.65,3.65,0,0,0-25.242.168Zm0-1.274A2.323,2.323,0,0,1-27.58-3.57a2.319,2.319,0,0,1,2.338-2.45,2.308,2.308,0,0,1,2.324,2.45A2.312,2.312,0,0,1-25.242-1.106Zm8.918-6.188a2.527,2.527,0,0,0-2.058,1.008v-.84h-1.4V0h1.4V-4.788a2.245,2.245,0,0,1,2.03-1.2,2.94,2.94,0,0,1,.672.084l.1-1.288A2.927,2.927,0,0,0-16.324-7.294Zm7.2-3.038v3.808a3.294,3.294,0,0,0-2.184-.77A3.606,3.606,0,0,0-14.9-3.57,3.61,3.61,0,0,0-11.312.168,3.233,3.233,0,0,0-9.128-.616V0h1.4V-10.332Zm-2,9.226A2.315,2.315,0,0,1-13.468-3.57,2.311,2.311,0,0,1-11.13-6.02a2.575,2.575,0,0,1,2,.938v3.038A2.575,2.575,0,0,1-11.13-1.106Zm6.8-2h1.4v-.6a1.193,1.193,0,0,1,.56-1.19l.658-.56A2.731,2.731,0,0,0-.448-7.63,2.441,2.441,0,0,0-3.164-9.968,3.161,3.161,0,0,0-6.314-7.5l1.232.49c.35-1.148,1.036-1.694,1.932-1.694.826,0,1.3.448,1.3,1.134,0,.392-.168.714-.7,1.162l-.672.574a2.277,2.277,0,0,0-1.106,2.1ZM-3.626.1a.949.949,0,0,0,.98-.98.957.957,0,0,0-.98-.98.957.957,0,0,0-.98.98A.949.949,0,0,0-3.626.1Z" transform="translate(595 1837)" fill="#07003b"/>
    </g>
    <g id="setting_1" data-name="setting 1" transform="translate(-248 -13)">
      <g transform="matrix(1, 0, 0, 1, 304, 1564)" filter="url(#Rectangle_436-2)">
        <rect id="Rectangle_436-4" data-name="Rectangle 436" width="286" height="276" rx="10" transform="translate(30 65)" fill="#fff"/>
      </g>
      <g id="Disable" transform="translate(8 -34)">
        <g id="radio" transform="translate(-18)">
          <g id="Rectangle_535" data-name="Rectangle 535" transform="translate(562 1690)" fill="#3c50e0" stroke="rgba(60,80,224,0.4)" stroke-width="2">
            <rect width="43" height="20" rx="10" stroke="none"/>
            <rect x="1" y="1" width="41" height="18" rx="9" fill="none"/>
          </g>
          <rect id="Rectangle_551" data-name="Rectangle 551" width="12" height="12" rx="6" transform="translate(589 1694)" fill="#ff5670"/>
        </g>
        <path id="Path_680" data-name="Path 680" d="M8.05-8.162V-9.8H1.176V0H8.05V-1.638H2.94V-4.27H7.392V-5.894H2.94V-8.162Zm5.7.826a3.431,3.431,0,0,0-2.184.77v-.6H9.884V0h1.68V-4.942a2.3,2.3,0,0,1,1.764-.84c.938,0,1.526.616,1.526,1.848V0h1.68V-4.3A2.713,2.713,0,0,0,13.748-7.336Zm9.926.168v.546a3.2,3.2,0,0,0-2.058-.714,3.6,3.6,0,0,0-3.57,3.752A3.6,3.6,0,0,0,21.616.168a3.2,3.2,0,0,0,2.058-.714V0h1.68V-7.168Zm-1.806,5.8a2.078,2.078,0,0,1-2.114-2.212,2.067,2.067,0,0,1,2.114-2.2,2.315,2.315,0,0,1,1.806.826v2.744A2.329,2.329,0,0,1,21.868-1.372Zm9.268-5.964a3.2,3.2,0,0,0-2.058.714v-3.71H27.4V0h1.68V-.546a3.2,3.2,0,0,0,2.058.714,3.6,3.6,0,0,0,3.57-3.752A3.6,3.6,0,0,0,31.136-7.336Zm-.252,5.964a2.329,2.329,0,0,1-1.806-.84V-4.956a2.315,2.315,0,0,1,1.806-.826A2.067,2.067,0,0,1,33-3.584,2.078,2.078,0,0,1,30.884-1.372ZM36.288,0h1.68V-10.332h-1.68ZM46.942-3.794a3.354,3.354,0,0,0-3.556-3.542A3.684,3.684,0,0,0,39.55-3.528,3.577,3.577,0,0,0,43.4.168,3.966,3.966,0,0,0,46.718-1.4l-1.176-.9a2.6,2.6,0,0,1-2.114,1.022,2.019,2.019,0,0,1-2.2-1.89H46.9A4.608,4.608,0,0,0,46.942-3.794Zm-3.57-2.128a1.719,1.719,0,0,1,1.876,1.5H41.314A1.971,1.971,0,0,1,43.372-5.922Zm8.456-.154H53.06l.266-3.892H51.562Zm2.646,0h1.232l.252-3.892h-1.75Zm9.436.8a2.005,2.005,0,0,0,1.036-1.9c0-1.652-1.218-2.618-3.29-2.618h-3.92V0h4.256c2.338,0,3.64-1.12,3.64-2.9A2.358,2.358,0,0,0,63.91-5.278Zm-2.212-3c.966,0,1.47.42,1.47,1.162s-.5,1.2-1.47,1.2H59.486V-8.274Zm.252,6.748H59.486v-2.9H61.95c1.232,0,1.862.588,1.862,1.456S63.182-1.526,61.95-1.526ZM72.6-7.168v.546a3.2,3.2,0,0,0-2.058-.714,3.6,3.6,0,0,0-3.57,3.752A3.6,3.6,0,0,0,70.546.168,3.2,3.2,0,0,0,72.6-.546V0h1.68V-7.168ZM70.8-1.372a2.078,2.078,0,0,1-2.114-2.212,2.067,2.067,0,0,1,2.114-2.2,2.315,2.315,0,0,1,1.806.826v2.744A2.329,2.329,0,0,1,70.8-1.372ZM79.66.168a3.806,3.806,0,0,0,3.248-1.68L81.662-2.45a2.446,2.446,0,0,1-1.974,1.078A2.08,2.08,0,0,1,77.6-3.584a2.066,2.066,0,0,1,2.072-2.2A2.206,2.206,0,0,1,81.508-4.76L82.824-5.8a3.785,3.785,0,0,0-3.136-1.54A3.706,3.706,0,0,0,75.88-3.542,3.623,3.623,0,0,0,79.66.168ZM89.418,0h2.114l-3.36-4.074,3.164-3.094H89.194L85.89-4v-6.328H84.21V0h1.68V-1.862L87-2.926Zm3.066-6.076h1.232l.266-3.892H92.218Zm2.646,0h1.232l.252-3.892h-1.75Zm11,4.48a3.76,3.76,0,0,1-1.092.2c-.826,0-1.218-.434-1.218-1.442V-5.7h2.282v-1.47h-2.282V-8.876h-1.68v1.708h-1.47V-5.7h1.47v3.052c0,1.918.882,2.786,2.59,2.786a3.934,3.934,0,0,0,1.638-.322Zm8.414-2.2a3.354,3.354,0,0,0-3.556-3.542,3.684,3.684,0,0,0-3.836,3.808,3.577,3.577,0,0,0,3.85,3.7A3.966,3.966,0,0,0,114.324-1.4l-1.176-.9a2.6,2.6,0,0,1-2.114,1.022,2.019,2.019,0,0,1-2.2-1.89h5.67A4.608,4.608,0,0,0,114.548-3.794Zm-3.57-2.128a1.719,1.719,0,0,1,1.876,1.5H108.92A1.971,1.971,0,0,1,110.978-5.922ZM122.4,0l-2.66-3.7,2.548-3.472H120.4l-1.68,2.31-1.666-2.31h-1.89L117.712-3.7,115.038,0h1.918l1.764-2.45L120.484,0Zm6.062-1.6a3.76,3.76,0,0,1-1.092.2c-.826,0-1.218-.434-1.218-1.442V-5.7h2.282v-1.47h-2.282V-8.876h-1.68v1.708H123V-5.7h1.47v3.052c0,1.918.882,2.786,2.59,2.786A3.934,3.934,0,0,0,128.7-.182Z" transform="translate(351 1704)" fill="#07003b"/>
      </g>
      <g id="Width" transform="translate(0 13)">
        <g id="radio-2" data-name="radio" transform="translate(-7.558)">
          <g id="Rectangle_535-2" data-name="Rectangle 535" transform="translate(572.558 1693)" fill="rgba(132,149,194,0.3)" stroke="#8495c2" stroke-width="1">
            <rect width="30" height="30" rx="5" stroke="none"/>
            <rect x="0.5" y="0.5" width="29" height="29" rx="4.5" fill="none"/>
          </g>
          <rect id="Rectangle_553" data-name="Rectangle 553" width="24" height="24" rx="3" transform="translate(575.558 1696)" fill="#07003b"/>
        </g>
        <path id="Path_681" data-name="Path 681" d="M8.3-9.8H.308v1.652H3.416V0H5.194V-8.148H8.3Zm7.434,6.006A3.354,3.354,0,0,0,12.18-7.336,3.684,3.684,0,0,0,8.344-3.528a3.577,3.577,0,0,0,3.85,3.7A3.966,3.966,0,0,0,15.512-1.4l-1.176-.9a2.6,2.6,0,0,1-2.114,1.022,2.019,2.019,0,0,1-2.2-1.89h5.67A4.608,4.608,0,0,0,15.736-3.794Zm-3.57-2.128a1.719,1.719,0,0,1,1.876,1.5H10.108A1.971,1.971,0,0,1,12.166-5.922ZM23.59,0,20.93-3.7l2.548-3.472h-1.89l-1.68,2.31-1.666-2.31h-1.89L18.9-3.7,16.226,0h1.918l1.764-2.45L21.672,0Zm6.062-1.6a3.76,3.76,0,0,1-1.092.2c-.826,0-1.218-.434-1.218-1.442V-5.7h2.282v-1.47H27.342V-8.876h-1.68v1.708h-1.47V-5.7h1.47v3.052c0,1.918.882,2.786,2.59,2.786A3.934,3.934,0,0,0,29.89-.182Zm9.7,1.764A4.957,4.957,0,0,0,43.75-2.3l-1.526-.9A3.157,3.157,0,0,1,39.368-1.5a3.186,3.186,0,0,1-3.234-3.4,3.186,3.186,0,0,1,3.234-3.4A3.121,3.121,0,0,1,42.21-6.608l1.526-.91a4.939,4.939,0,0,0-4.368-2.45A4.95,4.95,0,0,0,34.3-4.886,4.9,4.9,0,0,0,39.354.168Zm9.324,0a3.668,3.668,0,0,0,3.794-3.752,3.66,3.66,0,0,0-3.794-3.752A3.672,3.672,0,0,0,44.87-3.584,3.68,3.68,0,0,0,48.678.168Zm0-1.54a2.075,2.075,0,0,1-2.1-2.212,2.064,2.064,0,0,1,2.1-2.2,2.061,2.061,0,0,1,2.086,2.2A2.072,2.072,0,0,1,48.678-1.372ZM54.054,0h1.68V-10.332h-1.68Zm7.07.168a3.668,3.668,0,0,0,3.794-3.752,3.66,3.66,0,0,0-3.794-3.752,3.672,3.672,0,0,0-3.808,3.752A3.68,3.68,0,0,0,61.124.168Zm0-1.54a2.075,2.075,0,0,1-2.1-2.212,2.064,2.064,0,0,1,2.1-2.2,2.061,2.061,0,0,1,2.086,2.2A2.072,2.072,0,0,1,61.124-1.372Zm9.044-5.964A2.51,2.51,0,0,0,68.18-6.4v-.77H66.5V0h1.68V-4.662a2.238,2.238,0,0,1,1.974-1.092,3.907,3.907,0,0,1,.658.07l.1-1.554A2.927,2.927,0,0,0,70.168-7.336Z" transform="translate(359 1712)" fill="#07003b"/>
      </g>
      <g id="Width-2" data-name="Width" transform="translate(0 69)">
        <g id="radio-3" data-name="radio" transform="translate(-7.558)">
          <g id="Rectangle_535-3" data-name="Rectangle 535" transform="translate(572.558 1693)" fill="rgba(132,149,194,0.3)" stroke="#8495c2" stroke-width="1">
            <rect width="30" height="30" rx="5" stroke="none"/>
            <rect x="0.5" y="0.5" width="29" height="29" rx="4.5" fill="none"/>
          </g>
          <rect id="Rectangle_553-2" data-name="Rectangle 553" width="24" height="24" rx="3" transform="translate(575.558 1696)" fill="#07003b" opacity="0.7"/>
        </g>
        <path id="Path_682" data-name="Path 682" d="M8.3-9.8H.308v1.652H3.416V0H5.194V-8.148H8.3Zm7.434,6.006A3.354,3.354,0,0,0,12.18-7.336,3.684,3.684,0,0,0,8.344-3.528a3.577,3.577,0,0,0,3.85,3.7A3.966,3.966,0,0,0,15.512-1.4l-1.176-.9a2.6,2.6,0,0,1-2.114,1.022,2.019,2.019,0,0,1-2.2-1.89h5.67A4.608,4.608,0,0,0,15.736-3.794Zm-3.57-2.128a1.719,1.719,0,0,1,1.876,1.5H10.108A1.971,1.971,0,0,1,12.166-5.922ZM23.59,0,20.93-3.7l2.548-3.472h-1.89l-1.68,2.31-1.666-2.31h-1.89L18.9-3.7,16.226,0h1.918l1.764-2.45L21.672,0Zm6.062-1.6a3.76,3.76,0,0,1-1.092.2c-.826,0-1.218-.434-1.218-1.442V-5.7h2.282v-1.47H27.342V-8.876h-1.68v1.708h-1.47V-5.7h1.47v3.052c0,1.918.882,2.786,2.59,2.786A3.934,3.934,0,0,0,29.89-.182ZM41.37-9.8v3.92H36.6V-9.8H34.832V0H36.6V-4.228H41.37V0h1.764V-9.8ZM48.692.168a3.668,3.668,0,0,0,3.794-3.752,3.66,3.66,0,0,0-3.794-3.752,3.672,3.672,0,0,0-3.808,3.752A3.68,3.68,0,0,0,48.692.168Zm0-1.54a2.075,2.075,0,0,1-2.1-2.212,2.064,2.064,0,0,1,2.1-2.2,2.061,2.061,0,0,1,2.086,2.2A2.072,2.072,0,0,1,48.692-1.372Zm10.192-5.8-2,5.11-2-5.11H53.018L55.986,0h1.792l2.954-7.168ZM68.67-3.794a3.354,3.354,0,0,0-3.556-3.542,3.684,3.684,0,0,0-3.836,3.808,3.577,3.577,0,0,0,3.85,3.7A3.966,3.966,0,0,0,68.446-1.4L67.27-2.3a2.6,2.6,0,0,1-2.114,1.022,2.019,2.019,0,0,1-2.2-1.89h5.67A4.608,4.608,0,0,0,68.67-3.794ZM65.1-5.922a1.719,1.719,0,0,1,1.876,1.5H63.042A1.971,1.971,0,0,1,65.1-5.922Zm8.848-1.414A2.51,2.51,0,0,0,71.96-6.4v-.77H70.28V0h1.68V-4.662a2.238,2.238,0,0,1,1.974-1.092,3.907,3.907,0,0,1,.658.07l.1-1.554A2.927,2.927,0,0,0,73.948-7.336ZM84.07.168a4.957,4.957,0,0,0,4.4-2.464l-1.526-.9A3.157,3.157,0,0,1,84.084-1.5,3.186,3.186,0,0,1,80.85-4.9a3.186,3.186,0,0,1,3.234-3.4,3.121,3.121,0,0,1,2.842,1.694l1.526-.91a4.939,4.939,0,0,0-4.368-2.45,4.95,4.95,0,0,0-5.068,5.082A4.9,4.9,0,0,0,84.07.168Zm9.324,0a3.668,3.668,0,0,0,3.794-3.752,3.66,3.66,0,0,0-3.794-3.752,3.672,3.672,0,0,0-3.808,3.752A3.68,3.68,0,0,0,93.394.168Zm0-1.54a2.075,2.075,0,0,1-2.1-2.212,2.064,2.064,0,0,1,2.1-2.2,2.061,2.061,0,0,1,2.086,2.2A2.072,2.072,0,0,1,93.394-1.372ZM98.77,0h1.68V-10.332H98.77Zm7.07.168a3.668,3.668,0,0,0,3.794-3.752,3.66,3.66,0,0,0-3.794-3.752,3.672,3.672,0,0,0-3.808,3.752A3.68,3.68,0,0,0,105.84.168Zm0-1.54a2.075,2.075,0,0,1-2.1-2.212,2.064,2.064,0,0,1,2.1-2.2,2.061,2.061,0,0,1,2.086,2.2A2.072,2.072,0,0,1,105.84-1.372Zm9.044-5.964A2.51,2.51,0,0,0,112.9-6.4v-.77h-1.68V0h1.68V-4.662a2.238,2.238,0,0,1,1.974-1.092,3.907,3.907,0,0,1,.658.07l.1-1.554A2.927,2.927,0,0,0,114.884-7.336Z" transform="translate(359 1712)" fill="#07003b"/>
      </g>
      <g id="Width-3" data-name="Width" transform="translate(0 122)">
        <g id="radio-4" data-name="radio" transform="translate(-7.558)">
          <g id="Rectangle_535-4" data-name="Rectangle 535" transform="translate(533.558 1690)" fill="rgba(60,80,224,0.03)" stroke="rgba(60,80,224,0.4)" stroke-width="2">
            <rect width="69" height="36" rx="5" stroke="none"/>
            <rect x="1" y="1" width="67" height="34" rx="4" fill="none"/>
          </g>
          <path id="Path_684" data-name="Path 684" d="M-12.243-9.8l-2.716,1.386V-6.65l2.436-1.218V0h1.75V-9.8ZM-1.057-3.444H-2.345V-9.8H-4.389l-4.62,6.37v1.442h5.026V0h1.638V-1.988h1.288Zm-6.174,0L-3.983-7.9v4.452ZM3.941-7.336a3.116,3.116,0,0,0-2.072.728v-.56H.189V3.052h1.68V-.56A3.116,3.116,0,0,0,3.941.168,3.6,3.6,0,0,0,7.5-3.584,3.6,3.6,0,0,0,3.941-7.336ZM3.689-1.372a2.336,2.336,0,0,1-1.82-.84V-4.956a2.323,2.323,0,0,1,1.82-.826,2.056,2.056,0,0,1,2.1,2.2A2.068,2.068,0,0,1,3.689-1.372ZM15.337,0l-2.66-3.7,2.548-3.472h-1.89l-1.68,2.31L9.989-7.168H8.1L10.647-3.7,7.973,0H9.891l1.764-2.45L13.419,0Z" transform="translate(568.559 1714)" fill="#07003b"/>
        </g>
        <g id="Range" transform="translate(0 30)">
          <g id="Rectangle_535-5" data-name="Rectangle 535" transform="translate(359 1715)" fill="#3c50e0" stroke="#3c50e0" stroke-width="2" opacity="0.7">
            <rect width="236" height="4" rx="2" stroke="none"/>
            <rect x="1" y="1" width="234" height="2" rx="1" fill="none"/>
          </g>
          <rect id="Rectangle_551-2" data-name="Rectangle 551" width="12" height="12" rx="6" transform="translate(412 1711)" fill="#ff5670"/>
        </g>
        <path id="Path_683" data-name="Path 683" d="M8.05-8.162V-9.8H1.176V0H2.94V-3.948H7.63V-5.586H2.94V-8.162ZM13.02.168a3.668,3.668,0,0,0,3.794-3.752A3.66,3.66,0,0,0,13.02-7.336,3.672,3.672,0,0,0,9.212-3.584,3.68,3.68,0,0,0,13.02.168Zm0-1.54a2.075,2.075,0,0,1-2.1-2.212,2.064,2.064,0,0,1,2.1-2.2,2.061,2.061,0,0,1,2.086,2.2A2.072,2.072,0,0,1,13.02-1.372Zm9.24-5.964a3.431,3.431,0,0,0-2.184.77v-.6H18.4V0h1.68V-4.942a2.3,2.3,0,0,1,1.764-.84c.938,0,1.526.616,1.526,1.848V0h1.68V-4.3A2.713,2.713,0,0,0,22.26-7.336Zm9.3,5.74a3.76,3.76,0,0,1-1.092.2c-.826,0-1.218-.434-1.218-1.442V-5.7h2.282v-1.47H29.246V-8.876h-1.68v1.708H26.1V-5.7h1.47v3.052c0,1.918.882,2.786,2.59,2.786a3.934,3.934,0,0,0,1.638-.322Zm8.3,1.764c2.324,0,3.71-1.232,3.71-3.066,0-1.372-.8-2.24-2.394-2.632l-1.722-.406c-1.12-.266-1.5-.644-1.5-1.2,0-.7.63-1.232,1.792-1.232A3.545,3.545,0,0,1,42.21-7.364L43.358-8.6a5.134,5.134,0,0,0-3.584-1.372c-2.184,0-3.6,1.232-3.6,2.94,0,1.3.854,2.2,2.408,2.576l1.722.406c1.064.252,1.47.672,1.47,1.274,0,.77-.672,1.33-1.862,1.33a4.847,4.847,0,0,1-2.9-1.078L35.994-1.134A6.158,6.158,0,0,0,39.858.168Zm6.02-8.288A1.067,1.067,0,0,0,46.942-9.2a1.073,1.073,0,0,0-1.064-1.064A1.088,1.088,0,0,0,44.786-9.2,1.082,1.082,0,0,0,45.878-8.12ZM45.024,0H46.7V-7.168h-1.68Zm5.544-1.484,3.654-4.494v-1.19H48.328v1.484h3.6L48.272-1.19V0h6.006V-1.484Zm12.124-2.31a3.354,3.354,0,0,0-3.556-3.542A3.684,3.684,0,0,0,55.3-3.528a3.577,3.577,0,0,0,3.85,3.7A3.966,3.966,0,0,0,62.468-1.4l-1.176-.9a2.6,2.6,0,0,1-2.114,1.022,2.019,2.019,0,0,1-2.2-1.89h5.67A4.608,4.608,0,0,0,62.692-3.794Zm-3.57-2.128A1.719,1.719,0,0,1,61-4.424H57.064A1.971,1.971,0,0,1,59.122-5.922Z" transform="translate(359 1712)" fill="#07003b"/>
      </g>
    </g>
  </g>
</svg>
