<svg xmlns="http://www.w3.org/2000/svg" width="604" height="604" viewBox="0 0 604 604">
  <g id="Shapes" transform="translate(-753 -2765)">
    <rect id="Rectangle_373" data-name="Rectangle 373" width="302" height="302" rx="151" transform="translate(753 2765)" fill="#fdb400" opacity="0.5"/>
    <path id="Rectangle_374" data-name="Rectangle 374" d="M0,0H302a0,0,0,0,1,0,0V302a0,0,0,0,1,0,0h-2A300,300,0,0,1,0,2V0A0,0,0,0,1,0,0Z" transform="translate(1357 3369) rotate(180)" fill="#ff5670"/>
    <path id="Rectangle_381" data-name="Rectangle 381" d="M0,0H302a0,0,0,0,1,0,0V2A300,300,0,0,1,2,302H0a0,0,0,0,1,0,0V0A0,0,0,0,1,0,0Z" transform="translate(1055 3067) rotate(-90)" fill="#3c50e0"/>
    <g id="Group_84" data-name="Group 84" transform="translate(904 3369) rotate(180)" opacity="0.3">
      <path id="Path_122" data-name="Path 122" d="M0,0,151,151H0Z" transform="translate(-151 151) rotate(-90)" fill="#3c50e0"/>
    </g>
  </g>
</svg>
