<svg xmlns="http://www.w3.org/2000/svg" xmlns:xlink="http://www.w3.org/1999/xlink" width="652" height="589" viewBox="0 0 652 589">
  <defs>
    <filter id="Rectangle_436" x="0" y="30" width="346" height="531" filterUnits="userSpaceOnUse">
      <feOffset dy="5" input="SourceAlpha"/>
      <feGaussianBlur stdDeviation="10" result="blur"/>
      <feFlood flood-color="#3c50e0" flood-opacity="0.149"/>
      <feComposite operator="in" in2="blur"/>
      <feComposite in="SourceGraphic"/>
    </filter>
    <filter id="Rectangle_436-2" x="306" y="175" width="346" height="414" filterUnits="userSpaceOnUse">
      <feOffset dy="5" input="SourceAlpha"/>
      <feGaussianBlur stdDeviation="10" result="blur-2"/>
      <feFlood flood-color="#3c50e0" flood-opacity="0.149"/>
      <feComposite operator="in" in2="blur-2"/>
      <feComposite in="SourceGraphic"/>
    </filter>
    <filter id="Rectangle_473" x="306" y="0" width="203" height="205" filterUnits="userSpaceOnUse">
      <feOffset dy="5" input="SourceAlpha"/>
      <feGaussianBlur stdDeviation="10" result="blur-3"/>
      <feFlood flood-color="#3c50e0" flood-opacity="0.149"/>
      <feComposite operator="in" in2="blur-3"/>
      <feComposite in="SourceGraphic"/>
    </filter>
  </defs>
  <g id="feature-12" transform="translate(-56 -1521)">
    <g id="logo_size" data-name="logo size" transform="translate(-248 134)">
      <g transform="matrix(1, 0, 0, 1, 304, 1387)" filter="url(#Rectangle_436)">
        <rect id="Rectangle_436-3" data-name="Rectangle 436" width="286" height="471" rx="10" transform="translate(30 55)" fill="#fff"/>
      </g>
      <rect id="Rectangle_554" data-name="Rectangle 554" width="100" height="100" rx="20" transform="translate(427 1470)" fill="#fdb400"/>
      <rect id="Rectangle_555" data-name="Rectangle 555" width="236" height="52" rx="5" transform="translate(359 1600)" fill="#3a4fe0" opacity="0.1"/>
      <g id="Rectangle_558" data-name="Rectangle 558" transform="translate(359 1744)" fill="rgba(207,207,207,0.15)" stroke="rgba(123,134,163,0.3)" stroke-width="2">
        <rect width="236" height="67" rx="5" stroke="none"/>
        <rect x="1" y="1" width="234" height="65" rx="4" fill="none"/>
      </g>
      <rect id="Rectangle_556" data-name="Rectangle 556" width="236" height="52" rx="5" transform="translate(359 1672)" fill="#3a4fe0" opacity="0.1"/>
      <rect id="Rectangle_557" data-name="Rectangle 557" width="146" height="52" rx="5" transform="translate(404 1831)" fill="#ff5670"/>
      <path id="Path_698" data-name="Path 698" d="M6.09-5.586v1.3H8.6v2.31a4.835,4.835,0,0,1-2.674.784A3.48,3.48,0,0,1,2.2-4.872,3.483,3.483,0,0,1,5.754-8.61a3.453,3.453,0,0,1,2.8,1.316l1.19-.812A4.96,4.96,0,0,0,5.782-9.968,4.955,4.955,0,0,0,.7-4.844,4.879,4.879,0,0,0,5.866.168,6.692,6.692,0,0,0,10-1.26V-5.586ZM15.526.168A3.646,3.646,0,0,0,19.278-3.57a3.643,3.643,0,0,0-3.752-3.724A3.647,3.647,0,0,0,11.76-3.57,3.65,3.65,0,0,0,15.526.168Zm0-1.274A2.323,2.323,0,0,1,13.188-3.57a2.319,2.319,0,0,1,2.338-2.45A2.308,2.308,0,0,1,17.85-3.57,2.312,2.312,0,0,1,15.526-1.106ZM24.29.168A3.646,3.646,0,0,0,28.042-3.57,3.643,3.643,0,0,0,24.29-7.294,3.647,3.647,0,0,0,20.524-3.57,3.65,3.65,0,0,0,24.29.168Zm0-1.274A2.323,2.323,0,0,1,21.952-3.57,2.319,2.319,0,0,1,24.29-6.02a2.308,2.308,0,0,1,2.324,2.45A2.312,2.312,0,0,1,24.29-1.106Zm10.766-6.02v.616a3.222,3.222,0,0,0-2.17-.784,3.583,3.583,0,0,0-3.6,3.654A3.58,3.58,0,0,0,32.872.014,3.233,3.233,0,0,0,35.056-.77v.644a1.957,1.957,0,0,1-2.2,2.072A3.781,3.781,0,0,1,30.324.882L29.47,1.9a4.723,4.723,0,0,0,3.4,1.316c2.212,0,3.584-1.26,3.584-3.346v-7ZM33.04-1.26a2.289,2.289,0,0,1-2.324-2.38A2.289,2.289,0,0,1,33.04-6.02a2.6,2.6,0,0,1,2.016.938V-2.2A2.645,2.645,0,0,1,33.04-1.26ZM38.612,0h1.4V-10.332h-1.4ZM49-3.808a3.318,3.318,0,0,0-3.5-3.486,3.651,3.651,0,0,0-3.794,3.78A3.55,3.55,0,0,0,45.5.168a3.848,3.848,0,0,0,3.276-1.61L47.782-2.2A2.682,2.682,0,0,1,45.528-1.05,2.239,2.239,0,0,1,43.12-3.234h5.838A3.559,3.559,0,0,0,49-3.808ZM45.5-6.1a1.936,1.936,0,0,1,2.086,1.736H43.2A2.2,2.2,0,0,1,45.5-6.1Zm12.194-1.19a2.527,2.527,0,0,0-2.058,1.008v-.84h-1.4V0h1.4V-4.788a2.245,2.245,0,0,1,2.03-1.2,2.94,2.94,0,0,1,.672.084l.1-1.288A2.927,2.927,0,0,0,57.694-7.294Zm8.722,3.486a3.318,3.318,0,0,0-3.5-3.486,3.651,3.651,0,0,0-3.794,3.78A3.55,3.55,0,0,0,62.916.168a3.848,3.848,0,0,0,3.276-1.61L65.2-2.2A2.682,2.682,0,0,1,62.944-1.05a2.239,2.239,0,0,1-2.408-2.184h5.838A3.559,3.559,0,0,0,66.416-3.808Zm-3.5-2.3A1.936,1.936,0,0,1,65-4.368H60.62A2.2,2.2,0,0,1,62.916-6.1ZM72.8.168a4.961,4.961,0,0,0,4.354-2.38l-1.232-.742A3.5,3.5,0,0,1,72.814-1.19,3.48,3.48,0,0,1,69.272-4.9a3.48,3.48,0,0,1,3.542-3.71,3.422,3.422,0,0,1,3.08,1.764L77.126-7.6a4.953,4.953,0,0,0-4.312-2.366,4.958,4.958,0,0,0-5.054,5.1A4.9,4.9,0,0,0,72.8.168ZM85.736,0h1.54L83.342-9.8H81.718L77.784,0h1.54l.98-2.478h4.452ZM80.794-3.738l1.736-4.4,1.736,4.4ZM92.554-9.8H88.732V0H90.2V-3.752h2.352C94.7-3.752,96-4.872,96-6.776S94.7-9.8,92.554-9.8Zm-.14,4.7H90.2V-8.442h2.212c1.428,0,2.072.574,2.072,1.666S93.842-5.1,92.414-5.1Zm12.6-4.7H97.048v1.358H100.3V0h1.47V-8.442h3.248ZM110.7.168a4.961,4.961,0,0,0,4.354-2.38l-1.232-.742a3.5,3.5,0,0,1-3.108,1.764A3.48,3.48,0,0,1,107.17-4.9a3.48,3.48,0,0,1,3.542-3.71,3.422,3.422,0,0,1,3.08,1.764l1.232-.756a4.953,4.953,0,0,0-4.312-2.366,4.958,4.958,0,0,0-5.054,5.1A4.9,4.9,0,0,0,110.7.168ZM123.508-9.8v4.06h-5.194V-9.8h-1.47V0h1.47V-4.382h5.194V0h1.47V-9.8ZM134.386,0h1.54l-3.934-9.8h-1.624L126.434,0h1.54l.98-2.478h4.452Zm-4.942-3.738,1.736-4.4,1.736,4.4Z" transform="translate(430 1783)" fill="#07003b"/>
      <g id="Group_103" data-name="Group 103" transform="translate(379 1759)">
        <path id="XMLID_242_" d="M43.28,19.252a5.576,5.576,0,0,0-.037-.781V3.7L39.213,7.8A17.79,17.79,0,0,0,11,8.316l6.6,6.77a8.9,8.9,0,0,1,2.675-3.05,7.739,7.739,0,0,1,5.02-1.674,1.441,1.441,0,0,1,.623.112,8.549,8.549,0,0,1,6.705,4.017l-4.653,4.724c5.9,0,12.568-.037,15.316.037" transform="translate(-7.28 -1.063)" fill="#3c50e0"/>
        <path id="XMLID_241_" d="M19.189,1a5.557,5.557,0,0,0-.781.037H3.641L7.733,5.081a17.821,17.821,0,0,0,.484,28.274l6.77-6.618a8.9,8.9,0,0,1-3.05-2.684,7.782,7.782,0,0,1-1.674-5.037,1.45,1.45,0,0,1,.112-.625A8.711,8.711,0,0,1,14.428,11.7l4.724,4.669c0-5.919-.037-12.611.037-15.368" transform="translate(-1 -1)" fill="#29c3ff"/>
        <path id="XMLID_240_" d="M1,50a5.576,5.576,0,0,0,.037.781V65.548l4.03-4.092a17.79,17.79,0,0,0,28.213-.521L26.648,54.2a8.9,8.9,0,0,1-2.675,3.05,7.739,7.739,0,0,1-5.02,1.674,1.441,1.441,0,0,1-.623-.112A8.671,8.671,0,0,1,11.7,54.761L16.352,50c-5.936.037-12.6.037-15.352,0" transform="translate(-1 -32.152)" fill="#8495c2"/>
      </g>
    </g>
    <g id="setting_1" data-name="setting 1" transform="translate(58 92)">
      <g transform="matrix(1, 0, 0, 1, -2, 1429)" filter="url(#Rectangle_436-2)">
        <rect id="Rectangle_436-4" data-name="Rectangle 436" width="286" height="354" rx="10" transform="translate(336 200)" fill="#fff"/>
      </g>
      <g id="Height" transform="translate(0 5)">
        <g id="radio" transform="translate(-174.558 40)">
          <g id="Rectangle_535" data-name="Rectangle 535" transform="translate(533.558 1690)" fill="rgba(60,80,224,0.03)" stroke="rgba(60,80,224,0.4)" stroke-width="2">
            <rect width="236" height="40" rx="5" stroke="none"/>
            <rect x="1" y="1" width="234" height="38" rx="4" fill="none"/>
          </g>
          <path id="Path_701" data-name="Path 701" d="M7.728-9.8,4.872-2.1,2.03-9.8H.154L3.878,0h2L9.6-9.8Zm5.04,8.2L15.344-4c1.3-1.218,1.694-2.142,1.694-3.108A2.874,2.874,0,0,0,13.86-9.968a4.136,4.136,0,0,0-3.766,2.324l1.358.924a2.8,2.8,0,0,1,2.366-1.652,1.313,1.313,0,0,1,1.47,1.33c0,.63-.35,1.274-1.582,2.436l-3.458,3.22V0h6.944V-1.6ZM22.4,0h1.764V-9.8H22.4Zm3.794-6.076h1.232l.266-3.892H25.928Zm11.592-1.26a3.576,3.576,0,0,0-2.562,1.148,2.388,2.388,0,0,0-2.142-1.148,3.3,3.3,0,0,0-2.114.784v-.616h-1.68V0h1.68V-4.928a2.314,2.314,0,0,1,1.68-.854c.8,0,1.344.574,1.344,1.778V0h1.68V-4.368c0-.182-.014-.35-.028-.518a2.26,2.26,0,0,1,1.708-.9c.8,0,1.344.574,1.344,1.778V0h1.68V-4.368C40.376-6.258,39.312-7.336,37.786-7.336Zm11.83,0a3.431,3.431,0,0,0-2.184.77v-.6h-1.68V0h1.68V-4.942a2.3,2.3,0,0,1,1.764-.84c.938,0,1.526.616,1.526,1.848V0H52.4V-4.3A2.713,2.713,0,0,0,49.616-7.336Zm8.106,7.5a3.668,3.668,0,0,0,3.794-3.752,3.66,3.66,0,0,0-3.794-3.752,3.672,3.672,0,0,0-3.808,3.752A3.68,3.68,0,0,0,57.722.168Zm0-1.54a2.075,2.075,0,0,1-2.1-2.212,2.064,2.064,0,0,1,2.1-2.2,2.061,2.061,0,0,1,2.086,2.2A2.072,2.072,0,0,1,57.722-1.372Zm9.94-.224a3.76,3.76,0,0,1-1.092.2c-.826,0-1.218-.434-1.218-1.442V-5.7h2.282v-1.47H65.352V-8.876h-1.68v1.708H62.2V-5.7h1.47v3.052c0,1.918.882,2.786,2.59,2.786A3.934,3.934,0,0,0,67.9-.182Zm8.68-5.74a2.51,2.51,0,0,0-1.988.938v-.77h-1.68V0h1.68V-4.662a2.238,2.238,0,0,1,1.974-1.092,3.907,3.907,0,0,1,.658.07l.1-1.554A2.927,2.927,0,0,0,76.342-7.336Zm5.194,7.5A3.668,3.668,0,0,0,85.33-3.584a3.66,3.66,0,0,0-3.794-3.752,3.672,3.672,0,0,0-3.808,3.752A3.68,3.68,0,0,0,81.536.168Zm0-1.54a2.075,2.075,0,0,1-2.1-2.212,2.064,2.064,0,0,1,2.1-2.2,2.061,2.061,0,0,1,2.086,2.2A2.072,2.072,0,0,1,81.536-1.372Zm9.128-5.964a3.2,3.2,0,0,0-2.058.714v-3.71h-1.68V0h1.68V-.546a3.2,3.2,0,0,0,2.058.714,3.6,3.6,0,0,0,3.57-3.752A3.6,3.6,0,0,0,90.664-7.336Zm-.252,5.964a2.329,2.329,0,0,1-1.806-.84V-4.956a2.315,2.315,0,0,1,1.806-.826,2.067,2.067,0,0,1,2.114,2.2A2.078,2.078,0,0,1,90.412-1.372ZM99.19.168a3.668,3.668,0,0,0,3.794-3.752A3.66,3.66,0,0,0,99.19-7.336a3.672,3.672,0,0,0-3.808,3.752A3.68,3.68,0,0,0,99.19.168Zm0-1.54a2.075,2.075,0,0,1-2.1-2.212,2.064,2.064,0,0,1,2.1-2.2,2.061,2.061,0,0,1,2.086,2.2A2.072,2.072,0,0,1,99.19-1.372Zm9.94-.224a3.76,3.76,0,0,1-1.092.2c-.826,0-1.218-.434-1.218-1.442V-5.7H109.1v-1.47H106.82V-8.876h-1.68v1.708h-1.47V-5.7h1.47v3.052c0,1.918.882,2.786,2.59,2.786a3.934,3.934,0,0,0,1.638-.322ZM113.96.168a3.668,3.668,0,0,0,3.794-3.752,3.66,3.66,0,0,0-3.794-3.752,3.672,3.672,0,0,0-3.808,3.752A3.68,3.68,0,0,0,113.96.168Zm0-1.54a2.075,2.075,0,0,1-2.1-2.212,2.064,2.064,0,0,1,2.1-2.2,2.061,2.061,0,0,1,2.086,2.2A2.072,2.072,0,0,1,113.96-1.372Z" transform="translate(550.559 1715)" fill="#07003b"/>
          <path id="Path_705" data-name="Path 705" d="M-4.525-9a.7.7,0,0,0-.5,1.2L-.5-3.277a.7.7,0,0,0,.995,0L5.017-7.8a.7.7,0,0,0-.5-1.2Z" transform="translate(748.559 1717)" fill="#07003b"/>
        </g>
        <path id="Path_700" data-name="Path 700" d="M6.986,0H9.128L6.3-3.738A2.872,2.872,0,0,0,8.694-6.706c0-1.9-1.33-3.094-3.444-3.094H1.176V0H2.94V-3.626H4.312ZM2.94-8.148H5.082c1.218,0,1.792.5,1.792,1.442S6.3-5.264,5.082-5.264H2.94ZM17.416-3.794A3.354,3.354,0,0,0,13.86-7.336a3.684,3.684,0,0,0-3.836,3.808,3.577,3.577,0,0,0,3.85,3.7A3.966,3.966,0,0,0,17.192-1.4l-1.176-.9A2.6,2.6,0,0,1,13.9-1.274a2.019,2.019,0,0,1-2.2-1.89h5.67A4.608,4.608,0,0,0,17.416-3.794Zm-3.57-2.128a1.719,1.719,0,0,1,1.876,1.5H11.788A1.971,1.971,0,0,1,13.846-5.922Zm9.87,6.09a4.957,4.957,0,0,0,4.4-2.464l-1.526-.9A3.157,3.157,0,0,1,23.73-1.5,3.186,3.186,0,0,1,20.5-4.9,3.186,3.186,0,0,1,23.73-8.3a3.121,3.121,0,0,1,2.842,1.694l1.526-.91a4.939,4.939,0,0,0-4.368-2.45,4.95,4.95,0,0,0-5.068,5.082A4.9,4.9,0,0,0,23.716.168ZM34.86-7.168v.546A3.2,3.2,0,0,0,32.8-7.336a3.6,3.6,0,0,0-3.57,3.752A3.6,3.6,0,0,0,32.8.168,3.2,3.2,0,0,0,34.86-.546V0h1.68V-7.168Zm-1.806,5.8A2.078,2.078,0,0,1,30.94-3.584a2.067,2.067,0,0,1,2.114-2.2,2.315,2.315,0,0,1,1.806.826v2.744A2.329,2.329,0,0,1,33.054-1.372Zm9.268-5.964a3.116,3.116,0,0,0-2.072.728v-.56H38.57V3.052h1.68V-.56a3.116,3.116,0,0,0,2.072.728,3.6,3.6,0,0,0,3.556-3.752A3.6,3.6,0,0,0,42.322-7.336ZM42.07-1.372a2.336,2.336,0,0,1-1.82-.84V-4.956a2.323,2.323,0,0,1,1.82-.826,2.056,2.056,0,0,1,2.1,2.2A2.068,2.068,0,0,1,42.07-1.372ZM52.038-1.6a3.76,3.76,0,0,1-1.092.2c-.826,0-1.218-.434-1.218-1.442V-5.7H52.01v-1.47H49.728V-8.876h-1.68v1.708h-1.47V-5.7h1.47v3.052c0,1.918.882,2.786,2.59,2.786a3.934,3.934,0,0,0,1.638-.322ZM56.84.168a3.806,3.806,0,0,0,3.248-1.68L58.842-2.45a2.446,2.446,0,0,1-1.974,1.078,2.08,2.08,0,0,1-2.086-2.212,2.066,2.066,0,0,1,2.072-2.2A2.206,2.206,0,0,1,58.688-4.76L60-5.8a3.785,3.785,0,0,0-3.136-1.54A3.706,3.706,0,0,0,53.06-3.542,3.623,3.623,0,0,0,56.84.168Zm8.414-7.5a3.431,3.431,0,0,0-2.184.77v-3.766H61.39V0h1.68V-4.942a2.3,2.3,0,0,1,1.764-.84c.938,0,1.526.616,1.526,1.848V0h1.68V-4.3A2.713,2.713,0,0,0,65.254-7.336Zm9.926.168v.546a3.2,3.2,0,0,0-2.058-.714,3.6,3.6,0,0,0-3.57,3.752A3.6,3.6,0,0,0,73.122.168,3.2,3.2,0,0,0,75.18-.546V0h1.68V-7.168Zm-1.806,5.8A2.078,2.078,0,0,1,71.26-3.584a2.067,2.067,0,0,1,2.114-2.2,2.315,2.315,0,0,1,1.806.826v2.744A2.329,2.329,0,0,1,73.374-1.372ZM89.194-9.8H81.2v1.652h3.108V0h1.778V-8.148h3.108Zm6.258,2.632L93.436-2.254l-2.1-4.914H89.418L92.568-.14,91.252,3.052h1.806l4.214-10.22Zm6.706-.168a3.116,3.116,0,0,0-2.072.728v-.56h-1.68V3.052h1.68V-.56a3.116,3.116,0,0,0,2.072.728,3.6,3.6,0,0,0,3.556-3.752A3.6,3.6,0,0,0,102.158-7.336Zm-.252,5.964a2.336,2.336,0,0,1-1.82-.84V-4.956a2.323,2.323,0,0,1,1.82-.826,2.056,2.056,0,0,1,2.1,2.2A2.068,2.068,0,0,1,101.906-1.372Zm12.362-2.422a3.354,3.354,0,0,0-3.556-3.542,3.684,3.684,0,0,0-3.836,3.808,3.577,3.577,0,0,0,3.85,3.7A3.966,3.966,0,0,0,114.044-1.4l-1.176-.9a2.6,2.6,0,0,1-2.114,1.022,2.019,2.019,0,0,1-2.2-1.89h5.67A4.608,4.608,0,0,0,114.268-3.794ZM110.7-5.922a1.719,1.719,0,0,1,1.876,1.5H108.64A1.971,1.971,0,0,1,110.7-5.922Z" transform="translate(359 1712)" fill="#07003b"/>
      </g>
      <g id="Height-2" data-name="Height" transform="translate(0 94)">
        <g id="radio-2" data-name="radio" transform="translate(-174.558 40)">
          <g id="Rectangle_535-2" data-name="Rectangle 535" transform="translate(533.558 1690)" fill="rgba(60,80,224,0.03)" stroke="rgba(60,80,224,0.4)" stroke-width="2">
            <rect width="236" height="40" rx="5" stroke="none"/>
            <rect x="1" y="1" width="234" height="38" rx="4" fill="none"/>
          </g>
        </g>
        <path id="Path_702" data-name="Path 702" d="M4.3.168c2.324,0,3.71-1.232,3.71-3.066,0-1.372-.8-2.24-2.394-2.632L3.892-5.936c-1.12-.266-1.5-.644-1.5-1.2,0-.7.63-1.232,1.792-1.232A3.545,3.545,0,0,1,6.65-7.364L7.8-8.6A5.134,5.134,0,0,0,4.214-9.968c-2.184,0-3.6,1.232-3.6,2.94,0,1.3.854,2.2,2.408,2.576l1.722.406c1.064.252,1.47.672,1.47,1.274,0,.77-.672,1.33-1.862,1.33a4.847,4.847,0,0,1-2.9-1.078L.434-1.134A6.158,6.158,0,0,0,4.3.168Zm6.02-8.288A1.067,1.067,0,0,0,11.382-9.2a1.073,1.073,0,0,0-1.064-1.064A1.088,1.088,0,0,0,9.226-9.2,1.082,1.082,0,0,0,10.318-8.12ZM9.464,0h1.68V-7.168H9.464ZM17.78-1.6a3.76,3.76,0,0,1-1.092.2c-.826,0-1.218-.434-1.218-1.442V-5.7h2.282v-1.47H15.47V-8.876H13.79v1.708H12.32V-5.7h1.47v3.052c0,1.918.882,2.786,2.59,2.786a3.934,3.934,0,0,0,1.638-.322Zm8.414-2.2a3.354,3.354,0,0,0-3.556-3.542A3.684,3.684,0,0,0,18.8-3.528a3.577,3.577,0,0,0,3.85,3.7A3.966,3.966,0,0,0,25.97-1.4l-1.176-.9A2.6,2.6,0,0,1,22.68-1.274a2.019,2.019,0,0,1-2.2-1.89h5.67A4.608,4.608,0,0,0,26.194-3.794Zm-3.57-2.128a1.719,1.719,0,0,1,1.876,1.5H20.566A1.971,1.971,0,0,1,22.624-5.922ZM37.94,0h2.24L35.756-5.362,39.97-9.8h-2.2L33.166-4.984V-9.8H31.4V0h1.764V-2.632l1.372-1.456Zm10-3.794A3.354,3.354,0,0,0,44.38-7.336a3.684,3.684,0,0,0-3.836,3.808,3.577,3.577,0,0,0,3.85,3.7A3.966,3.966,0,0,0,47.712-1.4l-1.176-.9a2.6,2.6,0,0,1-2.114,1.022,2.019,2.019,0,0,1-2.2-1.89h5.67A4.608,4.608,0,0,0,47.936-3.794Zm-3.57-2.128a1.719,1.719,0,0,1,1.876,1.5H42.308A1.971,1.971,0,0,1,44.366-5.922ZM54.53-7.168,52.514-2.254l-2.1-4.914H48.5L51.646-.14,50.33,3.052h1.806L56.35-7.168Z" transform="translate(359 1712)" fill="#07003b"/>
      </g>
      <g id="Height-3" data-name="Height" transform="translate(0 183)">
        <g id="radio-3" data-name="radio" transform="translate(-174.558 40)">
          <g id="Rectangle_535-3" data-name="Rectangle 535" transform="translate(533.558 1690)" fill="rgba(60,80,224,0.03)" stroke="rgba(60,80,224,0.4)" stroke-width="2">
            <rect width="236" height="40" rx="5" stroke="none"/>
            <rect x="1" y="1" width="234" height="38" rx="4" fill="none"/>
          </g>
          <path id="Path_704" data-name="Path 704" d="M2.94-1.652V-9.8H1.176V0H7.644V-1.652ZM10-8.12A1.067,1.067,0,0,0,11.06-9.2,1.073,1.073,0,0,0,10-10.262,1.088,1.088,0,0,0,8.9-9.2,1.082,1.082,0,0,0,10-8.12ZM9.142,0h1.68V-7.168H9.142Zm8.89-7.168v.56a3.143,3.143,0,0,0-2.072-.728A3.566,3.566,0,0,0,12.4-3.682,3.538,3.538,0,0,0,15.96-.07a3.132,3.132,0,0,0,2.072-.714v.6A1.793,1.793,0,0,1,16,1.68,3.74,3.74,0,0,1,13.552.658L12.544,1.89A4.938,4.938,0,0,0,16.03,3.22c2.268,0,3.682-1.274,3.682-3.4V-7.168ZM16.2-1.582a2.026,2.026,0,0,1-2.086-2.1A2.03,2.03,0,0,1,16.2-5.8a2.406,2.406,0,0,1,1.834.84v2.534A2.406,2.406,0,0,1,16.2-1.582Zm9.394-5.754a3.431,3.431,0,0,0-2.184.77v-3.766h-1.68V0h1.68V-4.942a2.3,2.3,0,0,1,1.764-.84c.938,0,1.526.616,1.526,1.848V0h1.68V-4.3A2.713,2.713,0,0,0,25.592-7.336Zm9.3,5.74a3.76,3.76,0,0,1-1.092.2c-.826,0-1.218-.434-1.218-1.442V-5.7H34.86v-1.47H32.578V-8.876H30.9v1.708h-1.47V-5.7H30.9v3.052C30.9-.728,31.78.14,33.488.14a3.934,3.934,0,0,0,1.638-.322Z" transform="translate(550.559 1715)" fill="#07003b"/>
          <path id="Path_706" data-name="Path 706" d="M-4.525-9a.7.7,0,0,0-.5,1.2L-.5-3.277a.7.7,0,0,0,.995,0L5.017-7.8a.7.7,0,0,0-.5-1.2Z" transform="translate(748.56 1717)" fill="#07003b"/>
        </g>
        <path id="Path_703" data-name="Path 703" d="M5.7.168a4.957,4.957,0,0,0,4.4-2.464l-1.526-.9A3.157,3.157,0,0,1,5.712-1.5,3.186,3.186,0,0,1,2.478-4.9,3.186,3.186,0,0,1,5.712-8.3,3.121,3.121,0,0,1,8.554-6.608l1.526-.91a4.939,4.939,0,0,0-4.368-2.45A4.95,4.95,0,0,0,.644-4.886,4.9,4.9,0,0,0,5.7.168Zm9.716-7.5a3.431,3.431,0,0,0-2.184.77v-3.766H11.55V0h1.68V-4.942a2.3,2.3,0,0,1,1.764-.84c.938,0,1.526.616,1.526,1.848V0H18.2V-4.3A2.713,2.713,0,0,0,15.414-7.336ZM23.52.168a3.668,3.668,0,0,0,3.794-3.752A3.66,3.66,0,0,0,23.52-7.336a3.672,3.672,0,0,0-3.808,3.752A3.68,3.68,0,0,0,23.52.168Zm0-1.54a2.075,2.075,0,0,1-2.1-2.212,2.064,2.064,0,0,1,2.1-2.2,2.061,2.061,0,0,1,2.086,2.2A2.072,2.072,0,0,1,23.52-1.372ZM32.27.168a3.668,3.668,0,0,0,3.794-3.752A3.66,3.66,0,0,0,32.27-7.336a3.672,3.672,0,0,0-3.808,3.752A3.68,3.68,0,0,0,32.27.168Zm0-1.54a2.075,2.075,0,0,1-2.1-2.212,2.064,2.064,0,0,1,2.1-2.2,2.061,2.061,0,0,1,2.086,2.2A2.072,2.072,0,0,1,32.27-1.372ZM40.362.168c1.876,0,2.954-.924,2.954-2.324,0-1.022-.588-1.68-2.044-2.016l-1.246-.294c-.77-.182-.994-.378-.994-.7,0-.434.392-.728,1.148-.728a3.416,3.416,0,0,1,2.128.8l.91-1.19a4.4,4.4,0,0,0-2.968-1.05c-1.778,0-2.87.924-2.87,2.282,0,.994.588,1.624,2.03,1.96l1.246.294c.742.168.994.42.994.756,0,.448-.448.77-1.232.77a3.953,3.953,0,0,1-2.366-.868l-.868,1.26A5.036,5.036,0,0,0,40.362.168ZM51.814-3.794a3.354,3.354,0,0,0-3.556-3.542,3.684,3.684,0,0,0-3.836,3.808,3.577,3.577,0,0,0,3.85,3.7A3.966,3.966,0,0,0,51.59-1.4l-1.176-.9A2.6,2.6,0,0,1,48.3-1.274a2.019,2.019,0,0,1-2.2-1.89h5.67A4.608,4.608,0,0,0,51.814-3.794Zm-3.57-2.128a1.719,1.719,0,0,1,1.876,1.5H46.186A1.971,1.971,0,0,1,48.244-5.922ZM63.728-9.8H55.734v1.652h3.108V0H60.62V-8.148h3.108Zm5.18,2.464a3.431,3.431,0,0,0-2.184.77v-3.766h-1.68V0h1.68V-4.942a2.3,2.3,0,0,1,1.764-.84c.938,0,1.526.616,1.526,1.848V0h1.68V-4.3A2.713,2.713,0,0,0,68.908-7.336ZM80.6-3.794a3.354,3.354,0,0,0-3.556-3.542,3.684,3.684,0,0,0-3.836,3.808,3.577,3.577,0,0,0,3.85,3.7A3.966,3.966,0,0,0,80.374-1.4L79.2-2.3a2.6,2.6,0,0,1-2.114,1.022,2.019,2.019,0,0,1-2.2-1.89h5.67A4.608,4.608,0,0,0,80.6-3.794Zm-3.57-2.128a1.719,1.719,0,0,1,1.876,1.5H74.97A1.971,1.971,0,0,1,77.028-5.922ZM90.706-7.336a3.576,3.576,0,0,0-2.562,1.148A2.388,2.388,0,0,0,86-7.336a3.3,3.3,0,0,0-2.114.784v-.616h-1.68V0h1.68V-4.928a2.314,2.314,0,0,1,1.68-.854c.8,0,1.344.574,1.344,1.778V0h1.68V-4.368c0-.182-.014-.35-.028-.518a2.26,2.26,0,0,1,1.708-.9c.8,0,1.344.574,1.344,1.778V0H93.3V-4.368C93.3-6.258,92.232-7.336,90.706-7.336ZM102.2-3.794a3.354,3.354,0,0,0-3.556-3.542,3.684,3.684,0,0,0-3.836,3.808,3.577,3.577,0,0,0,3.85,3.7A3.966,3.966,0,0,0,101.976-1.4L100.8-2.3a2.6,2.6,0,0,1-2.114,1.022,2.019,2.019,0,0,1-2.2-1.89h5.67A4.608,4.608,0,0,0,102.2-3.794ZM98.63-5.922a1.719,1.719,0,0,1,1.876,1.5H96.572A1.971,1.971,0,0,1,98.63-5.922Z" transform="translate(359 1712)" fill="#07003b"/>
      </g>
      <g id="Disable" transform="translate(8 -34)">
        <g id="radio-4" data-name="radio" transform="translate(-18)">
          <g id="Rectangle_535-4" data-name="Rectangle 535" transform="translate(562 1690)" fill="#3c50e0" stroke="rgba(60,80,224,0.4)" stroke-width="2">
            <rect width="43" height="20" rx="10" stroke="none"/>
            <rect x="1" y="1" width="41" height="18" rx="9" fill="none"/>
          </g>
          <rect id="Rectangle_551" data-name="Rectangle 551" width="12" height="12" rx="6" transform="translate(589 1694)" fill="#ff5670"/>
        </g>
        <path id="Path_699" data-name="Path 699" d="M8.05-8.162V-9.8H1.176V0H8.05V-1.638H2.94V-4.27H7.392V-5.894H2.94V-8.162Zm5.7.826a3.431,3.431,0,0,0-2.184.77v-.6H9.884V0h1.68V-4.942a2.3,2.3,0,0,1,1.764-.84c.938,0,1.526.616,1.526,1.848V0h1.68V-4.3A2.713,2.713,0,0,0,13.748-7.336Zm9.926.168v.546a3.2,3.2,0,0,0-2.058-.714,3.6,3.6,0,0,0-3.57,3.752A3.6,3.6,0,0,0,21.616.168a3.2,3.2,0,0,0,2.058-.714V0h1.68V-7.168Zm-1.806,5.8a2.078,2.078,0,0,1-2.114-2.212,2.067,2.067,0,0,1,2.114-2.2,2.315,2.315,0,0,1,1.806.826v2.744A2.329,2.329,0,0,1,21.868-1.372Zm9.268-5.964a3.2,3.2,0,0,0-2.058.714v-3.71H27.4V0h1.68V-.546a3.2,3.2,0,0,0,2.058.714,3.6,3.6,0,0,0,3.57-3.752A3.6,3.6,0,0,0,31.136-7.336Zm-.252,5.964a2.329,2.329,0,0,1-1.806-.84V-4.956a2.315,2.315,0,0,1,1.806-.826A2.067,2.067,0,0,1,33-3.584,2.078,2.078,0,0,1,30.884-1.372ZM36.288,0h1.68V-10.332h-1.68ZM46.942-3.794a3.354,3.354,0,0,0-3.556-3.542A3.684,3.684,0,0,0,39.55-3.528,3.577,3.577,0,0,0,43.4.168,3.966,3.966,0,0,0,46.718-1.4l-1.176-.9a2.6,2.6,0,0,1-2.114,1.022,2.019,2.019,0,0,1-2.2-1.89H46.9A4.608,4.608,0,0,0,46.942-3.794Zm-3.57-2.128a1.719,1.719,0,0,1,1.876,1.5H41.314A1.971,1.971,0,0,1,43.372-5.922ZM55.65-7.336a2.51,2.51,0,0,0-1.988.938v-.77h-1.68V0h1.68V-4.662a2.238,2.238,0,0,1,1.974-1.092,3.907,3.907,0,0,1,.658.07l.1-1.554A2.927,2.927,0,0,0,55.65-7.336Zm8.778,3.542a3.354,3.354,0,0,0-3.556-3.542,3.684,3.684,0,0,0-3.836,3.808,3.577,3.577,0,0,0,3.85,3.7A3.966,3.966,0,0,0,64.2-1.4l-1.176-.9a2.6,2.6,0,0,1-2.114,1.022,2.019,2.019,0,0,1-2.2-1.89h5.67A4.608,4.608,0,0,0,64.428-3.794Zm-3.57-2.128a1.719,1.719,0,0,1,1.876,1.5H58.8A1.971,1.971,0,0,1,60.858-5.922Zm9.87,6.09a4.957,4.957,0,0,0,4.4-2.464l-1.526-.9A3.157,3.157,0,0,1,70.742-1.5a3.186,3.186,0,0,1-3.234-3.4,3.186,3.186,0,0,1,3.234-3.4,3.121,3.121,0,0,1,2.842,1.694l1.526-.91a4.939,4.939,0,0,0-4.368-2.45,4.95,4.95,0,0,0-5.068,5.082A4.9,4.9,0,0,0,70.728.168ZM81.872-7.168v.546a3.2,3.2,0,0,0-2.058-.714,3.6,3.6,0,0,0-3.57,3.752A3.6,3.6,0,0,0,79.814.168a3.2,3.2,0,0,0,2.058-.714V0h1.68V-7.168Zm-1.806,5.8a2.078,2.078,0,0,1-2.114-2.212,2.067,2.067,0,0,1,2.114-2.2,2.315,2.315,0,0,1,1.806.826v2.744A2.329,2.329,0,0,1,80.066-1.372Zm9.268-5.964a3.116,3.116,0,0,0-2.072.728v-.56h-1.68V3.052h1.68V-.56a3.116,3.116,0,0,0,2.072.728A3.6,3.6,0,0,0,92.89-3.584,3.6,3.6,0,0,0,89.334-7.336Zm-.252,5.964a2.336,2.336,0,0,1-1.82-.84V-4.956a2.323,2.323,0,0,1,1.82-.826,2.056,2.056,0,0,1,2.1,2.2A2.068,2.068,0,0,1,89.082-1.372ZM99.05-1.6a3.76,3.76,0,0,1-1.092.2c-.826,0-1.218-.434-1.218-1.442V-5.7h2.282v-1.47H96.74V-8.876H95.06v1.708H93.59V-5.7h1.47v3.052c0,1.918.882,2.786,2.59,2.786a3.934,3.934,0,0,0,1.638-.322Zm4.8,1.764a3.806,3.806,0,0,0,3.248-1.68l-1.246-.938a2.446,2.446,0,0,1-1.974,1.078,2.08,2.08,0,0,1-2.086-2.212,2.066,2.066,0,0,1,2.072-2.2A2.206,2.206,0,0,1,105.7-4.76L107.016-5.8a3.785,3.785,0,0,0-3.136-1.54,3.706,3.706,0,0,0-3.808,3.794A3.623,3.623,0,0,0,103.852.168Zm8.414-7.5a3.431,3.431,0,0,0-2.184.77v-3.766H108.4V0h1.68V-4.942a2.3,2.3,0,0,1,1.764-.84c.938,0,1.526.616,1.526,1.848V0h1.68V-4.3A2.713,2.713,0,0,0,112.266-7.336Zm9.926.168v.546a3.2,3.2,0,0,0-2.058-.714,3.6,3.6,0,0,0-3.57,3.752,3.6,3.6,0,0,0,3.57,3.752,3.2,3.2,0,0,0,2.058-.714V0h1.68V-7.168Zm-1.806,5.8a2.078,2.078,0,0,1-2.114-2.212,2.067,2.067,0,0,1,2.114-2.2,2.315,2.315,0,0,1,1.806.826v2.744A2.329,2.329,0,0,1,120.386-1.372Z" transform="translate(351 1704)" fill="#07003b"/>
      </g>
    </g>
    <g id="big_captcha" data-name="big captcha" transform="translate(404.352 1561.946)">
      <g transform="matrix(1, 0, 0, 1, -348.35, -40.95)" filter="url(#Rectangle_473)">
        <rect id="Rectangle_473-2" data-name="Rectangle 473" width="143" height="145" rx="5" transform="translate(336 25)" fill="#fff"/>
      </g>
      <g id="Group_102" data-name="Group 102" transform="translate(11.648 9.039)">
        <path id="XMLID_242_2" data-name="XMLID_242_" d="M96.316,48.358a14.3,14.3,0,0,0-.1-2.034V7.879L85.567,18.531A47.455,47.455,0,0,0,11,19.887L28.431,37.512A23.271,23.271,0,0,1,35.5,29.571a20.651,20.651,0,0,1,13.267-4.358,3.859,3.859,0,0,1,1.646.291A22.648,22.648,0,0,1,68.136,35.962l-12.3,12.3c15.591,0,33.216-.1,40.479.1" transform="translate(-1.316 -1.003)" fill="#3c50e0"/>
        <path id="XMLID_241_2" data-name="XMLID_241_" d="M48.355,1a14.3,14.3,0,0,0-2.034.1H7.876L18.528,11.749a47.275,47.275,0,0,0,1.259,74.47L37.412,68.788a23.271,23.271,0,0,1-7.941-7.069,20.651,20.651,0,0,1-4.358-13.267,3.859,3.859,0,0,1,.291-1.646A22.984,22.984,0,0,1,35.959,29.181l12.3,12.3c0-15.591-.1-33.216.1-40.479" transform="translate(-1 -1)" fill="#29c3ff"/>
        <path id="XMLID_240_2" data-name="XMLID_240_" d="M1,50a14.3,14.3,0,0,0,.1,2.034V90.479L11.749,79.827a47.455,47.455,0,0,0,74.567-1.356L68.788,60.943a23.271,23.271,0,0,1-7.069,7.941,20.651,20.651,0,0,1-13.267,4.358,3.859,3.859,0,0,1-1.646-.291A22.966,22.966,0,0,1,29.277,62.4L41.576,50C25.888,50.1,8.263,50.1,1,50" transform="translate(-1 -2.548)" fill="#8495c2"/>
      </g>
    </g>
  </g>
</svg>
