<svg xmlns="http://www.w3.org/2000/svg" xmlns:xlink="http://www.w3.org/1999/xlink" width="652" height="526" viewBox="0 0 652 526">
  <defs>
    <filter id="Rectangle_436" x="306" y="0" width="346" height="526" filterUnits="userSpaceOnUse">
      <feOffset dy="5" input="SourceAlpha"/>
      <feGaussianBlur stdDeviation="10" result="blur"/>
      <feFlood flood-color="#3c50e0" flood-opacity="0.149"/>
      <feComposite operator="in" in2="blur"/>
      <feComposite in="SourceGraphic"/>
    </filter>
    <filter id="Rectangle_436-2" x="0" y="209" width="346" height="278" filterUnits="userSpaceOnUse">
      <feOffset dy="5" input="SourceAlpha"/>
      <feGaussianBlur stdDeviation="10" result="blur-2"/>
      <feFlood flood-color="#3c50e0" flood-opacity="0.149"/>
      <feComposite operator="in" in2="blur-2"/>
      <feComposite in="SourceGraphic"/>
    </filter>
    <filter id="Rectangle_436-3" x="0" y="39" width="346" height="200" filterUnits="userSpaceOnUse">
      <feOffset dy="5" input="SourceAlpha"/>
      <feGaussianBlur stdDeviation="10" result="blur-3"/>
      <feFlood flood-color="#3c50e0" flood-opacity="0.149"/>
      <feComposite operator="in" in2="blur-3"/>
      <feComposite in="SourceGraphic"/>
    </filter>
  </defs>
  <g id="feature-08" transform="translate(-56 -1521)">
    <g id="logo_size" data-name="logo size" transform="translate(58 104)">
      <g transform="matrix(1, 0, 0, 1, -2, 1417)" filter="url(#Rectangle_436)">
        <rect id="Rectangle_436-4" data-name="Rectangle 436" width="286" height="466" rx="10" transform="translate(336 25)" fill="#fff"/>
      </g>
      <rect id="Rectangle_554" data-name="Rectangle 554" width="100" height="100" rx="20" transform="translate(427 1472)" fill="#fdb400"/>
      <rect id="Rectangle_555" data-name="Rectangle 555" width="236" height="52" rx="5" transform="translate(359 1672)" fill="#3a4fe0" opacity="0.1"/>
      <rect id="Rectangle_558" data-name="Rectangle 558" width="236" height="52" rx="5" transform="translate(359 1595)" fill="#3a4fe0"/>
      <rect id="Rectangle_556" data-name="Rectangle 556" width="236" height="52" rx="5" transform="translate(359 1749)" fill="#3a4fe0" opacity="0.1"/>
      <rect id="Rectangle_557" data-name="Rectangle 557" width="146" height="52" rx="5" transform="translate(404 1826)" fill="#ff5670"/>
      <path id="Path_677" data-name="Path 677" d="M-59.952-11.2l-2.7,8.672L-65.568-11.2H-67.12l-2.928,8.7-2.688-8.7h-1.728L-70.976,0h1.7l2.944-8.832L-63.408,0h1.68l3.5-11.2Zm10.7,6.848a3.792,3.792,0,0,0-4-3.984,4.172,4.172,0,0,0-4.336,4.32A4.058,4.058,0,0,0-53.248.192,4.4,4.4,0,0,0-49.5-1.648l-1.136-.864A3.065,3.065,0,0,1-53.216-1.2a2.559,2.559,0,0,1-2.752-2.5H-49.3A4.067,4.067,0,0,0-49.248-4.352Zm-4-2.624a2.212,2.212,0,0,1,2.384,1.984h-5.008A2.512,2.512,0,0,1-53.248-6.976ZM-47.28,0h1.6V-11.808h-1.6Zm7.808.192A4.24,4.24,0,0,0-35.84-1.7l-1.2-.88a2.969,2.969,0,0,1-2.416,1.312A2.658,2.658,0,0,1-42.1-4.08a2.641,2.641,0,0,1,2.624-2.8A2.783,2.783,0,0,1-37.2-5.632l1.264-.976a4.243,4.243,0,0,0-3.52-1.728,4.213,4.213,0,0,0-4.288,4.3A4.115,4.115,0,0,0-39.472.192Zm9.088,0A4.167,4.167,0,0,0-26.1-4.08a4.164,4.164,0,0,0-4.288-4.256,4.167,4.167,0,0,0-4.3,4.256A4.171,4.171,0,0,0-30.384.192Zm0-1.456A2.654,2.654,0,0,1-33.056-4.08a2.65,2.65,0,0,1,2.672-2.8,2.637,2.637,0,0,1,2.656,2.8A2.642,2.642,0,0,1-30.384-1.264Zm15.84-7.072A4.01,4.01,0,0,0-17.536-6.96a2.746,2.746,0,0,0-2.5-1.376,3.822,3.822,0,0,0-2.512.96v-.768h-1.6V0h1.6V-5.776A2.835,2.835,0,0,1-20.4-6.88c1.024,0,1.728.752,1.728,2.256V0h1.6V-4.96a5.573,5.573,0,0,0-.048-.752A2.883,2.883,0,0,1-14.928-6.88c1.024,0,1.728.752,1.728,2.256V0h1.6V-4.96C-11.6-7.12-12.816-8.336-14.544-8.336ZM-1.392-4.352a3.792,3.792,0,0,0-4-3.984,4.172,4.172,0,0,0-4.336,4.32A4.058,4.058,0,0,0-5.392.192a4.4,4.4,0,0,0,3.744-1.84l-1.136-.864A3.065,3.065,0,0,1-5.36-1.2,2.559,2.559,0,0,1-8.112-3.7H-1.44A4.068,4.068,0,0,0-1.392-4.352Zm-4-2.624A2.212,2.212,0,0,1-3.008-4.992H-8.016A2.512,2.512,0,0,1-5.392-6.976Zm20.7-4.224-4.24,8.736L6.816-11.2h-2V0H6.48V-8.416l3.936,8.1h1.312l3.936-8.1V0h1.664V-11.2ZM27.824-4.352a3.792,3.792,0,0,0-4-3.984,4.172,4.172,0,0,0-4.336,4.32A4.058,4.058,0,0,0,23.824.192a4.4,4.4,0,0,0,3.744-1.84l-1.136-.864A3.065,3.065,0,0,1,23.856-1.2,2.559,2.559,0,0,1,21.1-3.7h6.672A4.068,4.068,0,0,0,27.824-4.352Zm-4-2.624a2.212,2.212,0,0,1,2.384,1.984H21.2A2.512,2.512,0,0,1,23.824-6.976ZM32.832.192c2.048,0,3.232-1.04,3.232-2.576,0-1.152-.64-1.9-2.3-2.272l-1.408-.32c-1.04-.24-1.328-.528-1.328-.96,0-.592.528-1.008,1.52-1.008a3.573,3.573,0,0,1,2.448.976l.976-1.12A4.646,4.646,0,0,0,32.64-8.336c-1.952,0-3.184,1.024-3.184,2.512,0,1.12.688,1.84,2.32,2.208L33.2-3.3c.976.224,1.3.576,1.3,1.024,0,.608-.608,1.056-1.616,1.056a4.2,4.2,0,0,1-2.72-1.056l-.928,1.2A5.374,5.374,0,0,0,32.832.192Zm8.112,0c2.048,0,3.232-1.04,3.232-2.576,0-1.152-.64-1.9-2.3-2.272l-1.408-.32c-1.04-.24-1.328-.528-1.328-.96,0-.592.528-1.008,1.52-1.008a3.573,3.573,0,0,1,2.448.976l.976-1.12a4.646,4.646,0,0,0-3.328-1.248c-1.952,0-3.184,1.024-3.184,2.512,0,1.12.688,1.84,2.32,2.208l1.424.32c.976.224,1.3.576,1.3,1.024,0,.608-.608,1.056-1.616,1.056a4.2,4.2,0,0,1-2.72-1.056l-.928,1.2A5.374,5.374,0,0,0,40.944.192Zm11.2-8.336v.688a3.764,3.764,0,0,0-2.5-.88,4.121,4.121,0,0,0-4.1,4.256,4.126,4.126,0,0,0,4.1,4.272,3.694,3.694,0,0,0,2.5-.9V0h1.6V-8.144Zm-2.288,6.88A2.645,2.645,0,0,1,47.184-4.08a2.641,2.641,0,0,1,2.672-2.8,2.943,2.943,0,0,1,2.288,1.072v3.472A2.943,2.943,0,0,1,49.856-1.264Zm12.416-6.88v.7a3.682,3.682,0,0,0-2.48-.9A4.1,4.1,0,0,0,55.68-4.16a4.092,4.092,0,0,0,4.1,4.176,3.694,3.694,0,0,0,2.5-.9v.736A2.237,2.237,0,0,1,59.76,2.224a4.322,4.322,0,0,1-2.9-1.216l-.976,1.168a5.4,5.4,0,0,0,3.888,1.5c2.528,0,4.1-1.44,4.1-3.824v-8Zm-2.3,6.7a2.616,2.616,0,0,1-2.656-2.72,2.616,2.616,0,0,1,2.656-2.72,2.971,2.971,0,0,1,2.3,1.072v3.3A3.023,3.023,0,0,1,59.968-1.44ZM74.144-4.352a3.792,3.792,0,0,0-4-3.984,4.172,4.172,0,0,0-4.336,4.32A4.058,4.058,0,0,0,70.144.192a4.4,4.4,0,0,0,3.744-1.84l-1.136-.864A3.065,3.065,0,0,1,70.176-1.2a2.559,2.559,0,0,1-2.752-2.5H74.1A4.068,4.068,0,0,0,74.144-4.352Zm-4-2.624a2.212,2.212,0,0,1,2.384,1.984H67.52A2.512,2.512,0,0,1,70.144-6.976Z" transform="translate(478 1626)" fill="#fff"/>
      <path id="Path_679" data-name="Path 679" d="M5.641-10.538a3.739,3.739,0,0,0-5.1.372L0-9.611l-.539-.555a3.739,3.739,0,0,0-5.1-.372,3.926,3.926,0,0,0-.271,5.685L-.621.61A.857.857,0,0,0,.618.61L5.909-4.854A3.924,3.924,0,0,0,5.641-10.538Z" transform="translate(386 1625)" fill="#fff"/>
      <path id="Path_678" data-name="Path 678" d="M5.641-10.538a3.739,3.739,0,0,0-5.1.372L0-9.611l-.539-.555a3.739,3.739,0,0,0-5.1-.372,3.926,3.926,0,0,0-.271,5.685L-.621.61A.857.857,0,0,0,.618.61L5.909-4.854A3.924,3.924,0,0,0,5.641-10.538Z" transform="translate(570 1625)" fill="#fff"/>
    </g>
    <g id="setting_1" data-name="setting 1" transform="translate(-248 126)">
      <g transform="matrix(1, 0, 0, 1, 304, 1395)" filter="url(#Rectangle_436-2)">
        <rect id="Rectangle_436-5" data-name="Rectangle 436" width="286" height="218" rx="10" transform="translate(30 234)" fill="#fff"/>
      </g>
      <g id="Height" transform="translate(0 -42)">
        <g id="radio" transform="translate(-174.558 40)">
          <g id="Rectangle_535" data-name="Rectangle 535" transform="translate(533.558 1690)" fill="rgba(60,80,224,0.03)" stroke="rgba(60,80,224,0.4)" stroke-width="2">
            <rect width="236" height="40" rx="5" stroke="none"/>
            <rect x="1" y="1" width="234" height="38" rx="4" fill="none"/>
          </g>
          <path id="Path_675" data-name="Path 675" d="M12.726-9.8,10.6-2.758,8.246-9.8H6.636L4.284-2.758,2.156-9.8H.322L3.29,0H5.054L7.448-7.252,9.828,0h1.764l2.982-9.8Zm9.7,6.006a3.354,3.354,0,0,0-3.556-3.542,3.684,3.684,0,0,0-3.836,3.808,3.577,3.577,0,0,0,3.85,3.7A3.966,3.966,0,0,0,22.2-1.4l-1.176-.9a2.6,2.6,0,0,1-2.114,1.022,2.019,2.019,0,0,1-2.2-1.89h5.67A4.608,4.608,0,0,0,22.428-3.794Zm-3.57-2.128a1.719,1.719,0,0,1,1.876,1.5H16.8A1.971,1.971,0,0,1,18.858-5.922ZM24.038,0h1.68V-10.332h-1.68ZM31.08.168a3.806,3.806,0,0,0,3.248-1.68L33.082-2.45a2.446,2.446,0,0,1-1.974,1.078,2.08,2.08,0,0,1-2.086-2.212,2.066,2.066,0,0,1,2.072-2.2A2.206,2.206,0,0,1,32.928-4.76L34.244-5.8a3.785,3.785,0,0,0-3.136-1.54A3.706,3.706,0,0,0,27.3-3.542,3.623,3.623,0,0,0,31.08.168Zm7.952,0a3.668,3.668,0,0,0,3.794-3.752,3.66,3.66,0,0,0-3.794-3.752,3.672,3.672,0,0,0-3.808,3.752A3.68,3.68,0,0,0,39.032.168Zm0-1.54a2.075,2.075,0,0,1-2.1-2.212,2.064,2.064,0,0,1,2.1-2.2,2.061,2.061,0,0,1,2.086,2.2A2.072,2.072,0,0,1,39.032-1.372ZM52.906-7.336a3.576,3.576,0,0,0-2.562,1.148A2.388,2.388,0,0,0,48.2-7.336a3.3,3.3,0,0,0-2.114.784v-.616h-1.68V0h1.68V-4.928a2.314,2.314,0,0,1,1.68-.854c.8,0,1.344.574,1.344,1.778V0h1.68V-4.368c0-.182-.014-.35-.028-.518a2.26,2.26,0,0,1,1.708-.9c.8,0,1.344.574,1.344,1.778V0H55.5V-4.368C55.5-6.258,54.432-7.336,52.906-7.336ZM64.4-3.794a3.354,3.354,0,0,0-3.556-3.542,3.684,3.684,0,0,0-3.836,3.808,3.577,3.577,0,0,0,3.85,3.7A3.966,3.966,0,0,0,64.176-1.4L63-2.3a2.6,2.6,0,0,1-2.114,1.022,2.019,2.019,0,0,1-2.2-1.89h5.67A4.608,4.608,0,0,0,64.4-3.794ZM60.83-5.922a1.719,1.719,0,0,1,1.876,1.5H58.772A1.971,1.971,0,0,1,60.83-5.922ZM78.582-9.8,75.194-2.548,71.792-9.8H69.608V0h1.736V-6.972L74.48-.28h1.414l3.122-6.664V0h1.75V-9.8ZM89.908-3.794a3.354,3.354,0,0,0-3.556-3.542,3.684,3.684,0,0,0-3.836,3.808,3.577,3.577,0,0,0,3.85,3.7A3.966,3.966,0,0,0,89.684-1.4l-1.176-.9a2.6,2.6,0,0,1-2.114,1.022,2.019,2.019,0,0,1-2.2-1.89h5.67A4.608,4.608,0,0,0,89.908-3.794Zm-3.57-2.128a1.719,1.719,0,0,1,1.876,1.5H84.28A1.971,1.971,0,0,1,86.338-5.922Zm7.9,6.09c1.876,0,2.954-.924,2.954-2.324,0-1.022-.588-1.68-2.044-2.016L93.9-4.466c-.77-.182-.994-.378-.994-.7,0-.434.392-.728,1.148-.728a3.416,3.416,0,0,1,2.128.8l.91-1.19a4.4,4.4,0,0,0-2.968-1.05c-1.778,0-2.87.924-2.87,2.282,0,.994.588,1.624,2.03,1.96l1.246.294c.742.168.994.42.994.756,0,.448-.448.77-1.232.77a3.953,3.953,0,0,1-2.366-.868l-.868,1.26A5.036,5.036,0,0,0,94.234.168Zm7.14,0c1.876,0,2.954-.924,2.954-2.324,0-1.022-.588-1.68-2.044-2.016l-1.246-.294c-.77-.182-.994-.378-.994-.7,0-.434.392-.728,1.148-.728a3.416,3.416,0,0,1,2.128.8l.91-1.19a4.4,4.4,0,0,0-2.968-1.05c-1.778,0-2.87.924-2.87,2.282,0,.994.588,1.624,2.03,1.96l1.246.294c.742.168.994.42.994.756,0,.448-.448.77-1.232.77a3.953,3.953,0,0,1-2.366-.868L98.2-.882A5.036,5.036,0,0,0,101.374.168Zm9.688-7.336v.546A3.2,3.2,0,0,0,109-7.336a3.6,3.6,0,0,0-3.57,3.752A3.6,3.6,0,0,0,109,.168a3.2,3.2,0,0,0,2.058-.714V0h1.68V-7.168Zm-1.806,5.8a2.078,2.078,0,0,1-2.114-2.212,2.067,2.067,0,0,1,2.114-2.2,2.315,2.315,0,0,1,1.806.826v2.744A2.329,2.329,0,0,1,109.256-1.372Zm10.71-5.8v.56a3.143,3.143,0,0,0-2.072-.728,3.566,3.566,0,0,0-3.556,3.654A3.538,3.538,0,0,0,117.894-.07a3.132,3.132,0,0,0,2.072-.714v.6a1.793,1.793,0,0,1-2.03,1.862,3.74,3.74,0,0,1-2.45-1.022L114.478,1.89a4.938,4.938,0,0,0,3.486,1.33c2.268,0,3.682-1.274,3.682-3.4V-7.168Zm-1.834,5.586a2.026,2.026,0,0,1-2.086-2.1A2.03,2.03,0,0,1,118.132-5.8a2.406,2.406,0,0,1,1.834.84v2.534A2.406,2.406,0,0,1,118.132-1.582ZM130.62-3.794a3.354,3.354,0,0,0-3.556-3.542,3.684,3.684,0,0,0-3.836,3.808,3.577,3.577,0,0,0,3.85,3.7A3.966,3.966,0,0,0,130.4-1.4l-1.176-.9a2.6,2.6,0,0,1-2.114,1.022,2.019,2.019,0,0,1-2.2-1.89h5.67A4.608,4.608,0,0,0,130.62-3.794Zm-3.57-2.128a1.719,1.719,0,0,1,1.876,1.5h-3.934A1.971,1.971,0,0,1,127.05-5.922Z" transform="translate(550.559 1715)" fill="#07003b" opacity="0.3"/>
        </g>
        <path id="Path_673" data-name="Path 673" d="M12.726-9.8,10.6-2.758,8.246-9.8H6.636L4.284-2.758,2.156-9.8H.322L3.29,0H5.054L7.448-7.252,9.828,0h1.764l2.982-9.8Zm9.7,6.006a3.354,3.354,0,0,0-3.556-3.542,3.684,3.684,0,0,0-3.836,3.808,3.577,3.577,0,0,0,3.85,3.7A3.966,3.966,0,0,0,22.2-1.4l-1.176-.9a2.6,2.6,0,0,1-2.114,1.022,2.019,2.019,0,0,1-2.2-1.89h5.67A4.608,4.608,0,0,0,22.428-3.794Zm-3.57-2.128a1.719,1.719,0,0,1,1.876,1.5H16.8A1.971,1.971,0,0,1,18.858-5.922ZM24.038,0h1.68V-10.332h-1.68ZM31.08.168a3.806,3.806,0,0,0,3.248-1.68L33.082-2.45a2.446,2.446,0,0,1-1.974,1.078,2.08,2.08,0,0,1-2.086-2.212,2.066,2.066,0,0,1,2.072-2.2A2.206,2.206,0,0,1,32.928-4.76L34.244-5.8a3.785,3.785,0,0,0-3.136-1.54A3.706,3.706,0,0,0,27.3-3.542,3.623,3.623,0,0,0,31.08.168Zm7.952,0a3.668,3.668,0,0,0,3.794-3.752,3.66,3.66,0,0,0-3.794-3.752,3.672,3.672,0,0,0-3.808,3.752A3.68,3.68,0,0,0,39.032.168Zm0-1.54a2.075,2.075,0,0,1-2.1-2.212,2.064,2.064,0,0,1,2.1-2.2,2.061,2.061,0,0,1,2.086,2.2A2.072,2.072,0,0,1,39.032-1.372ZM52.906-7.336a3.576,3.576,0,0,0-2.562,1.148A2.388,2.388,0,0,0,48.2-7.336a3.3,3.3,0,0,0-2.114.784v-.616h-1.68V0h1.68V-4.928a2.314,2.314,0,0,1,1.68-.854c.8,0,1.344.574,1.344,1.778V0h1.68V-4.368c0-.182-.014-.35-.028-.518a2.26,2.26,0,0,1,1.708-.9c.8,0,1.344.574,1.344,1.778V0H55.5V-4.368C55.5-6.258,54.432-7.336,52.906-7.336ZM64.4-3.794a3.354,3.354,0,0,0-3.556-3.542,3.684,3.684,0,0,0-3.836,3.808,3.577,3.577,0,0,0,3.85,3.7A3.966,3.966,0,0,0,64.176-1.4L63-2.3a2.6,2.6,0,0,1-2.114,1.022,2.019,2.019,0,0,1-2.2-1.89h5.67A4.608,4.608,0,0,0,64.4-3.794ZM60.83-5.922a1.719,1.719,0,0,1,1.876,1.5H58.772A1.971,1.971,0,0,1,60.83-5.922ZM78.582-9.8,75.194-2.548,71.792-9.8H69.608V0h1.736V-6.972L74.48-.28h1.414l3.122-6.664V0h1.75V-9.8ZM89.908-3.794a3.354,3.354,0,0,0-3.556-3.542,3.684,3.684,0,0,0-3.836,3.808,3.577,3.577,0,0,0,3.85,3.7A3.966,3.966,0,0,0,89.684-1.4l-1.176-.9a2.6,2.6,0,0,1-2.114,1.022,2.019,2.019,0,0,1-2.2-1.89h5.67A4.608,4.608,0,0,0,89.908-3.794Zm-3.57-2.128a1.719,1.719,0,0,1,1.876,1.5H84.28A1.971,1.971,0,0,1,86.338-5.922Zm7.9,6.09c1.876,0,2.954-.924,2.954-2.324,0-1.022-.588-1.68-2.044-2.016L93.9-4.466c-.77-.182-.994-.378-.994-.7,0-.434.392-.728,1.148-.728a3.416,3.416,0,0,1,2.128.8l.91-1.19a4.4,4.4,0,0,0-2.968-1.05c-1.778,0-2.87.924-2.87,2.282,0,.994.588,1.624,2.03,1.96l1.246.294c.742.168.994.42.994.756,0,.448-.448.77-1.232.77a3.953,3.953,0,0,1-2.366-.868l-.868,1.26A5.036,5.036,0,0,0,94.234.168Zm7.14,0c1.876,0,2.954-.924,2.954-2.324,0-1.022-.588-1.68-2.044-2.016l-1.246-.294c-.77-.182-.994-.378-.994-.7,0-.434.392-.728,1.148-.728a3.416,3.416,0,0,1,2.128.8l.91-1.19a4.4,4.4,0,0,0-2.968-1.05c-1.778,0-2.87.924-2.87,2.282,0,.994.588,1.624,2.03,1.96l1.246.294c.742.168.994.42.994.756,0,.448-.448.77-1.232.77a3.953,3.953,0,0,1-2.366-.868L98.2-.882A5.036,5.036,0,0,0,101.374.168Zm9.688-7.336v.546A3.2,3.2,0,0,0,109-7.336a3.6,3.6,0,0,0-3.57,3.752A3.6,3.6,0,0,0,109,.168a3.2,3.2,0,0,0,2.058-.714V0h1.68V-7.168Zm-1.806,5.8a2.078,2.078,0,0,1-2.114-2.212,2.067,2.067,0,0,1,2.114-2.2,2.315,2.315,0,0,1,1.806.826v2.744A2.329,2.329,0,0,1,109.256-1.372Zm10.71-5.8v.56a3.143,3.143,0,0,0-2.072-.728,3.566,3.566,0,0,0-3.556,3.654A3.538,3.538,0,0,0,117.894-.07a3.132,3.132,0,0,0,2.072-.714v.6a1.793,1.793,0,0,1-2.03,1.862,3.74,3.74,0,0,1-2.45-1.022L114.478,1.89a4.938,4.938,0,0,0,3.486,1.33c2.268,0,3.682-1.274,3.682-3.4V-7.168Zm-1.834,5.586a2.026,2.026,0,0,1-2.086-2.1A2.03,2.03,0,0,1,118.132-5.8a2.406,2.406,0,0,1,1.834.84v2.534A2.406,2.406,0,0,1,118.132-1.582ZM130.62-3.794a3.354,3.354,0,0,0-3.556-3.542,3.684,3.684,0,0,0-3.836,3.808,3.577,3.577,0,0,0,3.85,3.7A3.966,3.966,0,0,0,130.4-1.4l-1.176-.9a2.6,2.6,0,0,1-2.114,1.022,2.019,2.019,0,0,1-2.2-1.89h5.67A4.608,4.608,0,0,0,130.62-3.794Zm-3.57-2.128a1.719,1.719,0,0,1,1.876,1.5h-3.934A1.971,1.971,0,0,1,127.05-5.922Zm10.542,4.27V-9.8h-1.764V0H142.3V-1.652Zm9.59,1.82a3.668,3.668,0,0,0,3.794-3.752,3.66,3.66,0,0,0-3.794-3.752,3.672,3.672,0,0,0-3.808,3.752A3.68,3.68,0,0,0,147.182.168Zm0-1.54a2.075,2.075,0,0,1-2.1-2.212,2.064,2.064,0,0,1,2.1-2.2,2.061,2.061,0,0,1,2.086,2.2A2.072,2.072,0,0,1,147.182-1.372Zm8.092,1.54c1.876,0,2.954-.924,2.954-2.324,0-1.022-.588-1.68-2.044-2.016l-1.246-.294c-.77-.182-.994-.378-.994-.7,0-.434.392-.728,1.148-.728a3.416,3.416,0,0,1,2.128.8l.91-1.19a4.4,4.4,0,0,0-2.968-1.05c-1.778,0-2.87.924-2.87,2.282,0,.994.588,1.624,2.03,1.96l1.246.294c.742.168.994.42.994.756,0,.448-.448.77-1.232.77a3.953,3.953,0,0,1-2.366-.868L152.1-.882A5.036,5.036,0,0,0,155.274.168Zm9.17-1.764a3.76,3.76,0,0,1-1.092.2c-.826,0-1.218-.434-1.218-1.442V-5.7h2.282v-1.47h-2.282V-8.876h-1.68v1.708h-1.47V-5.7h1.47v3.052c0,1.918.882,2.786,2.59,2.786a3.934,3.934,0,0,0,1.638-.322Zm9.086-8.2h-3.906V0h1.764V-3.542h2.142c2.184,0,3.514-1.176,3.514-3.136S175.714-9.8,173.53-9.8Zm-.14,4.606h-2V-8.148h2c1.26,0,1.848.518,1.848,1.47S174.65-5.194,173.39-5.194Zm10.374-1.974v.546a3.2,3.2,0,0,0-2.058-.714,3.6,3.6,0,0,0-3.57,3.752,3.6,3.6,0,0,0,3.57,3.752,3.2,3.2,0,0,0,2.058-.714V0h1.68V-7.168Zm-1.806,5.8a2.078,2.078,0,0,1-2.114-2.212,2.067,2.067,0,0,1,2.114-2.2,2.315,2.315,0,0,1,1.806.826v2.744A2.329,2.329,0,0,1,181.958-1.372Zm8.2,1.54c1.876,0,2.954-.924,2.954-2.324,0-1.022-.588-1.68-2.044-2.016l-1.246-.294c-.77-.182-.994-.378-.994-.7,0-.434.392-.728,1.148-.728a3.416,3.416,0,0,1,2.128.8l.91-1.19a4.4,4.4,0,0,0-2.968-1.05c-1.778,0-2.87.924-2.87,2.282,0,.994.588,1.624,2.03,1.96l1.246.294c.742.168.994.42.994.756,0,.448-.448.77-1.232.77a3.953,3.953,0,0,1-2.366-.868l-.868,1.26A5.036,5.036,0,0,0,190.162.168Zm7.14,0c1.876,0,2.954-.924,2.954-2.324,0-1.022-.588-1.68-2.044-2.016l-1.246-.294c-.77-.182-.994-.378-.994-.7,0-.434.392-.728,1.148-.728a3.416,3.416,0,0,1,2.128.8l.91-1.19a4.4,4.4,0,0,0-2.968-1.05c-1.778,0-2.87.924-2.87,2.282,0,.994.588,1.624,2.03,1.96L197.6-2.8c.742.168.994.42.994.756,0,.448-.448.77-1.232.77a3.953,3.953,0,0,1-2.366-.868l-.868,1.26A5.036,5.036,0,0,0,197.3.168Z" transform="translate(359 1712)" fill="#07003b"/>
      </g>
      <g id="Height-2" data-name="Height" transform="translate(0 47)">
        <g id="radio-2" data-name="radio" transform="translate(-174.558 40)">
          <g id="Rectangle_535-2" data-name="Rectangle 535" transform="translate(533.558 1690)" fill="rgba(60,80,224,0.03)" stroke="rgba(60,80,224,0.4)" stroke-width="2">
            <rect width="236" height="40" rx="5" stroke="none"/>
            <rect x="1" y="1" width="234" height="38" rx="4" fill="none"/>
          </g>
          <path id="Path_676" data-name="Path 676" d="M12.726-9.8,10.6-2.758,8.246-9.8H6.636L4.284-2.758,2.156-9.8H.322L3.29,0H5.054L7.448-7.252,9.828,0h1.764l2.982-9.8Zm9.7,6.006a3.354,3.354,0,0,0-3.556-3.542,3.684,3.684,0,0,0-3.836,3.808,3.577,3.577,0,0,0,3.85,3.7A3.966,3.966,0,0,0,22.2-1.4l-1.176-.9a2.6,2.6,0,0,1-2.114,1.022,2.019,2.019,0,0,1-2.2-1.89h5.67A4.608,4.608,0,0,0,22.428-3.794Zm-3.57-2.128a1.719,1.719,0,0,1,1.876,1.5H16.8A1.971,1.971,0,0,1,18.858-5.922ZM24.038,0h1.68V-10.332h-1.68ZM31.08.168a3.806,3.806,0,0,0,3.248-1.68L33.082-2.45a2.446,2.446,0,0,1-1.974,1.078,2.08,2.08,0,0,1-2.086-2.212,2.066,2.066,0,0,1,2.072-2.2A2.206,2.206,0,0,1,32.928-4.76L34.244-5.8a3.785,3.785,0,0,0-3.136-1.54A3.706,3.706,0,0,0,27.3-3.542,3.623,3.623,0,0,0,31.08.168Zm7.952,0a3.668,3.668,0,0,0,3.794-3.752,3.66,3.66,0,0,0-3.794-3.752,3.672,3.672,0,0,0-3.808,3.752A3.68,3.68,0,0,0,39.032.168Zm0-1.54a2.075,2.075,0,0,1-2.1-2.212,2.064,2.064,0,0,1,2.1-2.2,2.061,2.061,0,0,1,2.086,2.2A2.072,2.072,0,0,1,39.032-1.372ZM52.906-7.336a3.576,3.576,0,0,0-2.562,1.148A2.388,2.388,0,0,0,48.2-7.336a3.3,3.3,0,0,0-2.114.784v-.616h-1.68V0h1.68V-4.928a2.314,2.314,0,0,1,1.68-.854c.8,0,1.344.574,1.344,1.778V0h1.68V-4.368c0-.182-.014-.35-.028-.518a2.26,2.26,0,0,1,1.708-.9c.8,0,1.344.574,1.344,1.778V0H55.5V-4.368C55.5-6.258,54.432-7.336,52.906-7.336ZM64.4-3.794a3.354,3.354,0,0,0-3.556-3.542,3.684,3.684,0,0,0-3.836,3.808,3.577,3.577,0,0,0,3.85,3.7A3.966,3.966,0,0,0,64.176-1.4L63-2.3a2.6,2.6,0,0,1-2.114,1.022,2.019,2.019,0,0,1-2.2-1.89h5.67A4.608,4.608,0,0,0,64.4-3.794ZM60.83-5.922a1.719,1.719,0,0,1,1.876,1.5H58.772A1.971,1.971,0,0,1,60.83-5.922ZM78.582-9.8,75.194-2.548,71.792-9.8H69.608V0h1.736V-6.972L74.48-.28h1.414l3.122-6.664V0h1.75V-9.8ZM89.908-3.794a3.354,3.354,0,0,0-3.556-3.542,3.684,3.684,0,0,0-3.836,3.808,3.577,3.577,0,0,0,3.85,3.7A3.966,3.966,0,0,0,89.684-1.4l-1.176-.9a2.6,2.6,0,0,1-2.114,1.022,2.019,2.019,0,0,1-2.2-1.89h5.67A4.608,4.608,0,0,0,89.908-3.794Zm-3.57-2.128a1.719,1.719,0,0,1,1.876,1.5H84.28A1.971,1.971,0,0,1,86.338-5.922Zm7.9,6.09c1.876,0,2.954-.924,2.954-2.324,0-1.022-.588-1.68-2.044-2.016L93.9-4.466c-.77-.182-.994-.378-.994-.7,0-.434.392-.728,1.148-.728a3.416,3.416,0,0,1,2.128.8l.91-1.19a4.4,4.4,0,0,0-2.968-1.05c-1.778,0-2.87.924-2.87,2.282,0,.994.588,1.624,2.03,1.96l1.246.294c.742.168.994.42.994.756,0,.448-.448.77-1.232.77a3.953,3.953,0,0,1-2.366-.868l-.868,1.26A5.036,5.036,0,0,0,94.234.168Zm7.14,0c1.876,0,2.954-.924,2.954-2.324,0-1.022-.588-1.68-2.044-2.016l-1.246-.294c-.77-.182-.994-.378-.994-.7,0-.434.392-.728,1.148-.728a3.416,3.416,0,0,1,2.128.8l.91-1.19a4.4,4.4,0,0,0-2.968-1.05c-1.778,0-2.87.924-2.87,2.282,0,.994.588,1.624,2.03,1.96l1.246.294c.742.168.994.42.994.756,0,.448-.448.77-1.232.77a3.953,3.953,0,0,1-2.366-.868L98.2-.882A5.036,5.036,0,0,0,101.374.168Zm9.688-7.336v.546A3.2,3.2,0,0,0,109-7.336a3.6,3.6,0,0,0-3.57,3.752A3.6,3.6,0,0,0,109,.168a3.2,3.2,0,0,0,2.058-.714V0h1.68V-7.168Zm-1.806,5.8a2.078,2.078,0,0,1-2.114-2.212,2.067,2.067,0,0,1,2.114-2.2,2.315,2.315,0,0,1,1.806.826v2.744A2.329,2.329,0,0,1,109.256-1.372Zm10.71-5.8v.56a3.143,3.143,0,0,0-2.072-.728,3.566,3.566,0,0,0-3.556,3.654A3.538,3.538,0,0,0,117.894-.07a3.132,3.132,0,0,0,2.072-.714v.6a1.793,1.793,0,0,1-2.03,1.862,3.74,3.74,0,0,1-2.45-1.022L114.478,1.89a4.938,4.938,0,0,0,3.486,1.33c2.268,0,3.682-1.274,3.682-3.4V-7.168Zm-1.834,5.586a2.026,2.026,0,0,1-2.086-2.1A2.03,2.03,0,0,1,118.132-5.8a2.406,2.406,0,0,1,1.834.84v2.534A2.406,2.406,0,0,1,118.132-1.582ZM130.62-3.794a3.354,3.354,0,0,0-3.556-3.542,3.684,3.684,0,0,0-3.836,3.808,3.577,3.577,0,0,0,3.85,3.7A3.966,3.966,0,0,0,130.4-1.4l-1.176-.9a2.6,2.6,0,0,1-2.114,1.022,2.019,2.019,0,0,1-2.2-1.89h5.67A4.608,4.608,0,0,0,130.62-3.794Zm-3.57-2.128a1.719,1.719,0,0,1,1.876,1.5h-3.934A1.971,1.971,0,0,1,127.05-5.922Z" transform="translate(550.559 1715)" fill="#07003b" opacity="0.3"/>
        </g>
        <path id="Path_674" data-name="Path 674" d="M12.726-9.8,10.6-2.758,8.246-9.8H6.636L4.284-2.758,2.156-9.8H.322L3.29,0H5.054L7.448-7.252,9.828,0h1.764l2.982-9.8Zm9.7,6.006a3.354,3.354,0,0,0-3.556-3.542,3.684,3.684,0,0,0-3.836,3.808,3.577,3.577,0,0,0,3.85,3.7A3.966,3.966,0,0,0,22.2-1.4l-1.176-.9a2.6,2.6,0,0,1-2.114,1.022,2.019,2.019,0,0,1-2.2-1.89h5.67A4.608,4.608,0,0,0,22.428-3.794Zm-3.57-2.128a1.719,1.719,0,0,1,1.876,1.5H16.8A1.971,1.971,0,0,1,18.858-5.922ZM24.038,0h1.68V-10.332h-1.68ZM31.08.168a3.806,3.806,0,0,0,3.248-1.68L33.082-2.45a2.446,2.446,0,0,1-1.974,1.078,2.08,2.08,0,0,1-2.086-2.212,2.066,2.066,0,0,1,2.072-2.2A2.206,2.206,0,0,1,32.928-4.76L34.244-5.8a3.785,3.785,0,0,0-3.136-1.54A3.706,3.706,0,0,0,27.3-3.542,3.623,3.623,0,0,0,31.08.168Zm7.952,0a3.668,3.668,0,0,0,3.794-3.752,3.66,3.66,0,0,0-3.794-3.752,3.672,3.672,0,0,0-3.808,3.752A3.68,3.68,0,0,0,39.032.168Zm0-1.54a2.075,2.075,0,0,1-2.1-2.212,2.064,2.064,0,0,1,2.1-2.2,2.061,2.061,0,0,1,2.086,2.2A2.072,2.072,0,0,1,39.032-1.372ZM52.906-7.336a3.576,3.576,0,0,0-2.562,1.148A2.388,2.388,0,0,0,48.2-7.336a3.3,3.3,0,0,0-2.114.784v-.616h-1.68V0h1.68V-4.928a2.314,2.314,0,0,1,1.68-.854c.8,0,1.344.574,1.344,1.778V0h1.68V-4.368c0-.182-.014-.35-.028-.518a2.26,2.26,0,0,1,1.708-.9c.8,0,1.344.574,1.344,1.778V0H55.5V-4.368C55.5-6.258,54.432-7.336,52.906-7.336ZM64.4-3.794a3.354,3.354,0,0,0-3.556-3.542,3.684,3.684,0,0,0-3.836,3.808,3.577,3.577,0,0,0,3.85,3.7A3.966,3.966,0,0,0,64.176-1.4L63-2.3a2.6,2.6,0,0,1-2.114,1.022,2.019,2.019,0,0,1-2.2-1.89h5.67A4.608,4.608,0,0,0,64.4-3.794ZM60.83-5.922a1.719,1.719,0,0,1,1.876,1.5H58.772A1.971,1.971,0,0,1,60.83-5.922ZM78.582-9.8,75.194-2.548,71.792-9.8H69.608V0h1.736V-6.972L74.48-.28h1.414l3.122-6.664V0h1.75V-9.8ZM89.908-3.794a3.354,3.354,0,0,0-3.556-3.542,3.684,3.684,0,0,0-3.836,3.808,3.577,3.577,0,0,0,3.85,3.7A3.966,3.966,0,0,0,89.684-1.4l-1.176-.9a2.6,2.6,0,0,1-2.114,1.022,2.019,2.019,0,0,1-2.2-1.89h5.67A4.608,4.608,0,0,0,89.908-3.794Zm-3.57-2.128a1.719,1.719,0,0,1,1.876,1.5H84.28A1.971,1.971,0,0,1,86.338-5.922Zm7.9,6.09c1.876,0,2.954-.924,2.954-2.324,0-1.022-.588-1.68-2.044-2.016L93.9-4.466c-.77-.182-.994-.378-.994-.7,0-.434.392-.728,1.148-.728a3.416,3.416,0,0,1,2.128.8l.91-1.19a4.4,4.4,0,0,0-2.968-1.05c-1.778,0-2.87.924-2.87,2.282,0,.994.588,1.624,2.03,1.96l1.246.294c.742.168.994.42.994.756,0,.448-.448.77-1.232.77a3.953,3.953,0,0,1-2.366-.868l-.868,1.26A5.036,5.036,0,0,0,94.234.168Zm7.14,0c1.876,0,2.954-.924,2.954-2.324,0-1.022-.588-1.68-2.044-2.016l-1.246-.294c-.77-.182-.994-.378-.994-.7,0-.434.392-.728,1.148-.728a3.416,3.416,0,0,1,2.128.8l.91-1.19a4.4,4.4,0,0,0-2.968-1.05c-1.778,0-2.87.924-2.87,2.282,0,.994.588,1.624,2.03,1.96l1.246.294c.742.168.994.42.994.756,0,.448-.448.77-1.232.77a3.953,3.953,0,0,1-2.366-.868L98.2-.882A5.036,5.036,0,0,0,101.374.168Zm9.688-7.336v.546A3.2,3.2,0,0,0,109-7.336a3.6,3.6,0,0,0-3.57,3.752A3.6,3.6,0,0,0,109,.168a3.2,3.2,0,0,0,2.058-.714V0h1.68V-7.168Zm-1.806,5.8a2.078,2.078,0,0,1-2.114-2.212,2.067,2.067,0,0,1,2.114-2.2,2.315,2.315,0,0,1,1.806.826v2.744A2.329,2.329,0,0,1,109.256-1.372Zm10.71-5.8v.56a3.143,3.143,0,0,0-2.072-.728,3.566,3.566,0,0,0-3.556,3.654A3.538,3.538,0,0,0,117.894-.07a3.132,3.132,0,0,0,2.072-.714v.6a1.793,1.793,0,0,1-2.03,1.862,3.74,3.74,0,0,1-2.45-1.022L114.478,1.89a4.938,4.938,0,0,0,3.486,1.33c2.268,0,3.682-1.274,3.682-3.4V-7.168Zm-1.834,5.586a2.026,2.026,0,0,1-2.086-2.1A2.03,2.03,0,0,1,118.132-5.8a2.406,2.406,0,0,1,1.834.84v2.534A2.406,2.406,0,0,1,118.132-1.582ZM130.62-3.794a3.354,3.354,0,0,0-3.556-3.542,3.684,3.684,0,0,0-3.836,3.808,3.577,3.577,0,0,0,3.85,3.7A3.966,3.966,0,0,0,130.4-1.4l-1.176-.9a2.6,2.6,0,0,1-2.114,1.022,2.019,2.019,0,0,1-2.2-1.89h5.67A4.608,4.608,0,0,0,130.62-3.794Zm-3.57-2.128a1.719,1.719,0,0,1,1.876,1.5h-3.934A1.971,1.971,0,0,1,127.05-5.922Zm10.542,4.27V-9.8h-1.764V0H142.3V-1.652Zm9.59,1.82a3.668,3.668,0,0,0,3.794-3.752,3.66,3.66,0,0,0-3.794-3.752,3.672,3.672,0,0,0-3.808,3.752A3.68,3.68,0,0,0,147.182.168Zm0-1.54a2.075,2.075,0,0,1-2.1-2.212,2.064,2.064,0,0,1,2.1-2.2,2.061,2.061,0,0,1,2.086,2.2A2.072,2.072,0,0,1,147.182-1.372Zm10.57-5.8v.56a3.143,3.143,0,0,0-2.072-.728,3.566,3.566,0,0,0-3.556,3.654A3.538,3.538,0,0,0,155.68-.07a3.132,3.132,0,0,0,2.072-.714v.6a1.793,1.793,0,0,1-2.03,1.862,3.74,3.74,0,0,1-2.45-1.022L152.264,1.89a4.938,4.938,0,0,0,3.486,1.33c2.268,0,3.682-1.274,3.682-3.4V-7.168Zm-1.834,5.586a2.026,2.026,0,0,1-2.086-2.1A2.03,2.03,0,0,1,155.918-5.8a2.406,2.406,0,0,1,1.834.84v2.534A2.406,2.406,0,0,1,155.918-1.582ZM162.3-8.12A1.067,1.067,0,0,0,163.366-9.2a1.073,1.073,0,0,0-1.064-1.064A1.088,1.088,0,0,0,161.21-9.2,1.082,1.082,0,0,0,162.3-8.12ZM161.448,0h1.68V-7.168h-1.68Zm7.56-7.336a3.431,3.431,0,0,0-2.184.77v-.6h-1.68V0h1.68V-4.942a2.3,2.3,0,0,1,1.764-.84c.938,0,1.526.616,1.526,1.848V0h1.68V-4.3A2.713,2.713,0,0,0,169.008-7.336Z" transform="translate(359 1712)" fill="#07003b"/>
      </g>
    </g>
    <g id="setting_1-2" data-name="setting 1" transform="translate(-248 -44)">
      <g transform="matrix(1, 0, 0, 1, 304, 1565)" filter="url(#Rectangle_436-3)">
        <rect id="Rectangle_436-6" data-name="Rectangle 436" width="286" height="140" rx="10" transform="translate(30 64)" fill="#fff"/>
      </g>
      <g id="Width" transform="translate(0 -34)">
        <g id="radio-3" data-name="radio" transform="translate(-7.558)">
          <g id="Rectangle_535-3" data-name="Rectangle 535" transform="translate(572.558 1693)" fill="rgba(132,149,194,0.3)" stroke="#8495c2" stroke-width="1">
            <rect width="30" height="30" rx="5" stroke="none"/>
            <rect x="0.5" y="0.5" width="29" height="29" rx="4.5" fill="none"/>
          </g>
          <rect id="Rectangle_553" data-name="Rectangle 553" width="24" height="24" rx="3" transform="translate(575.558 1696)" fill="#3a4fe0"/>
        </g>
        <path id="Path_671" data-name="Path 671" d="M7.35-5.278a2.005,2.005,0,0,0,1.036-1.9C8.386-8.834,7.168-9.8,5.1-9.8H1.176V0H5.432c2.338,0,3.64-1.12,3.64-2.9A2.358,2.358,0,0,0,7.35-5.278Zm-2.212-3c.966,0,1.47.42,1.47,1.162s-.5,1.2-1.47,1.2H2.926V-8.274ZM5.39-1.526H2.926v-2.9H5.39c1.232,0,1.862.588,1.862,1.456S6.622-1.526,5.39-1.526ZM16.044-7.168v.546a3.2,3.2,0,0,0-2.058-.714,3.6,3.6,0,0,0-3.57,3.752A3.6,3.6,0,0,0,13.986.168a3.2,3.2,0,0,0,2.058-.714V0h1.68V-7.168Zm-1.806,5.8a2.078,2.078,0,0,1-2.114-2.212,2.067,2.067,0,0,1,2.114-2.2,2.315,2.315,0,0,1,1.806.826v2.744A2.329,2.329,0,0,1,14.238-1.372ZM23.1.168a3.806,3.806,0,0,0,3.248-1.68L25.1-2.45a2.446,2.446,0,0,1-1.974,1.078,2.08,2.08,0,0,1-2.086-2.212,2.066,2.066,0,0,1,2.072-2.2A2.206,2.206,0,0,1,24.948-4.76L26.264-5.8a3.785,3.785,0,0,0-3.136-1.54A3.706,3.706,0,0,0,19.32-3.542,3.623,3.623,0,0,0,23.1.168ZM32.858,0h2.114l-3.36-4.074,3.164-3.094H32.634L29.33-4v-6.328H27.65V0h1.68V-1.862l1.106-1.064Zm7.98-7.168v.56a3.143,3.143,0,0,0-2.072-.728A3.566,3.566,0,0,0,35.21-3.682,3.538,3.538,0,0,0,38.766-.07a3.132,3.132,0,0,0,2.072-.714v.6a1.793,1.793,0,0,1-2.03,1.862A3.74,3.74,0,0,1,36.358.658L35.35,1.89a4.938,4.938,0,0,0,3.486,1.33c2.268,0,3.682-1.274,3.682-3.4V-7.168ZM39-1.582a2.026,2.026,0,0,1-2.086-2.1A2.03,2.03,0,0,1,39-5.8a2.406,2.406,0,0,1,1.834.84v2.534A2.406,2.406,0,0,1,39-1.582Zm9.2-5.754a2.51,2.51,0,0,0-1.988.938v-.77h-1.68V0h1.68V-4.662a2.238,2.238,0,0,1,1.974-1.092,3.907,3.907,0,0,1,.658.07l.1-1.554A2.927,2.927,0,0,0,48.2-7.336ZM53.4.168A3.668,3.668,0,0,0,57.19-3.584,3.66,3.66,0,0,0,53.4-7.336a3.672,3.672,0,0,0-3.808,3.752A3.68,3.68,0,0,0,53.4.168Zm0-1.54a2.075,2.075,0,0,1-2.1-2.212,2.064,2.064,0,0,1,2.1-2.2,2.061,2.061,0,0,1,2.086,2.2A2.072,2.072,0,0,1,53.4-1.372Zm10.234-5.8V-2.24a2.268,2.268,0,0,1-1.764.868c-.952,0-1.484-.6-1.484-1.792v-4H58.7V-2.8A2.637,2.637,0,0,0,61.432.168a3.364,3.364,0,0,0,2.2-.77V0h1.68V-7.168Zm7.56-.168a3.431,3.431,0,0,0-2.184.77v-.6h-1.68V0h1.68V-4.942a2.3,2.3,0,0,1,1.764-.84c.938,0,1.526.616,1.526,1.848V0h1.68V-4.3A2.713,2.713,0,0,0,71.19-7.336Zm9.926-3v3.71a3.2,3.2,0,0,0-2.058-.714,3.6,3.6,0,0,0-3.57,3.752A3.6,3.6,0,0,0,79.058.168a3.2,3.2,0,0,0,2.058-.714V0H82.8V-10.332ZM79.31-1.372A2.078,2.078,0,0,1,77.2-3.584a2.067,2.067,0,0,1,2.114-2.2,2.315,2.315,0,0,1,1.806.826v2.744A2.329,2.329,0,0,1,79.31-1.372ZM91.6.168a3.806,3.806,0,0,0,3.248-1.68L93.6-2.45A2.446,2.446,0,0,1,91.63-1.372a2.08,2.08,0,0,1-2.086-2.212,2.066,2.066,0,0,1,2.072-2.2A2.206,2.206,0,0,1,93.45-4.76L94.766-5.8a3.785,3.785,0,0,0-3.136-1.54,3.706,3.706,0,0,0-3.808,3.794A3.623,3.623,0,0,0,91.6.168Zm7.952,0a3.668,3.668,0,0,0,3.794-3.752,3.66,3.66,0,0,0-3.794-3.752,3.672,3.672,0,0,0-3.808,3.752A3.68,3.68,0,0,0,99.554.168Zm0-1.54a2.075,2.075,0,0,1-2.1-2.212,2.064,2.064,0,0,1,2.1-2.2,2.061,2.061,0,0,1,2.086,2.2A2.072,2.072,0,0,1,99.554-1.372ZM104.93,0h1.68V-10.332h-1.68ZM112,.168a3.668,3.668,0,0,0,3.794-3.752A3.66,3.66,0,0,0,112-7.336a3.672,3.672,0,0,0-3.808,3.752A3.68,3.68,0,0,0,112,.168Zm0-1.54a2.075,2.075,0,0,1-2.1-2.212,2.064,2.064,0,0,1,2.1-2.2,2.061,2.061,0,0,1,2.086,2.2A2.072,2.072,0,0,1,112-1.372Zm9.044-5.964a2.51,2.51,0,0,0-1.988.938v-.77h-1.68V0h1.68V-4.662a2.238,2.238,0,0,1,1.974-1.092,3.907,3.907,0,0,1,.658.07l.1-1.554A2.927,2.927,0,0,0,121.044-7.336Z" transform="translate(359 1712)" fill="#07003b"/>
      </g>
      <g id="Width-2" data-name="Width" transform="translate(0 16)">
        <g id="radio-4" data-name="radio" transform="translate(-7.558)">
          <g id="Rectangle_535-4" data-name="Rectangle 535" transform="translate(572.558 1693)" fill="rgba(132,149,194,0.3)" stroke="#8495c2" stroke-width="1">
            <rect width="30" height="30" rx="5" stroke="none"/>
            <rect x="0.5" y="0.5" width="29" height="29" rx="4.5" fill="none"/>
          </g>
          <rect id="Rectangle_553-2" data-name="Rectangle 553" width="24" height="24" rx="3" transform="translate(575.558 1696)" fill="#fff"/>
        </g>
        <path id="Path_672" data-name="Path 672" d="M8.3-9.8H.308v1.652H3.416V0H5.194V-8.148H8.3Zm7.434,6.006A3.354,3.354,0,0,0,12.18-7.336,3.684,3.684,0,0,0,8.344-3.528a3.577,3.577,0,0,0,3.85,3.7A3.966,3.966,0,0,0,15.512-1.4l-1.176-.9a2.6,2.6,0,0,1-2.114,1.022,2.019,2.019,0,0,1-2.2-1.89h5.67A4.608,4.608,0,0,0,15.736-3.794Zm-3.57-2.128a1.719,1.719,0,0,1,1.876,1.5H10.108A1.971,1.971,0,0,1,12.166-5.922ZM23.59,0,20.93-3.7l2.548-3.472h-1.89l-1.68,2.31-1.666-2.31h-1.89L18.9-3.7,16.226,0h1.918l1.764-2.45L21.672,0Zm6.062-1.6a3.76,3.76,0,0,1-1.092.2c-.826,0-1.218-.434-1.218-1.442V-5.7h2.282v-1.47H27.342V-8.876h-1.68v1.708h-1.47V-5.7h1.47v3.052c0,1.918.882,2.786,2.59,2.786A3.934,3.934,0,0,0,29.89-.182Zm9.7,1.764A4.957,4.957,0,0,0,43.75-2.3l-1.526-.9A3.157,3.157,0,0,1,39.368-1.5a3.186,3.186,0,0,1-3.234-3.4,3.186,3.186,0,0,1,3.234-3.4A3.121,3.121,0,0,1,42.21-6.608l1.526-.91a4.939,4.939,0,0,0-4.368-2.45A4.95,4.95,0,0,0,34.3-4.886,4.9,4.9,0,0,0,39.354.168Zm9.324,0a3.668,3.668,0,0,0,3.794-3.752,3.66,3.66,0,0,0-3.794-3.752A3.672,3.672,0,0,0,44.87-3.584,3.68,3.68,0,0,0,48.678.168Zm0-1.54a2.075,2.075,0,0,1-2.1-2.212,2.064,2.064,0,0,1,2.1-2.2,2.061,2.061,0,0,1,2.086,2.2A2.072,2.072,0,0,1,48.678-1.372ZM54.054,0h1.68V-10.332h-1.68Zm7.07.168a3.668,3.668,0,0,0,3.794-3.752,3.66,3.66,0,0,0-3.794-3.752,3.672,3.672,0,0,0-3.808,3.752A3.68,3.68,0,0,0,61.124.168Zm0-1.54a2.075,2.075,0,0,1-2.1-2.212,2.064,2.064,0,0,1,2.1-2.2,2.061,2.061,0,0,1,2.086,2.2A2.072,2.072,0,0,1,61.124-1.372Zm9.044-5.964A2.51,2.51,0,0,0,68.18-6.4v-.77H66.5V0h1.68V-4.662a2.238,2.238,0,0,1,1.974-1.092,3.907,3.907,0,0,1,.658.07l.1-1.554A2.927,2.927,0,0,0,70.168-7.336Z" transform="translate(359 1712)" fill="#07003b"/>
      </g>
    </g>
  </g>
</svg>
