<svg xmlns="http://www.w3.org/2000/svg" xmlns:xlink="http://www.w3.org/1999/xlink" width="652" height="519" viewBox="0 0 652 519">
  <defs>
    <filter id="Rectangle_436" x="306" y="227" width="346" height="292" filterUnits="userSpaceOnUse">
      <feOffset dy="5" input="SourceAlpha"/>
      <feGaussianBlur stdDeviation="10" result="blur"/>
      <feFlood flood-color="#3c50e0" flood-opacity="0.149"/>
      <feComposite operator="in" in2="blur"/>
      <feComposite in="SourceGraphic"/>
    </filter>
    <filter id="Rectangle_436-2" x="306" y="0" width="346" height="257" filterUnits="userSpaceOnUse">
      <feOffset dy="5" input="SourceAlpha"/>
      <feGaussianBlur stdDeviation="10" result="blur-2"/>
      <feFlood flood-color="#3c50e0" flood-opacity="0.149"/>
      <feComposite operator="in" in2="blur-2"/>
      <feComposite in="SourceGraphic"/>
    </filter>
    <filter id="Rectangle_436-3" x="0" y="45" width="346" height="346" filterUnits="userSpaceOnUse">
      <feOffset dy="5" input="SourceAlpha"/>
      <feGaussianBlur stdDeviation="10" result="blur-3"/>
      <feFlood flood-color="#3c50e0" flood-opacity="0.149"/>
      <feComposite operator="in" in2="blur-3"/>
      <feComposite in="SourceGraphic"/>
    </filter>
  </defs>
  <g id="feature-03" transform="translate(-56 -1522)">
    <g id="logo_size" data-name="logo size" transform="translate(58 104)">
      <g transform="matrix(1, 0, 0, 1, -2, 1418)" filter="url(#Rectangle_436)">
        <rect id="Rectangle_436-4" data-name="Rectangle 436" width="286" height="232" rx="10" transform="translate(336 252)" fill="#fff"/>
      </g>
      <g id="logo_and_dimensions" data-name="logo and dimensions" transform="translate(157.768 -2686.348)">
        <g id="logo" transform="translate(226.232 4386.348)">
          <rect id="Rectangle_530" data-name="Rectangle 530" width="71" height="72" rx="35.5" transform="translate(71 106) rotate(180)" fill="#3c50e0"/>
          <rect id="Rectangle_549" data-name="Rectangle 549" width="71" height="72" rx="35.5" transform="translate(90 72) rotate(180)" fill="#fbb203"/>
          <rect id="Rectangle_548" data-name="Rectangle 548" width="71" height="72" rx="35.5" transform="translate(109 106) rotate(180)" fill="#ff5670"/>
        </g>
        <g id="Vertical_line" data-name="Vertical line" transform="translate(343.732 4387.848)">
          <line id="Line_26" data-name="Line 26" x2="12" fill="none" stroke="#8495c2" stroke-linecap="round" stroke-width="4"/>
          <line id="Line_28" data-name="Line 28" x2="12" transform="translate(0 104.5)" fill="none" stroke="#8495c2" stroke-linecap="round" stroke-width="4"/>
          <line id="Line_27" data-name="Line 27" y2="104" transform="translate(6)" fill="none" stroke="#8495c2" stroke-linecap="round" stroke-width="4"/>
          <path id="Path_649" data-name="Path 649" d="M-25.15-14l-3.78,1.94v2.94l3.34-1.66V0h2.94V-14ZM-14.21.24c3.6,0,5.84-2.6,5.84-7.24s-2.24-7.24-5.84-7.24c-3.62,0-5.86,2.6-5.86,7.24S-17.83.24-14.21.24Zm0-2.68c-1.8,0-2.88-1.36-2.88-4.56s1.08-4.56,2.88-4.56S-11.35-10.2-11.35-7-12.41-2.44-14.21-2.44ZM-.63.24C2.97.24,5.21-2.36,5.21-7S2.97-14.24-.63-14.24c-3.62,0-5.86,2.6-5.86,7.24S-4.25.24-.63.24Zm0-2.68C-2.43-2.44-3.51-3.8-3.51-7s1.08-4.56,2.88-4.56S2.23-10.2,2.23-7,1.17-2.44-.63-2.44Zm13.7-8.08a4.366,4.366,0,0,0-2.78.94v-.7H7.49V4.36h2.8V-.7a4.366,4.366,0,0,0,2.78.94,5.144,5.144,0,0,0,5.06-5.38A5.132,5.132,0,0,0,13.07-10.52Zm-.46,8.18a3,3,0,0,1-2.32-1.08V-6.88a3.051,3.051,0,0,1,2.32-1.06,2.605,2.605,0,0,1,2.68,2.8A2.605,2.605,0,0,1,12.61-2.34ZM29.47,0,25.73-5.28l3.6-5H26.21L24.05-7.24l-2.16-3.04H18.77l3.6,5L18.63,0h3.18l2.24-3.2L26.29,0Z" transform="translate(58.5 58.5)" fill="#8495c2"/>
        </g>
        <g id="Horizontal_lines" data-name="Horizontal lines" transform="translate(334.232 4508.348) rotate(90)">
          <line id="Line_26-2" data-name="Line 26" x2="12" fill="none" stroke="#8495c2" stroke-linecap="round" stroke-width="4"/>
          <line id="Line_28-2" data-name="Line 28" x2="12" transform="translate(0 107)" fill="none" stroke="#8495c2" stroke-linecap="round" stroke-width="4"/>
          <line id="Line_27-2" data-name="Line 27" y2="105.695" transform="translate(6 0.305)" fill="none" stroke="#8495c2" stroke-linecap="round" stroke-width="4"/>
          <path id="Path_650" data-name="Path 650" d="M-22.7-14l-3.78,1.94v2.94l3.34-1.66V0h2.94V-14Zm8.68,0-3.78,1.94v2.94l3.34-1.66V0h2.94V-14ZM-3.08.24C.52.24,2.76-2.36,2.76-7S.52-14.24-3.08-14.24c-3.62,0-5.86,2.6-5.86,7.24S-6.7.24-3.08.24Zm0-2.68C-4.88-2.44-5.96-3.8-5.96-7s1.08-4.56,2.88-4.56S-.22-10.2-.22-7-1.28-2.44-3.08-2.44Zm13.7-8.08a4.366,4.366,0,0,0-2.78.94v-.7H5.04V4.36h2.8V-.7a4.366,4.366,0,0,0,2.78.94,5.144,5.144,0,0,0,5.06-5.38A5.132,5.132,0,0,0,10.62-10.52Zm-.46,8.18A3,3,0,0,1,7.84-3.42V-6.88a3.051,3.051,0,0,1,2.32-1.06,2.605,2.605,0,0,1,2.68,2.8A2.605,2.605,0,0,1,10.16-2.34ZM27.02,0,23.28-5.28l3.6-5H23.76L21.6-7.24l-2.16-3.04H16.32l3.6,5L16.18,0h3.18L21.6-3.2,23.84,0Z" transform="translate(45 53) rotate(-90)" fill="#8495c2"/>
        </g>
      </g>
    </g>
    <g id="setting_1" data-name="setting 1" transform="translate(58 -123)">
      <g transform="matrix(1, 0, 0, 1, -2, 1645)" filter="url(#Rectangle_436-2)">
        <rect id="Rectangle_436-5" data-name="Rectangle 436" width="286" height="197" rx="10" transform="translate(336 25)" fill="#fff"/>
      </g>
      <g id="Aside" transform="translate(0 10)">
        <g id="logo_Image" data-name="logo Image">
          <g id="Upload_box" data-name="Upload box" transform="translate(10.033)">
            <g id="Rectangle_550" data-name="Rectangle 550" transform="translate(348.967 1769)" fill="rgba(60,80,224,0.1)" stroke="#8495c2" stroke-width="2" stroke-dasharray="4 4">
              <rect width="236" height="58" rx="10" stroke="none"/>
              <rect x="1" y="1" width="234" height="56" rx="9" fill="none"/>
            </g>
            <path id="Path_648" data-name="Path 648" d="M4.3.168c2.324,0,3.71-1.232,3.71-3.066,0-1.372-.8-2.24-2.394-2.632L3.892-5.936c-1.12-.266-1.5-.644-1.5-1.2,0-.7.63-1.232,1.792-1.232A3.545,3.545,0,0,1,6.65-7.364L7.8-8.6A5.134,5.134,0,0,0,4.214-9.968c-2.184,0-3.6,1.232-3.6,2.94,0,1.3.854,2.2,2.408,2.576l1.722.406c1.064.252,1.47.672,1.47,1.274,0,.77-.672,1.33-1.862,1.33a4.847,4.847,0,0,1-2.9-1.078L.434-1.134A6.158,6.158,0,0,0,4.3.168ZM16.674-3.794a3.354,3.354,0,0,0-3.556-3.542A3.684,3.684,0,0,0,9.282-3.528a3.577,3.577,0,0,0,3.85,3.7A3.966,3.966,0,0,0,16.45-1.4l-1.176-.9A2.6,2.6,0,0,1,13.16-1.274a2.019,2.019,0,0,1-2.2-1.89h5.67A4.608,4.608,0,0,0,16.674-3.794ZM13.1-5.922a1.719,1.719,0,0,1,1.876,1.5H11.046A1.971,1.971,0,0,1,13.1-5.922ZM18.284,0h1.68V-10.332h-1.68ZM28.938-3.794a3.354,3.354,0,0,0-3.556-3.542,3.684,3.684,0,0,0-3.836,3.808A3.577,3.577,0,0,0,25.4.168,3.966,3.966,0,0,0,28.714-1.4l-1.176-.9a2.6,2.6,0,0,1-2.114,1.022,2.019,2.019,0,0,1-2.2-1.89H28.9A4.608,4.608,0,0,0,28.938-3.794Zm-3.57-2.128a1.719,1.719,0,0,1,1.876,1.5H23.31A1.971,1.971,0,0,1,25.368-5.922ZM33.894.168a3.806,3.806,0,0,0,3.248-1.68L35.9-2.45a2.446,2.446,0,0,1-1.974,1.078,2.08,2.08,0,0,1-2.086-2.212,2.066,2.066,0,0,1,2.072-2.2A2.206,2.206,0,0,1,35.742-4.76L37.058-5.8a3.785,3.785,0,0,0-3.136-1.54,3.706,3.706,0,0,0-3.808,3.794A3.623,3.623,0,0,0,33.894.168ZM43.26-1.6a3.76,3.76,0,0,1-1.092.2c-.826,0-1.218-.434-1.218-1.442V-5.7h2.282v-1.47H40.95V-8.876H39.27v1.708H37.8V-5.7h1.47v3.052c0,1.918.882,2.786,2.59,2.786A3.934,3.934,0,0,0,43.5-.182ZM49.126-8.12A1.067,1.067,0,0,0,50.19-9.2a1.073,1.073,0,0,0-1.064-1.064A1.088,1.088,0,0,0,48.034-9.2,1.082,1.082,0,0,0,49.126-8.12ZM48.272,0h1.68V-7.168h-1.68ZM60.466-7.336A3.576,3.576,0,0,0,57.9-6.188a2.388,2.388,0,0,0-2.142-1.148,3.3,3.3,0,0,0-2.114.784v-.616h-1.68V0h1.68V-4.928a2.314,2.314,0,0,1,1.68-.854c.8,0,1.344.574,1.344,1.778V0h1.68V-4.368c0-.182-.014-.35-.028-.518a2.26,2.26,0,0,1,1.708-.9c.8,0,1.344.574,1.344,1.778V0h1.68V-4.368C63.056-6.258,61.992-7.336,60.466-7.336Zm9.73.168v.546a3.2,3.2,0,0,0-2.058-.714,3.6,3.6,0,0,0-3.57,3.752A3.6,3.6,0,0,0,68.138.168,3.2,3.2,0,0,0,70.2-.546V0h1.68V-7.168Zm-1.806,5.8a2.078,2.078,0,0,1-2.114-2.212,2.067,2.067,0,0,1,2.114-2.2,2.315,2.315,0,0,1,1.806.826v2.744A2.329,2.329,0,0,1,68.39-1.372Zm10.71-5.8v.56a3.143,3.143,0,0,0-2.072-.728,3.566,3.566,0,0,0-3.556,3.654A3.538,3.538,0,0,0,77.028-.07,3.132,3.132,0,0,0,79.1-.784v.6A1.793,1.793,0,0,1,77.07,1.68,3.74,3.74,0,0,1,74.62.658L73.612,1.89A4.938,4.938,0,0,0,77.1,3.22c2.268,0,3.682-1.274,3.682-3.4V-7.168ZM77.266-1.582a2.026,2.026,0,0,1-2.086-2.1A2.03,2.03,0,0,1,77.266-5.8a2.406,2.406,0,0,1,1.834.84v2.534A2.406,2.406,0,0,1,77.266-1.582ZM89.754-3.794A3.354,3.354,0,0,0,86.2-7.336a3.684,3.684,0,0,0-3.836,3.808,3.577,3.577,0,0,0,3.85,3.7A3.966,3.966,0,0,0,89.53-1.4l-1.176-.9A2.6,2.6,0,0,1,86.24-1.274a2.019,2.019,0,0,1-2.2-1.89h5.67A4.608,4.608,0,0,0,89.754-3.794Zm-3.57-2.128a1.719,1.719,0,0,1,1.876,1.5H84.126A1.971,1.971,0,0,1,86.184-5.922Z" transform="translate(417.967 1802)" fill="#07003b" opacity="0.4"/>
          </g>
          <path id="Path_647" data-name="Path 647" d="M2.94-1.652V-9.8H1.176V0H7.644V-1.652ZM12.53.168a3.668,3.668,0,0,0,3.794-3.752A3.66,3.66,0,0,0,12.53-7.336,3.672,3.672,0,0,0,8.722-3.584,3.68,3.68,0,0,0,12.53.168Zm0-1.54a2.075,2.075,0,0,1-2.1-2.212,2.064,2.064,0,0,1,2.1-2.2,2.061,2.061,0,0,1,2.086,2.2A2.072,2.072,0,0,1,12.53-1.372Zm10.57-5.8v.56a3.143,3.143,0,0,0-2.072-.728,3.566,3.566,0,0,0-3.556,3.654A3.538,3.538,0,0,0,21.028-.07,3.132,3.132,0,0,0,23.1-.784v.6A1.793,1.793,0,0,1,21.07,1.68,3.74,3.74,0,0,1,18.62.658L17.612,1.89A4.938,4.938,0,0,0,21.1,3.22c2.268,0,3.682-1.274,3.682-3.4V-7.168ZM21.266-1.582a2.026,2.026,0,0,1-2.086-2.1A2.03,2.03,0,0,1,21.266-5.8a2.406,2.406,0,0,1,1.834.84v2.534A2.406,2.406,0,0,1,21.266-1.582Zm8.9,1.75a3.668,3.668,0,0,0,3.794-3.752A3.66,3.66,0,0,0,30.17-7.336a3.672,3.672,0,0,0-3.808,3.752A3.68,3.68,0,0,0,30.17.168Zm0-1.54a2.075,2.075,0,0,1-2.1-2.212,2.064,2.064,0,0,1,2.1-2.2,2.061,2.061,0,0,1,2.086,2.2A2.072,2.072,0,0,1,30.17-1.372ZM39.144,0h1.764V-9.8H39.144ZM51.59-7.336a3.576,3.576,0,0,0-2.562,1.148,2.388,2.388,0,0,0-2.142-1.148,3.3,3.3,0,0,0-2.114.784v-.616h-1.68V0h1.68V-4.928a2.314,2.314,0,0,1,1.68-.854c.8,0,1.344.574,1.344,1.778V0h1.68V-4.368c0-.182-.014-.35-.028-.518a2.26,2.26,0,0,1,1.708-.9c.8,0,1.344.574,1.344,1.778V0h1.68V-4.368C54.18-6.258,53.116-7.336,51.59-7.336Zm9.73.168v.546a3.2,3.2,0,0,0-2.058-.714,3.6,3.6,0,0,0-3.57,3.752A3.6,3.6,0,0,0,59.262.168,3.2,3.2,0,0,0,61.32-.546V0H63V-7.168Zm-1.806,5.8A2.078,2.078,0,0,1,57.4-3.584a2.067,2.067,0,0,1,2.114-2.2,2.315,2.315,0,0,1,1.806.826v2.744A2.329,2.329,0,0,1,59.514-1.372Zm10.71-5.8v.56a3.143,3.143,0,0,0-2.072-.728A3.566,3.566,0,0,0,64.6-3.682,3.538,3.538,0,0,0,68.152-.07a3.132,3.132,0,0,0,2.072-.714v.6a1.793,1.793,0,0,1-2.03,1.862A3.74,3.74,0,0,1,65.744.658L64.736,1.89a4.938,4.938,0,0,0,3.486,1.33c2.268,0,3.682-1.274,3.682-3.4V-7.168ZM68.39-1.582a2.026,2.026,0,0,1-2.086-2.1A2.03,2.03,0,0,1,68.39-5.8a2.406,2.406,0,0,1,1.834.84v2.534A2.406,2.406,0,0,1,68.39-1.582ZM80.878-3.794a3.354,3.354,0,0,0-3.556-3.542,3.684,3.684,0,0,0-3.836,3.808,3.577,3.577,0,0,0,3.85,3.7A3.966,3.966,0,0,0,80.654-1.4l-1.176-.9a2.6,2.6,0,0,1-2.114,1.022,2.019,2.019,0,0,1-2.2-1.89h5.67A4.608,4.608,0,0,0,80.878-3.794Zm-3.57-2.128a1.719,1.719,0,0,1,1.876,1.5H75.25A1.971,1.971,0,0,1,77.308-5.922Z" transform="translate(359 1751)" fill="#07003b"/>
        </g>
        <g id="Disable" transform="translate(8)">
          <g id="radio" transform="translate(-18)">
            <g id="Rectangle_535" data-name="Rectangle 535" transform="translate(562 1690)" fill="#fff" stroke="rgba(60,80,224,0.4)" stroke-width="2">
              <rect width="43" height="20" rx="10" stroke="none"/>
              <rect x="1" y="1" width="41" height="18" rx="9" fill="none"/>
            </g>
            <rect id="Rectangle_551" data-name="Rectangle 551" width="12" height="12" rx="6" transform="translate(566 1694)" fill="#ff5670"/>
          </g>
          <path id="Path_646" data-name="Path 646" d="M4.34-9.8H1.176V0H4.34A4.689,4.689,0,0,0,9.38-4.9,4.689,4.689,0,0,0,4.34-9.8ZM4.256-1.652H2.94v-6.5H4.256A2.991,2.991,0,0,1,7.56-4.9,2.991,2.991,0,0,1,4.256-1.652Zm7.63-6.468A1.067,1.067,0,0,0,12.95-9.2a1.073,1.073,0,0,0-1.064-1.064A1.088,1.088,0,0,0,10.794-9.2,1.082,1.082,0,0,0,11.886-8.12ZM11.032,0h1.68V-7.168h-1.68Zm6.384.168c1.876,0,2.954-.924,2.954-2.324,0-1.022-.588-1.68-2.044-2.016L17.08-4.466c-.77-.182-.994-.378-.994-.7,0-.434.392-.728,1.148-.728a3.416,3.416,0,0,1,2.128.8l.91-1.19A4.4,4.4,0,0,0,17.3-7.336c-1.778,0-2.87.924-2.87,2.282,0,.994.588,1.624,2.03,1.96L17.71-2.8c.742.168.994.42.994.756,0,.448-.448.77-1.232.77a3.953,3.953,0,0,1-2.366-.868l-.868,1.26A5.036,5.036,0,0,0,17.416.168ZM27.1-7.168v.546a3.2,3.2,0,0,0-2.058-.714,3.6,3.6,0,0,0-3.57,3.752A3.6,3.6,0,0,0,25.046.168,3.2,3.2,0,0,0,27.1-.546V0h1.68V-7.168ZM25.3-1.372a2.078,2.078,0,0,1-2.114-2.212,2.067,2.067,0,0,1,2.114-2.2,2.315,2.315,0,0,1,1.806.826v2.744A2.329,2.329,0,0,1,25.3-1.372Zm9.268-5.964a3.2,3.2,0,0,0-2.058.714v-3.71h-1.68V0h1.68V-.546a3.2,3.2,0,0,0,2.058.714,3.6,3.6,0,0,0,3.57-3.752A3.6,3.6,0,0,0,34.566-7.336Zm-.252,5.964a2.329,2.329,0,0,1-1.806-.84V-4.956a2.315,2.315,0,0,1,1.806-.826,2.067,2.067,0,0,1,2.114,2.2A2.078,2.078,0,0,1,34.314-1.372ZM39.718,0H41.4V-10.332h-1.68ZM50.372-3.794a3.354,3.354,0,0,0-3.556-3.542A3.684,3.684,0,0,0,42.98-3.528a3.577,3.577,0,0,0,3.85,3.7A3.966,3.966,0,0,0,50.148-1.4l-1.176-.9a2.6,2.6,0,0,1-2.114,1.022,2.019,2.019,0,0,1-2.2-1.89h5.67A4.608,4.608,0,0,0,50.372-3.794ZM46.8-5.922a1.719,1.719,0,0,1,1.876,1.5H44.744A1.971,1.971,0,0,1,46.8-5.922Zm10.542,4.27V-9.8H55.58V0h6.468V-1.652Zm9.59,1.82a3.668,3.668,0,0,0,3.794-3.752,3.66,3.66,0,0,0-3.794-3.752,3.672,3.672,0,0,0-3.808,3.752A3.68,3.68,0,0,0,66.934.168Zm0-1.54a2.075,2.075,0,0,1-2.1-2.212,2.064,2.064,0,0,1,2.1-2.2,2.061,2.061,0,0,1,2.086,2.2A2.072,2.072,0,0,1,66.934-1.372Zm10.57-5.8v.56a3.143,3.143,0,0,0-2.072-.728,3.566,3.566,0,0,0-3.556,3.654A3.538,3.538,0,0,0,75.432-.07,3.132,3.132,0,0,0,77.5-.784v.6a1.793,1.793,0,0,1-2.03,1.862A3.74,3.74,0,0,1,73.024.658L72.016,1.89A4.938,4.938,0,0,0,75.5,3.22c2.268,0,3.682-1.274,3.682-3.4V-7.168ZM75.67-1.582a2.026,2.026,0,0,1-2.086-2.1A2.03,2.03,0,0,1,75.67-5.8a2.406,2.406,0,0,1,1.834.84v2.534A2.406,2.406,0,0,1,75.67-1.582Zm8.9,1.75a3.668,3.668,0,0,0,3.794-3.752,3.66,3.66,0,0,0-3.794-3.752,3.672,3.672,0,0,0-3.808,3.752A3.68,3.68,0,0,0,84.574.168Zm0-1.54a2.075,2.075,0,0,1-2.1-2.212,2.064,2.064,0,0,1,2.1-2.2,2.061,2.061,0,0,1,2.086,2.2A2.072,2.072,0,0,1,84.574-1.372Z" transform="translate(351 1704)" fill="#07003b"/>
        </g>
      </g>
    </g>
    <g id="setting_1-2" data-name="setting 1" transform="translate(-248 -37)">
      <g transform="matrix(1, 0, 0, 1, 304, 1559)" filter="url(#Rectangle_436-3)">
        <rect id="Rectangle_436-6" data-name="Rectangle 436" width="286" height="286" rx="10" transform="translate(30 70)" fill="#fff"/>
      </g>
      <g id="URL" transform="translate(0 135)">
        <g id="radio-2" data-name="radio" transform="translate(-184.558 24)">
          <g id="Rectangle_535-2" data-name="Rectangle 535" transform="translate(543.558 1690)" fill="rgba(60,80,224,0.05)" stroke="rgba(60,80,224,0.4)" stroke-width="2">
            <rect width="236" height="36" rx="5" stroke="none"/>
            <rect x="1" y="1" width="234" height="34" rx="4" fill="none"/>
          </g>
          <path id="Path_645" data-name="Path 645" d="M5.424-8.336a3.881,3.881,0,0,0-2.592.944v-4.416h-1.6V0h1.6V-5.808A2.935,2.935,0,0,1,5.072-6.88c1.2,0,1.952.8,1.952,2.352V0h1.6V-4.864C8.624-7.088,7.312-8.336,5.424-8.336ZM16.08-1.552a3.731,3.731,0,0,1-1.312.256c-1.008,0-1.488-.544-1.488-1.792v-3.68h2.768V-8.144H13.28v-2h-1.6v2H9.9v1.376H11.68v3.856C11.68-.8,12.672.16,14.528.16a4.45,4.45,0,0,0,1.84-.368Zm7.024,0a3.731,3.731,0,0,1-1.312.256C20.784-1.3,20.3-1.84,20.3-3.088v-3.68h2.768V-8.144H20.3v-2H18.7v2H16.928v1.376H18.7v3.856C18.7-.8,19.7.16,21.552.16a4.45,4.45,0,0,0,1.84-.368ZM29.12-8.336a3.665,3.665,0,0,0-2.5.9v-.7h-1.6V3.488h1.6V-.72a3.6,3.6,0,0,0,2.5.912,4.116,4.116,0,0,0,4.1-4.272A4.112,4.112,0,0,0,29.12-8.336Zm-.208,7.072a2.967,2.967,0,0,1-2.288-1.072V-5.808A2.967,2.967,0,0,1,28.912-6.88a2.641,2.641,0,0,1,2.672,2.8A2.645,2.645,0,0,1,28.912-1.264ZM38.192.192c2.048,0,3.232-1.04,3.232-2.576,0-1.152-.64-1.9-2.3-2.272l-1.408-.32c-1.04-.24-1.328-.528-1.328-.96,0-.592.528-1.008,1.52-1.008a3.573,3.573,0,0,1,2.448.976l.976-1.12A4.646,4.646,0,0,0,38-8.336c-1.952,0-3.184,1.024-3.184,2.512,0,1.12.688,1.84,2.32,2.208l1.424.32c.976.224,1.3.576,1.3,1.024,0,.608-.608,1.056-1.616,1.056a4.2,4.2,0,0,1-2.72-1.056l-.928,1.2A5.374,5.374,0,0,0,38.192.192ZM44.08-5.36A1.094,1.094,0,0,0,45.2-6.48,1.094,1.094,0,0,0,44.08-7.6a1.094,1.094,0,0,0-1.12,1.12A1.094,1.094,0,0,0,44.08-5.36Zm0,5.488A1.094,1.094,0,0,0,45.2-.992a1.084,1.084,0,0,0-1.12-1.12,1.084,1.084,0,0,0-1.12,1.12A1.094,1.094,0,0,0,44.08.128Zm2.032,1.344h1.6l5.92-13.344h-1.6Zm6.352,0h1.6l5.92-13.344h-1.6Z" transform="translate(553.558 1714)" fill="#07003b" opacity="0.3"/>
        </g>
        <path id="Path_644" data-name="Path 644" d="M2.94-1.652V-9.8H1.176V0H7.644V-1.652ZM12.53.168a3.668,3.668,0,0,0,3.794-3.752A3.66,3.66,0,0,0,12.53-7.336,3.672,3.672,0,0,0,8.722-3.584,3.68,3.68,0,0,0,12.53.168Zm0-1.54a2.075,2.075,0,0,1-2.1-2.212,2.064,2.064,0,0,1,2.1-2.2,2.061,2.061,0,0,1,2.086,2.2A2.072,2.072,0,0,1,12.53-1.372Zm10.57-5.8v.56a3.143,3.143,0,0,0-2.072-.728,3.566,3.566,0,0,0-3.556,3.654A3.538,3.538,0,0,0,21.028-.07,3.132,3.132,0,0,0,23.1-.784v.6A1.793,1.793,0,0,1,21.07,1.68,3.74,3.74,0,0,1,18.62.658L17.612,1.89A4.938,4.938,0,0,0,21.1,3.22c2.268,0,3.682-1.274,3.682-3.4V-7.168ZM21.266-1.582a2.026,2.026,0,0,1-2.086-2.1A2.03,2.03,0,0,1,21.266-5.8a2.406,2.406,0,0,1,1.834.84v2.534A2.406,2.406,0,0,1,21.266-1.582Zm8.9,1.75a3.668,3.668,0,0,0,3.794-3.752A3.66,3.66,0,0,0,30.17-7.336a3.672,3.672,0,0,0-3.808,3.752A3.68,3.68,0,0,0,30.17.168Zm0-1.54a2.075,2.075,0,0,1-2.1-2.212,2.064,2.064,0,0,1,2.1-2.2,2.061,2.061,0,0,1,2.086,2.2A2.072,2.072,0,0,1,30.17-1.372ZM43.134.168a3.745,3.745,0,0,0,4.1-4.088V-9.8H45.458v5.7c0,1.764-.854,2.6-2.324,2.6S40.8-2.338,40.8-4.1V-9.8H39.032v5.88A3.739,3.739,0,0,0,43.134.168ZM55.272,0h2.142L54.586-3.738A2.872,2.872,0,0,0,56.98-6.706c0-1.9-1.33-3.094-3.444-3.094H49.462V0h1.764V-3.626H52.6ZM51.226-8.148h2.142c1.218,0,1.792.5,1.792,1.442s-.574,1.442-1.792,1.442H51.226Zm9.674,6.5V-9.8H59.136V0H65.6V-1.652Z" transform="translate(359 1701)" fill="#07003b"/>
      </g>
      <g id="Height" transform="translate(0 52)">
        <g id="radio-3" data-name="radio" transform="translate(-7.558)">
          <g id="Rectangle_535-3" data-name="Rectangle 535" transform="translate(533.558 1690)" fill="rgba(60,80,224,0.05)" stroke="rgba(60,80,224,0.4)" stroke-width="2">
            <rect width="69" height="36" rx="5" stroke="none"/>
            <rect x="1" y="1" width="67" height="34" rx="4" fill="none"/>
          </g>
          <path id="Path_643" data-name="Path 643" d="M3.744-11.2.64-9.616V-7.6L3.424-8.992V0h2V-11.2Zm6.88,0L7.52-9.616V-7.6L10.3-8.992V0h2V-11.2ZM19.2.192c2.832,0,4.608-2.112,4.608-5.792s-1.776-5.792-4.608-5.792S14.592-9.28,14.592-5.6,16.368.192,19.2.192Zm0-1.824c-1.632,0-2.576-1.232-2.576-3.968s.944-3.968,2.576-3.968S21.792-8.336,21.792-5.6,20.832-1.632,19.2-1.632ZM30.08-8.384a3.561,3.561,0,0,0-2.368.832v-.64h-1.92V3.488h1.92V-.64A3.561,3.561,0,0,0,30.08.192,4.114,4.114,0,0,0,34.144-4.1,4.114,4.114,0,0,0,30.08-8.384Zm-.288,6.816a2.67,2.67,0,0,1-2.08-.96V-5.664a2.655,2.655,0,0,1,2.08-.944,2.35,2.35,0,0,1,2.4,2.512A2.363,2.363,0,0,1,29.792-1.568ZM43.1,0l-3.04-4.224,2.912-3.968h-2.16L38.9-5.552l-1.9-2.64h-2.16l2.912,3.968L34.688,0H36.88L38.9-2.8,40.912,0Z" transform="translate(545.559 1714)" fill="#07003b"/>
        </g>
        <g id="Range" transform="translate(0 30)">
          <g id="Rectangle_535-4" data-name="Rectangle 535" transform="translate(359 1715)" fill="#3c50e0" stroke="#3c50e0" stroke-width="2" opacity="0.7">
            <rect width="236" height="4" rx="2" stroke="none"/>
            <rect x="1" y="1" width="234" height="2" rx="1" fill="none"/>
          </g>
          <rect id="Rectangle_551-2" data-name="Rectangle 551" width="12" height="12" rx="6" transform="translate(475 1711)" fill="#ff5670"/>
        </g>
        <path id="Path_642" data-name="Path 642" d="M7.714-9.8v3.92H2.94V-9.8H1.176V0H2.94V-4.228H7.714V0H9.478V-9.8ZM18.62-3.794a3.354,3.354,0,0,0-3.556-3.542,3.684,3.684,0,0,0-3.836,3.808,3.577,3.577,0,0,0,3.85,3.7A3.966,3.966,0,0,0,18.4-1.4L17.22-2.3a2.6,2.6,0,0,1-2.114,1.022,2.019,2.019,0,0,1-2.2-1.89h5.67A4.608,4.608,0,0,0,18.62-3.794ZM15.05-5.922a1.719,1.719,0,0,1,1.876,1.5H12.992A1.971,1.971,0,0,1,15.05-5.922Zm6.034-2.2A1.067,1.067,0,0,0,22.148-9.2a1.073,1.073,0,0,0-1.064-1.064A1.088,1.088,0,0,0,19.992-9.2,1.082,1.082,0,0,0,21.084-8.12ZM20.23,0h1.68V-7.168H20.23Zm8.89-7.168v.56a3.143,3.143,0,0,0-2.072-.728,3.566,3.566,0,0,0-3.556,3.654A3.538,3.538,0,0,0,27.048-.07,3.132,3.132,0,0,0,29.12-.784v.6A1.793,1.793,0,0,1,27.09,1.68,3.74,3.74,0,0,1,24.64.658L23.632,1.89a4.938,4.938,0,0,0,3.486,1.33c2.268,0,3.682-1.274,3.682-3.4V-7.168ZM27.286-1.582a2.026,2.026,0,0,1-2.086-2.1A2.03,2.03,0,0,1,27.286-5.8a2.406,2.406,0,0,1,1.834.84v2.534A2.406,2.406,0,0,1,27.286-1.582ZM36.68-7.336a3.431,3.431,0,0,0-2.184.77v-3.766h-1.68V0H34.5V-4.942a2.3,2.3,0,0,1,1.764-.84c.938,0,1.526.616,1.526,1.848V0h1.68V-4.3A2.713,2.713,0,0,0,36.68-7.336Zm9.3,5.74a3.76,3.76,0,0,1-1.092.2c-.826,0-1.218-.434-1.218-1.442V-5.7h2.282v-1.47H43.666V-8.876h-1.68v1.708h-1.47V-5.7h1.47v3.052c0,1.918.882,2.786,2.59,2.786a3.934,3.934,0,0,0,1.638-.322Z" transform="translate(359 1712)" fill="#07003b"/>
      </g>
      <g id="Width" transform="translate(0 -31)">
        <g id="radio-4" data-name="radio" transform="translate(-7.558)">
          <g id="Rectangle_535-5" data-name="Rectangle 535" transform="translate(533.558 1690)" fill="rgba(60,80,224,0.05)" stroke="rgba(60,80,224,0.4)" stroke-width="2">
            <rect width="69" height="36" rx="5" stroke="none"/>
            <rect x="1" y="1" width="67" height="34" rx="4" fill="none"/>
          </g>
          <path id="Path_641" data-name="Path 641" d="M3.744-11.2.64-9.616V-7.6L3.424-8.992V0h2V-11.2ZM12.32.192c2.832,0,4.608-2.112,4.608-5.792s-1.776-5.792-4.608-5.792S7.712-9.28,7.712-5.6,9.488.192,12.32.192Zm0-1.824c-1.632,0-2.576-1.232-2.576-3.968s.944-3.968,2.576-3.968S14.912-8.336,14.912-5.6,13.952-1.632,12.32-1.632ZM23.2.192c2.832,0,4.608-2.112,4.608-5.792s-1.776-5.792-4.608-5.792S18.592-9.28,18.592-5.6,20.368.192,23.2.192Zm0-1.824c-1.632,0-2.576-1.232-2.576-3.968s.944-3.968,2.576-3.968S25.792-8.336,25.792-5.6,24.832-1.632,23.2-1.632ZM34.08-8.384a3.561,3.561,0,0,0-2.368.832v-.64h-1.92V3.488h1.92V-.64A3.561,3.561,0,0,0,34.08.192,4.114,4.114,0,0,0,38.144-4.1,4.114,4.114,0,0,0,34.08-8.384Zm-.288,6.816a2.67,2.67,0,0,1-2.08-.96V-5.664a2.655,2.655,0,0,1,2.08-.944,2.35,2.35,0,0,1,2.4,2.512A2.363,2.363,0,0,1,33.792-1.568ZM47.1,0l-3.04-4.224,2.912-3.968h-2.16L42.9-5.552l-1.9-2.64h-2.16l2.912,3.968L38.688,0H40.88L42.9-2.8,44.912,0Z" transform="translate(543.559 1714)" fill="#07003b"/>
        </g>
        <g id="Range-2" data-name="Range" transform="translate(0 30)">
          <g id="Rectangle_535-6" data-name="Rectangle 535" transform="translate(359 1715)" fill="#3c50e0" stroke="#3c50e0" stroke-width="2" opacity="0.7">
            <rect width="236" height="4" rx="2" stroke="none"/>
            <rect x="1" y="1" width="234" height="2" rx="1" fill="none"/>
          </g>
          <rect id="Rectangle_551-3" data-name="Rectangle 551" width="12" height="12" rx="6" transform="translate(455 1711)" fill="#ff5670"/>
        </g>
        <path id="Path_640" data-name="Path 640" d="M12.726-9.8,10.6-2.758,8.246-9.8H6.636L4.284-2.758,2.156-9.8H.322L3.29,0H5.054L7.448-7.252,9.828,0h1.764l2.982-9.8ZM16.8-8.12A1.067,1.067,0,0,0,17.864-9.2,1.073,1.073,0,0,0,16.8-10.262,1.088,1.088,0,0,0,15.708-9.2,1.082,1.082,0,0,0,16.8-8.12ZM15.946,0h1.68V-7.168h-1.68Zm8.89-10.332v3.71a3.2,3.2,0,0,0-2.058-.714,3.6,3.6,0,0,0-3.57,3.752A3.6,3.6,0,0,0,22.778.168a3.2,3.2,0,0,0,2.058-.714V0h1.68V-10.332ZM23.03-1.372a2.078,2.078,0,0,1-2.114-2.212,2.067,2.067,0,0,1,2.114-2.2,2.315,2.315,0,0,1,1.806.826v2.744A2.329,2.329,0,0,1,23.03-1.372ZM33.166-1.6a3.76,3.76,0,0,1-1.092.2c-.826,0-1.218-.434-1.218-1.442V-5.7h2.282v-1.47H30.856V-8.876h-1.68v1.708h-1.47V-5.7h1.47v3.052c0,1.918.882,2.786,2.59,2.786A3.934,3.934,0,0,0,33.4-.182Zm5.446-5.74a3.431,3.431,0,0,0-2.184.77v-3.766h-1.68V0h1.68V-4.942a2.3,2.3,0,0,1,1.764-.84c.938,0,1.526.616,1.526,1.848V0H41.4V-4.3A2.713,2.713,0,0,0,38.612-7.336Z" transform="translate(359 1712)" fill="#07003b"/>
      </g>
    </g>
  </g>
</svg>
