<svg xmlns="http://www.w3.org/2000/svg" xmlns:xlink="http://www.w3.org/1999/xlink" width="652" height="463" viewBox="0 0 652 463">
  <defs>
    <filter id="Rectangle_436" x="306" y="0" width="346" height="463" filterUnits="userSpaceOnUse">
      <feOffset dy="5" input="SourceAlpha"/>
      <feGaussianBlur stdDeviation="10" result="blur"/>
      <feFlood flood-color="#3c50e0" flood-opacity="0.149"/>
      <feComposite operator="in" in2="blur"/>
      <feComposite in="SourceGraphic"/>
    </filter>
    <filter id="Rectangle_436-2" x="0" y="217" width="346" height="246" filterUnits="userSpaceOnUse">
      <feOffset dy="5" input="SourceAlpha"/>
      <feGaussianBlur stdDeviation="10" result="blur-2"/>
      <feFlood flood-color="#3c50e0" flood-opacity="0.149"/>
      <feComposite operator="in" in2="blur-2"/>
      <feComposite in="SourceGraphic"/>
    </filter>
    <filter id="Rectangle_436-3" x="0" y="0" width="346" height="247" filterUnits="userSpaceOnUse">
      <feOffset dy="5" input="SourceAlpha"/>
      <feGaussianBlur stdDeviation="10" result="blur-3"/>
      <feFlood flood-color="#3c50e0" flood-opacity="0.149"/>
      <feComposite operator="in" in2="blur-3"/>
      <feComposite in="SourceGraphic"/>
    </filter>
  </defs>
  <g id="feature-05" transform="translate(-56 -1528)">
    <g id="setting_1" data-name="setting 1" transform="translate(58 -76)">
      <g transform="matrix(1, 0, 0, 1, -2, 1604)" filter="url(#Rectangle_436)">
        <rect id="Rectangle_436-4" data-name="Rectangle 436" width="286" height="403" rx="10" transform="translate(336 25)" fill="#fff"/>
      </g>
      <g id="Login" transform="translate(323.898 -2570)">
        <rect id="Retângulo_Arredondado_5_copiar_4" data-name="Retângulo Arredondado 5 copiar 4" width="226" height="44" rx="5" transform="translate(40.102 4229)" fill="#3c50e0"/>
        <path id="Path_651" data-name="Path 651" d="M-17.347-1.455V-10.5h-1.575V0h6.8V-1.455ZM-6.877.18a3.907,3.907,0,0,0,4.02-4.005,3.9,3.9,0,0,0-4.02-3.99,3.907,3.907,0,0,0-4.035,3.99A3.91,3.91,0,0,0-6.877.18Zm0-1.365a2.488,2.488,0,0,1-2.5-2.64,2.484,2.484,0,0,1,2.5-2.625,2.472,2.472,0,0,1,2.49,2.625A2.477,2.477,0,0,1-6.877-1.185ZM4.658-7.635v.66a3.452,3.452,0,0,0-2.325-.84A3.839,3.839,0,0,0-1.522-3.9,3.836,3.836,0,0,0,2.318.015a3.464,3.464,0,0,0,2.34-.84v.69A2.1,2.1,0,0,1,2.3,2.085,4.052,4.052,0,0,1-.412.945l-.915,1.1A5.061,5.061,0,0,0,2.318,3.45c2.37,0,3.84-1.35,3.84-3.585v-7.5ZM2.5-1.35A2.452,2.452,0,0,1,.008-3.9,2.452,2.452,0,0,1,2.5-6.45a2.785,2.785,0,0,1,2.16,1.005v3.09A2.834,2.834,0,0,1,2.5-1.35Zm6.72-7.425a1.018,1.018,0,0,0,1.02-1,1.031,1.031,0,0,0-1.02-1.02A1.031,1.031,0,0,0,8.2-9.78,1.018,1.018,0,0,0,9.217-8.775ZM8.467,0h1.5V-7.635h-1.5Zm7.74-7.815a3.639,3.639,0,0,0-2.43.885v-.7h-1.5V0h1.5V-5.445a2.752,2.752,0,0,1,2.1-1.005c1.125,0,1.83.75,1.83,2.2V0h1.5V-4.56C19.208-6.645,17.978-7.815,16.208-7.815Z" transform="translate(153.102 4256)" fill="#fff"/>
        <line id="Line_30" data-name="Line 30" x2="225.5" transform="translate(40.602 4307.5)" fill="none" stroke="#8495c2" stroke-width="2" stroke-dasharray="6 5"/>
        <rect id="Rectangle_552" data-name="Rectangle 552" width="39" height="23" transform="translate(134.102 4296)" fill="#fff"/>
        <text id="or" transform="translate(153.102 4311)" fill="#8495c2" font-size="15" font-family="BRCandor-SemiBold, BR Candor" font-weight="600"><tspan x="-7.725" y="0">or</tspan></text>
      </g>
      <g id="Facebook" transform="translate(323.898 -2399)">
        <rect id="Retângulo_Arredondado_5_copiar_4-2" data-name="Retângulo Arredondado 5 copiar 4" width="226" height="44" rx="5" transform="translate(40.102 4229)" fill="#1773ea"/>
        <rect id="Retângulo_Arredondado_5_copiar_4-3" data-name="Retângulo Arredondado 5 copiar 4" width="36" height="36" rx="3" transform="translate(226.102 4233)" fill="#fff"/>
        <path id="Path_653" data-name="Path 653" d="M8.625-9.06V-10.5H1.365V0H2.94V-4.44H8.175V-5.88H2.94V-9.06Zm7.5,1.425v.645a3.529,3.529,0,0,0-2.34-.825,3.864,3.864,0,0,0-3.84,3.99A3.868,3.868,0,0,0,13.785.18a3.464,3.464,0,0,0,2.34-.84V0h1.5V-7.635ZM13.98-1.185a2.48,2.48,0,0,1-2.5-2.64,2.476,2.476,0,0,1,2.5-2.625,2.759,2.759,0,0,1,2.145,1.005V-2.19A2.759,2.759,0,0,1,13.98-1.185ZM23.445.18a3.975,3.975,0,0,0,3.4-1.77l-1.125-.825a2.784,2.784,0,0,1-2.265,1.23,2.491,2.491,0,0,1-2.475-2.64,2.476,2.476,0,0,1,2.46-2.625,2.609,2.609,0,0,1,2.13,1.17L26.76-6.2a3.977,3.977,0,0,0-3.3-1.62A3.949,3.949,0,0,0,19.44-3.78,3.858,3.858,0,0,0,23.445.18Zm12.3-4.26a3.555,3.555,0,0,0-3.75-3.735,3.911,3.911,0,0,0-4.065,4.05A3.8,3.8,0,0,0,31.995.18,4.123,4.123,0,0,0,35.5-1.545l-1.065-.81a2.874,2.874,0,0,1-2.415,1.23,2.4,2.4,0,0,1-2.58-2.34H35.7A3.813,3.813,0,0,0,35.745-4.08Zm-3.75-2.46A2.074,2.074,0,0,1,34.23-4.68h-4.7A2.355,2.355,0,0,1,31.995-6.54ZM41.43-7.815a3.436,3.436,0,0,0-2.34.84v-4.1h-1.5V0h1.5V-.675A3.375,3.375,0,0,0,41.43.18a3.859,3.859,0,0,0,3.84-4.005A3.855,3.855,0,0,0,41.43-7.815Zm-.195,6.63A2.782,2.782,0,0,1,39.09-2.19V-5.445A2.782,2.782,0,0,1,41.235-6.45,2.476,2.476,0,0,1,43.74-3.825,2.48,2.48,0,0,1,41.235-1.185ZM50.64.18a3.907,3.907,0,0,0,4.02-4.005,3.9,3.9,0,0,0-4.02-3.99A3.907,3.907,0,0,0,46.6-3.825,3.91,3.91,0,0,0,50.64.18Zm0-1.365a2.488,2.488,0,0,1-2.505-2.64A2.484,2.484,0,0,1,50.64-6.45a2.472,2.472,0,0,1,2.49,2.625A2.477,2.477,0,0,1,50.64-1.185ZM60.03.18a3.907,3.907,0,0,0,4.02-4.005,3.9,3.9,0,0,0-4.02-3.99,3.907,3.907,0,0,0-4.035,3.99A3.91,3.91,0,0,0,60.03.18Zm0-1.365a2.488,2.488,0,0,1-2.505-2.64A2.484,2.484,0,0,1,60.03-6.45a2.472,2.472,0,0,1,2.49,2.625A2.477,2.477,0,0,1,60.03-1.185ZM71.55,0h1.905L69.72-4.335l3.465-3.3h-1.9L67.38-3.96v-7.11h-1.5V0h1.5V-2.085L68.685-3.33Z" transform="translate(56.102 4256)" fill="#fff"/>
        <path id="Path_656" data-name="Path 656" d="M5.817-7.812l.694-4.524H2.17v-2.936a2.262,2.262,0,0,1,2.551-2.444H6.695v-3.852a24.069,24.069,0,0,0-3.5-.306c-3.575,0-5.912,2.167-5.912,6.09v3.448H-6.695v4.524h3.974V3.125H2.17V-7.812Z" transform="translate(244.102 4261)" fill="#1773ea"/>
      </g>
      <g id="Facebook-2" data-name="Facebook" transform="translate(323.898 -2335)">
        <rect id="Retângulo_Arredondado_5_copiar_4-4" data-name="Retângulo Arredondado 5 copiar 4" width="226" height="44" rx="5" transform="translate(40.102 4229)" fill="#299fe9"/>
        <rect id="Retângulo_Arredondado_5_copiar_4-5" data-name="Retângulo Arredondado 5 copiar 4" width="36" height="36" rx="3" transform="translate(226.102 4233)" fill="#fff"/>
        <path id="Path_654" data-name="Path 654" d="M8.88-10.5H.345v1.455h3.48V0H5.4V-9.045H8.88ZM20.19-7.635,18.285-2.01l-2.1-5.625h-1.38L12.69-2.01,10.785-7.635H9.21L11.85,0h1.515L15.5-5.7,17.61,0h1.53l2.64-7.635Zm3.78-1.14a1.018,1.018,0,0,0,1.02-1,1.031,1.031,0,0,0-1.02-1.02,1.031,1.031,0,0,0-1.02,1.02A1.018,1.018,0,0,0,23.97-8.775ZM23.22,0h1.5V-7.635h-1.5Zm8.625-1.455a3.5,3.5,0,0,1-1.23.24c-.945,0-1.4-.51-1.4-1.68v-3.45h2.6v-1.29h-2.6V-9.51h-1.5v1.875H26.055v1.29H27.72V-2.73c0,1.98.93,2.88,2.67,2.88A4.172,4.172,0,0,0,32.115-.2Zm6.585,0a3.5,3.5,0,0,1-1.23.24c-.945,0-1.4-.51-1.4-1.68v-3.45h2.6v-1.29h-2.6V-9.51h-1.5v1.875H32.64v1.29h1.665V-2.73c0,1.98.93,2.88,2.67,2.88A4.172,4.172,0,0,0,38.7-.2ZM47.4-4.08a3.555,3.555,0,0,0-3.75-3.735,3.911,3.911,0,0,0-4.065,4.05A3.8,3.8,0,0,0,43.65.18a4.123,4.123,0,0,0,3.51-1.725L46.1-2.355a2.874,2.874,0,0,1-2.415,1.23,2.4,2.4,0,0,1-2.58-2.34h6.255A3.813,3.813,0,0,0,47.4-4.08ZM43.65-6.54a2.074,2.074,0,0,1,2.235,1.86H41.19A2.355,2.355,0,0,1,43.65-6.54Zm9.3-1.275a2.708,2.708,0,0,0-2.205,1.08v-.9h-1.5V0h1.5V-5.13A2.406,2.406,0,0,1,52.92-6.42a3.15,3.15,0,0,1,.72.09l.1-1.38A3.136,3.136,0,0,0,52.95-7.815Z" transform="translate(56.102 4256)" fill="#fff"/>
        <path id="Path_657" data-name="Path 657" d="M22.43-14.467A11.014,11.014,0,0,0,25-17.116a10.272,10.272,0,0,1-2.95.793A5.11,5.11,0,0,0,24.3-19.147a10.087,10.087,0,0,1-3.252,1.237,5.112,5.112,0,0,0-3.744-1.618A5.121,5.121,0,0,0,12.183-14.4a5.784,5.784,0,0,0,.127,1.174A14.564,14.564,0,0,1,1.745-18.591a5.085,5.085,0,0,0-.7,2.586,5.12,5.12,0,0,0,2.284,4.267,5.16,5.16,0,0,1-2.316-.65v.063A5.124,5.124,0,0,0,5.124-7.3a5.418,5.418,0,0,1-1.348.174A6.458,6.458,0,0,1,2.808-7.2,5.133,5.133,0,0,0,7.6-3.648,10.262,10.262,0,0,1,1.237-1.459,10.6,10.6,0,0,1,0-1.523,14.479,14.479,0,0,0,7.868.777,14.478,14.478,0,0,0,22.446-13.8C22.446-14.023,22.446-14.245,22.43-14.467Z" transform="translate(232.102 4261)" fill="#299fe9"/>
      </g>
      <g id="Facebook-3" data-name="Facebook" transform="translate(323.898 -2271)">
        <rect id="Retângulo_Arredondado_5_copiar_4-6" data-name="Retângulo Arredondado 5 copiar 4" width="226" height="44" rx="5" transform="translate(40.102 4229)" fill="#2867b2"/>
        <rect id="Retângulo_Arredondado_5_copiar_4-7" data-name="Retângulo Arredondado 5 copiar 4" width="36" height="36" rx="3" transform="translate(226.102 4233)" fill="#fff"/>
        <path id="Path_655" data-name="Path 655" d="M2.94-1.455V-10.5H1.365V0h6.8V-1.455Zm7.68-7.32a1.018,1.018,0,0,0,1.02-1,1.031,1.031,0,0,0-1.02-1.02A1.031,1.031,0,0,0,9.6-9.78,1.018,1.018,0,0,0,10.62-8.775ZM9.87,0h1.5V-7.635H9.87Zm7.74-7.815a3.639,3.639,0,0,0-2.43.885v-.7h-1.5V0h1.5V-5.445a2.752,2.752,0,0,1,2.1-1.005c1.125,0,1.83.75,1.83,2.2V0h1.5V-4.56C20.61-6.645,19.38-7.815,17.61-7.815ZM28.515,0h1.9L26.685-4.335l3.465-3.3h-1.9l-3.9,3.675v-7.11h-1.5V0h1.5V-2.085l1.3-1.245Zm10.11-4.08a3.555,3.555,0,0,0-3.75-3.735,3.911,3.911,0,0,0-4.065,4.05A3.8,3.8,0,0,0,34.875.18a4.123,4.123,0,0,0,3.51-1.725l-1.065-.81A2.874,2.874,0,0,1,34.9-1.125a2.4,2.4,0,0,1-2.58-2.34H38.58A3.813,3.813,0,0,0,38.625-4.08Zm-3.75-2.46A2.074,2.074,0,0,1,37.11-4.68H32.415A2.355,2.355,0,0,1,34.875-6.54Zm11.28-4.53v4.08a3.529,3.529,0,0,0-2.34-.825,3.864,3.864,0,0,0-3.84,3.99A3.868,3.868,0,0,0,43.815.18a3.464,3.464,0,0,0,2.34-.84V0h1.5V-11.07ZM44.01-1.185A2.48,2.48,0,0,1,41.5-3.825,2.476,2.476,0,0,1,44.01-6.45a2.759,2.759,0,0,1,2.145,1.005V-2.19A2.759,2.759,0,0,1,44.01-1.185Zm6.7-7.59a1.018,1.018,0,0,0,1.02-1,1.031,1.031,0,0,0-1.02-1.02,1.031,1.031,0,0,0-1.02,1.02A1.018,1.018,0,0,0,50.715-8.775ZM49.965,0h1.5V-7.635h-1.5ZM57.7-7.815a3.639,3.639,0,0,0-2.43.885v-.7h-1.5V0h1.5V-5.445a2.752,2.752,0,0,1,2.1-1.005c1.125,0,1.83.75,1.83,2.2V0h1.5V-4.56C60.705-6.645,59.475-7.815,57.7-7.815Z" transform="translate(56.102 4256)" fill="#fff"/>
        <path id="Path_658" data-name="Path 658" d="M4.9,0V-14.6H.361V0ZM2.626-16.6a2.649,2.649,0,0,0,2.626-2.651,2.628,2.628,0,0,0-2.626-2.626A2.628,2.628,0,0,0,0-19.248,2.648,2.648,0,0,0,2.626-16.6ZM21.87,0h0V-8.022c0-3.926-.844-6.948-5.434-6.948a4.765,4.765,0,0,0-4.291,2.358h-.063V-14.6H7.737V0h4.53V-7.231c0-1.9.361-3.745,2.719-3.745,2.324,0,2.358,2.173,2.358,3.867V0Z" transform="translate(233.102 4261)" fill="#2867b2"/>
      </g>
      <g id="Facebook-4" data-name="Facebook" transform="translate(323.898 -2463)">
        <rect id="Retângulo_Arredondado_5_copiar_4-8" data-name="Retângulo Arredondado 5 copiar 4" width="226" height="44" rx="5" transform="translate(40.102 4229)" fill="#4285f4"/>
        <rect id="Retângulo_Arredondado_5_copiar_4-9" data-name="Retângulo Arredondado 5 copiar 4" width="36" height="36" rx="3" transform="translate(226.102 4233)" fill="#fff"/>
        <path id="Path_652" data-name="Path 652" d="M6.525-5.985V-4.59H9.21v2.475a5.181,5.181,0,0,1-2.865.84A3.728,3.728,0,0,1,2.355-5.22a3.732,3.732,0,0,1,3.81-4.005,3.7,3.7,0,0,1,3,1.41l1.275-.87A5.314,5.314,0,0,0,6.2-10.68,5.309,5.309,0,0,0,.75-5.19,5.227,5.227,0,0,0,6.285.18,7.17,7.17,0,0,0,10.71-1.35V-5.985ZM16.635.18a3.907,3.907,0,0,0,4.02-4.005,3.9,3.9,0,0,0-4.02-3.99A3.907,3.907,0,0,0,12.6-3.825,3.91,3.91,0,0,0,16.635.18Zm0-1.365a2.488,2.488,0,0,1-2.505-2.64A2.484,2.484,0,0,1,16.635-6.45a2.472,2.472,0,0,1,2.49,2.625A2.477,2.477,0,0,1,16.635-1.185ZM26.025.18a3.907,3.907,0,0,0,4.02-4.005,3.9,3.9,0,0,0-4.02-3.99,3.907,3.907,0,0,0-4.035,3.99A3.91,3.91,0,0,0,26.025.18Zm0-1.365a2.488,2.488,0,0,1-2.5-2.64,2.484,2.484,0,0,1,2.5-2.625,2.472,2.472,0,0,1,2.49,2.625A2.477,2.477,0,0,1,26.025-1.185ZM37.56-7.635v.66a3.452,3.452,0,0,0-2.325-.84A3.839,3.839,0,0,0,31.38-3.9,3.836,3.836,0,0,0,35.22.015a3.464,3.464,0,0,0,2.34-.84v.69A2.1,2.1,0,0,1,35.2,2.085,4.052,4.052,0,0,1,32.49.945l-.915,1.1A5.061,5.061,0,0,0,35.22,3.45c2.37,0,3.84-1.35,3.84-3.585v-7.5ZM35.4-1.35A2.452,2.452,0,0,1,32.91-3.9,2.452,2.452,0,0,1,35.4-6.45a2.785,2.785,0,0,1,2.16,1.005v3.09A2.834,2.834,0,0,1,35.4-1.35ZM41.37,0h1.5V-11.07h-1.5ZM52.5-4.08a3.555,3.555,0,0,0-3.75-3.735,3.911,3.911,0,0,0-4.065,4.05A3.8,3.8,0,0,0,48.75.18a4.123,4.123,0,0,0,3.51-1.725l-1.065-.81a2.874,2.874,0,0,1-2.415,1.23,2.4,2.4,0,0,1-2.58-2.34h6.255A3.813,3.813,0,0,0,52.5-4.08ZM48.75-6.54a2.074,2.074,0,0,1,2.235,1.86H46.29A2.355,2.355,0,0,1,48.75-6.54Z" transform="translate(56.102 4256)" fill="#fff"/>
        <g id="google-icon" transform="translate(232.599 4239.264)">
          <path id="Path_182" data-name="Path 182" d="M141.817,109.16a10.057,10.057,0,0,0-.248-2.4H130.55v4.355h6.468a5.735,5.735,0,0,1-2.4,3.808l-.022.146,3.484,2.7.241.024a11.475,11.475,0,0,0,3.495-8.633" transform="translate(-118.814 -97.163)" fill="#4285f4"/>
          <path id="Path_183" data-name="Path 183" d="M24.41,165.785a11.186,11.186,0,0,0,7.772-2.843l-3.7-2.869a6.946,6.946,0,0,1-4.069,1.174,7.065,7.065,0,0,1-6.677-4.877l-.138.012-3.623,2.8-.047.132a11.728,11.728,0,0,0,10.485,6.468" transform="translate(-12.673 -142.312)" fill="#34a853"/>
          <path id="Path_184" data-name="Path 184" d="M5.06,78.959a7.225,7.225,0,0,1-.391-2.321,7.593,7.593,0,0,1,.378-2.321l-.007-.156L1.372,71.312l-.12.057a11.712,11.712,0,0,0,0,10.537L5.06,78.959" transform="translate(0 -64.901)" fill="#fbbc05"/>
          <path id="Path_185" data-name="Path 185" d="M24.41,4.538a6.5,6.5,0,0,1,4.538,1.747L32.26,3.051A11.276,11.276,0,0,0,24.41,0,11.728,11.728,0,0,0,13.925,6.468L17.72,9.415a7.094,7.094,0,0,1,6.69-4.877" transform="translate(-12.673)" fill="#eb4335"/>
        </g>
      </g>
    </g>
    <g id="Google_fonts_customize_screen" data-name="Google fonts customize screen" transform="translate(-248 113)">
      <g transform="matrix(1, 0, 0, 1, 304, 1415)" filter="url(#Rectangle_436-2)">
        <rect id="Rectangle_436-5" data-name="Rectangle 436" width="286" height="186" rx="10" transform="translate(30 242)" fill="#fff"/>
      </g>
      <g id="Group_92" data-name="Group 92" transform="translate(447.999 1727.678)">
        <rect id="Rectangle_437" data-name="Rectangle 437" width="67" height="136" rx="2" transform="translate(-4 -45.678)" fill="#3c50e0" opacity="0.2"/>
        <g id="Group_91" data-name="Group 91" transform="translate(4.222 -35.446)">
          <rect id="Rectangle_439" data-name="Rectangle 439" width="49" height="10" rx="1" transform="translate(0.779 24.768)" fill="#fff" opacity="0.9"/>
          <rect id="Rectangle_440" data-name="Rectangle 440" width="49" height="10" rx="1" transform="translate(0.779 39.768)" fill="#fff" opacity="0.9"/>
          <rect id="Rectangle_441" data-name="Rectangle 441" width="31" height="10" rx="1" transform="translate(9.779 54.768)" fill="#ff5670"/>
          <rect id="Rectangle_438" data-name="Rectangle 438" width="17" height="17" rx="8.5" transform="translate(16.779 -0.231)" fill="#ff5670"/>
        </g>
        <g id="Socia_icons" data-name="Socia icons" transform="translate(583 -599.678) rotate(90)">
          <rect id="Rectangle_406" data-name="Rectangle 406" width="11" height="50" rx="1" transform="translate(641 528)" fill="#3c50e0"/>
          <rect id="Rectangle_407" data-name="Rectangle 407" width="11" height="50" rx="1" transform="translate(669 528)" fill="#ff5670"/>
          <rect id="Rectangle_408" data-name="Rectangle 408" width="11" height="50" rx="1" transform="translate(655 528)" fill="#29c3ff"/>
        </g>
        <line id="Line_29" data-name="Line 29" x2="49" transform="translate(5 35.822)" fill="none" stroke="#8495c2" stroke-width="1" stroke-dasharray="2 2"/>
      </g>
    </g>
    <g id="Google_fonts_customize_screen-2" data-name="Google fonts customize screen" transform="translate(-248 -104)">
      <g transform="matrix(1, 0, 0, 1, 304, 1632)" filter="url(#Rectangle_436-3)">
        <rect id="Rectangle_436-6" data-name="Rectangle 436" width="286" height="187" rx="10" transform="translate(30 25)" fill="#fff"/>
      </g>
      <g id="Group_92-2" data-name="Group 92" transform="translate(447.999 1753.678)">
        <rect id="Rectangle_437-2" data-name="Rectangle 437" width="67" height="85" rx="2" transform="translate(-4 -45.678)" fill="#3c50e0" opacity="0.2"/>
        <g id="Group_91-2" data-name="Group 91" transform="translate(4.222 -35.446)">
          <rect id="Rectangle_439-2" data-name="Rectangle 439" width="49" height="10" rx="1" transform="translate(0.779 24.768)" fill="#fff" opacity="0.9"/>
          <rect id="Rectangle_440-2" data-name="Rectangle 440" width="49" height="10" rx="1" transform="translate(0.779 39.768)" fill="#fff" opacity="0.9"/>
          <rect id="Rectangle_441-2" data-name="Rectangle 441" width="31" height="10" rx="1" transform="translate(9.779 54.768)" fill="#ff5670"/>
          <rect id="Rectangle_438-2" data-name="Rectangle 438" width="17" height="17" rx="8.5" transform="translate(16.779 -0.231)" fill="#ff5670"/>
        </g>
      </g>
    </g>
  </g>
</svg>
