<svg xmlns="http://www.w3.org/2000/svg" xmlns:xlink="http://www.w3.org/1999/xlink" width="652" height="526" viewBox="0 0 652 526">
  <defs>
    <filter id="Rectangle_436" x="306" y="0" width="346" height="526" filterUnits="userSpaceOnUse">
      <feOffset dy="5" input="SourceAlpha"/>
      <feGaussianBlur stdDeviation="10" result="blur"/>
      <feFlood flood-color="#3c50e0" flood-opacity="0.149"/>
      <feComposite operator="in" in2="blur"/>
      <feComposite in="SourceGraphic"/>
    </filter>
    <filter id="Rectangle_436-2" x="0" y="35" width="346" height="456" filterUnits="userSpaceOnUse">
      <feOffset dy="5" input="SourceAlpha"/>
      <feGaussianBlur stdDeviation="10" result="blur-2"/>
      <feFlood flood-color="#3c50e0" flood-opacity="0.149"/>
      <feComposite operator="in" in2="blur-2"/>
      <feComposite in="SourceGraphic"/>
    </filter>
  </defs>
  <g id="feature-13" transform="translate(-56 -1521)">
    <g id="logo_size" data-name="logo size" transform="translate(58 104)">
      <g transform="matrix(1, 0, 0, 1, -2, 1417)" filter="url(#Rectangle_436)">
        <rect id="Rectangle_436-3" data-name="Rectangle 436" width="286" height="466" rx="10" transform="translate(336 25)" fill="#fff"/>
      </g>
      <rect id="Rectangle_554" data-name="Rectangle 554" width="100" height="100" rx="20" transform="translate(427 1472)" fill="#fdb400"/>
      <rect id="Rectangle_555" data-name="Rectangle 555" width="236" height="52" rx="5" transform="translate(359 1672)" fill="#3a4fe0" opacity="0.1"/>
      <g id="Rectangle_558" data-name="Rectangle 558" transform="translate(359 1595)" fill="rgba(255,86,112,0.15)" stroke="rgba(123,134,163,0.3)" stroke-width="2">
        <rect width="236" height="52" rx="5" stroke="none"/>
        <rect x="1" y="1" width="234" height="50" rx="4" fill="none"/>
      </g>
      <path id="Rectangle_559" data-name="Rectangle 559" d="M5,0h7a0,0,0,0,1,0,0V52a0,0,0,0,1,0,0H5a5,5,0,0,1-5-5V5A5,5,0,0,1,5,0Z" transform="translate(359 1595)" fill="#ff5670"/>
      <rect id="Rectangle_556" data-name="Rectangle 556" width="236" height="52" rx="5" transform="translate(359 1749)" fill="#3a4fe0" opacity="0.1"/>
      <rect id="Rectangle_557" data-name="Rectangle 557" width="146" height="52" rx="5" transform="translate(404 1826)" fill="#ff5670"/>
      <path id="Path_715" data-name="Path 715" d="M4.575.18C6.99.18,8.475-1.1,8.475-3c0-1.44-.855-2.37-2.46-2.76l-2.055-.5C2.76-6.54,2.28-7.02,2.28-7.71c0-.885.78-1.545,2.16-1.545A3.772,3.772,0,0,1,7.185-8.13l1.05-1.095A5.439,5.439,0,0,0,4.47-10.68C2.2-10.68.705-9.375.705-7.62c0,1.365.9,2.325,2.49,2.715l2.055.5c1.125.27,1.635.78,1.635,1.515,0,.96-.855,1.65-2.265,1.65a5.1,5.1,0,0,1-3.165-1.2L.525-1.2A6.393,6.393,0,0,0,4.575.18ZM14,.18a3.907,3.907,0,0,0,4.02-4.005A3.9,3.9,0,0,0,14-7.815,3.907,3.907,0,0,0,9.96-3.825,3.91,3.91,0,0,0,14,.18Zm0-1.365a2.488,2.488,0,0,1-2.505-2.64A2.484,2.484,0,0,1,14-6.45a2.472,2.472,0,0,1,2.49,2.625A2.477,2.477,0,0,1,14-1.185Zm14.85-6.63a3.76,3.76,0,0,0-2.805,1.29,2.575,2.575,0,0,0-2.34-1.29,3.583,3.583,0,0,0-2.355.9v-.72h-1.5V0h1.5V-5.415a2.658,2.658,0,0,1,2.01-1.035c.96,0,1.62.7,1.62,2.115V0h1.5V-4.65a5.224,5.224,0,0,0-.045-.705A2.7,2.7,0,0,1,28.485-6.45c.96,0,1.62.7,1.62,2.115V0h1.5V-4.65C31.6-6.675,30.465-7.815,28.845-7.815ZM41.175-4.08a3.555,3.555,0,0,0-3.75-3.735,3.911,3.911,0,0,0-4.065,4.05A3.8,3.8,0,0,0,37.425.18a4.123,4.123,0,0,0,3.51-1.725l-1.065-.81a2.874,2.874,0,0,1-2.415,1.23,2.4,2.4,0,0,1-2.58-2.34H41.13A3.813,3.813,0,0,0,41.175-4.08Zm-3.75-2.46A2.074,2.074,0,0,1,39.66-4.68H34.965A2.355,2.355,0,0,1,37.425-6.54ZM47.76-1.455a3.5,3.5,0,0,1-1.23.24c-.945,0-1.4-.51-1.4-1.68v-3.45H47.73v-1.29H45.135V-9.51h-1.5v1.875H41.97v1.29h1.665V-2.73c0,1.98.93,2.88,2.67,2.88A4.172,4.172,0,0,0,48.03-.2Zm5.73-6.36a3.639,3.639,0,0,0-2.43.885v-4.14h-1.5V0h1.5V-5.445a2.752,2.752,0,0,1,2.1-1.005c1.125,0,1.83.75,1.83,2.2V0h1.5V-4.56C56.49-6.645,55.26-7.815,53.49-7.815Zm5.985-.96a1.018,1.018,0,0,0,1.02-1,1.031,1.031,0,0,0-1.02-1.02,1.031,1.031,0,0,0-1.02,1.02A1.018,1.018,0,0,0,59.475-8.775ZM58.725,0h1.5V-7.635h-1.5Zm7.74-7.815a3.639,3.639,0,0,0-2.43.885v-.7h-1.5V0h1.5V-5.445a2.752,2.752,0,0,1,2.1-1.005c1.125,0,1.83.75,1.83,2.2V0h1.5V-4.56C69.465-6.645,68.235-7.815,66.465-7.815Zm10.92.18v.66a3.452,3.452,0,0,0-2.325-.84A3.839,3.839,0,0,0,71.205-3.9,3.836,3.836,0,0,0,75.045.015a3.464,3.464,0,0,0,2.34-.84v.69a2.1,2.1,0,0,1-2.355,2.22A4.052,4.052,0,0,1,72.315.945L71.4,2.04a5.061,5.061,0,0,0,3.645,1.41c2.37,0,3.84-1.35,3.84-3.585v-7.5ZM75.225-1.35a2.452,2.452,0,0,1-2.49-2.55,2.452,2.452,0,0,1,2.49-2.55,2.785,2.785,0,0,1,2.16,1.005v3.09A2.834,2.834,0,0,1,75.225-1.35ZM94.83-7.635l-1.9,5.625-2.1-5.625h-1.38L87.33-2.01l-1.9-5.625H83.85L86.49,0h1.515l2.13-5.7L92.25,0h1.53l2.64-7.635ZM105.015-4.08a3.555,3.555,0,0,0-3.75-3.735A3.911,3.911,0,0,0,97.2-3.765,3.8,3.8,0,0,0,101.265.18a4.123,4.123,0,0,0,3.51-1.725l-1.065-.81a2.874,2.874,0,0,1-2.415,1.23,2.4,2.4,0,0,1-2.58-2.34h6.255A3.813,3.813,0,0,0,105.015-4.08Zm-3.75-2.46A2.074,2.074,0,0,1,103.5-4.68H98.805A2.355,2.355,0,0,1,101.265-6.54Zm9.525-1.275a3.639,3.639,0,0,0-2.43.885v-.7h-1.5V0h1.5V-5.445a2.752,2.752,0,0,1,2.1-1.005c1.125,0,1.83.75,1.83,2.2V0h1.5V-4.56C113.79-6.645,112.56-7.815,110.79-7.815Zm9.99,6.36a3.5,3.5,0,0,1-1.23.24c-.945,0-1.395-.51-1.395-1.68v-3.45h2.6v-1.29h-2.6V-9.51h-1.5v1.875H114.99v1.29h1.665V-2.73c0,1.98.93,2.88,2.67,2.88A4.172,4.172,0,0,0,121.05-.2Zm15.435-6.18-1.9,5.625-2.1-5.625h-1.38L128.715-2.01l-1.9-5.625h-1.575L127.875,0h1.515l2.13-5.7L133.635,0h1.53l2.64-7.635Zm6.735-.18a2.708,2.708,0,0,0-2.205,1.08v-.9h-1.5V0h1.5V-5.13a2.406,2.406,0,0,1,2.175-1.29,3.15,3.15,0,0,1,.72.09l.1-1.38A3.136,3.136,0,0,0,142.95-7.815Zm5.565,8a3.907,3.907,0,0,0,4.02-4.005,3.9,3.9,0,0,0-4.02-3.99,3.907,3.907,0,0,0-4.035,3.99A3.91,3.91,0,0,0,148.515.18Zm0-1.365a2.488,2.488,0,0,1-2.505-2.64,2.484,2.484,0,0,1,2.505-2.625A2.472,2.472,0,0,1,151-3.825,2.477,2.477,0,0,1,148.515-1.185Zm9.78-6.63a3.639,3.639,0,0,0-2.43.885v-.7h-1.5V0h1.5V-5.445a2.752,2.752,0,0,1,2.1-1.005c1.125,0,1.83.75,1.83,2.2V0h1.5V-4.56C161.295-6.645,160.065-7.815,158.295-7.815Zm10.92.18v.66a3.452,3.452,0,0,0-2.325-.84A3.839,3.839,0,0,0,163.035-3.9a3.836,3.836,0,0,0,3.84,3.915,3.464,3.464,0,0,0,2.34-.84v.69a2.1,2.1,0,0,1-2.355,2.22,4.052,4.052,0,0,1-2.715-1.14l-.915,1.1a5.061,5.061,0,0,0,3.645,1.41c2.37,0,3.84-1.35,3.84-3.585v-7.5Zm-2.16,6.285a2.452,2.452,0,0,1-2.49-2.55,2.452,2.452,0,0,1,2.49-2.55,2.785,2.785,0,0,1,2.16,1.005v3.09A2.834,2.834,0,0,1,167.055-1.35Zm6.51,1.455a1.017,1.017,0,0,0,1.05-1.05A1.025,1.025,0,0,0,173.565-2a1.025,1.025,0,0,0-1.05,1.05A1.017,1.017,0,0,0,173.565.105Z" transform="translate(386 1626)" fill="#07003b"/>
    </g>
    <g id="setting_1" data-name="setting 1" transform="translate(-248 -48)">
      <g transform="matrix(1, 0, 0, 1, 304, 1569)" filter="url(#Rectangle_436-2)">
        <rect id="Rectangle_436-4" data-name="Rectangle 436" width="286" height="396" rx="10" transform="translate(30 60)" fill="#fff"/>
      </g>
      <g id="Height" transform="translate(0 -42)">
        <g id="radio" transform="translate(-174.558 40)">
          <g id="Rectangle_535" data-name="Rectangle 535" transform="translate(533.558 1690)" fill="rgba(60,80,224,0.03)" stroke="rgba(60,80,224,0.4)" stroke-width="2">
            <rect width="236" height="40" rx="5" stroke="none"/>
            <rect x="1" y="1" width="234" height="38" rx="4" fill="none"/>
          </g>
          <path id="Path_708" data-name="Path 708" d="M8.05-8.162V-9.8H1.176V0H8.05V-1.638H2.94V-4.27H7.392V-5.894H2.94V-8.162Zm5.5.826a2.51,2.51,0,0,0-1.988.938v-.77H9.884V0h1.68V-4.662a2.238,2.238,0,0,1,1.974-1.092,3.907,3.907,0,0,1,.658.07l.1-1.554A2.927,2.927,0,0,0,13.552-7.336Zm5.67,0a2.51,2.51,0,0,0-1.988.938v-.77h-1.68V0h1.68V-4.662a2.238,2.238,0,0,1,1.974-1.092,3.907,3.907,0,0,1,.658.07l.1-1.554A2.927,2.927,0,0,0,19.222-7.336Zm5.194,7.5A3.668,3.668,0,0,0,28.21-3.584a3.66,3.66,0,0,0-3.794-3.752,3.672,3.672,0,0,0-3.808,3.752A3.68,3.68,0,0,0,24.416.168Zm0-1.54a2.075,2.075,0,0,1-2.1-2.212,2.064,2.064,0,0,1,2.1-2.2,2.061,2.061,0,0,1,2.086,2.2A2.072,2.072,0,0,1,24.416-1.372ZM33.46-7.336a2.51,2.51,0,0,0-1.988.938v-.77h-1.68V0h1.68V-4.662a2.238,2.238,0,0,1,1.974-1.092,3.907,3.907,0,0,1,.658.07l.1-1.554A2.927,2.927,0,0,0,33.46-7.336ZM48.034-9.8,44.646-2.548,41.244-9.8H39.06V0H40.8V-6.972L43.932-.28h1.414l3.122-6.664V0h1.75V-9.8ZM59.36-3.794A3.354,3.354,0,0,0,55.8-7.336a3.684,3.684,0,0,0-3.836,3.808,3.577,3.577,0,0,0,3.85,3.7A3.966,3.966,0,0,0,59.136-1.4L57.96-2.3a2.6,2.6,0,0,1-2.114,1.022,2.019,2.019,0,0,1-2.2-1.89h5.67A4.608,4.608,0,0,0,59.36-3.794ZM55.79-5.922a1.719,1.719,0,0,1,1.876,1.5H53.732A1.971,1.971,0,0,1,55.79-5.922Zm7.9,6.09c1.876,0,2.954-.924,2.954-2.324,0-1.022-.588-1.68-2.044-2.016L63.35-4.466c-.77-.182-.994-.378-.994-.7,0-.434.392-.728,1.148-.728a3.416,3.416,0,0,1,2.128.8l.91-1.19a4.4,4.4,0,0,0-2.968-1.05c-1.778,0-2.87.924-2.87,2.282,0,.994.588,1.624,2.03,1.96L63.98-2.8c.742.168.994.42.994.756,0,.448-.448.77-1.232.77a3.953,3.953,0,0,1-2.366-.868l-.868,1.26A5.036,5.036,0,0,0,63.686.168Zm7.14,0c1.876,0,2.954-.924,2.954-2.324,0-1.022-.588-1.68-2.044-2.016L70.49-4.466c-.77-.182-.994-.378-.994-.7,0-.434.392-.728,1.148-.728a3.416,3.416,0,0,1,2.128.8l.91-1.19a4.4,4.4,0,0,0-2.968-1.05c-1.778,0-2.87.924-2.87,2.282,0,.994.588,1.624,2.03,1.96L71.12-2.8c.742.168.994.42.994.756,0,.448-.448.77-1.232.77a3.953,3.953,0,0,1-2.366-.868l-.868,1.26A5.036,5.036,0,0,0,70.826.168Zm9.688-7.336v.546a3.2,3.2,0,0,0-2.058-.714,3.6,3.6,0,0,0-3.57,3.752A3.6,3.6,0,0,0,78.456.168a3.2,3.2,0,0,0,2.058-.714V0h1.68V-7.168Zm-1.806,5.8a2.078,2.078,0,0,1-2.114-2.212,2.067,2.067,0,0,1,2.114-2.2,2.315,2.315,0,0,1,1.806.826v2.744A2.329,2.329,0,0,1,78.708-1.372Zm10.71-5.8v.56a3.143,3.143,0,0,0-2.072-.728A3.566,3.566,0,0,0,83.79-3.682,3.538,3.538,0,0,0,87.346-.07a3.132,3.132,0,0,0,2.072-.714v.6a1.793,1.793,0,0,1-2.03,1.862A3.74,3.74,0,0,1,84.938.658L83.93,1.89a4.938,4.938,0,0,0,3.486,1.33c2.268,0,3.682-1.274,3.682-3.4V-7.168ZM87.584-1.582a2.026,2.026,0,0,1-2.086-2.1A2.03,2.03,0,0,1,87.584-5.8a2.406,2.406,0,0,1,1.834.84v2.534A2.406,2.406,0,0,1,87.584-1.582Zm12.488-2.212a3.354,3.354,0,0,0-3.556-3.542A3.684,3.684,0,0,0,92.68-3.528a3.577,3.577,0,0,0,3.85,3.7A3.966,3.966,0,0,0,99.848-1.4l-1.176-.9a2.6,2.6,0,0,1-2.114,1.022,2.019,2.019,0,0,1-2.2-1.89h5.67A4.608,4.608,0,0,0,100.072-3.794ZM96.5-5.922a1.719,1.719,0,0,1,1.876,1.5H94.444A1.971,1.971,0,0,1,96.5-5.922Z" transform="translate(550.559 1715)" fill="#07003b" opacity="0.3"/>
        </g>
        <path id="Path_707" data-name="Path 707" d="M1.176,0H2.94V-9.8H1.176ZM8.988-7.336a3.431,3.431,0,0,0-2.184.77v-.6H5.124V0H6.8V-4.942a2.3,2.3,0,0,1,1.764-.84c.938,0,1.526.616,1.526,1.848V0h1.68V-4.3A2.713,2.713,0,0,0,8.988-7.336Zm8.078,7.5a3.806,3.806,0,0,0,3.248-1.68L19.068-2.45a2.446,2.446,0,0,1-1.974,1.078,2.08,2.08,0,0,1-2.086-2.212,2.066,2.066,0,0,1,2.072-2.2A2.206,2.206,0,0,1,18.914-4.76L20.23-5.8a3.785,3.785,0,0,0-3.136-1.54,3.706,3.706,0,0,0-3.808,3.794A3.623,3.623,0,0,0,17.066.168Zm7.952,0a3.668,3.668,0,0,0,3.794-3.752,3.66,3.66,0,0,0-3.794-3.752A3.672,3.672,0,0,0,21.21-3.584,3.68,3.68,0,0,0,25.018.168Zm0-1.54a2.075,2.075,0,0,1-2.1-2.212,2.064,2.064,0,0,1,2.1-2.2,2.061,2.061,0,0,1,2.086,2.2A2.072,2.072,0,0,1,25.018-1.372Zm9.044-5.964a2.51,2.51,0,0,0-1.988.938v-.77h-1.68V0h1.68V-4.662a2.238,2.238,0,0,1,1.974-1.092,3.907,3.907,0,0,1,.658.07l.1-1.554A2.927,2.927,0,0,0,34.062-7.336Zm5.67,0a2.51,2.51,0,0,0-1.988.938v-.77h-1.68V0h1.68V-4.662a2.238,2.238,0,0,1,1.974-1.092,3.907,3.907,0,0,1,.658.07l.1-1.554A2.927,2.927,0,0,0,39.732-7.336ZM48.51-3.794a3.354,3.354,0,0,0-3.556-3.542,3.684,3.684,0,0,0-3.836,3.808,3.577,3.577,0,0,0,3.85,3.7A3.966,3.966,0,0,0,48.286-1.4L47.11-2.3A2.6,2.6,0,0,1,45-1.274a2.019,2.019,0,0,1-2.2-1.89h5.67A4.608,4.608,0,0,0,48.51-3.794ZM44.94-5.922a1.719,1.719,0,0,1,1.876,1.5H42.882A1.971,1.971,0,0,1,44.94-5.922ZM53.466.168a3.806,3.806,0,0,0,3.248-1.68L55.468-2.45a2.446,2.446,0,0,1-1.974,1.078,2.08,2.08,0,0,1-2.086-2.212,2.066,2.066,0,0,1,2.072-2.2A2.206,2.206,0,0,1,55.314-4.76L56.63-5.8a3.785,3.785,0,0,0-3.136-1.54,3.706,3.706,0,0,0-3.808,3.794A3.623,3.623,0,0,0,53.466.168ZM62.832-1.6a3.76,3.76,0,0,1-1.092.2c-.826,0-1.218-.434-1.218-1.442V-5.7H62.8v-1.47H60.522V-8.876h-1.68v1.708h-1.47V-5.7h1.47v3.052c0,1.918.882,2.786,2.59,2.786A3.934,3.934,0,0,0,63.07-.182ZM72,.168A3.745,3.745,0,0,0,76.1-3.92V-9.8H74.326v5.7c0,1.764-.854,2.6-2.324,2.6s-2.338-.84-2.338-2.6V-9.8H67.9v5.88A3.739,3.739,0,0,0,72,.168Zm9,0c1.876,0,2.954-.924,2.954-2.324,0-1.022-.588-1.68-2.044-2.016l-1.246-.294c-.77-.182-.994-.378-.994-.7,0-.434.392-.728,1.148-.728a3.416,3.416,0,0,1,2.128.8l.91-1.19a4.4,4.4,0,0,0-2.968-1.05c-1.778,0-2.87.924-2.87,2.282,0,.994.588,1.624,2.03,1.96L81.3-2.8c.742.168.994.42.994.756,0,.448-.448.77-1.232.77a3.953,3.953,0,0,1-2.366-.868l-.868,1.26A5.036,5.036,0,0,0,81,.168ZM92.456-3.794A3.354,3.354,0,0,0,88.9-7.336a3.684,3.684,0,0,0-3.836,3.808,3.577,3.577,0,0,0,3.85,3.7A3.966,3.966,0,0,0,92.232-1.4l-1.176-.9a2.6,2.6,0,0,1-2.114,1.022,2.019,2.019,0,0,1-2.2-1.89h5.67A4.608,4.608,0,0,0,92.456-3.794Zm-3.57-2.128a1.719,1.719,0,0,1,1.876,1.5H86.828A1.971,1.971,0,0,1,88.886-5.922Zm8.848-1.414a2.51,2.51,0,0,0-1.988.938v-.77h-1.68V0h1.68V-4.662A2.238,2.238,0,0,1,97.72-5.754a3.907,3.907,0,0,1,.658.07l.1-1.554A2.927,2.927,0,0,0,97.734-7.336ZM110.026-9.8v6.9L105.14-9.8h-1.806V0H105.1V-6.916L109.984,0h1.806V-9.8Zm9.142,2.632v.546a3.2,3.2,0,0,0-2.058-.714,3.6,3.6,0,0,0-3.57,3.752A3.6,3.6,0,0,0,117.11.168a3.2,3.2,0,0,0,2.058-.714V0h1.68V-7.168Zm-1.806,5.8a2.078,2.078,0,0,1-2.114-2.212,2.067,2.067,0,0,1,2.114-2.2,2.315,2.315,0,0,1,1.806.826v2.744A2.329,2.329,0,0,1,117.362-1.372Zm14.014-5.964a3.576,3.576,0,0,0-2.562,1.148,2.388,2.388,0,0,0-2.142-1.148,3.3,3.3,0,0,0-2.114.784v-.616h-1.68V0h1.68V-4.928a2.314,2.314,0,0,1,1.68-.854c.8,0,1.344.574,1.344,1.778V0h1.68V-4.368c0-.182-.014-.35-.028-.518a2.26,2.26,0,0,1,1.708-.9c.8,0,1.344.574,1.344,1.778V0h1.68V-4.368C133.966-6.258,132.9-7.336,131.376-7.336ZM142.87-3.794a3.354,3.354,0,0,0-3.556-3.542,3.684,3.684,0,0,0-3.836,3.808,3.577,3.577,0,0,0,3.85,3.7A3.966,3.966,0,0,0,142.646-1.4l-1.176-.9a2.6,2.6,0,0,1-2.114,1.022,2.019,2.019,0,0,1-2.2-1.89h5.67A4.608,4.608,0,0,0,142.87-3.794ZM139.3-5.922a1.719,1.719,0,0,1,1.876,1.5h-3.934A1.971,1.971,0,0,1,139.3-5.922Z" transform="translate(359 1712)" fill="#07003b"/>
      </g>
      <g id="Height-2" data-name="Height" transform="translate(0 47)">
        <g id="radio-2" data-name="radio" transform="translate(-174.558 40)">
          <g id="Rectangle_535-2" data-name="Rectangle 535" transform="translate(533.558 1690)" fill="rgba(60,80,224,0.03)" stroke="rgba(60,80,224,0.4)" stroke-width="2">
            <rect width="236" height="40" rx="5" stroke="none"/>
            <rect x="1" y="1" width="234" height="38" rx="4" fill="none"/>
          </g>
          <path id="Path_710" data-name="Path 710" d="M8.05-8.162V-9.8H1.176V0H8.05V-1.638H2.94V-4.27H7.392V-5.894H2.94V-8.162Zm5.5.826a2.51,2.51,0,0,0-1.988.938v-.77H9.884V0h1.68V-4.662a2.238,2.238,0,0,1,1.974-1.092,3.907,3.907,0,0,1,.658.07l.1-1.554A2.927,2.927,0,0,0,13.552-7.336Zm5.67,0a2.51,2.51,0,0,0-1.988.938v-.77h-1.68V0h1.68V-4.662a2.238,2.238,0,0,1,1.974-1.092,3.907,3.907,0,0,1,.658.07l.1-1.554A2.927,2.927,0,0,0,19.222-7.336Zm5.194,7.5A3.668,3.668,0,0,0,28.21-3.584a3.66,3.66,0,0,0-3.794-3.752,3.672,3.672,0,0,0-3.808,3.752A3.68,3.68,0,0,0,24.416.168Zm0-1.54a2.075,2.075,0,0,1-2.1-2.212,2.064,2.064,0,0,1,2.1-2.2,2.061,2.061,0,0,1,2.086,2.2A2.072,2.072,0,0,1,24.416-1.372ZM33.46-7.336a2.51,2.51,0,0,0-1.988.938v-.77h-1.68V0h1.68V-4.662a2.238,2.238,0,0,1,1.974-1.092,3.907,3.907,0,0,1,.658.07l.1-1.554A2.927,2.927,0,0,0,33.46-7.336ZM48.034-9.8,44.646-2.548,41.244-9.8H39.06V0H40.8V-6.972L43.932-.28h1.414l3.122-6.664V0h1.75V-9.8ZM59.36-3.794A3.354,3.354,0,0,0,55.8-7.336a3.684,3.684,0,0,0-3.836,3.808,3.577,3.577,0,0,0,3.85,3.7A3.966,3.966,0,0,0,59.136-1.4L57.96-2.3a2.6,2.6,0,0,1-2.114,1.022,2.019,2.019,0,0,1-2.2-1.89h5.67A4.608,4.608,0,0,0,59.36-3.794ZM55.79-5.922a1.719,1.719,0,0,1,1.876,1.5H53.732A1.971,1.971,0,0,1,55.79-5.922Zm7.9,6.09c1.876,0,2.954-.924,2.954-2.324,0-1.022-.588-1.68-2.044-2.016L63.35-4.466c-.77-.182-.994-.378-.994-.7,0-.434.392-.728,1.148-.728a3.416,3.416,0,0,1,2.128.8l.91-1.19a4.4,4.4,0,0,0-2.968-1.05c-1.778,0-2.87.924-2.87,2.282,0,.994.588,1.624,2.03,1.96L63.98-2.8c.742.168.994.42.994.756,0,.448-.448.77-1.232.77a3.953,3.953,0,0,1-2.366-.868l-.868,1.26A5.036,5.036,0,0,0,63.686.168Zm7.14,0c1.876,0,2.954-.924,2.954-2.324,0-1.022-.588-1.68-2.044-2.016L70.49-4.466c-.77-.182-.994-.378-.994-.7,0-.434.392-.728,1.148-.728a3.416,3.416,0,0,1,2.128.8l.91-1.19a4.4,4.4,0,0,0-2.968-1.05c-1.778,0-2.87.924-2.87,2.282,0,.994.588,1.624,2.03,1.96L71.12-2.8c.742.168.994.42.994.756,0,.448-.448.77-1.232.77a3.953,3.953,0,0,1-2.366-.868l-.868,1.26A5.036,5.036,0,0,0,70.826.168Zm9.688-7.336v.546a3.2,3.2,0,0,0-2.058-.714,3.6,3.6,0,0,0-3.57,3.752A3.6,3.6,0,0,0,78.456.168a3.2,3.2,0,0,0,2.058-.714V0h1.68V-7.168Zm-1.806,5.8a2.078,2.078,0,0,1-2.114-2.212,2.067,2.067,0,0,1,2.114-2.2,2.315,2.315,0,0,1,1.806.826v2.744A2.329,2.329,0,0,1,78.708-1.372Zm10.71-5.8v.56a3.143,3.143,0,0,0-2.072-.728A3.566,3.566,0,0,0,83.79-3.682,3.538,3.538,0,0,0,87.346-.07a3.132,3.132,0,0,0,2.072-.714v.6a1.793,1.793,0,0,1-2.03,1.862A3.74,3.74,0,0,1,84.938.658L83.93,1.89a4.938,4.938,0,0,0,3.486,1.33c2.268,0,3.682-1.274,3.682-3.4V-7.168ZM87.584-1.582a2.026,2.026,0,0,1-2.086-2.1A2.03,2.03,0,0,1,87.584-5.8a2.406,2.406,0,0,1,1.834.84v2.534A2.406,2.406,0,0,1,87.584-1.582Zm12.488-2.212a3.354,3.354,0,0,0-3.556-3.542A3.684,3.684,0,0,0,92.68-3.528a3.577,3.577,0,0,0,3.85,3.7A3.966,3.966,0,0,0,99.848-1.4l-1.176-.9a2.6,2.6,0,0,1-2.114,1.022,2.019,2.019,0,0,1-2.2-1.89h5.67A4.608,4.608,0,0,0,100.072-3.794ZM96.5-5.922a1.719,1.719,0,0,1,1.876,1.5H94.444A1.971,1.971,0,0,1,96.5-5.922Z" transform="translate(550.559 1715)" fill="#07003b" opacity="0.3"/>
        </g>
        <path id="Path_709" data-name="Path 709" d="M1.176,0H2.94V-9.8H1.176ZM8.988-7.336a3.431,3.431,0,0,0-2.184.77v-.6H5.124V0H6.8V-4.942a2.3,2.3,0,0,1,1.764-.84c.938,0,1.526.616,1.526,1.848V0h1.68V-4.3A2.713,2.713,0,0,0,8.988-7.336Zm8.078,7.5a3.806,3.806,0,0,0,3.248-1.68L19.068-2.45a2.446,2.446,0,0,1-1.974,1.078,2.08,2.08,0,0,1-2.086-2.212,2.066,2.066,0,0,1,2.072-2.2A2.206,2.206,0,0,1,18.914-4.76L20.23-5.8a3.785,3.785,0,0,0-3.136-1.54,3.706,3.706,0,0,0-3.808,3.794A3.623,3.623,0,0,0,17.066.168Zm7.952,0a3.668,3.668,0,0,0,3.794-3.752,3.66,3.66,0,0,0-3.794-3.752A3.672,3.672,0,0,0,21.21-3.584,3.68,3.68,0,0,0,25.018.168Zm0-1.54a2.075,2.075,0,0,1-2.1-2.212,2.064,2.064,0,0,1,2.1-2.2,2.061,2.061,0,0,1,2.086,2.2A2.072,2.072,0,0,1,25.018-1.372Zm9.044-5.964a2.51,2.51,0,0,0-1.988.938v-.77h-1.68V0h1.68V-4.662a2.238,2.238,0,0,1,1.974-1.092,3.907,3.907,0,0,1,.658.07l.1-1.554A2.927,2.927,0,0,0,34.062-7.336Zm5.67,0a2.51,2.51,0,0,0-1.988.938v-.77h-1.68V0h1.68V-4.662a2.238,2.238,0,0,1,1.974-1.092,3.907,3.907,0,0,1,.658.07l.1-1.554A2.927,2.927,0,0,0,39.732-7.336ZM48.51-3.794a3.354,3.354,0,0,0-3.556-3.542,3.684,3.684,0,0,0-3.836,3.808,3.577,3.577,0,0,0,3.85,3.7A3.966,3.966,0,0,0,48.286-1.4L47.11-2.3A2.6,2.6,0,0,1,45-1.274a2.019,2.019,0,0,1-2.2-1.89h5.67A4.608,4.608,0,0,0,48.51-3.794ZM44.94-5.922a1.719,1.719,0,0,1,1.876,1.5H42.882A1.971,1.971,0,0,1,44.94-5.922ZM53.466.168a3.806,3.806,0,0,0,3.248-1.68L55.468-2.45a2.446,2.446,0,0,1-1.974,1.078,2.08,2.08,0,0,1-2.086-2.212,2.066,2.066,0,0,1,2.072-2.2A2.206,2.206,0,0,1,55.314-4.76L56.63-5.8a3.785,3.785,0,0,0-3.136-1.54,3.706,3.706,0,0,0-3.808,3.794A3.623,3.623,0,0,0,53.466.168ZM62.832-1.6a3.76,3.76,0,0,1-1.092.2c-.826,0-1.218-.434-1.218-1.442V-5.7H62.8v-1.47H60.522V-8.876h-1.68v1.708h-1.47V-5.7h1.47v3.052c0,1.918.882,2.786,2.59,2.786A3.934,3.934,0,0,0,63.07-.182Zm9.086-8.2H68.012V0h1.764V-3.542h2.142c2.184,0,3.514-1.176,3.514-3.136S74.1-9.8,71.918-9.8Zm-.14,4.606h-2V-8.148h2c1.26,0,1.848.518,1.848,1.47S73.038-5.194,71.778-5.194ZM82.152-7.168v.546a3.2,3.2,0,0,0-2.058-.714,3.6,3.6,0,0,0-3.57,3.752A3.6,3.6,0,0,0,80.094.168a3.2,3.2,0,0,0,2.058-.714V0h1.68V-7.168Zm-1.806,5.8a2.078,2.078,0,0,1-2.114-2.212,2.067,2.067,0,0,1,2.114-2.2,2.315,2.315,0,0,1,1.806.826v2.744A2.329,2.329,0,0,1,80.346-1.372Zm8.2,1.54c1.876,0,2.954-.924,2.954-2.324,0-1.022-.588-1.68-2.044-2.016l-1.246-.294c-.77-.182-.994-.378-.994-.7,0-.434.392-.728,1.148-.728a3.416,3.416,0,0,1,2.128.8l.91-1.19a4.4,4.4,0,0,0-2.968-1.05c-1.778,0-2.87.924-2.87,2.282,0,.994.588,1.624,2.03,1.96l1.246.294c.742.168.994.42.994.756,0,.448-.448.77-1.232.77a3.953,3.953,0,0,1-2.366-.868l-.868,1.26A5.036,5.036,0,0,0,88.55.168Zm7.14,0c1.876,0,2.954-.924,2.954-2.324,0-1.022-.588-1.68-2.044-2.016l-1.246-.294c-.77-.182-.994-.378-.994-.7,0-.434.392-.728,1.148-.728a3.416,3.416,0,0,1,2.128.8l.91-1.19a4.4,4.4,0,0,0-2.968-1.05c-1.778,0-2.87.924-2.87,2.282,0,.994.588,1.624,2.03,1.96l1.246.294c.742.168.994.42.994.756,0,.448-.448.77-1.232.77a3.953,3.953,0,0,1-2.366-.868l-.868,1.26A5.036,5.036,0,0,0,95.69.168Zm13.776-7.336-1.6,4.9-1.778-4.9H104.51L102.732-2.24l-1.6-4.928H99.358L101.766,0H103.5l1.806-5.012L107.114,0h1.722l2.422-7.168ZM115.7.168a3.668,3.668,0,0,0,3.794-3.752A3.66,3.66,0,0,0,115.7-7.336a3.672,3.672,0,0,0-3.808,3.752A3.68,3.68,0,0,0,115.7.168Zm0-1.54a2.075,2.075,0,0,1-2.1-2.212,2.064,2.064,0,0,1,2.1-2.2,2.061,2.061,0,0,1,2.086,2.2A2.072,2.072,0,0,1,115.7-1.372Zm9.044-5.964a2.51,2.51,0,0,0-1.988.938v-.77h-1.68V0h1.68V-4.662a2.238,2.238,0,0,1,1.974-1.092,3.907,3.907,0,0,1,.658.07l.1-1.554A2.927,2.927,0,0,0,124.74-7.336Zm7.014-3v3.71a3.2,3.2,0,0,0-2.058-.714,3.6,3.6,0,0,0-3.57,3.752A3.6,3.6,0,0,0,129.7.168a3.2,3.2,0,0,0,2.058-.714V0h1.68V-10.332Zm-1.806,8.96a2.078,2.078,0,0,1-2.114-2.212,2.067,2.067,0,0,1,2.114-2.2,2.315,2.315,0,0,1,1.806.826v2.744A2.329,2.329,0,0,1,129.948-1.372Z" transform="translate(359 1712)" fill="#07003b"/>
      </g>
      <g id="Height-3" data-name="Height" transform="translate(0 136)">
        <g id="radio-3" data-name="radio" transform="translate(-174.558 40)">
          <g id="Rectangle_535-3" data-name="Rectangle 535" transform="translate(533.558 1690)" fill="rgba(60,80,224,0.03)" stroke="rgba(60,80,224,0.4)" stroke-width="2">
            <rect width="236" height="40" rx="5" stroke="none"/>
            <rect x="1" y="1" width="234" height="38" rx="4" fill="none"/>
          </g>
          <path id="Path_712" data-name="Path 712" d="M8.05-8.162V-9.8H1.176V0H8.05V-1.638H2.94V-4.27H7.392V-5.894H2.94V-8.162Zm5.5.826a2.51,2.51,0,0,0-1.988.938v-.77H9.884V0h1.68V-4.662a2.238,2.238,0,0,1,1.974-1.092,3.907,3.907,0,0,1,.658.07l.1-1.554A2.927,2.927,0,0,0,13.552-7.336Zm5.67,0a2.51,2.51,0,0,0-1.988.938v-.77h-1.68V0h1.68V-4.662a2.238,2.238,0,0,1,1.974-1.092,3.907,3.907,0,0,1,.658.07l.1-1.554A2.927,2.927,0,0,0,19.222-7.336Zm5.194,7.5A3.668,3.668,0,0,0,28.21-3.584a3.66,3.66,0,0,0-3.794-3.752,3.672,3.672,0,0,0-3.808,3.752A3.68,3.68,0,0,0,24.416.168Zm0-1.54a2.075,2.075,0,0,1-2.1-2.212,2.064,2.064,0,0,1,2.1-2.2,2.061,2.061,0,0,1,2.086,2.2A2.072,2.072,0,0,1,24.416-1.372ZM33.46-7.336a2.51,2.51,0,0,0-1.988.938v-.77h-1.68V0h1.68V-4.662a2.238,2.238,0,0,1,1.974-1.092,3.907,3.907,0,0,1,.658.07l.1-1.554A2.927,2.927,0,0,0,33.46-7.336ZM48.034-9.8,44.646-2.548,41.244-9.8H39.06V0H40.8V-6.972L43.932-.28h1.414l3.122-6.664V0h1.75V-9.8ZM59.36-3.794A3.354,3.354,0,0,0,55.8-7.336a3.684,3.684,0,0,0-3.836,3.808,3.577,3.577,0,0,0,3.85,3.7A3.966,3.966,0,0,0,59.136-1.4L57.96-2.3a2.6,2.6,0,0,1-2.114,1.022,2.019,2.019,0,0,1-2.2-1.89h5.67A4.608,4.608,0,0,0,59.36-3.794ZM55.79-5.922a1.719,1.719,0,0,1,1.876,1.5H53.732A1.971,1.971,0,0,1,55.79-5.922Zm7.9,6.09c1.876,0,2.954-.924,2.954-2.324,0-1.022-.588-1.68-2.044-2.016L63.35-4.466c-.77-.182-.994-.378-.994-.7,0-.434.392-.728,1.148-.728a3.416,3.416,0,0,1,2.128.8l.91-1.19a4.4,4.4,0,0,0-2.968-1.05c-1.778,0-2.87.924-2.87,2.282,0,.994.588,1.624,2.03,1.96L63.98-2.8c.742.168.994.42.994.756,0,.448-.448.77-1.232.77a3.953,3.953,0,0,1-2.366-.868l-.868,1.26A5.036,5.036,0,0,0,63.686.168Zm7.14,0c1.876,0,2.954-.924,2.954-2.324,0-1.022-.588-1.68-2.044-2.016L70.49-4.466c-.77-.182-.994-.378-.994-.7,0-.434.392-.728,1.148-.728a3.416,3.416,0,0,1,2.128.8l.91-1.19a4.4,4.4,0,0,0-2.968-1.05c-1.778,0-2.87.924-2.87,2.282,0,.994.588,1.624,2.03,1.96L71.12-2.8c.742.168.994.42.994.756,0,.448-.448.77-1.232.77a3.953,3.953,0,0,1-2.366-.868l-.868,1.26A5.036,5.036,0,0,0,70.826.168Zm9.688-7.336v.546a3.2,3.2,0,0,0-2.058-.714,3.6,3.6,0,0,0-3.57,3.752A3.6,3.6,0,0,0,78.456.168a3.2,3.2,0,0,0,2.058-.714V0h1.68V-7.168Zm-1.806,5.8a2.078,2.078,0,0,1-2.114-2.212,2.067,2.067,0,0,1,2.114-2.2,2.315,2.315,0,0,1,1.806.826v2.744A2.329,2.329,0,0,1,78.708-1.372Zm10.71-5.8v.56a3.143,3.143,0,0,0-2.072-.728A3.566,3.566,0,0,0,83.79-3.682,3.538,3.538,0,0,0,87.346-.07a3.132,3.132,0,0,0,2.072-.714v.6a1.793,1.793,0,0,1-2.03,1.862A3.74,3.74,0,0,1,84.938.658L83.93,1.89a4.938,4.938,0,0,0,3.486,1.33c2.268,0,3.682-1.274,3.682-3.4V-7.168ZM87.584-1.582a2.026,2.026,0,0,1-2.086-2.1A2.03,2.03,0,0,1,87.584-5.8a2.406,2.406,0,0,1,1.834.84v2.534A2.406,2.406,0,0,1,87.584-1.582Zm12.488-2.212a3.354,3.354,0,0,0-3.556-3.542A3.684,3.684,0,0,0,92.68-3.528a3.577,3.577,0,0,0,3.85,3.7A3.966,3.966,0,0,0,99.848-1.4l-1.176-.9a2.6,2.6,0,0,1-2.114,1.022,2.019,2.019,0,0,1-2.2-1.89h5.67A4.608,4.608,0,0,0,100.072-3.794ZM96.5-5.922a1.719,1.719,0,0,1,1.876,1.5H94.444A1.971,1.971,0,0,1,96.5-5.922Z" transform="translate(550.559 1715)" fill="#07003b" opacity="0.3"/>
        </g>
        <path id="Path_711" data-name="Path 711" d="M1.176,0H2.94V-9.8H1.176ZM8.988-7.336a3.431,3.431,0,0,0-2.184.77v-.6H5.124V0H6.8V-4.942a2.3,2.3,0,0,1,1.764-.84c.938,0,1.526.616,1.526,1.848V0h1.68V-4.3A2.713,2.713,0,0,0,8.988-7.336Zm9.548.168-2,5.11-2-5.11H12.67L15.638,0H17.43l2.954-7.168Zm8.022,0v.546A3.2,3.2,0,0,0,24.5-7.336a3.6,3.6,0,0,0-3.57,3.752A3.6,3.6,0,0,0,24.5.168a3.2,3.2,0,0,0,2.058-.714V0h1.68V-7.168Zm-1.806,5.8a2.078,2.078,0,0,1-2.114-2.212,2.067,2.067,0,0,1,2.114-2.2,2.315,2.315,0,0,1,1.806.826v2.744A2.329,2.329,0,0,1,24.752-1.372ZM30.268,0h1.68V-10.332h-1.68Zm4.55-8.12A1.067,1.067,0,0,0,35.882-9.2a1.073,1.073,0,0,0-1.064-1.064A1.088,1.088,0,0,0,33.726-9.2,1.082,1.082,0,0,0,34.818-8.12ZM33.964,0h1.68V-7.168h-1.68Zm8.89-10.332v3.71A3.2,3.2,0,0,0,40.8-7.336a3.6,3.6,0,0,0-3.57,3.752A3.6,3.6,0,0,0,40.8.168a3.2,3.2,0,0,0,2.058-.714V0h1.68V-10.332Zm-1.806,8.96a2.078,2.078,0,0,1-2.114-2.212,2.067,2.067,0,0,1,2.114-2.2,2.315,2.315,0,0,1,1.806.826v2.744A2.329,2.329,0,0,1,41.048-1.372Zm15.988-6.79V-9.8H50.162V0h6.874V-1.638h-5.11V-4.27h4.452V-5.894H51.926V-8.162Zm10.332.826a3.576,3.576,0,0,0-2.562,1.148,2.388,2.388,0,0,0-2.142-1.148,3.3,3.3,0,0,0-2.114.784v-.616H58.87V0h1.68V-4.928a2.314,2.314,0,0,1,1.68-.854c.8,0,1.344.574,1.344,1.778V0h1.68V-4.368c0-.182-.014-.35-.028-.518a2.26,2.26,0,0,1,1.708-.9c.8,0,1.344.574,1.344,1.778V0h1.68V-4.368C69.958-6.258,68.894-7.336,67.368-7.336Zm9.73.168v.546a3.2,3.2,0,0,0-2.058-.714,3.6,3.6,0,0,0-3.57,3.752A3.6,3.6,0,0,0,75.04.168,3.2,3.2,0,0,0,77.1-.546V0h1.68V-7.168Zm-1.806,5.8a2.078,2.078,0,0,1-2.114-2.212,2.067,2.067,0,0,1,2.114-2.2,2.315,2.315,0,0,1,1.806.826v2.744A2.329,2.329,0,0,1,75.292-1.372Zm6.37-6.748A1.067,1.067,0,0,0,82.726-9.2a1.073,1.073,0,0,0-1.064-1.064A1.088,1.088,0,0,0,80.57-9.2,1.082,1.082,0,0,0,81.662-8.12ZM80.808,0h1.68V-7.168h-1.68Zm3.7,0h1.68V-10.332H84.5Z" transform="translate(359 1712)" fill="#07003b"/>
      </g>
      <g id="Height-4" data-name="Height" transform="translate(0 225)">
        <g id="radio-4" data-name="radio" transform="translate(-174.558 40)">
          <g id="Rectangle_535-4" data-name="Rectangle 535" transform="translate(533.558 1690)" fill="rgba(60,80,224,0.03)" stroke="rgba(60,80,224,0.4)" stroke-width="2">
            <rect width="236" height="40" rx="5" stroke="none"/>
            <rect x="1" y="1" width="234" height="38" rx="4" fill="none"/>
          </g>
          <path id="Path_714" data-name="Path 714" d="M8.05-8.162V-9.8H1.176V0H8.05V-1.638H2.94V-4.27H7.392V-5.894H2.94V-8.162Zm5.5.826a2.51,2.51,0,0,0-1.988.938v-.77H9.884V0h1.68V-4.662a2.238,2.238,0,0,1,1.974-1.092,3.907,3.907,0,0,1,.658.07l.1-1.554A2.927,2.927,0,0,0,13.552-7.336Zm5.67,0a2.51,2.51,0,0,0-1.988.938v-.77h-1.68V0h1.68V-4.662a2.238,2.238,0,0,1,1.974-1.092,3.907,3.907,0,0,1,.658.07l.1-1.554A2.927,2.927,0,0,0,19.222-7.336Zm5.194,7.5A3.668,3.668,0,0,0,28.21-3.584a3.66,3.66,0,0,0-3.794-3.752,3.672,3.672,0,0,0-3.808,3.752A3.68,3.68,0,0,0,24.416.168Zm0-1.54a2.075,2.075,0,0,1-2.1-2.212,2.064,2.064,0,0,1,2.1-2.2,2.061,2.061,0,0,1,2.086,2.2A2.072,2.072,0,0,1,24.416-1.372ZM33.46-7.336a2.51,2.51,0,0,0-1.988.938v-.77h-1.68V0h1.68V-4.662a2.238,2.238,0,0,1,1.974-1.092,3.907,3.907,0,0,1,.658.07l.1-1.554A2.927,2.927,0,0,0,33.46-7.336ZM48.034-9.8,44.646-2.548,41.244-9.8H39.06V0H40.8V-6.972L43.932-.28h1.414l3.122-6.664V0h1.75V-9.8ZM59.36-3.794A3.354,3.354,0,0,0,55.8-7.336a3.684,3.684,0,0,0-3.836,3.808,3.577,3.577,0,0,0,3.85,3.7A3.966,3.966,0,0,0,59.136-1.4L57.96-2.3a2.6,2.6,0,0,1-2.114,1.022,2.019,2.019,0,0,1-2.2-1.89h5.67A4.608,4.608,0,0,0,59.36-3.794ZM55.79-5.922a1.719,1.719,0,0,1,1.876,1.5H53.732A1.971,1.971,0,0,1,55.79-5.922Zm7.9,6.09c1.876,0,2.954-.924,2.954-2.324,0-1.022-.588-1.68-2.044-2.016L63.35-4.466c-.77-.182-.994-.378-.994-.7,0-.434.392-.728,1.148-.728a3.416,3.416,0,0,1,2.128.8l.91-1.19a4.4,4.4,0,0,0-2.968-1.05c-1.778,0-2.87.924-2.87,2.282,0,.994.588,1.624,2.03,1.96L63.98-2.8c.742.168.994.42.994.756,0,.448-.448.77-1.232.77a3.953,3.953,0,0,1-2.366-.868l-.868,1.26A5.036,5.036,0,0,0,63.686.168Zm7.14,0c1.876,0,2.954-.924,2.954-2.324,0-1.022-.588-1.68-2.044-2.016L70.49-4.466c-.77-.182-.994-.378-.994-.7,0-.434.392-.728,1.148-.728a3.416,3.416,0,0,1,2.128.8l.91-1.19a4.4,4.4,0,0,0-2.968-1.05c-1.778,0-2.87.924-2.87,2.282,0,.994.588,1.624,2.03,1.96L71.12-2.8c.742.168.994.42.994.756,0,.448-.448.77-1.232.77a3.953,3.953,0,0,1-2.366-.868l-.868,1.26A5.036,5.036,0,0,0,70.826.168Zm9.688-7.336v.546a3.2,3.2,0,0,0-2.058-.714,3.6,3.6,0,0,0-3.57,3.752A3.6,3.6,0,0,0,78.456.168a3.2,3.2,0,0,0,2.058-.714V0h1.68V-7.168Zm-1.806,5.8a2.078,2.078,0,0,1-2.114-2.212,2.067,2.067,0,0,1,2.114-2.2,2.315,2.315,0,0,1,1.806.826v2.744A2.329,2.329,0,0,1,78.708-1.372Zm10.71-5.8v.56a3.143,3.143,0,0,0-2.072-.728A3.566,3.566,0,0,0,83.79-3.682,3.538,3.538,0,0,0,87.346-.07a3.132,3.132,0,0,0,2.072-.714v.6a1.793,1.793,0,0,1-2.03,1.862A3.74,3.74,0,0,1,84.938.658L83.93,1.89a4.938,4.938,0,0,0,3.486,1.33c2.268,0,3.682-1.274,3.682-3.4V-7.168ZM87.584-1.582a2.026,2.026,0,0,1-2.086-2.1A2.03,2.03,0,0,1,87.584-5.8a2.406,2.406,0,0,1,1.834.84v2.534A2.406,2.406,0,0,1,87.584-1.582Zm12.488-2.212a3.354,3.354,0,0,0-3.556-3.542A3.684,3.684,0,0,0,92.68-3.528a3.577,3.577,0,0,0,3.85,3.7A3.966,3.966,0,0,0,99.848-1.4l-1.176-.9a2.6,2.6,0,0,1-2.114,1.022,2.019,2.019,0,0,1-2.2-1.89h5.67A4.608,4.608,0,0,0,100.072-3.794ZM96.5-5.922a1.719,1.719,0,0,1,1.876,1.5H94.444A1.971,1.971,0,0,1,96.5-5.922Z" transform="translate(550.559 1715)" fill="#07003b" opacity="0.3"/>
        </g>
        <path id="Path_713" data-name="Path 713" d="M8.05-8.162V-9.8H1.176V0H8.05V-1.638H2.94V-4.27H7.392V-5.894H2.94V-8.162Zm10.332.826A3.576,3.576,0,0,0,15.82-6.188a2.388,2.388,0,0,0-2.142-1.148,3.3,3.3,0,0,0-2.114.784v-.616H9.884V0h1.68V-4.928a2.314,2.314,0,0,1,1.68-.854c.8,0,1.344.574,1.344,1.778V0h1.68V-4.368c0-.182-.014-.35-.028-.518a2.26,2.26,0,0,1,1.708-.9c.8,0,1.344.574,1.344,1.778V0h1.68V-4.368C20.972-6.258,19.908-7.336,18.382-7.336Zm8.288,0a3.116,3.116,0,0,0-2.072.728v-.56h-1.68V3.052H24.6V-.56A3.116,3.116,0,0,0,26.67.168a3.6,3.6,0,0,0,3.556-3.752A3.6,3.6,0,0,0,26.67-7.336Zm-.252,5.964a2.336,2.336,0,0,1-1.82-.84V-4.956a2.323,2.323,0,0,1,1.82-.826,2.056,2.056,0,0,1,2.1,2.2A2.068,2.068,0,0,1,26.418-1.372ZM36.386-1.6a3.76,3.76,0,0,1-1.092.2c-.826,0-1.218-.434-1.218-1.442V-5.7h2.282v-1.47H34.076V-8.876H32.4v1.708h-1.47V-5.7H32.4v3.052c0,1.918.882,2.786,2.59,2.786a3.934,3.934,0,0,0,1.638-.322ZM43.3-7.168,41.286-2.254l-2.1-4.914H37.268L40.418-.14,39.1,3.052h1.806l4.214-10.22Zm13.216-.994V-9.8H49.644V0h6.874V-1.638h-5.11V-4.27H55.86V-5.894H51.408V-8.162Zm10.332.826a3.576,3.576,0,0,0-2.562,1.148,2.388,2.388,0,0,0-2.142-1.148,3.3,3.3,0,0,0-2.114.784v-.616h-1.68V0h1.68V-4.928a2.314,2.314,0,0,1,1.68-.854c.8,0,1.344.574,1.344,1.778V0h1.68V-4.368c0-.182-.014-.35-.028-.518a2.26,2.26,0,0,1,1.708-.9c.8,0,1.344.574,1.344,1.778V0h1.68V-4.368C69.44-6.258,68.376-7.336,66.85-7.336Zm9.73.168v.546a3.2,3.2,0,0,0-2.058-.714,3.6,3.6,0,0,0-3.57,3.752A3.6,3.6,0,0,0,74.522.168,3.2,3.2,0,0,0,76.58-.546V0h1.68V-7.168Zm-1.806,5.8A2.078,2.078,0,0,1,72.66-3.584a2.067,2.067,0,0,1,2.114-2.2,2.315,2.315,0,0,1,1.806.826v2.744A2.329,2.329,0,0,1,74.774-1.372Zm6.37-6.748A1.067,1.067,0,0,0,82.208-9.2a1.073,1.073,0,0,0-1.064-1.064A1.088,1.088,0,0,0,80.052-9.2,1.082,1.082,0,0,0,81.144-8.12ZM80.29,0h1.68V-7.168H80.29Zm3.7,0h1.68V-10.332h-1.68Z" transform="translate(359 1712)" fill="#07003b"/>
      </g>
    </g>
  </g>
</svg>
