<svg xmlns="http://www.w3.org/2000/svg" xmlns:xlink="http://www.w3.org/1999/xlink" width="652" height="473" viewBox="0 0 652 473">
  <defs>
    <filter id="Rectangle_436" x="306" y="0" width="346" height="473" filterUnits="userSpaceOnUse">
      <feOffset dy="5" input="SourceAlpha"/>
      <feGaussianBlur stdDeviation="10" result="blur"/>
      <feFlood flood-color="#3c50e0" flood-opacity="0.149"/>
      <feComposite operator="in" in2="blur"/>
      <feComposite in="SourceGraphic"/>
    </filter>
    <filter id="Rectangle_436-2" x="0" y="240" width="346" height="233" filterUnits="userSpaceOnUse">
      <feOffset dy="5" input="SourceAlpha"/>
      <feGaussianBlur stdDeviation="10" result="blur-2"/>
      <feFlood flood-color="#3c50e0" flood-opacity="0.149"/>
      <feComposite operator="in" in2="blur-2"/>
      <feComposite in="SourceGraphic"/>
    </filter>
    <filter id="Rectangle_436-3" x="0" y="0" width="346" height="270" filterUnits="userSpaceOnUse">
      <feOffset dy="5" input="SourceAlpha"/>
      <feGaussianBlur stdDeviation="10" result="blur-3"/>
      <feFlood flood-color="#3c50e0" flood-opacity="0.149"/>
      <feComposite operator="in" in2="blur-3"/>
      <feComposite in="SourceGraphic"/>
    </filter>
  </defs>
  <g id="feature-02" transform="translate(-56 -1522)">
    <g id="Google_fonts_dropdown" data-name="Google fonts dropdown" transform="translate(58 -123)">
      <g transform="matrix(1, 0, 0, 1, -2, 1645)" filter="url(#Rectangle_436)">
        <rect id="Rectangle_436-4" data-name="Rectangle 436" width="286" height="413" rx="10" transform="translate(336 25)" fill="#fff"/>
      </g>
      <g id="Scroll_bar" data-name="Scroll bar">
        <rect id="Rectangle_546" data-name="Rectangle 546" width="7" height="305" rx="3.5" transform="translate(606 1766)" fill="#07003b" opacity="0.1"/>
        <rect id="Rectangle_547" data-name="Rectangle 547" width="7" height="33" rx="3.5" transform="translate(606 1983)" fill="#07003b" opacity="0.2"/>
      </g>
      <g id="Google_font_label" data-name="Google font label">
        <g id="Google_fonts_list" data-name="Google fonts list">
          <path id="Path_635" data-name="Path 635" d="M3.477-5.293V0H1.836V-14H5.684A5.078,5.078,0,0,1,9.165-12.91,3.905,3.905,0,0,1,10.4-9.824,4.244,4.244,0,0,1,9.028-6.562a5.242,5.242,0,0,1-3.706,1.27Zm0-7.227v5.742H5.2a3.843,3.843,0,0,0,2.593-.776,2.749,2.749,0,0,0,.894-2.192q0-2.773-3.281-2.773ZM19.3,0H17.7V-1.562h-.039A3.353,3.353,0,0,1,14.58.234a3.288,3.288,0,0,1-2.339-.791,2.741,2.741,0,0,1-.845-2.1q0-2.8,3.3-3.262l3-.42q0-2.549-2.061-2.549a4.923,4.923,0,0,0-3.262,1.23V-9.3a6.2,6.2,0,0,1,3.4-.937q3.525,0,3.525,3.73ZM17.7-5.059l-2.412.332a3.916,3.916,0,0,0-1.68.552,1.591,1.591,0,0,0-.566,1.4,1.526,1.526,0,0,0,.522,1.2,2.019,2.019,0,0,0,1.392.464,2.571,2.571,0,0,0,1.968-.835A2.983,2.983,0,0,0,17.7-4.062ZM26.953-.1a3.088,3.088,0,0,1-1.494.313q-2.627,0-2.627-2.93V-8.633H21.113V-10h1.719v-2.441l1.6-.518V-10h2.52v1.367h-2.52V-3a2.336,2.336,0,0,0,.342,1.436,1.364,1.364,0,0,0,1.133.43,1.684,1.684,0,0,0,1.045-.332Zm6.777,0a3.088,3.088,0,0,1-1.494.313q-2.627,0-2.627-2.93V-8.633H27.891V-10h1.719v-2.441l1.6-.518V-10h2.52v1.367h-2.52V-3a2.336,2.336,0,0,0,.342,1.436,1.364,1.364,0,0,0,1.133.43,1.684,1.684,0,0,0,1.045-.332Zm9.3.1h-1.6V-1.562h-.039a3.353,3.353,0,0,1-3.076,1.8,3.288,3.288,0,0,1-2.339-.791,2.741,2.741,0,0,1-.845-2.1q0-2.8,3.3-3.262l3-.42q0-2.549-2.061-2.549A4.923,4.923,0,0,0,36.1-7.656V-9.3a6.2,6.2,0,0,1,3.4-.937q3.525,0,3.525,3.73Zm-1.6-5.059-2.412.332a3.916,3.916,0,0,0-1.68.552,1.591,1.591,0,0,0-.566,1.4,1.526,1.526,0,0,0,.522,1.2,2.019,2.019,0,0,0,1.392.464,2.571,2.571,0,0,0,1.968-.835,2.983,2.983,0,0,0,.776-2.114ZM54-10,49.4,1.6q-1.23,3.105-3.457,3.105A3.664,3.664,0,0,1,44.9,4.58V3.145a2.969,2.969,0,0,0,.947.176,1.963,1.963,0,0,0,1.816-1.445l.8-1.895L44.561-10h1.777l2.705,7.7q.049.146.205.762h.059q.049-.234.2-.742L52.344-10ZM62.881,0h-1.6V-1.562H61.24a3.353,3.353,0,0,1-3.076,1.8,3.288,3.288,0,0,1-2.339-.791,2.741,2.741,0,0,1-.845-2.1q0-2.8,3.3-3.262l3-.42q0-2.549-2.061-2.549a4.923,4.923,0,0,0-3.262,1.23V-9.3a6.2,6.2,0,0,1,3.4-.937q3.525,0,3.525,3.73Zm-1.6-5.059-2.412.332a3.916,3.916,0,0,0-1.68.552,1.591,1.591,0,0,0-.566,1.4,1.526,1.526,0,0,0,.522,1.2,2.019,2.019,0,0,0,1.392.464A2.571,2.571,0,0,0,60.5-1.948a2.983,2.983,0,0,0,.776-2.114Z" transform="translate(359 1880)" fill="#07003b"/>
          <path id="Path_637" data-name="Path 637" d="M6.533-5.205H4.2V0H1.27V-14.219H6.553A5.972,5.972,0,0,1,10.439-13.1a3.876,3.876,0,0,1,1.367,3.174,4.374,4.374,0,0,1-.63,2.427A4.3,4.3,0,0,1,9.268-5.947L12.344-.137V0H9.2ZM4.2-7.578H6.563A2.42,2.42,0,0,0,8.271-8.14a2.007,2.007,0,0,0,.605-1.548,2.148,2.148,0,0,0-.571-1.582,2.374,2.374,0,0,0-1.753-.576H4.2Zm9.209,2.2a6.267,6.267,0,0,1,.605-2.8,4.432,4.432,0,0,1,1.743-1.9,5.086,5.086,0,0,1,2.642-.674A4.812,4.812,0,0,1,21.89-9.453,5.252,5.252,0,0,1,23.4-5.9l.02.723a5.523,5.523,0,0,1-1.357,3.9A4.718,4.718,0,0,1,18.418.2,4.742,4.742,0,0,1,14.771-1.27a5.62,5.62,0,0,1-1.362-3.984Zm2.822.2a3.95,3.95,0,0,0,.566,2.3,1.868,1.868,0,0,0,1.621.8,1.873,1.873,0,0,0,1.6-.787A4.322,4.322,0,0,0,20.6-5.386a3.91,3.91,0,0,0-.576-2.289A1.873,1.873,0,0,0,18.4-8.486a1.842,1.842,0,0,0-1.6.807A4.395,4.395,0,0,0,16.23-5.181Zm18.447-.005a6.4,6.4,0,0,1-1.084,3.96A3.591,3.591,0,0,1,30.566.2a3.3,3.3,0,0,1-2.744-1.318L27.7,0H25.156V-15h2.822v5.381a3.214,3.214,0,0,1,2.568-1.143,3.62,3.62,0,0,1,3.032,1.421,6.408,6.408,0,0,1,1.1,4Zm-2.822-.205a4.2,4.2,0,0,0-.508-2.339,1.717,1.717,0,0,0-1.514-.737,1.862,1.862,0,0,0-1.855,1.1v4.17A1.887,1.887,0,0,0,29.854-2.08a1.742,1.742,0,0,0,1.8-1.348A6.952,6.952,0,0,0,31.855-5.391Zm4.121.01a6.267,6.267,0,0,1,.605-2.8,4.432,4.432,0,0,1,1.743-1.9,5.086,5.086,0,0,1,2.642-.674,4.812,4.812,0,0,1,3.491,1.309A5.252,5.252,0,0,1,45.967-5.9l.02.723a5.523,5.523,0,0,1-1.357,3.9A4.718,4.718,0,0,1,40.986.2,4.742,4.742,0,0,1,37.339-1.27a5.62,5.62,0,0,1-1.362-3.984Zm2.822.2a3.95,3.95,0,0,0,.566,2.3,1.868,1.868,0,0,0,1.621.8,1.873,1.873,0,0,0,1.6-.787,4.322,4.322,0,0,0,.576-2.518,3.91,3.91,0,0,0-.576-2.289,1.873,1.873,0,0,0-1.621-.812,1.842,1.842,0,0,0-1.6.807A4.395,4.395,0,0,0,38.8-5.181Zm12.3-7.984v2.6H52.91V-8.5H51.1v5.273a1.259,1.259,0,0,0,.225.84,1.128,1.128,0,0,0,.859.254,4.5,4.5,0,0,0,.83-.068V-.059A5.81,5.81,0,0,1,51.309.2q-2.969,0-3.027-3V-8.5H46.738v-2.07h1.543v-2.6ZM53.75-5.381a6.267,6.267,0,0,1,.605-2.8,4.432,4.432,0,0,1,1.743-1.9,5.086,5.086,0,0,1,2.642-.674,4.812,4.812,0,0,1,3.491,1.309A5.252,5.252,0,0,1,63.74-5.9l.02.723a5.523,5.523,0,0,1-1.357,3.9A4.718,4.718,0,0,1,58.76.2,4.742,4.742,0,0,1,55.112-1.27,5.62,5.62,0,0,1,53.75-5.254Zm2.822.2a3.95,3.95,0,0,0,.566,2.3,1.868,1.868,0,0,0,1.621.8,1.873,1.873,0,0,0,1.6-.787,4.322,4.322,0,0,0,.576-2.518,3.91,3.91,0,0,0-.576-2.289,1.873,1.873,0,0,0-1.621-.812,1.842,1.842,0,0,0-1.6.807A4.395,4.395,0,0,0,56.572-5.181Z" transform="translate(359 1969)" fill="#07003b"/>
          <path id="Path_633" data-name="Path 633" d="M14.756-7.158A7.747,7.747,0,0,1,13-1.709,6.517,6.517,0,0,1,7.959.2a6.517,6.517,0,0,1-5.039-1.9A7.778,7.778,0,0,1,1.162-7.178a7.672,7.672,0,0,1,1.763-5.444A6.592,6.592,0,0,1,7.979-14.5a6.5,6.5,0,0,1,5.034,1.895A7.767,7.767,0,0,1,14.756-7.158Zm-10.42,0a5.964,5.964,0,0,0,.908,3.6A3.178,3.178,0,0,0,7.959-2.344q3.623,0,3.623-4.814t-3.6-4.824a3.2,3.2,0,0,0-2.725,1.216A5.939,5.939,0,0,0,4.336-7.158ZM23.477.2a3.621,3.621,0,0,1-3.018-1.4H20.3q.156,1.367.156,1.582V4.8H17.48V-10.918H19.9l.42,1.416h.137a3.446,3.446,0,0,1,3.1-1.621,3.543,3.543,0,0,1,3.027,1.494,6.91,6.91,0,0,1,1.094,4.15,8.2,8.2,0,0,1-.513,3.037A4.26,4.26,0,0,1,25.7-.479,3.741,3.741,0,0,1,23.477.2ZM22.6-8.74a1.881,1.881,0,0,0-1.611.679,3.9,3.9,0,0,0-.527,2.241V-5.5a4.6,4.6,0,0,0,.522,2.52,1.865,1.865,0,0,0,1.655.762q2,0,2-3.3a4.714,4.714,0,0,0-.493-2.417A1.683,1.683,0,0,0,22.6-8.74ZM34.658-9a1.889,1.889,0,0,0-1.484.6,2.78,2.78,0,0,0-.615,1.7h4.18a2.483,2.483,0,0,0-.576-1.7A1.951,1.951,0,0,0,34.658-9Zm.42,9.2A5.635,5.635,0,0,1,30.957-1.26a5.509,5.509,0,0,1-1.484-4.121,6.06,6.06,0,0,1,1.372-4.243,4.886,4.886,0,0,1,3.794-1.5,4.809,4.809,0,0,1,3.6,1.318,4.988,4.988,0,0,1,1.289,3.643v1.445H32.49a2.867,2.867,0,0,0,.752,1.982,2.646,2.646,0,0,0,1.973.713,8.189,8.189,0,0,0,1.865-.205,9.333,9.333,0,0,0,1.836-.654v2.3A6.994,6.994,0,0,1,37.246,0,10.529,10.529,0,0,1,35.078.2ZM52.031,0H49.053V-6.377a3.063,3.063,0,0,0-.42-1.772,1.528,1.528,0,0,0-1.338-.591,2.011,2.011,0,0,0-1.807.835,5.178,5.178,0,0,0-.557,2.769V0H41.953V-10.918h2.275l.4,1.4h.166a3.148,3.148,0,0,1,1.372-1.2,4.672,4.672,0,0,1,1.987-.405,3.818,3.818,0,0,1,2.891,1.03,4.134,4.134,0,0,1,.986,2.974ZM68.955-3.965A3.691,3.691,0,0,1,67.563-.918,6.045,6.045,0,0,1,63.691.2a9.094,9.094,0,0,1-4.043-.859V-3.477a16.661,16.661,0,0,0,2.446.908,7.239,7.239,0,0,0,1.831.264,2.6,2.6,0,0,0,1.528-.381,1.3,1.3,0,0,0,.532-1.133,1.251,1.251,0,0,0-.234-.747,2.623,2.623,0,0,0-.688-.63,17.707,17.707,0,0,0-1.851-.967A8.771,8.771,0,0,1,61.25-7.344a4.436,4.436,0,0,1-1.045-1.318,3.762,3.762,0,0,1-.391-1.758A3.69,3.69,0,0,1,61.1-13.4a5.336,5.336,0,0,1,3.55-1.084,8.383,8.383,0,0,1,2.124.264,14.6,14.6,0,0,1,2.114.742l-.977,2.354a14.288,14.288,0,0,0-1.89-.654,6.082,6.082,0,0,0-1.47-.186,1.946,1.946,0,0,0-1.318.4,1.321,1.321,0,0,0-.459,1.045,1.293,1.293,0,0,0,.186.7,2.04,2.04,0,0,0,.591.576,18.267,18.267,0,0,0,1.919,1,7.635,7.635,0,0,1,2.744,1.919A3.745,3.745,0,0,1,68.955-3.965ZM78.242,0l-.576-1.484h-.078A4.4,4.4,0,0,1,76.04-.171,5,5,0,0,1,73.965.2a3.356,3.356,0,0,1-2.476-.9,3.45,3.45,0,0,1-.9-2.559A2.881,2.881,0,0,1,71.8-5.825a7.045,7.045,0,0,1,3.667-.913L77.363-6.8v-.479a1.485,1.485,0,0,0-1.7-1.66,7.743,7.743,0,0,0-3.076.791L71.6-10.156a8.876,8.876,0,0,1,4.18-.986,5.206,5.206,0,0,1,3.369.957,3.537,3.537,0,0,1,1.172,2.91V0Zm-.879-5.059-1.152.039a3.69,3.69,0,0,0-1.934.469,1.472,1.472,0,0,0-.635,1.309q0,1.26,1.445,1.26a2.289,2.289,0,0,0,1.655-.6,2.092,2.092,0,0,0,.62-1.582ZM93.467,0H90.488V-6.377a3.063,3.063,0,0,0-.42-1.772A1.528,1.528,0,0,0,88.73-8.74a2.011,2.011,0,0,0-1.807.835,5.178,5.178,0,0,0-.557,2.769V0H83.389V-10.918h2.275l.4,1.4h.166a3.148,3.148,0,0,1,1.372-1.2,4.672,4.672,0,0,1,1.987-.405,3.818,3.818,0,0,1,2.891,1.03,4.134,4.134,0,0,1,.986,2.974Zm10,0-.576-1.484h-.078a4.4,4.4,0,0,1-1.548,1.313A5,5,0,0,1,99.189.2a3.356,3.356,0,0,1-2.476-.9,3.45,3.45,0,0,1-.9-2.559,2.881,2.881,0,0,1,1.216-2.563,7.045,7.045,0,0,1,3.667-.913l1.895-.059v-.479a1.485,1.485,0,0,0-1.7-1.66,7.743,7.743,0,0,0-3.076.791l-.986-2.012a8.876,8.876,0,0,1,4.18-.986,5.206,5.206,0,0,1,3.369.957,3.537,3.537,0,0,1,1.172,2.91V0Zm-.879-5.059-1.152.039a3.69,3.69,0,0,0-1.934.469,1.472,1.472,0,0,0-.635,1.309q0,1.26,1.445,1.26a2.289,2.289,0,0,0,1.655-.6,2.092,2.092,0,0,0,.62-1.582Z" transform="translate(359 1789)" fill="#07003b"/>
          <path id="Path_634" data-name="Path 634" d="M5.84.24c3.66,0,4.9-2,4.9-5.34v-6.02c0-3.34-1.24-5.3-4.9-5.3-3.64,0-4.86,1.96-4.86,5.3V-5.1C.98-1.76,2.2.24,5.84.24Zm0-2.54c-1.12,0-1.2-.98-1.2-1.9V-12c0-.96.14-1.9,1.2-1.9,1.12,0,1.24.94,1.24,1.9v7.8C7.08-3.28,6.96-2.3,5.84-2.3ZM16.3.2c1.84,0,3.54-1.12,3.54-3.14,0-1.48-1.08-2.44-2.08-3.28l-.82-.72c-1.02-.82-1.62-1.38-1.62-1.88a.631.631,0,0,1,.7-.66c.72,0,1.3.92,1.54,1.66l2.1-.96a3.668,3.668,0,0,0-3.72-2.98,3.346,3.346,0,0,0-3.56,3.18c0,1.44.76,2.28,1.98,3.32l.84.7c1.2,1,1.6,1.34,1.6,1.96,0,.38-.26.6-.76.6-.7,0-1.28-.64-1.7-1.68l-2.22.98A4.089,4.089,0,0,0,16.3.2ZM22.32,0h2.76L26.2-6.5l1,6.5H30l1.72-11.56H29.2l-.98,6.72-.78-6.72H25.08L24.18-5l-.84-6.56H20.62ZM35.54.2a2.319,2.319,0,0,0,2.22-1.84c.04.14.18,1.02.26,1.64h2.92a16.434,16.434,0,0,1-.2-2.88v-5.4a3.2,3.2,0,0,0-3.5-3.48c-2.7,0-4.02,1.28-4.14,4.06l3.04.12.08-.84c.02-.52.16-.92.72-.92.54,0,.68.42.68,1.02v1.16c-2.18.76-4.76,1.66-4.76,4.54A2.692,2.692,0,0,0,35.54.2ZM36.7-2c-.56,0-.9-.48-.9-1.26,0-1.16.74-1.86,1.82-2.48v3.16A1.193,1.193,0,0,1,36.7-2Zm6.12,2h3.24V-16.2H42.82Zm7.84.2A3.36,3.36,0,0,0,52.94-.9V0H56.2V-16.2H52.94v5.36a3.462,3.462,0,0,0-2.28-.92c-1.78,0-2.68,1.48-2.68,3.62v4.78C47.98-1,48.94.2,50.66.2Zm1.42-2.08c-.6,0-.82-.56-.82-1.28V-8.48c0-.7.24-1.26.84-1.26a1.95,1.95,0,0,1,.84.26v7.3A1.773,1.773,0,0,1,52.08-1.88Z" transform="translate(359 1837)" fill="#07003b"/>
          <path id="Path_636" data-name="Path 636" d="M5.36-5.72v3.48a2.981,2.981,0,0,0,.17,1.17.882.882,0,0,0,.6.49A6.082,6.082,0,0,0,7.5-.44V0Q5.04-.06,3.84-.06q-1,0-2.52.04L.68,0V-.4a3.472,3.472,0,0,0,.97-.16.692.692,0,0,0,.42-.46,3.923,3.923,0,0,0,.11-1.1v-9.92a3.923,3.923,0,0,0-.11-1.1.692.692,0,0,0-.42-.46,3.473,3.473,0,0,0-.97-.16v-.4q1.02.06,3.04.06l2.22-.02q.4-.02.92-.02a6.762,6.762,0,0,1,4.12,1.07A3.411,3.411,0,0,1,12.4-10.2a4.292,4.292,0,0,1-.56,2.11A4.308,4.308,0,0,1,9.95-6.4a7.791,7.791,0,0,1-3.53.68ZM6.6-13.76a1.687,1.687,0,0,0-.79.14.775.775,0,0,0-.35.5,4.333,4.333,0,0,0-.1,1.08v5.92h.86A2.388,2.388,0,0,0,8.46-7.16a5.494,5.494,0,0,0,.62-2.82,5.576,5.576,0,0,0-.57-2.86A2.07,2.07,0,0,0,6.6-13.76ZM17.18-1.86a1.713,1.713,0,0,0,.28,1.13,1.31,1.31,0,0,0,1,.31V0q-2.08-.08-2.68-.08-.68,0-2.76.08V-.42a1.314,1.314,0,0,0,.99-.31,1.669,1.669,0,0,0,.29-1.13v-11.4a2.407,2.407,0,0,0-.29-1.34,1.117,1.117,0,0,0-.99-.42v-.42q.64.06,1.24.06a12.888,12.888,0,0,0,2.92-.28Zm4.78,2a2.525,2.525,0,0,1-1.91-.66,2.415,2.415,0,0,1-.63-1.74,2.316,2.316,0,0,1,.47-1.49,3.21,3.21,0,0,1,1.14-.91,16.86,16.86,0,0,1,1.71-.68,8.908,8.908,0,0,0,1.61-.69.953.953,0,0,0,.51-.85V-8.44a1.994,1.994,0,0,0-.39-1.31,1.483,1.483,0,0,0-1.21-.47,2.029,2.029,0,0,0-1.46.48,1.857,1.857,0,0,1,.87.6,1.49,1.49,0,0,1,.31.94,1.358,1.358,0,0,1-.46,1.08,1.648,1.648,0,0,1-1.12.4,1.35,1.35,0,0,1-1.08-.44,1.623,1.623,0,0,1-.38-1.1,1.628,1.628,0,0,1,.27-.95,2.677,2.677,0,0,1,.83-.73,4.617,4.617,0,0,1,1.33-.5,7.788,7.788,0,0,1,1.73-.18,6.4,6.4,0,0,1,1.7.2,2.672,2.672,0,0,1,1.2.68,2.2,2.2,0,0,1,.59,1.08,7.964,7.964,0,0,1,.15,1.74v5.44a1.814,1.814,0,0,0,.09.68.346.346,0,0,0,.35.2,1.24,1.24,0,0,0,.72-.34l.2.34a3.351,3.351,0,0,1-2.2.74A2.147,2.147,0,0,1,25.36-.3a1.662,1.662,0,0,1-.46-1.18A3.243,3.243,0,0,1,21.96.14ZM23.5-1.14a1.658,1.658,0,0,0,1.36-.82v-4.1a3.053,3.053,0,0,1-1.02.88,4.858,4.858,0,0,0-1.18,1,2.259,2.259,0,0,0-.4,1.44,1.808,1.808,0,0,0,.34,1.21A1.135,1.135,0,0,0,23.5-1.14Zm14.24-9.14a14.927,14.927,0,0,0,1.54-.06v.4a1.533,1.533,0,0,0-.75.51,4.086,4.086,0,0,0-.63,1.21L34.32,1.84a3.331,3.331,0,0,1-.88,1.42,2.606,2.606,0,0,1-1.74.5,2.835,2.835,0,0,1-1.51-.41,1.314,1.314,0,0,1-.67-1.19,1.228,1.228,0,0,1,.44-.99A1.742,1.742,0,0,1,31.12.8a1.687,1.687,0,0,1,1.09.33,1.126,1.126,0,0,1,.41.93,1.262,1.262,0,0,1-.26.77,1.586,1.586,0,0,1-.74.53,3.673,3.673,0,0,0,.46.02q1.24,0,1.82-1.58l.32-.96L29.98-8.8a2.4,2.4,0,0,0-.62-.9,1.036,1.036,0,0,0-.62-.22v-.42q1.32.12,2.74.12,1.18,0,2.78-.12v.42a3.681,3.681,0,0,0-.95.09.43.43,0,0,0-.31.47,1.548,1.548,0,0,0,.14.56l2.44,5.9,1.38-3.84a5.12,5.12,0,0,0,.32-1.6,1.446,1.446,0,0,0-1.48-1.6v-.4Q36.74-10.28,37.74-10.28Zm7.14-5.36a3.52,3.52,0,0,1,2.14.66,1.8,1.8,0,0,1,.49.63,1.96,1.96,0,0,1,.19.87,1.343,1.343,0,0,1-.4.97,1.364,1.364,0,0,1-1.02.41,1.577,1.577,0,0,1-1.1-.38,1.332,1.332,0,0,1-.42-1.04,1.492,1.492,0,0,1,.3-.92,1.582,1.582,0,0,1,.88-.56.464.464,0,0,0-.25-.2,1.214,1.214,0,0,0-.47-.08,1.167,1.167,0,0,0-1.08.52,1.941,1.941,0,0,0-.3.88,13.862,13.862,0,0,0-.08,1.74v1.82H45.9v.4H43.76v7.86a1.522,1.522,0,0,0,.47,1.28,2.3,2.3,0,0,0,1.41.36V0l-.56-.02Q42.86-.08,42.2-.08q-.6,0-2.6.08V-.42a1.31,1.31,0,0,0,1-.31,1.713,1.713,0,0,0,.28-1.13V-9.92H39.52v-.4h1.36a10,10,0,0,1,.28-2.69,3.686,3.686,0,0,1,.98-1.63,3.287,3.287,0,0,1,1.18-.72A4.371,4.371,0,0,1,44.88-15.64ZM49.28.14a2.525,2.525,0,0,1-1.91-.66,2.415,2.415,0,0,1-.63-1.74,2.317,2.317,0,0,1,.47-1.49,3.21,3.21,0,0,1,1.14-.91,16.86,16.86,0,0,1,1.71-.68,8.908,8.908,0,0,0,1.61-.69.953.953,0,0,0,.51-.85V-8.44a1.994,1.994,0,0,0-.39-1.31,1.483,1.483,0,0,0-1.21-.47,2.029,2.029,0,0,0-1.46.48,1.857,1.857,0,0,1,.87.6,1.49,1.49,0,0,1,.31.94,1.358,1.358,0,0,1-.46,1.08,1.648,1.648,0,0,1-1.12.4,1.35,1.35,0,0,1-1.08-.44,1.623,1.623,0,0,1-.38-1.1,1.628,1.628,0,0,1,.27-.95,2.677,2.677,0,0,1,.83-.73,4.617,4.617,0,0,1,1.33-.5,7.788,7.788,0,0,1,1.73-.18,6.4,6.4,0,0,1,1.7.2,2.672,2.672,0,0,1,1.2.68,2.2,2.2,0,0,1,.59,1.08,7.964,7.964,0,0,1,.15,1.74v5.44a1.814,1.814,0,0,0,.09.68.346.346,0,0,0,.35.2,1.24,1.24,0,0,0,.72-.34l.2.34a3.351,3.351,0,0,1-2.2.74A2.147,2.147,0,0,1,52.68-.3a1.662,1.662,0,0,1-.46-1.18A3.243,3.243,0,0,1,49.28.14Zm1.54-1.28a1.658,1.658,0,0,0,1.36-.82v-4.1a3.053,3.053,0,0,1-1.02.88,4.857,4.857,0,0,0-1.18,1,2.259,2.259,0,0,0-.4,1.44,1.808,1.808,0,0,0,.34,1.21A1.135,1.135,0,0,0,50.82-1.14ZM59.6-15.5a2.008,2.008,0,0,1,1.33.41,1.394,1.394,0,0,1,.49,1.13,1.394,1.394,0,0,1-.49,1.13,2.008,2.008,0,0,1-1.33.41,2.008,2.008,0,0,1-1.33-.41,1.394,1.394,0,0,1-.49-1.13,1.394,1.394,0,0,1,.49-1.13A2.008,2.008,0,0,1,59.6-15.5ZM61.16-1.86a1.669,1.669,0,0,0,.29,1.13,1.314,1.314,0,0,0,.99.31V0q-2-.08-2.66-.08Q59.16-.08,57,0V-.42a1.31,1.31,0,0,0,1-.31,1.713,1.713,0,0,0,.28-1.13v-6.3A2.477,2.477,0,0,0,58-9.5a1.113,1.113,0,0,0-1-.42v-.42q.64.06,1.24.06a12.568,12.568,0,0,0,2.92-.28Zm9.02-8.76a1.687,1.687,0,0,1,1.36.54A1.938,1.938,0,0,1,72-8.78a1.723,1.723,0,0,1-.43,1.21,1.459,1.459,0,0,1-1.13.47,1.582,1.582,0,0,1-1.08-.35,1.175,1.175,0,0,1-.4-.93,1.817,1.817,0,0,1,.88-1.56,1.066,1.066,0,0,0-.24-.02,1.041,1.041,0,0,0-.32.04A1.905,1.905,0,0,0,67.99-9a2.936,2.936,0,0,0-.53,1.64v5.3a1.558,1.558,0,0,0,.45,1.28,2.287,2.287,0,0,0,1.43.36V0a4.31,4.31,0,0,1-.46-.02q-2.04-.06-2.72-.06-.54,0-2.46.06a3.316,3.316,0,0,1-.4.02V-.42a1.31,1.31,0,0,0,1-.31,1.713,1.713,0,0,0,.28-1.13v-6.3A2.477,2.477,0,0,0,64.3-9.5a1.113,1.113,0,0,0-1-.42v-.42q.64.06,1.24.06a12.568,12.568,0,0,0,2.92-.28V-8.7a3.391,3.391,0,0,1,1.1-1.39A2.665,2.665,0,0,1,70.18-10.62Zm13.08-3.54q3.9,0,5.84,1.77a6.62,6.62,0,0,1,1.94,5.15,7.43,7.43,0,0,1-.95,3.81A6.423,6.423,0,0,1,87.35-.9a9.407,9.407,0,0,1-4.27.9L81.84-.02q-1.16-.04-1.68-.04-2.06,0-3.08.06V-.4a3.473,3.473,0,0,0,.97-.16.692.692,0,0,0,.42-.46,3.923,3.923,0,0,0,.11-1.1v-9.92a3.923,3.923,0,0,0-.11-1.1.692.692,0,0,0-.42-.46,3.473,3.473,0,0,0-.97-.16v-.4q.84.06,2.42.06h.62l.8-.02Q82.56-14.16,83.26-14.16Zm-.02.36a2.365,2.365,0,0,0-.93.14.792.792,0,0,0-.43.5,3.64,3.64,0,0,0-.12,1.08v10A3.64,3.64,0,0,0,81.88-1a.792.792,0,0,0,.43.5,2.432,2.432,0,0,0,.95.14A3.7,3.7,0,0,0,86.7-2.05a10.1,10.1,0,0,0,1.02-5.11,9.411,9.411,0,0,0-1.05-5.03A3.788,3.788,0,0,0,83.24-13.8ZM95-15.5a2.008,2.008,0,0,1,1.33.41,1.394,1.394,0,0,1,.49,1.13,1.394,1.394,0,0,1-.49,1.13,2.008,2.008,0,0,1-1.33.41,2.008,2.008,0,0,1-1.33-.41,1.394,1.394,0,0,1-.49-1.13,1.394,1.394,0,0,1,.49-1.13A2.008,2.008,0,0,1,95-15.5ZM96.56-1.86a1.669,1.669,0,0,0,.29,1.13,1.314,1.314,0,0,0,.99.31V0q-2-.08-2.66-.08-.62,0-2.78.08V-.42a1.31,1.31,0,0,0,1-.31,1.713,1.713,0,0,0,.28-1.13v-6.3A2.477,2.477,0,0,0,93.4-9.5a1.113,1.113,0,0,0-1-.42v-.42q.64.06,1.24.06a12.568,12.568,0,0,0,2.92-.28Zm6.1-8.76a4.9,4.9,0,0,1,1.4.19,3.415,3.415,0,0,1,.98.43.65.65,0,0,0,.36.14.373.373,0,0,0,.31-.19,1.217,1.217,0,0,0,.17-.55h.42q-.08,1.02-.08,3.52h-.42a5.064,5.064,0,0,0-.79-2.21,2.012,2.012,0,0,0-1.77-.89,1.452,1.452,0,0,0-.99.34,1.182,1.182,0,0,0-.39.94,1.65,1.65,0,0,0,.46,1.17,10.113,10.113,0,0,0,1.44,1.19l.58.42a10.343,10.343,0,0,1,1.8,1.64,2.777,2.777,0,0,1,.58,1.8,2.531,2.531,0,0,1-.51,1.56,3.227,3.227,0,0,1-1.37,1.04,4.873,4.873,0,0,1-1.9.36,3.916,3.916,0,0,1-1.88-.42,9.676,9.676,0,0,0-.92-.42.308.308,0,0,0-.35.13,1.386,1.386,0,0,0-.23.57h-.42q.08-1.14.08-4h.42q.4,3.68,2.7,3.68a1.474,1.474,0,0,0,.99-.35,1.33,1.33,0,0,0,.41-1.07,1.988,1.988,0,0,0-.25-1,3.086,3.086,0,0,0-.63-.78q-.38-.34-1.14-.94-.9-.72-1.37-1.16a4.153,4.153,0,0,1-.8-1.04,2.734,2.734,0,0,1-.33-1.34,2.378,2.378,0,0,1,1-2.02A3.987,3.987,0,0,1,102.66-10.62Zm12.46,0a3.175,3.175,0,0,1,1.85.56,3.661,3.661,0,0,1,1.27,1.68,7.222,7.222,0,0,1,.46,2.74,6.78,6.78,0,0,1-1.25,4.39A4.146,4.146,0,0,1,114.06.28a3.89,3.89,0,0,1-1.13-.16,2.527,2.527,0,0,1-.91-.48v2a1.459,1.459,0,0,0,.44,1.22,2.219,2.219,0,0,0,1.36.34v.42l-.54-.02q-2.22-.06-2.82-.06t-2.52.08V3.2a1.233,1.233,0,0,0,.93-.29,1.592,1.592,0,0,0,.27-1.07v-10a2.407,2.407,0,0,0-.29-1.34,1.117,1.117,0,0,0-.99-.42v-.42q.64.06,1.24.06a12.888,12.888,0,0,0,2.92-.28v1.84a3.126,3.126,0,0,1,1.22-1.41A3.528,3.528,0,0,1,115.12-10.62ZM113.28-.26a1.9,1.9,0,0,0,1.84-1.27,9.561,9.561,0,0,0,.56-3.71,9.568,9.568,0,0,0-.45-3.48q-.45-1.04-1.29-1.04a1.794,1.794,0,0,0-1.21.46,2.283,2.283,0,0,0-.71,1.28V-.8A1.605,1.605,0,0,0,113.28-.26Zm10.74-1.6a1.713,1.713,0,0,0,.28,1.13,1.31,1.31,0,0,0,1,.31V0q-2.08-.08-2.68-.08-.68,0-2.76.08V-.42a1.314,1.314,0,0,0,.99-.31,1.669,1.669,0,0,0,.29-1.13v-11.4a2.407,2.407,0,0,0-.29-1.34,1.117,1.117,0,0,0-.99-.42v-.42q.64.06,1.24.06a12.888,12.888,0,0,0,2.92-.28Zm4.78,2a2.525,2.525,0,0,1-1.91-.66,2.415,2.415,0,0,1-.63-1.74,2.317,2.317,0,0,1,.47-1.49,3.21,3.21,0,0,1,1.14-.91,16.861,16.861,0,0,1,1.71-.68,8.908,8.908,0,0,0,1.61-.69.953.953,0,0,0,.51-.85V-8.44a1.994,1.994,0,0,0-.39-1.31,1.483,1.483,0,0,0-1.21-.47,2.028,2.028,0,0,0-1.46.48,1.857,1.857,0,0,1,.87.6,1.49,1.49,0,0,1,.31.94,1.358,1.358,0,0,1-.46,1.08,1.648,1.648,0,0,1-1.12.4,1.35,1.35,0,0,1-1.08-.44,1.623,1.623,0,0,1-.38-1.1,1.628,1.628,0,0,1,.27-.95,2.677,2.677,0,0,1,.83-.73,4.617,4.617,0,0,1,1.33-.5,7.788,7.788,0,0,1,1.73-.18,6.4,6.4,0,0,1,1.7.2,2.672,2.672,0,0,1,1.2.68,2.2,2.2,0,0,1,.59,1.08,7.965,7.965,0,0,1,.15,1.74v5.44a1.814,1.814,0,0,0,.09.68.346.346,0,0,0,.35.2,1.24,1.24,0,0,0,.72-.34l.2.34a3.35,3.35,0,0,1-2.2.74A2.147,2.147,0,0,1,132.2-.3a1.662,1.662,0,0,1-.46-1.18A3.243,3.243,0,0,1,128.8.14Zm1.54-1.28a1.658,1.658,0,0,0,1.36-.82v-4.1a3.053,3.053,0,0,1-1.02.88,4.857,4.857,0,0,0-1.18,1,2.259,2.259,0,0,0-.4,1.44,1.808,1.808,0,0,0,.34,1.21A1.135,1.135,0,0,0,130.34-1.14Zm14.24-9.14a14.927,14.927,0,0,0,1.54-.06v.4a1.533,1.533,0,0,0-.75.51,4.086,4.086,0,0,0-.63,1.21L141.16,1.84a3.331,3.331,0,0,1-.88,1.42,2.606,2.606,0,0,1-1.74.5,2.835,2.835,0,0,1-1.51-.41,1.314,1.314,0,0,1-.67-1.19,1.228,1.228,0,0,1,.44-.99A1.742,1.742,0,0,1,137.96.8a1.687,1.687,0,0,1,1.09.33,1.126,1.126,0,0,1,.41.93,1.262,1.262,0,0,1-.26.77,1.586,1.586,0,0,1-.74.53,3.673,3.673,0,0,0,.46.02q1.24,0,1.82-1.58l.32-.96L136.82-8.8a2.4,2.4,0,0,0-.62-.9,1.036,1.036,0,0,0-.62-.22v-.42q1.32.12,2.74.12,1.18,0,2.78-.12v.42a3.682,3.682,0,0,0-.95.09.43.43,0,0,0-.31.47,1.548,1.548,0,0,0,.14.56l2.44,5.9,1.38-3.84a5.12,5.12,0,0,0,.32-1.6,1.446,1.446,0,0,0-1.48-1.6v-.4Q143.58-10.28,144.58-10.28Z" transform="translate(359 1928)" fill="#07003b"/>
          <path id="Path_639" data-name="Path 639" d="M7.02.28A6.981,6.981,0,0,1,4.5-.13,4.694,4.694,0,0,1,2.75-1.27,4.554,4.554,0,0,1,1.73-3.01,7.15,7.15,0,0,1,1.4-5.24v-8.62H4.52V-5.5a4.7,4.7,0,0,0,.19,1.43,2.635,2.635,0,0,0,.52.96,1.856,1.856,0,0,0,.8.53,3.178,3.178,0,0,0,1.03.16,2.522,2.522,0,0,0,1.85-.7A3.266,3.266,0,0,0,9.62-5.5v-8.36h3.12v8.62A7.048,7.048,0,0,1,12.4-3a4.584,4.584,0,0,1-1.04,1.75A4.664,4.664,0,0,1,9.58-.12,7.373,7.373,0,0,1,7.02.28ZM22.28-5.34q0-2.88-2.12-2.88a3.517,3.517,0,0,0-.91.12,2.589,2.589,0,0,0-.73.3v5.42q.22.04.56.07t.74.03a2.141,2.141,0,0,0,1.84-.84A3.651,3.651,0,0,0,22.28-5.34Zm3.04.08a6.649,6.649,0,0,1-.37,2.28,4.813,4.813,0,0,1-1.07,1.74A4.7,4.7,0,0,1,22.16-.13a6.461,6.461,0,0,1-2.32.39q-.54,0-1.13-.05T17.55.08Q16.98,0,16.46-.11t-.92-.23v-14.7l2.98-.48v5.24a5.583,5.583,0,0,1,1.04-.34,5.341,5.341,0,0,1,1.16-.12,4.749,4.749,0,0,1,1.98.39,3.877,3.877,0,0,1,1.44,1.11,4.985,4.985,0,0,1,.88,1.73A7.888,7.888,0,0,1,25.32-5.26ZM36.6-.36a16.61,16.61,0,0,1-1.96.41,16.106,16.106,0,0,1-2.52.19,5.984,5.984,0,0,1-2.23-.36,3.385,3.385,0,0,1-1.41-1.01,3.942,3.942,0,0,1-.74-1.55,8.337,8.337,0,0,1-.22-1.98v-5.86H30.5v5.5a4.263,4.263,0,0,0,.38,2.08,1.512,1.512,0,0,0,1.42.64q.32,0,.68-.03t.64-.07v-8.12H36.6Zm2.8-9.8a16.61,16.61,0,0,1,1.96-.41,16.106,16.106,0,0,1,2.52-.19,6.138,6.138,0,0,1,2.23.35,3.35,3.35,0,0,1,1.41.99,3.857,3.857,0,0,1,.74,1.52,8.087,8.087,0,0,1,.22,1.96V0H45.5V-5.58a4.017,4.017,0,0,0-.38-2.04,1.55,1.55,0,0,0-1.42-.6q-.32,0-.68.03t-.64.07V0H39.4Zm11.68-2.98,2.98-.48v3.1h3.58v2.48H54.06v3.7a2.943,2.943,0,0,0,.33,1.5,1.416,1.416,0,0,0,1.33.56,5.694,5.694,0,0,0,.99-.09,5.1,5.1,0,0,0,.93-.25L58.06-.3a8.479,8.479,0,0,1-1.2.38,6.992,6.992,0,0,1-1.62.16,5.333,5.333,0,0,1-2.02-.33,3.169,3.169,0,0,1-1.28-.92,3.425,3.425,0,0,1-.67-1.43,8.442,8.442,0,0,1-.19-1.86ZM69.04-.36a16.61,16.61,0,0,1-1.96.41,16.106,16.106,0,0,1-2.52.19,5.984,5.984,0,0,1-2.23-.36,3.385,3.385,0,0,1-1.41-1.01,3.942,3.942,0,0,1-.74-1.55,8.337,8.337,0,0,1-.22-1.98v-5.86h2.98v5.5a4.263,4.263,0,0,0,.38,2.08,1.512,1.512,0,0,0,1.42.64q.32,0,.68-.03t.64-.07v-8.12h2.98Z" transform="translate(359 2054)" fill="#07003b"/>
          <path id="Path_638" data-name="Path 638" d="M6.934-14.219a5.9,5.9,0,0,1,3.8,1.108,3.714,3.714,0,0,1,1.377,3.062,3.083,3.083,0,0,1-.576,1.865A4.028,4.028,0,0,1,9.844-6.9a3.068,3.068,0,0,1,1.812,1.235,3.907,3.907,0,0,1,.552,2.144V-2.8a1.233,1.233,0,0,0,.186.728.828.828,0,0,0,.615.308l.352.049V0H11.885A2.307,2.307,0,0,1,9.922-.752,3.144,3.144,0,0,1,9.355-2.7v-.811A2.289,2.289,0,0,0,8.8-5.132a2.116,2.116,0,0,0-1.558-.62H4.912V-2l1.523.293V0H.547V-1.709L2.061-2V-12.207L.547-12.5v-1.719H6.934ZM4.912-7.949H6.885a2.7,2.7,0,0,0,1.787-.508,1.818,1.818,0,0,0,.6-1.465,2.028,2.028,0,0,0-.591-1.528,2.413,2.413,0,0,0-1.743-.571H4.912Zm9.453,2.568a5.657,5.657,0,0,1,1.323-3.872,4.61,4.61,0,0,1,3.657-1.509,4.629,4.629,0,0,1,3.667,1.5,5.653,5.653,0,0,1,1.323,3.877v.205a5.649,5.649,0,0,1-1.323,3.882,4.613,4.613,0,0,1-3.647,1.5,4.648,4.648,0,0,1-3.677-1.5,5.649,5.649,0,0,1-1.323-3.882Zm2.852.205a4.6,4.6,0,0,0,.508,2.319,1.753,1.753,0,0,0,1.641.874,1.736,1.736,0,0,0,1.616-.879,4.566,4.566,0,0,0,.513-2.314v-.205a4.52,4.52,0,0,0-.518-2.295,1.751,1.751,0,0,0-1.631-.889,1.729,1.729,0,0,0-1.621.889,4.591,4.591,0,0,0-.508,2.295Zm18.574.186a6.181,6.181,0,0,1-1.055,3.779A3.567,3.567,0,0,1,31.689.205a3.225,3.225,0,0,1-1.611-.386A3.283,3.283,0,0,1,28.926-1.3L28.721,0H26.26V-13.223l-1.514-.293v-1.719H29.1v5.791a3.228,3.228,0,0,1,1.1-.977,3.071,3.071,0,0,1,1.47-.342,3.5,3.5,0,0,1,3.066,1.519A6.971,6.971,0,0,1,35.791-5.2ZM32.949-5.2A5.5,5.5,0,0,0,32.5-7.642a1.593,1.593,0,0,0-1.548-.9,2.128,2.128,0,0,0-1.123.278,1.929,1.929,0,0,0-.723.8v4.463a1.8,1.8,0,0,0,.728.742,2.342,2.342,0,0,0,1.138.254,1.621,1.621,0,0,0,1.543-.776,4.522,4.522,0,0,0,.439-2.2Zm4.16-.186a5.657,5.657,0,0,1,1.323-3.872,4.61,4.61,0,0,1,3.657-1.509,4.629,4.629,0,0,1,3.667,1.5A5.653,5.653,0,0,1,47.08-5.381v.205a5.649,5.649,0,0,1-1.323,3.882,4.613,4.613,0,0,1-3.647,1.5,4.648,4.648,0,0,1-3.677-1.5,5.649,5.649,0,0,1-1.323-3.882Zm2.852.205a4.6,4.6,0,0,0,.508,2.319,1.753,1.753,0,0,0,1.641.874,1.736,1.736,0,0,0,1.616-.879,4.566,4.566,0,0,0,.513-2.314v-.205a4.52,4.52,0,0,0-.518-2.295,1.751,1.751,0,0,0-1.631-.889,1.729,1.729,0,0,0-1.621.889,4.591,4.591,0,0,0-.508,2.295Zm12.568-7.979v2.588h1.855v2H52.529v5.381a1.244,1.244,0,0,0,.254.879.9.9,0,0,0,.684.264,4.707,4.707,0,0,0,.513-.024q.22-.024.493-.083l.244,2.061a6.846,6.846,0,0,1-.947.22,6.591,6.591,0,0,1-1.016.073,3.039,3.039,0,0,1-2.271-.811,3.554,3.554,0,0,1-.8-2.568V-8.564H48.135v-2h1.553v-2.588Zm2.959,7.773a5.657,5.657,0,0,1,1.323-3.872,4.61,4.61,0,0,1,3.657-1.509,4.629,4.629,0,0,1,3.667,1.5,5.653,5.653,0,0,1,1.323,3.877v.205a5.649,5.649,0,0,1-1.323,3.882,4.613,4.613,0,0,1-3.647,1.5,4.648,4.648,0,0,1-3.677-1.5,5.649,5.649,0,0,1-1.323-3.882Zm2.852.205a4.6,4.6,0,0,0,.508,2.319,1.753,1.753,0,0,0,1.641.874A1.736,1.736,0,0,0,62.1-2.861a4.566,4.566,0,0,0,.513-2.314v-.205A4.52,4.52,0,0,0,62.1-7.676a1.751,1.751,0,0,0-1.631-.889,1.729,1.729,0,0,0-1.621.889,4.591,4.591,0,0,0-.508,2.295Zm23.994-4.5H80.2l-.371-1.953a3.78,3.78,0,0,0-1.084-.41,6.3,6.3,0,0,0-1.514-.176,2.911,2.911,0,0,0-1.812.493,1.538,1.538,0,0,0-.64,1.274,1.394,1.394,0,0,0,.669,1.187,9.252,9.252,0,0,0,2.31.981,9.01,9.01,0,0,1,3.569,1.729A3.585,3.585,0,0,1,82.539-3.73,3.376,3.376,0,0,1,81.094-.85,6.314,6.314,0,0,1,77.285.205a8.259,8.259,0,0,1-3.052-.537,6.286,6.286,0,0,1-2.271-1.484V-4.785H74.17l.3,2.021a3.455,3.455,0,0,0,1.167.581,5.523,5.523,0,0,0,1.646.229,2.843,2.843,0,0,0,1.782-.479,1.543,1.543,0,0,0,.61-1.279A1.651,1.651,0,0,0,79.1-5.029a5.878,5.878,0,0,0-2.036-.937,11.594,11.594,0,0,1-3.828-1.738,3.294,3.294,0,0,1-1.3-2.754A3.385,3.385,0,0,1,73.4-13.286a6.105,6.105,0,0,1,3.682-1.128,8.565,8.565,0,0,1,2.988.5,6.9,6.9,0,0,1,2.266,1.328Zm1.094-3.838v-1.719H87.8V-2l1.377.293V0H83.574V-1.709L84.951-2V-13.223ZM96.836,0a5.157,5.157,0,0,1-.205-.542,4.275,4.275,0,0,1-.137-.562,3.923,3.923,0,0,1-1.235.947,3.7,3.7,0,0,1-1.665.361A3.488,3.488,0,0,1,91.128-.64a2.979,2.979,0,0,1-.913-2.3,2.615,2.615,0,0,1,1.191-2.295,6.223,6.223,0,0,1,3.5-.811h1.455V-7.08a1.557,1.557,0,0,0-.439-1.182,1.812,1.812,0,0,0-1.3-.42,3.076,3.076,0,0,0-.869.112,2.274,2.274,0,0,0-.615.269l-.186,1.133H90.8l.01-2.344A8,8,0,0,1,92.6-10.4a6.5,6.5,0,0,1,2.2-.361,5.014,5.014,0,0,1,3.188.962,3.279,3.279,0,0,1,1.226,2.739V-2.7q0,.244,0,.459a3.266,3.266,0,0,0,.034.41l.869.117V0ZM94.365-1.9a2.471,2.471,0,0,0,1.172-.278,2.263,2.263,0,0,0,.82-.7V-4.492H94.9a1.987,1.987,0,0,0-1.377.425,1.33,1.33,0,0,0-.469,1.021,1.056,1.056,0,0,0,.347.84A1.414,1.414,0,0,0,94.365-1.9ZM111-4.99a6.181,6.181,0,0,1-1.055,3.779A3.567,3.567,0,0,1,106.895.205a3.225,3.225,0,0,1-1.611-.386A3.283,3.283,0,0,1,104.131-1.3L103.926,0h-2.461V-13.223l-1.514-.293v-1.719h4.355v5.791a3.228,3.228,0,0,1,1.1-.977,3.071,3.071,0,0,1,1.47-.342,3.5,3.5,0,0,1,3.066,1.519A6.971,6.971,0,0,1,111-5.2ZM108.154-5.2a5.5,5.5,0,0,0-.454-2.446,1.593,1.593,0,0,0-1.548-.9,2.128,2.128,0,0,0-1.123.278,1.929,1.929,0,0,0-.723.8v4.463a1.8,1.8,0,0,0,.728.742,2.342,2.342,0,0,0,1.138.254,1.621,1.621,0,0,0,1.543-.776,4.522,4.522,0,0,0,.439-2.2Z" transform="translate(359 2013)" fill="#07003b"/>
        </g>
        <g id="Label">
          <path id="Rectangle_545" data-name="Rectangle 545" d="M10,0H276a10,10,0,0,1,10,10V78a0,0,0,0,1,0,0H0a0,0,0,0,1,0,0V10A10,10,0,0,1,10,0Z" transform="translate(334 1670)" fill="#fdb400" opacity="0.7"/>
          <path id="Path_631" data-name="Path 631" d="M11.024-10.816v3.328h3.9v3.12a8.377,8.377,0,0,1-4.056,1.014c-3.562,0-5.824-2.262-5.824-5.72,0-3.484,2.34-5.772,5.46-5.772a5.155,5.155,0,0,1,4.264,2.054L18.044-14.9a9.242,9.242,0,0,0-7.514-3.614A9.189,9.189,0,0,0,1.092-9.048c0,5.46,3.978,9.36,9.646,9.36A12.375,12.375,0,0,0,18.512-2.34v-8.476ZM28.47.312a6.838,6.838,0,0,0,7.124-6.994,6.823,6.823,0,0,0-7.124-6.994,6.838,6.838,0,0,0-7.124,6.994A6.853,6.853,0,0,0,28.47.312Zm0-3.354a3.419,3.419,0,0,1-3.432-3.64,3.4,3.4,0,0,1,3.432-3.64A3.39,3.39,0,0,1,31.9-6.682,3.4,3.4,0,0,1,28.47-3.042ZM44.72.312a6.838,6.838,0,0,0,7.124-6.994,6.823,6.823,0,0,0-7.124-6.994A6.838,6.838,0,0,0,37.6-6.682,6.853,6.853,0,0,0,44.72.312Zm0-3.354a3.419,3.419,0,0,1-3.432-3.64,3.4,3.4,0,0,1,3.432-3.64,3.39,3.39,0,0,1,3.432,3.64A3.4,3.4,0,0,1,44.72-3.042ZM64.038-13.364v.91a5.821,5.821,0,0,0-3.666-1.222,6.546,6.546,0,0,0-6.526,6.734A6.5,6.5,0,0,0,60.372-.26a5.821,5.821,0,0,0,3.666-1.222V-.468c0,1.9-1.274,3.094-3.458,3.094A6.915,6.915,0,0,1,56.186.832L54.028,3.51a9.586,9.586,0,0,0,6.63,2.47c4.316,0,7.02-2.418,7.02-6.448v-12.9ZM60.944-3.536a3.291,3.291,0,0,1-3.406-3.406,3.306,3.306,0,0,1,3.406-3.406,4.1,4.1,0,0,1,3.094,1.4v4A4.1,4.1,0,0,1,60.944-3.536ZM71.162,0H74.8V-19.188h-3.64ZM91.468-7.046c0-4.108-2.782-6.63-6.682-6.63a6.874,6.874,0,0,0-7.228,7.1c0,4.056,2.834,6.89,7.254,6.89a7.609,7.609,0,0,0,6.24-2.86L88.5-4.472a4.556,4.556,0,0,1-3.64,1.69,3.35,3.35,0,0,1-3.692-2.964H91.39A10.9,10.9,0,0,0,91.468-7.046ZM84.734-10.66a2.832,2.832,0,0,1,3.094,2.34h-6.5A3.275,3.275,0,0,1,84.734-10.66Zm28.938-3.978V-18.2H100.7V0h3.822V-6.968h8.372V-10.53H104.52v-4.108Zm9.1,14.95A6.838,6.838,0,0,0,129.9-6.682a6.823,6.823,0,0,0-7.124-6.994,6.838,6.838,0,0,0-7.124,6.994A6.853,6.853,0,0,0,122.772.312Zm0-3.354a3.419,3.419,0,0,1-3.432-3.64,3.4,3.4,0,0,1,3.432-3.64,3.39,3.39,0,0,1,3.432,3.64A3.4,3.4,0,0,1,122.772-3.042Zm17.42-10.634a6.158,6.158,0,0,0-3.9,1.326v-1.014h-3.64V0h3.64V-8.918a3.89,3.89,0,0,1,2.912-1.4c1.56,0,2.522,1.014,2.522,3.068V0h3.64V-8.034C145.366-11.648,143.26-13.676,140.192-13.676ZM157.43-3.432a6.52,6.52,0,0,1-1.924.338c-1.456,0-2.106-.728-2.106-2.418v-4.654h3.978v-3.2H153.4v-3.12h-3.64v3.12h-2.574v3.2h2.574v5.1c0,3.666,1.69,5.33,4.966,5.33a8.583,8.583,0,0,0,3.146-.572ZM165.438.312c3.614,0,5.668-1.742,5.668-4.42,0-1.95-1.118-3.172-3.848-3.822l-2.288-.546c-1.2-.286-1.56-.6-1.56-1.092,0-.6.6-1.066,1.794-1.066a6.97,6.97,0,0,1,3.926,1.4l1.794-2.6a8.856,8.856,0,0,0-5.59-1.846c-3.458,0-5.538,1.742-5.538,4.342,0,1.9,1.092,3.094,3.8,3.718l2.288.546c1.2.286,1.586.676,1.586,1.17,0,.676-.676,1.144-1.95,1.144a7.874,7.874,0,0,1-4.342-1.534l-1.742,2.756A10.059,10.059,0,0,0,165.438.312Z" transform="translate(359 1717.5)" fill="#07003b"/>
          <path id="Path_632" data-name="Path 632" d="M-6.787-13.5a1.053,1.053,0,0,0-.744,1.8L-.749-4.915a1.057,1.057,0,0,0,1.492,0L7.525-11.7a1.053,1.053,0,0,0-.744-1.8Z" transform="translate(587 1720)" fill="#07003b"/>
        </g>
      </g>
    </g>
    <g id="Google_fonts_customize_screen" data-name="Google fonts customize screen" transform="translate(-248 117)">
      <g transform="matrix(1, 0, 0, 1, 304, 1405)" filter="url(#Rectangle_436-2)">
        <rect id="Rectangle_436-5" data-name="Rectangle 436" width="286" height="173" rx="10" transform="translate(30 265)" fill="#fff"/>
      </g>
      <g id="Group_92" data-name="Group 92" transform="translate(485.999 1715.678)">
        <rect id="Rectangle_437" data-name="Rectangle 437" width="59" height="83" rx="2" transform="translate(0 0.322)" fill="#3c50e0"/>
        <g id="Group_91" data-name="Group 91" transform="translate(4.222 9.554)">
          <rect id="Rectangle_439" data-name="Rectangle 439" width="49" height="10" rx="1" transform="translate(0.779 24.768)" fill="#fff" opacity="0.9"/>
          <rect id="Rectangle_440" data-name="Rectangle 440" width="49" height="10" rx="1" transform="translate(0.779 39.768)" fill="#fff" opacity="0.9"/>
          <rect id="Rectangle_441" data-name="Rectangle 441" width="31" height="10" rx="1" transform="translate(9.779 54.768)" fill="#ff5670"/>
          <rect id="Rectangle_438" data-name="Rectangle 438" width="17" height="17" rx="8.5" transform="translate(16.779 -0.231)" fill="#ff5670"/>
        </g>
      </g>
      <g id="Aside">
        <path id="Rectangle_535" data-name="Rectangle 535" d="M10,0H78a0,0,0,0,1,0,0V173a0,0,0,0,1,0,0H10A10,10,0,0,1,0,163V10A10,10,0,0,1,10,0Z" transform="translate(334 1670)" fill="#3c50e0"/>
        <g id="Google_font_select" data-name="Google font select">
          <g id="Fonts">
            <rect id="Rectangle_537" data-name="Rectangle 537" width="64" height="110" rx="2" transform="translate(341 1701)" fill="#fff" opacity="0.8"/>
            <g id="Group_101" data-name="Group 101">
              <rect id="Rectangle_538" data-name="Rectangle 538" width="54" height="7" rx="2" transform="translate(346 1719)" fill="#3c50e0" opacity="0.8"/>
              <rect id="Rectangle_539" data-name="Rectangle 539" width="54" height="7" rx="2" transform="translate(346 1732)" fill="#3c50e0" opacity="0.8"/>
              <rect id="Rectangle_540" data-name="Rectangle 540" width="54" height="7" rx="2" transform="translate(346 1745)" fill="#3c50e0" opacity="0.8"/>
              <rect id="Rectangle_541" data-name="Rectangle 541" width="54" height="7" rx="2" transform="translate(346 1758)" fill="#3c50e0" opacity="0.8"/>
              <rect id="Rectangle_542" data-name="Rectangle 542" width="54" height="7" rx="2" transform="translate(346 1771)" fill="#3c50e0" opacity="0.8"/>
              <rect id="Rectangle_543" data-name="Rectangle 543" width="54" height="7" rx="2" transform="translate(346 1784)" fill="#3c50e0" opacity="0.8"/>
              <rect id="Rectangle_544" data-name="Rectangle 544" width="54" height="7" rx="2" transform="translate(346 1797)" fill="#3c50e0" opacity="0.8"/>
            </g>
          </g>
          <g id="Label-2" data-name="Label">
            <rect id="Rectangle_536" data-name="Rectangle 536" width="64" height="20" rx="2" transform="translate(341 1693)" fill="#fff"/>
            <text id="Google_Fonts" data-name="Google Fonts" transform="translate(372 1705)" fill="#07003b" font-size="7" font-family="BRCandor-Bold, BR Candor" font-weight="700"><tspan x="-23.153" y="0">Google Fonts</tspan></text>
          </g>
        </g>
      </g>
    </g>
    <g id="Google_fonts-2" data-name="Google fonts" transform="translate(-248 -123)">
      <g transform="matrix(1, 0, 0, 1, 304, 1645)" filter="url(#Rectangle_436-3)">
        <rect id="Rectangle_436-6" data-name="Rectangle 436" width="286" height="210" rx="10" transform="translate(30 25)" fill="#fff"/>
      </g>
      <g id="Google_fonts-3" data-name="Google fonts" transform="translate(162.768 -2688.348)">
        <rect id="Rectangle_527" data-name="Rectangle 527" width="50" height="50" rx="25" transform="translate(235.465 4399.848)" fill="#ff4131"/>
        <path id="Path_181" data-name="Path 181" d="M-190.039,0h49.458V18.954l-68.115,107.5H-270Z" transform="translate(502 4400)" fill="#ffbd00"/>
        <rect id="Rectangle_528" data-name="Rectangle 528" width="49" height="127" transform="translate(312.465 4399.848)" fill="#0074ec"/>
        <rect id="Rectangle_529" data-name="Rectangle 529" width="55" height="55" rx="27.5" transform="translate(333.465 4399.848)" fill="#0074ec"/>
        <rect id="Rectangle_530" data-name="Rectangle 530" width="71" height="72" rx="35.5" transform="translate(325.465 4454.848)" fill="#00aa4b"/>
        <path id="Subtraction_2" data-name="Subtraction 2" d="M36,72h-.009A35.988,35.988,0,0,1,10.544,10.544,35.887,35.887,0,0,1,36,0Z" transform="translate(325.465 4454.848)" fill="#006524"/>
        <path id="Subtraction_3" data-name="Subtraction 3" d="M27,55h0A27.122,27.122,0,0,1,0,27.853v-.707A27.123,27.123,0,0,1,27,0Z" transform="translate(333.465 4399.848)" fill="#004daa"/>
      </g>
    </g>
  </g>
</svg>
