<svg xmlns="http://www.w3.org/2000/svg" width="206.405" height="41.585" viewBox="0 0 206.405 41.585">
  <g id="Logo" transform="translate(2107.578 -1437.224)">
    <g id="Group_75" data-name="Group 75" transform="translate(-2272.923 1004.5)">
      <path id="Rectangle_359" data-name="Rectangle 359" d="M0,0H9.559a0,0,0,0,1,0,0V31.256a0,0,0,0,1,0,0H6a6,6,0,0,1-6-6V0A0,0,0,0,1,0,0Z" transform="translate(165.345 432.724)" fill="#fff" opacity="0.6"/>
      <path id="Path_139" data-name="Path 139" d="M203.734,502.925,205.811,505a3.822,3.822,0,0,1,0,5.4l-2.077,2.077H171.073a5.728,5.728,0,0,1-5.728-5.728v-3.831Z" transform="translate(0 -48.504)" fill="#fff" opacity="0.6"/>
      <path id="Rectangle_360" data-name="Rectangle 360" d="M0,0H9.559a0,0,0,0,1,0,0V21.368a0,0,0,0,1,0,0H4a4,4,0,0,1-4-4V0A0,0,0,0,1,0,0Z" transform="translate(193.404 474.309) rotate(-135)" fill="#fff" opacity="0.6"/>
      <path id="Rectangle_361" data-name="Rectangle 361" d="M4,0H9.559a0,0,0,0,1,0,0V21.368a0,0,0,0,1,0,0H0a0,0,0,0,1,0,0V4A4,4,0,0,1,4,0Z" transform="translate(208.513 459.2) rotate(135)" fill="#fff" opacity="0.6"/>
    </g>
    <g id="Group_26" data-name="Group 26" transform="translate(-2052.321 1442.703)">
      <path id="Path_2" data-name="Path 2" d="M344.2,452.231h4.607v16.693a.7.7,0,0,0,.7.7h9v3.966H347.349a3.149,3.149,0,0,1-3.149-3.149Z" transform="translate(-344.2 -451.529)" fill="#fff"/>
      <path id="Path_3" data-name="Path 3" d="M394.069,478.73a8.118,8.118,0,1,1,8.116,7.933A7.759,7.759,0,0,1,394.069,478.73Zm11.961,0c0-2.563-1.556-4.3-3.844-4.3s-3.845,1.739-3.845,4.3c0,2.532,1.556,4.272,3.845,4.272S406.03,481.263,406.03,478.73Z" transform="translate(-378.662 -464.359)" fill="#fff"/>
      <path id="Path_4" data-name="Path 4" d="M468.044,471.041v16.293c0,3.2-2.319,5.309-5.8,5.309H454.5v-3.326h7.079a2.259,2.259,0,0,0,2.227-2.441v-2.014a5.117,5.117,0,0,1-4.21,1.8c-4.547,0-7.262-3.143-7.262-7.933s2.715-7.933,7.2-7.933a5.351,5.351,0,0,1,4.241,1.77v-1.526Zm-4,7.689c0-2.594-1.5-4.3-3.783-4.3-2.258,0-3.753,1.708-3.753,4.3s1.5,4.272,3.753,4.272C462.552,483,464.047,481.324,464.047,478.73Z" transform="translate(-418.923 -464.359)" fill="#fff"/>
      <g id="Group_3" data-name="Group 3" transform="translate(52.354 0)">
        <rect id="Rectangle_4" data-name="Rectangle 4" width="4.516" height="4.485" rx="2.243" fill="#fff"/>
        <rect id="Rectangle_5" data-name="Rectangle 5" width="4.272" height="15.378" transform="translate(0.122 6.682)" fill="#fff"/>
      </g>
      <path id="Path_5" data-name="Path 5" d="M596.9,452.231h8.787c4.547,0,7.2,2.807,7.2,6.743,0,3.905-2.654,6.743-7.2,6.743h-4.18v7.872H596.9Zm8.513,9.672a2.931,2.931,0,1,0,0-5.858H601.51V461.9Z" transform="translate(-518.829 -451.529)" fill="#fff"/>
      <path id="Path_6" data-name="Path 6" d="M706.5,481.2c-.61,3.326-3.539,5.462-7.323,5.462a7.711,7.711,0,0,1-7.9-7.963c0-3.905,2.38-7.9,7.6-7.9,5.431,0,7.6,4,7.6,7.506,0,.58-.031,1.037-.061,1.373H695.365a3.69,3.69,0,0,0,3.814,3.509c1.709,0,2.838-.671,3.173-1.983Zm-11.076-4.21h6.8a3.181,3.181,0,0,0-3.356-3.081C696.951,473.909,695.791,474.855,695.425,476.991Z" transform="translate(-584.045 -464.359)" fill="#fff"/>
      <path id="Path_7" data-name="Path 7" d="M746.761,481.232h3.661a2.54,2.54,0,0,0,2.807,2.228c1.312,0,2.227-.641,2.227-1.5,0-3.143-8.269-.061-8.269-6.529,0-2.715,2.349-4.638,5.492-4.638,3.692,0,6.194,1.984,6.347,5h-3.692a2.441,2.441,0,0,0-2.532-2.014c-1.19,0-2.014.519-2.014,1.5,0,3.142,8.421-.427,8.421,6.529,0,2.929-2.38,4.851-5.98,4.851C749.476,486.663,746.914,484.558,746.761,481.232Z" transform="translate(-622.388 -464.359)" fill="#fff"/>
      <path id="Path_8" data-name="Path 8" d="M793.131,481.232h3.662a2.54,2.54,0,0,0,2.807,2.228c1.312,0,2.227-.641,2.227-1.5,0-3.143-8.269-.061-8.269-6.529,0-2.715,2.349-4.638,5.492-4.638,3.692,0,6.194,1.984,6.346,5H801.7a2.441,2.441,0,0,0-2.532-2.014c-1.19,0-2.014.519-2.014,1.5,0,3.142,8.421-.427,8.421,6.529,0,2.929-2.38,4.851-5.98,4.851C795.847,486.663,793.284,484.558,793.131,481.232Z" transform="translate(-654.432 -464.359)" fill="#fff"/>
      <path id="Path_9" data-name="Path 9" d="M553.163,476.834v9.58h-4.272v-8.738a2.945,2.945,0,1,0-5.89,0v8.738H538.73v-9.58c0-3.539,2.255-6.041,5.736-6.041h2.962C550.908,470.793,553.163,473.295,553.163,476.834Z" transform="translate(-478.629 -464.356)" fill="#fff"/>
      <path id="Path_10" data-name="Path 10" d="M663.477,471.587H660.9a5.541,5.541,0,0,0-5.541,5.541v9.837h4.272v-7.475c0-2.624.946-4.363,3.051-4.363h2.532v-3.539Z" transform="translate(-559.227 -464.905)" fill="#fff"/>
    </g>
  </g>
</svg>
