<svg xmlns="http://www.w3.org/2000/svg" width="50" height="50" viewBox="0 0 50 50">
  <g id="Group_87" data-name="Group 87" transform="translate(-613.014 24.461)">
    <path id="Rectangle_373" data-name="Rectangle 373" d="M12.875,0H13.4A11.488,11.488,0,0,1,24.886,11.488V24.561a0,0,0,0,1,0,0h-13.2A11.687,11.687,0,0,1,0,12.875v0A12.875,12.875,0,0,1,12.875,0Z" transform="translate(613.014 -24.461)" fill="#3c50e0"/>
    <path id="Rectangle_374" data-name="Rectangle 374" d="M0,0H24.886a0,0,0,0,1,0,0V.552A24.886,24.886,0,0,1,0,25.439H0a0,0,0,0,1,0,0V0A0,0,0,0,1,0,0Z" transform="translate(638.127 25.539) rotate(180)" fill="#ff5670"/>
    <g id="Group_83" data-name="Group 83" transform="translate(663.014 14.844) rotate(180)">
      <path id="Path_122" data-name="Path 122" d="M0,0,24.785,25.113H0Z" transform="translate(0 24.785) rotate(-90)" fill="#fdb400"/>
    </g>
  </g>
</svg>
