<svg xmlns="http://www.w3.org/2000/svg" width="188" height="376" viewBox="0 0 188 376">
  <g id="Group_367" data-name="Group 367" transform="translate(240 -1116)">
    <path id="Rectangle_316" data-name="Rectangle 316" d="M0,0H188a0,0,0,0,1,0,0V0A188,188,0,0,1,0,188H0a0,0,0,0,1,0,0V0A0,0,0,0,1,0,0Z" transform="translate(-240 1116)" fill="#ffccd4"/>
    <path id="Rectangle_325" data-name="Rectangle 325" d="M0,0H188a0,0,0,0,1,0,0V0A188,188,0,0,1,0,188H0a0,0,0,0,1,0,0V0A0,0,0,0,1,0,0Z" transform="translate(-240 1492) rotate(-90)" fill="#f6366a"/>
  </g>
</svg>
