<svg xmlns="http://www.w3.org/2000/svg" width="50" height="50" viewBox="0 0 50 50">
  <g id="Group_86" data-name="Group 86" transform="translate(-613 24.461)">
    <path id="Rectangle_373" data-name="Rectangle 373" d="M13.042,0h.2A11.638,11.638,0,0,1,24.88,11.638V24.88a0,0,0,0,1,0,0H11.838A11.838,11.838,0,0,1,0,13.042v0A13.042,13.042,0,0,1,13.042,0Z" transform="translate(613.24 -24.461)" fill="#fdb400"/>
    <path id="Rectangle_374" data-name="Rectangle 374" d="M0,0H24.88a0,0,0,0,1,0,0V.889A24.88,24.88,0,0,1,0,25.769H0a0,0,0,0,1,0,0V0A0,0,0,0,1,0,0Z" transform="translate(663 13.304) rotate(180)" fill="#3c50e0"/>
    <g id="Group_83" data-name="Group 83" transform="translate(638.107 25.539) rotate(180)">
      <path id="Path_122" data-name="Path 122" d="M0,0,25.107,25.107H0Z" transform="translate(0 0)" fill="#ff5670"/>
    </g>
  </g>
</svg>
