<svg xmlns="http://www.w3.org/2000/svg" width="1598" height="530" viewBox="0 0 1598 530">
  <g id="BG" transform="translate(-1)" opacity="0.22">
    <path id="Path_556" data-name="Path 556" d="M90,265a88.509,88.509,0,0,1-11.917,44.5A89.262,89.262,0,0,1,45.5,342.092,88.567,88.567,0,0,1,1,354V176a88.566,88.566,0,0,1,44.5,11.908A89.262,89.262,0,0,1,78.083,220.5,88.509,88.509,0,0,1,90,265Z" fill="#eceffa"/>
    <path id="Path_557" data-name="Path 557" d="M356,176V354H178a89,89,0,0,0,0-178Z" fill="#f3f5fd"/>
    <path id="Path_558" data-name="Path 558" d="M533,353H356a89.1,89.1,0,0,1,44.25-77.09,88.171,88.171,0,0,1,88.5,0A89.1,89.1,0,0,1,533,353Z" transform="translate(0 1.002)" fill="#f3f5fd"/>
    <path id="Path_559" data-name="Path 559" d="M843.75,342.092A87.688,87.688,0,0,0,888,354H711V176H888a87.688,87.688,0,0,0-44.25,11.908,89.243,89.243,0,0,0,0,154.184Z" fill="#eceffa"/>
    <path id="Path_560" data-name="Path 560" d="M1198.75,342.092A87.706,87.706,0,0,0,1243,354H1066V176h177a87.707,87.707,0,0,0-44.25,11.908,89.243,89.243,0,0,0,0,154.184Z" fill="#eceffa"/>
    <path id="Path_561" data-name="Path 561" d="M178,0V176a87.137,87.137,0,0,0-11.85-44,88.713,88.713,0,0,0-153.3,0A87.135,87.135,0,0,0,1,176V0Z" fill="#f3f5fd"/>
    <path id="Path_562" data-name="Path 562" d="M178,176H1a87.135,87.135,0,0,1,11.85-44,88.714,88.714,0,0,1,153.3,0A87.137,87.137,0,0,1,178,176Z" fill="#e0e3f2"/>
    <path id="Path_563" data-name="Path 563" d="M178,176V354H1a87.69,87.69,0,0,0,44.25-11.908A89.012,89.012,0,0,0,77.65,309.5a89.479,89.479,0,0,0,0-89,89.013,89.013,0,0,0-32.4-32.592A87.689,87.689,0,0,0,1,176Z" fill="#f3f5fd"/>
    <path id="Path_564" data-name="Path 564" d="M488.75,164.226A88.46,88.46,0,0,0,533,176H356V0H533a88.529,88.529,0,0,0-76.65,44,87.613,87.613,0,0,0,0,88,88.525,88.525,0,0,0,32.4,32.226Z" fill="#f3f5fd"/>
    <path id="Path_565" data-name="Path 565" d="M666.5,342.092A88.566,88.566,0,0,0,711,354H533V176H711a89.01,89.01,0,0,0-44.5,166.092Z" fill="#f3f5fd"/>
    <path id="Path_566" data-name="Path 566" d="M1588.09,220.5A88.581,88.581,0,0,0,1600,176V354H1422V176a89.011,89.011,0,0,0,166.093,44.5Z" transform="translate(-1)" fill="#f3f5fd"/>
    <path id="Path_567" data-name="Path 567" d="M1066,0V176H888a89.122,89.122,0,0,0,77.083-44,87.187,87.187,0,0,0,0-88A89.125,89.125,0,0,0,888,0Z" fill="#f3f5fd"/>
    <path id="Path_568" data-name="Path 568" d="M1243,0V176H1066a88.526,88.526,0,0,0,76.65-44,87.613,87.613,0,0,0,0-88A88.529,88.529,0,0,0,1066,0Z" fill="#eceffa"/>
    <path id="Path_569" data-name="Path 569" d="M356,1a86.759,86.759,0,0,1-11.917,44A88.766,88.766,0,0,1,311.5,77.226,89.341,89.341,0,0,1,267,89a89.341,89.341,0,0,1-44.5-11.774A88.766,88.766,0,0,1,189.917,45,86.759,86.759,0,0,1,178,1Z" transform="translate(0 -1)" fill="#f3f5fd"/>
    <path id="Path_570" data-name="Path 570" d="M267,265a88.963,88.963,0,0,1-89,89V176a88.987,88.987,0,0,1,89,89.016Z" fill="#e0e3f2"/>
    <path id="Path_571" data-name="Path 571" d="M356,0V176H178V0a86.759,86.759,0,0,0,11.917,44A88.766,88.766,0,0,0,222.5,76.226,89.341,89.341,0,0,0,267,88a89.341,89.341,0,0,0,44.5-11.774A88.766,88.766,0,0,0,344.083,44,86.759,86.759,0,0,0,356,0Z" fill="#e0e3f2"/>
    <path id="Path_572" data-name="Path 572" d="M533,0V176a89.122,89.122,0,0,1-77.083-44,87.187,87.187,0,0,1,0-88A89.125,89.125,0,0,1,533,0Z" fill="#eceffa"/>
    <path id="Path_573" data-name="Path 573" d="M622,88a86.758,86.758,0,0,1-11.917,44A89.122,89.122,0,0,1,533,176V0a89.125,89.125,0,0,1,77.083,44A86.759,86.759,0,0,1,622,88Z" fill="#f3f5fd"/>
    <path id="Path_574" data-name="Path 574" d="M533,176V354a89.106,89.106,0,0,0-44.25-77.092,88.17,88.17,0,0,0-88.5,0A89.106,89.106,0,0,0,356,354V176Z" fill="#e0e3f2"/>
    <path id="Path_575" data-name="Path 575" d="M888,176H711a87.138,87.138,0,0,1,11.85-44,88.714,88.714,0,0,1,153.3,0A87.137,87.137,0,0,1,888,176Z" fill="#f3f5fd"/>
    <path id="Path_576" data-name="Path 576" d="M711,0V176H533a89.122,89.122,0,0,0,77.083-44,87.187,87.187,0,0,0,0-88A89.125,89.125,0,0,0,533,0Z" fill="#e0e3f2"/>
    <path id="Path_577" data-name="Path 577" d="M711,176V354a89,89,0,0,1,0-178Z" fill="#e0e3f2"/>
    <path id="Path_578" data-name="Path 578" d="M1422,176h178a89,89,0,0,1-178,0Z" transform="translate(-1)" fill="#e0e3f2"/>
    <path id="Path_579" data-name="Path 579" d="M977,88a86.761,86.761,0,0,1-11.917,44A89.122,89.122,0,0,1,888,176V0a89.124,89.124,0,0,1,77.083,44A86.76,86.76,0,0,1,977,88Z" fill="#e0e3f2"/>
    <path id="Path_580" data-name="Path 580" d="M888,0V176a87.137,87.137,0,0,0-11.85-44,88.714,88.714,0,0,0-153.3,0A87.137,87.137,0,0,0,711,176V0Z" fill="#eceffa"/>
    <path id="Path_581" data-name="Path 581" d="M1066,176a89,89,0,1,1-178,0Z" fill="#e0e3f2"/>
    <path id="Path_582" data-name="Path 582" d="M888,176V354a86.817,86.817,0,0,1-44-11.908,89.465,89.465,0,0,1,0-154.184A86.817,86.817,0,0,1,888,176Z" fill="#e0e3f2"/>
    <path id="Path_583" data-name="Path 583" d="M1066,176V354H888V176a89,89,0,1,0,178,0Z" fill="#eceffa"/>
    <path id="Path_584" data-name="Path 584" d="M1155,88a86.691,86.691,0,0,1-11.92,44A89.113,89.113,0,0,1,1066,176V0a89.115,89.115,0,0,1,77.08,44A86.691,86.691,0,0,1,1155,88Z" fill="#e0e3f2"/>
    <path id="Path_585" data-name="Path 585" d="M1421,1a86.69,86.69,0,0,1-11.92,44,88.719,88.719,0,0,1-32.58,32.226A89.325,89.325,0,0,1,1332,89a89.324,89.324,0,0,1-44.5-11.774A88.721,88.721,0,0,1,1254.92,45,86.691,86.691,0,0,1,1243,1Z" transform="translate(0 -1)" fill="#e0e3f2"/>
    <path id="Path_586" data-name="Path 586" d="M1243.55,176V354a87.771,87.771,0,0,1-44.274-11.908,89.217,89.217,0,0,1,0-154.184A87.771,87.771,0,0,1,1243.55,176Z" transform="translate(-0.549)" fill="#f3f5fd"/>
    <path id="Path_587" data-name="Path 587" d="M1421,176V354a89,89,0,0,0-178,0V176Z" fill="#e0e3f2"/>
    <path id="Path_588" data-name="Path 588" d="M1421,354H1243a90.22,90.22,0,0,1,44.5-77.958,88.244,88.244,0,0,1,89,0A90.22,90.22,0,0,1,1421,354Z" fill="#eceffa"/>
    <path id="Path_589" data-name="Path 589" d="M1243,176V0a86.691,86.691,0,0,0,11.92,44,88.719,88.719,0,0,0,32.58,32.226A89.323,89.323,0,0,0,1332,88a89.323,89.323,0,0,0,44.5-11.774A88.721,88.721,0,0,0,1409.08,44,86.69,86.69,0,0,0,1421,0V176Z" fill="#f3f5fd"/>
    <path id="Path_590" data-name="Path 590" d="M1510,442a86.689,86.689,0,0,1,11.92-44A89.112,89.112,0,0,1,1599,354V530a89.112,89.112,0,0,1-77.08-44A86.69,86.69,0,0,1,1510,442Z" fill="#f3f5fd"/>
    <path id="Path_591" data-name="Path 591" d="M1421,530V354h178a89.112,89.112,0,0,0-77.08,44,87.168,87.168,0,0,0,0,88A89.112,89.112,0,0,0,1599,530Z" fill="#eceffa"/>
    <path id="Path_592" data-name="Path 592" d="M178,354V530a87.137,87.137,0,0,0-11.85-44,88.713,88.713,0,0,0-153.3,0A87.135,87.135,0,0,0,1,530V354Z" fill="#e0e3f2"/>
    <path id="Path_593" data-name="Path 593" d="M178,530H1a87.135,87.135,0,0,1,11.85-44,88.713,88.713,0,0,1,153.3,0A87.137,87.137,0,0,1,178,530Z" fill="#eceffa"/>
    <path id="Path_594" data-name="Path 594" d="M488.75,518.226A88.461,88.461,0,0,0,533,530H356V354H533a88.526,88.526,0,0,0-76.65,44,87.613,87.613,0,0,0,0,88,88.525,88.525,0,0,0,32.4,32.226Z" fill="#e0e3f2"/>
    <path id="Path_595" data-name="Path 595" d="M1066,354V530H888a89.122,89.122,0,0,0,77.083-44,87.187,87.187,0,0,0,0-88A89.122,89.122,0,0,0,888,354Z" fill="#e0e3f2"/>
    <path id="Path_596" data-name="Path 596" d="M1243,354V530H1066a88.526,88.526,0,0,0,76.65-44,87.613,87.613,0,0,0,0-88A88.526,88.526,0,0,0,1066,354Z" fill="#eceffa"/>
    <path id="Path_597" data-name="Path 597" d="M356,354a86.759,86.759,0,0,1-11.917,44,89.435,89.435,0,0,1-154.166,0A86.759,86.759,0,0,1,178,354Z" fill="#eceffa"/>
    <path id="Path_598" data-name="Path 598" d="M356,354V530H178V354a86.759,86.759,0,0,0,11.917,44,89.435,89.435,0,0,0,154.166,0A86.759,86.759,0,0,0,356,354Z" fill="#f3f5fd"/>
    <path id="Path_599" data-name="Path 599" d="M533,354V530a89.122,89.122,0,0,1-77.083-44,87.187,87.187,0,0,1,0-88A89.122,89.122,0,0,1,533,354Z" fill="#f3f5fd"/>
    <path id="Path_600" data-name="Path 600" d="M622,442a86.76,86.76,0,0,1-11.917,44A89.122,89.122,0,0,1,533,530V354a89.122,89.122,0,0,1,77.083,44A86.759,86.759,0,0,1,622,442Z" fill="#e0e3f2"/>
    <path id="Path_601" data-name="Path 601" d="M888,530H711a87.138,87.138,0,0,1,11.85-44,88.713,88.713,0,0,1,153.3,0A87.138,87.138,0,0,1,888,530Z" fill="#eceffa"/>
    <path id="Path_602" data-name="Path 602" d="M711,354V530H533a89.122,89.122,0,0,0,77.083-44,87.187,87.187,0,0,0,0-88A89.122,89.122,0,0,0,533,354Z" fill="#eceffa"/>
    <path id="Path_603" data-name="Path 603" d="M977.029,442a86.739,86.739,0,0,1-11.921,44A89.157,89.157,0,0,1,888,530V354a89.157,89.157,0,0,1,77.108,44,86.739,86.739,0,0,1,11.921,44Z" fill="#eceffa"/>
    <path id="Path_604" data-name="Path 604" d="M888,354V530a87.138,87.138,0,0,0-11.85-44,88.713,88.713,0,0,0-153.3,0A87.138,87.138,0,0,0,711,530V354Z" fill="#e0e3f2"/>
    <path id="Path_605" data-name="Path 605" d="M1155,442a86.691,86.691,0,0,1-11.92,44A89.112,89.112,0,0,1,1066,530V354a89.112,89.112,0,0,1,77.08,44A86.691,86.691,0,0,1,1155,442Z" fill="#f3f5fd"/>
    <path id="Path_606" data-name="Path 606" d="M1421,354a86.69,86.69,0,0,1-11.92,44,89.428,89.428,0,0,1-154.16,0A86.69,86.69,0,0,1,1243,354Z" fill="#e0e3f2"/>
    <path id="Path_607" data-name="Path 607" d="M1243,530V354a86.691,86.691,0,0,0,11.92,44,89.428,89.428,0,0,0,154.16,0A86.691,86.691,0,0,0,1421,354V530Z" fill="#f3f5fd"/>
    <path id="Path_608" data-name="Path 608" d="M1510,88a86.689,86.689,0,0,1,11.92-44A89.115,89.115,0,0,1,1599,0V176a89.113,89.113,0,0,1-77.08-44A86.694,86.694,0,0,1,1510,88Z" fill="#f3f5fd"/>
    <path id="Path_609" data-name="Path 609" d="M1421,176V0h178a89.115,89.115,0,0,0-77.08,44,87.168,87.168,0,0,0,0,88A89.113,89.113,0,0,0,1599,176Z" fill="#eceffa"/>
  </g>
</svg>
