<svg xmlns="http://www.w3.org/2000/svg" width="45.283" height="45.482" viewBox="0 0 45.283 45.482">
  <g id="Icon" transform="translate(-638.017 -503.8)">
    <rect id="Rectangle_421" data-name="Rectangle 421" width="52" height="2" rx="1" transform="translate(641.908 544.678) rotate(-45)" fill="#3c50e0" opacity="0.3"/>
    <path id="Path_806" data-name="Path 806" d="M5.5,0H8.983l-7.1-18.2h-3.77L-8.983,0h3.458l1.612-4.212h7.8ZM-2.847-7.046l2.834-7.41,2.834,7.41Z" transform="translate(647 522)" fill="#ff5670"/>
    <path id="Path_807" data-name="Path 807" d="M-4.389-13.945l-1.559.923A22.452,22.452,0,0,0-8.634-16.55l1.538-.984A21.123,21.123,0,0,1-4.389-13.945ZM9.3-.164,8.131,1.282A10.96,10.96,0,0,1,2.789-3.743Q1.753-.708-3.086,1.138L-4.132-.482Q.328-1.846,1.179-4.645H-4.091V-6.337H1.538a13.094,13.094,0,0,0,.082-2.02H-1A15.051,15.051,0,0,1-2.266-6.87L-3.784-7.957A14.917,14.917,0,0,0-1.066-11.72,15.776,15.776,0,0,1-2.9-11.7l-.5-1.723a17.638,17.638,0,0,0,4.789-3.907l1.682.9A17.972,17.972,0,0,1-.4-13.443q2.892,0,5.906-.287-.338-.41-1.159-1.323l1.487-.933a22.659,22.659,0,0,1,3.281,4.2l-1.538.923A10.561,10.561,0,0,0,6.7-12.182q-3.209.287-7.137.461l1.066.5A6.986,6.986,0,0,1,.1-10.1H8.552v1.743H3.425q.021.79-.062,2.02H9.177v1.692H4.368Q5.517-1.958,9.3-.164ZM-2.769-2.522A23.658,23.658,0,0,1-6.491.1L-7.373-1.62a.841.841,0,0,0,.236-.667V-10.1H-9.075v-1.764h3.763v8.941A12.1,12.1,0,0,0-3.589-4.184Z" transform="translate(674 548)" fill="#515e81"/>
  </g>
</svg>
