<svg xmlns="http://www.w3.org/2000/svg" width="192.579" height="38.8" viewBox="0 0 192.579 38.8">
  <path id="Union_2" data-name="Union 2" d="M19.861,32.486,23.2,29.143H5.333A5.339,5.339,0,0,1,0,23.81V0H8.907V20.236H23.2l-3.344-3.344,6.313-6.284,7.783,7.782.519.519,1.845,1.845,1.412,1.412a3.567,3.567,0,0,1,0,5.073l-1.384,1.384h0l-.072.072-.476.475H35.8l-1.3,1.287.013.01L26.174,38.8ZM84.748,31.5V28.4h6.6a2.107,2.107,0,0,0,2.078-2.277V24.243A4.774,4.774,0,0,1,89.5,25.923c-4.242,0-6.775-2.932-6.775-7.4s2.534-7.4,6.718-7.4A4.991,4.991,0,0,1,93.4,12.771V11.347h3.986v15.2c0,2.989-2.164,4.954-5.409,4.954Zm1.878-12.982c0,2.42,1.4,3.986,3.5,3.986,2.135,0,3.53-1.566,3.53-3.986s-1.395-4.014-3.53-4.014C88.021,14.507,86.626,16.1,86.626,18.521Zm94.339,2.335h3.416A2.369,2.369,0,0,0,187,22.934c1.224,0,2.078-.6,2.078-1.395,0-2.932-7.714-.057-7.714-6.092,0-2.533,2.191-4.327,5.124-4.327,3.444,0,5.779,1.85,5.921,4.669h-3.444A2.278,2.278,0,0,0,186.6,13.91c-1.111,0-1.879.484-1.879,1.4,0,2.932,7.857-.4,7.857,6.092,0,2.732-2.22,4.526-5.58,4.526C183.5,25.923,181.107,23.959,180.965,20.856Zm-13.367,0h3.416a2.369,2.369,0,0,0,2.619,2.078c1.224,0,2.078-.6,2.078-1.395,0-2.932-7.715-.057-7.715-6.092,0-2.533,2.191-4.327,5.124-4.327,3.445,0,5.779,1.85,5.922,4.669H175.6a2.277,2.277,0,0,0-2.362-1.879c-1.111,0-1.879.484-1.879,1.4,0,2.932,7.857-.4,7.857,6.092,0,2.732-2.22,4.526-5.579,4.526C170.132,25.923,167.74,23.959,167.6,20.856ZM151.6,18.493c0-3.644,2.22-7.374,7.088-7.374a6.687,6.687,0,0,1,7.088,7c0,.541-.029.968-.058,1.282h-10.3a3.443,3.443,0,0,0,3.559,3.273c1.594,0,2.648-.626,2.961-1.85h3.872c-.57,3.1-3.3,5.1-6.833,5.1A7.194,7.194,0,0,1,151.6,18.493Zm3.871-1.595h6.349a2.968,2.968,0,0,0-3.131-2.875C156.9,14.024,155.817,14.906,155.475,16.9ZM65.931,18.521a7.575,7.575,0,0,1,15.145,0,7.575,7.575,0,0,1-15.145,0Zm3.986,0c0,2.363,1.452,3.986,3.586,3.986s3.587-1.623,3.587-3.986c0-2.391-1.453-4.014-3.587-4.014S69.917,16.13,69.917,18.521Zm71.334,7.174V16.517a5.17,5.17,0,0,1,5.17-5.17h4.026v3.3h-2.363c-1.964,0-2.847,1.624-2.847,4.071v6.975Zm-16.852,0V5.768h8.2c4.242,0,6.719,2.619,6.719,6.291,0,3.644-2.477,6.291-6.719,6.291h-3.9v7.345Zm4.3-10.9h3.644a2.585,2.585,0,0,0,2.847-2.733,2.584,2.584,0,0,0-2.847-2.732H128.7Zm-28.181,10.9V11.347H104.5V25.695Zm-46.022,0a2.938,2.938,0,0,1-2.939-2.938V5.768h4.3V21.343a.651.651,0,0,0,.652.652h8.4v3.7Zm62.618,0V17.541a2.748,2.748,0,1,0-5.5,0v8.152h-3.986V16.755c0-3.3,2.1-5.637,5.351-5.637h2.764c3.247,0,5.351,2.335,5.351,5.637v8.938ZM102.5,9.3a2.092,2.092,0,1,1,0-4.185h.029a2.092,2.092,0,1,1,0,4.185Z" fill="#7b86a3"/>
</svg>
