<?xml version="1.0" encoding="utf-8"?>
<!-- Generator: Adobe Illustrator 24.0.1, SVG Export Plug-In . SVG Version: 6.00 Build 0)  -->
<svg version="1.1" id="Layer_1" xmlns="http://www.w3.org/2000/svg" xmlns:xlink="http://www.w3.org/1999/xlink" x="0px" y="0px"
	 width="1170.1px" height="758.1px" viewBox="0 0 1170.1 758.1" style="enable-background:new 0 0 1170.1 758.1;"
	 xml:space="preserve">
<filter  filterUnits="userSpaceOnUse" height="190" id="Rectangle_436-4" width="260" x="8" y="424">
	<feOffset  dy="5" input="SourceAlpha"></feOffset>
	<feGaussianBlur  result="blur-4" stdDeviation="10"></feGaussianBlur>
	<feFlood  flood-color="#3c50e0" flood-opacity="0.149"></feFlood>
	<feComposite  in2="blur-4" operator="in"></feComposite>
	<feComposite  in="SourceGraphic" operator="over"></feComposite>
</filter>
<filter  filterUnits="userSpaceOnUse" height="181" id="Rectangle_436-3" width="260" x="8" y="579">
	<feOffset  dy="5" input="SourceAlpha"></feOffset>
	<feGaussianBlur  result="blur-3" stdDeviation="10"></feGaussianBlur>
	<feFlood  flood-color="#3c50e0" flood-opacity="0.149"></feFlood>
	<feComposite  in2="blur-3" operator="in"></feComposite>
	<feComposite  in="SourceGraphic" operator="over"></feComposite>
</filter>
<filter  filterUnits="userSpaceOnUse" height="190" id="Rectangle_436-2" width="260" x="8" y="269">
	<feOffset  dy="5" input="SourceAlpha"></feOffset>
	<feGaussianBlur  result="blur-2" stdDeviation="10"></feGaussianBlur>
	<feFlood  flood-color="#3c50e0" flood-opacity="0.149"></feFlood>
	<feComposite  in2="blur-2" operator="in"></feComposite>
	<feComposite  in="SourceGraphic" operator="over"></feComposite>
</filter>
<filter  filterUnits="userSpaceOnUse" height="190" id="Rectangle_436" width="260" x="8" y="114">
	<feOffset  dy="5" input="SourceAlpha"></feOffset>
	<feGaussianBlur  result="blur" stdDeviation="10"></feGaussianBlur>
	<feFlood  flood-color="#3c50e0" flood-opacity="0.149"></feFlood>
	<feComposite  in2="blur" operator="in"></feComposite>
	<feComposite  in="SourceGraphic" operator="over"></feComposite>
</filter>
<g id="login-screen-z" transform="translate(-135 -611)">
	<g id="Group_367">
		<g id="Group_337" transform="translate(411 643)">
			<g id="BACKGROUND">
				<rect id="Rectangle_658" style="fill:#F6FAFF;" width="894" height="726"/>
			</g>
			<rect style="fill:none;" width="894" height="726"/>
			<g id="Group_335">
				<path style="opacity:0.4;fill:#FDB400;enable-background:new    ;" d="M140,159C102,197,43.9,202.7,0,175.8V0h141.7
					C184.3,44.5,183.7,115.2,140,159z"/>
				<path style="opacity:0.4;fill:#FDB400;enable-background:new    ;" d="M307.2,698.2c8.4,8.4,15.3,17.8,20.5,27.8H126
					c3.7-7.1,8.2-13.8,13.4-20.1c2.1-2.6,4.4-5,6.8-7.5c0.8-0.8,1.5-1.5,2.3-2.2c2-2,4.2-3.8,6.3-5.6c3.1-2.6,6.4-4.9,9.7-7.1
					c39.9-26.1,92.6-24.6,131,4.5c0.6,0.5,1.2,0.9,1.8,1.4C300.7,692.1,304,695,307.2,698.2z"/>
				<path style="opacity:0.4;fill:#FFC248;enable-background:new    ;" d="M832.2,0c-2.7,3.4-5.6,6.7-8.8,9.9
					c-36.4,36.5-91.5,43.2-134.7,19.8c-3.3-1.8-6.5-3.7-9.7-5.9c-5.9-4-11.4-8.5-16.6-13.7l-0.2-0.2c-3.1-3.2-6.1-6.5-8.8-9.9
					c-2.6-3.3-5.1-6.8-7.3-10.4c-2-3.2-3.8-6.4-5.4-9.7h47.9V0H832.2z"/>
				<g id="Group_209" transform="translate(52.328 90.315)">
					<g id="Group_205">
						<g id="Group_203">
							<path id="Path_350" d="M0,35.3l8.8,5V30.3L0,35.3z"/>
							<path id="Path_351" d="M0,25.2l8.8,5V20.2L0,25.2z"/>
							<path id="Path_352" d="M0,15.1l8.8,5V10.1L0,15.1z"/>
							<path id="Path_353" d="M0,5l8.8,5V0L0,5z"/>
						</g>
						<g id="Group_204" transform="translate(8.757 5.043)">
							<path id="Path_354" d="M0,25.2l8.8,5V20.2L0,25.2z"/>
							<path id="Path_355" d="M0,15.1l8.8,5V10.1L0,15.1z"/>
							<path id="Path_356" d="M0,5l8.8,5V0L0,5z"/>
						</g>
					</g>
					<g id="Group_208" transform="translate(17.514)">
						<g id="Group_206">
							<path id="Path_357" d="M0,35.3l8.8,5V30.3L0,35.3z"/>
							<path id="Path_358" d="M0,25.2l8.8,5V20.2L0,25.2z"/>
							<path id="Path_359" d="M0,15.1l8.8,5V10.1L0,15.1z"/>
							<path id="Path_360" d="M0,5l8.8,5V0L0,5z"/>
						</g>
						<g id="Group_207" transform="translate(8.757 5.043)">
							<path id="Path_361" d="M0,25.2l8.8,5V20.2L0,25.2z"/>
							<path id="Path_362" d="M0,15.1l8.8,5V10.1L0,15.1z"/>
							<path id="Path_363" d="M0,5l8.8,5V0L0,5z"/>
						</g>
					</g>
				</g>
				<g id="Group_216" transform="translate(566.463 39.884)">
					<g id="Group_212">
						<g id="Group_210">
							<path id="Path_364" style="fill:#FDB400;" d="M0,35.3l8.8,5V30.3L0,35.3z"/>
							<path id="Path_365" style="fill:#FDB400;" d="M0,25.2l8.8,5V20.2L0,25.2z"/>
							<path id="Path_366" style="fill:#FDB400;" d="M0,15.1l8.8,5V10.1L0,15.1z"/>
							<path id="Path_367" style="fill:#FDB400;" d="M0,5l8.8,5V0L0,5z"/>
						</g>
						<g id="Group_211" transform="translate(8.757 5.043)">
							<path id="Path_368" style="fill:#FDB400;" d="M0,25.2l8.8,5V20.2L0,25.2z"/>
							<path id="Path_369" style="fill:#FDB400;" d="M0,15.1l8.8,5V10.1L0,15.1z"/>
							<path id="Path_370" style="fill:#FDB400;" d="M0,5l8.8,5V0L0,5z"/>
						</g>
					</g>
					<g id="Group_215" transform="translate(17.514)">
						<g id="Group_213">
							<path id="Path_371" style="fill:#FDB400;" d="M0,35.3l8.8,5V30.3L0,35.3z"/>
							<path id="Path_372" style="fill:#FDB400;" d="M0,25.2l8.8,5V20.2L0,25.2z"/>
							<path id="Path_373" style="fill:#FDB400;" d="M0,15.1l8.8,5V10.1L0,15.1z"/>
							<path id="Path_374" style="fill:#FDB400;" d="M0,5l8.8,5V0L0,5z"/>
						</g>
						<g id="Group_214" transform="translate(8.757 5.043)">
							<path id="Path_375" style="fill:#FDB400;" d="M0,25.2l8.8,5V20.2L0,25.2z"/>
							<path id="Path_376" style="fill:#FDB400;" d="M0,15.1l8.8,5V10.1L0,15.1z"/>
							<path id="Path_377" style="fill:#FDB400;" d="M0,5l8.8,5V0L0,5z"/>
						</g>
					</g>
				</g>
				<g id="Group_223" transform="translate(45.678 460.239)">
					<g id="Group_219" transform="translate(17.514)">
						<g id="Group_217" transform="translate(8.757)">
							<path id="Path_378" style="fill:#FDB400;" d="M8.8,5L0,0v10.1L8.8,5z"/>
							<path id="Path_379" style="fill:#FDB400;" d="M8.8,15.1l-8.8-5v10.1L8.8,15.1z"/>
							<path id="Path_380" style="fill:#FDB400;" d="M8.8,25.2l-8.8-5v10.1L8.8,25.2z"/>
							<path id="Path_381" style="fill:#FDB400;" d="M8.8,35.3l-8.8-5v10.1L8.8,35.3z"/>
						</g>
						<g id="Group_218" transform="translate(0 5.043)">
							<path id="Path_382" style="fill:#FDB400;" d="M8.8,5L0,0v10.1L8.8,5z"/>
							<path id="Path_383" style="fill:#FDB400;" d="M8.8,15.1l-8.8-5v10.1L8.8,15.1z"/>
							<path id="Path_384" style="fill:#FDB400;" d="M8.8,25.2l-8.8-5v10.1L8.8,25.2z"/>
						</g>
					</g>
					<g id="Group_222">
						<g id="Group_220" transform="translate(8.757)">
							<path id="Path_385" style="fill:#FDB400;" d="M8.8,5L0,0v10.1L8.8,5z"/>
							<path id="Path_386" style="fill:#FDB400;" d="M8.8,15.1l-8.8-5v10.1L8.8,15.1z"/>
							<path id="Path_387" style="fill:#FDB400;" d="M8.8,25.2l-8.8-5v10.1L8.8,25.2z"/>
							<path id="Path_388" style="fill:#FDB400;" d="M8.8,35.3l-8.8-5v10.1L8.8,35.3z"/>
						</g>
						<g id="Group_221" transform="translate(0 5.043)">
							<path id="Path_389" style="fill:#FDB400;" d="M8.8,5L0,0v10.1L8.8,5z"/>
							<path id="Path_390" style="fill:#FDB400;" d="M8.8,15.1l-8.8-5v10.1L8.8,15.1z"/>
							<path id="Path_391" style="fill:#FDB400;" d="M8.8,25.2l-8.8-5v10.1L8.8,25.2z"/>
						</g>
					</g>
				</g>
				<g id="Group_230" transform="translate(488.794 677.248)">
					<g id="Group_226">
						<g id="Group_224">
							<path id="Path_392" d="M0,35.3l8.8,5V30.3L0,35.3z"/>
							<path id="Path_393" d="M0,25.2l8.8,5V20.2L0,25.2z"/>
							<path id="Path_394" d="M0,15.1l8.8,5V10.1L0,15.1z"/>
							<path id="Path_395" d="M0,5l8.8,5V0L0,5z"/>
						</g>
						<g id="Group_225" transform="translate(8.757 5.043)">
							<path id="Path_396" d="M0,25.2l8.8,5V20.2L0,25.2z"/>
							<path id="Path_397" d="M0,15.1l8.8,5V10.1L0,15.1z"/>
							<path id="Path_398" d="M0,5l8.8,5V0L0,5z"/>
						</g>
					</g>
					<g id="Group_229" transform="translate(17.514)">
						<g id="Group_227">
							<path id="Path_399" d="M0,35.3l8.8,5V30.3L0,35.3z"/>
							<path id="Path_400" d="M0,25.2l8.8,5V20.2L0,25.2z"/>
							<path id="Path_401" d="M0,15.1l8.8,5V10.1L0,15.1z"/>
							<path id="Path_402" d="M0,5l8.8,5V0L0,5z"/>
						</g>
						<g id="Group_228" transform="translate(8.757 5.043)">
							<path id="Path_403" d="M0,25.2l8.8,5V20.2L0,25.2z"/>
							<path id="Path_404" d="M0,15.1l8.8,5V10.1L0,15.1z"/>
							<path id="Path_405" d="M0,5l8.8,5V0L0,5z"/>
						</g>
					</g>
				</g>
				<polygon style="opacity:0.4;fill:#FDB400;enable-background:new    ;" points="811,568.2 811,726 694.7,726 673.8,711.6 
					664.1,704.9 638.3,687.1 				"/>
				<g id="Group_238" transform="translate(809.518 276.81)">
					<g id="Group_234" transform="translate(17.514)">
						<g id="Group_232" transform="translate(8.757)">
							<path id="Path_410" d="M8.8,5L0,0v10.1L8.8,5z"/>
							<path id="Path_411" d="M8.8,15.1l-8.8-5v10.1L8.8,15.1z"/>
							<path id="Path_412" d="M8.8,25.2l-8.8-5v10.1L8.8,25.2z"/>
							<path id="Path_413" d="M8.8,35.3l-8.8-5v10.1L8.8,35.3z"/>
						</g>
						<g id="Group_233" transform="translate(0 5.043)">
							<path id="Path_414" d="M8.8,5L0,0v10.1L8.8,5z"/>
							<path id="Path_415" d="M8.8,15.1l-8.8-5v10.1L8.8,15.1z"/>
							<path id="Path_416" d="M8.8,25.2l-8.8-5v10.1L8.8,25.2z"/>
						</g>
					</g>
					<g id="Group_237">
						<g id="Group_235" transform="translate(8.757)">
							<path id="Path_417" d="M8.8,5L0,0v10.1L8.8,5z"/>
							<path id="Path_418" d="M8.8,15.1l-8.8-5v10.1L8.8,15.1z"/>
							<path id="Path_419" d="M8.8,25.2l-8.8-5v10.1L8.8,25.2z"/>
							<path id="Path_420" d="M8.8,35.3l-8.8-5v10.1L8.8,35.3z"/>
						</g>
						<g id="Group_236" transform="translate(0 5.043)">
							<path id="Path_421" d="M8.8,5L0,0v10.1L8.8,5z"/>
							<path id="Path_422" d="M8.8,15.1l-8.8-5v10.1L8.8,15.1z"/>
							<path id="Path_423" d="M8.8,25.2l-8.8-5v10.1L8.8,25.2z"/>
						</g>
					</g>
				</g>
				<g id="Group_249" transform="translate(46.231 265.376)" style="opacity:0.51;">
					<g id="Group_248">
						<g id="Group_241">
							<g id="Group_239">
								<path id="Path_424" style="fill:#0A1228;" d="M2.4,1.2c0,0.7-0.5,1.2-1.2,1.2S0,1.8,0,1.2S0.5,0,1.2,0c0,0,0,0,0,0
									C1.8,0,2.4,0.5,2.4,1.2C2.4,1.2,2.4,1.2,2.4,1.2z"/>
								<ellipse id="Ellipse_23" style="fill:#0A1228;" cx="19" cy="1.2" rx="1.2" ry="1.2"/>
								<ellipse id="Ellipse_24" style="fill:#0A1228;" cx="36.8" cy="1.2" rx="1.2" ry="1.2"/>
								<ellipse id="Ellipse_25" style="fill:#0A1228;" cx="54.7" cy="1.2" rx="1.2" ry="1.2"/>
								<ellipse id="Ellipse_26" style="fill:#0A1228;" cx="72.5" cy="1.2" rx="1.2" ry="1.2"/>
							</g>
							<g id="Group_240" transform="translate(8.914 13.545)">
								<path id="Path_425" style="fill:#0A1228;" d="M2.4,1.2c0,0.7-0.5,1.2-1.2,1.2C0.5,2.4,0,1.8,0,1.2C0,0.5,0.5,0,1.2,0
									c0,0,0,0,0,0C1.8,0,2.4,0.5,2.4,1.2C2.4,1.2,2.4,1.2,2.4,1.2z"/>
								<path id="Path_426" style="fill:#0A1228;" d="M20.2,1.2c0,0.7-0.5,1.2-1.2,1.2c-0.7,0-1.2-0.5-1.2-1.2C17.8,0.5,18.4,0,19,0
									c0,0,0,0,0,0C19.7,0,20.2,0.5,20.2,1.2L20.2,1.2z"/>
								<path id="Path_427" style="fill:#0A1228;" d="M38,1.2c0,0.7-0.5,1.2-1.2,1.2c-0.7,0-1.2-0.5-1.2-1.2c0-0.7,0.5-1.2,1.2-1.2
									c0,0,0,0,0,0C37.5,0,38,0.5,38,1.2C38,1.2,38,1.2,38,1.2z"/>
								<path id="Path_428" style="fill:#0A1228;" d="M55.9,1.2c0,0.7-0.5,1.2-1.2,1.2c-0.7,0-1.2-0.5-1.2-1.2C53.5,0.5,54,0,54.7,0
									c0,0,0,0,0,0C55.3,0,55.9,0.5,55.9,1.2C55.9,1.2,55.9,1.2,55.9,1.2z"/>
							</g>
						</g>
						<g id="Group_244" transform="translate(0 27.16)">
							<g id="Group_242">
								<path id="Path_429" style="fill:#0A1228;" d="M2.4,1.2c0,0.7-0.5,1.2-1.2,1.2S0,1.8,0,1.2S0.5,0,1.2,0c0,0,0,0,0,0
									C1.8,0,2.4,0.5,2.4,1.2L2.4,1.2z"/>
								<ellipse id="Ellipse_27" style="fill:#0A1228;" cx="19" cy="1.2" rx="1.2" ry="1.2"/>
								<ellipse id="Ellipse_28" style="fill:#0A1228;" cx="36.8" cy="1.2" rx="1.2" ry="1.2"/>
								<ellipse id="Ellipse_29" style="fill:#0A1228;" cx="54.7" cy="1.2" rx="1.2" ry="1.2"/>
								<ellipse id="Ellipse_30" style="fill:#0A1228;" cx="72.5" cy="1.2" rx="1.2" ry="1.2"/>
							</g>
							<g id="Group_243" transform="translate(8.914 13.546)">
								<path id="Path_430" style="fill:#0A1228;" d="M2.4,1.2c0,0.7-0.5,1.2-1.2,1.2C0.5,2.4,0,1.8,0,1.2S0.5,0,1.2,0c0,0,0,0,0,0
									C1.8,0,2.4,0.5,2.4,1.2z"/>
								<path id="Path_431" style="fill:#0A1228;" d="M20.2,1.2c0,0.7-0.5,1.2-1.2,1.2c-0.7,0-1.2-0.5-1.2-1.2S18.4,0,19,0
									c0,0,0,0,0,0C19.7,0,20.2,0.5,20.2,1.2z"/>
								<path id="Path_432" style="fill:#0A1228;" d="M38,1.2c0,0.7-0.5,1.2-1.2,1.2c-0.7,0-1.2-0.5-1.2-1.2c0-0.7,0.5-1.2,1.2-1.2
									c0,0,0,0,0,0C37.5,0,38,0.5,38,1.2C38,1.2,38,1.2,38,1.2z"/>
								<path id="Path_433" style="fill:#0A1228;" d="M55.9,1.2c0,0.7-0.5,1.2-1.2,1.2c-0.7,0-1.2-0.5-1.2-1.2C53.5,0.5,54,0,54.7,0
									c0,0,0,0,0,0C55.3,0,55.9,0.5,55.9,1.2C55.9,1.2,55.9,1.2,55.9,1.2z"/>
							</g>
						</g>
						<g id="Group_247" transform="translate(0 54.32)">
							<g id="Group_245">
								<path id="Path_434" style="fill:#0A1228;" d="M2.4,1.2c0,0.7-0.5,1.2-1.2,1.2C0.5,2.4,0,1.8,0,1.2C0,0.5,0.5,0,1.2,0
									c0,0,0,0,0,0C1.8,0,2.4,0.5,2.4,1.2C2.4,1.2,2.4,1.2,2.4,1.2z"/>
								<ellipse id="Ellipse_31" style="fill:#0A1228;" cx="19" cy="1.2" rx="1.2" ry="1.2"/>
								<ellipse id="Ellipse_32" style="fill:#0A1228;" cx="36.8" cy="1.2" rx="1.2" ry="1.2"/>
								<ellipse id="Ellipse_33" style="fill:#0A1228;" cx="54.7" cy="1.2" rx="1.2" ry="1.2"/>
								<ellipse id="Ellipse_34" style="fill:#0A1228;" cx="72.5" cy="1.2" rx="1.2" ry="1.2"/>
							</g>
							<g id="Group_246" transform="translate(8.914 13.546)">
								<ellipse id="Ellipse_35" style="fill:#0A1228;" cx="1.2" cy="1.2" rx="1.2" ry="1.2"/>
								<ellipse id="Ellipse_36" style="fill:#0A1228;" cx="19" cy="1.2" rx="1.2" ry="1.2"/>
								<ellipse id="Ellipse_37" style="fill:#0A1228;" cx="36.8" cy="1.2" rx="1.2" ry="1.2"/>
								<path id="Path_435" style="fill:#0A1228;" d="M55.9,1.2c0,0.7-0.5,1.2-1.2,1.2c-0.7,0-1.2-0.5-1.2-1.2C53.5,0.5,54,0,54.7,0
									c0,0,0,0,0,0C55.3,0,55.9,0.5,55.9,1.2C55.9,1.2,55.9,1.2,55.9,1.2z"/>
							</g>
						</g>
					</g>
				</g>
				<g id="Group_260" transform="translate(373.321 -20.258)" style="opacity:0.51;">
					<g id="Group_259">
						<g id="Group_252">
							<g id="Group_250">
								<path id="Path_436" style="fill:#0A1228;" d="M2.4,1.2c0,0.7-0.5,1.2-1.2,1.2C0.5,2.4,0,1.8,0,1.2c0,0,0,0,0,0
									C0,0.5,0.5,0,1.2,0c0,0,0,0,0,0C1.8,0,2.4,0.5,2.4,1.2z"/>
								<path id="Path_437" style="fill:#0A1228;" d="M20.2,1.2c0,0.7-0.5,1.2-1.2,1.2c0,0,0,0,0,0c-0.7,0-1.2-0.5-1.2-1.2
									C17.8,0.5,18.4,0,19,0C19.7,0,20.2,0.5,20.2,1.2C20.2,1.2,20.2,1.2,20.2,1.2z"/>
								<path id="Path_438" style="fill:#0A1228;" d="M38,1.2c0,0.7-0.5,1.2-1.2,1.2c0,0,0,0,0,0c-0.7,0-1.2-0.5-1.2-1.2
									c0-0.7,0.5-1.2,1.2-1.2C37.5,0,38,0.5,38,1.2C38,1.2,38,1.2,38,1.2z"/>
								<path id="Path_439" style="fill:#0A1228;" d="M55.9,1.2c0,0.7-0.5,1.2-1.2,1.2c-0.7,0-1.2-0.5-1.2-1.2c0,0,0,0,0,0
									C53.5,0.5,54,0,54.7,0l0,0C55.3,0,55.9,0.5,55.9,1.2z"/>
								<path id="Path_440" style="fill:#0A1228;" d="M73.7,1.2c0,0.7-0.5,1.2-1.2,1.2c-0.7,0-1.2-0.5-1.2-1.2c0,0,0,0,0,0
									c0-0.7,0.5-1.2,1.2-1.2c0,0,0,0,0,0C73.1,0,73.7,0.5,73.7,1.2z"/>
							</g>
							<g id="Group_251" transform="translate(8.914 13.546)">
								<ellipse id="Ellipse_38" style="fill:#0A1228;" cx="1.2" cy="1.2" rx="1.2" ry="1.2"/>
								<path id="Path_441" style="fill:#0A1228;" d="M20.2,1.2c0,0.7-0.5,1.2-1.2,1.2c0,0,0,0,0,0c-0.7,0-1.2-0.5-1.2-1.2
									C17.8,0.5,18.4,0,19,0c0,0,0,0,0,0C19.7,0,20.2,0.5,20.2,1.2C20.2,1.2,20.2,1.2,20.2,1.2z"/>
								<ellipse id="Ellipse_39" style="fill:#0A1228;" cx="36.8" cy="1.2" rx="1.2" ry="1.2"/>
								<ellipse id="Ellipse_40" style="fill:#0A1228;" cx="54.7" cy="1.2" rx="1.2" ry="1.2"/>
							</g>
						</g>
						<g id="Group_255" transform="translate(0 27.161)">
							<g id="Group_253" transform="translate(0 0)">
								<path id="Path_442" style="fill:#0A1228;" d="M2.4,1.2c0,0.7-0.5,1.2-1.2,1.2S0,1.8,0,1.2C0,0.5,0.5,0,1.2,0c0,0,0,0,0,0
									C1.8,0,2.4,0.5,2.4,1.2z"/>
								<path id="Path_443" style="fill:#0A1228;" d="M20.2,1.2c0,0.7-0.5,1.2-1.2,1.2s-1.2-0.5-1.2-1.2C17.8,0.5,18.4,0,19,0
									c0,0,0,0,0,0C19.7,0,20.2,0.5,20.2,1.2C20.2,1.2,20.2,1.2,20.2,1.2z"/>
								<path id="Path_444" style="fill:#0A1228;" d="M38,1.2c0,0.7-0.5,1.2-1.2,1.2s-1.2-0.5-1.2-1.2c0-0.7,0.5-1.2,1.2-1.2
									c0,0,0,0,0,0C37.5,0,38,0.5,38,1.2C38,1.2,38,1.2,38,1.2z"/>
								<path id="Path_445" style="fill:#0A1228;" d="M55.9,1.2c0,0.7-0.5,1.2-1.2,1.2s-1.2-0.5-1.2-1.2C53.5,0.5,54,0,54.7,0
									c0,0,0,0,0,0C55.3,0,55.9,0.5,55.9,1.2z"/>
								<path id="Path_446" style="fill:#0A1228;" d="M73.7,1.2c0,0.7-0.5,1.2-1.2,1.2c-0.7,0-1.2-0.5-1.2-1.2
									c0-0.7,0.5-1.2,1.2-1.2c0,0,0,0,0,0C73.1,0,73.7,0.5,73.7,1.2z"/>
							</g>
							<g id="Group_254" transform="translate(8.914 13.545)">
								<ellipse id="Ellipse_41" style="fill:#0A1228;" cx="1.2" cy="1.2" rx="1.2" ry="1.2"/>
								<path id="Path_447" style="fill:#0A1228;" d="M20.2,1.2c0,0.7-0.5,1.2-1.2,1.2s-1.2-0.5-1.2-1.2C17.8,0.5,18.4,0,19,0
									c0,0,0,0,0,0C19.7,0,20.2,0.5,20.2,1.2C20.2,1.2,20.2,1.2,20.2,1.2z"/>
								<ellipse id="Ellipse_42" style="fill:#0A1228;" cx="36.8" cy="1.2" rx="1.2" ry="1.2"/>
								<ellipse id="Ellipse_43" style="fill:#0A1228;" cx="54.7" cy="1.2" rx="1.2" ry="1.2"/>
							</g>
						</g>
						<g id="Group_258" transform="translate(0 54.321)">
							<g id="Group_256">
								<path id="Path_448" style="fill:#0A1228;" d="M2.4,1.2c0,0.7-0.5,1.2-1.2,1.2S0,1.8,0,1.2C0,0.5,0.5,0,1.2,0c0,0,0,0,0,0
									C1.8,0,2.4,0.5,2.4,1.2C2.4,1.2,2.4,1.2,2.4,1.2z"/>
								<path id="Path_449" style="fill:#0A1228;" d="M20.2,1.2c0,0.7-0.5,1.2-1.2,1.2s-1.2-0.5-1.2-1.2C17.8,0.5,18.4,0,19,0
									c0,0,0,0,0,0C19.7,0,20.2,0.5,20.2,1.2C20.2,1.2,20.2,1.2,20.2,1.2z"/>
								<path id="Path_450" style="fill:#0A1228;" d="M38,1.2c0,0.7-0.5,1.2-1.2,1.2s-1.2-0.5-1.2-1.2c0-0.7,0.5-1.2,1.2-1.2
									c0,0,0,0,0,0C37.5,0,38,0.5,38,1.2C38,1.2,38,1.2,38,1.2z"/>
								<path id="Path_451" style="fill:#0A1228;" d="M55.9,1.2c0,0.7-0.5,1.2-1.2,1.2s-1.2-0.5-1.2-1.2C53.5,0.5,54,0,54.7,0
									c0,0,0,0,0,0C55.3,0,55.9,0.5,55.9,1.2C55.9,1.2,55.9,1.2,55.9,1.2z"/>
								<path id="Path_452" style="fill:#0A1228;" d="M73.7,1.2c0,0.7-0.5,1.2-1.2,1.2s-1.2-0.5-1.2-1.2c0-0.7,0.5-1.2,1.2-1.2
									c0,0,0,0,0,0C73.1,0,73.7,0.5,73.7,1.2C73.7,1.2,73.7,1.2,73.7,1.2z"/>
							</g>
							<g id="Group_257" transform="translate(8.914 13.545)">
								<ellipse id="Ellipse_44" style="fill:#0A1228;" cx="1.2" cy="1.2" rx="1.2" ry="1.2"/>
								<path id="Path_453" style="fill:#0A1228;" d="M20.2,1.2c0,0.7-0.5,1.2-1.2,1.2s-1.2-0.5-1.2-1.2C17.8,0.5,18.4,0,19,0
									c0,0,0,0,0,0C19.7,0,20.2,0.5,20.2,1.2C20.2,1.2,20.2,1.2,20.2,1.2z"/>
								<ellipse id="Ellipse_45" style="fill:#0A1228;" cx="36.8" cy="1.2" rx="1.2" ry="1.2"/>
								<ellipse id="Ellipse_46" style="fill:#0A1228;" cx="54.7" cy="1.2" rx="1.2" ry="1.2"/>
							</g>
						</g>
					</g>
				</g>
				<g id="Group_271" transform="translate(846.177 152.67)" style="opacity:0.51;">
					<g id="Group_270">
						<g id="Group_263">
							<g id="Group_261">
								<path id="Path_454" style="fill:#0A1228;" d="M2.4,1.2c0,0.7-0.5,1.2-1.2,1.2C0.5,2.4,0,1.8,0,1.2C0,0.5,0.5,0,1.2,0
									c0,0,0,0,0,0C1.8,0,2.4,0.5,2.4,1.2C2.4,1.2,2.4,1.2,2.4,1.2z"/>
								<path id="Path_455" style="fill:#0A1228;" d="M20.2,1.2c0,0.7-0.5,1.2-1.2,1.2c-0.7,0-1.2-0.5-1.2-1.2C17.8,0.5,18.4,0,19,0
									c0,0,0,0,0,0C19.7,0,20.2,0.5,20.2,1.2C20.2,1.2,20.2,1.2,20.2,1.2z"/>
								<path id="Path_456" style="fill:#0A1228;" d="M38,1.2c0,0.7-0.5,1.2-1.2,1.2c-0.7,0-1.2-0.5-1.2-1.2c0-0.7,0.5-1.2,1.2-1.2
									c0,0,0,0,0,0C37.5,0,38,0.5,38,1.2C38,1.2,38,1.2,38,1.2z"/>
							</g>
							<g id="Group_262" transform="translate(8.914 13.546)">
								<ellipse id="Ellipse_47" style="fill:#0A1228;" cx="1.2" cy="1.2" rx="1.2" ry="1.2"/>
								<ellipse id="Ellipse_48" style="fill:#0A1228;" cx="19" cy="1.2" rx="1.2" ry="1.2"/>
								<path id="Path_459" style="fill:#0A1228;" d="M38,1.2c0,0.7-0.5,1.2-1.2,1.2c-0.7,0-1.2-0.5-1.2-1.2c0-0.7,0.5-1.2,1.2-1.2
									c0,0,0,0,0,0C37.5,0,38,0.5,38,1.2C38,1.2,38,1.2,38,1.2z"/>
							</g>
						</g>
						<g id="Group_266" transform="translate(0 27.161)">
							<g id="Group_264">
								<path id="Path_460" style="fill:#0A1228;" d="M2.4,1.2c0,0.7-0.5,1.2-1.2,1.2C0.5,2.4,0,1.8,0,1.2C0,0.5,0.5,0,1.2,0
									c0,0,0,0,0,0C1.8,0,2.4,0.5,2.4,1.2z"/>
								<path id="Path_461" style="fill:#0A1228;" d="M20.2,1.2c0,0.7-0.5,1.2-1.2,1.2c-0.7,0-1.2-0.5-1.2-1.2C17.8,0.5,18.4,0,19,0
									c0,0,0,0,0,0C19.7,0,20.2,0.5,20.2,1.2z"/>
								<path id="Path_462" style="fill:#0A1228;" d="M38,1.2c0,0.7-0.5,1.2-1.2,1.2c-0.7,0-1.2-0.5-1.2-1.2c0-0.7,0.5-1.2,1.2-1.2
									c0,0,0,0,0,0C37.5,0,38,0.5,38,1.2C38,1.2,38,1.2,38,1.2z"/>
							</g>
							<g id="Group_265" transform="translate(8.914 13.545)">
								<ellipse id="Ellipse_50" style="fill:#0A1228;" cx="1.2" cy="1.2" rx="1.2" ry="1.2"/>
								<ellipse id="Ellipse_51" style="fill:#0A1228;" cx="19" cy="1.2" rx="1.2" ry="1.2"/>
								<path id="Path_465" style="fill:#0A1228;" d="M38,1.2c0,0.7-0.5,1.2-1.2,1.2c-0.7,0-1.2-0.5-1.2-1.2c0-0.7,0.5-1.2,1.2-1.2
									c0,0,0,0,0,0C37.5,0,38,0.5,38,1.2C38,1.2,38,1.2,38,1.2z"/>
							</g>
						</g>
						<g id="Group_269" transform="translate(0 54.321)">
							<g id="Group_267">
								<path id="Path_466" style="fill:#0A1228;" d="M2.4,1.2c0,0.7-0.5,1.2-1.2,1.2C0.5,2.4,0,1.8,0,1.2S0.5,0,1.2,0c0,0,0,0,0,0
									C1.8,0,2.4,0.5,2.4,1.2C2.4,1.2,2.4,1.2,2.4,1.2z"/>
								<path id="Path_467" style="fill:#0A1228;" d="M20.2,1.2c0,0.7-0.5,1.2-1.2,1.2c-0.7,0-1.2-0.5-1.2-1.2S18.4,0,19,0
									c0,0,0,0,0,0C19.7,0,20.2,0.5,20.2,1.2C20.2,1.2,20.2,1.2,20.2,1.2z"/>
								<path id="Path_468" style="fill:#0A1228;" d="M38,1.2c0,0.7-0.5,1.2-1.2,1.2c-0.7,0-1.2-0.5-1.2-1.2S36.2,0,36.8,0
									c0,0,0,0,0,0C37.5,0,38,0.5,38,1.2C38,1.2,38,1.2,38,1.2z"/>
							</g>
							<g id="Group_268" transform="translate(8.914 13.545)">
								<ellipse id="Ellipse_53" style="fill:#0A1228;" cx="1.2" cy="1.2" rx="1.2" ry="1.2"/>
								<ellipse id="Ellipse_54" style="fill:#0A1228;" cx="19" cy="1.2" rx="1.2" ry="1.2"/>
								<path id="Path_471" style="fill:#0A1228;" d="M38,1.2c0,0.7-0.5,1.2-1.2,1.2s-1.2-0.5-1.2-1.2c0-0.7,0.5-1.2,1.2-1.2
									c0,0,0,0,0,0C37.5,0,38,0.5,38,1.2C38,1.2,38,1.2,38,1.2z"/>
							</g>
						</g>
					</g>
				</g>
				<g id="Group_282" transform="translate(658.799 556.576)" style="opacity:0.51;">
					<g id="Group_281">
						<g id="Group_274">
							<g id="Group_272">
								<path id="Path_472" style="fill:#0A1228;" d="M2.4,1.2c0,0.7-0.5,1.2-1.2,1.2C0.5,2.4,0,1.8,0,1.2S0.5,0,1.2,0c0,0,0,0,0,0
									C1.8,0,2.4,0.5,2.4,1.2C2.4,1.2,2.4,1.2,2.4,1.2z"/>
								<ellipse id="Ellipse_56" style="fill:#0A1228;" cx="19" cy="1.2" rx="1.2" ry="1.2"/>
								<ellipse id="Ellipse_57" style="fill:#0A1228;" cx="36.8" cy="1.2" rx="1.2" ry="1.2"/>
								<ellipse id="Ellipse_58" style="fill:#0A1228;" cx="54.7" cy="1.2" rx="1.2" ry="1.2"/>
								<path id="Path_473" style="fill:#0A1228;" d="M73.7,1.2c0,0.7-0.5,1.2-1.2,1.2c-0.7,0-1.2-0.5-1.2-1.2S71.8,0,72.5,0
									c0,0,0,0,0,0C73.1,0,73.7,0.5,73.7,1.2C73.7,1.2,73.7,1.2,73.7,1.2z"/>
							</g>
							<g id="Group_273" transform="translate(8.914 13.545)">
								<path id="Path_474" style="fill:#0A1228;" d="M2.4,1.2c0,0.7-0.5,1.2-1.2,1.2C0.5,2.4,0,1.8,0,1.2C0,0.5,0.5,0,1.2,0
									c0,0,0,0,0,0C1.8,0,2.4,0.5,2.4,1.2C2.4,1.2,2.4,1.2,2.4,1.2z"/>
								<ellipse id="Ellipse_59" style="fill:#0A1228;" cx="19" cy="1.2" rx="1.2" ry="1.2"/>
								<ellipse id="Ellipse_60" style="fill:#0A1228;" cx="36.8" cy="1.2" rx="1.2" ry="1.2"/>
								<path id="Path_475" style="fill:#0A1228;" d="M55.9,1.2c0,0.7-0.5,1.2-1.2,1.2c-0.7,0-1.2-0.5-1.2-1.2C53.5,0.5,54,0,54.7,0
									c0,0,0,0,0,0C55.3,0,55.8,0.5,55.9,1.2C55.9,1.2,55.9,1.2,55.9,1.2z"/>
							</g>
						</g>
						<g id="Group_277" transform="translate(0 27.16)">
							<g id="Group_275">
								<path id="Path_476" style="fill:#0A1228;" d="M2.4,1.2c0,0.7-0.5,1.2-1.2,1.2S0,1.8,0,1.2S0.5,0,1.2,0
									C1.8,0,2.4,0.5,2.4,1.2C2.4,1.2,2.4,1.2,2.4,1.2z"/>
								<ellipse id="Ellipse_61" style="fill:#0A1228;" cx="19" cy="1.2" rx="1.2" ry="1.2"/>
								<ellipse id="Ellipse_62" style="fill:#0A1228;" cx="36.8" cy="1.2" rx="1.2" ry="1.2"/>
								<ellipse id="Ellipse_63" style="fill:#0A1228;" cx="54.7" cy="1.2" rx="1.2" ry="1.2"/>
								<path id="Path_477" style="fill:#0A1228;" d="M73.7,1.2c0,0.7-0.5,1.2-1.2,1.2s-1.2-0.5-1.2-1.2c0-0.7,0.5-1.2,1.2-1.2l0,0
									C73.1,0,73.7,0.5,73.7,1.2C73.7,1.2,73.7,1.2,73.7,1.2z"/>
							</g>
							<g id="Group_276" transform="translate(8.914 13.546)">
								<path id="Path_478" style="fill:#0A1228;" d="M2.4,1.2c0,0.7-0.5,1.2-1.2,1.2C0.5,2.4,0,1.8,0,1.2S0.5,0,1.2,0c0,0,0,0,0,0
									C1.8,0,2.4,0.5,2.4,1.2C2.4,1.2,2.4,1.2,2.4,1.2z"/>
								<ellipse id="Ellipse_64" style="fill:#0A1228;" cx="19" cy="1.2" rx="1.2" ry="1.2"/>
								<ellipse id="Ellipse_65" style="fill:#0A1228;" cx="36.8" cy="1.2" rx="1.2" ry="1.2"/>
								<path id="Path_479" style="fill:#0A1228;" d="M55.9,1.2c0,0.7-0.5,1.2-1.2,1.2c-0.7,0-1.2-0.5-1.2-1.2S54,0,54.7,0
									c0,0,0,0,0,0C55.3,0,55.8,0.5,55.9,1.2C55.9,1.2,55.9,1.2,55.9,1.2z"/>
							</g>
						</g>
						<g id="Group_280" transform="translate(0 54.32)">
							<g id="Group_278">
								<path id="Path_480" style="fill:#0A1228;" d="M2.4,1.2c0,0.7-0.5,1.2-1.2,1.2C0.5,2.4,0,1.8,0,1.2S0.5,0,1.2,0c0,0,0,0,0,0
									C1.8,0,2.4,0.5,2.4,1.2C2.4,1.2,2.4,1.2,2.4,1.2z"/>
								<ellipse id="Ellipse_66" style="fill:#0A1228;" cx="19" cy="1.2" rx="1.2" ry="1.2"/>
								<ellipse id="Ellipse_67" style="fill:#0A1228;" cx="36.8" cy="1.2" rx="1.2" ry="1.2"/>
								<ellipse id="Ellipse_68" style="fill:#0A1228;" cx="54.7" cy="1.2" rx="1.2" ry="1.2"/>
								<path id="Path_481" style="fill:#0A1228;" d="M73.7,1.2c0,0.7-0.5,1.2-1.2,1.2c-0.7,0-1.2-0.5-1.2-1.2S71.8,0,72.5,0
									c0,0,0,0,0,0C73.1,0,73.7,0.5,73.7,1.2C73.7,1.2,73.7,1.2,73.7,1.2z"/>
							</g>
							<g id="Group_279" transform="translate(8.914 13.545)">
								<path id="Path_482" style="fill:#0A1228;" d="M2.4,1.2c0,0.7-0.5,1.2-1.2,1.2C0.5,2.4,0,1.8,0,1.2S0.5,0,1.2,0c0,0,0,0,0,0
									C1.8,0,2.4,0.5,2.4,1.2C2.4,1.2,2.4,1.2,2.4,1.2z"/>
								<ellipse id="Ellipse_69" style="fill:#0A1228;" cx="19" cy="1.2" rx="1.2" ry="1.2"/>
								<ellipse id="Ellipse_70" style="fill:#0A1228;" cx="36.8" cy="1.2" rx="1.2" ry="1.2"/>
								<path id="Path_483" style="fill:#0A1228;" d="M55.9,1.2c0,0.7-0.5,1.2-1.2,1.2c-0.7,0-1.2-0.5-1.2-1.2S54,0,54.7,0
									c0,0,0,0,0,0C55.3,0,55.8,0.5,55.9,1.2C55.9,1.2,55.9,1.2,55.9,1.2z"/>
							</g>
						</g>
					</g>
				</g>
				<g id="Group_293" transform="translate(286.114 674.139)" style="opacity:0.51;">
					<g id="Group_292">
						<g id="Group_285">
							<g id="Group_283">
								<ellipse id="Ellipse_71" style="fill:#0A1228;" cx="1.2" cy="1.2" rx="1.2" ry="1.2"/>
								<path id="Path_484" style="fill:#0A1228;" d="M20.2,1.2c0,0.7-0.5,1.2-1.2,1.2c-0.7,0-1.2-0.5-1.2-1.2C17.8,0.5,18.4,0,19,0
									c0,0,0,0,0,0C19.7,0,20.2,0.5,20.2,1.2C20.2,1.2,20.2,1.2,20.2,1.2z"/>
								<ellipse id="Ellipse_72" style="fill:#0A1228;" cx="36.8" cy="1.2" rx="1.2" ry="1.2"/>
								<ellipse id="Ellipse_73" style="fill:#0A1228;" cx="54.7" cy="1.2" rx="1.2" ry="1.2"/>
								<ellipse id="Ellipse_74" style="fill:#0A1228;" cx="72.5" cy="1.2" rx="1.2" ry="1.2"/>
							</g>
							<g id="Group_284" transform="translate(8.914 13.545)">
								<ellipse id="Ellipse_75" style="fill:#0A1228;" cx="1.2" cy="1.2" rx="1.2" ry="1.2"/>
								<path id="Path_485" style="fill:#0A1228;" d="M20.2,1.2c0,0.7-0.5,1.2-1.2,1.2c-0.7,0-1.2-0.5-1.2-1.2C17.8,0.5,18.4,0,19,0
									c0,0,0,0,0,0C19.7,0,20.2,0.5,20.2,1.2L20.2,1.2z"/>
								<ellipse id="Ellipse_76" style="fill:#0A1228;" cx="36.8" cy="1.2" rx="1.2" ry="1.2"/>
								<ellipse id="Ellipse_77" style="fill:#0A1228;" cx="54.7" cy="1.2" rx="1.2" ry="1.2"/>
							</g>
						</g>
						<g id="Group_288" transform="translate(0 27.16)">
							<g id="Group_286">
								<ellipse id="Ellipse_78" style="fill:#0A1228;" cx="1.2" cy="1.2" rx="1.2" ry="1.2"/>
								<path id="Path_486" style="fill:#0A1228;" d="M20.2,1.2c0,0.7-0.5,1.2-1.2,1.2c-0.7,0-1.2-0.5-1.2-1.2C17.8,0.5,18.4,0,19,0
									c0,0,0,0,0,0C19.7,0,20.2,0.5,20.2,1.2C20.2,1.2,20.2,1.2,20.2,1.2z"/>
								<ellipse id="Ellipse_79" style="fill:#0A1228;" cx="36.8" cy="1.2" rx="1.2" ry="1.2"/>
								<ellipse id="Ellipse_80" style="fill:#0A1228;" cx="54.7" cy="1.2" rx="1.2" ry="1.2"/>
								<ellipse id="Ellipse_81" style="fill:#0A1228;" cx="72.5" cy="1.2" rx="1.2" ry="1.2"/>
							</g>
							<g id="Group_287" transform="translate(8.914 13.545)">
								<ellipse id="Ellipse_82" style="fill:#0A1228;" cx="1.2" cy="1.2" rx="1.2" ry="1.2"/>
								<path id="Path_487" style="fill:#0A1228;" d="M20.2,1.2c0,0.7-0.5,1.2-1.2,1.2c-0.7,0-1.2-0.5-1.2-1.2C17.8,0.5,18.4,0,19,0
									c0,0,0,0,0,0C19.7,0,20.2,0.5,20.2,1.2C20.2,1.2,20.2,1.2,20.2,1.2z"/>
								<ellipse id="Ellipse_83" style="fill:#0A1228;" cx="36.8" cy="1.2" rx="1.2" ry="1.2"/>
								<ellipse id="Ellipse_84" style="fill:#0A1228;" cx="54.7" cy="1.2" rx="1.2" ry="1.2"/>
							</g>
						</g>
					</g>
				</g>
				<path id="Path_490" style="fill:none;stroke:#0A335B;stroke-width:0.25;stroke-miterlimit:10;" d="M186.2,42.9v62.9h63.1V42.9
					H186.2z M239.5,96.1h-43.7V52.5h43.7V96.1z"/>
				<path id="Path_491" style="fill:none;stroke:#000000;stroke-width:0.25;stroke-miterlimit:10;" d="M664.1,694.7V726h9.7v-21.6
					h43.7V726h9.7v-31.3H664.1z"/>
				<path id="Path_492" style="fill:none;stroke:#0A335B;stroke-width:0.25;stroke-miterlimit:10;" d="M894,377.8v-9.7h-31.5v62.9
					H894v-9.7h-21.8v-43.6H894z"/>
				<path id="Path_493" style="fill:none;stroke:#0A335B;stroke-width:0.25;stroke-miterlimit:10;" d="M625.6-20v62.9h63.1V-20
					H625.6z M679,33.2h-43.7v-43.6H679V33.2z"/>
				<path id="Path_494" style="fill:none;stroke:#0A335B;stroke-width:0.25;stroke-miterlimit:10;" d="M101.4,643v62.9h63.1V643
					H101.4z M154.8,696.2h-43.7v-43.6h43.7V696.2z"/>
				<path id="Path_495" style="fill:none;stroke:#0A335B;stroke-width:0.166;stroke-miterlimit:10;" d="M302.3,137.6
					c9-3.9,12.7,4.9,21.7,1c9-3.9,5.2-12.6,14.1-16.4s12.7,4.9,21.7,1s5.2-12.6,14.1-16.4s12.7,4.9,21.7,1"/>
				<path id="Path_496" style="fill:none;stroke:#0A335B;stroke-width:0.166;stroke-miterlimit:10;" d="M-37.8,65.4
					c9-3.9,12.7,4.9,21.7,1S-10.9,53.9-2,50s12.7,4.9,21.7,1s5.2-12.6,14.1-16.4s12.7,4.9,21.7,1"/>
				<path id="Path_497" style="fill:none;stroke:#0A335B;stroke-width:0.166;stroke-miterlimit:10;" d="M728.7,112.1
					c9-3.9,12.7,4.9,21.7,1s5.2-12.6,14.1-16.4s12.7,4.9,21.7,1s5.2-12.6,14.1-16.4s12.7,4.9,21.7,1"/>
				<path id="Path_498" style="fill:none;stroke:#0A335B;stroke-width:0.166;stroke-miterlimit:10;" d="M649,365.6
					c9-3.9,12.7,4.9,21.7,1s5.2-12.6,14.1-16.4s12.7,4.9,21.7,1s5.2-12.6,14.1-16.4s12.7,4.9,21.7,1"/>
				<path style="fill:none;stroke:#0A335B;stroke-width:0.166;stroke-miterlimit:10;" d="M863.2,565.6c9-3.9,12.7,4.9,21.7,1
					c6.5-2.8,6.3-8.2,9.2-12.4"/>
				<path id="Path_500" style="fill:none;stroke:#0A335B;stroke-width:0.166;stroke-miterlimit:10;" d="M518.8,22.9
					c9-3.9,12.7,4.9,21.7,1s5.2-12.6,14.1-16.4s12.7,4.9,21.7,1S581.5-4.1,590.4-8c9-3.9,12.7,4.9,21.7,1"/>
				<path id="Path_501" style="fill:none;stroke:#0A335B;stroke-width:0.166;stroke-miterlimit:10;" d="M400.3,582.5
					c9-3.9,12.7,4.9,21.7,1c9-3.9,5.2-12.6,14.1-16.4c9-3.9,12.7,4.9,21.7,1c9-3.9,5.2-12.6,14.1-16.4s12.7,4.9,21.7,1"/>
				<path id="Path_502" style="fill:none;stroke:#0A335B;stroke-width:0.166;stroke-miterlimit:10;" d="M-64.2,606.6
					c9-3.9,12.7,4.9,21.7,1s5.2-12.6,14.1-16.4s12.7,4.9,21.7,1c9-3.9,5.2-12.6,14.1-16.4c9-3.9,12.7,4.9,21.7,1"/>
				<path id="Path_503" style="fill:none;stroke:#0A335B;stroke-width:0.166;stroke-miterlimit:10;" d="M45.7,415.9
					c9-3.9,12.7,4.9,21.7,1s5.2-12.6,14.1-16.4s12.7,4.9,21.7,1s5.2-12.6,14.1-16.4s12.7,4.9,21.7,1"/>
				<g id="Group_296" transform="translate(188.924 165.874)">
					<g id="Group_294" transform="translate(0 7.68)">
						<path id="Path_504" style="fill:#FDB400;" d="M0,3.3l5.7,3.3V0L0,3.3z"/>
						<path id="Path_505" style="fill:#FDB400;" d="M22,3.3L16.3,0v6.6L22,3.3z"/>
					</g>
					<g id="Group_295" transform="translate(7.699)">
						<path id="Path_506" style="fill:#FDB400;" d="M3.3,21.9l3.3-5.7H0L3.3,21.9z"/>
						<path id="Path_507" style="fill:#FDB400;" d="M3.3,0L0,5.7h6.6L3.3,0z"/>
					</g>
				</g>
				<g id="Group_299" transform="translate(554.486 568.148)">
					<g id="Group_297" transform="translate(0 7.679)">
						<path id="Path_508" style="fill:#FFC248;" d="M0,3.3l5.7,3.3V0L0,3.3z"/>
						<path id="Path_509" style="fill:#FFC248;" d="M22,3.3L16.3,0v6.6L22,3.3z"/>
					</g>
					<g id="Group_298" transform="translate(7.699)">
						<path id="Path_510" style="fill:#FFC248;" d="M3.3,21.9l3.3-5.7H0L3.3,21.9z"/>
						<path id="Path_511" style="fill:#FFC248;" d="M3.3,0L0,5.7h6.6L3.3,0z"/>
					</g>
				</g>
				<g id="Group_302" transform="translate(753.425 160.241)">
					<g id="Group_300" transform="translate(0 7.68)">
						<path id="Path_512" style="fill:#FDB400;" d="M0,3.3l5.7,3.3V0L0,3.3z"/>
						<path id="Path_513" style="fill:#FDB400;" d="M22,3.3L16.3,0v6.6L22,3.3z"/>
					</g>
					<g id="Group_301" transform="translate(7.699)">
						<path id="Path_514" style="fill:#FDB400;" d="M3.3,21.9l3.3-5.7H0L3.3,21.9z"/>
						<path id="Path_515" style="fill:#FDB400;" d="M3.3,0L0,5.7h6.6L3.3,0z"/>
					</g>
				</g>
				<g id="Group_310" transform="translate(-5.538 390.062)">
					<g id="Group_309">
						<g id="Group_305" transform="translate(0 7.68)">
							<g id="Group_303">
								<path id="Path_516" d="M0,3.3l5.7,3.3V0L0,3.3z"/>
							</g>
							<g id="Group_304" transform="translate(16.278)">
								<path id="Path_517" d="M5.7,3.3L0,0v6.6L5.7,3.3z"/>
							</g>
						</g>
						<g id="Group_308" transform="translate(7.699)">
							<g id="Group_306" transform="translate(0 16.237)">
								<path id="Path_518" d="M3.3,5.7L6.6,0H0L3.3,5.7z"/>
							</g>
							<g id="Group_307">
								<path id="Path_519" d="M3.3,0L0,5.7h6.6L3.3,0z"/>
							</g>
						</g>
					</g>
				</g>
				<g id="Group_318" transform="translate(805.066 685.928)">
					<g id="Group_317">
						<g id="Group_313" transform="translate(0 7.68)">
							<g id="Group_311">
								<path id="Path_520" d="M0,3.3l5.7,3.3V0L0,3.3z"/>
							</g>
							<g id="Group_312" transform="translate(16.278)">
								<path id="Path_521" d="M5.7,3.3L0,0v6.6L5.7,3.3z"/>
							</g>
						</g>
						<g id="Group_316" transform="translate(7.699)">
							<g id="Group_314" transform="translate(0 16.237)">
								<path id="Path_522" d="M3.3,5.7L6.6,0H0L3.3,5.7z"/>
							</g>
							<g id="Group_315">
								<path id="Path_523" d="M3.3,0L0,5.7h6.6L3.3,0z"/>
							</g>
						</g>
					</g>
				</g>
				<g id="Group_326" transform="translate(881.993 28.092)">
					<g id="Group_325">
						<g id="Group_321" transform="translate(0 7.68)">
							<g id="Group_319">
								<path id="Path_524" d="M0,3.3l5.7,3.3V0L0,3.3z"/>
							</g>
						</g>
						<g id="Group_324" transform="translate(7.699)">
							<g id="Group_322" transform="translate(0 16.237)">
								<polygon points="4.3,0 4.3,3.9 3.3,5.7 0,0 								"/>
							</g>
							<g id="Group_323">
								<polygon points="4.3,1.8 4.3,5.7 0,5.7 3.3,0 								"/>
							</g>
						</g>
					</g>
				</g>
				<g id="Group_334" transform="translate(307.263 -3.01)">
					<g id="Group_333">
						<g id="Group_329" transform="translate(0 7.679)">
							<g id="Group_327">
								<path id="Path_528" d="M0,3.3l5.7,3.3V0L0,3.3z"/>
							</g>
							<g id="Group_328" transform="translate(16.278)">
								<path id="Path_529" d="M5.7,3.3L0,0v6.6L5.7,3.3z"/>
							</g>
						</g>
						<g id="Group_332" transform="translate(7.699)">
							<g id="Group_330" transform="translate(0 16.237)">
								<path id="Path_530" d="M3.3,5.7L6.6,0H0L3.3,5.7z"/>
							</g>
							<g id="Group_331">
								<path id="Path_531" d="M3.3,0L0,5.7h6.6L3.3,0z"/>
							</g>
						</g>
					</g>
				</g>
			</g>
		</g>
		<g id="Icon" transform="translate(536 -732)">
			<g id="Login_Screen" transform="translate(-378.462 -153)">
				<g id="Group_364" transform="translate(424.752 1747.056)">
					<g id="Group_92" transform="translate(0.411 0)">
						<path id="Rectangle_465" style="fill:#C3C9F8;" d="M9.3-0.1h533c5,0,9,4,9,9v270c0,5-4,9-9,9H9.3c-5,0-9-4-9-9V8.9
							C0.3,4,4.3-0.1,9.3-0.1z"/>
						<g id="Group_91" transform="translate(337.5 54.631)">
							<path id="Rectangle_439" style="opacity:0.9;fill:#FFFFFF;enable-background:new    ;" d="M0.8,70.3h148c0.6,0,1,0.4,1,1v22
								c0,0.6-0.4,1-1,1H0.8c-0.6,0-1-0.4-1-1v-22C-0.2,70.8,0.2,70.3,0.8,70.3z"/>
							<path id="Rectangle_440" style="opacity:0.9;fill:#FFFFFF;enable-background:new    ;" d="M0.8,114.3h148c0.6,0,1,0.4,1,1v22
								c0,0.6-0.4,1-1,1H0.8c-0.6,0-1-0.4-1-1v-22C-0.2,114.8,0.2,114.3,0.8,114.3z"/>
							<path id="Rectangle_441" style="fill:#FF5670;" d="M27.8,155.3h96c0.6,0,1,0.4,1,1v21c0,0.6-0.4,1-1,1h-96c-0.6,0-1-0.4-1-1
								v-21C26.8,155.8,27.2,155.3,27.8,155.3z"/>
							<path id="Rectangle_438" style="fill:#FF5670;" d="M74.3,0.3h1c13,0,23.5,10.5,23.5,23.5l0,0c0,13-10.5,23.5-23.5,23.5h-1
								c-13,0-23.5-10.5-23.5-23.5l0,0C50.8,10.8,61.3,0.3,74.3,0.3z"/>
						</g>
					</g>
					<g id="Group_98" transform="translate(0 0)">
						<path id="Rectangle_466" style="fill:#E1E4FF;" d="M8.7-0.1h264l0,0v288l0,0H8.7c-4.4,0-8-3.6-8-8V7.9
							C0.7,3.5,4.3-0.1,8.7-0.1z"/>
						<path id="Path_175" style="fill:#3C50E0;" d="M200.9,91.7l-58.1,50.8L60.7,68.9l-60,52.4v158.6c0,3.3,3.5,8,7.3,8l257.7-0.1
							c3.8-0.2,6.8-3.2,7-6.9v-125L200.9,91.7z"/>
						<path id="Rectangle_467" style="fill:#FF5670;" d="M169,25.5L169,25.5c12.1,0,22,9.8,22,22l0,0c0,12.1-9.8,22-22,22l0,0
							c-12.1,0-22-9.8-22-22l0,0C147.1,35.3,156.9,25.5,169,25.5z"/>
						<rect id="Rectangle_524" x="215.7" y="233.9" style="fill:#3C50E0;" width="57" height="54"/>
					</g>
				</g>
			</g>
		</g>
	</g>
	<g id="Group_368">
		<g id="edit" transform="translate(11 -1)">
			<path id="Rectangle_739" style="fill:#3C50E0;" d="M440,669L440,669c8.3,0,15,6.7,15,15l0,0c0,8.3-6.7,15-15,15l0,0
				c-8.3,0-15-6.7-15-15l0,0C425,675.7,431.7,669,440,669z"/>
			<path id="Path_613" style="fill:#FFFFFF;" d="M446.6,681.6c0.5-0.5,0.5-1.3,0-1.9c0,0,0,0,0,0l-1.6-1.6c-0.5-0.5-1.3-0.5-1.9,0
				l-1.3,1.3c-0.1,0.1-0.1,0.3,0,0.5c0,0,0,0,0,0l3,3c0.1,0.1,0.3,0.1,0.5,0c0,0,0,0,0,0L446.6,681.6z M440.8,680.5l-7.2,7.2
				L433,691c-0.1,0.4,0.2,0.7,0.5,0.8c0.1,0,0.2,0,0.2,0l3.3-0.6l7.2-7.2c0.1-0.1,0.1-0.3,0-0.5c0,0,0,0,0,0l-3-3
				C441.1,680.4,440.9,680.4,440.8,680.5z M436.4,687c-0.1-0.1-0.2-0.4,0-0.5c0,0,0,0,0,0l4.2-4.2c0.1-0.1,0.4-0.2,0.5,0
				c0,0,0,0,0,0c0.1,0.1,0.2,0.4,0,0.5c0,0,0,0,0,0l-4.2,4.2C436.8,687.2,436.5,687.2,436.4,687C436.4,687,436.4,687,436.4,687z
				 M435.4,689.3h1.3v1l-1.8,0.3l-0.8-0.9l0.3-1.8h1L435.4,689.3z"/>
		</g>
		<g id="edit-2" transform="translate(576 237)">
			<path id="Rectangle_739-2" style="fill:#3C50E0;" d="M440,669L440,669c8.3,0,15,6.7,15,15l0,0c0,8.3-6.7,15-15,15l0,0
				c-8.3,0-15-6.7-15-15l0,0C425,675.7,431.7,669,440,669z"/>
			<path id="Path_616" style="fill:#FFFFFF;" d="M446.6,681.6c0.5-0.5,0.5-1.3,0-1.9c0,0,0,0,0,0l-1.6-1.6c-0.5-0.5-1.3-0.5-1.9,0
				l-1.3,1.3c-0.1,0.1-0.1,0.3,0,0.5c0,0,0,0,0,0l3,3c0.1,0.1,0.3,0.1,0.5,0c0,0,0,0,0,0L446.6,681.6z M440.8,680.5l-7.2,7.2
				L433,691c-0.1,0.4,0.2,0.7,0.5,0.8c0.1,0,0.2,0,0.2,0l3.3-0.6l7.2-7.2c0.1-0.1,0.1-0.3,0-0.5c0,0,0,0,0,0l-3-3
				C441.1,680.4,440.9,680.4,440.8,680.5z M436.4,687c-0.1-0.1-0.2-0.4,0-0.5c0,0,0,0,0,0l4.2-4.2c0.1-0.1,0.4-0.2,0.5,0
				c0,0,0,0,0,0c0.1,0.1,0.2,0.4,0,0.5c0,0,0,0,0,0l-4.2,4.2C436.8,687.2,436.5,687.2,436.4,687C436.4,687,436.4,687,436.4,687z
				 M435.4,689.3h1.3v1l-1.8,0.3l-0.8-0.9l0.3-1.8h1L435.4,689.3z"/>
		</g>
		<g id="edit-3" transform="translate(173 208)">
			<path id="Rectangle_739-3" style="fill:#3C50E0;" d="M440,669L440,669c8.3,0,15,6.7,15,15l0,0c0,8.3-6.7,15-15,15l0,0
				c-8.3,0-15-6.7-15-15l0,0C425,675.7,431.7,669,440,669z"/>
			<path id="Path_615" style="fill:#FFFFFF;" d="M446.6,681.6c0.5-0.5,0.5-1.3,0-1.9c0,0,0,0,0,0l-1.6-1.6c-0.5-0.5-1.3-0.5-1.9,0
				l-1.3,1.3c-0.1,0.1-0.1,0.3,0,0.5c0,0,0,0,0,0l3,3c0.1,0.1,0.3,0.1,0.5,0c0,0,0,0,0,0L446.6,681.6z M440.8,680.5l-7.2,7.2
				L433,691c-0.1,0.4,0.2,0.7,0.5,0.8c0.1,0,0.2,0,0.2,0l3.3-0.6l7.2-7.2c0.1-0.1,0.1-0.3,0-0.5c0,0,0,0,0,0l-3-3
				C441.1,680.4,440.9,680.4,440.8,680.5z M436.4,687c-0.1-0.1-0.2-0.4,0-0.5c0,0,0,0,0,0l4.2-4.2c0.1-0.1,0.4-0.2,0.5,0
				c0,0,0,0,0,0c0.1,0.1,0.2,0.4,0,0.5c0,0,0,0,0,0l-4.2,4.2C436.8,687.2,436.5,687.2,436.4,687C436.4,687,436.4,687,436.4,687z
				 M435.4,689.3h1.3v1l-1.8,0.3l-0.8-0.9l0.3-1.8h1L435.4,689.3z"/>
		</g>
		<g id="edit-4" transform="translate(631 297)">
			<path id="Rectangle_739-4" style="fill:#3C50E0;" d="M440,669L440,669c8.3,0,15,6.7,15,15l0,0c0,8.3-6.7,15-15,15l0,0
				c-8.3,0-15-6.7-15-15l0,0C425,675.7,431.7,669,440,669z"/>
			<path id="Path_617" style="fill:#FFFFFF;" d="M446.6,681.6c0.5-0.5,0.5-1.3,0-1.9c0,0,0,0,0,0l-1.6-1.6c-0.5-0.5-1.3-0.5-1.9,0
				l-1.3,1.3c-0.1,0.1-0.1,0.3,0,0.5c0,0,0,0,0,0l3,3c0.1,0.1,0.3,0.1,0.5,0c0,0,0,0,0,0L446.6,681.6z M440.8,680.5l-7.2,7.2
				L433,691c-0.1,0.4,0.2,0.7,0.5,0.8c0.1,0,0.2,0,0.2,0l3.3-0.6l7.2-7.2c0.1-0.1,0.1-0.3,0-0.5c0,0,0,0,0,0l-3-3
				C441.1,680.4,440.9,680.4,440.8,680.5z M436.4,687c-0.1-0.1-0.2-0.4,0-0.5c0,0,0,0,0,0l4.2-4.2c0.1-0.1,0.4-0.2,0.5,0
				c0,0,0,0,0,0c0.1,0.1,0.2,0.4,0,0.5c0,0,0,0,0,0l-4.2,4.2C436.8,687.2,436.5,687.2,436.4,687C436.4,687,436.4,687,436.4,687z
				 M435.4,689.3h1.3v1l-1.8,0.3l-0.8-0.9l0.3-1.8h1L435.4,689.3z"/>
		</g>
		<g id="edit-5" transform="translate(611 389)">
			<path id="Rectangle_739-5" style="fill:#3C50E0;" d="M440,669L440,669c8.3,0,15,6.7,15,15l0,0c0,8.3-6.7,15-15,15l0,0
				c-8.3,0-15-6.7-15-15l0,0C425,675.7,431.7,669,440,669z"/>
			<path id="Path_618" style="fill:#FFFFFF;" d="M446.6,681.6c0.5-0.5,0.5-1.3,0-1.9c0,0,0,0,0,0l-1.6-1.6c-0.5-0.5-1.3-0.5-1.9,0
				l-1.3,1.3c-0.1,0.1-0.1,0.3,0,0.5c0,0,0,0,0,0l3,3c0.1,0.1,0.3,0.1,0.5,0c0,0,0,0,0,0L446.6,681.6z M440.8,680.5l-7.2,7.2
				L433,691c-0.1,0.4,0.2,0.7,0.5,0.8c0.1,0,0.2,0,0.2,0l3.3-0.6l7.2-7.2c0.1-0.1,0.1-0.3,0-0.5c0,0,0,0,0,0l-3-3
				C441.1,680.4,440.9,680.4,440.8,680.5z M436.4,687c-0.1-0.1-0.2-0.4,0-0.5c0,0,0,0,0,0l4.2-4.2c0.1-0.1,0.4-0.2,0.5,0
				c0,0,0,0,0,0c0.1,0.1,0.2,0.4,0,0.5c0,0,0,0,0,0l-4.2,4.2C436.8,687.2,436.5,687.2,436.4,687C436.4,687,436.4,687,436.4,687z
				 M435.4,689.3h1.3v1l-1.8,0.3l-0.8-0.9l0.3-1.8h1L435.4,689.3z"/>
		</g>
	</g>
	<g id="Group_366">
		<rect id="Rectangle_738" x="135" y="611" style="fill:#E8F1FF;" width="276" height="758"/>
		<rect id="Rectangle_740" x="135" y="643" style="fill:#C9DDFC;" width="276" height="77"/>
		<g id="Login_Screen-2" transform="translate(-161 -920)">
			<g transform="matrix(1, 0, 0, 1, 296, 1531)" style="filter:url(#Rectangle_436);">
				<path id="Rectangle_436-5_1_" style="fill:#FFFFFF;" d="M48,139h180c5.5,0,10,4.5,10,10v110c0,5.5-4.5,10-10,10H48
					c-5.5,0-10-4.5-10-10V149C38,143.5,42.5,139,48,139z"/>
			</g>
			<g id="Group_92-2" transform="translate(404.999 1693.678)">
				<path id="Rectangle_437" style="fill:#3C50E0;" d="M2,0.3h55c1.1,0,2,0.9,2,2v79c0,1.1-0.9,2-2,2H2c-1.1,0-2-0.9-2-2v-79
					C0,1.2,0.9,0.3,2,0.3z"/>
				<g id="Group_91-2" transform="translate(4.222 9.554)">
					<path id="Rectangle_439-2" style="opacity:0.9;fill:#FFFFFF;enable-background:new    ;" d="M1.8,24.8h47c0.6,0,1,0.4,1,1v8
						c0,0.6-0.4,1-1,1h-47c-0.6,0-1-0.4-1-1v-8C0.8,25.2,1.2,24.8,1.8,24.8z"/>
					<path id="Rectangle_440-2" style="opacity:0.9;fill:#FFFFFF;enable-background:new    ;" d="M1.8,39.8h47c0.6,0,1,0.4,1,1v8
						c0,0.6-0.4,1-1,1h-47c-0.6,0-1-0.4-1-1v-8C0.8,40.2,1.2,39.8,1.8,39.8z"/>
					<path id="Rectangle_441-2" style="fill:#FF5670;" d="M10.8,54.8h29c0.6,0,1,0.4,1,1v8c0,0.6-0.4,1-1,1h-29c-0.6,0-1-0.4-1-1v-8
						C9.8,55.2,10.2,54.8,10.8,54.8z"/>
					<path id="Rectangle_438-2" style="fill:#FF5670;" d="M25.3-0.2L25.3-0.2c4.7,0,8.5,3.8,8.5,8.5l0,0c0,4.7-3.8,8.5-8.5,8.5l0,0
						c-4.7,0-8.5-3.8-8.5-8.5l0,0C16.8,3.6,20.6-0.2,25.3-0.2z"/>
				</g>
			</g>
		</g>
		<g id="Login_Screen-3" transform="translate(-161 -767)">
			<g transform="matrix(1, 0, 0, 1, 296, 1378)" style="filter:url(#Rectangle_436-2);">
				<path id="Rectangle_436-6_1_" style="fill:#FFFFFF;" d="M48,294h180c5.5,0,10,4.5,10,10v110c0,5.5-4.5,10-10,10H48
					c-5.5,0-10-4.5-10-10V304C38,298.5,42.5,294,48,294z"/>
			</g>
			<g id="Group_364-2" transform="translate(-7.5 -2.565)">
				<g id="Group_92-3" transform="translate(359.499 1696.562)">
					<path id="Rectangle_465-2" style="fill:#C3C9F8;" d="M3,0h157c1.7,0,3,1.3,3,3v79c0,1.7-1.3,3-3,3H3c-1.7,0-3-1.3-3-3V3
						C0,1.3,1.3,0,3,0z"/>
					<g id="Group_91-3" transform="translate(100.36 15.921)">
						<path id="Rectangle_439-3" style="opacity:0.9;fill:#FFFFFF;enable-background:new    ;" d="M0.6,21.1h42c0.6,0,1,0.4,1,1v5
							c0,0.6-0.4,1-1,1h-42c-0.6,0-1-0.4-1-1v-5C-0.4,21.5,0.1,21.1,0.6,21.1z"/>
						<path id="Rectangle_440-3" style="opacity:0.9;fill:#FFFFFF;enable-background:new    ;" d="M0.6,34.1h42c0.6,0,1,0.4,1,1v5
							c0,0.6-0.4,1-1,1h-42c-0.6,0-1-0.4-1-1v-5C-0.4,34.5,0.1,34.1,0.6,34.1z"/>
						<path id="Rectangle_441-3" style="fill:#FF5670;" d="M8.6,46.1h27c0.6,0,1,0.4,1,1v5c0,0.6-0.4,1-1,1h-27c-0.6,0-1-0.4-1-1v-5
							C7.6,46.5,8.1,46.1,8.6,46.1z"/>
						<path id="Rectangle_438-3" style="fill:#FF5670;" d="M21.6,0.1L21.6,0.1c3.9,0,7,3.1,7,7l0,0c0,3.9-3.1,7-7,7l0,0
							c-3.9,0-7-3.1-7-7l0,0C14.6,3.2,17.8,0.1,21.6,0.1z"/>
					</g>
				</g>
				<g id="Group_98-2" transform="translate(360 1696.997)">
					<path id="Rectangle_466-2" style="fill:#E1E4FF;" d="M2.5-0.4h78l0,0v85l0,0h-78c-1.7,0-3-1.3-3-3v-79
						C-0.5,0.9,0.8-0.4,2.5-0.4z"/>
					<path id="Path_175-2" style="fill:#3C50E0;" d="M58.9,26.3L41.7,41.4L17.3,19.6L-0.5,35.1l0.1,47.6c0.1,1.1,1,1.9,2.1,1.8h76.8
						c1.1,0.1,2-0.7,2.1-1.8l-0.1-37.4L58.9,26.3z"/>
					<path id="Rectangle_467-2" style="fill:#FF5670;" d="M49.5,7L49.5,7c3.6,0,6.5,2.9,6.5,6.5l0,0c0,3.6-2.9,6.5-6.5,6.5l0,0
						c-3.6,0-6.5-2.9-6.5-6.5l0,0C43,9.9,45.9,7,49.5,7z"/>
					<rect id="Rectangle_524-2" x="63.5" y="68.6" style="fill:#3C50E0;" width="17" height="16"/>
				</g>
			</g>
			<g id="Group_365">
				<path id="Rectangle_513" style="fill:#38C073;" d="M530.9,1658.1c8.8,0,15.9,7.1,15.9,15.9s-7.1,15.9-15.9,15.9
					s-15.9-7.1-15.9-15.9c0,0,0,0,0,0C515,1665.2,522.1,1658.1,530.9,1658.1z"/>
				<path id="Path_614" style="fill:#FFFFFF;" d="M528.3,1679.7c0.3,0.3,0.8,0.3,1.1,0l9.2-9.2c0.3-0.3,0.3-0.8,0-1.1l-1.1-1.1
					c-0.3-0.3-0.8-0.3-1.1,0l-7.5,7.5l-3.5-3.5c-0.3-0.3-0.8-0.3-1.1,0l-1.1,1.1c-0.3,0.3-0.3,0.8,0,1.1L528.3,1679.7z"/>
			</g>
		</g>
		<g id="Login_Screen-4" transform="translate(-161 -455)">
			<g transform="matrix(1, 0, 0, 1, 296, 1066)" style="filter:url(#Rectangle_436-3);">
				<path id="Rectangle_436-7_1_" style="fill:#FFFFFF;" d="M45,604h186c3.9,0,7,3.1,7,7v107c0,3.9-3.1,7-7,7H45c-3.9,0-7-3.1-7-7
					V611C38,607.1,41.1,604,45,604z"/>
			</g>
			<path id="Path_180" style="opacity:0.4;fill:#8A96ED;enable-background:new    ;" d="M474.8,1730.1l-36.2,33.6l-59.7-58.6
				l-44.8,47.2v32.7c0,2.3,2.7,6.1,6.4,6.1H527c3.7,0,6.7-2.8,7-6.5v-6.5L474.8,1730.1z"/>
			<path id="Rectangle_525" style="opacity:0.8;fill:#FF5670;enable-background:new    ;" d="M421,1683L421,1683c7.2,0,13,5.8,13,13
				l0,0c0,7.2-5.8,13-13,13l0,0c-7.2,0-13-5.8-13-13l0,0C408,1688.8,413.8,1683,421,1683z"/>
			<g id="Group_92-4" transform="translate(464.07 1695.874)">
				<g id="Group_91-4" transform="translate(0 0)">
					<path id="Rectangle_526" style="fill:#3C50E0;" d="M2.9,0.1h44c1.7,0,3,1.3,3,3v62c0,1.7-1.3,3-3,3h-44c-1.7,0-3-1.3-3-3v-62
						C-0.1,1.5,1.3,0.1,2.9,0.1z"/>
					<path id="Rectangle_439-4" style="opacity:0.9;fill:#FFFFFF;enable-background:new    ;" d="M4.9,28.1h41c0.6,0,1,0.4,1,1v5
						c0,0.6-0.4,1-1,1h-41c-0.6,0-1-0.4-1-1v-5C3.9,28.6,4.4,28.1,4.9,28.1z"/>
					<path id="Rectangle_440-4" style="opacity:0.9;fill:#FFFFFF;enable-background:new    ;" d="M4.9,40.1h41c0.6,0,1,0.4,1,1v5
						c0,0.6-0.4,1-1,1h-41c-0.6,0-1-0.4-1-1v-5C3.9,40.6,4.4,40.1,4.9,40.1z"/>
					<path id="Rectangle_441-4" style="fill:#FF5670;" d="M11.9,54.1h27c0.6,0,1,0.4,1,1v5c0,0.6-0.4,1-1,1h-27c-0.6,0-1-0.4-1-1v-5
						C10.9,54.6,11.4,54.1,11.9,54.1z"/>
					<path id="Rectangle_438-4" style="fill:#FFFFFF;" d="M24.9,8.1L24.9,8.1c3.9,0,7,3.1,7,7l0,0c0,3.9-3.1,7-7,7l0,0
						c-3.9,0-7-3.1-7-7l0,0C17.9,11.3,21.1,8.1,24.9,8.1z"/>
				</g>
			</g>
		</g>
		<g id="Login_Screen-5" transform="translate(-161 -612)">
			<g transform="matrix(1, 0, 0, 1, 296, 1223)" style="filter:url(#Rectangle_436-4);">
				<path id="Rectangle_436-8_1_" style="fill:#FFFFFF;" d="M48,449h180c5.5,0,10,4.5,10,10v110c0,5.5-4.5,10-10,10H48
					c-5.5,0-10-4.5-10-10V459C38,453.5,42.5,449,48,449z"/>
			</g>
			<g id="Group_98-3" transform="translate(350.279 1689)">
				<path id="Rectangle_466-3" style="fill:#E1E4FF;" d="M2.7,0h122c1.7,0,3,1.3,3,3v90c0,1.7-1.3,3-3,3H2.7c-1.7,0-3-1.3-3-3V3
					C-0.3,1.3,1.1,0,2.7,0z"/>
				<path id="Path_175-3" style="fill:#3C50E0;" d="M93.6,33.6L66.4,57.1L28,23L-0.1,47.3l-0.2,45.9c0.1,1.7,1.6,2.9,3.2,2.8
					l121.5,0c1.7,0.1,3.1-1.1,3.2-2.8l-0.2-29.9L93.6,33.6z"/>
				<path id="Rectangle_467-3" style="fill:#FF5670;" d="M56.2,17L56.2,17c4.1,0,7.5,3.4,7.5,7.5l0,0c0,4.1-3.4,7.5-7.5,7.5l0,0
					c-4.1,0-7.5-3.4-7.5-7.5l0,0C48.7,20.4,52.1,17,56.2,17z"/>
			</g>
			<g id="Group_92-5" transform="translate(459.675 1729.186)">
				<path id="Rectangle_465-3" style="fill:#C3C9F8;" d="M3.3-0.2h52c1.7,0,3,1.3,3,3v35c0,1.7-1.3,3-3,3h-52c-1.7,0-3-1.3-3-3v-35
					C0.3,1.2,1.7-0.2,3.3-0.2z"/>
				<g id="Group_91-5" transform="translate(4.465 10.047)">
					<path id="Rectangle_439-5" style="opacity:0.9;fill:#FFFFFF;enable-background:new    ;" d="M0.9-0.2h47c0.6,0,1,0.4,1,1v6
						c0,0.6-0.4,1-1,1h-47c-0.6,0-1-0.4-1-1v-6C-0.1,0.2,0.3-0.2,0.9-0.2z"/>
					<path id="Rectangle_440-5" style="opacity:0.9;fill:#FFFFFF;enable-background:new    ;" d="M0.9,13.8h47c0.6,0,1,0.4,1,1v6
						c0,0.6-0.4,1-1,1h-47c-0.6,0-1-0.4-1-1v-6C-0.1,14.2,0.3,13.8,0.9,13.8z"/>
					<path id="Rectangle_441-5" style="fill:#FF5670;" d="M25.9,27.8h22c0.6,0,1,0.4,1,1v6c0,0.6-0.4,1-1,1h-22c-0.6,0-1-0.4-1-1v-6
						C24.9,28.2,25.3,27.8,25.9,27.8z"/>
				</g>
			</g>
		</g>
		<path id="Path_612" style="fill:#07003B;" d="M177.6,672.2c2.4,0,3.9-1.3,3.9-3.2c0-1.4-0.9-2.4-2.5-2.8l-2.1-0.5
			c-1.2-0.3-1.7-0.8-1.7-1.5c0-0.9,0.8-1.5,2.2-1.5c1,0,2,0.4,2.7,1.1l1.1-1.1c-1-1-2.4-1.5-3.8-1.5c-2.3,0-3.8,1.3-3.8,3.1
			c0,1.4,0.9,2.3,2.5,2.7l2.1,0.5c1.1,0.3,1.6,0.8,1.6,1.5c0,1-0.9,1.7-2.3,1.7c-1.2,0-2.3-0.5-3.2-1.2l-0.9,1.2
			C174.7,671.7,176.1,672.2,177.6,672.2z M190.8,667.9c0.1-2-1.4-3.6-3.4-3.7c-0.1,0-0.3,0-0.4,0c-2.2-0.1-4,1.6-4.1,3.8
			c0,0.1,0,0.2,0,0.3c-0.1,2.1,1.5,3.9,3.6,4c0.1,0,0.3,0,0.4,0c1.4,0.1,2.7-0.6,3.5-1.7l-1.1-0.8c-0.5,0.8-1.5,1.2-2.4,1.2
			c-1.3,0.1-2.5-0.9-2.6-2.2c0,0,0-0.1,0-0.1h6.3C190.8,668.3,190.8,668.1,190.8,667.9z M187,665.5c1.1-0.1,2.1,0.7,2.2,1.9h-4.7
			C184.8,666.2,185.9,665.4,187,665.5z M192.6,672h1.5v-11.1h-1.5V672z M203.8,667.9c0.1-2-1.4-3.6-3.4-3.7c-0.1,0-0.3,0-0.4,0
			c-2.2-0.1-4,1.6-4.1,3.8c0,0.1,0,0.2,0,0.3c-0.1,2.1,1.5,3.9,3.6,4c0.1,0,0.3,0,0.4,0c1.4,0.1,2.7-0.6,3.5-1.7l-1.1-0.8
			c-0.5,0.8-1.5,1.2-2.4,1.2c-1.3,0.1-2.5-0.9-2.6-2.2c0,0,0-0.1,0-0.1h6.3C203.7,668.3,203.7,668.1,203.8,667.9z M200,665.5
			c1.1-0.1,2.1,0.7,2.2,1.9h-4.7C197.8,666.2,198.8,665.4,200,665.5z M209.1,672.2c1.4,0,2.6-0.6,3.4-1.8l-1.1-0.8
			c-0.5,0.8-1.4,1.2-2.3,1.2c-1.4,0-2.5-1.1-2.5-2.5c0,0,0-0.1,0-0.1c-0.1-1.4,1-2.5,2.3-2.6c0,0,0.1,0,0.1,0c0.9,0,1.7,0.5,2.1,1.2
			l1.2-0.9c-0.8-1-2-1.7-3.3-1.6c-2.2,0-4,1.7-4,3.9c0,0.1,0,0.1,0,0.2c-0.1,2.1,1.6,3.9,3.8,4C208.9,672.2,209,672.2,209.1,672.2z
			 M219.1,670.5c-0.4,0.2-0.8,0.2-1.2,0.2c-0.9,0-1.4-0.5-1.4-1.7v-3.4h2.6v-1.3h-2.6v-1.9h-1.5v1.9h-1.7v1.3h1.7v3.6
			c0,2,0.9,2.9,2.7,2.9c0.6,0,1.2-0.1,1.7-0.4L219.1,670.5z M226.4,670.5v-9h-1.6V672h6.8v-1.5H226.4z M236.9,672.2
			c2.2,0.1,4-1.6,4-3.8c0-0.1,0-0.1,0-0.2c0.1-2.2-1.7-3.9-3.8-4c-0.1,0-0.1,0-0.2,0c-2.2-0.1-4,1.6-4,3.8c0,0.1,0,0.1,0,0.2
			c-0.1,2.2,1.7,4,3.8,4C236.7,672.2,236.8,672.2,236.9,672.2z M236.9,670.8c-1.4,0-2.5-1.1-2.5-2.5c0-0.1,0-0.1,0-0.2
			c-0.1-1.4,1-2.5,2.3-2.6c0.1,0,0.1,0,0.2,0c1.4,0,2.5,1.1,2.5,2.4c0,0.1,0,0.1,0,0.2c0.1,1.4-0.9,2.5-2.3,2.6
			C237,670.8,236.9,670.8,236.9,670.8z M248.4,664.4v0.7c-0.6-0.6-1.5-0.9-2.3-0.8c-2.1,0-3.8,1.7-3.9,3.8c0,0,0,0.1,0,0.1
			c0,2.1,1.6,3.9,3.8,3.9c0,0,0.1,0,0.1,0c0.9,0,1.7-0.3,2.3-0.8v0.7c0.1,1.2-0.8,2.2-2,2.2c-0.1,0-0.3,0-0.4,0c-1,0-2-0.4-2.7-1.1
			l-0.9,1.1c1,0.9,2.3,1.4,3.6,1.4c2.4,0,3.8-1.4,3.8-3.6v-7.5H248.4z M246.3,670.7c-1.4,0-2.5-1.1-2.5-2.4c0,0,0-0.1,0-0.1
			c-0.1-1.4,1-2.5,2.4-2.5c0,0,0.1,0,0.1,0c0.8,0,1.6,0.4,2.2,1v3.1C247.9,670.3,247.1,670.6,246.3,670.7z M253,663.2
			c0.6,0,1-0.4,1-1c0-0.6-0.5-1-1-1c-0.6,0-1,0.5-1,1C252,662.8,252.4,663.2,253,663.2z M252.2,672h1.5v-7.6h-1.5V672z M260,664.2
			c-0.9,0-1.8,0.3-2.4,0.9v-0.7H256v7.6h1.5v-5.4c0.5-0.6,1.3-1,2.1-1c1.1,0,1.8,0.8,1.8,2.2v4.3h1.5v-4.6
			C263,665.4,261.7,664.2,260,664.2z"/>
		<path id="Path_611" style="fill:#07003B;" d="M185.5,684.3h-12v2.9h4.5V699h3.1v-11.8h4.5L185.5,684.3z M193.4,688
			c-1.1,0-2.3,0.4-3.2,1.1v-5.5h-2.9V699h2.9v-7.2c0.6-0.7,1.4-1.1,2.4-1.1c1.3,0,2,0.8,2,2.5v5.9h2.9v-6.5
			C197.6,689.6,195.9,688,193.4,688z M210.9,693.3c0.2-2.8-2-5.2-4.8-5.4c-0.2,0-0.4,0-0.6,0c-3.1-0.2-5.7,2.2-5.8,5.3
			c0,0.2,0,0.3,0,0.5c0,3.3,2.3,5.6,5.9,5.6c2,0.1,3.8-0.8,5-2.3l-2.1-1.6c-0.7,0.9-1.8,1.4-2.9,1.4c-1.5,0.2-2.8-0.9-3-2.4h8.3
			C210.9,694,210.9,693.7,210.9,693.3z M205.5,690.4c1.2-0.1,2.3,0.7,2.5,1.9h-5.3C203.1,691.1,204.2,690.3,205.5,690.4z M226.1,688
			c-1.4,0-2.8,0.6-3.8,1.6c-0.7-1.1-1.9-1.7-3.2-1.6c-1.1,0-2.2,0.4-3,1.1v-0.8h-2.9V699h2.9v-7.2c0.5-0.7,1.4-1.1,2.2-1.2
			c1,0,1.8,0.8,1.8,2.4v6h2.9v-6.6c0-0.2,0-0.4,0-0.6c0.5-0.7,1.4-1.1,2.2-1.2c1.1,0,1.7,0.8,1.7,2.4v6h2.9v-6.6
			C229.9,689.6,228.4,688,226.1,688z M243.3,693.3c0.2-2.8-2-5.2-4.8-5.4c-0.2,0-0.4,0-0.6,0c-3.1-0.2-5.7,2.2-5.8,5.3
			c0,0.2,0,0.3,0,0.5c0,3.3,2.3,5.6,5.9,5.6c2,0.1,3.8-0.8,5-2.3l-2.1-1.6c-0.7,0.9-1.8,1.4-2.9,1.4c-1.5,0.2-2.8-0.9-3-2.4h8.3
			C243.3,694,243.3,693.7,243.3,693.3z M237.8,690.4c1.2-0.1,2.3,0.7,2.5,1.9h-5.2C235.5,691.1,236.6,690.3,237.8,690.4z
			 M249.7,699.3c2.9,0,4.6-1.4,4.6-3.6c0-1.6-0.9-2.6-3.1-3.1l-1.8-0.4c-1-0.2-1.3-0.5-1.3-0.9c0-0.5,0.5-0.9,1.4-0.9
			c1.1,0,2.3,0.4,3.2,1.1l1.4-2.1c-1.3-1-2.9-1.5-4.5-1.5c-2.8,0-4.5,1.4-4.5,3.5c0,1.5,0.9,2.5,3.1,3l1.8,0.4
			c1,0.2,1.3,0.5,1.3,0.9c0,0.5-0.5,0.9-1.6,0.9c-1.3-0.1-2.5-0.5-3.5-1.2l-1.4,2.2C246.3,698.8,248,699.3,249.7,699.3z"/>
	</g>
	<g id="Top_Bar">
		<rect id="Rectangle_287" x="135" y="611" style="fill:#07003B;" width="1170" height="32"/>
		<g id="Three_dots" transform="translate(160 622.5)">
			<path id="Rectangle_288" style="fill:#FFFFFF;" d="M4.5,0.5L4.5,0.5C7,0.5,9,2.5,9,5l0,0c0,2.5-2,4.5-4.5,4.5l0,0
				C2,9.5,0,7.5,0,5l0,0C0,2.5,2,0.5,4.5,0.5z"/>
			<path id="Rectangle_289" style="opacity:0.7;fill:#FFFFFF;enable-background:new    ;" d="M21.5,0.5L21.5,0.5C24,0.5,26,2.5,26,5
				l0,0c0,2.5-2,4.5-4.5,4.5l0,0C19,9.5,17,7.5,17,5l0,0C17,2.5,19,0.5,21.5,0.5z"/>
			<path id="Rectangle_290" style="opacity:0.4;fill:#FFFFFF;enable-background:new    ;" d="M38.5,0.5L38.5,0.5C41,0.5,43,2.5,43,5
				l0,0c0,2.5-2,4.5-4.5,4.5l0,0C36,9.5,34,7.5,34,5l0,0C34,2.5,36,0.5,38.5,0.5z"/>
		</g>
	</g>
</g>
</svg>
