<svg xmlns="http://www.w3.org/2000/svg" width="210" height="100" viewBox="0 0 210 100">
  <g id="post-02" transform="translate(-268 -1652)">
    <g id="Font_Preview" data-name="Font Preview">
      <g id="Group_96" data-name="Group 96">
        <rect id="Rectangle_449" data-name="Rectangle 449" width="58" height="19" rx="3" transform="translate(268 1683)" fill="#8591ed"/>
        <path id="Path_621" data-name="Path 621" d="M7.056,0H8.208L4.788-8.4H3.6L.18,0H1.332L2.22-2.22H6.168ZM2.6-3.18,4.2-7.164,5.784-3.18ZM13.908-6.1v.576a2.746,2.746,0,0,0-1.932-.72A3.093,3.093,0,0,0,8.892-3.048,3.093,3.093,0,0,0,11.976.144a2.746,2.746,0,0,0,1.932-.72V0h1.056V-6.1ZM12.1-.816A2.1,2.1,0,0,1,9.972-3.048,2.1,2.1,0,0,1,12.1-5.28a2.3,2.3,0,0,1,1.812.852v2.76A2.3,2.3,0,0,1,12.1-.816Zm9.924-3.72A1.759,1.759,0,0,0,23-6.216C23-7.56,22-8.4,20.4-8.4H17.064V0h3.528c1.944,0,3.024-.984,3.024-2.46A2.048,2.048,0,0,0,22.02-4.536ZM20.4-7.416c.972,0,1.488.444,1.488,1.212s-.516,1.26-1.488,1.26H18.168V-7.416Zm.192,6.432H18.168v-3h2.424c1.236,0,1.9.636,1.9,1.512S21.828-.984,20.592-.984Zm7.62-5.256a2.746,2.746,0,0,0-1.932.72V-8.856H25.224V0H26.28V-.576a2.746,2.746,0,0,0,1.932.72A3.093,3.093,0,0,0,31.3-3.048,3.093,3.093,0,0,0,28.212-6.24Zm-.12,5.424a2.3,2.3,0,0,1-1.812-.852v-2.76a2.3,2.3,0,0,1,1.812-.852,2.1,2.1,0,0,1,2.124,2.232A2.1,2.1,0,0,1,28.092-.816Z" transform="translate(273 1697)" fill="#fff"/>
      </g>
      <g id="Group_95" data-name="Group 95">
        <rect id="Rectangle_450" data-name="Rectangle 450" width="58" height="19" rx="3" transform="translate(268 1708)" fill="#8591ed"/>
        <path id="Path_622" data-name="Path 622" d="M7.605,0H6.516L5.625-2.355H2.063L1.225,0H.129L3.352-8.4h1.02ZM5.3-3.24,3.984-6.82a3.428,3.428,0,0,1-.129-.562H3.832A3.138,3.138,0,0,1,3.7-6.82L2.391-3.24ZM13.008,0h-.961V-.937h-.023A2.012,2.012,0,0,1,10.178.141a1.973,1.973,0,0,1-1.4-.475,1.644,1.644,0,0,1-.507-1.26q0-1.682,1.98-1.957l1.8-.252q0-1.529-1.236-1.529a2.954,2.954,0,0,0-1.957.738v-.984a3.718,3.718,0,0,1,2.039-.562q2.115,0,2.115,2.238Zm-.961-3.035-1.447.2A2.35,2.35,0,0,0,9.592-2.5a.955.955,0,0,0-.34.841.916.916,0,0,0,.313.718,1.211,1.211,0,0,0,.835.278,1.542,1.542,0,0,0,1.181-.5,1.79,1.79,0,0,0,.466-1.269ZM14.947,0V-8.4h2.391a2.613,2.613,0,0,1,1.729.533,1.723,1.723,0,0,1,.639,1.389,2.043,2.043,0,0,1-.387,1.242,2.085,2.085,0,0,1-1.066.75v.023a2.138,2.138,0,0,1,1.359.642,1.973,1.973,0,0,1,.51,1.409,2.2,2.2,0,0,1-.773,1.746A2.879,2.879,0,0,1,17.4,0Zm.984-7.512V-4.8h1.008a1.914,1.914,0,0,0,1.271-.39,1.357,1.357,0,0,0,.463-1.1q0-1.225-1.611-1.225Zm0,3.6V-.891h1.336a2,2,0,0,0,1.345-.41,1.4,1.4,0,0,0,.478-1.125q0-1.488-2.027-1.488Zm6.75,3.047h-.023V0H21.7V-8.883h.961v3.938h.023a2.272,2.272,0,0,1,2.074-1.2,2.2,2.2,0,0,1,1.808.806,3.327,3.327,0,0,1,.653,2.159,3.719,3.719,0,0,1-.732,2.411,2.439,2.439,0,0,1-2,.905A1.974,1.974,0,0,1,22.682-.867Zm-.023-2.42v.838a1.784,1.784,0,0,0,.483,1.263,1.605,1.605,0,0,0,1.228.519,1.608,1.608,0,0,0,1.368-.668,3.064,3.064,0,0,0,.5-1.857,2.419,2.419,0,0,0-.463-1.57,1.532,1.532,0,0,0-1.254-.568,1.7,1.7,0,0,0-1.348.583A2.141,2.141,0,0,0,22.658-3.287Z" transform="translate(273 1722)" fill="#fff"/>
      </g>
      <g id="Group_94" data-name="Group 94">
        <rect id="Rectangle_451" data-name="Rectangle 451" width="58" height="19" rx="3" transform="translate(268 1733)" fill="#8591ed"/>
        <path id="Path_623" data-name="Path 623" d="M6.4.064A.479.479,0,0,1,6.188.018a.462.462,0,0,1-.155-.123.543.543,0,0,1-.094-.176.644.644,0,0,1-.032-.2.9.9,0,0,1,.047-.243q.047-.155.12-.349t.161-.4q.088-.211.17-.4t.141-.357Q6.6-2.4,6.627-2.5t.059-.252q.035-.146.079-.319t.088-.363q.044-.19.091-.384-.082.018-.2.032t-.255.026q-.193.018-.381.053t-.384.079l-.407.094q-.211.05-.451.1-.352.076-.7.17a2.831,2.831,0,0,1-.732.094.4.4,0,0,1-.217-.062.752.752,0,0,0-.223-.091,4.574,4.574,0,0,0-.223.4q-.105.214-.193.439t-.158.445q-.07.22-.123.413a1.927,1.927,0,0,0-.05.272Q2.221-1.178,2.2-1t-.035.331q-.018.158-.035.252a.521.521,0,0,1-.07.173.747.747,0,0,1-.129.155.666.666,0,0,1-.17.114.438.438,0,0,1-.187.044.373.373,0,0,1-.267-.1.709.709,0,0,1-.164-.24,1.213,1.213,0,0,1-.085-.313A2.288,2.288,0,0,1,1.037-.9a3.318,3.318,0,0,1,.088-.741,5.99,5.99,0,0,1,.237-.779,8.271,8.271,0,0,1,.352-.8q.2-.4.437-.8.193-.357.48-.826T3.272-5.8q.354-.5.768-.97A7.609,7.609,0,0,1,4.9-7.62a4.516,4.516,0,0,1,.914-.6,2.112,2.112,0,0,1,.932-.229,1.691,1.691,0,0,1,.812.176,1.4,1.4,0,0,1,.519.475,1.98,1.98,0,0,1,.272.7,4.328,4.328,0,0,1,.079.844,6.8,6.8,0,0,1-.05.809q-.05.416-.123.814t-.158.768Q8.01-3.5,7.939-3.2l-.205.8q-.012.035-.044.141t-.082.255q-.05.149-.111.322t-.123.34q-.062.167-.117.308t-.1.229l.006-.006q-.041.152-.088.311a1.079,1.079,0,0,1-.129.284.661.661,0,0,1-.211.205A.631.631,0,0,1,6.4.064Zm.3-7.336a1.356,1.356,0,0,0-.524.108,2.725,2.725,0,0,0-.513.284,3.757,3.757,0,0,0-.489.41q-.237.234-.451.48t-.4.5q-.188.249-.34.46l-.062.091q-.038.056-.076.123t-.073.141q-.035.073-.059.132h.6a6.874,6.874,0,0,0,.75-.047q.422-.047.835-.111t.759-.132l.521-.1a1.559,1.559,0,0,0,.044-.205q.021-.129.038-.287t.026-.337q.009-.179.009-.366,0-.152-.012-.349a1.444,1.444,0,0,0-.07-.372.743.743,0,0,0-.179-.3A.455.455,0,0,0,6.7-7.271Zm5.584,7.02a2.445,2.445,0,0,1,.041-.407,3.541,3.541,0,0,0,.041-.589q-.193.141-.428.334t-.486.369a3.648,3.648,0,0,1-.5.3,1.078,1.078,0,0,1-.466.12,1.049,1.049,0,0,1-.334-.053.879.879,0,0,1-.27-.141,1.737,1.737,0,0,1-.448-.492A1.157,1.157,0,0,1,9.3-1.389a1.854,1.854,0,0,1,.026-.3q.026-.158.079-.363a5.108,5.108,0,0,1,.765-1.714,5.239,5.239,0,0,1,1.345-1.345,1.649,1.649,0,0,1,.621-.278,3.16,3.16,0,0,1,.615-.062,2.908,2.908,0,0,1,.3.018q.167.018.3.035.135-.029.22-.041a1.308,1.308,0,0,1,.179-.012.794.794,0,0,1,.293.047.488.488,0,0,1,.188.126.492.492,0,0,1,.1.182.709.709,0,0,1,.032.214.894.894,0,0,1-.047.29l-.094.278L13.453-1.23q-.023.252-.041.463a2,2,0,0,1-.07.393L13.3-.243a.494.494,0,0,1-.085.152.543.543,0,0,1-.146.126.44.44,0,0,1-.229.053,1.429,1.429,0,0,1-.29-.023A.43.43,0,0,1,12.381,0,.2.2,0,0,1,12.3-.108.525.525,0,0,1,12.287-.252Zm-1.945-1.77a2.394,2.394,0,0,0-.05.234,1.783,1.783,0,0,0-.026.3.811.811,0,0,0,.047.284.2.2,0,0,0,.205.126,1,1,0,0,0,.46-.108,2.243,2.243,0,0,0,.4-.261q.252-.205.513-.46a6.725,6.725,0,0,0,.492-.536,4.876,4.876,0,0,0,.41-.577,2.386,2.386,0,0,0,.261-.589A3.228,3.228,0,0,0,13.134-4a2.812,2.812,0,0,0,.032-.4.342.342,0,0,0-.035-.149A.135.135,0,0,0,13-4.617a1.6,1.6,0,0,0-.577.111,2.627,2.627,0,0,0-.56.3,3.367,3.367,0,0,0-.513.442,4.384,4.384,0,0,0-.442.545,4.168,4.168,0,0,0-.343.6A3.515,3.515,0,0,0,10.342-2.021Zm11-.6a1.773,1.773,0,0,1-.249.867,2.617,2.617,0,0,1-.794.832q-.17.117-.413.255t-.527.278q-.284.141-.6.272t-.633.231a6.255,6.255,0,0,1-.624.161,2.907,2.907,0,0,1-.574.062A1.131,1.131,0,0,1,16.7.313.532.532,0,0,1,16.523.24a.684.684,0,0,1-.158-.146A2.356,2.356,0,0,1,16.2-.141a1,1,0,0,1-.3.155,1.021,1.021,0,0,1-.313.05h-.164A.14.14,0,0,1,15.34.032a.356.356,0,0,1-.073-.079.384.384,0,0,1-.05-.1A.359.359,0,0,1,15.2-.258a1.908,1.908,0,0,1,.085-.571q.085-.272.2-.542.164-.5.334-1.046t.328-1.1q.158-.551.3-1.087t.267-1.017l.164-.68q0-.018-.006-.1t-.015-.179q-.009-.1-.015-.179l-.006-.076.029-.1-.006.006a2.524,2.524,0,0,1,.082-.24,1.391,1.391,0,0,1,.129-.252.93.93,0,0,1,.167-.2.293.293,0,0,1,.2-.079q.1,0,.255.015t.278.015a1.091,1.091,0,0,0,.114-.006A.908.908,0,0,0,18.22-7.7q.085-.023.223-.067t.36-.12q.334-.117.612-.2t.527-.129q.249-.05.483-.073t.48-.023a3.026,3.026,0,0,1,.6.059,1.669,1.669,0,0,1,.516.19,1.037,1.037,0,0,1,.36.346.953.953,0,0,1,.135.519,1.661,1.661,0,0,1-.275.938,2.992,2.992,0,0,1-.779.773,6.756,6.756,0,0,1-1.21.665q-.706.308-1.573.606a9.692,9.692,0,0,1,1.192.249,3.592,3.592,0,0,1,.829.337,1.416,1.416,0,0,1,.486.439A1.017,1.017,0,0,1,21.346-2.625Zm-1.992-.539-.214-.041q-.155-.029-.363-.064l-.448-.073q-.24-.038-.457-.076t-.4-.073q-.179-.035-.261-.059-.223.721-.39,1.38L16.488-.844l.387.041.237.021.12.009a3.894,3.894,0,0,0,.516-.091q.281-.067.583-.17t.612-.24q.311-.138.609-.3a2.485,2.485,0,0,0,.234-.17,1.579,1.579,0,0,0,.223-.22,1.23,1.23,0,0,0,.164-.255.632.632,0,0,0,.064-.275.5.5,0,0,0-.246-.407A1.856,1.856,0,0,0,19.354-3.164ZM17.5-4.523q.328-.105.691-.249t.747-.313q.384-.17.779-.36t.788-.384H20.5a1.961,1.961,0,0,0,.278-.185,1.757,1.757,0,0,0,.246-.234,1.24,1.24,0,0,0,.176-.264.616.616,0,0,0,.067-.272.413.413,0,0,0-.041-.176.444.444,0,0,0-.129-.158.656.656,0,0,0-.231-.111,1.309,1.309,0,0,0-.354-.041,3.439,3.439,0,0,0-.662.073,6.382,6.382,0,0,0-.715.185,4.383,4.383,0,0,0-.615.246.986.986,0,0,0-.357.258.766.766,0,0,0-.05.129q-.032.1-.073.22t-.085.231a.69.69,0,0,1-.085.164q-.012.059-.047.179t-.085.284q-.05.164-.111.363T17.5-4.523Zm5.344,2.6q.117-.475.27-1.034T23.432-4.1l.325-1.157q.161-.574.3-1.084t.231-.92q.1-.41.132-.662L24.48-8.4l.038-.117a.412.412,0,0,1,.062-.12.374.374,0,0,1,.108-.1.316.316,0,0,1,.167-.041.651.651,0,0,1,.3.064.527.527,0,0,1,.2.173.692.692,0,0,1,.1.249,1.433,1.433,0,0,1,.029.293,2.059,2.059,0,0,1-.023.308q-.023.155-.053.278-.193.8-.442,1.62t-.448,1.644a5.393,5.393,0,0,1,.492-.413,3.972,3.972,0,0,1,.554-.346,3.284,3.284,0,0,1,.595-.237,2.189,2.189,0,0,1,.609-.088,1.5,1.5,0,0,1,.557.094,1.069,1.069,0,0,1,.387.255,1.009,1.009,0,0,1,.226.384,1.529,1.529,0,0,1,.073.48A2.309,2.309,0,0,1,28-3.759a2.1,2.1,0,0,1-.044.255,4.19,4.19,0,0,1-.431,1.09,4.669,4.669,0,0,1-.633.858,4.954,4.954,0,0,1-.768.668,8.495,8.495,0,0,1-.835.519,3.078,3.078,0,0,1-.53.226,1.684,1.684,0,0,1-.5.079,1.041,1.041,0,0,1-.366-.05.66.66,0,0,1-.226-.149,1.068,1.068,0,0,1-.073.123.674.674,0,0,1-.105.12.5.5,0,0,1-.146.091.494.494,0,0,1-.19.035.59.59,0,0,1-.475-.167.673.673,0,0,1-.141-.448,1.428,1.428,0,0,1,.015-.2,1.434,1.434,0,0,1,.044-.2Zm3.727-2.385a1.524,1.524,0,0,0-.6.141,4.726,4.726,0,0,0-.653.349q-.328.208-.633.445t-.539.425q-.07.24-.141.463t-.138.451q-.067.229-.123.469t-.1.51l-.035.229.035.105a1.336,1.336,0,0,1,.226-.105q.1-.035.2-.062l.2-.056a2.138,2.138,0,0,0,.234-.082,4.566,4.566,0,0,0,1.544-.99,3.219,3.219,0,0,0,.853-1.529q.029-.129.047-.229a1.053,1.053,0,0,0,.018-.182.345.345,0,0,0-.094-.264A.437.437,0,0,0,26.572-4.307Z" transform="translate(273 1747)" fill="#fff"/>
      </g>
      <g id="Font_selected" data-name="Font selected">
        <rect id="Rectangle_448" data-name="Rectangle 448" width="58" height="24" rx="3" transform="translate(268 1652)" fill="#3c50e0"/>
        <path id="Path_619" data-name="Path 619" d="M-1.359,0H.369l-5.13-12.6H-6.543L-11.673,0h1.728l1.332-3.33h5.922ZM-8.037-4.77l2.394-5.976L-3.267-4.77ZM8.919-9.144v.864a4.12,4.12,0,0,0-2.9-1.08A4.64,4.64,0,0,0,1.4-4.572,4.64,4.64,0,0,0,6.021.216a4.12,4.12,0,0,0,2.9-1.08V0H10.5V-9.144ZM6.2-1.224A3.156,3.156,0,0,1,3.015-4.572,3.156,3.156,0,0,1,6.2-7.92,3.445,3.445,0,0,1,8.919-6.642V-2.5A3.445,3.445,0,0,1,6.2-1.224Z" transform="translate(289 1670)" fill="#fff"/>
        <path id="Path_620" data-name="Path 620" d="M-3.016-6a.468.468,0,0,0-.33.8L-.333-2.184a.47.47,0,0,0,.663,0L3.345-5.2a.468.468,0,0,0-.33-.8Z" transform="translate(314 1669)" fill="#fff"/>
      </g>
    </g>
    <g id="Customizer">
      <g id="Login_Preview" data-name="Login Preview">
        <path id="Rectangle_446" data-name="Rectangle 446" d="M0,0H101a3,3,0,0,1,3,3V97a3,3,0,0,1-3,3H0a0,0,0,0,1,0,0V0A0,0,0,0,1,0,0Z" transform="translate(374 1652)" fill="#c3c9f8"/>
        <g id="Group_93" data-name="Group 93" transform="translate(405.545 1674)">
          <rect id="Rectangle_437" data-name="Rectangle 437" width="40" height="55" rx="2" transform="translate(0.456)" fill="#3c50e0"/>
          <g id="Group_91" data-name="Group 91" transform="translate(5 6)">
            <rect id="Rectangle_439" data-name="Rectangle 439" width="30" height="6" rx="1" transform="translate(0.456 16)" fill="#fff" opacity="0.9"/>
            <rect id="Rectangle_440" data-name="Rectangle 440" width="30" height="6" rx="1" transform="translate(0.456 26)" fill="#fff" opacity="0.9"/>
            <rect id="Rectangle_441" data-name="Rectangle 441" width="16" height="7" rx="1" transform="translate(7.456 36)" fill="#ff5670"/>
            <rect id="Rectangle_438" data-name="Rectangle 438" width="12" height="12" rx="6" transform="translate(9.456)" fill="#ff5670"/>
          </g>
        </g>
      </g>
      <g id="Aside">
        <path id="Rectangle_447" data-name="Rectangle 447" d="M3,0H42a0,0,0,0,1,0,0V100a0,0,0,0,1,0,0H3a3,3,0,0,1-3-3V3A3,3,0,0,1,3,0Z" transform="translate(333 1652)" fill="#a9b1f2"/>
        <g id="Font_dropdown" data-name="Font dropdown" transform="translate(1.055 -24)">
          <rect id="Rectangle_452" data-name="Rectangle 452" width="36" height="11" rx="2" transform="translate(334.945 1680)" fill="#3c50e0"/>
          <rect id="Rectangle_453" data-name="Rectangle 453" width="36" height="55" rx="2" transform="translate(334.945 1687)" fill="#3c50e0" opacity="0.33"/>
          <rect id="Rectangle_454" data-name="Rectangle 454" width="30" height="5" rx="1" transform="translate(337.945 1694)" fill="#3c50e0" opacity="0.33"/>
          <rect id="Rectangle_455" data-name="Rectangle 455" width="30" height="5" rx="1" transform="translate(337.945 1702)" fill="#3c50e0" opacity="0.33"/>
          <rect id="Rectangle_456" data-name="Rectangle 456" width="30" height="5" rx="1" transform="translate(337.945 1710)" fill="#3c50e0" opacity="0.33"/>
          <rect id="Rectangle_457" data-name="Rectangle 457" width="30" height="5" rx="1" transform="translate(337.945 1718)" fill="#3c50e0" opacity="0.33"/>
          <rect id="Rectangle_458" data-name="Rectangle 458" width="30" height="5" rx="1" transform="translate(337.945 1726)" fill="#3c50e0" opacity="0.33"/>
          <rect id="Rectangle_459" data-name="Rectangle 459" width="30" height="5" rx="1" transform="translate(337.945 1734)" fill="#3c50e0" opacity="0.33"/>
          <path id="Path_624" data-name="Path 624" d="M-.6,0H.164l-2.28-5.6h-.792L-5.188,0h.768l.592-1.48H-1.2ZM-3.572-2.12l1.064-2.656L-1.452-2.12ZM3.964-4.064v.384a1.831,1.831,0,0,0-1.288-.48A2.062,2.062,0,0,0,.62-2.032,2.062,2.062,0,0,0,2.676.1a1.831,1.831,0,0,0,1.288-.48V0h.7V-4.064ZM2.756-.544A1.4,1.4,0,0,1,1.34-2.032,1.4,1.4,0,0,1,2.756-3.52a1.531,1.531,0,0,1,1.208.568v1.84A1.531,1.531,0,0,1,2.756-.544Z" transform="translate(343.945 1688)" fill="#fff"/>
          <path id="Path_625" data-name="Path 625" d="M-1.76-3.5a.273.273,0,0,0-.193.466l1.758,1.76a.274.274,0,0,0,.387,0l1.758-1.76A.273.273,0,0,0,1.758-3.5Z" transform="translate(365.945 1688)" fill="#fff"/>
        </g>
      </g>
    </g>
  </g>
</svg>
