<svg xmlns="http://www.w3.org/2000/svg" xmlns:xlink="http://www.w3.org/1999/xlink" width="210" height="107" viewBox="0 0 210 107">
  <defs>
    <filter id="Rectangle_436" x="57" y="20" width="112" height="87" filterUnits="userSpaceOnUse">
      <feOffset dy="-5" input="SourceAlpha"/>
      <feGaussianBlur stdDeviation="4" result="blur"/>
      <feFlood flood-color="#3c50e0" flood-opacity="0.149"/>
      <feComposite operator="in" in2="blur"/>
      <feComposite in="SourceGraphic"/>
    </filter>
  </defs>
  <g id="Icon" transform="translate(-268 -1652)">
    <g id="Login_Screen" data-name="Login Screen" transform="translate(-66 -9)">
      <rect id="Rectangle_436-2" data-name="Rectangle 436" width="88" height="63" rx="3" transform="translate(334 1670)" fill="#3c50e0"/>
      <g id="Group_92" data-name="Group 92" transform="translate(363.94 1682)">
        <g id="Group_91" data-name="Group 91" transform="translate(2 5)">
          <rect id="Rectangle_439" data-name="Rectangle 439" width="24" height="4" rx="1" transform="translate(0.059 11)" fill="#fff" opacity="0.9"/>
          <rect id="Rectangle_440" data-name="Rectangle 440" width="24" height="4" rx="1" transform="translate(0.059 18)" fill="#fff" opacity="0.9"/>
          <rect id="Rectangle_441" data-name="Rectangle 441" width="16" height="4" rx="1" transform="translate(4.059 25)" fill="#ff5670"/>
          <rect id="Rectangle_438" data-name="Rectangle 438" width="8" height="8" rx="4" transform="translate(8.059)" fill="#fff"/>
        </g>
      </g>
    </g>
    <g id="Login_Screen-2" data-name="Login Screen" transform="translate(56 -18)">
      <rect id="Rectangle_436-3" data-name="Rectangle 436" width="88" height="63" rx="3" transform="translate(334 1670)" fill="#e1e4ff"/>
      <rect id="Rectangle_465" data-name="Rectangle 465" width="78" height="49" rx="3" transform="translate(339 1677)" fill="#c3c9f8"/>
      <path id="Rectangle_466" data-name="Rectangle 466" d="M3,0H39a0,0,0,0,1,0,0V49a0,0,0,0,1,0,0H3a3,3,0,0,1-3-3V3A3,3,0,0,1,3,0Z" transform="translate(339 1677)" fill="#fff"/>
      <g id="Group_92-2" data-name="Group 92" transform="translate(383.94 1682)">
        <g id="Group_91-2" data-name="Group 91" transform="translate(2 5)">
          <rect id="Rectangle_439-2" data-name="Rectangle 439" width="24" height="4" rx="1" transform="translate(0.059 11)" fill="#fff" opacity="0.9"/>
          <rect id="Rectangle_440-2" data-name="Rectangle 440" width="24" height="4" rx="1" transform="translate(0.059 18)" fill="#fff" opacity="0.9"/>
          <rect id="Rectangle_441-2" data-name="Rectangle 441" width="16" height="4" rx="1" transform="translate(4.059 25)" fill="#ff5670"/>
          <rect id="Rectangle_438-2" data-name="Rectangle 438" width="8" height="8" rx="2" transform="translate(8.059)" fill="#ff5670"/>
        </g>
      </g>
      <g id="Group_98" data-name="Group 98" transform="translate(29 8)">
        <path id="Path_175" data-name="Path 175" d="M28.635,20.3l-8.306,8.275L8.579,16.586,0,25.124.052,51.269a.99.99,0,0,0,.992.988H38.061a.99.99,0,0,0,.992-.988L39,30.739Z" transform="translate(310 1665.748)" fill="#3c50e0"/>
        <rect id="Rectangle_467" data-name="Rectangle 467" width="7" height="7" rx="3.5" transform="translate(330 1674)" fill="#ff5670"/>
      </g>
    </g>
    <g id="Login_Screen-3" data-name="Login Screen" transform="translate(3 19)">
      <g transform="matrix(1, 0, 0, 1, 265, 1633)" filter="url(#Rectangle_436)">
        <rect id="Rectangle_436-4" data-name="Rectangle 436" width="88" height="63" rx="2" transform="translate(69 37)" fill="#c3c9f8"/>
      </g>
      <g id="Group_92-3" data-name="Group 92" transform="translate(363.94 1682)">
        <rect id="Rectangle_437" data-name="Rectangle 437" width="28" height="39" rx="2" transform="translate(0.059)" fill="#3c50e0"/>
        <g id="Group_91-3" data-name="Group 91" transform="translate(2 5)">
          <rect id="Rectangle_439-3" data-name="Rectangle 439" width="24" height="4" rx="1" transform="translate(0.059 11)" fill="#fff" opacity="0.9"/>
          <rect id="Rectangle_440-3" data-name="Rectangle 440" width="24" height="4" rx="1" transform="translate(0.059 18)" fill="#fff" opacity="0.9"/>
          <rect id="Rectangle_441-3" data-name="Rectangle 441" width="16" height="4" rx="1" transform="translate(4.059 25)" fill="#ff5670"/>
          <rect id="Rectangle_438-3" data-name="Rectangle 438" width="8" height="8" rx="4" transform="translate(8.059)" fill="#ff5670"/>
        </g>
      </g>
    </g>
  </g>
</svg>
