<svg xmlns="http://www.w3.org/2000/svg" width="212" height="100" viewBox="0 0 212 100">
  <g id="Login_Screen" data-name="Login Screen" transform="translate(-264 -1650)">
    <rect id="Rectangle_436" data-name="Rectangle 436" width="212" height="100" rx="2" transform="translate(264 1650)" fill="#c3c9f8"/>
    <path id="Rectangle_513" data-name="Rectangle 513" d="M0,0H212a0,0,0,0,1,0,0V9a2,2,0,0,1-2,2H2A2,2,0,0,1,0,9V0A0,0,0,0,1,0,0Z" transform="translate(264 1739)" fill="#919ceb"/>
    <rect id="Rectangle_514" data-name="Rectangle 514" width="54" height="3" rx="1" transform="translate(343 1743)" fill="#fff" opacity="0.8"/>
    <rect id="Rectangle_515" data-name="Rectangle 515" width="18" height="3" rx="1" transform="translate(450 1743)" fill="#fff" opacity="0.8"/>
    <g id="Group_92" data-name="Group 92" transform="translate(351.675 1671)">
      <rect id="Rectangle_437" data-name="Rectangle 437" width="36" height="48" rx="2" transform="translate(0.325)" fill="#3c50e0"/>
      <g id="Group_91" data-name="Group 91" transform="translate(2.06 5)">
        <rect id="Rectangle_439" data-name="Rectangle 439" width="32" height="5" rx="1" transform="translate(0.266 14)" fill="#fff" opacity="0.9"/>
        <rect id="Rectangle_440" data-name="Rectangle 440" width="32" height="5" rx="1" transform="translate(0.266 23)" fill="#fff" opacity="0.9"/>
        <rect id="Rectangle_441" data-name="Rectangle 441" width="24" height="5" rx="1" transform="translate(4.266 33)" fill="#ff5670"/>
        <rect id="Rectangle_438" data-name="Rectangle 438" width="10" height="10" rx="5" transform="translate(11.266 -1)" fill="#ff5670"/>
      </g>
    </g>
  </g>
</svg>
