<svg xmlns="http://www.w3.org/2000/svg" width="210" height="100" viewBox="0 0 210 100">
  <g id="Icon" transform="translate(-268 -1652)">
    <g id="CSS_Preview" data-name="CSS Preview">
      <rect id="Rectangle_451" data-name="Rectangle 451" width="58" height="100" rx="3" transform="translate(268 1652)" fill="#3c50e0"/>
      <g id="CSS" transform="translate(-63.945 -47)">
        <rect id="Rectangle_454" data-name="Rectangle 454" width="18" height="3" rx="1" transform="translate(338.945 1708)" fill="#fff"/>
        <rect id="Rectangle_494" data-name="Rectangle 494" width="18" height="2" rx="1" transform="translate(385.945 1705) rotate(90)" fill="#fff"/>
        <rect id="Rectangle_495" data-name="Rectangle 495" width="86" height="2" rx="1" transform="translate(385.945 1707.5) rotate(90)" fill="#fff" opacity="0.4"/>
        <rect id="Rectangle_455" data-name="Rectangle 455" width="20" height="3" rx="1" transform="translate(343.945 1714)" fill="#fff"/>
        <rect id="Rectangle_456" data-name="Rectangle 456" width="25" height="3" rx="1" transform="translate(349.945 1720)" fill="#fff"/>
        <rect id="Rectangle_457" data-name="Rectangle 457" width="17" height="3" rx="1" transform="translate(349.945 1726)" fill="#fff"/>
        <rect id="Rectangle_458" data-name="Rectangle 458" width="15" height="3" rx="1" transform="translate(338.945 1732)" fill="#fff"/>
        <rect id="Rectangle_489" data-name="Rectangle 489" width="15" height="3" rx="1" transform="translate(338.945 1762)" fill="#fff"/>
        <rect id="Rectangle_459" data-name="Rectangle 459" width="22" height="3" rx="1" transform="translate(343.945 1738)" fill="#fff"/>
        <rect id="Rectangle_490" data-name="Rectangle 490" width="22" height="3" rx="1" transform="translate(343.945 1768)" fill="#fff"/>
        <rect id="Rectangle_486" data-name="Rectangle 486" width="17" height="3" rx="1" transform="translate(349.945 1744)" fill="#fff"/>
        <rect id="Rectangle_487" data-name="Rectangle 487" width="24" height="3" rx="1" transform="translate(349.945 1750)" fill="#fff"/>
        <rect id="Rectangle_492" data-name="Rectangle 492" width="24" height="3" rx="1" transform="translate(343.945 1774)" fill="#fff"/>
        <rect id="Rectangle_491" data-name="Rectangle 491" width="27" height="3" rx="1" transform="translate(349.945 1780)" fill="#fff"/>
        <rect id="Rectangle_493" data-name="Rectangle 493" width="18" height="3" rx="1" transform="translate(349.945 1786)" fill="#fff"/>
        <rect id="Rectangle_488" data-name="Rectangle 488" width="17" height="3" rx="1" transform="translate(356.945 1756)" fill="#fff"/>
      </g>
    </g>
    <g id="Customizer">
      <g id="Login_Preview" data-name="Login Preview">
        <path id="Rectangle_446" data-name="Rectangle 446" d="M0,0H101a3,3,0,0,1,3,3V97a3,3,0,0,1-3,3H0a0,0,0,0,1,0,0V0A0,0,0,0,1,0,0Z" transform="translate(374 1652)" fill="#c3c9f8"/>
        <g id="Group_93" data-name="Group 93" transform="translate(405.545 1674)">
          <rect id="Rectangle_437" data-name="Rectangle 437" width="40" height="55" rx="2" transform="translate(0.456)" fill="#3c50e0"/>
          <g id="Group_91" data-name="Group 91" transform="translate(5 6)">
            <rect id="Rectangle_439" data-name="Rectangle 439" width="30" height="6" rx="1" transform="translate(0.456 16)" fill="#fff" opacity="0.9"/>
            <rect id="Rectangle_440" data-name="Rectangle 440" width="30" height="6" rx="1" transform="translate(0.456 26)" fill="#fff" opacity="0.9"/>
            <rect id="Rectangle_441" data-name="Rectangle 441" width="16" height="7" rx="1" transform="translate(7.456 36)" fill="#ff5670"/>
            <rect id="Rectangle_438" data-name="Rectangle 438" width="12" height="12" rx="6" transform="translate(9.456)" fill="#ff5670"/>
          </g>
        </g>
      </g>
      <g id="Aside">
        <path id="Rectangle_447" data-name="Rectangle 447" d="M3,0H42a0,0,0,0,1,0,0V100a0,0,0,0,1,0,0H3a3,3,0,0,1-3-3V3A3,3,0,0,1,3,0Z" transform="translate(333 1652)" fill="#8591ed"/>
        <g id="Font_dropdown" data-name="Font dropdown" transform="translate(1.055 -24)">
          <g id="CSS-2" data-name="CSS">
            <rect id="Rectangle_453" data-name="Rectangle 453" width="34" height="58" rx="2" transform="translate(335.945 1701)" fill="#3c50e0" opacity="0.7"/>
            <rect id="Rectangle_454-2" data-name="Rectangle 454" width="18" height="2" rx="1" transform="translate(338.945 1706)" fill="#fff" opacity="0.8"/>
            <rect id="Rectangle_455-2" data-name="Rectangle 455" width="20" height="2" rx="1" transform="translate(342.945 1712)" fill="#fff" opacity="0.8"/>
            <rect id="Rectangle_456-2" data-name="Rectangle 456" width="19" height="2" rx="1" transform="translate(346.945 1717)" fill="#fff" opacity="0.8"/>
            <rect id="Rectangle_457-2" data-name="Rectangle 457" width="13" height="2" rx="1" transform="translate(346.945 1722)" fill="#fff" opacity="0.8"/>
            <rect id="Rectangle_458-2" data-name="Rectangle 458" width="15" height="2" rx="1" transform="translate(338.945 1730)" fill="#fff" opacity="0.8"/>
            <rect id="Rectangle_459-2" data-name="Rectangle 459" width="22" height="2" rx="1" transform="translate(342.945 1736)" fill="#fff" opacity="0.8"/>
            <rect id="Rectangle_486-2" data-name="Rectangle 486" width="13" height="2" rx="1" transform="translate(346.945 1741)" fill="#fff" opacity="0.8"/>
            <rect id="Rectangle_496" data-name="Rectangle 496" width="14" height="2" rx="1" transform="translate(351.945 1751)" fill="#fff" opacity="0.8"/>
            <rect id="Rectangle_487-2" data-name="Rectangle 487" width="19" height="2" rx="1" transform="translate(346.945 1746)" fill="#fff" opacity="0.8"/>
          </g>
          <text id="JS" transform="translate(334.945 1695)" fill="#fff" font-size="14" font-family="BRCandor-SemiBold, BR Candor" font-weight="600"><tspan x="0" y="0">JS</tspan></text>
        </g>
      </g>
    </g>
  </g>
</svg>
