<?xml version="1.0" encoding="utf-8"?>
<!-- Generator: Adobe Illustrator 24.0.1, SVG Export Plug-In . SVG Version: 6.00 Build 0)  -->
<svg version="1.1" id="Layer_1" xmlns="http://www.w3.org/2000/svg" xmlns:xlink="http://www.w3.org/1999/xlink" x="0px" y="0px"
	 width="35.6px" height="35.6px" viewBox="0 0 35.6 35.6" style="enable-background:new 0 0 35.6 35.6;" xml:space="preserve">
<style type="text/css">
	.st0{fill:url(#Path_129_1_);}
	.st1{fill:#DD8766;}
	.st2{fill:#5B0600;}
	.st3{fill:none;}
	.st4{fill:#8E1112;}
	.st5{fill-rule:evenodd;clip-rule:evenodd;fill:url(#Path_127_1_);}
	.st6{fill-rule:evenodd;clip-rule:evenodd;fill:url(#Path_128_1_);}
</style>
<g id="smily-icon" transform="translate(-271.994 -7.738)">
	
		<linearGradient id="Path_129_1_" gradientUnits="userSpaceOnUse" x1="-8.0839" y1="410.1911" x2="-7.9719" y2="411.1301" gradientTransform="matrix(35.637 0 0 -35.637 575.9317 14660.0176)">
		<stop  offset="0" style="stop-color:#EBB34D"/>
		<stop  offset="3.300000e-02" style="stop-color:#EBB64D"/>
		<stop  offset="0.178" style="stop-color:#EEC04F"/>
		<stop  offset="0.551" style="stop-color:#F0CC50"/>
		<stop  offset="1" style="stop-color:#F3D652"/>
	</linearGradient>
	<path id="Path_129" class="st0" d="M289.9,7.7c9.7-0.1,17.6,7.6,17.7,17.3c0,0.1,0,0.2,0,0.4c-0.1,9.9-8.1,17.8-18,18
		c-9.7,0.1-17.6-7.6-17.7-17.3c0-0.1,0-0.2,0-0.4C272.1,15.8,280.1,7.8,289.9,7.7z"/>
	<g id="Group_49" transform="translate(327.582 55.589)">
		<ellipse id="Ellipse_2" class="st1" cx="-47.9" cy="-32" rx="3.2" ry="1.3"/>
		<ellipse id="Ellipse_3" class="st1" cx="-27.6" cy="-32" rx="3.2" ry="1.3"/>
		<path id="Path_125" class="st2" d="M-47.9-28.8c6.7-0.9,13.6-0.9,20.3,0c0,0,0.4,9.1-10.2,9.1S-47.9-28.8-47.9-28.8z"/>
		<path class="st3" d="M-30.5-22.1c-1.5,1.4-3.8,2.4-7.3,2.4c-3.5,0-5.8-1-7.3-2.4c-3-2.7-2.9-6.7-2.9-6.7c6.8-0.9,13.6-0.9,20.3,0
			C-27.6-28.8-27.4-24.8-30.5-22.1z"/>
		<g id="Group_47">
			<path class="st4" d="M-30.5-22.1c-1.5,1.4-3.8,2.4-7.3,2.4c-3.5,0-5.8-1-7.3-2.4c1.5-1.3,4.2-2.1,7.3-2.1
				C-34.7-24.2-32-23.3-30.5-22.1z"/>
		</g>
		
			<linearGradient id="Path_127_1_" gradientUnits="userSpaceOnUse" x1="-308.3622" y1="325.5046" x2="-307.3472" y2="325.5046" gradientTransform="matrix(9.1619 0 0 -8.6568 2853.7966 2781.0635)">
			<stop  offset="4.000000e-03" style="stop-color:#D2254D"/>
			<stop  offset="1" style="stop-color:#D65C4E"/>
		</linearGradient>
		<path id="Path_127" class="st5" d="M-44-41c-1,0.3-1.7,1.1-1.9,2.1c-0.6-0.8-1.7-1.2-2.6-0.9c-1.2,0.3-2,1.5-1.7,2.7
			c0,0,0,0.1,0,0.1c0.4,1.8,2.7,2.7,6,4.6c1.9-3.3,3.5-5.2,3-6.9C-41.5-40.6-42.7-41.3-44-41C-44-41-44-41-44-41L-44-41z"/>
		
			<linearGradient id="Path_128_1_" gradientUnits="userSpaceOnUse" x1="-458.5465" y1="325.5037" x2="-457.5315" y2="325.5037" gradientTransform="matrix(9.1613 0 0 -8.6566 2869.2329 2780.9834)">
			<stop  offset="4.000000e-03" style="stop-color:#D2254D"/>
			<stop  offset="1" style="stop-color:#D65C4E"/>
		</linearGradient>
		<path id="Path_128" class="st6" d="M-31.7-41c-1.2-0.3-2.5,0.4-2.8,1.6c0,0,0,0.1,0,0.1c-0.4,1.8,1.1,3.6,3,6.9
			c3.3-1.9,5.5-2.8,6-4.6c0.3-1.2-0.4-2.5-1.6-2.8c0,0-0.1,0-0.1,0c-1-0.2-2,0.1-2.6,0.9C-30-40-30.8-40.8-31.7-41L-31.7-41z"/>
	</g>
</g>
</svg>
